<svg width="24" height="24" viewBox="0 0 24 24" fill="none" xmlns="http://www.w3.org/2000/svg">
<mask id="mask0_263_4395" style="mask-type:alpha" maskUnits="userSpaceOnUse" x="0" y="0" width="24" height="24">
<rect width="24" height="24" fill="#D9D9D9"/>
</mask>
<g mask="url(#mask0_263_4395)">
<mask id="mask1_263_4395" style="mask-type:luminance" maskUnits="userSpaceOnUse" x="4" y="3" width="16" height="18">
<path d="M20 3H4V20.3127H20V3Z" fill="white"/>
</mask>
<g mask="url(#mask1_263_4395)">
<path d="M9.3308 20.3085H5.77949C5.30508 20.3053 4.85134 20.114 4.51775 19.7766C4.18417 19.4393 3.99798 18.9834 4.00002 18.509V9.83217C3.99988 9.45321 4.08573 9.07916 4.25109 8.73819C4.41645 8.39722 4.65701 8.0982 4.95467 7.86367L10.4506 3.53622C10.8926 3.1882 11.4389 2.99896 12.0014 2.99896C12.564 2.99896 13.1103 3.1882 13.5523 3.53622L19.0444 7.86271C19.3421 8.0972 19.5827 8.39621 19.7481 8.73719C19.9134 9.07817 19.9993 9.45224 19.9991 9.83121V18.51C20.0014 18.9838 19.8158 19.4392 19.483 19.7765C19.1501 20.1138 18.6972 20.3055 18.2234 20.3095H14.6683V14.168C14.6684 14.0408 14.6435 13.9148 14.5949 13.7972C14.5463 13.6797 14.475 13.5729 14.3851 13.4829C14.2952 13.3929 14.1884 13.3215 14.0709 13.2728C13.9534 13.2241 13.8275 13.199 13.7003 13.199H10.3007C10.1734 13.1989 10.0474 13.2239 9.92977 13.2725C9.81215 13.3212 9.70529 13.3925 9.61528 13.4825C9.52528 13.5725 9.45391 13.6794 9.40526 13.797C9.35661 13.9146 9.33163 14.0407 9.33176 14.168V20.3095L9.3308 20.3085Z" fill="white"/>
</g>
</g>
</svg>
