<svg width="30" height="30" viewBox="0 0 30 30" fill="none" xmlns="http://www.w3.org/2000/svg">
<mask id="mask0_1006_10357" style="mask-type:alpha" maskUnits="userSpaceOnUse" x="0" y="0" width="30" height="30">
<rect width="30" height="30" fill="#D9D9D9"/>
</mask>
<g mask="url(#mask0_1006_10357)">
<path fill-rule="evenodd" clip-rule="evenodd" d="M15 5C14.6881 5 14.3827 5.08872 14.1199 5.25568C13.8604 5.42051 13.6531 5.6548 13.5217 5.9315L11.0263 10.9404C11.0214 10.9503 11.0167 10.9602 11.0123 10.9703C11.0111 10.9727 11.0094 10.9749 11.0072 10.9765C11.005 10.9781 11.0024 10.9792 10.9996 10.9795C10.9901 10.9805 10.9805 10.9817 10.971 10.9831L5.4765 11.7925C5.17281 11.8218 4.88322 11.9351 4.64066 12.1198C4.38969 12.311 4.19984 12.5704 4.09411 12.8666C3.98839 13.1628 3.97133 13.4832 4.045 13.7889C4.11839 14.0934 4.27867 14.3703 4.50653 14.5863L8.5285 18.4446L8.53766 18.4533C8.5434 18.4586 8.54772 18.4653 8.55021 18.4727C8.55269 18.4801 8.55327 18.488 8.55189 18.4957L8.55101 18.5008L7.5926 24.0775C7.53994 24.3798 7.57328 24.692 7.6893 24.9761C7.80547 25.2609 7.99969 25.5073 8.24981 25.6877C8.49995 25.8679 8.79596 25.9748 9.10417 25.996C9.41176 26.0173 9.71918 25.9524 9.99158 25.809L9.99323 25.808L14.9437 23.2067C14.9614 23.1991 14.9806 23.195 15 23.195C15.0194 23.195 15.0386 23.1991 15.0564 23.2067L20.0068 25.808C20.2793 25.952 20.588 26.0174 20.8958 25.996C21.204 25.9748 21.5 25.8679 21.7502 25.6877C22.0003 25.5073 22.1946 25.2609 22.3108 24.9761C22.4268 24.692 22.4602 24.3813 22.4077 24.0793L22.4074 24.0775L21.4491 18.5008L21.4481 18.4957C21.4467 18.488 21.4474 18.4801 21.4499 18.4727C21.4522 18.4653 21.4566 18.4586 21.4623 18.4533L21.4716 18.4446L25.4936 14.5863C25.7213 14.3702 25.8817 14.0934 25.9551 13.7889C26.0286 13.4832 26.0116 13.1628 25.9059 12.8666C25.8002 12.5704 25.6104 12.311 25.3593 12.1198C25.1168 11.9351 24.8273 11.8218 24.5236 11.7925L19.0291 10.9831C19.0195 10.9817 19.01 10.9805 19.0004 10.9795C18.9977 10.9792 18.9951 10.9781 18.9928 10.9765C18.9906 10.9749 18.9889 10.9727 18.9878 10.9703C18.9833 10.9602 18.9786 10.9503 18.9737 10.9404L16.4783 5.93148C16.3469 5.65479 16.1396 5.4205 15.8801 5.25568C15.6173 5.08872 15.3119 5 15 5Z" fill="#C7C8D2"/>
</g>
</svg>
