<svg width="24" height="24" viewBox="0 0 24 24" fill="none" xmlns="http://www.w3.org/2000/svg">
<mask id="mask0_263_4392" style="mask-type:alpha" maskUnits="userSpaceOnUse" x="0" y="0" width="24" height="24">
<rect width="24" height="24" fill="#D9D9D9"/>
</mask>
<g mask="url(#mask0_263_4392)">
<mask id="mask1_263_4392" style="mask-type:luminance" maskUnits="userSpaceOnUse" x="3" y="3" width="17" height="18">
<path d="M20.0001 3.68372H3.68994V20.3164H20.0001V3.68372Z" fill="white"/>
</mask>
<g mask="url(#mask1_263_4392)">
<path d="M17.6683 3.68372H9.86561C9.5414 3.68352 9.22069 3.75091 8.92397 3.88158C8.62725 4.01225 8.36103 4.20334 8.14228 4.44265L4.29846 8.65414C3.90688 9.08401 3.68987 9.64459 3.68994 10.2261V17.9855C3.68981 18.2917 3.75004 18.595 3.86718 18.878C3.98432 19.161 4.15608 19.4181 4.37264 19.6346C4.5892 19.8512 4.84631 20.023 5.12928 20.1401C5.41225 20.2572 5.71553 20.3175 6.02179 20.3173H17.6683C17.9745 20.3175 18.2778 20.2572 18.5608 20.1401C18.8438 20.023 19.1009 19.8512 19.3174 19.6346C19.534 19.4181 19.7057 19.161 19.8229 18.878C19.94 18.595 20.0003 18.2917 20.0001 17.9855V6.01557C20.0003 5.70931 19.94 5.40603 19.8229 5.12305C19.7057 4.84008 19.534 4.58297 19.3174 4.36641C19.1009 4.14985 18.8438 3.9781 18.5608 3.86095C18.2778 3.74381 17.9745 3.68359 17.6683 3.68372ZM6.01983 11.2603C6.02009 10.9696 6.13566 10.691 6.34116 10.4855C6.54667 10.28 6.82532 10.1644 7.11596 10.1641H16.4935C16.7843 10.1641 17.0633 10.2797 17.2689 10.4853C17.4746 10.691 17.5901 10.9699 17.5901 11.2608C17.5901 11.5516 17.4746 11.8305 17.2689 12.0362C17.0633 12.2418 16.7843 12.3574 16.4935 12.3574H7.11596C6.82515 12.3571 6.54635 12.2414 6.34082 12.0357C6.13528 11.83 6.01983 11.5511 6.01983 11.2603ZM16.5731 17.1518H7.19558C6.90474 17.1518 6.62581 17.0363 6.42016 16.8306C6.2145 16.625 6.09897 16.3461 6.09897 16.0552C6.09897 15.7644 6.2145 15.4854 6.42016 15.2798C6.62581 15.0741 6.90474 14.9586 7.19558 14.9586H16.5731C16.864 14.9586 17.1429 15.0741 17.3486 15.2798C17.5542 15.4854 17.6698 15.7644 17.6698 16.0552C17.6698 16.3461 17.5542 16.625 17.3486 16.8306C17.1429 17.0363 16.864 17.1518 16.5731 17.1518Z" fill="white"/>
</g>
</g>
</svg>
