<svg width="30" height="30" viewBox="0 0 30 30" fill="none" xmlns="http://www.w3.org/2000/svg">
<path d="M15.1455 3.5498C20.588 3.5498 24.9998 7.90952 25 13.2881C25 17.3014 22.5871 20.7636 20.4033 23.1016C19.289 24.2946 18.1789 25.2539 17.3486 25.915C16.9325 26.2464 16.5837 26.5058 16.3359 26.6836C16.2122 26.7722 16.1135 26.8411 16.0439 26.8887L15.9619 26.9443L15.9375 26.96L15.9307 26.9648L15.9287 26.9668C15.4557 27.2784 14.837 27.2784 14.3643 26.9668L14.3604 26.9648L14.3535 26.96L14.3301 26.9443L14.248 26.8887C14.1785 26.8411 14.079 26.7724 13.9551 26.6836C13.7074 26.5058 13.3586 26.2464 12.9424 25.915C12.112 25.2539 11.002 24.2946 9.8877 23.1016C7.70397 20.7636 5.29102 17.3014 5.29102 13.2881C5.2912 7.90956 9.70311 3.54987 15.1455 3.5498ZM15.1455 9.46191C12.9686 9.462 11.2041 11.2273 11.2041 13.4043C11.2042 15.5812 12.9686 17.3456 15.1455 17.3457C17.3224 17.3457 19.0878 15.5812 19.0879 13.4043C19.0879 11.2273 17.3225 9.46191 15.1455 9.46191Z" fill="#1B1F27"/>
</svg>
