<svg width="24" height="24" viewBox="0 0 24 24" fill="none" xmlns="http://www.w3.org/2000/svg">
<mask id="mask0_263_4391" style="mask-type:alpha" maskUnits="userSpaceOnUse" x="0" y="0" width="24" height="24">
<rect width="24" height="24" fill="#D9D9D9"/>
</mask>
<g mask="url(#mask0_263_4391)">
<g clip-path="url(#clip0_263_4391)">
<path d="M10.5699 5.54C10.5699 4.66736 9.71185 4.051 8.88463 4.32674C5.48167 5.4589 3 8.68669 3 12.4481C3 17.1422 6.86199 21.0042 11.5561 21.0042C15.3207 21.0042 18.5485 18.5193 19.6791 15.1131C19.9548 14.2842 19.3368 13.4278 18.4642 13.4278H11.861C11.1554 13.4278 10.5829 12.8569 10.5813 12.1497L10.5699 5.53838V5.54Z" fill="white"/>
<path d="M14.0652 3.02117C13.277 2.88006 12.5503 3.47858 12.5503 4.27985V10.132C12.5503 10.8392 13.1229 11.4118 13.8301 11.4118H19.6482C20.4462 11.4118 21.0447 10.69 20.9085 9.90334C20.3051 6.40792 17.5558 3.64564 14.0652 3.02117Z" fill="white"/>
</g>
</g>
<defs>
<clipPath id="clip0_263_4391">
<rect width="17.928" height="18.0043" fill="white" transform="translate(3 3)"/>
</clipPath>
</defs>
</svg>
