<svg width="30" height="30" viewBox="0 0 30 30" fill="none" xmlns="http://www.w3.org/2000/svg">
<mask id="mask0_504_5866" style="mask-type:alpha" maskUnits="userSpaceOnUse" x="0" y="0" width="30" height="30">
<rect width="30" height="30" fill="#D9D9D9"/>
</mask>
<g mask="url(#mask0_504_5866)">
<mask id="mask1_504_5866" style="mask-type:luminance" maskUnits="userSpaceOnUse" x="4" y="4" width="21" height="22">
<path d="M25 4.60461H4.6123V25.3954H25V4.60461Z" fill="white"/>
</mask>
<g mask="url(#mask1_504_5866)">
<path d="M22.0852 4.60461H12.3319C11.9266 4.60437 11.5257 4.6886 11.1548 4.85194C10.7839 5.01528 10.4512 5.25414 10.1777 5.55328L5.37296 10.8176C4.88347 11.355 4.61221 12.0557 4.6123 12.7826V22.4818C4.61214 22.8646 4.68743 23.2438 4.83385 23.5975C4.98028 23.9512 5.19498 24.2726 5.46567 24.5433C5.73637 24.814 6.05776 25.0287 6.41148 25.1751C6.76519 25.3215 7.1443 25.3968 7.52712 25.3966H22.0852C22.468 25.3968 22.8472 25.3215 23.2009 25.1751C23.5546 25.0287 23.876 24.814 24.1467 24.5433C24.4174 24.2726 24.6321 23.9512 24.7785 23.5975C24.9249 23.2438 25.0002 22.8646 25 22.4818V7.51943C25.0002 7.13661 24.9249 6.7575 24.7785 6.40379C24.6321 6.05007 24.4174 5.72868 24.1467 5.45798C23.876 5.18729 23.5546 4.97259 23.2009 4.82616C22.8472 4.67974 22.468 4.60445 22.0852 4.60461ZM7.52466 14.0753C7.52499 13.712 7.66945 13.3637 7.92633 13.1068C8.18322 12.8499 8.53153 12.7055 8.89482 12.7051H20.6168C20.9803 12.7051 21.329 12.8496 21.586 13.1066C21.8431 13.3637 21.9875 13.7124 21.9875 14.0759C21.9875 14.4395 21.8431 14.7881 21.586 15.0452C21.329 15.3023 20.9803 15.4467 20.6168 15.4467H8.89482C8.53132 15.4464 8.18282 15.3017 7.9259 15.0446C7.66898 14.7874 7.52466 14.4388 7.52466 14.0753ZM20.7163 21.4398H8.99436C8.63081 21.4398 8.28215 21.2953 8.02508 21.0383C7.76801 20.7812 7.62358 20.4325 7.62358 20.069C7.62358 19.7054 7.76801 19.3568 8.02508 19.0997C8.28215 18.8426 8.63081 18.6982 8.99436 18.6982H20.7163C21.0798 18.6982 21.4285 18.8426 21.6856 19.0997C21.9426 19.3568 22.0871 19.7054 22.0871 20.069C22.0871 20.4325 21.9426 20.7812 21.6856 21.0383C21.4285 21.2953 21.0798 21.4398 20.7163 21.4398Z" fill="white"/>
</g>
</g>
</svg>
