<svg width="24" height="24" viewBox="0 0 24 24" fill="none" xmlns="http://www.w3.org/2000/svg">
<mask id="mask0_263_4394" style="mask-type:alpha" maskUnits="userSpaceOnUse" x="0" y="0" width="24" height="24">
<rect width="24" height="24" fill="#D9D9D9"/>
</mask>
<g mask="url(#mask0_263_4394)">
<g clip-path="url(#clip0_263_4394)">
<path d="M3 17.8847C3 19.6043 4.39564 21 6.11527 21H17.3302C19.0498 21 20.4455 19.6043 20.4455 17.8847V10.4081H3V17.8847ZM6.73832 12.5888H16.7072C17.2243 12.5888 17.6417 13.0062 17.6417 13.5233C17.6417 14.0405 17.2243 14.4579 16.7072 14.4579H6.73832C6.22118 14.4579 5.80374 14.0405 5.80374 13.5233C5.80374 13.0062 6.22118 12.5888 6.73832 12.5888ZM6.73832 16.3271H16.7072C17.2243 16.3271 17.6417 16.7445 17.6417 17.2617C17.6417 17.7788 17.2243 18.1962 16.7072 18.1962H6.73832C6.22118 18.1962 5.80374 17.7788 5.80374 17.2617C5.80374 16.7445 6.22118 16.3271 6.73832 16.3271Z" fill="white"/>
<path d="M17.3302 5.80374H17.081V3.93458C17.081 3.41745 16.6636 3 16.1464 3C15.6293 3 15.2118 3.41745 15.2118 3.93458V5.80374H8.35826V3.93458C8.35826 3.41745 7.94081 3 7.42368 3C6.90654 3 6.4891 3.41745 6.4891 3.93458V5.80374H6.11527C4.39564 5.80374 3 7.19938 3 8.919V9.16199H20.4455V8.919C20.4455 7.19938 19.0498 5.80374 17.3302 5.80374Z" fill="white"/>
</g>
</g>
<defs>
<clipPath id="clip0_263_4394">
<rect width="17.4455" height="18" fill="white" transform="translate(3 3)"/>
</clipPath>
</defs>
</svg>
