<svg width="30" height="30" viewBox="0 0 30 30" fill="none" xmlns="http://www.w3.org/2000/svg">
<path fill-rule="evenodd" clip-rule="evenodd" d="M3.75 9.15883C3.75 7.8975 4.82931 6.875 6.16071 6.875H23.8393C25.1706 6.875 26.25 7.8975 26.25 9.15883V9.67947L15.6162 16.3968C15.4662 16.4881 15.2485 16.5533 15 16.5533C14.7515 16.5533 14.5338 16.4881 14.3838 16.3968L3.75 9.67949V9.15883ZM3.75 11.967V22.1006C3.75 23.3619 4.82931 24.3844 6.16071 24.3844H23.8393C25.1706 24.3844 26.25 23.3619 26.25 22.1006V11.9669L16.7251 17.9837L16.7158 17.9896C16.2102 18.3014 15.6029 18.4565 15 18.4565C14.3971 18.4565 13.7899 18.3014 13.2842 17.9895L13.2748 17.9838L3.75 11.967Z" fill="#1B1F27"/>
</svg>
