<svg width="24" height="24" viewBox="0 0 24 24" fill="none" xmlns="http://www.w3.org/2000/svg">
<g clip-path="url(#clip0_263_4388)">
<path fill-rule="evenodd" clip-rule="evenodd" d="M13.29 7.84C13.29 9.96 11.56 11.68 9.43 11.68C7.3 11.68 5.57 9.96 5.57 7.84C5.57 5.72 7.3 4 9.43 4C11.56 4 13.29 5.72 13.29 7.84ZM9.43 12.96C5.88 12.96 1 15.83 1 19.36C1 19.71 1.29 20 1.64 20H17.21C17.57 20 17.85 19.71 17.85 19.36C17.85 15.83 12.97 12.96 9.42 12.96H9.43Z" fill="white"/>
<path d="M16.3498 13.09C16.2198 13.07 16.1598 13.24 16.2698 13.31C18.3598 14.84 19.8598 16.98 19.8598 19.36C19.8598 19.49 19.8298 19.6 19.8898 19.73C19.9998 19.95 20.1698 20 20.3898 20H20.9898C21.3998 20 21.8198 20 22.2298 20H22.7798C23.1398 20 23.4198 19.7 23.4198 19.34C23.3998 16.24 19.6498 13.67 16.3398 13.09H16.3498Z" fill="white"/>
<path d="M14.1898 11.43C14.2298 11.72 14.7898 11.68 15.0098 11.68C17.1398 11.68 18.8698 9.96001 18.8698 7.84001C18.8698 6.95001 18.5598 6.08001 17.9898 5.40001C17.4198 4.72001 16.6298 4.25001 15.7598 4.07001C15.5298 4.02001 13.9798 3.84001 14.1098 4.32001C14.1498 4.47001 14.2798 4.57001 14.3598 4.70001C14.9598 5.63001 15.2798 6.73001 15.2798 7.84001C15.2798 8.95001 14.9598 10.05 14.3498 10.98C14.2798 11.09 14.1598 11.27 14.1798 11.43H14.1898Z" fill="white"/>
</g>
<defs>
<clipPath id="clip0_263_4388">
<rect width="22.43" height="16" fill="white" transform="translate(1 4)"/>
</clipPath>
</defs>
</svg>
