<svg width="30" height="30" viewBox="0 0 30 30" fill="none" xmlns="http://www.w3.org/2000/svg">
<mask id="mask0_263_5069" style="mask-type:alpha" maskUnits="userSpaceOnUse" x="0" y="0" width="30" height="30">
<rect width="30" height="30" fill="#D9D9D9"/>
</mask>
<g mask="url(#mask0_263_5069)">
<mask id="mask1_263_5069" style="mask-type:luminance" maskUnits="userSpaceOnUse" x="5" y="4" width="20" height="22">
<path d="M25 4H5V25.6408H25V4Z" fill="white"/>
</mask>
<g mask="url(#mask1_263_5069)">
<path d="M11.6635 25.6359H7.22436C6.63135 25.6318 6.06417 25.3927 5.64719 24.9711C5.23021 24.5494 4.99748 23.9795 5.00002 23.3865V12.5405C4.99985 12.0668 5.10716 11.5992 5.31386 11.173C5.52056 10.7468 5.82127 10.373 6.19334 10.0798L13.0633 4.67054C13.6158 4.2355 14.2986 3.99896 15.0018 3.99896C15.705 3.99896 16.3878 4.2355 16.9404 4.67054L23.8055 10.0787C24.1776 10.3718 24.4784 10.7455 24.6851 11.1717C24.8918 11.598 24.9991 12.0656 24.9988 12.5393V23.3877C25.0017 23.98 24.7697 24.5493 24.3537 24.9709C23.9377 25.3925 23.3715 25.6321 22.7793 25.6371H18.3353V17.9602C18.3355 17.8012 18.3043 17.6438 18.2436 17.4968C18.1828 17.3499 18.0937 17.2163 17.9814 17.1038C17.869 16.9914 17.7355 16.9021 17.5887 16.8412C17.4418 16.7804 17.2843 16.749 17.1253 16.749H12.8759C12.7168 16.7489 12.5592 16.7801 12.4122 16.8409C12.2652 16.9017 12.1316 16.9909 12.0191 17.1034C11.9066 17.2159 11.8174 17.3495 11.7566 17.4965C11.6958 17.6436 11.6645 17.8011 11.6647 17.9602V25.6371L11.6635 25.6359Z" fill="#1B1F27"/>
</g>
</g>
</svg>
