<svg width="30" height="30" viewBox="0 0 30 30" fill="none" xmlns="http://www.w3.org/2000/svg">
<mask id="mask0_504_5860" style="mask-type:alpha" maskUnits="userSpaceOnUse" x="0" y="0" width="30" height="30">
<rect width="30" height="30" fill="#D9D9D9"/>
</mask>
<g mask="url(#mask0_504_5860)">
<g clip-path="url(#clip0_504_5860)">
<path d="M3.75 22.3559C3.75 24.5055 5.49455 26.25 7.64408 26.25H21.6628C23.8123 26.25 25.5569 24.5055 25.5569 22.3559V13.0101H3.75V22.3559ZM8.4229 15.736H20.884C21.5304 15.736 22.0522 16.2578 22.0522 16.9042C22.0522 17.5506 21.5304 18.0724 20.884 18.0724H8.4229C7.77648 18.0724 7.25467 17.5506 7.25467 16.9042C7.25467 16.2578 7.77648 15.736 8.4229 15.736ZM8.4229 20.4089H20.884C21.5304 20.4089 22.0522 20.9307 22.0522 21.5771C22.0522 22.2235 21.5304 22.7453 20.884 22.7453H8.4229C7.77648 22.7453 7.25467 22.2235 7.25467 21.5771C7.25467 20.9307 7.77648 20.4089 8.4229 20.4089Z" fill="white"/>
<path d="M21.6628 7.25467H21.3512V4.91822C21.3512 4.27181 20.8294 3.75 20.183 3.75C19.5366 3.75 19.0148 4.27181 19.0148 4.91822V7.25467H10.4478V4.91822C10.4478 4.27181 9.92601 3.75 9.27959 3.75C8.63318 3.75 8.11137 4.27181 8.11137 4.91822V7.25467H7.64408C5.49455 7.25467 3.75 8.99922 3.75 11.1488V11.4525H25.5569V11.1488C25.5569 8.99922 23.8123 7.25467 21.6628 7.25467Z" fill="white"/>
</g>
</g>
<defs>
<clipPath id="clip0_504_5860">
<rect width="21.8069" height="22.5" fill="white" transform="translate(3.75 3.75)"/>
</clipPath>
</defs>
</svg>
