<svg width="24" height="24" viewBox="0 0 24 24" fill="none" xmlns="http://www.w3.org/2000/svg">
<path d="M19.5483 16.0413V18.0413H4.45026V16.0413H19.5483ZM20.0549 13.3142H3.94361C2.87062 13.3142 2 14.1744 2 15.2345V18.7299C2 19.79 2.87062 20.6502 3.94361 20.6502H20.0564C21.1294 20.6502 22 19.79 22 18.7299V15.2345C22 14.1744 21.1294 13.3142 20.0564 13.3142H20.0549Z" fill="white"/>
<path d="M17.7402 4C17.8785 4 18.0174 4.02732 18.1455 4.0791C18.2748 4.13084 18.3909 4.20853 18.4883 4.30469C18.5857 4.40097 18.6644 4.51614 18.7168 4.64258C18.7692 4.76908 18.7968 4.90445 18.7969 5.04102V15.6172H5.05762V5.04297C5.05762 4.76535 5.16968 4.50031 5.36914 4.30469C5.56706 4.10916 5.83633 4.00008 6.11719 4H17.7402ZM15.5342 7.30469C15.1892 6.97251 14.6361 6.98057 14.2998 7.32129L11.0908 10.5811L9.81445 9.61133C9.43309 9.32088 8.88396 9.39144 8.58984 9.76953C8.29577 10.1464 8.36717 10.6889 8.75 10.9795L10.6426 12.418C10.8013 12.5374 10.9894 12.5967 11.1758 12.5967C11.4042 12.5966 11.6315 12.5075 11.8018 12.335L15.5518 8.52441C15.8881 8.18351 15.8807 7.63696 15.5342 7.30469Z" fill="white"/>
</svg>
