<svg width="24" height="24" viewBox="0 0 24 24" fill="none" xmlns="http://www.w3.org/2000/svg">
<path fill-rule="evenodd" clip-rule="evenodd" d="M3 7.32707C3 6.318 3.86345 5.5 4.92857 5.5H19.0714C20.1365 5.5 21 6.318 21 7.32707V7.74358L12.4929 13.1174C12.373 13.1905 12.1988 13.2427 12 13.2427C11.8012 13.2427 11.627 13.1905 11.507 13.1174L3 7.74359V7.32707ZM3 9.57357V17.6805C3 18.6895 3.86345 19.5075 4.92857 19.5075H19.0714C20.1365 19.5075 21 18.6895 21 17.6805V9.57356L13.3801 14.387L13.3727 14.3917C12.9681 14.6411 12.4823 14.7652 12 14.7652C11.5177 14.7652 11.0319 14.6411 10.6273 14.3916L10.6199 14.387L3 9.57357Z" fill="white"/>
</svg>
