<svg width="30" height="30" viewBox="0 0 30 30" fill="none" xmlns="http://www.w3.org/2000/svg">
<path d="M23.75 5C24.9926 5 26 6.00736 26 7.25V23.75C26 24.9926 24.9926 26 23.75 26H7.25C6.00736 26 5 24.9926 5 23.75V7.25C5 6.00736 6.00736 5 7.25 5H23.75ZM15.5 10.25C14.9202 10.25 14.4503 10.72 14.4502 11.2998V14.4502H11.2998C10.72 14.4503 10.25 14.9202 10.25 15.5C10.25 16.0798 10.72 16.5497 11.2998 16.5498H14.4502V19.7002C14.4503 20.28 14.9202 20.75 15.5 20.75C16.0798 20.75 16.5497 20.28 16.5498 19.7002V16.5498H19.7002C20.28 16.5497 20.75 16.0798 20.75 15.5C20.75 14.9202 20.28 14.4503 19.7002 14.4502H16.5498V11.2998C16.5497 10.72 16.0798 10.25 15.5 10.25Z" fill="#1B1F27"/>
</svg>
