<svg width="30" height="30" viewBox="0 0 30 30" fill="none" xmlns="http://www.w3.org/2000/svg">
<g clip-path="url(#clip0_263_5061)">
<path fill-rule="evenodd" clip-rule="evenodd" d="M16.6125 9.8C16.6125 12.45 14.45 14.6 11.7875 14.6C9.125 14.6 6.9625 12.45 6.9625 9.8C6.9625 7.15 9.125 5 11.7875 5C14.45 5 16.6125 7.15 16.6125 9.8ZM11.7875 16.2C7.35 16.2 1.25 19.7875 1.25 24.2C1.25 24.6375 1.6125 25 2.05 25H21.5125C21.9625 25 22.3125 24.6375 22.3125 24.2C22.3125 19.7875 16.2125 16.2 11.775 16.2H11.7875Z" fill="#1B1F27"/>
<path d="M20.4373 16.3625C20.2748 16.3375 20.1998 16.55 20.3373 16.6375C22.9498 18.55 24.8248 21.225 24.8248 24.2C24.8248 24.3625 24.7873 24.5 24.8623 24.6625C24.9998 24.9375 25.2123 25 25.4873 25H26.2373C26.7498 25 27.2748 25 27.7873 25H28.4748C28.9248 25 29.2748 24.625 29.2748 24.175C29.2498 20.3 24.5623 17.0875 20.4248 16.3625H20.4373Z" fill="#1B1F27"/>
<path d="M17.7376 14.2875C17.7876 14.65 18.4876 14.6 18.7626 14.6C21.4251 14.6 23.5876 12.45 23.5876 9.80001C23.5876 8.68751 23.2001 7.60001 22.4876 6.75001C21.7751 5.90001 20.7876 5.31251 19.7001 5.08751C19.4126 5.02501 17.4751 4.80001 17.6376 5.40001C17.6876 5.58751 17.8501 5.71251 17.9501 5.87501C18.7001 7.03751 19.1001 8.41251 19.1001 9.80001C19.1001 11.1875 18.7001 12.5625 17.9376 13.725C17.8501 13.8625 17.7001 14.0875 17.7251 14.2875H17.7376Z" fill="#1B1F27"/>
</g>
<defs>
<clipPath id="clip0_263_5061">
<rect width="28.0375" height="20" fill="white" transform="translate(1.25 5)"/>
</clipPath>
</defs>
</svg>
