<svg width="30" height="30" viewBox="0 0 30 30" fill="none" xmlns="http://www.w3.org/2000/svg">
<mask id="mask0_1006_10423" style="mask-type:alpha" maskUnits="userSpaceOnUse" x="0" y="0" width="30" height="30">
<rect width="30" height="30" fill="#D9D9D9"/>
</mask>
<g mask="url(#mask0_1006_10423)">
<path d="M12.3652 14.9258C14.2971 14.9258 16.548 15.6109 18.458 16.7471C18.213 16.9543 17.9225 17.1092 17.6016 17.1904L17.4434 17.2236C13.92 17.8366 13.9201 22.8949 17.4434 23.5078L17.457 23.5107H2.79102C2.35454 23.5107 2.00021 23.1612 2 22.7305C2 18.4204 7.99917 14.9258 12.3652 14.9258ZM20.3965 23.4346C20.4131 23.4599 20.4302 23.485 20.4463 23.5107H20.4424C20.4267 23.4856 20.4128 23.4593 20.3965 23.4346ZM20.2139 23.1777C20.2641 23.2423 20.3113 23.3092 20.3574 23.377L20.2139 23.1777ZM19.4326 22.418C19.4928 22.4619 19.552 22.5072 19.6094 22.5547L19.625 22.5684C19.5624 22.5164 19.4984 22.466 19.4326 22.418ZM19.2383 22.2852C19.2953 22.3218 19.3513 22.36 19.4062 22.3994C19.3513 22.3599 19.2953 22.3219 19.2383 22.2852ZM18.9844 22.1338C19.0527 22.1712 19.1196 22.211 19.1855 22.252C19.1196 22.2109 19.0527 22.1712 18.9844 22.1338ZM18.3369 21.8477C18.4098 21.872 18.4812 21.8996 18.5518 21.9287L18.3369 21.8477ZM17.2666 19.208C17.2319 19.2287 17.1988 19.2511 17.167 19.2744C17.1983 19.2515 17.2306 19.2294 17.2646 19.209L17.2666 19.208ZM19.4609 18.2891C19.4321 18.3107 19.4035 18.3327 19.374 18.3535C19.4035 18.3327 19.4321 18.3107 19.4609 18.2891ZM19.6553 18.1357C19.6253 18.1612 19.5942 18.1854 19.5635 18.21C19.5942 18.1853 19.6253 18.1613 19.6553 18.1357ZM19.9863 17.8184C19.9124 17.8978 19.8351 17.9739 19.7549 18.0469C19.7762 18.0275 19.7985 18.0091 19.8193 17.9893L19.9863 17.8184ZM12.3652 4C14.9847 4.00015 17.1084 6.09662 17.1084 8.68262C17.1084 11.2686 14.9847 13.3651 12.3652 13.3652C9.74563 13.3652 7.62212 11.2687 7.62207 8.68262C7.62207 6.09653 9.7456 4 12.3652 4Z" fill="#C7C8D2"/>
<path d="M23.6818 15.8032C23.3545 14.3678 21.3066 14.3767 20.9917 15.815L20.9796 15.8706L20.9558 15.9789C20.6051 17.5492 19.3424 18.7541 17.7562 19.03C16.2583 19.2906 16.2583 21.4409 17.7562 21.7015C19.348 21.9784 20.614 23.1908 20.9595 24.7691L20.9917 24.9166C21.3066 26.3548 23.3545 26.3638 23.6818 24.9283L23.721 24.7564C24.0797 23.1839 25.3475 21.9804 26.9366 21.7039C28.4371 21.4429 28.4371 19.2887 26.9366 19.0276C25.3559 18.7526 24.0933 17.5604 23.7269 16.0001C23.7168 15.957 23.7071 15.9145 23.697 15.8698L23.6818 15.8032Z" fill="#C7C8D2"/>
</g>
</svg>
