<svg width="30" height="30" viewBox="0 0 30 30" fill="none" xmlns="http://www.w3.org/2000/svg">
<path d="M23.4964 19.5214V6.30157C23.4964 6.13076 23.4618 5.96175 23.3963 5.80352C23.3308 5.6453 23.2325 5.50145 23.1105 5.38099C22.9886 5.26052 22.843 5.16342 22.6811 5.0987C22.5209 5.03397 22.348 4.9998 22.1751 4.9998H7.64664C7.2954 4.9998 6.95873 5.13645 6.71123 5.38099C6.46191 5.62552 6.32178 5.95635 6.32178 6.30337V19.5214H23.4964Z" fill="#1B1F27"/>
<path d="M24.4353 20.0516V22.5516H5.56283V20.0516H24.4353ZM25.0687 16.6428H4.92952C3.58828 16.6428 2.5 17.718 2.5 19.0431V23.4123C2.5 24.7375 3.58828 25.8127 4.92952 25.8127H25.0705C26.4117 25.8127 27.5 24.7375 27.5 23.4123V19.0431C27.5 17.718 26.4117 16.6428 25.0705 16.6428H25.0687Z" fill="#1B1F27"/>
<path d="M13.9693 15.7455C13.7364 15.7455 13.5016 15.6718 13.3032 15.5225L10.9374 13.7245C10.4588 13.3613 10.3696 12.6835 10.7372 12.2124C11.1048 11.7395 11.7909 11.6514 12.2677 12.0146L13.8637 13.2265L17.8747 9.15214C18.2951 8.72601 18.9867 8.71522 19.418 9.13057C19.8511 9.54591 19.8602 10.2292 19.4398 10.6553L14.7518 15.4183C14.5389 15.634 14.255 15.7455 13.9693 15.7455Z" fill="white"/>
</svg>
