<svg width="30" height="30" viewBox="0 0 30 30" fill="none" xmlns="http://www.w3.org/2000/svg">
<mask id="mask0_504_5873" style="mask-type:alpha" maskUnits="userSpaceOnUse" x="0" y="0" width="30" height="30">
<rect width="30" height="30" fill="#D9D9D9"/>
</mask>
<g mask="url(#mask0_504_5873)">
<g clip-path="url(#clip0_504_5873)">
<path d="M13.2124 6.925C13.2124 5.8342 12.1398 5.06375 11.1058 5.40843C6.85208 6.82363 3.75 10.8584 3.75 15.5601C3.75 21.4277 8.57749 26.2552 14.4451 26.2552C19.1509 26.2552 23.1857 23.1491 24.5988 18.8913C24.9435 17.8553 24.171 16.7848 23.0802 16.7848H14.8263C13.9443 16.7848 13.2286 16.0711 13.2266 15.1871L13.2124 6.92297V6.925Z" fill="white"/>
<path d="M17.5817 3.77647C16.5963 3.60007 15.688 4.34822 15.688 5.34981V12.6651C15.688 13.549 16.4037 14.2648 17.2877 14.2648H24.5604C25.5579 14.2648 26.306 13.3625 26.1357 12.3792C25.3815 8.0099 21.9449 4.55706 17.5817 3.77647Z" fill="white"/>
</g>
</g>
<defs>
<clipPath id="clip0_504_5873">
<rect width="22.41" height="22.5053" fill="white" transform="translate(3.75 3.75)"/>
</clipPath>
</defs>
</svg>
