<svg width="24" height="24" viewBox="0 0 24 24" fill="none" xmlns="http://www.w3.org/2000/svg">
<mask id="mask0_218_2690" style="mask-type:alpha" maskUnits="userSpaceOnUse" x="0" y="0" width="24" height="24">
<rect width="24" height="24" fill="#D9D9D9"/>
</mask>
<g mask="url(#mask0_218_2690)">
</g>
<g clip-path="url(#clip0_218_2690)">
<path d="M21.8356 18.3408H21.1699L13.655 7.85721L13.0541 6.98328L14.5196 4.85334C14.7884 4.46248 14.6807 3.93402 14.2786 3.67272C13.8764 3.41142 13.3327 3.51608 13.0639 3.90694L12.0013 5.45206L10.9387 3.90694C10.6699 3.51608 10.1262 3.41142 9.72403 3.67272C9.32189 3.93402 9.2142 4.46248 9.48305 4.85334L10.9485 6.98328L8.68931 10.2675L2.719 18.3408H2.16474C1.35896 18.3408 0.706055 18.9754 0.706055 19.7585C0.706055 20.5417 1.35896 21.1763 2.16474 21.1763H21.8356C22.6414 21.1763 23.2943 20.5417 23.2943 19.7585C23.2943 18.9754 22.6414 18.3408 21.8356 18.3408ZM15.1499 18.3283H8.85122C8.28793 18.3283 7.95658 17.7135 8.27739 17.2634L11.4267 12.849C11.7046 12.4596 12.2965 12.4596 12.5744 12.849L15.7237 17.2634C16.0445 17.7135 15.7132 18.3283 15.1499 18.3283Z" fill="#C7CED5"/>
</g>
<defs>
<clipPath id="clip0_218_2690">
<rect width="22.5882" height="17.6471" fill="white" transform="translate(0.706055 3.52942)"/>
</clipPath>
</defs>
</svg>
