<svg width="30" height="30" viewBox="0 0 30 30" fill="none" xmlns="http://www.w3.org/2000/svg">
<mask id="mask0_1006_11120" style="mask-type:alpha" maskUnits="userSpaceOnUse" x="0" y="0" width="30" height="30">
<rect width="30" height="30" fill="#D9D9D9"/>
</mask>
<g mask="url(#mask0_1006_11120)">
<path fill-rule="evenodd" clip-rule="evenodd" d="M15 3C14.6314 3 14.2705 3.10562 13.9599 3.30438C13.6532 3.50061 13.4082 3.77952 13.2529 4.10893L10.3039 10.0719C10.2981 10.0837 10.2925 10.0955 10.2872 10.1075C10.2859 10.1104 10.2838 10.113 10.2812 10.1149C10.2786 10.1168 10.2755 10.118 10.2723 10.1184C10.261 10.1196 10.2497 10.1211 10.2384 10.1228L3.74495 11.0863C3.38605 11.1212 3.04381 11.2561 2.75715 11.476C2.46054 11.7036 2.23617 12.0124 2.11123 12.365C1.98628 12.7177 1.96612 13.0991 2.05319 13.463C2.13991 13.8254 2.32933 14.1551 2.59863 14.4123L7.35186 19.0055L7.36269 19.0158C7.36947 19.0222 7.37458 19.0301 7.37752 19.0389C7.38045 19.0478 7.38114 19.0572 7.3795 19.0663L7.37846 19.0724L6.2458 25.7113C6.18357 26.0712 6.22297 26.4429 6.36008 26.7811C6.49737 27.1201 6.7269 27.4135 7.02251 27.6282C7.31813 27.8427 7.66795 27.97 8.0322 27.9953C8.39572 28.0206 8.75903 27.9434 9.08096 27.7726L9.08291 27.7715L14.9334 24.6747C14.9544 24.6656 14.9771 24.6607 15 24.6607C15.023 24.6607 15.0456 24.6656 15.0666 24.6747L20.9171 27.7715C21.2392 27.9428 21.604 28.0208 21.9678 27.9953C22.332 27.97 22.6818 27.8427 22.9776 27.6282C23.2731 27.4135 23.5027 27.1201 23.64 26.7811C23.7771 26.4429 23.8167 26.073 23.7546 25.7134L23.7542 25.7113L22.6216 19.0724L22.6205 19.0663C22.6189 19.0572 22.6196 19.0478 22.6226 19.0389C22.6254 19.0301 22.6306 19.0222 22.6372 19.0158L22.6482 19.0055L27.4015 14.4123C27.6707 14.155 27.8601 13.8254 27.9469 13.463C28.0338 13.0991 28.0138 12.7177 27.8887 12.365C27.7639 12.0124 27.5395 11.7036 27.2428 11.476C26.9562 11.2561 26.614 11.1212 26.2551 11.0863L19.7616 10.1228C19.7504 10.1211 19.7391 10.1196 19.7277 10.1184C19.7245 10.118 19.7214 10.1168 19.7188 10.1149C19.7162 10.113 19.7141 10.1104 19.7128 10.1075C19.7075 10.0955 19.702 10.0837 19.6962 10.0719L16.7471 4.10891C16.5918 3.77951 16.3468 3.5006 16.0402 3.30438C15.7295 3.10562 15.3686 3 15 3Z" fill="#1B1F27"/>
</g>
</svg>
