<svg width="14" height="14" viewBox="0 0 14 14" fill="none" xmlns="http://www.w3.org/2000/svg">
<mask id="mask0_218_2658" style="mask-type:alpha" maskUnits="userSpaceOnUse" x="0" y="0" width="14" height="14">
<rect width="14" height="14" fill="#D9D9D9"/>
</mask>
<g mask="url(#mask0_218_2658)">
</g>
<g clip-path="url(#clip0_218_2658)">
<path d="M12.7372 10.6986H12.3489L7.96519 4.58318L7.61464 4.07339L8.4695 2.83092C8.62632 2.60292 8.5635 2.29465 8.32892 2.14223C8.09434 1.9898 7.77718 2.05086 7.62035 2.27885L7.00051 3.18018L6.38068 2.27885C6.22385 2.05086 5.90669 1.9898 5.67211 2.14223C5.43753 2.29465 5.37471 2.60292 5.53153 2.83092L6.38639 4.07339L5.06852 5.98918L1.58584 10.6986H1.26252C0.792485 10.6986 0.411621 11.0688 0.411621 11.5256C0.411621 11.9825 0.792485 12.3527 1.26252 12.3527H12.7372C13.2072 12.3527 13.5881 11.9825 13.5881 11.5256C13.5881 11.0688 13.2072 10.6986 12.7372 10.6986ZM8.83718 10.6913H5.16297C4.83438 10.6913 4.64109 10.3327 4.82823 10.0701L6.66534 7.49508C6.82744 7.26794 7.17272 7.26794 7.33481 7.49508L9.17192 10.0701C9.35906 10.3327 9.16577 10.6913 8.83718 10.6913Z" fill="white"/>
</g>
<defs>
<clipPath id="clip0_218_2658">
<rect width="13.1765" height="10.2941" fill="white" transform="translate(0.411621 2.05884)"/>
</clipPath>
</defs>
</svg>
