<svg width="34" height="34" viewBox="0 0 34 34" fill="none" xmlns="http://www.w3.org/2000/svg">
<mask id="mask0_218_2651" style="mask-type:alpha" maskUnits="userSpaceOnUse" x="0" y="0" width="34" height="34">
<rect width="34" height="34" fill="#D9D9D9"/>
</mask>
<g mask="url(#mask0_218_2651)">
</g>
<g clip-path="url(#clip0_218_2651)">
<path d="M30.9335 25.983H29.9904L19.3444 11.1312L18.493 9.89317L20.5691 6.87575C20.95 6.32204 20.7974 5.57339 20.2277 5.20321C19.658 4.83303 18.8878 4.98131 18.5069 5.53502L17.0016 7.72395L15.4963 5.53502C15.1154 4.98131 14.3452 4.83303 13.7755 5.20321C13.2058 5.57339 13.0532 6.32204 13.4341 6.87575L15.5102 9.89317L12.3096 14.5458L3.85168 25.983H3.06648C1.92495 25.983 1 26.882 1 27.9915C1 29.101 1.92495 30 3.06648 30H30.9335C32.075 30 33 29.101 33 27.9915C33 26.882 32.075 25.983 30.9335 25.983ZM21.4621 25.9653H12.539C11.741 25.9653 11.2716 25.0943 11.7261 24.4566L16.1876 18.203C16.5813 17.6514 17.4198 17.6514 17.8135 18.203L22.275 24.4566C22.7295 25.0943 22.2601 25.9653 21.4621 25.9653Z" fill="#1B1F27"/>
</g>
<defs>
<clipPath id="clip0_218_2651">
<rect width="32" height="25" fill="white" transform="translate(1 5)"/>
</clipPath>
</defs>
</svg>
