<svg width="24" height="24" viewBox="0 0 24 24" fill="none" xmlns="http://www.w3.org/2000/svg">
<mask id="mask0_320_7985" style="mask-type:alpha" maskUnits="userSpaceOnUse" x="2" y="2" width="20" height="20">
<rect x="2" y="2" width="20" height="20" fill="#D9D9D9"/>
</mask>
<g mask="url(#mask0_320_7985)">
<path d="M12.1772 6.62204L15.7772 10.222L7.96 18.0396L4.75 18.394C4.64944 18.4052 4.54765 18.3937 4.45216 18.3603C4.35666 18.3269 4.26989 18.2724 4.19827 18.2009C4.12665 18.1295 4.07201 18.0428 4.03838 17.9474C4.00476 17.852 3.993 17.7502 4.004 17.6496L4.36 14.4372L12.1772 6.62204ZM18.0048 6.08604L16.314 4.39524C16.0607 4.14201 15.7172 3.99976 15.359 3.99976C15.0008 3.99976 14.6573 4.14201 14.404 4.39524L12.8136 5.98564L16.4136 9.58564L18.004 7.99524C18.2572 7.74192 18.3995 7.39841 18.3995 7.04024C18.3995 6.68206 18.2572 6.33855 18.004 6.08524L18.0048 6.08604Z" fill="#9DA4AD"/>
<path d="M18.3596 16.5999H11.9596C11.076 16.5999 10.3596 17.3162 10.3596 18.1999C10.3596 19.0835 11.076 19.7999 11.9596 19.7999H18.3596C19.2433 19.7999 19.9596 19.0835 19.9596 18.1999C19.9596 17.3162 19.2433 16.5999 18.3596 16.5999Z" fill="#9DA4AD"/>
</g>
</svg>
