<svg width="24" height="24" viewBox="0 0 24 24" fill="none" xmlns="http://www.w3.org/2000/svg">
<mask id="mask0_223_3184" style="mask-type:alpha" maskUnits="userSpaceOnUse" x="0" y="0" width="24" height="24">
<rect width="24" height="24" fill="#D9D9D9"/>
</mask>
<g mask="url(#mask0_223_3184)">
<path d="M11.9987 10.6791C12.7613 10.6791 13.5067 10.4539 14.1407 10.032C14.7748 9.6101 15.2689 9.01044 15.5608 8.30886C15.8526 7.60728 15.9289 6.83527 15.7802 6.09048C15.6314 5.34568 15.2642 4.66154 14.725 4.12457C14.1858 3.58761 13.4988 3.22193 12.7509 3.07378C12.003 2.92563 11.2278 3.00166 10.5233 3.29227C9.81879 3.58287 9.21664 4.075 8.79299 4.7064C8.36934 5.33781 8.14322 6.08015 8.14322 6.83953C8.14104 7.34457 8.23936 7.84503 8.4325 8.31201C8.62564 8.77899 8.90978 9.20323 9.2685 9.56023C9.62723 9.91723 10.0534 10.1999 10.5225 10.392C10.9915 10.584 11.4941 10.6816 12.0013 10.6791H11.9987ZM11.9987 13.3222C9.0038 13.3222 3 14.8191 3 17.8017V21H21V17.8017C21 14.8154 14.9924 13.3222 12.0013 13.3222H11.9987Z" fill="#B5BEC7"/>
</g>
</svg>
