<svg width="16" height="16" viewBox="0 0 16 16" fill="none" xmlns="http://www.w3.org/2000/svg">
<mask id="mask0_223_2598" style="mask-type:alpha" maskUnits="userSpaceOnUse" x="0" y="0" width="16" height="16">
<rect width="16" height="16" fill="#D9D9D9"/>
</mask>
<g mask="url(#mask0_223_2598)">
</g>
<g clip-path="url(#clip0_223_2598)">
<path d="M14.3938 5.10312L11.0311 8.52801C11.025 8.53367 11.0201 8.54054 11.0167 8.54819C11.0134 8.55584 11.0117 8.5641 11.0117 8.57245C11.0117 8.5808 11.0134 8.58906 11.0167 8.59671C11.0201 8.60436 11.025 8.61123 11.0311 8.6169L13.3845 11.1222C13.4224 11.1599 13.4525 11.2047 13.473 11.2541C13.4936 11.3034 13.5041 11.3563 13.5041 11.4098C13.5041 11.4632 13.4936 11.5162 13.473 11.5655C13.4525 11.6149 13.4224 11.6597 13.3845 11.6973C13.3081 11.7734 13.2047 11.8161 13.0969 11.8161C12.9891 11.8161 12.8857 11.7734 12.8094 11.6973L10.4658 9.20045C10.4539 9.18894 10.4379 9.1825 10.4214 9.1825C10.4048 9.1825 10.3888 9.18894 10.3769 9.20045L9.80491 9.78178C9.57108 10.0205 9.29202 10.2103 8.98404 10.34C8.67606 10.4698 8.34532 10.5368 8.01113 10.5373C7.66948 10.536 7.33153 10.4665 7.0171 10.3329C6.70267 10.1992 6.41808 10.0042 6.18002 9.75912L5.6298 9.19956C5.61787 9.18805 5.60193 9.18161 5.58535 9.18161C5.56877 9.18161 5.55284 9.18805 5.54091 9.19956L3.1938 11.6969C3.11742 11.7729 3.01402 11.8156 2.90624 11.8156C2.79846 11.8156 2.69507 11.7729 2.61869 11.6969C2.58076 11.6592 2.55067 11.6144 2.53013 11.5651C2.50959 11.5157 2.49902 11.4628 2.49902 11.4093C2.49902 11.3559 2.50959 11.303 2.53013 11.2536C2.55067 11.2043 2.58076 11.1595 2.61869 11.1218L4.97202 8.61556C4.98295 8.60334 4.989 8.58752 4.989 8.57112C4.989 8.55472 4.98295 8.5389 4.97202 8.52667L1.60624 5.10312C1.5976 5.09416 1.58646 5.08802 1.57427 5.0855C1.56208 5.08299 1.54941 5.08421 1.53793 5.08902C1.52645 5.09382 1.51669 5.10198 1.50992 5.11243C1.50316 5.12287 1.49971 5.13512 1.50002 5.14756V12.0009C1.50084 12.2659 1.60646 12.5197 1.79382 12.7071C1.98118 12.8945 2.23506 13.0001 2.50002 13.0009H13.5C13.765 13.0001 14.0189 12.8945 14.2062 12.7071C14.3936 12.5197 14.4992 12.2659 14.5 12.0009V5.14667C14.4997 5.1345 14.4959 5.12267 14.489 5.11263C14.4821 5.1026 14.4724 5.0948 14.4611 5.09017C14.4499 5.08555 14.4375 5.08432 14.4255 5.08662C14.4136 5.08891 14.4025 5.09465 14.3938 5.10312Z" fill="#1B1F27"/>
<path d="M8.0002 9.72178C8.22766 9.72278 8.45301 9.67809 8.66288 9.59037C8.87275 9.50265 9.06287 9.37368 9.22197 9.21111L14.1251 4.21867C13.95 4.07702 13.7316 3.99982 13.5064 4H2.49708C2.27183 3.99945 2.0533 4.07669 1.87842 4.21867L6.78153 9.21111C6.94026 9.37331 7.12988 9.50206 7.33919 9.58976C7.5485 9.67747 7.77325 9.72236 8.0002 9.72178Z" fill="#1B1F27"/>
</g>
<defs>
<clipPath id="clip0_223_2598">
<rect width="13" height="9" fill="white" transform="translate(1.5 4)"/>
</clipPath>
</defs>
</svg>
