<svg width="24" height="24" viewBox="0 0 24 24" fill="none" xmlns="http://www.w3.org/2000/svg">
<mask id="mask0_646_3935" style="mask-type:alpha" maskUnits="userSpaceOnUse" x="0" y="0" width="24" height="24">
<rect width="24" height="24" fill="#D9D9D9"/>
</mask>
<g mask="url(#mask0_646_3935)">
<g clip-path="url(#clip0_646_3935)">
<path d="M3 17.8848C3 19.6045 4.39564 21.0001 6.11527 21.0001H17.3302C19.0498 21.0001 20.4455 19.6045 20.4455 17.8848V10.4082H3V17.8848ZM6.73832 12.5889H16.7072C17.2243 12.5889 17.6417 13.0063 17.6417 13.5235C17.6417 14.0406 17.2243 14.458 16.7072 14.458H6.73832C6.22118 14.458 5.80374 14.0406 5.80374 13.5235C5.80374 13.0063 6.22118 12.5889 6.73832 12.5889ZM6.73832 16.3272H16.7072C17.2243 16.3272 17.6417 16.7447 17.6417 17.2618C17.6417 17.7789 17.2243 18.1964 16.7072 18.1964H6.73832C6.22118 18.1964 5.80374 17.7789 5.80374 17.2618C5.80374 16.7447 6.22118 16.3272 6.73832 16.3272Z" fill="#1B1F27"/>
<path d="M17.3302 5.80374H17.081V3.93458C17.081 3.41745 16.6636 3 16.1464 3C15.6293 3 15.2118 3.41745 15.2118 3.93458V5.80374H8.35826V3.93458C8.35826 3.41745 7.94081 3 7.42368 3C6.90654 3 6.4891 3.41745 6.4891 3.93458V5.80374H6.11527C4.39564 5.80374 3 7.19938 3 8.919V9.16199H20.4455V8.919C20.4455 7.19938 19.0498 5.80374 17.3302 5.80374Z" fill="#1B1F27"/>
</g>
</g>
<defs>
<clipPath id="clip0_646_3935">
<rect width="17.4455" height="18" fill="white" transform="translate(3 3)"/>
</clipPath>
</defs>
</svg>
