<svg width="20" height="20" viewBox="0 0 20 20" fill="none" xmlns="http://www.w3.org/2000/svg">
<path d="M18.0528 0H1.94724C0.871809 0 0 0.87181 0 1.94724V18.0528C0 19.1282 0.871809 20 1.94724 20H18.0528C19.1282 20 20 19.1282 20 18.0528V1.94724C20 0.87181 19.1282 0 18.0528 0Z" fill="#1E254B"/>
<path d="M13.5703 4.90088H8.78639C8.58761 4.90076 8.39098 4.94207 8.20906 5.02219C8.02713 5.10231 7.86391 5.21947 7.72979 5.36619L5.37309 7.94831C5.13301 8.21188 4.99996 8.55557 5 8.91209V13.6695C4.99992 13.8573 5.03685 14.0432 5.10867 14.2167C5.18049 14.3902 5.2858 14.5478 5.41857 14.6806C5.55135 14.8134 5.70898 14.9187 5.88248 14.9905C6.05597 15.0623 6.24192 15.0993 6.42969 15.0992H13.5703C13.7581 15.0993 13.944 15.0623 14.1175 14.9905C14.291 14.9187 14.4487 14.8134 14.5814 14.6806C14.7142 14.5478 14.8195 14.3902 14.8913 14.2167C14.9632 14.0432 15.0001 13.8573 15 13.6695V6.33057C15.0001 6.1428 14.9632 5.95685 14.8913 5.78336C14.8195 5.60986 14.7142 5.45222 14.5814 5.31945C14.4487 5.18667 14.291 5.08137 14.1175 5.00955C13.944 4.93773 13.7581 4.9008 13.5703 4.90088ZM6.42849 9.54617C6.42865 9.36798 6.4995 9.19713 6.6255 9.07113C6.7515 8.94513 6.92235 8.87428 7.10054 8.87412H12.85C13.0284 8.87412 13.1994 8.94495 13.3255 9.07105C13.4516 9.19714 13.5224 9.36815 13.5224 9.54647C13.5224 9.72479 13.4516 9.8958 13.3255 10.0219C13.1994 10.148 13.0284 10.2188 12.85 10.2188H7.10054C6.92224 10.2187 6.7513 10.1477 6.62529 10.0216C6.49927 9.89546 6.42849 9.72446 6.42849 9.54617ZM12.8989 13.1584H7.14936C6.97104 13.1584 6.80002 13.0875 6.67393 12.9614C6.54784 12.8354 6.47701 12.6643 6.47701 12.486C6.47701 12.3077 6.54784 12.1367 6.67393 12.0106C6.80002 11.8845 6.97104 11.8137 7.14936 11.8137H12.8989C13.0772 11.8137 13.2482 11.8845 13.3743 12.0106C13.5004 12.1367 13.5712 12.3077 13.5712 12.486C13.5712 12.6643 13.5004 12.8354 13.3743 12.9614C13.2482 13.0875 13.0772 13.1584 12.8989 13.1584Z" fill="white"/>
</svg>
