<svg width="26" height="26" viewBox="0 0 26 26" fill="none" xmlns="http://www.w3.org/2000/svg">
<mask id="mask0_100_639" style="mask-type:alpha" maskUnits="userSpaceOnUse" x="0" y="0" width="26" height="26">
<rect width="26" height="26" fill="#D9D9D9"/>
</mask>
<g mask="url(#mask0_100_639)">
<g clip-path="url(#clip0_100_639)">
<path d="M5 18.6515C5 20.2286 6.28 21.5086 7.85714 21.5086H18.1429C19.72 21.5086 21 20.2286 21 18.6515V11.7943H5V18.6515ZM8.42857 13.7943H17.5714C18.0457 13.7943 18.4286 14.1772 18.4286 14.6515C18.4286 15.1257 18.0457 15.5086 17.5714 15.5086H8.42857C7.95429 15.5086 7.57143 15.1257 7.57143 14.6515C7.57143 14.1772 7.95429 13.7943 8.42857 13.7943ZM8.42857 17.2229H17.5714C18.0457 17.2229 18.4286 17.6057 18.4286 18.08C18.4286 18.5543 18.0457 18.9372 17.5714 18.9372H8.42857C7.95429 18.9372 7.57143 18.5543 7.57143 18.08C7.57143 17.6057 7.95429 17.2229 8.42857 17.2229Z" fill="#B5BEC7"/>
<path d="M18.1429 7.57143H17.9143V5.85714C17.9143 5.38286 17.5314 5 17.0571 5C16.5829 5 16.2 5.38286 16.2 5.85714V7.57143H9.91429V5.85714C9.91429 5.38286 9.53143 5 9.05714 5C8.58286 5 8.2 5.38286 8.2 5.85714V7.57143H7.85714C6.28 7.57143 5 8.85143 5 10.4286V10.6514H21V10.4286C21 8.85143 19.72 7.57143 18.1429 7.57143Z" fill="#B5BEC7"/>
</g>
</g>
<defs>
<clipPath id="clip0_100_639">
<rect width="16" height="16.5086" fill="white" transform="translate(5 5)"/>
</clipPath>
</defs>
</svg>
