<svg width="163" height="34" viewBox="0 0 163 34" fill="none" xmlns="http://www.w3.org/2000/svg">
<g clip-path="url(#clip0_314_7909)">
<path d="M35.5352 21.3203V33.6465H31.7471V24.6553H-0.0996094V21.3203H35.5352ZM25.4111 -0.0996094V7.30469H31.5957V-0.0996094H35.498V18.7998H31.5957V10.6777H25.4111V18.7998H21.5088V-0.0996094H25.4111ZM3.95312 0.164062V5.26465H12.4043V0.164062H16.4199V17.8174H-0.0996094V0.164062H3.95312ZM3.95312 14.4824H12.4043V8.59961H3.95312V14.4824Z" fill="#1B1F27" stroke="#1B1F27" stroke-width="0.2"/>
<path d="M45.7732 23.2471V30.0469H63.3533C68.7536 30.0469 73.1658 29.82 76.9714 29.0664L76.9832 29.127H77.0916V31.6025L77.0408 31.6318C75.8508 32.3036 73.7922 32.7578 71.4402 33.0459C69.0836 33.3345 66.4164 33.458 63.9958 33.458H41.7576V23.2471H45.7732ZM76.2976 -0.0996094V23.7871H72.2449V11.6982H66.2V8.40039H72.2449V-0.0996094H76.2976ZM66.8533 20.3018L66.6687 20.1172C62.8586 19.6903 58.028 17.2602 55.0779 15.1182C50.9581 17.901 45.9439 19.7826 41.2273 20.3486L41.116 20.3613V17.4883L41.1912 17.4697C45.2986 16.4523 49.5087 14.6433 52.9255 12.2383C56.3011 9.86236 58.8927 6.91131 59.8582 3.5752H42.1736V0.353516H64.364L64.3601 0.457031C64.1713 5.139 61.8825 9.17832 58.4734 12.4277C60.2746 14.16 63.0309 15.6846 66.7927 17.2861L66.8533 17.3115V20.3018Z" fill="#1B1F27" stroke="#1B1F27" stroke-width="0.2"/>
<path d="M117.853 21.3203V33.6465H114.065V24.6553H82.2181V21.3203H117.853ZM107.729 -0.0996094V7.2666H113.913V-0.0996094H117.816V18.7998H113.913V10.6777H107.729V18.7998H103.827V-0.0996094H107.729ZM86.2709 0.164062V5.26465H94.722V0.164062H98.7377V17.8174H82.2181V0.164062H86.2709ZM86.2709 14.4824H94.722V8.59961H86.2709V14.4824Z" fill="#1B1F27" stroke="#1B1F27" stroke-width="0.2"/>
<path d="M152.433 23.2842C156.309 23.2842 158.733 23.7942 160.189 24.7266C161.657 25.6666 162.129 27.0265 162.129 28.6729C162.129 29.5512 161.998 30.3326 161.678 31.0088C161.357 31.6864 160.849 32.2528 160.107 32.7061C158.627 33.6091 156.214 34.0625 152.471 34.0625H133.734C129.972 34.0625 127.549 33.6091 126.065 32.7061C125.32 32.2528 124.811 31.6865 124.49 31.0088C124.169 30.3325 124.037 29.5512 124.037 28.6729V28.5732H124.077C124.087 27.791 124.205 27.0727 124.495 26.4346C124.799 25.7681 125.287 25.1943 126.02 24.7266C127.481 23.7942 129.914 23.2842 133.809 23.2842H152.433ZM133.696 26.6201C131.732 26.6201 130.38 26.7809 129.521 27.1318C129.093 27.3065 128.794 27.5259 128.602 27.79C128.41 28.0532 128.318 28.3695 128.318 28.749C128.318 29.1647 128.425 29.4904 128.637 29.749C128.85 30.0093 129.176 30.211 129.628 30.3633C130.536 30.669 131.919 30.7646 133.809 30.7646H152.32C154.247 30.7646 155.648 30.6501 156.566 30.335C157.023 30.178 157.352 29.9742 157.567 29.7168C157.78 29.4613 157.887 29.1448 157.887 28.749C157.887 28.369 157.796 28.053 157.606 27.79C157.414 27.5262 157.116 27.3065 156.684 27.1318C155.816 26.7808 154.435 26.6201 152.396 26.6201H133.696ZM162.204 16.2578V19.6309H123.887V16.2578H162.204ZM160.504 14.1582L160.4 14.1533C157.911 14.0393 154.481 13.1663 151.181 11.9561C147.918 10.7594 144.77 9.22693 142.772 7.76074C139.716 10.8539 134.268 13.4384 125.921 14.1152L125.814 14.124V10.9463L125.897 10.9326C130.649 10.1217 134.563 8.78317 137.301 7.04102C140.038 5.2991 141.585 3.16375 141.642 0.755859V-0.0625H145.898V0H145.997V0.755859C145.997 1.84377 145.774 2.96704 145.297 4.05566C148.049 6.77462 153.408 9.20677 160.427 10.8584L160.504 10.876V14.1582Z" fill="#1B1F27" stroke="#1B1F27" stroke-width="0.2"/>
</g>
<defs>
<clipPath id="clip0_314_7909">
<rect width="162.067" height="34" fill="white"/>
</clipPath>
</defs>
</svg>
