<svg width="86" height="18" viewBox="0 0 86 18" fill="none" xmlns="http://www.w3.org/2000/svg">
<g clip-path="url(#clip0_102_519)">
<path d="M8.74 0.14V0.04H8.64H6.62H6.52V0.14V2.74H2.14V0.14V0.04H2.04H0H-0.1V0.14V9.38V9.48H0H8.64H8.74V9.38V0.14ZM18.76 17.86H18.86V17.76V17.74V11.34V11.24H18.76H0H-0.1V11.34V13V13.1H0H16.76V17.76V17.86H16.86H18.76ZM11.34 9.9V10H11.44H13.4H13.5V9.9V5.7H16.68V9.9V10H16.78H18.74H18.84V9.9V0V-0.1H18.74H16.78H16.68V0V3.82H13.5V0V-0.1H13.4H11.44H11.34V0V9.9ZM6.52 4.6V7.62H2.14V4.6H6.52Z" fill="#1B1F27" stroke="#1B1F27" stroke-width="0.2"/>
<path d="M35.3792 9.10799C33.4137 8.27118 31.9724 7.47706 31.0247 6.58037C32.8165 4.85973 34.0201 2.72177 34.12 0.244029L34.1242 0.14H34.0201H22.3801H22.2801V0.24V1.84V1.94H22.3801H31.6271C31.1065 3.66741 29.7544 5.20059 27.9925 6.44073C26.189 7.71017 23.9657 8.6655 21.796 9.20293L21.7201 9.22175V9.3V10.72V10.8327L21.832 10.8193C24.3261 10.52 26.9762 9.52916 29.158 8.06209C30.7216 9.19084 33.26 10.4646 35.2741 10.6955L35.4401 10.8614V10.62V9.2V9.13389L35.3792 9.10799ZM40.8092 16.7871L40.8601 16.7584V16.7V15.5221V15.44V15.42H40.7601H40.7561L40.7406 15.3419C38.7305 15.74 36.3983 15.86 33.5401 15.86H24.2801V12.36V12.26H24.1801H22.1601H22.0601V12.36V17.66V17.76H22.1601H33.8801C35.163 17.76 36.5772 17.6949 37.8272 17.5418C39.0726 17.3892 40.1704 17.1477 40.8092 16.7871ZM35.0001 6.14V6.24H35.1001H38.2001V12.54V12.64H38.3001H40.3401H40.4401V12.54V0V-0.1H40.3401H38.3001H38.2001V0V4.4H35.1001H35.0001V4.5V6.14Z" fill="#1B1F27" stroke="#1B1F27" stroke-width="0.2"/>
<path d="M52.3201 0.14V0.04H52.2201H50.2001H50.1001V0.14V2.74H45.7201V0.14V0.04H45.6201H43.5801H43.4801V0.14V9.38V9.48H43.5801H52.2201H52.3201V9.38V0.14ZM62.3401 17.86H62.4401V17.76V17.74V11.34V11.24H62.3401H43.5801H43.4801V11.34V13V13.1H43.5801H60.3401V17.76V17.86H60.4401H62.3401ZM54.9201 9.9V10H55.0201H56.9801H57.0801V9.9V5.7H60.2601V9.9V10H60.3601H62.3201H62.4201V9.9V0V-0.1H62.3201H60.3601H60.2601V0V3.8H57.0801V0V-0.1H56.9801H55.0201H54.9201V0V9.9ZM50.1001 4.6V7.62H45.7201V4.6H50.1001Z" fill="#1B1F27" stroke="#1B1F27" stroke-width="0.2"/>
<path d="M65.6401 8.56H65.5401V8.66V10.34V10.44H65.6401H85.8201H85.9201V10.34V8.66V8.56H85.8201H65.6401ZM65.8666 13.9754C65.7151 14.3082 65.6503 14.6794 65.6412 15.08H65.6201V15.18C65.6201 15.6494 65.6902 16.0703 65.8638 16.4366C66.0381 16.8043 66.314 17.111 66.7157 17.3554C67.5132 17.8407 68.8074 18.08 70.8001 18.08H80.7201C82.703 18.08 83.9922 17.8407 84.7872 17.3554C85.1877 17.1109 85.4629 16.8041 85.6368 16.4365C85.8101 16.0703 85.8801 15.6494 85.8801 15.18C85.8801 14.2979 85.6266 13.5598 84.8316 13.0508C84.0486 12.5495 82.7539 12.28 80.7001 12.28H70.8401C68.7765 12.28 67.4767 12.5495 66.6913 13.0507C66.296 13.303 66.0313 13.6138 65.8666 13.9754ZM85.0201 5.8V5.7208L84.943 5.70266C81.2497 4.83365 78.4339 3.55788 76.9794 2.13722C77.2259 1.56393 77.3401 0.972606 77.3401 0.4V0.12V0.02V0H77.2401V-0.08H75.0401H74.9401V0.02V0.398841C74.9108 1.65178 74.1062 2.77031 72.664 3.68813C71.2217 4.60592 69.1559 5.31269 66.6433 5.74142L66.5601 5.75562V5.84V7.42V7.52844L66.6682 7.51967C71.0684 7.1629 73.9572 5.80671 75.5906 4.17173C76.655 4.94414 78.3095 5.74628 80.0207 6.37388C81.7697 7.01533 83.5907 7.47922 84.9156 7.53989L85.0201 7.54468V7.44V5.8ZM83.5401 15.22C83.5401 15.4204 83.4861 15.5767 83.3814 15.7022C83.2752 15.8297 83.1098 15.934 82.8727 16.0154C82.3951 16.1794 81.6604 16.24 80.6401 16.24H70.8401C69.8389 16.24 69.1145 16.1893 68.642 16.0302C68.4077 15.9513 68.2441 15.8485 68.1388 15.7198C68.0348 15.5928 67.9801 15.4315 67.9801 15.22C67.9801 15.0271 68.0269 14.87 68.1216 14.7402C68.217 14.6093 68.3671 14.4978 68.588 14.4076C69.0335 14.2255 69.7414 14.14 70.7801 14.14H80.6801C81.7592 14.14 82.4821 14.2256 82.9327 14.4077C83.1559 14.498 83.3058 14.6094 83.4004 14.7399C83.4944 14.8696 83.5401 15.0266 83.5401 15.22Z" fill="#1B1F27" stroke="#1B1F27" stroke-width="0.2"/>
</g>
<defs>
<clipPath id="clip0_102_519">
<rect width="85.8" height="18" fill="white"/>
</clipPath>
</defs>
</svg>
