<svg width="54" height="48" viewBox="0 0 54 48" fill="none" xmlns="http://www.w3.org/2000/svg">
<mask id="mask0_100_666" style="mask-type:alpha" maskUnits="userSpaceOnUse" x="0" y="0" width="54" height="48">
<rect width="54" height="48" fill="#D9D9D9"/>
</mask>
<g mask="url(#mask0_100_666)">
<mask id="mask1_100_666" style="mask-type:luminance" maskUnits="userSpaceOnUse" x="15" y="15" width="23" height="24">
<path d="M37.2274 15H15.7725V38.2151H37.2274V15Z" fill="white"/>
</mask>
<g mask="url(#mask1_100_666)">
<path d="M22.9207 38.2099H18.1586C17.5225 38.2055 16.914 37.949 16.4667 37.4967C16.0194 37.0443 15.7698 36.4331 15.7725 35.7969V24.1618C15.7723 23.6537 15.8874 23.1521 16.1092 22.6949C16.3309 22.2377 16.6535 21.8367 17.0526 21.5222L24.4223 15.7194C25.015 15.2527 25.7475 14.999 26.5019 14.999C27.2563 14.999 27.9887 15.2527 28.5814 15.7194L35.946 21.5209C36.3452 21.8354 36.6678 22.2363 36.8896 22.6935C37.1113 23.1508 37.2264 23.6524 37.2261 24.1605V35.7982C37.2292 36.4336 36.9803 37.0443 36.5341 37.4965C36.0878 37.9488 35.4805 38.2058 34.8451 38.2112H30.0779V28.6103C30.0781 28.4397 30.0446 28.2708 29.9795 28.1131C29.9143 27.9555 29.8187 27.8123 29.6982 27.6916C29.5776 27.5709 29.4345 27.4752 29.2769 27.4099C29.1193 27.3446 28.9504 27.3109 28.7798 27.3109H24.2213C24.0506 27.3108 23.8816 27.3443 23.7239 27.4095C23.5662 27.4747 23.4229 27.5704 23.3022 27.6911C23.1815 27.8118 23.0858 27.9551 23.0206 28.1128C22.9553 28.2706 22.9218 28.4396 22.922 28.6103V38.2112L22.9207 38.2099Z" fill="#B5BEC7"/>
</g>
</g>
</svg>
