<svg width="54" height="48" viewBox="0 0 54 48" fill="none" xmlns="http://www.w3.org/2000/svg">
<mask id="mask0_100_664" style="mask-type:alpha" maskUnits="userSpaceOnUse" x="0" y="0" width="54" height="48">
<rect width="54" height="48" fill="#D9D9D9"/>
</mask>
<g mask="url(#mask0_100_664)">
<mask id="mask1_100_664" style="mask-type:luminance" maskUnits="userSpaceOnUse" x="16" y="14" width="23" height="23">
<path d="M38.2683 14.1722H16.1699V36.7075H38.2683V14.1722Z" fill="white"/>
</mask>
<g mask="url(#mask1_100_664)">
<path d="M35.109 14.1722H24.5372C24.098 14.172 23.6635 14.2633 23.2614 14.4403C22.8594 14.6174 22.4987 14.8763 22.2023 15.2005L16.9944 20.9066C16.4638 21.489 16.1698 22.2485 16.1699 23.0364V33.5495C16.1697 33.9644 16.2513 34.3753 16.4101 34.7587C16.5688 35.1421 16.8015 35.4905 17.0949 35.7839C17.3883 36.0773 17.7367 36.31 18.1201 36.4687C18.5035 36.6275 18.9144 36.7091 19.3293 36.7089H35.109C35.5239 36.7091 35.9348 36.6275 36.3182 36.4687C36.7016 36.31 37.05 36.0773 37.3434 35.7839C37.6368 35.4905 37.8695 35.1421 38.0282 34.7587C38.1869 34.3753 38.2685 33.9644 38.2683 33.5495V17.3316C38.2685 16.9167 38.1869 16.5058 38.0282 16.1224C37.8695 15.739 37.6368 15.3906 37.3434 15.0972C37.05 14.8038 36.7016 14.5711 36.3182 14.4124C35.9348 14.2537 35.5239 14.1721 35.109 14.1722ZM19.3266 24.4376C19.327 24.0438 19.4836 23.6663 19.762 23.3878C20.0405 23.1094 20.418 22.9528 20.8118 22.9525H33.5173C33.9113 22.9525 34.2892 23.109 34.5679 23.3877C34.8465 23.6663 35.0031 24.0442 35.0031 24.4383C35.0031 24.8323 34.8465 25.2102 34.5679 25.4889C34.2892 25.7675 33.9113 25.9241 33.5173 25.9241H20.8118C20.4178 25.9237 20.04 25.7669 19.7616 25.4882C19.4831 25.2095 19.3266 24.8316 19.3266 24.4376ZM33.6252 32.42H20.9197C20.5256 32.42 20.1477 32.2635 19.8691 31.9848C19.5904 31.7062 19.4339 31.3283 19.4339 30.9342C19.4339 30.5401 19.5904 30.1622 19.8691 29.8836C20.1477 29.6049 20.5256 29.4484 20.9197 29.4484H33.6252C34.0192 29.4484 34.3971 29.6049 34.6758 29.8836C34.9544 30.1622 35.111 30.5401 35.111 30.9342C35.111 31.3283 34.9544 31.7062 34.6758 31.9848C34.3971 32.2635 34.0192 32.42 33.6252 32.42Z" fill="#B5BEC7"/>
</g>
</g>
</svg>
