<svg width="54" height="48" viewBox="0 0 54 48" fill="none" xmlns="http://www.w3.org/2000/svg">
<mask id="mask0_100_687" style="mask-type:alpha" maskUnits="userSpaceOnUse" x="0" y="0" width="54" height="48">
<rect width="54" height="48" fill="#D9D9D9"/>
</mask>
<g mask="url(#mask0_100_687)">
<g clip-path="url(#clip0_100_687)">
<path d="M14.9077 34.6732C14.9077 37.0616 16.8461 39 19.2345 39H34.8108C37.1992 39 39.1376 37.0616 39.1376 34.6732V24.289H14.9077V34.6732ZM20.0998 27.3177H33.9454C34.6637 27.3177 35.2435 27.8975 35.2435 28.6158C35.2435 29.334 34.6637 29.9138 33.9454 29.9138H20.0998C19.3816 29.9138 18.8018 29.334 18.8018 28.6158C18.8018 27.8975 19.3816 27.3177 20.0998 27.3177ZM20.0998 32.5098H33.9454C34.6637 32.5098 35.2435 33.0896 35.2435 33.8079C35.2435 34.5261 34.6637 35.1059 33.9454 35.1059H20.0998C19.3816 35.1059 18.8018 34.5261 18.8018 33.8079C18.8018 33.0896 19.3816 32.5098 20.0998 32.5098Z" fill="#1B1F27"/>
<path d="M34.8108 17.8941H34.4647V15.298C34.4647 14.5798 33.8849 14 33.1666 14C32.4484 14 31.8686 14.5798 31.8686 15.298V17.8941H22.3497V15.298C22.3497 14.5798 21.77 14 21.0517 14C20.3335 14 19.7537 14.5798 19.7537 15.298V17.8941H19.2345C16.8461 17.8941 14.9077 19.8325 14.9077 22.2208V22.5583H39.1376V22.2208C39.1376 19.8325 37.1992 17.8941 34.8108 17.8941Z" fill="#1B1F27"/>
</g>
</g>
<defs>
<clipPath id="clip0_100_687">
<rect width="24.2298" height="25" fill="white" transform="translate(14.9077 14)"/>
</clipPath>
</defs>
</svg>
