<svg xmlns="http://www.w3.org/2000/svg" width="504.554" height="31.6" viewBox="0 0 504.554 31.6">
  <g id="그룹_40" data-name="그룹 40" transform="translate(-10514.172 -487.622)">
    <g id="그룹_39" data-name="그룹 39">
      <g id="그룹_38" data-name="그룹 38">
        <g id="그룹_37" data-name="그룹 37">
          <path id="패스_236" data-name="패스 236" d="M10514.706,518.648a.5.5,0,0,1-.534-.533V489.1a.5.5,0,0,1,.534-.533h9.1c7.91,0,11.928,3.852,11.928,10.492s-4.018,10.492-11.928,10.492h-4.1v8.566a.5.5,0,0,1-.533.533Zm5-14.222h3.893c4.1,0,6.395-1.68,6.395-5.492,0-3.565-2.295-5.246-6.395-5.246h-3.893Z" fill="#252829"/>
          <path id="패스_237" data-name="패스 237" d="M10537.453,508.033c0-6.517,3.852-11.025,9.918-11.025a8.306,8.306,0,0,1,6.926,3.32l.123-2.377a.508.508,0,0,1,.574-.534h3.852a.5.5,0,0,1,.533.534v20.164a.5.5,0,0,1-.533.533h-3.852a.507.507,0,0,1-.574-.533l-.123-2.377a8.308,8.308,0,0,1-6.926,3.32C10541.3,519.058,10537.453,514.549,10537.453,508.033Zm16.967,0c0-3.648-2.336-6.189-5.738-6.189s-5.736,2.541-5.736,6.189,2.336,6.189,5.736,6.189S10554.42,511.681,10554.42,508.033Z" fill="#252829"/>
          <path id="패스_238" data-name="패스 238" d="M10565.28,510.451v-8.279h-3.115a.5.5,0,0,1-.533-.533v-3.688a.5.5,0,0,1,.533-.534h3.115v-5.7a.5.5,0,0,1,.533-.533h4.262a.5.5,0,0,1,.533.533v5.7h5.041a.5.5,0,0,1,.532.534v3.688a.5.5,0,0,1-.532.533h-5.041v8.607c0,2.295.736,3.443,2.377,3.443a1.689,1.689,0,0,0,1.6-1.025.511.511,0,0,1,.738-.246l3.2,1.434c.328.164.41.451.164.861a6.805,6.805,0,0,1-6.27,3.812C10567.821,519.058,10565.28,516.189,10565.28,510.451Z" fill="#252829"/>
          <path id="패스_239" data-name="패스 239" d="M10579.215,508.033c0-6.435,4.059-11.025,10.739-11.025,6.516,0,10.246,4.836,10.041,12.131a.526.526,0,0,1-.575.533h-14.548c.491,2.91,2.294,4.673,5.123,4.673a5.052,5.052,0,0,0,4.671-2.419.544.544,0,0,1,.7-.245l3.646,1.27a.455.455,0,0,1,.286.7c-1.884,3.729-5.409,5.41-9.343,5.41C10583.273,519.058,10579.215,514.467,10579.215,508.033Zm15.082-2.336c-.491-2.5-2.089-3.976-4.384-3.976a4.882,4.882,0,0,0-4.96,3.976Z" fill="#252829"/>
          <path id="패스_240" data-name="패스 240" d="M10603.641,518.648a.5.5,0,0,1-.531-.533V497.951a.5.5,0,0,1,.531-.534h3.854a.507.507,0,0,1,.573.534l.123,2.418a8.285,8.285,0,0,1,6.927-3.361c4.918,0,7.746,2.95,7.746,7.828v13.279a.5.5,0,0,1-.533.533h-4.263a.5.5,0,0,1-.532-.533V507.008c0-3.525-1.271-5.164-4.059-5.164-2.581,0-5.041,1.927-5.041,5.984v10.287a.5.5,0,0,1-.532.533Z" fill="#252829"/>
          <path id="패스_241" data-name="패스 241" d="M10628.6,510.451v-8.279h-3.114a.5.5,0,0,1-.532-.533v-3.688a.5.5,0,0,1,.532-.534h3.114v-5.7a.5.5,0,0,1,.533-.533h4.263a.5.5,0,0,1,.532.533v5.7h5.041a.5.5,0,0,1,.533.534v3.688a.5.5,0,0,1-.533.533h-5.041v8.607c0,2.295.737,3.443,2.377,3.443a1.691,1.691,0,0,0,1.6-1.025.509.509,0,0,1,.736-.246l3.2,1.434c.328.164.41.451.164.861a6.805,6.805,0,0,1-6.27,3.812C10631.142,519.058,10628.6,516.189,10628.6,510.451Z" fill="#252829"/>
          <path id="패스_242" data-name="패스 242" d="M10642.576,513.4a.464.464,0,0,1,.369-.656l3.729-1.024a.519.519,0,0,1,.656.327,4.459,4.459,0,0,0,4.262,2.3c1.8,0,3.116-.369,3.116-1.558,0-.9-.9-1.393-3.157-2.049l-1.023-.287c-5.082-1.434-7.051-3.935-7.051-7.213,0-3.607,3.279-6.23,8.074-6.23,4.1,0,7.009,1.721,8.321,5.328a.445.445,0,0,1-.329.656l-3.729,1.188a.511.511,0,0,1-.7-.287,3.9,3.9,0,0,0-3.649-2.172c-1.393,0-2.5.41-2.5,1.517,0,.983.944,1.557,3.28,2.131l.983.246c5.2,1.311,6.968,3.524,6.968,7.049,0,3.894-3.526,6.394-8.4,6.394C10647.166,519.058,10643.928,517.09,10642.576,513.4Z" fill="#252829"/>
          <path id="패스_243" data-name="패스 243" d="M10670.363,508.033c0-6.517,3.852-11.025,9.918-11.025a8.309,8.309,0,0,1,6.927,3.32l.123-2.377a.507.507,0,0,1,.573-.534h3.852a.5.5,0,0,1,.534.534v20.164a.5.5,0,0,1-.534.533h-3.852a.507.507,0,0,1-.573-.533l-.123-2.377a8.312,8.312,0,0,1-6.927,3.32C10674.215,519.058,10670.363,514.549,10670.363,508.033Zm16.968,0c0-3.648-2.336-6.189-5.739-6.189s-5.736,2.541-5.736,6.189,2.336,6.189,5.736,6.189S10687.331,511.681,10687.331,508.033Z" fill="#252829"/>
          <path id="패스_244" data-name="패스 244" d="M10697.576,518.648a.5.5,0,0,1-.533-.533V497.951a.5.5,0,0,1,.533-.534h3.853a.507.507,0,0,1,.573.534l.123,2.418a8.285,8.285,0,0,1,6.927-3.361c4.918,0,7.746,2.95,7.746,7.828v13.279a.5.5,0,0,1-.533.533H10712a.5.5,0,0,1-.532-.533V507.008c0-3.525-1.27-5.164-4.057-5.164-2.582,0-5.041,1.927-5.041,5.984v10.287a.5.5,0,0,1-.534.533Z" fill="#252829"/>
          <path id="패스_245" data-name="패스 245" d="M10720.159,508.033c0-6.517,3.852-11.025,9.918-11.025a8.436,8.436,0,0,1,6.68,2.992V488.442a.5.5,0,0,1,.534-.533h4.262a.5.5,0,0,1,.532.533v29.673a.5.5,0,0,1-.532.533h-3.853a.507.507,0,0,1-.574-.533l-.123-2.377a8.308,8.308,0,0,1-6.926,3.32C10724.011,519.058,10720.159,514.549,10720.159,508.033Zm16.967,0c0-3.648-2.335-6.189-5.738-6.189s-5.736,2.541-5.736,6.189,2.336,6.189,5.736,6.189S10737.126,511.681,10737.126,508.033Z" fill="#252829"/>
          <path id="패스_246" data-name="패스 246" d="M10754.543,503.606c0-9.467,6.149-15.615,14.755-15.615,6.313,0,10.862,2.951,12.869,8.074a.481.481,0,0,1-.328.7l-4.384,1.23a.522.522,0,0,1-.657-.328,7.881,7.881,0,0,0-7.418-4.263c-5.738,0-9.1,4.057-9.1,10.2,0,6.189,3.4,10.206,9.1,10.206a7.944,7.944,0,0,0,8.075-5.574.5.5,0,0,1,.655-.369l4.345,1.23c.328.081.451.286.369.532-1.6,5.656-6.272,9.591-13.608,9.591C10760.405,519.222,10754.543,513.074,10754.543,503.606Z" fill="#252829"/>
          <path id="패스_247" data-name="패스 247" d="M10784.832,508.033c0-6.435,4.057-11.025,10.738-11.025,6.516,0,10.246,4.836,10.041,12.131a.526.526,0,0,1-.574.533h-14.55c.491,2.91,2.3,4.673,5.124,4.673a5.053,5.053,0,0,0,4.672-2.419.54.54,0,0,1,.7-.245l3.648,1.27a.456.456,0,0,1,.288.7c-1.886,3.729-5.411,5.41-9.345,5.41C10788.889,519.058,10784.832,514.467,10784.832,508.033Zm15.082-2.336c-.492-2.5-2.09-3.976-4.385-3.976a4.882,4.882,0,0,0-4.96,3.976Z" fill="#252829"/>
          <path id="패스_248" data-name="패스 248" d="M10809.257,518.648a.5.5,0,0,1-.532-.533V497.951a.5.5,0,0,1,.532-.534h3.854a.507.507,0,0,1,.572.534l.123,2.664a7.558,7.558,0,0,1,6.477-3.484,6.9,6.9,0,0,1,1.434.123.533.533,0,0,1,.451.574v4.221c0,.369-.205.492-.574.451-.533-.041-1.146-.164-1.967-.164a5.318,5.318,0,0,0-5.574,5.328v10.451a.5.5,0,0,1-.533.533Z" fill="#252829"/>
          <path id="패스_249" data-name="패스 249" d="M10827.332,510.451v-8.279h-3.116a.5.5,0,0,1-.532-.533v-3.688a.5.5,0,0,1,.532-.534h3.116v-5.7a.5.5,0,0,1,.533-.533h4.261a.5.5,0,0,1,.534.533v5.7h5.041a.5.5,0,0,1,.533.534v3.688a.5.5,0,0,1-.533.533h-5.041v8.607c0,2.295.737,3.443,2.377,3.443a1.688,1.688,0,0,0,1.6-1.025.511.511,0,0,1,.738-.246l3.2,1.434c.328.164.41.451.164.861a6.81,6.81,0,0,1-6.271,3.812C10829.873,519.058,10827.332,516.189,10827.332,510.451Z" fill="#252829"/>
          <path id="패스_250" data-name="패스 250" d="M10842.454,490.7a3.119,3.119,0,1,1,3.115,2.951A2.93,2.93,0,0,1,10842.454,490.7Zm.982,27.952a.5.5,0,0,1-.531-.533V497.951a.5.5,0,0,1,.531-.534h4.264a.5.5,0,0,1,.533.534v20.164a.5.5,0,0,1-.533.533Z" fill="#252829"/>
          <path id="패스_251" data-name="패스 251" d="M10854.79,518.648a.5.5,0,0,1-.533-.533V502.172h-2.951a.494.494,0,0,1-.531-.533v-3.688a.5.5,0,0,1,.531-.534h2.951v-1.352c0-5.164,2.91-8.443,7.459-8.443a7.382,7.382,0,0,1,5.164,1.844.564.564,0,0,1,.082.738l-1.843,2.869a.445.445,0,0,1-.739.123,3.471,3.471,0,0,0-2.254-.738c-1.639,0-2.541,1.189-2.541,3.525v1.434h13.566a.5.5,0,0,1,.532.534v20.164a.5.5,0,0,1-.532.533h-4.263a.5.5,0,0,1-.532-.533V502.172h-8.771v15.943a.5.5,0,0,1-.533.533Zm13.075-27.378a3.156,3.156,0,1,1,3.154,3.074A3.014,3.014,0,0,1,10867.865,491.27Z" fill="#252829"/>
          <path id="패스_252" data-name="패스 252" d="M10877.249,508.033c0-6.517,4.222-11.025,10.862-11.025,4.754,0,8.072,1.967,9.631,6.148a.5.5,0,0,1-.369.7l-3.525,1.024a.582.582,0,0,1-.7-.328,4.893,4.893,0,0,0-4.714-2.705c-3.854,0-5.7,2.828-5.7,6.189s1.843,6.189,5.7,6.189a4.882,4.882,0,0,0,4.755-2.828.582.582,0,0,1,.7-.328l3.895.942a.445.445,0,0,1,.328.656c-1.682,4.385-5.287,6.394-9.96,6.394C10881.43,519.058,10877.249,514.549,10877.249,508.033Z" fill="#252829"/>
          <path id="패스_253" data-name="패스 253" d="M10900.118,508.033c0-6.517,3.852-11.025,9.918-11.025a8.306,8.306,0,0,1,6.926,3.32l.123-2.377a.508.508,0,0,1,.574-.534h3.853a.5.5,0,0,1,.532.534v20.164a.5.5,0,0,1-.532.533h-3.853a.507.507,0,0,1-.574-.533l-.123-2.377a8.308,8.308,0,0,1-6.926,3.32C10903.97,519.058,10900.118,514.549,10900.118,508.033Zm16.967,0c0-3.648-2.336-6.189-5.738-6.189s-5.736,2.541-5.736,6.189,2.336,6.189,5.736,6.189S10917.085,511.681,10917.085,508.033Z" fill="#252829"/>
          <path id="패스_254" data-name="패스 254" d="M10927.946,510.451v-8.279h-3.115a.5.5,0,0,1-.533-.533v-3.688a.5.5,0,0,1,.533-.534h3.115v-5.7a.5.5,0,0,1,.532-.533h4.263a.5.5,0,0,1,.533.533v5.7h5.041a.5.5,0,0,1,.532.534v3.688a.5.5,0,0,1-.532.533h-5.041v8.607c0,2.295.736,3.443,2.377,3.443a1.689,1.689,0,0,0,1.6-1.025.511.511,0,0,1,.738-.246l3.2,1.434c.328.164.41.451.164.861a6.805,6.805,0,0,1-6.27,3.812C10930.487,519.058,10927.946,516.189,10927.946,510.451Z" fill="#252829"/>
          <path id="패스_255" data-name="패스 255" d="M10943.069,490.7a3.119,3.119,0,1,1,3.114,2.951A2.93,2.93,0,0,1,10943.069,490.7Zm.982,27.952a.5.5,0,0,1-.532-.533V497.951a.5.5,0,0,1,.532-.534h4.264a.5.5,0,0,1,.532.534v20.164a.5.5,0,0,1-.532.533Z" fill="#252829"/>
          <path id="패스_256" data-name="패스 256" d="M10952.373,508.033c0-6.435,4.425-11.025,11.229-11.025s11.231,4.59,11.231,11.025-4.427,11.025-11.231,11.025S10952.373,514.467,10952.373,508.033Zm16.967,0c0-3.648-2.336-6.189-5.738-6.189s-5.736,2.541-5.736,6.189,2.336,6.189,5.736,6.189S10969.34,511.681,10969.34,508.033Z" fill="#252829"/>
          <path id="패스_257" data-name="패스 257" d="M10978.888,518.648a.494.494,0,0,1-.531-.533V497.951a.5.5,0,0,1,.531-.534h3.854a.507.507,0,0,1,.573.534l.123,2.418a8.285,8.285,0,0,1,6.927-3.361c4.918,0,7.746,2.95,7.746,7.828v13.279a.5.5,0,0,1-.533.533h-4.263a.5.5,0,0,1-.532-.533V507.008c0-3.525-1.271-5.164-4.059-5.164-2.582,0-5.041,1.927-5.041,5.984v10.287a.5.5,0,0,1-.532.533Z" fill="#252829"/>
          <path id="패스_258" data-name="패스 258" d="M11001.1,513.4a.464.464,0,0,1,.369-.656l3.73-1.024a.518.518,0,0,1,.655.327,4.459,4.459,0,0,0,4.263,2.3c1.8,0,3.115-.369,3.115-1.558,0-.9-.9-1.393-3.156-2.049l-1.025-.287c-5.082-1.434-7.05-3.935-7.05-7.213,0-3.607,3.28-6.23,8.075-6.23,4.1,0,7.008,1.721,8.32,5.328a.445.445,0,0,1-.328.656l-3.73,1.188a.511.511,0,0,1-.7-.287,3.9,3.9,0,0,0-3.647-2.172c-1.395,0-2.5.41-2.5,1.517,0,.983.942,1.557,3.279,2.131l.982.246c5.205,1.311,6.968,3.524,6.968,7.049,0,3.894-3.524,6.394-8.4,6.394C11005.693,519.058,11002.455,517.09,11001.1,513.4Z" fill="#252829"/>
        </g>
      </g>
    </g>
  </g>
</svg>
