<?xml version="1.0" encoding="UTF-8"?>
<svg id="_레이어_2" data-name="레이어 2" xmlns="http://www.w3.org/2000/svg" viewBox="0 0 1257.89 39.67">
  <defs>
    <style>
      .cls-1 {
        fill: none;
      }

      .cls-2 {
        fill: #252829;
      }
    </style>
  </defs>
  <g id="_레이어_1-2" data-name="레이어 1">
    <g>
      <rect class="cls-1" x="0" y="0" width="1257.89" height="39.67"/>
      <g>
        <path class="cls-2" d="M.53,30.74c-.33,0-.53-.21-.53-.53V1.19c0-.33.21-.53.53-.53h9.1c7.91,0,11.93,3.85,11.93,10.49s-4.02,10.49-11.93,10.49h-4.1v8.57c0,.33-.21.53-.53.53H.53ZM5.53,16.52h3.89c4.1,0,6.39-1.68,6.39-5.49,0-3.57-2.29-5.25-6.39-5.25h-3.89v10.74Z"/>
        <path class="cls-2" d="M25.86,30.74c-.33,0-.53-.21-.53-.53V10.04c0-.33.21-.53.53-.53h3.85c.33,0,.57.16.57.53l.12,2.66c1.43-2.3,3.93-3.48,6.48-3.48.62,0,1.02.04,1.43.12.33.08.45.29.45.57v4.22c0,.37-.21.49-.57.45-.53-.04-1.15-.16-1.97-.16-2.87,0-5.57,1.97-5.57,5.33v10.45c0,.33-.21.53-.53.53h-4.26Z"/>
        <path class="cls-2" d="M39.92,20.12c0-6.43,4.43-11.03,11.23-11.03s11.23,4.59,11.23,11.03-4.43,11.02-11.23,11.02-11.23-4.59-11.23-11.02ZM56.89,20.12c0-3.65-2.34-6.19-5.74-6.19s-5.74,2.54-5.74,6.19,2.34,6.19,5.74,6.19,5.74-2.54,5.74-6.19Z"/>
        <path class="cls-2" d="M64.67,20.12c0-6.52,3.85-11.03,9.92-11.03,2.79,0,5.12,1.11,6.68,2.99V.53c0-.33.21-.53.53-.53h4.26c.33,0,.53.21.53.53v29.67c0,.33-.21.53-.53.53h-3.85c-.33,0-.57-.16-.57-.53l-.12-2.38c-1.52,2.09-3.98,3.32-6.93,3.32-6.07,0-9.92-4.51-9.92-11.02ZM81.64,20.12c0-3.65-2.34-6.19-5.74-6.19s-5.74,2.54-5.74,6.19,2.34,6.19,5.74,6.19,5.74-2.54,5.74-6.19Z"/>
        <path class="cls-2" d="M91.19,23.32v-13.28c0-.33.21-.53.53-.53h4.26c.33,0,.53.21.53.53v11.11c0,3.52,1.27,5.16,4.06,5.16,2.58,0,5.04-1.93,5.04-5.98v-10.29c0-.33.21-.53.53-.53h4.26c.33,0,.53.21.53.53v20.16c0,.33-.21.53-.53.53h-3.85c-.33,0-.57-.16-.57-.53l-.12-2.42c-1.56,2.25-4.22,3.36-6.93,3.36-4.92,0-7.75-2.95-7.75-7.83Z"/>
        <path class="cls-2" d="M114.47,20.12c0-6.52,4.22-11.03,10.86-11.03,4.75,0,8.07,1.97,9.63,6.15.12.33-.04.61-.37.7l-3.52,1.02c-.29.08-.53-.04-.7-.33-.94-1.8-2.5-2.71-4.71-2.71-3.85,0-5.7,2.83-5.7,6.19s1.84,6.19,5.7,6.19c2.21,0,3.85-.94,4.75-2.83.16-.29.41-.41.7-.33l3.89.94c.33.08.45.33.33.66-1.68,4.39-5.29,6.39-9.96,6.39-6.72,0-10.9-4.51-10.9-11.02Z"/>
        <path class="cls-2" d="M139.71,22.54v-8.28h-3.12c-.33,0-.53-.21-.53-.53v-3.69c0-.33.21-.53.53-.53h3.12V3.81c0-.33.21-.53.53-.53h4.26c.33,0,.53.21.53.53v5.7h5.04c.33,0,.53.21.53.53v3.69c0,.33-.21.53-.53.53h-5.04v8.61c0,2.29.74,3.44,2.38,3.44.7,0,1.19-.29,1.6-1.02.16-.29.41-.41.74-.25l3.2,1.43c.33.16.41.45.16.86-1.52,2.79-3.85,3.81-6.27,3.81-4.59,0-7.13-2.87-7.13-8.61Z"/>
        <path class="cls-2" d="M172.25,30.74c-.33,0-.53-.21-.53-.53V5.86h-9.3c-.33,0-.49-.21-.49-.53V1.19c0-.33.16-.53.49-.53h24.1c.33,0,.53.21.53.53v4.14c0,.33-.21.53-.53.53h-9.26v24.34c0,.33-.2.53-.53.53h-4.47Z"/>
        <path class="cls-2" d="M184.92,20.12c0-6.43,4.06-11.03,10.74-11.03s10.25,4.84,10.04,12.13c-.04.37-.25.53-.57.53h-14.55c.49,2.91,2.3,4.67,5.12,4.67,2.17,0,3.69-.82,4.67-2.42.16-.29.41-.33.7-.25l3.65,1.27c.33.12.45.37.29.7-1.89,3.73-5.41,5.41-9.34,5.41-6.68,0-10.74-4.59-10.74-11.02ZM200,17.79c-.49-2.5-2.09-3.98-4.38-3.98-2.5,0-4.3,1.43-4.96,3.98h9.34Z"/>
        <path class="cls-2" d="M207.21,25.49c-.12-.33.04-.57.37-.66l3.73-1.02c.29-.08.53.04.66.33.98,1.72,2.46,2.29,4.26,2.29s3.12-.37,3.12-1.56c0-.9-.9-1.39-3.16-2.05l-1.02-.29c-5.08-1.43-7.05-3.93-7.05-7.21,0-3.61,3.28-6.23,8.07-6.23,4.1,0,7.01,1.72,8.32,5.33.12.33,0,.57-.33.66l-3.73,1.19c-.33.12-.53,0-.7-.29-.74-1.31-1.84-2.17-3.65-2.17-1.39,0-2.5.41-2.5,1.52,0,.98.94,1.56,3.28,2.13l.98.25c5.21,1.31,6.97,3.52,6.97,7.05,0,3.89-3.53,6.39-8.4,6.39s-7.87-1.97-9.22-5.66Z"/>
        <path class="cls-2" d="M230,22.54v-8.28h-3.12c-.33,0-.53-.21-.53-.53v-3.69c0-.33.21-.53.53-.53h3.12V3.81c0-.33.21-.53.53-.53h4.26c.33,0,.53.21.53.53v5.7h5.04c.33,0,.53.21.53.53v3.69c0,.33-.21.53-.53.53h-5.04v8.61c0,2.29.74,3.44,2.38,3.44.7,0,1.19-.29,1.6-1.02.16-.29.41-.41.74-.25l3.2,1.43c.33.16.41.45.16.86-1.52,2.79-3.85,3.81-6.27,3.81-4.59,0-7.13-2.87-7.13-8.61Z"/>
        <path class="cls-2" d="M254.8,30.74c-.33,0-.53-.21-.53-.53V1.19c0-.33.2-.53.53-.53h9.1c8.32,0,11.93,3.69,11.93,10.49,0,3.69-1.39,6.8-4.39,8.69l5.62,10.25c.21.37.04.66-.37.66h-5.04c-.29,0-.49-.12-.61-.37l-4.84-8.85c-.74.08-1.47.12-2.29.12h-4.1v8.57c0,.33-.21.53-.53.53h-4.47ZM259.8,16.52h3.89c4.34,0,6.39-1.6,6.39-5.37s-2.05-5.37-6.39-5.37h-3.89v10.74Z"/>
        <path class="cls-2" d="M279.1,20.12c0-6.43,4.06-11.03,10.74-11.03s10.25,4.84,10.04,12.13c-.04.37-.25.53-.57.53h-14.55c.49,2.91,2.29,4.67,5.12,4.67,2.17,0,3.69-.82,4.67-2.42.16-.29.41-.33.7-.25l3.65,1.27c.33.12.45.37.29.7-1.88,3.73-5.41,5.41-9.34,5.41-6.68,0-10.74-4.59-10.74-11.02ZM294.18,17.79c-.49-2.5-2.09-3.98-4.38-3.98-2.5,0-4.3,1.43-4.96,3.98h9.34Z"/>
        <path class="cls-2" d="M303.53,39.67c-.33,0-.53-.21-.53-.53V10.04c0-.33.21-.53.53-.53h3.85c.33,0,.57.16.57.53l.12,2.38c1.52-2.09,3.98-3.32,6.93-3.32,6.07,0,9.92,4.51,9.92,11.03s-3.85,11.02-9.92,11.02c-2.79,0-5.12-1.11-6.68-2.99v10.98c0,.33-.21.53-.53.53h-4.26ZM319.43,20.12c0-3.65-2.34-6.19-5.74-6.19s-5.74,2.54-5.74,6.19,2.34,6.19,5.74,6.19,5.74-2.54,5.74-6.19Z"/>
        <path class="cls-2" d="M327.21,20.12c0-6.43,4.43-11.03,11.23-11.03s11.23,4.59,11.23,11.03-4.43,11.02-11.23,11.02-11.23-4.59-11.23-11.02ZM344.18,20.12c0-3.65-2.34-6.19-5.74-6.19s-5.74,2.54-5.74,6.19,2.34,6.19,5.74,6.19,5.74-2.54,5.74-6.19Z"/>
        <path class="cls-2" d="M353.73,30.74c-.33,0-.53-.21-.53-.53V10.04c0-.33.21-.53.53-.53h3.85c.33,0,.57.16.57.53l.12,2.66c1.43-2.3,3.93-3.48,6.48-3.48.62,0,1.02.04,1.43.12.33.08.45.29.45.57v4.22c0,.37-.21.49-.57.45-.53-.04-1.15-.16-1.97-.16-2.87,0-5.57,1.97-5.57,5.33v10.45c0,.33-.21.53-.53.53h-4.26Z"/>
        <path class="cls-2" d="M371.8,22.54v-8.28h-3.12c-.33,0-.53-.21-.53-.53v-3.69c0-.33.21-.53.53-.53h3.12V3.81c0-.33.21-.53.53-.53h4.26c.33,0,.53.21.53.53v5.7h5.04c.33,0,.53.21.53.53v3.69c0,.33-.21.53-.53.53h-5.04v8.61c0,2.29.74,3.44,2.38,3.44.7,0,1.19-.29,1.6-1.02.16-.29.41-.41.74-.25l3.2,1.43c.33.16.41.45.16.86-1.52,2.79-3.85,3.81-6.27,3.81-4.59,0-7.13-2.87-7.13-8.61Z"/>
        <path class="cls-2" d="M385.78,25.49c-.12-.33.04-.57.37-.66l3.73-1.02c.29-.08.53.04.66.33.98,1.72,2.46,2.29,4.26,2.29s3.12-.37,3.12-1.56c0-.9-.9-1.39-3.16-2.05l-1.02-.29c-5.08-1.43-7.05-3.93-7.05-7.21,0-3.61,3.28-6.23,8.07-6.23,4.1,0,7.01,1.72,8.32,5.33.12.33,0,.57-.33.66l-3.73,1.19c-.33.12-.53,0-.7-.29-.74-1.31-1.84-2.17-3.65-2.17-1.39,0-2.5.41-2.5,1.52,0,.98.94,1.56,3.28,2.13l.98.25c5.21,1.31,6.97,3.52,6.97,7.05,0,3.89-3.53,6.39-8.4,6.39s-7.87-1.97-9.22-5.66Z"/>
      </g>
    </g>
  </g>
</svg>