<?xml version="1.0" encoding="UTF-8"?>
<svg id="_레이어_2" data-name="레이어 2" xmlns="http://www.w3.org/2000/svg" viewBox="0 0 1257.89 31.6">
  <defs>
    <style>
      .cls-1 {
        fill: none;
      }

      .cls-2 {
        fill: #252829;
      }
    </style>
  </defs>
  <g id="_레이어_1-2" data-name="레이어 1">
    <g>
      <rect class="cls-1" x="0" y="0" width="1257.89" height="31.6"/>
      <g>
        <path class="cls-2" d="M.53,31.03c-.33,0-.53-.21-.53-.53V1.48c0-.33.21-.53.53-.53h9.1c7.91,0,11.93,3.85,11.93,10.49s-4.02,10.49-11.93,10.49h-4.1v8.57c0,.33-.21.53-.53.53H.53ZM5.53,16.8h3.89c4.1,0,6.39-1.68,6.39-5.49,0-3.57-2.29-5.25-6.39-5.25h-3.89v10.74Z"/>
        <path class="cls-2" d="M23.28,20.41c0-6.52,3.85-11.02,9.92-11.02,2.95,0,5.41,1.23,6.93,3.32l.12-2.38c0-.37.25-.53.57-.53h3.85c.33,0,.53.21.53.53v20.16c0,.33-.21.53-.53.53h-3.85c-.33,0-.57-.16-.57-.53l-.12-2.38c-1.52,2.09-3.98,3.32-6.93,3.32-6.07,0-9.92-4.51-9.92-11.02ZM40.25,20.41c0-3.65-2.34-6.19-5.74-6.19s-5.74,2.54-5.74,6.19,2.34,6.19,5.74,6.19,5.74-2.54,5.74-6.19Z"/>
        <path class="cls-2" d="M51.11,22.83v-8.28h-3.12c-.33,0-.53-.21-.53-.53v-3.69c0-.33.21-.53.53-.53h3.12v-5.7c0-.33.21-.53.53-.53h4.26c.33,0,.53.21.53.53v5.7h5.04c.33,0,.53.21.53.53v3.69c0,.33-.21.53-.53.53h-5.04v8.61c0,2.29.74,3.44,2.38,3.44.7,0,1.19-.29,1.6-1.02.16-.29.41-.41.74-.25l3.2,1.43c.33.16.41.45.16.86-1.52,2.79-3.85,3.81-6.27,3.81-4.59,0-7.13-2.87-7.13-8.61Z"/>
        <path class="cls-2" d="M65.04,20.41c0-6.43,4.06-11.02,10.74-11.02s10.25,4.84,10.04,12.13c-.04.37-.25.53-.57.53h-14.55c.49,2.91,2.29,4.67,5.12,4.67,2.17,0,3.69-.82,4.67-2.42.16-.29.41-.33.7-.25l3.65,1.27c.33.12.45.37.29.7-1.88,3.73-5.41,5.41-9.34,5.41-6.68,0-10.74-4.59-10.74-11.02ZM80.12,18.07c-.49-2.5-2.09-3.98-4.38-3.98-2.5,0-4.3,1.43-4.96,3.98h9.34Z"/>
        <path class="cls-2" d="M89.47,31.03c-.33,0-.53-.21-.53-.53V10.33c0-.33.21-.53.53-.53h3.85c.33,0,.57.16.57.53l.12,2.42c1.56-2.25,4.22-3.36,6.93-3.36,4.92,0,7.75,2.95,7.75,7.83v13.28c0,.33-.21.53-.53.53h-4.26c-.33,0-.53-.21-.53-.53v-11.11c0-3.52-1.27-5.16-4.06-5.16-2.58,0-5.04,1.93-5.04,5.98v10.29c0,.33-.21.53-.53.53h-4.26Z"/>
        <path class="cls-2" d="M114.43,22.83v-8.28h-3.12c-.33,0-.53-.21-.53-.53v-3.69c0-.33.21-.53.53-.53h3.12v-5.7c0-.33.21-.53.53-.53h4.26c.33,0,.53.21.53.53v5.7h5.04c.33,0,.53.21.53.53v3.69c0,.33-.21.53-.53.53h-5.04v8.61c0,2.29.74,3.44,2.38,3.44.7,0,1.19-.29,1.6-1.02.16-.29.41-.41.74-.25l3.2,1.43c.33.16.41.45.16.86-1.52,2.79-3.85,3.81-6.27,3.81-4.59,0-7.13-2.87-7.13-8.61Z"/>
        <path class="cls-2" d="M128.4,25.78c-.12-.33.04-.57.37-.66l3.73-1.02c.29-.08.53.04.66.33.98,1.72,2.46,2.3,4.26,2.3s3.12-.37,3.12-1.56c0-.9-.9-1.39-3.16-2.05l-1.02-.29c-5.08-1.43-7.05-3.93-7.05-7.21,0-3.61,3.28-6.23,8.07-6.23,4.1,0,7.01,1.72,8.32,5.33.12.33,0,.57-.33.66l-3.73,1.19c-.33.12-.53,0-.7-.29-.74-1.31-1.84-2.17-3.65-2.17-1.39,0-2.5.41-2.5,1.52,0,.98.94,1.56,3.28,2.13l.98.25c5.21,1.31,6.97,3.52,6.97,7.05,0,3.89-3.53,6.39-8.4,6.39s-7.87-1.97-9.22-5.66Z"/>
        <path class="cls-2" d="M156.19,20.41c0-6.52,3.85-11.02,9.92-11.02,2.95,0,5.41,1.23,6.93,3.32l.12-2.38c0-.37.25-.53.57-.53h3.85c.33,0,.53.21.53.53v20.16c0,.33-.21.53-.53.53h-3.85c-.33,0-.57-.16-.57-.53l-.12-2.38c-1.52,2.09-3.98,3.32-6.93,3.32-6.07,0-9.92-4.51-9.92-11.02ZM173.16,20.41c0-3.65-2.34-6.19-5.74-6.19s-5.74,2.54-5.74,6.19,2.34,6.19,5.74,6.19,5.74-2.54,5.74-6.19Z"/>
        <path class="cls-2" d="M183.4,31.03c-.33,0-.53-.21-.53-.53V10.33c0-.33.21-.53.53-.53h3.85c.33,0,.57.16.57.53l.12,2.42c1.56-2.25,4.22-3.36,6.93-3.36,4.92,0,7.75,2.95,7.75,7.83v13.28c0,.33-.21.53-.53.53h-4.26c-.33,0-.53-.21-.53-.53v-11.11c0-3.52-1.27-5.16-4.06-5.16-2.58,0-5.04,1.93-5.04,5.98v10.29c0,.33-.21.53-.53.53h-4.26Z"/>
        <path class="cls-2" d="M205.99,20.41c0-6.52,3.85-11.02,9.92-11.02,2.79,0,5.12,1.11,6.68,2.99V.82c0-.33.21-.53.53-.53h4.26c.33,0,.53.21.53.53v29.67c0,.33-.21.53-.53.53h-3.85c-.33,0-.57-.16-.57-.53l-.12-2.38c-1.52,2.09-3.98,3.32-6.93,3.32-6.07,0-9.92-4.51-9.92-11.02ZM222.95,20.41c0-3.65-2.34-6.19-5.74-6.19s-5.74,2.54-5.74,6.19,2.34,6.19,5.74,6.19,5.74-2.54,5.74-6.19Z"/>
        <path class="cls-2" d="M240.37,15.98c0-9.47,6.15-15.62,14.75-15.62,6.31,0,10.86,2.95,12.87,8.07.12.33,0,.62-.33.7l-4.38,1.23c-.29.08-.53-.04-.66-.33-1.43-2.75-4.02-4.26-7.42-4.26-5.74,0-9.1,4.06-9.1,10.21s3.4,10.21,9.1,10.21c3.85,0,6.72-1.8,8.07-5.57.12-.33.33-.45.66-.37l4.34,1.23c.33.08.45.29.37.53-1.6,5.66-6.27,9.59-13.61,9.59-8.81,0-14.67-6.15-14.67-15.62Z"/>
        <path class="cls-2" d="M270.66,20.41c0-6.43,4.06-11.02,10.74-11.02s10.25,4.84,10.04,12.13c-.04.37-.25.53-.57.53h-14.55c.49,2.91,2.3,4.67,5.12,4.67,2.17,0,3.69-.82,4.67-2.42.16-.29.41-.33.7-.25l3.65,1.27c.33.12.45.37.29.7-1.89,3.73-5.41,5.41-9.34,5.41-6.68,0-10.74-4.59-10.74-11.02ZM285.74,18.07c-.49-2.5-2.09-3.98-4.38-3.98-2.5,0-4.3,1.43-4.96,3.98h9.34Z"/>
        <path class="cls-2" d="M295.08,31.03c-.33,0-.53-.21-.53-.53V10.33c0-.33.21-.53.53-.53h3.85c.33,0,.57.16.57.53l.12,2.66c1.43-2.3,3.93-3.48,6.48-3.48.62,0,1.02.04,1.43.12.33.08.45.29.45.57v4.22c0,.37-.21.49-.57.45-.53-.04-1.15-.16-1.97-.16-2.87,0-5.57,1.97-5.57,5.33v10.45c0,.33-.21.53-.53.53h-4.26Z"/>
        <path class="cls-2" d="M313.16,22.83v-8.28h-3.12c-.33,0-.53-.21-.53-.53v-3.69c0-.33.21-.53.53-.53h3.12v-5.7c0-.33.21-.53.53-.53h4.26c.33,0,.53.21.53.53v5.7h5.04c.33,0,.53.21.53.53v3.69c0,.33-.21.53-.53.53h-5.04v8.61c0,2.29.74,3.44,2.38,3.44.7,0,1.19-.29,1.6-1.02.16-.29.41-.41.74-.25l3.2,1.43c.33.16.41.45.16.86-1.52,2.79-3.85,3.81-6.27,3.81-4.59,0-7.13-2.87-7.13-8.61Z"/>
        <path class="cls-2" d="M328.28,3.07c0-1.76,1.35-2.95,3.12-2.95s3.11,1.19,3.11,2.95-1.35,2.95-3.11,2.95-3.12-1.19-3.12-2.95ZM329.26,31.03c-.33,0-.53-.21-.53-.53V10.33c0-.33.21-.53.53-.53h4.26c.33,0,.53.21.53.53v20.16c0,.33-.21.53-.53.53h-4.26Z"/>
        <path class="cls-2" d="M340.62,31.03c-.33,0-.53-.21-.53-.53v-15.94h-2.95c-.33,0-.53-.21-.53-.53v-3.69c0-.33.2-.53.53-.53h2.95v-1.35c0-5.16,2.91-8.44,7.46-8.44,2.09,0,3.81.61,5.16,1.84.21.21.25.49.08.74l-1.84,2.87c-.16.29-.45.37-.74.12-.74-.53-1.35-.74-2.25-.74-1.64,0-2.54,1.19-2.54,3.52v1.43h13.57c.33,0,.53.21.53.53v20.16c0,.33-.21.53-.53.53h-4.26c-.33,0-.53-.21-.53-.53v-15.94h-8.77v15.94c0,.33-.21.53-.53.53h-4.26ZM353.69,3.65c0-1.8,1.35-3.07,3.16-3.07s3.16,1.27,3.16,3.07-1.35,3.07-3.16,3.07-3.16-1.27-3.16-3.07Z"/>
        <path class="cls-2" d="M363.08,20.41c0-6.52,4.22-11.02,10.86-11.02,4.75,0,8.07,1.97,9.63,6.15.12.33-.04.61-.37.7l-3.52,1.02c-.29.08-.53-.04-.7-.33-.94-1.8-2.5-2.71-4.71-2.71-3.85,0-5.7,2.83-5.7,6.19s1.84,6.19,5.7,6.19c2.21,0,3.85-.94,4.75-2.83.16-.29.41-.41.7-.33l3.89.94c.33.08.45.33.33.66-1.68,4.39-5.29,6.39-9.96,6.39-6.72,0-10.9-4.51-10.9-11.02Z"/>
        <path class="cls-2" d="M385.95,20.41c0-6.52,3.85-11.02,9.92-11.02,2.95,0,5.41,1.23,6.93,3.32l.12-2.38c0-.37.25-.53.57-.53h3.85c.33,0,.53.21.53.53v20.16c0,.33-.21.53-.53.53h-3.85c-.33,0-.57-.16-.57-.53l-.12-2.38c-1.52,2.09-3.98,3.32-6.93,3.32-6.07,0-9.92-4.51-9.92-11.02ZM402.91,20.41c0-3.65-2.34-6.19-5.74-6.19s-5.74,2.54-5.74,6.19,2.34,6.19,5.74,6.19,5.74-2.54,5.74-6.19Z"/>
        <path class="cls-2" d="M413.77,22.83v-8.28h-3.12c-.33,0-.53-.21-.53-.53v-3.69c0-.33.21-.53.53-.53h3.12v-5.7c0-.33.21-.53.53-.53h4.26c.33,0,.53.21.53.53v5.7h5.04c.33,0,.53.21.53.53v3.69c0,.33-.21.53-.53.53h-5.04v8.61c0,2.29.74,3.44,2.38,3.44.7,0,1.19-.29,1.6-1.02.16-.29.41-.41.74-.25l3.2,1.43c.33.16.41.45.16.86-1.52,2.79-3.85,3.81-6.27,3.81-4.59,0-7.13-2.87-7.13-8.61Z"/>
        <path class="cls-2" d="M428.9,3.07c0-1.76,1.35-2.95,3.12-2.95s3.11,1.19,3.11,2.95-1.35,2.95-3.11,2.95-3.12-1.19-3.12-2.95ZM429.88,31.03c-.33,0-.53-.21-.53-.53V10.33c0-.33.21-.53.53-.53h4.26c.33,0,.53.21.53.53v20.16c0,.33-.21.53-.53.53h-4.26Z"/>
        <path class="cls-2" d="M438.2,20.41c0-6.43,4.43-11.02,11.23-11.02s11.23,4.59,11.23,11.02-4.43,11.02-11.23,11.02-11.23-4.59-11.23-11.02ZM455.17,20.41c0-3.65-2.34-6.19-5.74-6.19s-5.74,2.54-5.74,6.19,2.34,6.19,5.74,6.19,5.74-2.54,5.74-6.19Z"/>
        <path class="cls-2" d="M464.72,31.03c-.33,0-.53-.21-.53-.53V10.33c0-.33.21-.53.53-.53h3.85c.33,0,.57.16.57.53l.12,2.42c1.56-2.25,4.22-3.36,6.93-3.36,4.92,0,7.75,2.95,7.75,7.83v13.28c0,.33-.21.53-.53.53h-4.26c-.33,0-.53-.21-.53-.53v-11.11c0-3.52-1.27-5.16-4.06-5.16-2.58,0-5.04,1.93-5.04,5.98v10.29c0,.33-.21.53-.53.53h-4.26Z"/>
        <path class="cls-2" d="M486.93,25.78c-.12-.33.04-.57.37-.66l3.73-1.02c.29-.08.53.04.66.33.98,1.72,2.46,2.3,4.26,2.3s3.12-.37,3.12-1.56c0-.9-.9-1.39-3.16-2.05l-1.02-.29c-5.08-1.43-7.05-3.93-7.05-7.21,0-3.61,3.28-6.23,8.07-6.23,4.1,0,7.01,1.72,8.32,5.33.12.33,0,.57-.33.66l-3.73,1.19c-.33.12-.53,0-.7-.29-.74-1.31-1.84-2.17-3.65-2.17-1.39,0-2.5.41-2.5,1.52,0,.98.94,1.56,3.28,2.13l.98.25c5.21,1.31,6.97,3.52,6.97,7.05,0,3.89-3.53,6.39-8.4,6.39s-7.87-1.97-9.22-5.66Z"/>
      </g>
    </g>
  </g>
</svg>