<svg width="24" height="24" viewBox="0 0 24 24" fill="none" xmlns="http://www.w3.org/2000/svg">
<path d="M14.85 13.575H4.72502C4.29169 13.575 3.92086 13.4208 3.61252 13.1125C3.30419 12.8041 3.15002 12.4333 3.15002 12C3.15002 11.5666 3.30419 11.1958 3.61252 10.8875C3.92086 10.5791 4.29169 10.425 4.72502 10.425H14.85L12.925 8.49998C12.625 8.19998 12.475 7.83331 12.475 7.39998C12.475 6.96664 12.625 6.59998 12.925 6.29998C13.225 5.99998 13.5917 5.84998 14.025 5.84998C14.4584 5.84998 14.825 5.99998 15.125 6.29998L19.725 10.875C19.875 11.025 19.9917 11.2 20.075 11.4C20.1584 11.6 20.2 11.8 20.2 12C20.2 12.2 20.1584 12.4 20.075 12.6C19.9917 12.8 19.875 12.975 19.725 13.125L15.125 17.7C14.825 18 14.4584 18.15 14.025 18.15C13.5917 18.15 13.225 18 12.925 17.7C12.625 17.4 12.475 17.0333 12.475 16.6C12.475 16.1666 12.625 15.8 12.925 15.5L14.85 13.575Z" fill="white"/>
</svg>
