<?xml version="1.0" encoding="UTF-8"?>
<svg id="_레이어_2" data-name="레이어 2" xmlns="http://www.w3.org/2000/svg" viewBox="0 0 1257.96 50.08">
  <defs>
    <style>
      .cls-1 {
        fill: none;
      }

      .cls-2 {
        fill: #252829;
      }
    </style>
  </defs>
  <g id="_레이어_1-2" data-name="레이어 1">
    <g>
      <g>
        <path class="cls-2" d="M4.52,20.23h6.55v7.33c0,1.66-.09,3.47-.26,5.41-.17,1.94-.46,3.94-.86,5.98-.4,2.05-.98,4.02-1.74,5.93s-1.75,3.64-2.96,5.2c-.35-.42-.85-.93-1.51-1.53-.66-.61-1.33-1.19-2-1.74s-1.26-.95-1.74-1.2c1.39-1.8,2.39-3.77,3.02-5.9s1.03-4.27,1.22-6.42c.19-2.15.29-4.09.29-5.82v-7.23ZM4.06,5.98h42.28v5.93H4.06v-5.93ZM8.01,20.23h39.42v6.08H8.01v-6.08ZM11.54,13.83l5.46-2.34c.83,1.08,1.68,2.28,2.55,3.61.87,1.33,1.49,2.5,1.87,3.51l-5.82,2.6c-.31-1.04-.86-2.24-1.64-3.61s-1.59-2.63-2.42-3.77ZM19.71,1.92l6.45-1.56c.73.9,1.41,1.92,2.05,3.07.64,1.14,1.12,2.15,1.43,3.02l-6.71,1.92c-.24-.9-.68-1.96-1.3-3.17-.62-1.21-1.27-2.3-1.92-3.28ZM33.7,11.96l7.02,2.18c-1.11,1.53-2.18,3.02-3.2,4.5s-1.95,2.75-2.78,3.82l-4.99-1.98c.49-.83.98-1.73,1.48-2.7.5-.97.97-1.98,1.4-3.02s.79-1.98,1.07-2.81Z"/>
        <path class="cls-2" d="M54.39,25.9h19.92v23.24h-6.24v-17.26h-7.75v17.58h-5.93v-23.56ZM56.99,40.82h13.68v5.98h-13.68v-5.98ZM61.57,2.65h30.68v18.88h-30.68V2.65ZM67.6,8.63v6.97h18.3v-6.97h-18.3ZM78.68,25.9h20.59v23.3h-6.24v-17.32h-8.37v17.58h-5.98v-23.56ZM81.54,40.82h14.56v5.98h-14.56v-5.98Z"/>
        <path class="cls-2" d="M110.71,14.25l3.38,1.3c-.31,2.01-.7,4.1-1.17,6.27-.47,2.17-1.01,4.29-1.64,6.37s-1.3,4.02-2.03,5.82c-.73,1.8-1.49,3.35-2.29,4.63-.21-.62-.48-1.32-.81-2.08-.33-.76-.67-1.53-1.01-2.29s-.68-1.42-.99-1.98c.69-1.04,1.38-2.28,2.05-3.72s1.31-2.96,1.9-4.58c.59-1.61,1.11-3.26,1.56-4.94.45-1.68.8-3.28,1.04-4.81ZM104.73,9.98h15.91v5.77h-15.91v-5.77ZM110.86.57h5.67v48.83h-5.67V.57ZM116.27,17.16c.31.35.75.94,1.33,1.77.57.83,1.2,1.74,1.87,2.73s1.29,1.9,1.85,2.73c.55.83.94,1.46,1.14,1.87l-3.59,4.16c-.28-.73-.64-1.59-1.09-2.6-.45-1-.94-2.04-1.46-3.09-.52-1.06-1.03-2.06-1.53-3.02-.5-.95-.93-1.74-1.27-2.37l2.76-2.18ZM134.42,0l5.36,2.03c-1.42,2.6-3.11,5.14-5.07,7.62-1.96,2.48-4.06,4.78-6.29,6.92s-4.46,3.98-6.68,5.54c-.24-.42-.57-.94-.99-1.59s-.86-1.29-1.33-1.95c-.47-.66-.89-1.2-1.27-1.61,2.11-1.28,4.19-2.82,6.21-4.6,2.03-1.79,3.91-3.74,5.64-5.85,1.73-2.11,3.21-4.28,4.42-6.5ZM120.69,41.86h30.99v5.46h-30.99v-5.46ZM123.14,26.73l4.84-1.25c.42,1.28.82,2.67,1.22,4.16.4,1.49.76,2.95,1.09,4.37.33,1.42.58,2.69.75,3.8l-5.1,1.4c-.1-1.14-.3-2.43-.6-3.85-.29-1.42-.63-2.89-1.01-4.39-.38-1.51-.78-2.92-1.2-4.24ZM126.98,16.48h18.46v5.25h-18.46v-5.25ZM137.38,2.18c.9,1.14,1.98,2.33,3.22,3.56,1.25,1.23,2.61,2.44,4.08,3.64,1.47,1.2,2.99,2.3,4.55,3.3,1.56,1.01,3.07,1.85,4.52,2.55-.35.52-.71,1.14-1.09,1.87-.38.73-.73,1.46-1.04,2.21-.31.75-.57,1.4-.78,1.95-2.15-1.32-4.33-2.87-6.55-4.65-2.22-1.79-4.33-3.67-6.32-5.67-1.99-1.99-3.7-3.89-5.12-5.69l4.52-3.07ZM133.07,25.17l4.78-.62c.35,1.28.67,2.66.96,4.13.29,1.47.55,2.91.78,4.32s.39,2.66.49,3.77l-5.04.78c-.07-1.11-.21-2.38-.42-3.82s-.44-2.89-.7-4.37-.55-2.87-.86-4.19ZM145.6,24.49l5.41,1.2c-.8,2.08-1.67,4.24-2.63,6.47-.95,2.24-1.92,4.37-2.91,6.4-.99,2.03-1.93,3.82-2.83,5.38l-4.42-1.25c.66-1.21,1.33-2.57,2.03-4.08.69-1.51,1.38-3.08,2.05-4.73.68-1.65,1.29-3.28,1.85-4.89s1.04-3.11,1.46-4.5Z"/>
        <path class="cls-2" d="M156.21,19.5l3.54-4.52c.9.42,1.9.92,2.99,1.51,1.09.59,2.15,1.18,3.17,1.77,1.02.59,1.88,1.13,2.57,1.61l-3.74,4.99c-.59-.52-1.39-1.09-2.39-1.72-1.01-.62-2.05-1.27-3.12-1.92-1.07-.66-2.08-1.23-3.02-1.72ZM157.09,45.66c.66-1.35,1.38-2.95,2.16-4.78.78-1.84,1.57-3.79,2.37-5.85.8-2.06,1.52-4.1,2.18-6.11l5.04,3.22c-.55,1.87-1.18,3.77-1.87,5.69s-1.4,3.81-2.11,5.67c-.71,1.85-1.43,3.65-2.16,5.38l-5.62-3.22ZM158.18,5.56l3.69-4.52c.9.42,1.9.94,2.99,1.56s2.16,1.24,3.2,1.85c1.04.61,1.87,1.17,2.5,1.69l-3.8,5.04c-.59-.52-1.38-1.12-2.37-1.79-.99-.68-2.03-1.34-3.12-2-1.09-.66-2.12-1.26-3.09-1.82ZM177.42,10.66h4.52v19.97c0,1.73-.14,3.48-.42,5.25-.28,1.77-.79,3.49-1.53,5.17-.75,1.68-1.83,3.23-3.25,4.65-1.42,1.42-3.31,2.67-5.67,3.74-.14-.35-.37-.77-.7-1.27-.33-.5-.67-.99-1.01-1.46-.35-.47-.66-.82-.94-1.07,2.04-.94,3.67-1.97,4.89-3.09,1.21-1.13,2.11-2.34,2.7-3.64.59-1.3.97-2.66,1.14-4.08.17-1.42.26-2.84.26-4.26V10.66ZM170.61,3.33h18.56v33.9h-4.89V7.8h-9v29.74h-4.68V3.33ZM179.87,40.72l3.74-2.24c.8.8,1.62,1.69,2.47,2.68.85.99,1.65,1.95,2.39,2.89.75.94,1.34,1.77,1.79,2.5l-3.95,2.55c-.42-.76-.99-1.64-1.72-2.63-.73-.99-1.5-1.98-2.31-2.99-.82-1.01-1.62-1.92-2.42-2.76ZM191.62,5.36h4.73v32.08h-4.73V5.36ZM198.74,1.46h4.89v41.7c0,1.39-.16,2.48-.47,3.28-.31.8-.88,1.4-1.72,1.82-.8.42-1.85.69-3.15.83s-2.9.19-4.81.16c-.1-.69-.31-1.53-.62-2.52-.31-.99-.62-1.85-.94-2.57,1.25.04,2.42.05,3.51.05h2.26c.69,0,1.04-.35,1.04-1.04V1.46Z"/>
        <path class="cls-2" d="M208,26.99c1.59-.35,3.4-.75,5.41-1.2,2.01-.45,4.12-.94,6.34-1.48,2.22-.54,4.42-1.1,6.6-1.69l.78,6.08c-3.05.83-6.13,1.66-9.23,2.5-3.1.83-5.95,1.56-8.55,2.18l-1.35-6.4ZM215.28.57h6.34v41.86c0,1.59-.18,2.83-.55,3.72s-1.03,1.59-2,2.11c-.97.49-2.18.8-3.64.94-1.46.14-3.21.19-5.25.16-.14-.83-.39-1.82-.75-2.96-.36-1.14-.75-2.13-1.17-2.96,1.21.04,2.39.06,3.54.08,1.14.02,1.91.03,2.29.03.45-.03.76-.13.94-.29s.26-.44.26-.86V.57ZM208.68,10.5h17.94v6.03h-17.94v-6.03ZM228.07,2.44h22v5.77h-15.81v41.03h-6.19V2.44ZM232.54,20.59h18.51v5.56h-18.51v-5.56ZM249.5,20.59h1.2l1.09-.21,4,1.2c-.69,4.33-1.82,8.28-3.38,11.83-1.56,3.55-3.58,6.7-6.06,9.44-2.48,2.74-5.47,4.99-8.97,6.76-.49-.76-1.13-1.59-1.92-2.5-.8-.9-1.56-1.63-2.29-2.18,2.39-1.11,4.52-2.45,6.4-4.03,1.87-1.58,3.48-3.35,4.84-5.33,1.35-1.98,2.45-4.12,3.3-6.45.85-2.32,1.45-4.78,1.79-7.38v-1.14ZM239.67,23.92c1,2.98,2.33,5.78,3.98,8.4,1.65,2.62,3.63,4.93,5.95,6.94,2.32,2.01,4.94,3.61,7.85,4.78-.49.42-1,.94-1.53,1.56-.54.62-1.05,1.27-1.53,1.95-.49.68-.9,1.29-1.25,1.85-3.09-1.49-5.82-3.43-8.22-5.82s-4.47-5.14-6.24-8.24c-1.77-3.1-3.24-6.47-4.42-10.11l5.41-1.3ZM248.14,2.44h6.4c-.04,1.14-.07,1.91-.1,2.29-.1,3.67-.3,6.41-.6,8.22-.29,1.8-.75,3.05-1.38,3.74-.59.66-1.29,1.11-2.11,1.35-.81.24-1.71.42-2.68.52-.87.07-2.04.1-3.51.08-1.47-.02-3.01-.04-4.6-.08-.03-.76-.21-1.63-.52-2.6-.31-.97-.68-1.8-1.09-2.5,1,.07,1.97.13,2.89.18.92.05,1.74.09,2.47.1.73.02,1.28.03,1.66.03.49,0,.89-.03,1.22-.08.33-.05.6-.2.81-.44.28-.24.48-.74.6-1.48.12-.75.23-1.81.34-3.2.1-1.39.17-3.15.21-5.3v-.83Z"/>
        <path class="cls-2" d="M270.24.73l6.24,1.51c-.69,2.15-1.55,4.25-2.57,6.29-1.02,2.05-2.12,3.95-3.28,5.72-1.16,1.77-2.33,3.33-3.51,4.68-.42-.35-.98-.73-1.69-1.14s-1.43-.82-2.16-1.22c-.73-.4-1.35-.72-1.87-.96,1.91-1.73,3.63-3.94,5.17-6.63,1.54-2.69,2.76-5.43,3.67-8.24ZM261.77,19.03h46.02v5.77h-46.02v-5.77ZM267.75,28.55h35v20.9h-6.66v-15.18h-21.94v15.34h-6.4v-21.06ZM270.45,7.33h34.16v5.72h-34.16v-5.72ZM271.02,41.29h28.18v5.77h-28.18v-5.77ZM282.78.57h6.6v22h-6.6V.57Z"/>
        <path class="cls-2" d="M313.25,34.94h47.16v5.77h-47.16v-5.77ZM317.88,9.46h38.32v22.05h-38.32V9.46ZM321.98,3.22l5.41-2.44c.97,1.11,1.98,2.38,3.04,3.8,1.06,1.42,1.85,2.69,2.37,3.8l-5.72,2.7c-.45-1.04-1.17-2.31-2.16-3.82-.99-1.51-1.97-2.85-2.94-4.03ZM323.96,14.56v3.54h25.79v-3.54h-25.79ZM323.96,22.83v3.59h25.79v-3.59h-25.79ZM333.42,12.43h6.45v36.87h-6.45V12.43ZM346.22.99l6.97,2.03c-1.11,1.73-2.24,3.42-3.41,5.07-1.16,1.65-2.21,3.04-3.15,4.19l-5.56-1.87c.62-.87,1.26-1.85,1.9-2.94.64-1.09,1.25-2.2,1.82-3.33.57-1.13,1.05-2.17,1.43-3.15Z"/>
      </g>
      <rect class="cls-1" x="0" y=".29" width="1257.96" height="49.5"/>
    </g>
  </g>
</svg>