<svg xmlns="http://www.w3.org/2000/svg" width="255.84" height="49.504" viewBox="0 0 255.84 49.504">
  <g id="그룹_82" data-name="그룹 82" transform="translate(-10513.494 -474.136)">
    <g id="그룹_81" data-name="그룹 81">
      <g id="그룹_80" data-name="그룹 80">
        <g id="그룹_79" data-name="그룹 79">
          <path id="패스_183" data-name="패스 183" d="M10513.494,489.632h46.436v5.98h-46.436Zm4.315-10.4h38.376v5.98h-38.376Zm13.677-5.1,6.5.832q-.989,3.849-2.106,8.06t-2.313,8.346q-1.2,4.134-2.314,7.826t-2.054,6.552l-6.656-.052q1.091-3.015,2.262-6.89t2.393-8.112q1.22-4.238,2.313-8.476T10531.486,474.136Zm-7.8,39.988,3.328-4.68q3.016.676,6.5,1.69t6.969,2.21q3.482,1.2,6.552,2.444t5.3,2.392l-3.691,5.46a42.175,42.175,0,0,0-4.967-2.5q-2.991-1.3-6.422-2.6t-6.941-2.444Q10526.805,514.957,10523.686,514.124Zm3.849-14.144h25.063v5.772h-25.063Zm22.983,0h1.145l1.04-.364,4.784,2.808q-2.237,2.393-4.94,5.122t-5.538,5.538q-2.833,2.808-5.538,5.356l-5.616-3.276q2.6-2.391,5.383-5.07t5.252-5.2q2.468-2.521,4.029-4.238Z" fill="#252829"/>
          <path id="패스_184" data-name="패스 184" d="M10575.062,492.648l4.213,1.872q-.989,2.913-2.314,6.006t-2.886,6.084a62.286,62.286,0,0,1-3.3,5.616,31.367,31.367,0,0,1-3.614,4.55,13.932,13.932,0,0,0-.884-2.028q-.574-1.092-1.171-2.184t-1.117-1.924a34.234,34.234,0,0,0,3.3-3.744,52.488,52.488,0,0,0,3.12-4.55,54.136,54.136,0,0,0,2.678-4.914A43.832,43.832,0,0,0,10575.062,492.648Zm10.5-17.992,4.42,4.784a62.061,62.061,0,0,1-7.28,2.34q-4,1.041-8.19,1.82t-8.138,1.352a11.226,11.226,0,0,0-.728-2.522,21.375,21.375,0,0,0-1.093-2.366q2.808-.468,5.721-1.04t5.693-1.248q2.782-.675,5.227-1.456A38.594,38.594,0,0,0,10585.566,474.656Zm-20.385,15.288h24.908v5.772h-24.908Zm9.933-10.348h6.084v43.628h-6.084Zm5.2,18.3q.727.521,2.132,1.638t3.016,2.418q1.613,1.3,2.938,2.418t1.9,1.586l-3.588,5.408q-.832-1.092-2.08-2.47t-2.626-2.834q-1.378-1.455-2.678-2.73t-2.288-2.158Zm12.323-17.108h6.032v29.224h-6.032Zm12.324-5.356h6.188v40.248a10.514,10.514,0,0,1-.65,4.186,4.541,4.541,0,0,1-2.262,2.21,13.275,13.275,0,0,1-4.212.962q-2.6.234-6.188.234a11.746,11.746,0,0,0-.468-2.054q-.365-1.17-.806-2.34a18.4,18.4,0,0,0-.91-2.054q2.546.105,4.836.13t3.067.026a1.84,1.84,0,0,0,1.066-.338,1.275,1.275,0,0,0,.338-1.014Z" fill="#252829"/>
          <path id="패스_185" data-name="패스 185" d="M10627.583,478.712h6.551v8.06q0,3.069-.233,6.656a58.49,58.49,0,0,1-.988,7.436,45.99,45.99,0,0,1-2.236,7.7,40.086,40.086,0,0,1-3.874,7.514,34.2,34.2,0,0,1-6.032,6.89,13.481,13.481,0,0,0-1.273-1.924q-.807-1.041-1.716-2.028a19.022,19.022,0,0,0-1.586-1.56,28.433,28.433,0,0,0,6.136-7.306,34.671,34.671,0,0,0,3.432-8.164,45.723,45.723,0,0,0,1.482-8.112q.337-3.926.339-7.1Zm-8.269-1.664h27.871v6.344h-27.871Zm14.3,6.812a56.33,56.33,0,0,0,6.006,15.288,35.822,35.822,0,0,0,10.3,11.232,42.972,42.972,0,0,0,15.782,6.6,14.409,14.409,0,0,0-1.508,1.69q-.833,1.065-1.561,2.184t-1.2,2a46.69,46.69,0,0,1-12.817-5.278,37.251,37.251,0,0,1-9.334-8.112,46.388,46.388,0,0,1-6.578-10.868,83.053,83.053,0,0,1-4.5-13.494Zm22.359,5.564h1.145l1.2-.26,4.264,1.716a51.156,51.156,0,0,1-4.187,12.038,37.126,37.126,0,0,1-6.474,9.178,40.083,40.083,0,0,1-8.5,6.656,53.149,53.149,0,0,1-10.218,4.576,19.6,19.6,0,0,0-.962-1.872q-.6-1.041-1.3-2.028a10.35,10.35,0,0,0-1.378-1.612,41.946,41.946,0,0,0,9.23-3.718,34.649,34.649,0,0,0,7.722-5.772,33.588,33.588,0,0,0,5.851-7.852,37.378,37.378,0,0,0,3.613-9.906Zm-9.932-12.376h6.4q-.521,3.069-1.171,6.422t-1.325,6.422q-.677,3.069-1.3,5.46h-6.863q.727-2.443,1.508-5.59t1.508-6.422Q10645.522,480.064,10646.042,477.048Zm.728,12.376h10.5v5.928h-11.7Z" fill="#252829"/>
          <path id="패스_186" data-name="패스 186" d="M10668.922,490.516h12.324v5.98h-12.324Zm4.108-11.492,4.107-3.952q1.3,1.145,2.912,2.522t3.12,2.73a33.067,33.067,0,0,1,2.444,2.392l-4.316,4.472a33.93,33.93,0,0,0-2.313-2.522q-1.431-1.429-3.042-2.912T10673.03,479.024Zm3.744,43.368a6.983,6.983,0,0,0-.832-1.482q-.574-.807-1.2-1.612a9.765,9.765,0,0,0-1.145-1.274,11.28,11.28,0,0,0,2.028-2.21,5.919,5.919,0,0,0,1.092-3.614V490.516h6.032V515.58q-1.2.936-2.08,1.742t-1.794,1.716a12.23,12.23,0,0,0-1.508,1.794A2.9,2.9,0,0,0,10676.774,522.392Zm0,0-1.353-5.668,1.353-1.976,10.659-7.488a23.72,23.72,0,0,0,.807,2.834,21.365,21.365,0,0,0,1.014,2.522q-3.693,2.652-5.979,4.368t-3.614,2.756a22.651,22.651,0,0,0-1.924,1.638Q10677.137,521.975,10676.774,522.392Zm21.424-47.684h6.344q-.053,5.512-.234,11.05t-.884,10.842a59.224,59.224,0,0,1-2.235,10.14,38.567,38.567,0,0,1-4.187,9.022,29.76,29.76,0,0,1-6.812,7.462,14.1,14.1,0,0,0-2.106-2.548,16.453,16.453,0,0,0-2.626-2.132,25.1,25.1,0,0,0,6.4-6.6,30.826,30.826,0,0,0,3.744-8.112,53.21,53.21,0,0,0,1.847-9.152q.545-4.783.624-9.854T10698.2,474.708Zm5.928,14.716q.1,1.56.494,4.238a60.153,60.153,0,0,0,1.222,5.98,44.28,44.28,0,0,0,2.314,6.734,33.34,33.34,0,0,0,3.848,6.63,25.215,25.215,0,0,0,5.85,5.642,15.809,15.809,0,0,0-2.521,2.158,13.491,13.491,0,0,0-1.951,2.522,26.872,26.872,0,0,1-6.136-6.318,38.55,38.55,0,0,1-4.082-7.566,58.715,58.715,0,0,1-2.522-7.722,68.784,68.784,0,0,1-1.378-6.89q-.442-3.12-.7-4.94Z" fill="#252829"/>
          <path id="패스_187" data-name="패스 187" d="M10720.974,490.516h9.517v5.98h-9.517Zm2.133-11.44,4.056-3.8q1.4,1.145,3.016,2.548t3.068,2.808a30.452,30.452,0,0,1,2.392,2.548l-4.264,4.264a25.418,25.418,0,0,0-2.236-2.6q-1.4-1.455-2.989-2.99T10723.106,479.076Zm4.523,43.316a8.867,8.867,0,0,0-1.065-1.4q-.7-.78-1.456-1.508a11.26,11.26,0,0,0-1.274-1.092,12.659,12.659,0,0,0,1.43-1.612,10.208,10.208,0,0,0,1.3-2.314,7.8,7.8,0,0,0,.546-2.99V490.516h6.031v23.92q-1.091,1.2-1.924,2.132t-1.664,2a14.913,14.913,0,0,0-1.378,2.08A3.822,3.822,0,0,0,10727.63,522.392Zm0,0-1.56-5.824,1.092-2.028,10.14-8.684q.312.885.729,1.924t.884,2a13.476,13.476,0,0,0,.884,1.586q-3.587,3.069-5.824,5.018t-3.51,3.094q-1.274,1.143-1.9,1.794A8.569,8.569,0,0,0,10727.63,522.392Zm9.776-6.864h31.928v5.824h-31.928Zm1.352-37.8h29.536v5.824h-29.536Zm2.444,14.144h6.188V518.96h-6.187Zm11.18-12.48h6.4v39.1h-6.4Zm2.236,15.86h12.74v5.824h-12.74Z" fill="#252829"/>
        </g>
      </g>
    </g>
  </g>
</svg>
