<?xml version="1.0" encoding="UTF-8"?>
<svg id="_레이어_2" data-name="레이어 2" xmlns="http://www.w3.org/2000/svg" viewBox="0 0 1257.96 49.5">
  <defs>
    <style>
      .cls-1 {
        fill: none;
      }

      .cls-2 {
        fill: #252829;
      }
    </style>
  </defs>
  <g id="_레이어_1-2" data-name="레이어 1">
    <g>
      <g>
        <path class="cls-2" d="M0,15.5h46.44v5.98H0v-5.98ZM4.32,5.1h38.38v5.98H4.32v-5.98ZM17.99,0l6.5.83c-.66,2.57-1.36,5.25-2.11,8.06-.75,2.81-1.52,5.59-2.31,8.35-.8,2.76-1.57,5.36-2.31,7.83-.75,2.46-1.43,4.65-2.05,6.55l-6.66-.05c.73-2.01,1.48-4.31,2.26-6.89.78-2.58,1.58-5.29,2.39-8.11.81-2.82,1.59-5.65,2.31-8.48C16.74,5.26,17.4,2.57,17.99,0ZM10.19,39.99l3.33-4.68c2.01.45,4.18,1.01,6.5,1.69,2.32.68,4.64,1.41,6.97,2.21,2.32.8,4.51,1.61,6.55,2.44s3.81,1.63,5.3,2.39l-3.69,5.46c-1.32-.8-2.97-1.63-4.97-2.5-1.99-.87-4.13-1.73-6.42-2.6s-4.6-1.68-6.94-2.44c-2.34-.76-4.55-1.42-6.63-1.98ZM14.04,25.84h25.06v5.77H14.04v-5.77ZM37.02,25.84h1.14l1.04-.36,4.78,2.81c-1.49,1.6-3.14,3.3-4.94,5.12-1.8,1.82-3.65,3.67-5.54,5.54-1.89,1.87-3.74,3.66-5.54,5.36l-5.62-3.28c1.73-1.59,3.53-3.28,5.38-5.07,1.85-1.78,3.61-3.52,5.25-5.2,1.65-1.68,2.99-3.09,4.03-4.24v-.68Z"/>
        <path class="cls-2" d="M61.57,18.51l4.21,1.87c-.66,1.94-1.43,3.94-2.31,6.01-.88,2.06-1.85,4.09-2.89,6.08-1.04,1.99-2.14,3.87-3.3,5.62-1.16,1.75-2.37,3.27-3.61,4.55-.21-.62-.5-1.3-.88-2.03-.38-.73-.77-1.46-1.17-2.18s-.77-1.37-1.12-1.92c1.11-1.07,2.21-2.32,3.3-3.74,1.09-1.42,2.13-2.94,3.12-4.55.99-1.61,1.88-3.25,2.68-4.91.8-1.66,1.46-3.26,1.98-4.78ZM72.07.52l4.42,4.78c-2.18.87-4.61,1.65-7.28,2.34-2.67.69-5.4,1.3-8.19,1.82-2.79.52-5.5.97-8.14,1.35-.1-.73-.35-1.57-.73-2.52-.38-.95-.75-1.74-1.09-2.37,1.87-.31,3.78-.66,5.72-1.04,1.94-.38,3.84-.8,5.69-1.25,1.85-.45,3.6-.94,5.23-1.46,1.63-.52,3.08-1.07,4.37-1.66ZM51.69,15.81h24.91v5.77h-24.91v-5.77ZM61.62,5.46h6.08v43.63h-6.08V5.46ZM66.82,23.76c.49.35,1.2.89,2.13,1.64.94.75,1.94,1.55,3.02,2.42,1.07.87,2.05,1.67,2.94,2.42.88.75,1.52,1.27,1.9,1.59l-3.59,5.41c-.56-.73-1.25-1.55-2.08-2.47-.83-.92-1.71-1.86-2.63-2.83-.92-.97-1.81-1.88-2.68-2.73-.87-.85-1.63-1.57-2.29-2.16l3.28-3.28ZM79.14,6.66h6.03v29.22h-6.03V6.66ZM91.47,1.3h6.19v40.25c0,1.84-.22,3.23-.65,4.19-.43.95-1.19,1.69-2.26,2.21-1.07.48-2.48.81-4.21.96-1.73.16-3.8.23-6.19.23-.07-.59-.23-1.27-.47-2.05-.24-.78-.51-1.56-.81-2.34-.29-.78-.6-1.46-.91-2.05,1.7.07,3.31.11,4.84.13,1.53.02,2.55.03,3.07.03.49-.03.84-.15,1.07-.34.22-.19.34-.53.34-1.01V1.3Z"/>
        <path class="cls-2" d="M114.09,4.58h6.55v8.06c0,2.05-.08,4.26-.23,6.66-.16,2.39-.49,4.87-.99,7.44-.5,2.57-1.25,5.13-2.24,7.7-.99,2.57-2.28,5.07-3.87,7.51-1.59,2.44-3.61,4.74-6.03,6.89-.31-.59-.74-1.23-1.27-1.92-.54-.69-1.11-1.37-1.72-2.03-.61-.66-1.14-1.18-1.59-1.56,2.57-2.22,4.61-4.65,6.14-7.31s2.67-5.37,3.43-8.16c.76-2.79,1.26-5.49,1.48-8.11.23-2.62.34-4.98.34-7.1V4.58ZM105.82,2.91h27.87v6.34h-27.87V2.91ZM120.12,9.72c1.39,5.72,3.39,10.82,6.01,15.29s6.05,8.22,10.3,11.23c4.25,3.02,9.51,5.22,15.78,6.6-.45.42-.95.98-1.51,1.69-.55.71-1.08,1.44-1.56,2.18-.49.75-.88,1.41-1.2,2-4.92-1.28-9.2-3.04-12.82-5.28-3.62-2.24-6.73-4.94-9.33-8.11-2.6-3.17-4.79-6.79-6.58-10.87-1.79-4.07-3.28-8.57-4.5-13.49l5.41-1.25ZM142.48,15.29h1.14l1.2-.26,4.26,1.72c-1.01,4.51-2.4,8.52-4.19,12.04-1.79,3.52-3.94,6.58-6.47,9.18-2.53,2.6-5.37,4.82-8.5,6.66-3.14,1.84-6.54,3.36-10.22,4.58-.24-.56-.56-1.18-.96-1.87-.4-.69-.83-1.37-1.3-2.03-.47-.66-.93-1.2-1.38-1.61,3.29-.9,6.37-2.14,9.23-3.72,2.86-1.58,5.43-3.5,7.72-5.77s4.24-4.89,5.85-7.85c1.61-2.96,2.82-6.27,3.61-9.91v-1.14ZM132.55,2.91h6.4c-.35,2.05-.74,4.19-1.17,6.42-.43,2.24-.88,4.38-1.33,6.42-.45,2.05-.88,3.87-1.3,5.46h-6.86c.49-1.63.99-3.49,1.51-5.59.52-2.1,1.02-4.24,1.51-6.42.48-2.18.9-4.28,1.25-6.29ZM133.28,15.29h10.5v5.93h-11.7l1.2-5.93Z"/>
        <path class="cls-2" d="M155.43,16.38h12.32v5.98h-12.32v-5.98ZM159.54,4.89l4.11-3.95c.87.76,1.84,1.6,2.91,2.52,1.07.92,2.11,1.83,3.12,2.73,1,.9,1.82,1.7,2.44,2.39l-4.32,4.47c-.59-.73-1.36-1.57-2.31-2.52-.95-.95-1.97-1.92-3.04-2.91-1.08-.99-2.05-1.9-2.91-2.73ZM163.28,48.26c-.17-.45-.45-.95-.83-1.48-.38-.54-.78-1.08-1.2-1.61-.42-.54-.8-.96-1.14-1.27.62-.48,1.3-1.22,2.03-2.21.73-.99,1.09-2.19,1.09-3.61v-21.68h6.03v25.06c-.8.62-1.49,1.2-2.08,1.74-.59.54-1.19,1.11-1.79,1.72-.61.61-1.11,1.2-1.51,1.79-.4.59-.6,1.11-.6,1.56ZM163.28,48.26l-1.35-5.67,1.35-1.98,10.66-7.49c.17.83.44,1.78.81,2.83.36,1.06.7,1.9,1.01,2.52-2.46,1.77-4.46,3.22-5.98,4.37s-2.73,2.06-3.61,2.76c-.88.69-1.53,1.24-1.92,1.64-.4.4-.72.74-.96,1.01ZM184.7.57h6.34c-.04,3.67-.11,7.36-.23,11.05-.12,3.69-.42,7.31-.88,10.84-.47,3.54-1.21,6.92-2.24,10.14-1.02,3.22-2.42,6.23-4.19,9.02-1.77,2.79-4.04,5.28-6.81,7.46-.52-.83-1.22-1.68-2.11-2.55-.88-.87-1.76-1.58-2.63-2.13,2.63-1.91,4.77-4.11,6.4-6.6,1.63-2.5,2.88-5.2,3.74-8.11.87-2.91,1.48-5.96,1.85-9.15.36-3.19.57-6.47.62-9.85.05-3.38.1-6.75.13-10.11ZM190.63,15.29c.07,1.04.23,2.45.49,4.24.26,1.79.67,3.78,1.22,5.98.55,2.2,1.33,4.45,2.31,6.73.99,2.29,2.27,4.5,3.85,6.63,1.58,2.13,3.53,4.01,5.85,5.64-.87.59-1.71,1.31-2.52,2.16-.82.85-1.47,1.69-1.95,2.52-2.43-1.8-4.47-3.91-6.14-6.32-1.66-2.41-3.02-4.93-4.08-7.57-1.06-2.63-1.9-5.21-2.52-7.72-.62-2.51-1.08-4.81-1.38-6.89-.29-2.08-.53-3.73-.7-4.94l5.56-.47Z"/>
        <path class="cls-2" d="M207.48,16.38h9.52v5.98h-9.52v-5.98ZM209.61,4.94l4.06-3.8c.94.76,1.94,1.61,3.02,2.55,1.07.94,2.1,1.87,3.07,2.81s1.77,1.79,2.39,2.55l-4.26,4.26c-.56-.76-1.3-1.63-2.24-2.6-.94-.97-1.93-1.97-2.99-2.99-1.06-1.02-2.07-1.95-3.04-2.78ZM214.14,48.26c-.24-.42-.6-.88-1.07-1.4s-.95-1.02-1.46-1.51c-.5-.49-.93-.85-1.27-1.09.45-.42.93-.95,1.43-1.61.5-.66.94-1.43,1.3-2.31.36-.88.55-1.88.55-2.99v-20.96h6.03v23.92c-.73.8-1.37,1.51-1.92,2.13-.55.62-1.11,1.29-1.66,2-.55.71-1.01,1.4-1.38,2.08-.36.68-.55,1.26-.55,1.74ZM214.14,48.26l-1.56-5.82,1.09-2.03,10.14-8.68c.21.59.45,1.23.73,1.92.28.69.57,1.36.88,2,.31.64.61,1.17.88,1.59-2.39,2.05-4.33,3.72-5.82,5.02-1.49,1.3-2.66,2.33-3.51,3.09-.85.76-1.48,1.36-1.9,1.79-.42.43-.73.81-.94,1.12ZM223.91,41.39h31.93v5.82h-31.93v-5.82ZM225.26,3.59h29.54v5.82h-29.54V3.59ZM227.71,17.73h6.19v27.09h-6.19v-27.09ZM238.89,5.25h6.4v39.1h-6.4V5.25ZM241.12,21.11h12.74v5.82h-12.74v-5.82Z"/>
      </g>
      <rect class="cls-1" x="0" width="1257.96" height="49.5"/>
    </g>
  </g>
</svg>