<svg xmlns="http://www.w3.org/2000/svg" width="414.834" height="789.66" viewBox="0 0 414.834 789.66">
  <g id="그룹_1820" data-name="그룹 1820" transform="translate(14 -68.29)">
    <path id="주황" d="M400.635,800.06H14.2A14.2,14.2,0,0,1,0,785.86V121.667A14.2,14.2,0,0,1,8.41,108.7L204.9,20.921a14.2,14.2,0,0,1,11.743.071l189.941,87.66a14.2,14.2,0,0,1,8.25,12.893V785.86a14.2,14.2,0,0,1-14.2,14.2" transform="translate(-14 48.604)" fill="#ef8026"/>
    <path id="노랑" d="M414.834,802.554H0V124.161A14.2,14.2,0,0,1,8.41,111.2L204.9,23.415a14.2,14.2,0,0,1,11.743.071l189.941,87.66a14.2,14.2,0,0,1,8.25,12.893Z" transform="translate(-14 55.396)" fill="#fac213"/>
  </g>
</svg>
