<svg id="그룹_1489" data-name="그룹 1489" xmlns="http://www.w3.org/2000/svg" xmlns:xlink="http://www.w3.org/1999/xlink" width="153.5" height="241.56" viewBox="0 0 153.5 241.56">
  <defs>
    <clipPath id="clip-path">
      <rect id="사각형_2009" data-name="사각형 2009" width="153.5" height="241.56" fill="none"/>
    </clipPath>
  </defs>
  <g id="그룹_1488" data-name="그룹 1488" transform="translate(0 0)" clip-path="url(#clip-path)">
    <path id="패스_4628" data-name="패스 4628" d="M8.88,8.8a134.747,134.747,0,0,1,8.6,54.319c-.145,3.079,4.643,3.073,4.788,0A138.421,138.421,0,0,0,13.493,7.523C12.419,4.673,7.787,5.911,8.88,8.8" transform="translate(43.905 29.768)" fill="#34ac37"/>
    <path id="패스_4629" data-name="패스 4629" d="M15.82,4.8a266.433,266.433,0,0,1-4.758,51.819c-.58,3.007,4.033,4.3,4.619,1.274A273.879,273.879,0,0,0,20.608,4.8C20.59,1.72,15.8,1.713,15.82,4.8" transform="translate(55.478 12.53)" fill="#34ac37"/>
    <path id="패스_4630" data-name="패스 4630" d="M32.929,6.14A140.316,140.316,0,0,1,12.436,62.886C10.793,65.5,14.929,67.9,16.572,65.3A145.806,145.806,0,0,0,37.717,6.14c.392-3.049-4.4-3.019-4.788,0" transform="translate(60.746 19.468)" fill="#34ac37"/>
    <path id="패스_4631" data-name="패스 4631" d="M38.428,9.159Q25.965,29.936,13.509,50.713c-1.588,2.645,2.548,5.054,4.13,2.415Q30.1,32.351,42.558,11.574c1.588-2.645-2.548-5.054-4.13-2.415" transform="translate(66.261 40.39)" fill="#34ac37"/>
    <path id="패스_4632" data-name="패스 4632" d="M24.265,13.96a4.538,4.538,0,0,1-.809-3.267,5.3,5.3,0,0,1,.4-1.5,4.116,4.116,0,0,1,.471-.8.4.4,0,0,1,.211-.248c.314-.29.29-.3-.066-.024H23.2c-.688-.139-.284-.477-.242.03a2.416,2.416,0,0,1,.115.29A2.95,2.95,0,0,1,23.227,9.8a3.224,3.224,0,0,1-1.02,2.029c1.123,1.129,2.258,2.258,3.387,3.387a7.285,7.285,0,0,1,2.977-2.089,7.034,7.034,0,0,1,1.395-.242c-.03.006.242.03.217.072-.03.06-.229-.417-.175-.392.368.145-1.057,1.129-1.407,1.238-1.516.465-3.11.531-4.6,1.129a2.436,2.436,0,0,0-1.057,4c.8.906,1.8,1.974,1.9,3.242a1.339,1.339,0,0,1-.332,1.093,1.308,1.308,0,0,1-.35.042c-2.663-.447-1.9-4.438-1.528-6.37a2.422,2.422,0,0,0-1.383-2.826,2.373,2.373,0,0,0-2.989.978,4.686,4.686,0,0,1-6.092,2.276c-.157-.072-.712-.411-.628-.35-.157-.121-.314-.4-.483-.465-.326-.133.085-.193-.1-.006a.5.5,0,0,1-.121.477c-.2.356-.205.435-.036.235-.121.006.676-.356.386-.223a6.825,6.825,0,0,1,1.069-.3,8.214,8.214,0,0,1,5.791.93c2.693,1.516,5.012-2.482,2.415-4.13a12.692,12.692,0,0,1-2.427-2A10.523,10.523,0,0,1,17,10.259a9.7,9.7,0,0,0-.634-1.045c-.03-.151-.048-.187-.054-.1-.03.38-.35.58-.942.592-1.455.845-1.026.235-.64.863.254.435.6.821.851,1.262a10.677,10.677,0,0,1,1.2,3.236c.646,3.007,5.259,1.733,4.607-1.274a14.83,14.83,0,0,0-2.844-6.062c-1.51-1.938-4.631-3.3-6.358-.767-1.353,1.968-.35,4.275.9,6.014a17.65,17.65,0,0,0,4.957,4.692l2.415-4.13A13.1,13.1,0,0,0,9.9,12.433a5.157,5.157,0,0,0-3.593,3.333A4.768,4.768,0,0,0,8.15,20.4c4.257,3.641,11.877,2.409,14.238-2.892-1.455-.616-2.916-1.226-4.372-1.842-.543,2.88-1.014,5.984.374,8.707A6.9,6.9,0,0,0,24.368,28.1a5.453,5.453,0,0,0,5.2-5.1c.326-2.941-1.395-5.362-3.236-7.451q-.525,2-1.063,4c2.307-.93,4.927-.743,6.986-2.288,1.866-1.407,3.11-3.84,2.24-6.153-.954-2.53-3.659-3.291-6.111-2.874a11.254,11.254,0,0,0-6.177,3.593c-2.065,2.276,1.153,5.531,3.387,3.387a8.067,8.067,0,0,0,2.294-7.137c-.417-2.566-2.705-5.929-5.67-4.19-2.18,1.274-3.273,4.1-3.52,6.491a9.547,9.547,0,0,0,2.18,6.968,2.416,2.416,0,0,0,3.387,0,2.457,2.457,0,0,0,0-3.387" transform="translate(31.243 17.178)" fill="#fff"/>
    <path id="패스_4633" data-name="패스 4633" d="M27.985,10.551a4.567,4.567,0,0,1-.809-3.267,5.512,5.512,0,0,1,.4-1.5,4.143,4.143,0,0,1,.477-.8.377.377,0,0,1,.205-.248c.314-.29.3-.3-.06-.024H26.929c-.694-.139-.29-.477-.248.03a2.416,2.416,0,0,1,.115.29,2.95,2.95,0,0,1,.151,1.359A3.216,3.216,0,0,1,25.932,8.42q1.685,1.694,3.381,3.387a7.325,7.325,0,0,1,2.977-2.089,7.11,7.11,0,0,1,1.395-.242c-.03.006.242.03.217.072-.03.06-.229-.417-.175-.392.368.145-1.057,1.129-1.4,1.238-1.522.465-3.116.531-4.6,1.129a2.433,2.433,0,0,0-1.057,4c.8.906,1.793,1.974,1.89,3.242a1.319,1.319,0,0,1-.332,1.093,1.308,1.308,0,0,1-.35.042c-2.663-.447-1.89-4.438-1.522-6.37a2.42,2.42,0,0,0-1.389-2.826,2.375,2.375,0,0,0-2.989.978,4.686,4.686,0,0,1-6.092,2.276c-.157-.072-.706-.411-.622-.35-.163-.121-.32-.4-.489-.465-.326-.133.085-.193-.1-.006a.5.5,0,0,1-.121.477c-.2.356-.205.435-.036.235-.121.006.676-.356.386-.223a6.825,6.825,0,0,1,1.069-.3,8.214,8.214,0,0,1,5.791.93c2.7,1.516,5.012-2.482,2.415-4.13a12.654,12.654,0,0,1-2.421-2,10.024,10.024,0,0,1-1.039-1.28,9.7,9.7,0,0,0-.634-1.045c-.03-.151-.048-.187-.054-.1-.03.38-.35.58-.942.592-1.449.845-1.02.235-.64.863.254.435.6.821.851,1.262a10.677,10.677,0,0,1,1.2,3.236c.646,3.007,5.259,1.733,4.613-1.274a14.919,14.919,0,0,0-2.85-6.062c-1.516-1.938-4.625-3.3-6.358-.767-1.353,1.968-.344,4.275.9,6.014a17.731,17.731,0,0,0,4.957,4.692l2.415-4.13A13.1,13.1,0,0,0,13.621,9.024a5.169,5.169,0,0,0-3.593,3.333,4.76,4.76,0,0,0,1.848,4.637C16.133,20.635,23.753,19.4,26.114,14.1c-1.461-.616-2.916-1.226-4.372-1.842-.549,2.88-1.02,5.984.374,8.707a6.883,6.883,0,0,0,5.972,3.726,5.458,5.458,0,0,0,5.2-5.1c.326-2.941-1.395-5.362-3.242-7.451q-.525,2-1.057,4c2.3-.93,4.921-.743,6.974-2.288,1.872-1.407,3.116-3.84,2.252-6.153-.954-2.53-3.665-3.291-6.117-2.874A11.238,11.238,0,0,0,25.932,8.42c-2.071,2.276,1.147,5.531,3.381,3.387A8.051,8.051,0,0,0,31.608,4.67c-.417-2.566-2.7-5.929-5.67-4.19-2.18,1.274-3.273,4.1-3.52,6.491a9.547,9.547,0,0,0,2.18,6.968,2.416,2.416,0,0,0,3.387,0,2.451,2.451,0,0,0,0-3.387" transform="translate(49.985 0.003)" fill="#fff"/>
    <path id="패스_4634" data-name="패스 4634" d="M32.14,12.14a4.567,4.567,0,0,1-.809-3.267,5.512,5.512,0,0,1,.4-1.5,4.143,4.143,0,0,1,.477-.8.377.377,0,0,1,.205-.248c.314-.29.3-.3-.06-.024H31.084c-.694-.139-.29-.477-.248.03a2.415,2.415,0,0,1,.115.29A2.95,2.95,0,0,1,31.1,7.98a3.216,3.216,0,0,1-1.014,2.029Q31.772,11.7,33.469,13.4a7.325,7.325,0,0,1,2.977-2.089,7.11,7.11,0,0,1,1.395-.242c-.03.006.242.03.217.072-.03.06-.229-.417-.175-.392.368.145-1.057,1.129-1.4,1.238-1.522.465-3.116.531-4.6,1.129a2.433,2.433,0,0,0-1.057,4c.8.906,1.793,1.974,1.89,3.242a1.319,1.319,0,0,1-.332,1.093,1.308,1.308,0,0,1-.35.042c-2.663-.447-1.89-4.438-1.522-6.37A2.42,2.42,0,0,0,29.121,12.3a2.366,2.366,0,0,0-2.983.978,4.7,4.7,0,0,1-6.1,2.276c-.157-.072-.706-.411-.622-.35-.163-.121-.32-.4-.489-.465-.326-.133.085-.193-.1-.006a.5.5,0,0,1-.121.477c-.2.356-.205.435-.036.235-.121.006.676-.356.386-.223a6.825,6.825,0,0,1,1.069-.3,8.214,8.214,0,0,1,5.791.93c2.7,1.516,5.012-2.482,2.415-4.13a12.654,12.654,0,0,1-2.421-2,10.024,10.024,0,0,1-1.039-1.28,9.7,9.7,0,0,0-.634-1.045c-.03-.151-.048-.187-.054-.1-.03.38-.35.58-.942.592-1.449.845-1.02.235-.64.863.254.435.6.821.851,1.262a10.677,10.677,0,0,1,1.2,3.236c.646,3.007,5.259,1.733,4.613-1.274a14.919,14.919,0,0,0-2.85-6.062c-1.51-1.938-4.625-3.3-6.358-.767-1.353,1.968-.344,4.275.9,6.014a17.731,17.731,0,0,0,4.957,4.692c.8-1.377,1.612-2.753,2.415-4.13a13.1,13.1,0,0,0-10.561-1.111,5.169,5.169,0,0,0-3.593,3.333,4.76,4.76,0,0,0,1.848,4.637c4.257,3.641,11.877,2.409,14.238-2.892-1.461-.616-2.916-1.226-4.372-1.842-.549,2.88-1.02,5.984.374,8.707a6.883,6.883,0,0,0,5.972,3.726,5.458,5.458,0,0,0,5.2-5.1c.326-2.941-1.395-5.362-3.242-7.451l-1.057,4c2.3-.93,4.921-.743,6.98-2.288,1.866-1.407,3.11-3.84,2.246-6.153C41.421,6.76,38.71,6,36.258,6.416a11.238,11.238,0,0,0-6.171,3.593c-2.071,2.276,1.147,5.531,3.381,3.387a8.051,8.051,0,0,0,2.294-7.137c-.417-2.566-2.7-5.929-5.67-4.19-2.18,1.274-3.273,4.1-3.52,6.491a9.547,9.547,0,0,0,2.18,6.968,2.416,2.416,0,0,0,3.387,0,2.451,2.451,0,0,0,0-3.387" transform="translate(70.918 8.009)" fill="#fff"/>
    <path id="패스_4635" data-name="패스 4635" d="M33.82,15.583a4.56,4.56,0,0,1-.809-3.267,5.511,5.511,0,0,1,.4-1.5,4.443,4.443,0,0,1,.471-.8.4.4,0,0,1,.211-.248c.314-.29.3-.3-.06-.024H32.764c-.694-.139-.29-.477-.248.03a2.416,2.416,0,0,1,.115.29,2.95,2.95,0,0,1,.151,1.359,3.216,3.216,0,0,1-1.014,2.029q1.685,1.694,3.381,3.387a7.325,7.325,0,0,1,2.977-2.089,7.587,7.587,0,0,1,1.395-.242c-.03.012.242.03.217.072-.03.066-.229-.417-.175-.392.368.145-1.057,1.129-1.4,1.238-1.522.465-3.116.531-4.6,1.129a2.434,2.434,0,0,0-1.057,4c.8.906,1.793,1.974,1.89,3.242a1.319,1.319,0,0,1-.332,1.093,1.308,1.308,0,0,1-.35.042c-2.663-.447-1.89-4.438-1.522-6.37A2.42,2.42,0,0,0,30.8,15.74a2.375,2.375,0,0,0-2.989.978,4.686,4.686,0,0,1-6.092,2.276c-.157-.072-.706-.4-.628-.35-.157-.121-.314-.392-.483-.465-.326-.133.085-.193-.1-.006a.492.492,0,0,1-.121.477c-.2.356-.205.441-.036.235-.121.006.676-.356.386-.223a7.553,7.553,0,0,1,1.069-.3A8.217,8.217,0,0,1,27.6,19.3c2.7,1.51,5.012-2.488,2.415-4.136a12.654,12.654,0,0,1-2.421-2,9.622,9.622,0,0,1-1.039-1.28,11.084,11.084,0,0,0-.634-1.045c-.03-.151-.048-.187-.054-.091-.03.38-.35.574-.942.586-1.449.845-1.02.235-.64.863.254.441.6.821.851,1.262a10.677,10.677,0,0,1,1.2,3.236c.646,3.007,5.259,1.733,4.613-1.274A14.859,14.859,0,0,0,28.1,9.364c-1.516-1.944-4.625-3.3-6.358-.773-1.353,1.968-.344,4.275.9,6.014A17.752,17.752,0,0,0,27.6,19.3c.8-1.383,1.612-2.759,2.415-4.136a13.074,13.074,0,0,0-10.561-1.1,5.148,5.148,0,0,0-3.593,3.327,4.755,4.755,0,0,0,1.848,4.637c4.257,3.641,11.877,2.409,14.238-2.892-1.461-.616-2.916-1.226-4.372-1.842-.549,2.88-1.02,5.984.374,8.707a6.883,6.883,0,0,0,5.972,3.726,5.458,5.458,0,0,0,5.2-5.1c.326-2.941-1.395-5.362-3.242-7.451-.35,1.334-.7,2.675-1.057,4,2.3-.93,4.921-.743,6.974-2.288,1.872-1.407,3.116-3.84,2.252-6.153C43.1,10.2,40.39,9.448,37.938,9.859a11.274,11.274,0,0,0-6.171,3.593c-2.071,2.276,1.147,5.531,3.381,3.387A8.051,8.051,0,0,0,37.443,9.7c-.417-2.56-2.7-5.929-5.67-4.19-2.18,1.274-3.273,4.106-3.52,6.5a9.54,9.54,0,0,0,2.18,6.962,2.416,2.416,0,0,0,3.387,0,2.451,2.451,0,0,0,0-3.387" transform="translate(79.382 25.355)" fill="#fff"/>
    <path id="패스_4636" data-name="패스 4636" d="M61.087,10.986c9.16.417,51.324-.217,50.889,5.44-.223,4.184-7.439,13.163-1.8,15.693,49.3,18.9-.972,90.674-10.826,138.846-.26,1.268-2.578,1.214-2.627,2.433-2.771,12.5-43.335,12.01-61.009,2.464a2.892,2.892,0,0,1-1.395-2.2c-1.063-7.819-5.35-14.383-14.872-38.149C14.123,122.075-3.074,78.438,3.164,57.377,6.509,46.085,10.711,38.145,22.25,33.387c2.282-1.051,5.41-1.2,7.179-3.1,1.256-1.443.61-3.309-.145-4.782a45.009,45.009,0,0,1-2.79-11.321c-.048-1.292,1.22-1.636,2.264-1.974,8.677-2.989,22.812,1.1,32.068-1.2Z" transform="translate(9.166 55.349)" fill="#e2e1e1" fill-rule="evenodd"/>
    <path id="패스_4637" data-name="패스 4637" d="M7.275,41.331c3.279,5.338,9.045,7.747,14.908,9.19a77.037,77.037,0,0,0,18.8,2.2c11.267-.085,23.76-2.639,31.809-11.122,2.119-2.234-1.262-5.628-3.387-3.387-6.956,7.342-17.746,9.51-27.479,9.709A71.432,71.432,0,0,1,25.7,46.409c-5.253-1.1-11.291-2.614-14.292-7.493C9.8,36.3,5.657,38.7,7.275,41.331" transform="translate(34.798 188.835)" fill="#231815"/>
    <path id="패스_4638" data-name="패스 4638" d="M24.283,16.5a68.723,68.723,0,0,0-11.074.9,19.168,19.168,0,0,0-9.9,4.74A10.816,10.816,0,0,0,1.64,35.619c2.409,3.713,6.092,5.821,10.144,7.33a54.1,54.1,0,0,0,9.951,2.313,8.225,8.225,0,0,0,5.821-.761,7.553,7.553,0,0,0,2.705-10.331A7.359,7.359,0,0,0,25.75,30.7a50.331,50.331,0,0,1-10.736-2.621l1.8.761a14.775,14.775,0,0,1-3.073-1.721c.507.392,1.02.785,1.528,1.183a8.894,8.894,0,0,1-1.528-1.485c.392.513.791,1.02,1.183,1.528a5.434,5.434,0,0,1-.634-1.063c.254.6.507,1.2.761,1.8a3.9,3.9,0,0,1-.242-.912c.085.67.175,1.34.266,2.011a3.747,3.747,0,0,1,.012-.737c-.091.67-.175,1.334-.266,2a3.36,3.36,0,0,1,.205-.719c-.254.6-.507,1.2-.761,1.805a4.558,4.558,0,0,1,.5-.8c-.392.507-.785,1.014-1.183,1.528a6.169,6.169,0,0,1,.9-.876c-.513.392-1.02.785-1.528,1.183a10.664,10.664,0,0,1,2.313-1.31l-1.805.761a20.758,20.758,0,0,1,4.975-1.262l-2.011.272a68.386,68.386,0,0,1,7.862-.441,7.871,7.871,0,0,0,5.338-2.21A7.549,7.549,0,0,0,24.283,16.5" transform="translate(0.002 83.103)" fill="#e2e1e1"/>
    <path id="패스_4639" data-name="패스 4639" d="M28.215,32.269c1.582.145,3.158.3,4.734.513l-2.011-.272a28.071,28.071,0,0,1,7.022,1.733c-.6-.254-1.208-.507-1.805-.761a12.668,12.668,0,0,1,2.705,1.552c-.507-.392-1.02-.785-1.528-1.177a7.273,7.273,0,0,1,1.1,1.093c-.392-.507-.791-1.014-1.183-1.528a4.682,4.682,0,0,1,.5.857c-.254-.6-.507-1.2-.761-1.805a3.465,3.465,0,0,1,.205.731l-.272-2.011a3.342,3.342,0,0,1,.006.737c.091-.664.181-1.334.272-2a3.93,3.93,0,0,1-.26.9l.761-1.805a5.457,5.457,0,0,1-.519.863c.392-.513.785-1.02,1.177-1.528a7.985,7.985,0,0,1-1.292,1.262c.507-.392,1.014-.791,1.528-1.183a12.971,12.971,0,0,1-2.5,1.425l1.8-.761a29.07,29.07,0,0,1-7.33,1.763c.67-.085,1.34-.175,2.011-.266-1.624.211-3.255.362-4.885.513a8.114,8.114,0,0,0-5.338,2.21,7.67,7.67,0,0,0-2.21,5.338A7.59,7.59,0,0,0,22.358,44a7.358,7.358,0,0,0,5.338,2.21c7.137-.652,15.319-1.226,20.765-6.527,3.6-3.5,4.794-9.13,2.059-13.537-2.264-3.653-6.165-5.778-10.156-7.046-3.9-1.238-8.1-1.54-12.149-1.92a7.581,7.581,0,0,0-5.338,2.21,7.551,7.551,0,0,0,0,10.675,8.518,8.518,0,0,0,5.338,2.21" transform="translate(101.483 86.44)" fill="#e2e1e1"/>
    <path id="패스_4640" data-name="패스 4640" d="M10.349,21.2a423.934,423.934,0,0,0,71.328,2.2c4.83-.26,4.861-7.807,0-7.548a423.934,423.934,0,0,1-71.328-2.2c-4.818-.556-4.776,7,0,7.548" transform="translate(34.013 68.62)" fill="#b9cbde"/>
    <path id="패스_4641" data-name="패스 4641" d="M20.279,15.586q-7.454,7.336-14.9,14.673A3.774,3.774,0,0,0,10.715,35.6l14.9-14.673a3.774,3.774,0,0,0-5.338-5.338" transform="translate(21.613 73.102)" fill="#b9cbde"/>
    <path id="패스_4642" data-name="패스 4642" d="M17.206,15.827A66.406,66.406,0,0,0,7.9,30.506a4.117,4.117,0,0,0-.38,2.9,3.855,3.855,0,0,0,1.739,2.258c1.654.876,4.287.562,5.157-1.353a63.39,63.39,0,0,1,3.834-7.143c.694-1.129,1.437-2.234,2.216-3.315.193-.272.386-.537.592-.809.1-.133.193-.266.3-.4.066-.091.423-.549.085-.115s.018-.024.085-.109c.1-.133.2-.26.314-.392q.344-.435.706-.869a4.1,4.1,0,0,0,1.1-2.669,3.875,3.875,0,0,0-1.1-2.669c-1.389-1.274-4-1.624-5.338,0" transform="translate(37.264 74.243)" fill="#b9cbde"/>
    <path id="패스_4643" data-name="패스 4643" d="M5.5,24.263a404.422,404.422,0,0,0,60.876,7.952c17.794.936,37.189,2.192,53.316-6.708,4.257-2.349.453-8.87-3.81-6.521-15.349,8.471-34.792,6.551-51.662,5.561a391.793,391.793,0,0,1-56.716-7.56c-4.74-.984-6.763,6.292-2,7.276" transform="translate(14.043 85.123)" fill="#b9cbde"/>
    <path id="패스_4644" data-name="패스 4644" d="M13.737,17.263a59.977,59.977,0,0,0-3.393,15,3.8,3.8,0,0,0,1.1,2.669,3.837,3.837,0,0,0,2.669,1.1,3.881,3.881,0,0,0,3.774-3.774c.036-.35.072-.694.115-1.045.03-.26.036-1.081-.006-.036a15.256,15.256,0,0,1,.278-1.811c.193-1.117.423-2.234.682-3.339a56.284,56.284,0,0,1,2.053-6.763,3.791,3.791,0,0,0-2.633-4.643,3.881,3.881,0,0,0-4.643,2.639" transform="translate(52.066 73.121)" fill="#b9cbde"/>
    <path id="패스_4645" data-name="패스 4645" d="M12.156,19.5q1.866,8.269,3.738,16.544a3.806,3.806,0,0,0,4.643,2.639,3.86,3.86,0,0,0,2.639-4.643Q21.3,25.775,19.432,17.5a3.8,3.8,0,0,0-4.637-2.639A3.86,3.86,0,0,0,12.156,19.5" transform="translate(60.705 74.123)" fill="#b9cbde"/>
    <path id="패스_4646" data-name="패스 4646" d="M13.713,19.7a159.432,159.432,0,0,0,8.586,17.7,3.807,3.807,0,0,0,5.163,1.353A3.846,3.846,0,0,0,28.815,33.6Q26.55,29.6,24.522,25.47q-.978-1.993-1.9-4.015c-.3-.676-.6-1.353-.9-2.029-.169-.392-.344-.773-.5-1.165.338.839-.175-.417-.235-.562a4.148,4.148,0,0,0-1.733-2.258,3.873,3.873,0,0,0-2.9-.38c-1.751.568-3.448,2.693-2.639,4.643" transform="translate(68.043 75.197)" fill="#b9cbde"/>
    <path id="패스_4647" data-name="패스 4647" d="M15.8,20.662a119.042,119.042,0,0,0,8.2,13.6A4.046,4.046,0,0,0,26.259,36a3.814,3.814,0,0,0,2.9-.38c1.606-1.033,2.566-3.43,1.359-5.163a118.225,118.225,0,0,1-8.206-13.6A3.8,3.8,0,0,0,17.154,15.5,3.863,3.863,0,0,0,15.8,20.662" transform="translate(77.204 75.507)" fill="#b9cbde"/>
    <path id="패스_4648" data-name="패스 4648" d="M18.1,21.483q6.6,7.228,13.785,13.906c1.624,1.51,4.861,1.54,5.929-.767l.713-1.546a4.081,4.081,0,0,0,.38-2.9,3.869,3.869,0,0,0-1.733-2.258c-1.667-.876-4.281-.555-5.163,1.359-.242.513-.477,1.026-.719,1.54l5.929-.761q-7.173-6.666-13.785-13.906a3.8,3.8,0,0,0-5.338,0,3.855,3.855,0,0,0,0,5.338" transform="translate(85.79 75.833)" fill="#b9cbde"/>
    <path id="패스_4649" data-name="패스 4649" d="M19.976,21.021A114.774,114.774,0,0,1,32.4,33.948a3.8,3.8,0,0,0,2.669,1.1,3.773,3.773,0,0,0,3.774-3.774,4.3,4.3,0,0,0-1.1-2.669A114.77,114.77,0,0,0,25.313,15.683a3.774,3.774,0,0,0-5.338,5.338" transform="translate(95.165 73.572)" fill="#b9cbde"/>
    <path id="패스_4650" data-name="패스 4650" d="M28.3,14.3C19.448,17.594,10.608,21.03,3.338,27.231a3.787,3.787,0,0,0,0,5.338,3.865,3.865,0,0,0,5.332,0c.4-.344.815-.688,1.232-1.014-.344.272.7-.519.821-.6.857-.616,1.745-1.2,2.645-1.751a59.5,59.5,0,0,1,5.6-3.025c2.107-1,3.345-1.516,5.35-2.313,1.987-.791,3.991-1.534,5.984-2.282a3.852,3.852,0,0,0,2.645-4.637c-.586-1.811-2.663-3.375-4.643-2.639" transform="translate(11.274 71.123)" fill="#b9cbde"/>
    <path id="패스_4651" data-name="패스 4651" d="M2.3,22.732c5.7,8.1,17.335,9.709,26.429,11.412,12.432,2.325,25.088,3.152,37.714,3.5,22.607.628,46.747,1.183,66.721-11.032,4.136-2.536.35-9.063-3.81-6.521C111.844,30.8,90.922,30.611,71.062,30.207a297.337,297.337,0,0,1-31.1-1.9,145,145,0,0,1-17.082-3.134C18.229,24.012,11.762,23.1,8.816,18.922c-2.771-3.943-9.323-.175-6.515,3.81" transform="translate(8.139 86.92)" fill="#b9cbde"/>
    <path id="패스_4652" data-name="패스 4652" d="M38.057,35.909a11.281,11.281,0,0,1,4.287-5.978h-3.81c.1.054.205.109.308.157l-1.353-1.353q-.054-2.31-.272-1.087c-.078.344-.163.694-.242,1.039-.163.688-.326,1.383-.489,2.071q-.48,2.074-.972,4.154c-.694,2.983,2.675,6.213,5.543,4.257a44.841,44.841,0,0,1,5.217-3.085c.712-.356,1.437-.694,2.174-1a7,7,0,0,0,1.485-.556c.7-.555-.278,1.534-1.328-.924-.175-.634-.344-1.268-.513-1.9.556-.948.556-1.093-.006-.447-.242.145-.471.3-.7.453-.712.447-1.443.863-2.2,1.238a19.675,19.675,0,0,1-4.432,1.5c-3.176.712-6.461.4-9.679.133-6.3-.537-15.083-1.135-19.056,4.957-1.606,2.47.519,5.634,3.261,5.682q6.141.109,12.288-.042c4.849-.121,4.873-7.626,0-7.548a57.094,57.094,0,0,0-14.63,2.137c-3.52,1-3.665,6.346,0,7.276,1.89.477,3.78.96,5.67,1.437A22.119,22.119,0,0,0,23.9,49.549c4.112-.018,6.261-4.426,8.423-7.306,1.226-1.63.266-4.221-1.353-5.163-1.932-1.129-3.931-.284-5.163,1.353q-1.1,1.458-2.2,2.922l-.543.725c-.344.386-.024.38.96-.024-.018.048-1.528-.374-1.642-.4l-7.439-1.884v7.276a48.859,48.859,0,0,1,12.626-1.866V37.63q-6.141.154-12.288.042l3.255,5.676c.876-1.34,4.233-1.5,5.646-1.558a61.551,61.551,0,0,1,7.53.392c5.609.465,10.935.1,16.146-2.2a16.818,16.818,0,0,0,6.3-4.221c2.15-2.614,1.95-6.594-1.262-8.284-2.645-1.389-5.489-.109-7.982.96a45.241,45.241,0,0,0-7.662,4.215q2.771,2.128,5.543,4.263c.562-2.421,1.183-4.83,1.7-7.264.5-2.361.266-5.018-2.15-6.237a3.8,3.8,0,0,0-3.81,0A19.621,19.621,0,0,0,30.781,33.9c-1.443,4.649,5.845,6.636,7.276,2" transform="translate(51.609 115.381)" fill="#b9cbde"/>
    <path id="패스_4653" data-name="패스 4653" d="M17.742,26.671c-.646.459-1.292.912-1.932,1.371a3.771,3.771,0,0,0-1.353,1.353A2.812,2.812,0,0,0,14,30.8a2.834,2.834,0,0,0,.072,1.5,3.749,3.749,0,0,0,.966,1.667l.091.085c.133.115.3.242.417.326s.272.217.417.32l.1.054a9.091,9.091,0,0,0,1,.429,3.714,3.714,0,0,0,.706.109,2.963,2.963,0,0,0,.737.072,6.841,6.841,0,0,0,1.208-.169,6.418,6.418,0,0,0,1.111-.459,1.4,1.4,0,0,0,.187-.115,5.548,5.548,0,0,0,.93-.749,5.078,5.078,0,0,0,.694-.942,8.648,8.648,0,0,0,.417-.978l.012-.066a2.5,2.5,0,0,0,.072-.519,1.314,1.314,0,0,0,.066-.525,9.889,9.889,0,0,0-.145-1.1l-.03-.1a9.756,9.756,0,0,0-.411-.972.493.493,0,0,0-.072-.121A4.931,4.931,0,0,0,20.9,26.925a6.949,6.949,0,0,0-1.087-.471,1.142,1.142,0,0,0-.217-.06,5.029,5.029,0,0,0-2.47.018,4.451,4.451,0,0,0-1.117.477l-.048.036c-.254.187-.549.411-.791.616a.551.551,0,0,0-.1.1,2.84,2.84,0,0,0-.779,1.214,3.41,3.41,0,0,0,0,2.91,2.84,2.84,0,0,0,.779,1.214c.254.193.507.392.767.592a3.745,3.745,0,0,0,1.9.513c.332-.048.67-.091,1-.133a3.818,3.818,0,0,0,1.667-.972.661.661,0,0,1,.133-.127c-.26.193-.513.392-.767.586a.815.815,0,0,1,.175-.1l-.906.38a1.074,1.074,0,0,1,.229-.06c-.332.042-.664.091-1,.133a1.475,1.475,0,0,1,.284.006c-.332-.048-.664-.091-1-.133a1.185,1.185,0,0,1,.3.079l-.9-.38a1.662,1.662,0,0,1,.248.145c-.254-.193-.507-.392-.761-.592a1.49,1.49,0,0,1,.169.169c-.2-.254-.392-.507-.592-.761a.658.658,0,0,1,.109.187c-.127-.3-.254-.6-.38-.9a.708.708,0,0,1,.054.193c-.042-.338-.091-.67-.133-1l.006.06c.042-.338.085-.67.133-1L15.755,30c.127-.3.254-.6.38-.9a1.055,1.055,0,0,1-.109.175l.592-.761a.961.961,0,0,1-.175.175c.254-.2.507-.392.761-.592a1.15,1.15,0,0,1-.235.139l.906-.38a1.173,1.173,0,0,1-.308.085c.332-.042.67-.085,1-.133a1.616,1.616,0,0,1-.3.006c.338.042.67.085,1,.133a.979.979,0,0,1-.26-.072l.9.38a.738.738,0,0,1-.175-.1c.254.2.507.392.761.592a1.085,1.085,0,0,1-.121-.115l-.761,5.923c.64-.453,1.286-.912,1.932-1.371a2.824,2.824,0,0,0,1.057-.972,3.368,3.368,0,0,0,.743-2.784,2.747,2.747,0,0,0-.447-1.407c-.193-.254-.392-.507-.592-.761a3.774,3.774,0,0,0-1.66-.972c-.338-.042-.67-.091-1.008-.133a3.7,3.7,0,0,0-1.9.513" transform="translate(70.209 131.787)" fill="#b9cbde"/>
    <path id="패스_4654" data-name="패스 4654" d="M76.1,32.978c9.25.658,9.226,12.161,4.317,17.523-6.08,6.642-16.273,6.636-24.388,4.613a43.692,43.692,0,0,1-12.173-5.1c-3.4-2.071-6.545-4.48-10.247-6.02a21.474,21.474,0,0,0-11.551-1.214c-3.128.423-8.918,2.029-11.285-1.093-2.892-3.822-9.45-.066-6.515,3.81C7.3,49.517,11.6,51.183,16.624,51c2.9-.1,5.73-.924,8.628-1.008,3.5-.1,6.249,1.129,9.2,2.935,10.229,6.237,20.511,11.72,32.968,10.838,10.4-.731,20.928-6.539,23.591-17.305C93.5,36.384,86.5,26.167,76.1,25.431c-4.849-.344-4.824,7.2,0,7.548" transform="translate(17.727 128.064)" fill="#b9cbde"/>
    <path id="패스_4655" data-name="패스 4655" d="M4.023,31.454A133.228,133.228,0,0,0,20.882,46.211c1.588,1.183,4.281.314,5.163-1.353A3.881,3.881,0,0,0,24.692,39.7c-.356-.266-.712-.525-1.063-.791-.193-.151-.386-.3-.586-.447-.332-.254-.175-.121.066.054-.712-.513-1.389-1.093-2.071-1.648q-2.065-1.667-4.046-3.418-3.967-3.505-7.632-7.33a3.814,3.814,0,0,0-5.338,0,3.849,3.849,0,0,0,0,5.338" transform="translate(14.852 126.086)" fill="#b9cbde"/>
    <path id="패스_4656" data-name="패스 4656" d="M7.055,31.645q11.023,9.311,22.7,17.806a3.79,3.79,0,0,0,5.163-1.359,3.877,3.877,0,0,0-1.353-5.163C26.2,37.568,19.445,32.267,12.392,26.307a3.855,3.855,0,0,0-5.338,0c-1.286,1.4-1.612,3.979,0,5.338" transform="translate(30.049 127.115)" fill="#b9cbde"/>
    <path id="패스_4657" data-name="패스 4657" d="M12.923,34.874a121.528,121.528,0,0,0,15.186,8.991,3.854,3.854,0,0,0,5.163-1.359c.906-1.7.531-4.221-1.353-5.163a121.053,121.053,0,0,1-15.186-8.985,3.791,3.791,0,0,0-5.163,1.353,3.87,3.87,0,0,0,1.353,5.163" transform="translate(55.833 140.2)" fill="#b9cbde"/>
    <path id="패스_4658" data-name="패스 4658" d="M7.985,36.4a57.531,57.531,0,0,0,24.69,11.346A3.853,3.853,0,0,0,37.312,45.1c.423-1.854-.562-4.251-2.633-4.643a54.015,54.015,0,0,1-6.092-1.5q-1.494-.471-2.965-1.02c-.489-.187-.978-.374-1.461-.58.5.211-.6-.26-.719-.314a53.723,53.723,0,0,1-5.392-2.808q-1.34-.806-2.645-1.691c-.429-.29-.857-.592-1.28-.9-.115-.085-1.183-.882-.8-.592-1.558-1.208-3.84-1.63-5.338,0-1.244,1.353-1.667,4.046,0,5.338" transform="translate(34.704 151.091)" fill="#b9cbde"/>
    <path id="패스_4659" data-name="패스 4659" d="M9.609,39.759a34.6,34.6,0,0,0,24.919,5.869c1.968-.266,3.206-2.886,2.639-4.643-.7-2.162-2.536-2.922-4.643-2.639.779-.1-.664.054-.8.066-.483.036-.966.06-1.449.078-.845.024-1.7.012-2.542-.036-.483-.024-.966-.066-1.449-.115-.235-.024-.477-.048-.719-.085.4.054.38.048-.078-.018-.894-.169-1.781-.332-2.663-.562s-1.751-.483-2.608-.785c-.459-.163-.912-.332-1.359-.513.646.26-.471-.217-.6-.278a30.928,30.928,0,0,1-4.837-2.856A3.785,3.785,0,0,0,8.257,34.6a3.876,3.876,0,0,0,1.353,5.163" transform="translate(39.13 164.769)" fill="#b9cbde"/>
    <path id="패스_4660" data-name="패스 4660" d="M15.013,34.972q-.607,3.5-1.208,7a2.917,2.917,0,0,0-.066,1.51,2.863,2.863,0,0,0,.447,1.4,3.846,3.846,0,0,0,2.258,1.733,3.784,3.784,0,0,0,2.9-.38,3.691,3.691,0,0,0,1.739-2.252q.6-3.505,1.2-7a2.9,2.9,0,0,0,.072-1.5,2.79,2.79,0,0,0-.453-1.4,3.767,3.767,0,0,0-5.163-1.359,3.693,3.693,0,0,0-1.733,2.258" transform="translate(68.869 162.292)" fill="#b9cbde"/>
    <path id="패스_4661" data-name="패스 4661" d="M16.992,35.663a12.827,12.827,0,0,1-.1,1.926c.048-.338.091-.67.133-1a12.3,12.3,0,0,1-.863,3.164c.127-.3.254-.6.38-.9a12.416,12.416,0,0,1-.719,1.413,3.917,3.917,0,0,0-.38,2.91,3.776,3.776,0,0,0,4.643,2.633,3.975,3.975,0,0,0,2.258-1.733,15.934,15.934,0,0,0,2.192-8.411,3.93,3.93,0,0,0-1.1-2.669,3.774,3.774,0,0,0-6.443,2.669" transform="translate(77.179 160.648)" fill="#b9cbde"/>
    <path id="패스_4662" data-name="패스 4662" d="M17.786,33.471c-.187.936-.374,1.866-.562,2.8a2.9,2.9,0,0,0-.072,1.5,2.863,2.863,0,0,0,.447,1.4,2.955,2.955,0,0,0,.978,1.063,2.785,2.785,0,0,0,1.28.67c.338.048.67.091,1,.139a3.806,3.806,0,0,0,1.908-.519c.254-.193.507-.392.761-.586a3.818,3.818,0,0,0,.972-1.667c.187-.936.374-1.866.562-2.8a2.894,2.894,0,0,0,.066-1.5,2.783,2.783,0,0,0-.447-1.4,2.841,2.841,0,0,0-.972-1.063,2.874,2.874,0,0,0-1.286-.676c-.338-.042-.664-.085-1-.133a3.845,3.845,0,0,0-1.908.513c-.254.2-.513.4-.767.592a3.807,3.807,0,0,0-.966,1.667" transform="translate(86.076 154.67)" fill="#b9cbde"/>
    <path id="패스_4663" data-name="패스 4663" d="M10.673,39.987a61.077,61.077,0,0,0,4.661,13.254A3.8,3.8,0,0,0,20.5,54.593a3.873,3.873,0,0,0,1.353-5.163c-.435-.894-.845-1.805-1.232-2.723l.38.906a57.4,57.4,0,0,1-3.055-9.631,3.8,3.8,0,0,0-4.637-2.639,3.863,3.863,0,0,0-2.639,4.643" transform="translate(53.24 177.318)" fill="#b9cbde"/>
    <path id="패스_4664" data-name="패스 4664" d="M8.073,39.971a49.96,49.96,0,0,0,6.02,12.867,3.774,3.774,0,0,0,6.515-3.81,47.056,47.056,0,0,1-4.033-7.536l.38.9c-.61-1.449-1.141-2.928-1.606-4.426a3.774,3.774,0,1,0-7.276,2" transform="translate(39.905 177.189)" fill="#b9cbde"/>
    <path id="패스_4665" data-name="패스 4665" d="M23.434,34.73a32.3,32.3,0,0,0-7.318,15.639,4.035,4.035,0,0,0,.38,2.91,3.785,3.785,0,0,0,2.246,1.733c1.805.411,4.317-.549,4.649-2.633a27.4,27.4,0,0,1,.821-3.677c.169-.6.374-1.2.586-1.787.109-.3.229-.586.338-.882.163-.374.121-.29-.109.254.066-.145.127-.29.193-.435A29.633,29.633,0,0,1,27,42.537c.332-.531.688-1.057,1.051-1.564.1-.127.187-.254.29-.38.235-.32.187-.254-.169.205.193-.085.459-.568.6-.731a4.063,4.063,0,0,0,1.1-2.669,3.842,3.842,0,0,0-1.1-2.669c-1.4-1.28-3.985-1.618-5.344,0" transform="translate(80.68 169.479)" fill="#b9cbde"/>
    <path id="패스_4666" data-name="패스 4666" d="M11.751,25.14a7.046,7.046,0,0,0,1.1,5.247,6.744,6.744,0,0,0,9.474,1.938,7.049,7.049,0,0,0,3.043-4.281,2.393,2.393,0,0,0-4.613-1.274,3,3,0,0,1-.1.417l-.054.175c-.091.229-.054.151.1-.235-.133.2-.229.435-.356.634-.242.38.356-.4.078-.091-.1.1-.193.211-.3.314s-.211.193-.314.29c-.308.278.477-.32.1-.079-.205.133-.423.248-.634.368-.386.211.586-.211.066-.03-.139.048-.272.091-.411.127-.115.03-.242.036-.356.078.531-.187.441-.048.145-.03-.115.006-.235.006-.356.006-.1-.006-.646-.066-.169-.006.453.06-.006-.012-.109-.042a1.172,1.172,0,0,1-.411-.133c.115.048.229.1.344.151l-.223-.109c-.109-.06-.217-.121-.332-.187-.1-.066-.2-.151-.3-.211.58.326.229.175.054.012a3.633,3.633,0,0,1-.3-.308c-.139-.157-.272-.483.06.091-.127-.217-.272-.411-.386-.634l-.109-.229c.139.368.181.459.121.29-.042-.139-.1-.278-.139-.417-.03-.121-.048-.242-.085-.362-.1-.441.03.6.024.145,0-.121-.012-.248-.012-.368,0-.2.1-.8-.03.018a2.651,2.651,0,0,0-.242-1.848,2.469,2.469,0,0,0-1.425-1.1,2.427,2.427,0,0,0-2.947,1.673" transform="translate(58.684 117.933)" fill="#231815"/>
    <path id="패스_4667" data-name="패스 4667" d="M13.048,27.138a3.808,3.808,0,0,1,.018-.743c-.03.211-.054.423-.085.634a4.442,4.442,0,0,1,.248-.924l-.242.574a4.555,4.555,0,0,1,.537-.924l-.374.483a4.459,4.459,0,0,1,.749-.761c-.163.127-.326.248-.483.374a4.334,4.334,0,0,1,.912-.543c-.193.078-.38.157-.574.242a3.784,3.784,0,0,1,.918-.26c-.211.03-.423.06-.634.085a3.651,3.651,0,0,1,.851-.006c-.211-.03-.423-.054-.634-.085a4.083,4.083,0,0,1,.924.242c-.193-.078-.38-.163-.574-.242a4.266,4.266,0,0,1,.924.531c-.163-.127-.326-.248-.489-.374a4.7,4.7,0,0,1,.761.749c-.121-.157-.248-.32-.368-.483a4.377,4.377,0,0,1,.543.918c-.078-.193-.163-.38-.242-.574a4,4,0,0,1,.278,1.02c-.024-.211-.054-.423-.085-.634a3.763,3.763,0,0,1,.018.64,2.408,2.408,0,0,0,2.391,2.391,2.446,2.446,0,0,0,2.4-2.391,6.428,6.428,0,0,0-4-6.044,6.035,6.035,0,0,0-6.974,1.823,6.283,6.283,0,0,0-1.5,4.281,2.585,2.585,0,0,0,.7,1.691,2.4,2.4,0,0,0,4.088-1.691" transform="translate(41.554 103.72)" fill="#231815"/>
    <path id="패스_4668" data-name="패스 4668" d="M19.485,27.634A5.054,5.054,0,0,1,19.847,27c.242-.386-.386.429-.079.1.085-.091.163-.181.248-.266s.181-.169.272-.248c.308-.284-.471.308-.1.072.2-.115.38-.242.586-.344.459-.229-.362.127-.127.042.115-.042.223-.085.338-.121.223-.066.453-.085.664-.157-.64.205-.4.048-.157.036.127-.012.248-.012.368-.012s.235.024.362.024c-.688-.018-.374-.054-.151-.006.121.024.235.06.362.1l.121.042c.235.085.163.054-.223-.1.187.133.417.217.616.338.429.284-.26-.229-.078-.072.078.072.163.139.235.211a2.884,2.884,0,0,1,.272.272l.163.187-.223-.284a2.688,2.688,0,0,1,.417.646c.085.169.193.543-.024-.115.042.121.091.242.127.362s.066.242.1.362c.048.235-.024.531,0-.133-.018.248.024.5.018.761a2.4,2.4,0,0,0,2.391,2.391,2.445,2.445,0,0,0,2.391-2.391A7.229,7.229,0,0,0,23.343,21.5a7.248,7.248,0,0,0-7.988,3.719,2.545,2.545,0,0,0-.242,1.842,2.4,2.4,0,0,0,1.1,1.431,2.423,2.423,0,0,0,3.273-.857" transform="translate(75.73 107.487)" fill="#231815"/>
    <path id="패스_4669" data-name="패스 4669" d="M8.7,17.621c6.66-1.938,13.513-1.805,20.385-1.715q9.745.136,19.485.586,19.862.933,39.622,3.188c3.055.35,3.031-4.438,0-4.782q-20.533-2.328-41.18-3.261c-12.825-.568-27.1-2.264-39.586,1.371-2.953.857-1.7,5.477,1.274,4.613" transform="translate(28.91 54.13)" fill="#231815"/>
    <path id="패스_4670" data-name="패스 4670" d="M2.8,18.393a8.913,8.913,0,0,0-1.063,8.266A9.162,9.162,0,0,0,7.922,32.2,2.392,2.392,0,1,0,9.19,27.589c-.242-.06-.477-.139-.719-.223-.308-.1.078.006.157.072a2.522,2.522,0,0,0-.338-.169,5.63,5.63,0,0,1-.58-.344c-.036-.024-.435-.326-.121-.078s-.048-.042-.109-.1q-.254-.226-.489-.471c-.085-.091-.163-.187-.248-.284-.284-.314.211.314.054.066-.121-.187-.248-.374-.362-.568-.06-.109-.121-.223-.175-.332-.1-.223-.036-.368.03.091a5.592,5.592,0,0,0-.217-.682c-.03-.133-.06-.266-.085-.4-.078-.32.018.036.012.157.018-.254-.048-.543-.048-.8,0-.109.006-.217.012-.326,0-.048.072-.562.006-.163s.012-.079.03-.163c.024-.133.06-.26.091-.392.048-.187.242-.507.223-.694.018.175-.2.429-.018.054.06-.121.121-.242.187-.356a7.216,7.216,0,0,1,.441-.676,2.4,2.4,0,0,0-.857-3.273,2.46,2.46,0,0,0-3.273.857" transform="translate(5.845 86.779)" fill="#231815"/>
    <path id="패스_4671" data-name="패스 4671" d="M25.122,13.531q.435,4.175.863,8.345a8.8,8.8,0,0,1,.042,3.659c-.417,1.22-1.6,1.9-2.633,2.578-4.2,2.771-8.58,5.277-12.438,8.532C3.988,42.526-.685,51.867,3.221,60.791c1.232,2.814,5.356.38,4.13-2.415C3.276,49.065,12.689,40.757,19.53,36.271c3.363-2.21,8.375-4.257,10.482-7.862,1.256-2.144.96-4.595.719-6.95q-.417-3.967-.821-7.928c-.314-3.031-5.108-3.067-4.788,0" transform="translate(9.078 56.65)" fill="#231815"/>
    <path id="패스_4672" data-name="패스 4672" d="M1.4,22.907c.175,17.957,6.2,34.556,12.608,51.1,6.334,16.357,11.515,33.137,19.594,48.77,1.413,2.735,5.543.32,4.13-2.415C29.847,105.1,24.8,88.7,18.622,72.733,12.378,56.606,6.358,40.43,6.189,22.907c-.03-3.079-4.818-3.085-4.788,0" transform="translate(7.058 103.76)" fill="#231815"/>
  </g>
</svg>
