<svg xmlns="http://www.w3.org/2000/svg" xmlns:xlink="http://www.w3.org/1999/xlink" width="168.218" height="212.302" viewBox="0 0 168.218 212.302">
  <defs>
    <clipPath id="clip-path">
      <rect id="사각형_2000" data-name="사각형 2000" width="168.218" height="212.302" transform="translate(18 16)" fill="#fff"/>
    </clipPath>
    <clipPath id="clip-path-2">
      <rect id="사각형_1999" data-name="사각형 1999" width="181.959" height="218.232" fill="none"/>
    </clipPath>
  </defs>
  <g id="마스크_그룹_33" data-name="마스크 그룹 33" transform="translate(-18 -16)" clip-path="url(#clip-path)">
    <g id="그룹_1312" data-name="그룹 1312" transform="translate(23.873 36.012)">
      <g id="그룹_1311" data-name="그룹 1311" transform="translate(0 0)" clip-path="url(#clip-path-2)">
        <path id="패스_4397" data-name="패스 4397" d="M124.891,37.828c-1.257-.722-3.032-.675-4.476-1.4-1.321-.652-2.317-2.154-3.772-2.8-1.362-.605-2.9-.943-4.365-1.531-1.391-.565-3.114-.355-4.587-.9-1.414-.524-2.683-1.519-4.162-2.02-1.438-.489-2.945-.821-4.429-1.28-1.449-.454-2.823-1.216-4.307-1.636-1.467-.419-2.91-1-4.406-1.385s-3.12-.175-4.621-.524-2.974-.792-4.482-1.1-3.1-.2-4.6-.471c-1.525-.274-2.951-1.065-4.458-1.286-1.542-.227-3.015-.914-4.528-1.088-1.554-.175-3.1-.4-4.616-.518-1.56-.122-3.155.809-4.668.762-1.577-.052-3.1-.471-4.6-.437-1.583.035-3.079.466-4.563.605-1.583.146-3.19-.343-4.639-.076a43.789,43.789,0,0,0-4.313,2.031c-1.182.623-2.357,1.769-3.894,2.637-1.263.716-2.642,1.467-4.068,2.328-1.28.78-2.654,1.542-4.022,2.427-1.28.827-2.491,1.839-3.8,2.759-1.269.885-2.689,1.612-3.952,2.573-1.246.943-2.177,2.3-3.382,3.306s-2.363,2.055-3.51,3.126c-1.158,1.088-2.73,1.74-3.789,2.881C8.79,45.988,8.08,47.455,7.137,48.677a38.755,38.755,0,0,0-2.52,3.946c-.821,1.391-2.282,2.45-2.829,3.882C1.206,58,1.6,59.573,1.369,61.1c1.187.6,2.119,1.886,3.754,2.52,1.333.518,3.2-.047,4.779.483,1.391.471,2.736,1.345,4.3,1.822,1.426.437,3.027.495,4.581.931,1.455.407,2.91.966,4.453,1.374,1.473.384,2.84,1.31,4.383,1.688,1.484.373,3.027.611,4.563.972,1.49.355,2.9,1.152,4.418,1.5s3.155.076,4.685.4c1.513.32,2.968.989,4.5,1.3s3.062.594,4.592.891,3.166.087,4.691.361c1.548.285,3.05.733,4.575,1,1.554.262,2.98,1.228,4.5,1.473,1.566.25,3.242-.378,4.761-.157,1.577.233,3.032,1.094,4.552,1.292,1.589.21,3.178.157,4.685.326,1.606.18,3.213-.192,4.709-.058,1.624.146,3.149.518,4.621.6,1.653.093,3.516.762,4.947.774a22.158,22.158,0,0,1,1.1-4.61c.448-1.222.471-2.817,1.123-4.261.57-1.269,1.17-2.637,1.863-3.987.652-1.275,2.218-2.1,2.951-3.382s.489-3.166,1.281-4.377c.827-1.263,2.148-2.171,3-3.283a29.044,29.044,0,0,1,3.294-2.922c1.2-1.17,1.979-2.52,3.1-3.027a18.414,18.414,0,0,0,4.063-2.608c1.135-.943,1.868-2.689,3.149-3.772s2.41-2.34,3.521-3.312c2.072-1.81,3.795-2.747,3.638-2.835.035-.233.39-.378.39-.378" transform="translate(6.599 95.823)" fill="#bad42e" fill-rule="evenodd"/>
        <path id="패스_4398" data-name="패스 4398" d="M124.891,37.828c-1.257-.722-3.032-.675-4.476-1.4-1.321-.652-2.317-2.154-3.772-2.8-1.362-.605-2.9-.943-4.365-1.531-1.391-.565-3.114-.355-4.587-.9-1.414-.524-2.683-1.519-4.162-2.02-1.438-.489-2.945-.821-4.429-1.28-1.449-.454-2.823-1.216-4.307-1.636-1.467-.419-2.91-1-4.406-1.385s-3.12-.175-4.621-.524-2.974-.792-4.482-1.1-3.1-.2-4.6-.471c-1.525-.274-2.951-1.065-4.458-1.286-1.542-.227-3.015-.914-4.528-1.088-1.554-.175-3.1-.4-4.616-.518-1.56-.122-3.155.809-4.668.762-1.577-.052-3.1-.471-4.6-.437-1.583.035-3.079.466-4.563.605-1.583.146-3.19-.343-4.639-.076a43.789,43.789,0,0,0-4.313,2.031c-1.182.623-2.357,1.769-3.894,2.637-1.263.716-2.642,1.467-4.068,2.328-1.28.78-2.654,1.542-4.022,2.427-1.28.827-2.491,1.839-3.8,2.759-1.269.885-2.689,1.612-3.952,2.573-1.246.943-2.177,2.3-3.382,3.306s-2.363,2.055-3.51,3.126c-1.158,1.088-2.73,1.74-3.789,2.881C8.79,45.988,8.08,47.455,7.137,48.677a38.755,38.755,0,0,0-2.52,3.946c-.821,1.391-2.282,2.45-2.829,3.882C1.206,58,1.6,59.573,1.369,61.1c1.187.6,2.119,1.886,3.754,2.52,1.333.518,3.2-.047,4.779.483,1.391.471,2.736,1.345,4.3,1.822,1.426.437,3.027.495,4.581.931,1.455.407,2.91.966,4.453,1.374,1.473.384,2.84,1.31,4.383,1.688,1.484.373,3.027.611,4.563.972,1.49.355,2.9,1.152,4.418,1.5s3.155.076,4.685.4c1.513.32,2.968.989,4.5,1.3s3.062.594,4.592.891,3.166.087,4.691.361c1.548.285,3.05.733,4.575,1,1.554.262,2.98,1.228,4.5,1.473,1.566.25,3.242-.378,4.761-.157,1.577.233,3.032,1.094,4.552,1.292,1.589.21,3.178.157,4.685.326,1.606.18,3.213-.192,4.709-.058,1.624.146,3.149.518,4.621.6,1.653.093,3.516.762,4.947.774a22.158,22.158,0,0,1,1.1-4.61c.448-1.222.471-2.817,1.123-4.261.57-1.269,1.17-2.637,1.863-3.987.652-1.275,2.218-2.1,2.951-3.382s.489-3.166,1.281-4.377c.827-1.263,2.148-2.171,3-3.283a29.044,29.044,0,0,1,3.294-2.922c1.2-1.17,1.979-2.52,3.1-3.027a18.414,18.414,0,0,0,4.063-2.608c1.135-.943,1.868-2.689,3.149-3.772s2.41-2.34,3.521-3.312c2.072-1.81,3.795-2.747,3.638-2.835C124.536,37.973,124.891,37.828,124.891,37.828Z" transform="translate(6.599 95.823)" fill="none" stroke="#84c02d" stroke-miterlimit="10" stroke-width="1"/>
        <path id="패스_4399" data-name="패스 4399" d="M23.887,15.483c-.46.949-.437,2.642-1.042,4.528-.407,1.286-.949,2.724-1.409,4.365-.384,1.374-1.519,2.672-1.927,4.255-.373,1.42.274,3.166-.111,4.72-.355,1.449-1.374,2.788-1.734,4.325-.343,1.467-.332,3.05-.675,4.575-.332,1.473-.8,2.939-1.129,4.447s-.285,3.073-.605,4.587-1.624,2.817-1.927,4.325c-.308,1.525.448,3.254.157,4.755-.3,1.537-1.275,2.928-1.554,4.429-.285,1.542-.157,3.137-.413,4.621-.274,1.566-1.257,2.974-1.5,4.447-.262,1.595.495,3.283.279,4.738-.233,1.624-.373,3.149-.541,4.563-.2,1.711-.623,3.2-.71,4.528a22.933,22.933,0,0,0-.175,4.645c1.507.128,3.085.047,4.6.146,1.5.093,3.009.314,4.534.4,1.5.081,3.044-.419,4.575-.338,1.5.087,2.986.524,4.522.629,1.49.1,2.98.477,4.517.617,1.5.134,3.05-.058,4.6.122,1.49.175,2.98.594,4.517.826,1.484.221,2.963.617,4.493.9,1.473.274,3.1,0,4.621.343,1.455.332,2.835,1.164,4.342,1.566,1.443.384,2.875.925,4.371,1.385,1.432.437,2.736,1.345,4.214,1.857,1.414.495,2.945.716,4.406,1.286,1.4.535,2.9.9,4.336,1.507,1.379.588,2.689,1.391,4.109,2.049,1.356.634,2.718,1.327,4.115,2.026,1.339.669,2.677,1.4,4.057,2.13,1.327.71,3.027.809,4.394,1.583,1.3.739,2.247,2.171,3.591,2.974,1.292.774,2.491,1.74,3.824,2.578,1.275.809,2.974,1.013,4.284,1.874a4.178,4.178,0,0,0,4.365.466,12.464,12.464,0,0,0,3.766-2.829,33.073,33.073,0,0,0,2.945-3.7c.844-1.2,1.409-2.712,2.264-4.156.762-1.3,1.781-2.532,2.549-3.993.7-1.35,1.467-2.741,2.165-4.208.664-1.391.9-3.021,1.548-4.493.629-1.42,2.084-2.52,2.695-4,.6-1.438.9-3.027,1.473-4.5s1.3-2.887,1.851-4.371.634-3.149,1.164-4.633c.535-1.507,1.7-2.788,2.206-4.278.518-1.519-.041-3.376.442-4.86.495-1.537,1.81-2.776,2.264-4.255.477-1.56.978-3.073,1.4-4.54.46-1.589,1.048-3.091,1.443-4.546.437-1.624.535-3.242.879-4.656.413-1.717.477-3.329.739-4.668a24.314,24.314,0,0,0,.594-4.639,14.826,14.826,0,0,0-.949-4.453,18.966,18.966,0,0,0-2.293-3.906c-.815-1.228-.972-3.085-2.078-4.249a37.436,37.436,0,0,0-3.51-3.056c-1.141-.931-2.625-1.542-3.935-2.427-1.234-.832-2.334-2-3.7-2.788-1.3-.745-2.922-.984-4.325-1.688-1.345-.669-2.707-1.374-4.133-2-1.385-.605-2.817-1.147-4.266-1.717-1.409-.547-3-.617-4.464-1.123-1.432-.5-2.794-1.228-4.266-1.688-1.455-.454-2.7-1.682-4.185-2.09s-3-.722-4.493-1.088S87.05,9.016,85.549,8.7,82.51,8.143,81,7.858s-3.19.407-4.7.169c-1.531-.239-2.986-.821-4.5-1.013-1.537-.2-3.091-.07-4.61-.215-1.548-.151-3.062-.262-4.581-.361-1.56-.1-3.05-1.083-4.569-1.129-1.572-.041-3.126.687-4.639.7-1.577.017-3.161-.925-4.656-.838-1.577.093-3.044,1.1-4.517,1.269-1.589.186-3.114.326-4.569.611a44.536,44.536,0,0,0-4.5.96c-1.56.471-2.741,1.531-4.034,2.154A17.04,17.04,0,0,0,27.362,12.5a10.372,10.372,0,0,0-2.805,3.422c-.093.128-.669-.437-.669-.437" transform="translate(42.385 24.918)" fill="#bad42e" fill-rule="evenodd"/>
        <path id="패스_4400" data-name="패스 4400" d="M23.887,15.483c-.46.949-.437,2.642-1.042,4.528-.407,1.286-.949,2.724-1.409,4.365-.384,1.374-1.519,2.672-1.927,4.255-.373,1.42.274,3.166-.111,4.72-.355,1.449-1.374,2.788-1.734,4.325-.343,1.467-.332,3.05-.675,4.575-.332,1.473-.8,2.939-1.129,4.447s-.285,3.073-.605,4.587-1.624,2.817-1.927,4.325c-.308,1.525.448,3.254.157,4.755-.3,1.537-1.275,2.928-1.554,4.429-.285,1.542-.157,3.137-.413,4.621-.274,1.566-1.257,2.974-1.5,4.447-.262,1.595.495,3.283.279,4.738-.233,1.624-.373,3.149-.541,4.563-.2,1.711-.623,3.2-.71,4.528a22.933,22.933,0,0,0-.175,4.645c1.507.128,3.085.047,4.6.146,1.5.093,3.009.314,4.534.4,1.5.081,3.044-.419,4.575-.338,1.5.087,2.986.524,4.522.629,1.49.1,2.98.477,4.517.617,1.5.134,3.05-.058,4.6.122,1.49.175,2.98.594,4.517.826,1.484.221,2.963.617,4.493.9,1.473.274,3.1,0,4.621.343,1.455.332,2.835,1.164,4.342,1.566,1.443.384,2.875.925,4.371,1.385,1.432.437,2.736,1.345,4.214,1.857,1.414.495,2.945.716,4.406,1.286,1.4.535,2.9.9,4.336,1.507,1.379.588,2.689,1.391,4.109,2.049,1.356.634,2.718,1.327,4.115,2.026,1.339.669,2.677,1.4,4.057,2.13,1.327.71,3.027.809,4.394,1.583,1.3.739,2.247,2.171,3.591,2.974,1.292.774,2.491,1.74,3.824,2.578,1.275.809,2.974,1.013,4.284,1.874a4.178,4.178,0,0,0,4.365.466,12.464,12.464,0,0,0,3.766-2.829,33.073,33.073,0,0,0,2.945-3.7c.844-1.2,1.409-2.712,2.264-4.156.762-1.3,1.781-2.532,2.549-3.993.7-1.35,1.467-2.741,2.165-4.208.664-1.391.9-3.021,1.548-4.493.629-1.42,2.084-2.52,2.695-4,.6-1.438.9-3.027,1.473-4.5s1.3-2.887,1.851-4.371.634-3.149,1.164-4.633c.535-1.507,1.7-2.788,2.206-4.278.518-1.519-.041-3.376.442-4.86.495-1.537,1.81-2.776,2.264-4.255.477-1.56.978-3.073,1.4-4.54.46-1.589,1.048-3.091,1.443-4.546.437-1.624.535-3.242.879-4.656.413-1.717.477-3.329.739-4.668a24.314,24.314,0,0,0,.594-4.639,14.826,14.826,0,0,0-.949-4.453,18.966,18.966,0,0,0-2.293-3.906c-.815-1.228-.972-3.085-2.078-4.249a37.436,37.436,0,0,0-3.51-3.056c-1.141-.931-2.625-1.542-3.935-2.427-1.234-.832-2.334-2-3.7-2.788-1.3-.745-2.922-.984-4.325-1.688-1.345-.669-2.707-1.374-4.133-2-1.385-.605-2.817-1.147-4.266-1.717-1.409-.547-3-.617-4.464-1.123-1.432-.5-2.794-1.228-4.266-1.688-1.455-.454-2.7-1.682-4.185-2.09s-3-.722-4.493-1.088S87.05,9.016,85.549,8.7,82.51,8.143,81,7.858s-3.19.407-4.7.169c-1.531-.239-2.986-.821-4.5-1.013-1.537-.2-3.091-.07-4.61-.215-1.548-.151-3.062-.262-4.581-.361-1.56-.1-3.05-1.083-4.569-1.129-1.572-.041-3.126.687-4.639.7-1.577.017-3.161-.925-4.656-.838-1.577.093-3.044,1.1-4.517,1.269-1.589.186-3.114.326-4.569.611a44.536,44.536,0,0,0-4.5.96c-1.56.471-2.741,1.531-4.034,2.154A17.04,17.04,0,0,0,27.362,12.5a10.372,10.372,0,0,0-2.805,3.422C24.463,16.047,23.887,15.483,23.887,15.483Z" transform="translate(42.385 24.918)" fill="none" stroke="#84c02d" stroke-miterlimit="10" stroke-width="1"/>
        <path id="패스_4401" data-name="패스 4401" d="M179.559,11.374c.559,1.048.21,2.922.6,4.8.274,1.345,1.49,2.759,1.676,4.476.157,1.426-.035,3.032.058,4.691.087,1.467-.535,3.05-.5,4.68.029,1.5-.122,3.044-.134,4.656-.006,1.507.244,3.062.2,4.662-.047,1.519-.611,3.05-.693,4.639-.07,1.525.122,3.091.017,4.674-.1,1.525-.664,3.032-.8,4.6-.128,1.531-.244,3.067-.4,4.633-.151,1.537-.372,3.067-.547,4.627-.175,1.537.675,3.207.477,4.767-.2,1.537-.1,3.131-.326,4.685-.227,1.537-.215,3.131-.466,4.68s-.6,3.079-.873,4.616-.978,3.009-1.275,4.54-1.752,2.846-2.078,4.377.85,3.411.495,4.93c-.355,1.537-1.519,2.881-1.9,4.389-.39,1.537-.565,3.114-.984,4.616-.425,1.525-1.548,2.823-2,4.307-.466,1.519-.984,2.98-1.478,4.441-.512,1.5.076,3.37-.466,4.814-.559,1.484-1.246,2.9-1.839,4.313-.623,1.473,2.963,2.384,2.3,3.757-.693,1.449,1.967,3.223,1.234,4.55-.774,1.409-4.831,9.253-5.652,10.516-.885,1.356-6.822.6-7.759,1.772-1.013,1.263-2.124-2.511-3.2-1.481-1.17,1.123-1.961,2.555-3.207,3.37-2.194.96-2.014,1.455-4.255,2.3s-2.549.017-4.784.861-2.124,1.147-4.36,1.991-2.043,1.385-4.284,2.229-2.724-.425-4.965.425-2.037,1.368-4.278,2.212-2.439.3-4.674,1.147-1.694,2.3-3.94,3.155-2.759-.495-5.006.355-1.816,2.02-4.074,2.869-2.491.239-4.744,1.088a20.8,20.8,0,0,1-4.133.78c-1.391.227-2.782,1.118-4.191,1.059s-2.689-1.257-4.063-1.6c-2.206-.425-1.63-.39-4.429-.832-1.251-.2-2.957.9-4.633.623-1.356-.227-2.59-1.944-4.173-2.218-1.4-.239-3.032.442-4.575.169-1.42-.25-2.782-1.123-4.3-1.4-1.438-.262-2.864-.774-4.365-1.059-1.449-.274-3.166.693-4.656.4-1.449-.285-2.666-1.839-4.138-2.142s-3.207.733-4.68.419-2.951-.605-4.418-.931-2.858-1.048-4.313-1.385c-1.478-.349-2.963-.634-4.4-1-1.478-.372-2.625-1.938-4.039-2.322-1.5-.4-3.242.262-4.645-.151-1.5-.442-3.067-.535-4.435-.989-1.507-.495-3-.891-4.313-1.4-1.531-.588-2.264-2.677-3.486-3.271a20.957,20.957,0,0,1-3.795-2.008c-1.059-.861-2.532-1.566-3.486-3.044-.78-1.2-1.071-2.811-1.758-4.36-.605-1.35-2-2.514-2.509-4.08-.466-1.432-.2-3.149-.576-4.726-.349-1.484-.425-3.05-.687-4.639-.256-1.519-.093-3.091-.25-4.68-.157-1.542-.8-3.05-.856-4.633-.052-1.566-.419-3.137-.373-4.715s.506-3.114.664-4.68-.279-3.876,0-5.425a47.372,47.372,0,0,0,4.732,2.41c1.286.634,2.427,1.833,3.97,2.462,1.362.559,2.712,1.409,4.249,1.956,1.409.5,2.963.774,4.5,1.263,1.432.466,2.881,1.059,4.412,1.507,1.455.431,3.242-.163,4.767.256,1.478.4,2.84,1.3,4.365,1.694,1.49.384,2.887,1.187,4.418,1.56,1.49.361,2.939.972,4.458,1.321,1.5.349,3.126.215,4.651.547s3.184-.052,4.709.262,2.922,1.286,4.447,1.589,3.126.285,4.645.57c1.548.291,3.126.285,4.645.553,1.554.279,2.852,1.886,4.365,2.136,1.566.262,3.225-.233,4.732,0,1.577.25,3.166.186,4.668.407,1.589.227,3.027,1.2,4.517,1.4,1.612.215,3.294-.681,4.773-.512,1.636.192,3.091,1.158,4.534,1.292,1.688.151,3.51.664,4.889.739.448-1.484,1.222-3.085,1.758-4.505.547-1.443.652-3.038,1.28-4.418.64-1.4.565-3.172,1.281-4.511.728-1.362,1.641-2.654,2.439-3.946.815-1.315,2.049-2.363,2.928-3.6.891-1.257,1.659-2.619,2.608-3.807.96-1.2,1.723-2.6,2.73-3.737,1.024-1.152,1.967-2.421,3.032-3.5,1.083-1.1,3.213-1.106,4.325-2.13,1.135-1.053,2.072-2.276,3.225-3.254,1.187-1,1.793-2.695,2.986-3.62,1.234-.955,2.968-1.2,4.2-2.072,1.275-.908,2.619-1.641,3.871-2.462,1.31-.867,2.823-1.3,4.092-2.072,1.356-.827,2.154-2.485,3.44-3.207,1.4-.786,3.2-.687,4.488-1.362,1.443-.751,2.59-1.839,3.859-2.45,1.537-.739,2.957-1.3,4.173-1.845,1.851-.832,2.753-1.967,3.632-2.369.32-1.507,1.74-2.619,2.136-4.173.378-1.5-.239-3.283.21-4.819.437-1.484,1.746-2.718,2.253-4.243.489-1.467,1.164-2.881,1.717-4.389.535-1.449.844-3,1.443-4.482.582-1.438.21-3.306.856-4.773.617-1.414,2.677-2.206,3.358-3.655.658-1.4.722-3.1,1.438-4.534.693-1.391,1.787-2.59,2.538-4.01.728-1.368.535-3.265,1.321-4.662.757-1.362,1.612-2.7,2.421-4.092.786-1.345,1.281-3.067,2.119-4.441.233-.274,1.3.239,1.3.239" transform="translate(0.001 53.292)" fill="#84c02d" fill-rule="evenodd"/>
        <path id="패스_4402" data-name="패스 4402" d="M56.991,16.948c-.2,1.676.035,3.312-.1,4.843-.151,1.659-.722,3.207-.838,4.738-.128,1.647.175,3.265.023,4.808-.151,1.612-.535,3.155-.78,4.715s-.314,3.161-.716,4.732c-.233.9-1.566,1.973-3.585,3-1.17.6-2.619,1.216-4.243,1.915-1.3.565-2.759,1.094-4.29,1.746-1.339.576-2.922.821-4.406,1.484-1.356.605-2.765,1.257-4.208,1.95-1.356.646-2.747,1.362-4.156,2.1-1.339.7-2.555,1.711-3.923,2.5-1.315.751-2.817,1.269-4.144,2.107-1.292.821-2.4,1.944-3.679,2.852-1.251.885-2.578,1.694-3.8,2.672-1.2.955-2.311,2.049-3.469,3.1-1.135,1.03-2.188,2.165-3.271,3.289C6.342,70.6,5.131,71.6,4.13,72.8c-.978,1.182-1.8,2.351-2.712,3.632a21.739,21.739,0,0,1-.006-4.394,27.577,27.577,0,0,1,1.123-4.371,34.408,34.408,0,0,1,1.2-4.354c.582-1.362,1.315-2.689,2.06-4.039.722-1.3,1.31-2.718,2.165-4,.827-1.234,1.682-2.5,2.619-3.719.92-1.182,1.909-2.34,2.91-3.492.989-1.135,2.124-2.159,3.178-3.259s1.973-2.311,3.067-3.364S22.272,39.706,23.4,38.7s2.043-2.282,3.2-3.242c1.176-.984,2.3-2.02,3.475-2.945,1.211-.949,2.683-1.531,3.882-2.415,1.246-.925,2.235-2.154,3.446-3,1.286-.9,2.613-1.653,3.836-2.45,1.333-.873,2.724-1.537,3.952-2.282,1.4-.856,2.578-1.88,3.795-2.555a43.836,43.836,0,0,1,4.272-1.606c2.6-1.211,3.935-1.892,3.865-1.275-.052.1-.134.017-.134.017" transform="translate(6.283 80.499)" fill="#84c02d" fill-rule="evenodd"/>
        <path id="패스_4403" data-name="패스 4403" d="M63.463,18.161a39.641,39.641,0,0,0-4.1-.989,29.738,29.738,0,0,0-4.138-.722,15.062,15.062,0,0,0-4.546.885,25.234,25.234,0,0,0-4.394,1.484,41.416,41.416,0,0,0-4.237,2.02c-1.281.78-2.5,1.781-3.818,2.724-1.234.885-2.462,1.857-3.713,2.864-1.193.96-2.287,2.078-3.481,3.131-1.158,1.024-2.421,1.956-3.568,3.044-1.123,1.077-2.194,2.218-3.294,3.341s-2.433,2.008-3.5,3.155-1.863,2.549-2.881,3.725c-1.036,1.2-2.171,2.293-3.149,3.5-1.007,1.234-1.967,2.479-2.9,3.7C10.77,51.3,9.606,52.4,8.727,53.643c-.937,1.321-1.537,2.817-2.351,4.08-.9,1.4-1.647,2.788-2.375,4.08-.838,1.484-1.816,2.759-2.392,4.057A21.3,21.3,0,0,0,.159,70.318c-.407,2.09.017,3.615,1.228,4.243A23.008,23.008,0,0,1,4.4,76.488a5.154,5.154,0,0,0,3.178,1.263,18.44,18.44,0,0,1,.925-4.3,29.039,29.039,0,0,1,1-4.377c.535-1.31,1.409-2.561,2.136-3.952.664-1.269,1.525-2.485,2.328-3.807.751-1.24,1.275-2.677,2.142-3.946.827-1.2,1.967-2.229,2.881-3.452.885-1.182,1.566-2.549,2.526-3.737.925-1.147,2.084-2.13,3.079-3.271.978-1.123,1.95-2.264,2.98-3.37,1.013-1.094,1.944-2.282,3-3.358,1-1.013,2.223-1.851,3.358-2.852,1.083-.955,2.154-1.967,3.318-2.893,1.147-.908,2.4-1.688,3.6-2.555s2.124-2.119,3.335-2.939c1.24-.844,2.782-1.193,4-1.967,1.28-.815,2.392-1.828,3.614-2.555,1.327-.792,2.532-1.67,3.743-2.346,1.409-.786,2.928-1.094,4.115-1.705,1.566-.809,2.852-1.542,3.876-1.991.023-.006-.07-.221-.07-.221" transform="translate(0.044 79.257)" fill="#84c02d" fill-rule="evenodd"/>
        <path id="패스_4404" data-name="패스 4404" d="M78.692,22.431a29.343,29.343,0,0,1-3.6-1.443,9.687,9.687,0,0,0-3.533-1.164,13.591,13.591,0,0,0-4.429.477,25.446,25.446,0,0,0-4.144,1.746,39.42,39.42,0,0,0-4.069,1.944c-1.234.757-2.5,1.577-3.772,2.5-1.182.856-2.27,1.915-3.475,2.893q-1.711,1.406-3.428,2.939c-1.106.989-2.218,2-3.318,3.067-1.077,1.036-2.09,2.159-3.149,3.248-1.042,1.077-2.334,1.944-3.353,3.062s-1.868,2.386-2.852,3.527-2.177,2.136-3.126,3.3c-.96,1.182-1.921,2.363-2.829,3.55-.937,1.216-1.845,2.439-2.712,3.644-.908,1.257-1.833,2.468-2.648,3.69-.873,1.3-1.257,2.852-2.014,4.086-.832,1.374-1.548,2.707-2.218,3.97-.768,1.449-1.787,2.648-2.3,3.911a21.226,21.226,0,0,0-1.4,4.319c-.338,2.014.14,3.649,1.3,4.249s2.846.477,4.464.623c1.566.14,3.05.279,4.348.279a16.542,16.542,0,0,1,.535-4.7,34,34,0,0,1,2.084-4.348c.634-1.362,1.4-2.747,2.253-4.191.78-1.315,1.292-2.893,2.235-4.261.879-1.269,2.037-2.421,3.044-3.731.955-1.24,1.764-2.654,2.817-3.917,1-1.2,2.421-2.1,3.51-3.318,1.054-1.176,1.932-2.549,3.05-3.743,1.088-1.152,2.043-2.468,3.19-3.626,1.065-1.083,2.5-1.839,3.644-2.916,1.123-1.059,2.188-2.2,3.353-3.23s2.282-2.13,3.463-3.12c1.2-1.019,2.456-1.956,3.649-2.9,1.251-1,2.666-1.711,3.871-2.613,1.3-.978,2.456-2.026,3.667-2.858,1.385-.96,2.514-2.107,3.719-2.84a27.453,27.453,0,0,1,4.278-1.781c.035-.017-.093-.314-.093-.314" transform="translate(78.129 95.446)" fill="#84c02d" fill-rule="evenodd"/>
        <path id="패스_4405" data-name="패스 4405" d="M56.9,1.57c12.194,4.668,26.757,6.915,39.7,10.867,13.6,4.179,11.4,2.887,13.6,4.179,2.718,1.595,5.366,9.569,4.691,12.508a13.366,13.366,0,0,1,1.531,5.861,3.561,3.561,0,0,0-2.258,2.445c17.182,17.939,6.653,46.587-2.253,66.243C104.09,120.586,91.43,133.793,79,147.1c-7.142,11.612-25.808,2.212-39.4-.111-28.52-8.475-24.917-5.9-30.423-33.439-6.688-25.383-5.727-54.072,4.61-78.8A51.864,51.864,0,0,1,25.8,20.818c2.526-2.037,8.731-3.067,10.448-5.57-.955-.815-1.973-1.292-1.729-2.9,1.3-.728,4.883-3.853,5.489-5.454C44.267,2.78,44.518-1.9,56.9,1.57" transform="translate(23.739 1.732)" fill="#261614" fill-rule="evenodd"/>
        <path id="패스_4406" data-name="패스 4406" d="M11.468,6.478q40,10.416,79.8,21.594c2.864.8,4.086-3.649,1.228-4.453Q52.691,12.444,12.7,2.031c-2.875-.751-4.1,3.7-1.228,4.447" transform="translate(47.383 9.384)" fill="#5b4541"/>
        <path id="패스_4407" data-name="패스 4407" d="M14.33,4.569A560.8,560.8,0,0,0,69.77,19.278c2.9.611,4.133-3.836,1.228-4.447A561.987,561.987,0,0,1,15.558.123c-2.835-.914-4.051,3.545-1.228,4.447" transform="translate(61.347 0.001)" fill="#5b4541"/>
        <path id="패스_4408" data-name="패스 4408" d="M29.786,3.539C11.475,13.445,7.2,35.085,5.323,54.1c-2.386,24.2,2.771,47.6,8.451,70.986.7,2.881,5.151,1.659,4.447-1.228-5.046-20.767-10.005-41.768-8.795-63.3C10.5,41.534,13.547,17.566,32.114,7.52c2.613-1.409.291-5.4-2.328-3.981" transform="translate(22.778 15.618)" fill="#5b4541"/>
        <path id="패스_4409" data-name="패스 4409" d="M36.6,24.065A78.878,78.878,0,0,0,25.183,34.274c-1.8,2-3.469,4.121-5.087,6.274-.722.966-1.426,1.956-2.1,2.963-.291.431-.57.867-.85,1.3-.186.291-.367.582-.553.879q1.266-1.362.425-.658,1.6-.934,3.207-1.868,7.386,3.239,4.854,1.048c-.215-.227-.431-.448-.646-.675-.343-.338-.71-.658-1.083-.966a20.766,20.766,0,0,0-4.133-2.823A22.852,22.852,0,0,0,9.7,37.359a7.266,7.266,0,0,0-6.647,4.47c-1.019,2.41-.762,6.2,1.5,7.951,2.654,2.049,5.285,4.144,7.968,6.152,3.166,2.369,7.212,3.783,11.135,2.509,3.614-1.176,6.333-5.093,5.081-8.952-1.17-3.609-5.075-6.338-8.952-5.081-.634.186-.629.2.017.064a2.728,2.728,0,0,1,1.467-.017c.792.2.978.495.1-.035a4.118,4.118,0,0,1-1.094-.739c.681.53.8.623.367.291-.233-.18-.46-.361-.693-.535q-2.549-1.973-5.1-3.946Q12.274,45.7,9.7,51.91c.244,0,.489.012.728.029.57.047.326.006-.728-.122,0,.017,1.118.227,1.187.244.4.1.774.233,1.164.338,1.507.425-1.3-.762.052.023.349.2.71.384,1.053.6.14.081.274.169.407.262.448.3.279.163-.495-.425.53.07,1.356,1.286,1.734,1.641,2.881,2.724,7.375,4.325,11.036,1.967,2.247-1.449,3.428-3.679,4.878-5.826q.725-1.074,1.484-2.124a12.292,12.292,0,0,1,.774-1.036c-1.275,1.356-.087.128.146-.157Q34.828,45.2,36.7,43.232t3.9-3.8q.969-.864,1.961-1.694c.4-.332.8-.652,1.2-.978,1.158-.937-1.118.838.175-.128a7.978,7.978,0,0,0,3.341-4.348,7.435,7.435,0,0,0-.733-5.611c-1.932-3-6.7-5.052-9.953-2.608" transform="translate(11.945 110.79)" fill="#261614"/>
        <path id="패스_4410" data-name="패스 4410" d="M16.623,37.725q.934.681-.39-.326c.233.192.46.384.681.588.332.3.658.617.966.943.093.1.745,1.019.891,1.013q-1-1.336-.314-.4c.175.244.349.495.512.745a22.569,22.569,0,0,1,1.339,2.363c.134.274.262.547.39.826-.4-.978-.5-1.2-.3-.693.175.5.373.989.535,1.5a29.217,29.217,0,0,1,.832,3.306c.052.268.1.53.14.8.128.815.116.7-.029-.338a7.25,7.25,0,0,0,.151,1.606c.192,2.433.012,4.831.017,7.264a9.363,9.363,0,0,0,2.549,6.635,12.709,12.709,0,0,0,5.1,2.823c2.718.96,6.2,1.537,9.016.71C44.433,65.4,46.791,58.178,42.4,53.79c-2.509-2.509-6.606-3.6-10.052-3.521-3.807.081-7.456,3.289-7.276,7.276a7.337,7.337,0,0,0,2.13,5.145,8.539,8.539,0,0,0,5.145,2.13c-2.1-.262.343.07.751.146.535.1,1.065.2,1.595.326s1.059.244,1.583.384c.349.093.7.186,1.048.291.925.285.7.192-.664-.279l-2.613-2.613.122.262q-.367-2.811-.733-5.611,1.537-3.99,5.041-4.284-.524.017-1.048,0c-.227-.006-2.322-.233-1.118-.047,1.222.18-.873-.2-1.088-.256a20.2,20.2,0,0,1-2-.605c-3.6-1.246-8.12,1.42-8.952,5.081a7.455,7.455,0,0,0,5.081,8.952c5.739,1.985,14.825,2.974,17.706-3.847a7.707,7.707,0,0,0-1.589-8.463,11.3,11.3,0,0,0-4.8-2.468,57.659,57.659,0,0,0-8.323-1.519V64.819a3.585,3.585,0,0,0,.966.006c-.413.221-1.618-.343-.274.041.2.058,1.3.39.256.058-.966-.3.041.111.285.291-.867-.873-1.74-1.74-2.608-2.613l.192.3c-.332-1.222-.658-2.445-.989-3.673l.006.285q.5-1.833,1-3.673,2.462-1.475,4.93-2.945c-.25-.006-.506-.017-.757-.035-.943.029,1.333.3.419.07-.739-.192-1.473-.355-2.206-.582-.629-.244-.634-.239-.012.012a2.535,2.535,0,0,1,1.752,2.5c1.63,2.939,1.251,2.9,1.327,1.275.035-.809.064-1.618.076-2.433A46.959,46.959,0,0,0,35.511,42.4,29.217,29.217,0,0,0,23.969,25.159c-3.114-2.206-8.23-.652-9.953,2.613-1.979,3.743-.716,7.6,2.608,9.953" transform="translate(63.018 116.314)" fill="#261614"/>
        <path id="패스_4411" data-name="패스 4411" d="M16.819,28.894a29.791,29.791,0,0,1,2.654,15.68q1.161-1.152,2.311-2.3a7.028,7.028,0,0,0-5.291,1.874c-1.886,1.647.18,4.243,2.247,3.859a15.98,15.98,0,0,1,9.394.96c2.392,1.112,2.1,3.906,1.781,6.135a2.388,2.388,0,0,0,1.612,2.84,2.33,2.33,0,0,0,2.84-1.612c.57-4.028.634-8.55-3.242-10.983-3.894-2.439-9.243-2.6-13.614-1.793l2.247,3.859a2.463,2.463,0,0,1,2.026-.53,2.349,2.349,0,0,0,2.3-2.3A34.348,34.348,0,0,0,20.8,26.566c-1.269-2.683-5.25-.343-3.981,2.328" transform="translate(75.93 122.34)" fill="#5b4541"/>
        <path id="패스_4412" data-name="패스 4412" d="M31.986,24.408a46.894,46.894,0,0,0-5.046,4.749q-1.126,1.231-2.159,2.549c-.338.419-.664.85-.989,1.281-.2.274-.407.547-.605.827-.076.134-.111.111-.1-.052h1.228c-2.433-.378-4.755-1.717-7.148-2.322A16.855,16.855,0,0,0,9.9,31.09C5.573,31.905,1.772,35.706,2.1,40.3c.21,2.945,4.825,2.968,4.616,0-.2-2.718,2.13-4.464,4.639-4.8,3.166-.431,6.315.861,9.225,1.932,1.513.553,3.19,1.292,4.761.483,1.281-.669,1.991-2.043,2.858-3.143a45.649,45.649,0,0,1,7.049-7.1,2.329,2.329,0,0,0,0-3.265,2.363,2.363,0,0,0-3.265,0" transform="translate(10.044 114.498)" fill="#5b4541"/>
        <path id="패스_4413" data-name="패스 4413" d="M105.546,29.712c-5.378,2.881-10.634-1.682-15.011-4.33-3.492-2.107-7.031-3.475-11.169-3.3-5.314.227-10.32,2.3-15.657.8-4.744-1.339-7.8-4.866-11.775-7.468-7.532-4.936-14.19-.495-22.17-.262C21.482,15.388,18.408,5.475,10.5,4.212c-2.9-.466-4.156,3.981-1.228,4.447,7.735,1.234,10.6,10.646,19.138,11.1,4.243.221,8.253-1.409,12.38-2.066,6.333-1.019,9.691,2.677,14.417,6.088a22.6,22.6,0,0,0,11.658,4.266c5.547.4,11.222-2.474,16.681-.931,8.5,2.4,14.726,11.717,24.329,6.577,2.619-1.4.291-5.384-2.328-3.981" transform="translate(36.641 20.142)" fill="#7c4521"/>
        <path id="패스_4414" data-name="패스 4414" d="M111.729,33.481c-3.69,1.921-9.592-.25-13.044-1.985-4.162-2.084-7.619-5.337-12.235-6.478s-9.022.332-13.6.8c-7.083.722-11.577-2.6-16.92-6.659-3.3-2.514-6.752-4.028-10.966-3.818-4.517.221-8.795,2.311-13.317,2.328C22.775,17.7,18.345,6.526,9.667,5.094c-2.9-.483-4.15,3.964-1.222,4.447,8.632,1.426,12.642,11.9,21.768,12.689,5.07.437,9.767-2.031,14.755-2.276,6.484-.326,9.994,5.221,15.2,8.021a22.591,22.591,0,0,0,13.608,2.381c3.16-.4,6.368-1.4,9.575-1.176s5.978,1.932,8.62,3.62c6.036,3.83,14.988,8.358,22.083,4.662,2.637-1.368.3-5.349-2.328-3.981" transform="translate(32.653 24.382)" fill="#7c4521"/>
        <path id="패스_4415" data-name="패스 4415" d="M14.989,19.752a49.492,49.492,0,0,1,14.534-5.82c3.859-.821,9.54-.437,10.378,4.394.751,4.348-.885,9.516-2.893,13.317a16.374,16.374,0,0,1-4,5.436,3.049,3.049,0,0,1-1.961.78c-.355-.035-1.339-.442-1.24-.931.553-2.747-3.655-3.917-4.208-1.164a5.16,5.16,0,0,0,2.544,5.6,6.389,6.389,0,0,0,6.484-.128,15.6,15.6,0,0,0,4.936-5.3,30.931,30.931,0,0,0,3.254-6.833C44.3,24.7,45.54,18.5,43,14.258c-2.625-4.383-8.015-5.524-12.735-4.866-6.123.856-12.182,3.5-17.485,6.589-2.421,1.42-.227,5.192,2.206,3.772" transform="translate(56.55 44.443)" fill="#7c4521"/>
        <path id="패스_4416" data-name="패스 4416" d="M15.675,19.886a47.811,47.811,0,0,1,9.377-4.15,21.238,21.238,0,0,1,4.744-.879,16.639,16.639,0,0,1,2.223.058c.134.012.332.163.134,0,.18.151.186.32.25.64-.023-.116.029.477.023.617,0,.192-.023.582-.035.664a14.337,14.337,0,0,1-.471,1.956,16.007,16.007,0,0,1-1.525,3.486,17.91,17.91,0,0,1-5.25,5.727,17.576,17.576,0,0,1-3.888,2.066A18.946,18.946,0,0,1,19,30.735c-.338.076-.681.14-1.024.2l-.349.029.541.821a2.328,2.328,0,0,0-2.311-2.311,2.362,2.362,0,0,0-2.3,2.311,3.469,3.469,0,0,0,1.67,3.19,5.24,5.24,0,0,0,3.7.454,20.667,20.667,0,0,0,5.483-1.7,22.551,22.551,0,0,0,8.585-7.037,19.047,19.047,0,0,0,4.057-10.378,5.851,5.851,0,0,0-2.462-5.273c-2-1.263-4.814-.867-7.025-.553-5.064.716-9.755,3-14.208,5.419-2.608,1.414-.285,5.4,2.328,3.981" transform="translate(58.833 49.023)" fill="#7c4521"/>
        <path id="패스_4417" data-name="패스 4417" d="M12.583,16.773a7.613,7.613,0,0,0-.658,2.45A7.342,7.342,0,0,0,13.951,24.8a6.321,6.321,0,0,0,3.486,1.88,7.7,7.7,0,0,0,4.453-.611,6.684,6.684,0,0,0,3.178-3.027,2.306,2.306,0,1,0-3.981-2.328,3.66,3.66,0,0,1-.215.39l-.122.186c-.134.186-.081.122.163-.2-.186.18-.355.384-.541.559-.279.268.506-.349.023-.017-.093.058-.186.122-.285.175-.128.076-.262.14-.4.21-.343.18.6-.215.035-.017a6.564,6.564,0,0,1-.757.2c-.39.087.664-.052.058-.012a3.157,3.157,0,0,1-.332.012c-.151,0-.3-.012-.442-.017-.4-.023.652.128.064-.006-.111-.023-.215-.052-.326-.087-.07-.017-.14-.047-.21-.07-.221-.087-.14-.052.239.1a6.968,6.968,0,0,0-.669-.4c.314.256.384.308.2.157a2.018,2.018,0,0,1-.169-.146,4,4,0,0,1-.308-.32c-.14-.151-.239-.442.081.122-.076-.128-.175-.244-.25-.372s-.151-.256-.215-.39c-.093-.2-.1-.489.052.14-.07-.291-.186-.565-.244-.861-.047-.215.017-.518.012.175.006-.151-.023-.3-.023-.448,0-.128.006-.256.012-.384.012-.524-.116.524-.023.116.035-.146.064-.291.1-.437.052-.175.274-.687-.041.029a2.513,2.513,0,0,0,.233-1.775,2.306,2.306,0,0,0-2.835-1.612,2.226,2.226,0,0,0-1.379,1.059" transform="translate(57.379 75.32)" fill="#fff"/>
        <path id="패스_4418" data-name="패스 4418" d="M17.452,18.83A3.524,3.524,0,1,1,14.9,14.547a3.524,3.524,0,0,1,2.549,4.284" transform="translate(50.665 69.601)" fill="#fff"/>
        <path id="패스_4419" data-name="패스 4419" d="M22.041,19.991a3.524,3.524,0,1,1-2.549-4.284,3.524,3.524,0,0,1,2.549,4.284" transform="translate(72.786 75.197)" fill="#fff"/>
      </g>
    </g>
  </g>
</svg>
