<svg id="그룹_1226" data-name="그룹 1226" xmlns="http://www.w3.org/2000/svg" xmlns:xlink="http://www.w3.org/1999/xlink" width="198.613" height="189.763" viewBox="0 0 198.613 189.763">
  <defs>
    <clipPath id="clip-path">
      <rect id="사각형_1977" data-name="사각형 1977" width="198.613" height="189.763" fill="none"/>
    </clipPath>
  </defs>
  <g id="그룹_1225" data-name="그룹 1225" transform="translate(0 0)" clip-path="url(#clip-path)">
    <path id="패스_4185" data-name="패스 4185" d="M58.394,27.237c-2-1.015-1.176,1.271-2.885,3.368-.827,1.021-1.67,2.314-2.78,3.534-.965,1.054-1.925,2.247-3.052,3.324-1.076,1.032-2.2,2.081-3.379,3.018a31.836,31.836,0,0,1-3.812,2.447,18.775,18.775,0,0,1-4.062,2.009,9.965,9.965,0,0,1-4.456-.1,7.826,7.826,0,0,1-3.945-1.77c-1.171-.977-2.225-1.914-3.163-2.869A39.55,39.55,0,0,1,23.9,37.13a34.3,34.3,0,0,1-2.613-3.4,21.789,21.789,0,0,1-1.531-4.051c-.932-2.5-1.6-1.986-1.038-4.012.544-1.936.893-1.615,1.687-3.64a15.634,15.634,0,0,0,1.121-3.906,3.624,3.624,0,0,0-1.382-3.557c-1.426-.977-2.663-.916-3.568-.194-1.365,1.088-.133,3.845-2.025,3.568-2.508-.366-1.5-2.68-3.607-3.679a3.975,3.975,0,0,0-4.8.682,3.446,3.446,0,0,0-.477,4.583c1.16,1.853,2.641,5.343,3.357,3.007.755-2.452-2.114-1.709-4.511-1.626A4.684,4.684,0,0,0,.367,23.874a3.847,3.847,0,0,0,1.2,4.744c1.8,1.415,3.468-.533,4.866,1.559,1.132,1.692-1.981,1.06-3.03,2.785a4.363,4.363,0,0,0-.627,3.912,4.649,4.649,0,0,0,4.1,2.674c2.391.261,2.48-1.11,4.9-.533,2.247.538,1.032,1.409,2.7,3.662.8,1.082,1.554,2.491,2.652,3.8.938,1.121,2.02,2.264,3.135,3.429,1.049,1.088,2.3,2.053,3.473,3.079a39.717,39.717,0,0,0,3.534,3.046,26.575,26.575,0,0,0,4.2,1.992,17.718,17.718,0,0,0,4.378,1.4,13.173,13.173,0,0,0,4.65.333c1.437-.283,2.691-1.315,4.112-2.186,1.26-.777,2.669-1.248,3.8-2.042,1.221-.854,2.375-1.726,3.451-2.58,1.171-.932,2-2.158,3.007-3.074C56,48.865,57.107,47.966,58.039,47c1.088-1.126,2.12-2.131,2.963-3.135,1.054-1.26,2.125-2.258,2.819-3.24,1.554-2.186,3.013-1.792,2.247-3.756-.738-1.9-1.42-1.554-2.663-3.174A20.277,20.277,0,0,1,61,30.388c-1.043-1.809-.782-2.225-2.608-3.152" transform="translate(-0.001 62.557)" fill="#373e3d" fill-rule="evenodd"/>
    <path id="패스_4186" data-name="패스 4186" d="M110.964,30.176c1.6-1.487.322-2.147-.488-4.583a10.538,10.538,0,0,0-2.114-3.856,16.771,16.771,0,0,0-3.451-2.719,23.53,23.53,0,0,0-3.773-2.286c-1.221-.5-2.88-.117-4.411-.544-1.293-.361-2.558-1.215-4.095-1.509-1.326-.255-2.774-.366-4.3-.566-1.365-.172-2.841.017-4.378-.105C82.567,13.9,81.135,13,79.6,12.942c-2.414-.022-2.419.56-4.833.56s-2.425-.194-4.844-.194-2.63,1.065-4.877.166c-1.942-.777.688-1.975.472-4.295a17.016,17.016,0,0,0-1.049-4.134c-.488-1.309-1.8-2.064-2.858-2.985A5.924,5.924,0,0,0,58.108.407,18.989,18.989,0,0,0,53.353.074a6.093,6.093,0,0,0-4.084,2.353C48.381,3.67,48.359,5.334,48.176,7c-.155,1.409-.671,2.763-.666,3.962.006,2.3,1.365,2.147.05,3.629-1.52,1.715-1.359.938-4.139,1.237-1.321.139-2.9-.028-4.583.189-1.432.189-3.013.055-4.594.305-1.476.227-2.946.771-4.472,1.06-1.509.289-3.068.4-4.544.744-1.543.361-2.974,1.01-4.389,1.437-1.554.477-3.207.5-4.5,1.06-1.6.7-2.491,2.192-3.479,3.035-1.371,1.176-2.275,2.125-1.925,3.6.227.971,1.276,2.12,3.285,2.769A30.8,30.8,0,0,0,18.513,31.1c1.309.227,2.791.411,4.361.583,1.365.15,2.9-.533,4.433-.422,1.393.105,2.819.76,4.333.838,1.415.067,2.891-.289,4.395-.239,1.426.044,2.88.677,4.372.7,1.432.022,2.9-.461,4.383-.455,1.448.011,2.907.51,4.389.51,1.448-.006,2.919-.067,4.395-.083,1.454-.011,2.919-.017,4.389-.044s2.919-.793,4.389-.827,2.963.444,4.433.4,2.963-.072,4.428-.122c1.481-.044,2.941-.216,4.389-.272,1.487-.05,2.946-.422,4.389-.483,1.493-.061,2.969.039,4.406-.022,1.5-.067,2.98.028,4.4-.044,1.515-.072,2.957-.61,4.361-.682,1.537-.083,3.057.749,4.439.671,1.587-.089,3.063-.222,4.406-.305,1.676-.1,3.163-.067,4.395-.144,2.752-.172,2.98.988,4.567-.488" transform="translate(49.391 -0.002)" fill="#373e3d"/>
    <path id="패스_4187" data-name="패스 4187" d="M112.731,5.32c2.219-.533,2.147-1.143,4.478-.638a6.553,6.553,0,0,1,3.734,2.58,11.419,11.419,0,0,1,1.925,4.106,27.773,27.773,0,0,1,.272,4.517,39.365,39.365,0,0,1,.122,4.555c-.078,1.47-.394,2.957-.411,4.467-.011,1.47-.094,2.969-.072,4.467.017,1.476.461,2.963.488,4.461.028,1.481.011,2.974.022,4.472s-.338,2.974-.372,4.472.411,3,.311,4.494-.433,2.957-.621,4.439-.033,3.035-.338,4.5-1.3,2.741-1.742,4.173a42.142,42.142,0,0,1-1.2,4.311c-.583,1.354-1.731,2.419-2.486,3.734a37.571,37.571,0,0,1-2.469,3.668c-.86,1.165-1.1,2.88-2.142,4.006-.982,1.065-2.636,1.509-3.79,2.536-1.082.96-1.776,2.469-3.018,3.39a33.158,33.158,0,0,1-3.69,2.652,42.022,42.022,0,0,1-4.145,1.848c-1.354.566-3.035.333-4.483.8-1.4.449-2.647,1.548-4.123,1.909-1.437.35-3.052-.05-4.539.227-1.459.266-2.935.416-4.433.616-1.476.2-2.946.35-4.444.488s-2.946.677-4.444.76-2.985.533-4.483.572-3.018-.283-4.511-.289c-1.526,0-3.035-.283-4.522-.327-1.526-.039-3.041.255-4.511.183-1.537-.078-3.018-.461-4.472-.566-1.548-.111-3.091.344-4.528.216-1.565-.144-3.079-.15-4.494-.305-1.609-.183-3.007-1.221-4.378-1.4-1.7-.227-3.313.394-4.567.2-2.769-.427-2.286-.283-4.256-1.293-2.042-1.043-.988-1.4-2.852-3.534-.866-.993-2.419-1.731-3.457-3.118-.854-1.137-1.21-2.774-2.092-4.156-.793-1.237-1.759-2.43-2.514-3.84-.7-1.315-2.031-2.408-2.652-3.862-.594-1.387-.522-3.085-1-4.583a43.081,43.081,0,0,1-1.271-4.433,39.2,39.2,0,0,1-.943-4.555,37.848,37.848,0,0,1-.322-4.661c.044-1.476.1-2.935.105-4.4.006-1.487.433-2.969.405-4.433-.022-1.493-.039-2.974-.078-4.433-.039-1.5.161-2.985.128-4.439-.039-1.5-.6-2.974-.621-4.406-.011-1.515.533-2.98.566-4.395.039-1.543-.017-3.013.105-4.411a41.6,41.6,0,0,1,.277-4.417A19.759,19.759,0,0,1,11.4,11.961,10.488,10.488,0,0,1,14.143,8.41a9.239,9.239,0,0,1,4.1-1.715c1.026-.205,2.586-.05,4.5-.211,1.321-.105,2.791-.716,4.461-.8,1.387-.078,2.9-.072,4.489-.139,1.42-.055,2.924-.028,4.489-.072,1.448-.044,2.941-.338,4.483-.377,1.459-.033,2.974.838,4.5.81,1.47-.028,2.957-.633,4.478-.66,1.481-.022,2.985.094,4.5.078,1.481-.017,2.974-.239,4.478-.255s3-.305,4.5-.316S66.139,5,67.648,5s3.03.1,4.533.1c1.526-.006,3.041.266,4.539.266,1.526,0,3.03.344,4.511.344,1.531,0,3.041-.472,4.511-.472,1.543.006,3.052.255,4.511.255,1.554.006,3.057-.183,4.5-.178,1.576.006,3.079.383,4.5.394,1.631.011,3.146-.311,4.533-.3,1.715.011,3.229-.05,4.5-.039,2.824.028,2.286.472,4.444-.05" transform="translate(41.993 20.438)" fill="#373e3d"/>
    <path id="패스_4188" data-name="패스 4188" d="M30.668,14.475c1.764-1.321,2.208.205,4.417.205s2.2-.028,4.411-.028,2.208-.377,4.422-.377,2.436,1.226,4.25-.039c2.2-1.531-.5-2.464-.527-5.066-.028-2.264.461-4.544,1.864-4.755.777-.117,2.408.1,4.4-.072,1.321-.111,2.791-.488,4.345-.572,1.454-.078,2.952-.216,4.406-.233,1.554-.017,3.074-.133,4.411-.044A10.942,10.942,0,0,1,71.24,4.67c.621.316,1.076,1.653,1.459,3.912.211,1.248.766,2.7.916,4.361.122,1.365.055,2.863.139,4.428.083,1.42.255,2.9.311,4.428.05,1.448-.105,2.941-.078,4.444.028,1.476.272,2.963.283,4.444.011,1.5-.261,3-.266,4.456-.006,1.531.072,3.03.055,4.461-.017,1.565.133,3.063.1,4.444-.033,1.648-.433,3.135-.477,4.422-.072,2.142.239,3.734.166,4.456-.455,4.755-.9,2.7-3.462,4.25-1.615.977.022,2.014-.8,3.607A3.01,3.01,0,0,1,66.673,62.6c-.716,0-2.219.416-4.234.533-1.248.072-2.713-.239-4.272-.139-1.343.089-2.747.616-4.217.716-1.393.094-2.841-.072-4.272.033s-2.869.294-4.261.394c-1.487.111-2.919.316-4.261.416-1.581.117-3.035.083-4.272.172-2.569.194-3.873,2.353-4.128.255-.25-2.081.233-2.075.821-4.089s1.121-1.859,1.709-3.878-.655-2.713.927-4.095c1.52-1.321,1.959-.522,3.962-.76s2.009-.161,4.006-.4,2.053.133,4.067-.111,2.014-.216,4.023-.461,1.981-.588,4-.832,2.869,1.321,4.222-.189c1.526-1.7-.061-2.436.178-4.705s.5-2.236.738-4.505.333-2.253.566-4.511-.311-2.319-.078-4.578.583-2.236.821-4.505.033-2.3.266-4.572.233-2.28.466-4.561,1.687-2.5.422-4.417c-.96-1.448-1.537.083-3.279.083s-2.2-1.4-3.407-.144c-1.432,1.5-.549,1.959-.777,4.017s.189,2.108-.044,4.173,1.093,2.93-.51,4.25c-1.787,1.476-2.436-.316-4.761-.277s-2.308.444-4.622.483c-2.33.039-2.33.128-4.655.166s-2.336-.072-4.666-.039-2.347-.305-4.683-.266-3.124,2-4.733.305c-1.415-1.493.827-1.986,1.309-3.984a14.133,14.133,0,0,0,.6-4.084c.083-2.181-.633-2.785,1.021-4.017" transform="translate(124.044 15.744)" fill="#373e3d"/>
    <path id="패스_4189" data-name="패스 4189" d="M46.688,14.76c-1.764-1.321-2.053-.35-4.256-.35s-2.208.161-4.411.161-2.214-.105-4.428-.105-2.519,1.232-4.333-.033c-2.2-1.531.744-2.586.771-5.188.022-2.264-.633-4.461-2.036-4.677-.777-.117-2.353-.472-4.345-.644-1.321-.111-2.83-.028-4.389-.111-1.448-.072-2.946-.35-4.4-.366-1.559-.017-3.052.372-4.389.466-1.859.128-3.523-.017-4.4.422C5.445,4.645,5.379,6.426,5,8.69c-.211,1.248-.755,2.68-.9,4.339-.128,1.365-.083,2.858-.172,4.422-.078,1.42-.022,2.907-.072,4.433-.05,1.448-.411,2.93-.444,4.428-.028,1.476.011,2.969,0,4.444-.011,1.5-.117,3-.111,4.461,0,1.531-.055,3.03-.039,4.467.017,1.565.394,3.046.427,4.433.033,1.648-.144,3.146-.105,4.433.078,2.142.122,3.718.189,4.439.461,4.755.8,2.719,3.362,4.267,1.615.977-.289,2.142.538,3.74a3.6,3.6,0,0,0,3.179,2.059c.716,0,2.231-.166,4.245-.05,1.248.072,2.686.139,4.245.244,1.343.083,2.8-.094,4.272.006,1.393.1,2.808.405,4.234.5s2.874.244,4.267.344c1.487.105,2.946-.044,4.289.055,1.581.117,2.985.771,4.217.866,2.575.194,3.945,2.131,4.2.033.25-2.081-.316-2.075-.9-4.084s-.866-1.936-1.454-3.956.627-2.869-.96-4.25c-1.52-1.321-2.17-.133-4.173-.377s-1.986-.333-3.984-.572-2.042.033-4.056-.211-1.986-.455-4-.7-2.014-.277-4.034-.516-2.6,1.11-3.956-.405c-1.526-1.7-.566-2.153-.8-4.422s-.117-2.275-.35-4.544-.35-2.247-.583-4.511-.161-2.269-.394-4.528-.006-2.3-.244-4.567-.067-2.292-.305-4.567-.205-2.28-.444-4.567-1.964-2.591-.7-4.505c.954-1.454,1.7-.261,3.44-.261s2.092-.843,3.29.416c1.432,1.5.655,1.848.882,3.906s.083,2.081.316,4.145-1.426,3.052.172,4.372c1.792,1.476,2.514-.211,4.838-.178s2.314-.028,4.633.011,2.325.011,4.655.05,2.33-.033,4.666.006,2.336-.022,4.677.011,3.068,2.025,4.677.327c1.415-1.493-.494-2-.977-4s-1.054-1.942-1.182-4c-.139-2.086.771-2.591-.882-3.823" transform="translate(14.785 15.675)" fill="#373e3d"/>
    <path id="패스_4190" data-name="패스 4190" d="M30.676,25.47c-.522,2.192,1.337.843,3.784,2.02,1.182.572,2.7.965,4.139,1.764,1.254.688,2.6,1.415,3.912,2.253,1.254.81,2.547,1.648,3.729,2.575a32.608,32.608,0,0,1,3.4,3.024,17.991,17.991,0,0,1,2.347,3.856,10.054,10.054,0,0,1,1.67,4.112,8.562,8.562,0,0,1-.677,4.5A41.528,41.528,0,0,1,50.64,53.2,37.651,37.651,0,0,1,48.2,56.725a31.278,31.278,0,0,1-2.9,3.124,25.926,25.926,0,0,1-3.313,2.78c-2.219,1.481-1.681,1.892-3.784,1.809-2.009-.078-1.742-.782-3.9-1.082a15.574,15.574,0,0,0-4.067.233c-1.515.205-2.774.7-3.251,1.959a2.719,2.719,0,0,0,.838,3.418c1.371,1.071,3.64-.633,3.812,1.276.227,2.519-2.264,2.07-2.747,4.356a3.708,3.708,0,0,0,2.025,4.161,2.871,2.871,0,0,0,4.112-.488c1.537-1.554,1.648-1.715,2.264-4.078.461-1.776.061,1.781.017,3.673-.033,1.293-.244,2.663.255,3.6.538.993,1.432,1.182,3.107.6,1.831-.638,3.329-1.137,4.039-2.153,1.454-2.075-1.043-3.229.916-4.417,1.742-1.054,1.332,1.42,3.251,2.036A4.036,4.036,0,0,0,52.627,77a4.241,4.241,0,0,0,1.748-4.322c-.3-2.38-1.909-2.164-1.909-4.65,0-2.314,1.587-1.237,3.39-3.379.866-1.032,2.025-2.131,3.041-3.5.871-1.171,1.326-2.758,2.2-4.112.816-1.276,1.925-2.43,2.658-3.817a39.769,39.769,0,0,0,1.881-4.261,27.044,27.044,0,0,0,1.409-4.439,17.956,17.956,0,0,0,.083-4.655,12.863,12.863,0,0,0-1.287-4.378,12.511,12.511,0,0,0-2.58-3.74c-1.049-1.049-1.859-2.286-2.9-3.207-1.11-.988-2.436-1.637-3.518-2.491-1.176-.921-2.147-2.02-3.268-2.785-1.248-.86-2.547-1.493-3.7-2.175-1.348-.8-2.735-1.248-3.906-1.831-1.47-.732-2.625-1.648-3.74-2.1-2.491-1-2.219-2.364-3.951-1.165-1.681,1.16-1.432,1.42-2.719,3.007a24.491,24.491,0,0,1-2.6,3.146c-1.459,1.437-1.8,1.332-2.28,3.324" transform="translate(121.567 70.616)" fill="#373e3d" fill-rule="evenodd"/>
    <path id="패스_4191" data-name="패스 4191" d="M21.5,15.184c0,.122.011.25.011.372.011.427-.111-.56,0-.039.028.122.061.239.094.355l.061.178q.125.325-.083-.183c.144.178.227.449.361.649.111.166.338.338-.05-.05.083.089.161.189.244.277A2.954,2.954,0,0,0,22.4,17c.061.055.122.111.189.161-.083-.061-.166-.128-.25-.194a6.235,6.235,0,0,1,.682.416c.438.216-.283-.089-.072-.028.139.044.272.094.411.128a3.454,3.454,0,0,1,.361.072c-.111-.011-.222-.028-.338-.044l.25.017c.122,0,.244-.006.372-.011.438-.011-.527.122-.1.017a4.407,4.407,0,0,1,.71-.2c-.333.15-.394.172-.183.078a1.164,1.164,0,0,0,.166-.083c.105-.055.216-.117.322-.183.072-.044.416-.327.133-.072-.305.266.105-.1.155-.15.089-.083.178-.172.261-.261.117-.128.311-.455-.028.061a7.381,7.381,0,0,0,.4-.621c.039-.072.072-.15.105-.222l-.122.3a2.154,2.154,0,0,1,.117-.35c.044-.139.067-.277.1-.416.033-.178.022-.083-.033.277.011-.083.017-.166.022-.25a2.2,2.2,0,1,1,4.395,0,6.875,6.875,0,0,1-6.792,6.481A6.879,6.879,0,0,1,17.1,15.184a2.2,2.2,0,0,1,4.4,0" transform="translate(77.768 59.063)" fill="#fff"/>
    <path id="패스_4192" data-name="패스 4192" d="M22.808,13.551a3.561,3.561,0,1,1-4.073-2.963,3.563,3.563,0,0,1,4.073,2.963" transform="translate(71.536 47.962)" fill="#fff"/>
    <path id="패스_4193" data-name="패스 4193" d="M27.546,14.1a3.561,3.561,0,1,1-4.073-2.963A3.563,3.563,0,0,1,27.546,14.1" transform="translate(93.087 50.477)" fill="#fff"/>
    <path id="패스_4194" data-name="패스 4194" d="M2.685,48.764l.527,6.009L6.253,60.15,11.8,62.891l4.112,4.528,6,1.221,5.654,1.515,5.438,2.036,5.51,1.942,5.793.827L50.059,76l5.865.222,5.759,1.221L67.5,78.948l5.909-1.015,5.92,1.332,5.937.039,5.815-1.332,5.6-2.425,6.126,1,5.4-2.852,5.643-1.5,5.859-.916,5.332-2.447,5.066-2.919,5.7-2.031,4.089-4.4,2.158-5.454,1.964-5.266-.266-6.076-3.557-4.972-5.216-3.035-4.561-3.712-5.9-1.21-4.605-4.228L114.2,24.056l-5.97-.327-5.4-2.791-6.015.311-5.66-2.231-5.92-.111-5.882-1-5.937,2.43-5.87-.627-5.954-1.1-5.66,2.647-6.115-1.52-5.726,1.6-5.46,2.547-5.9.6L27.493,27.3l-6.259.172-5.415,2.563-4.267,4.333L7.1,38.2,3.955,43.126Z" transform="translate(12.212 81.457)" fill="#f4e93d" fill-rule="evenodd"/>
    <path id="패스_4195" data-name="패스 4195" d="M36.184,24.375l.117,5.909L35.246,36.3l.017,6.059-.272,6.054L34.6,54.443,34.3,60.5l.388,6.1-.8,6.065-.111,6.126-8.018-.377.388-5.654-.122-6-.178-6.015.827-5.965-.205-6.02.438-6.015L26.99,36.7l-.028-6,4.911-2.808Z" transform="translate(117.165 110.871)" fill="#f4e93d" fill-rule="evenodd"/>
    <path id="패스_4196" data-name="패스 4196" d="M30.444,24.428,29.939,30l.277,6.081-.327,6.048-.522,6.042.083,6.042-.216,6.065-.416,6.059-.455,6.081-.394,5.765-8.118.461L19.791,72.5l.921-5.976.139-6.009-.022-5.987.316-6.009-.111-6.026-.055-6.048L21.5,30.5l4.439-3.429Z" transform="translate(90.021 111.113)" fill="#f4e93d" fill-rule="evenodd"/>
    <path id="패스_4197" data-name="패스 4197" d="M3.767,24.381l.355,5.854.621,6.037.022,6.059-.178,6.076.76,6,.033,6.07.322,6.07.183,6.087.533,5.743,7.923.239-.355-5.893-.25-6,.494-6.026-.877-5.959.133-6.02.017-6.031-.139-6.037L12.9,30.7,8.638,26.984Z" transform="translate(17.134 110.902)" fill="#f4e93d" fill-rule="evenodd"/>
    <path id="패스_4198" data-name="패스 4198" d="M8.97,24.306,9.164,30.6l.877,6.026L9.8,42.694l.81,6.026-.028,6.042.638,6.042-.333,6.1.744,6.065.333,5.66L19.7,78.8l-.122-5.743-.483-5.987.25-6.02-.166-5.981.338-6.026-1.154-5.993.089-6.048-.022-5.993-4.683-3.141Z" transform="translate(40.802 110.559)" fill="#f4e93d" fill-rule="evenodd"/>
    <path id="패스_4199" data-name="패스 4199" d="M142.462,30.7C123.968,48.762,92.8,52.363,68.216,51.021c-12.978-.71-27.111-2.253-39.373-6.742-9.316-3.412-20.075-8.656-25.784-17.1-1.587-2.347,2.214-4.55,3.8-2.219C12.7,33.592,26,39.274,35.723,41.771a167.888,167.888,0,0,0,34.884,4.96c22.688.9,51.685-2.48,68.736-19.143,2.036-1.975,5.144,1.132,3.118,3.113" transform="translate(12.184 109.041)" fill="#373e3d"/>
    <path id="패스_4200" data-name="패스 4200" d="M142.462,29.163C123.968,47.224,92.8,50.825,68.216,49.482c-12.978-.71-27.111-2.253-39.373-6.742-9.316-3.412-20.075-8.656-25.784-17.1-1.587-2.347,2.214-4.55,3.8-2.219C12.7,32.054,26,37.736,35.723,40.233a167.888,167.888,0,0,0,34.884,4.96c22.688.9,51.685-2.48,68.736-19.143,2.036-1.975,5.144,1.132,3.118,3.113" transform="translate(12.184 102.045)" fill="#373e3d"/>
    <path id="패스_4201" data-name="패스 4201" d="M25.712,54.909q.608-13.392-.072-26.8c-.139-2.83,4.256-2.819,4.406,0q.666,13.392.067,26.8c-.128,2.819-4.528,2.835-4.4,0" transform="translate(116.611 118.225)" fill="#373e3d"/>
    <path id="패스_4202" data-name="패스 4202" d="M19.576,50.981q.241-10.42.488-20.846c.067-2.824,4.467-2.835,4.4,0q-.25,10.42-.488,20.846c-.067,2.824-4.467,2.835-4.4,0" transform="translate(89.039 127.419)" fill="#373e3d"/>
    <path id="패스_4203" data-name="패스 4203" d="M10.23,52.312,8.565,29.624a2.214,2.214,0,0,1,2.2-2.2,2.245,2.245,0,0,1,2.2,2.2L14.63,52.312a2.2,2.2,0,0,1-4.4,0" transform="translate(38.937 124.728)" fill="#373e3d"/>
    <path id="패스_4204" data-name="패스 4204" d="M7.777,27.454q-.008,16.954-.011,33.9c0,2.83-4.4,2.835-4.4,0q.008-16.954.011-33.9c.006-2.83,4.4-2.835,4.4,0" transform="translate(15.311 115.213)" fill="#373e3d"/>
    <path id="패스_4205" data-name="패스 4205" d="M18.043,43.216l4.927,1.271L28.1,45.513l5.216-.4,5.449-.133L41.8,41.213l5.5.583,5.748-.1,3.84-4.289L56.8,31.885l-4.522-3.268-5.349-2.175.8-5.371-5.255-2.547-5.787-1.271L30.75,16.61l-5.981.316-5.71,1.687L13.948,21.2l-.56,5.565.338,5.782,1.62,5.582ZM44.9,36.951l1.692-5.92,4.134,1.986.122,3.962Z" transform="translate(60.897 75.553)" fill="#fff" fill-rule="evenodd"/>
    <path id="패스_4206" data-name="패스 4206" d="M14.06,20.571l6.026,2.952,7.2.688,7.2-.716,5.937-2.924-5.959-2.78-7.174-.416-7.213.178Z" transform="translate(63.956 79.031)" fill="#855224" fill-rule="evenodd"/>
    <path id="패스_4207" data-name="패스 4207" d="M61.565,7.874a81.791,81.791,0,0,0-23.421-.266l1.742-2.28a56.19,56.19,0,0,1,.51,11.092c-.044.871-.788,1.936-1.8,1.8a40.3,40.3,0,0,0-7.224-.316c-2.319.105-2.314-3.5,0-3.607a40.3,40.3,0,0,1,7.224.316l-1.8,1.8a51.122,51.122,0,0,0-.383-10.132A1.85,1.85,0,0,1,38.144,4a85.069,85.069,0,0,1,24.381.394c2.286.366,1.315,3.84-.96,3.479" transform="translate(134.784 15.043)" fill="#cfd4e2"/>
    <path id="패스_4208" data-name="패스 4208" d="M38.89,17.1l-5.682-.033c-1.531-.006-3.379.255-4.85-.277-2.813-1.021-2.641-5.332-3.063-7.774-.061-.338-.233-1.215-.244-1.221-.466-.305-1.892-.094-2.452-.117-1.87-.072-3.734-.144-5.61-.222Q11.222,7.231,5.443,7c-2.314-.094-2.325-3.7,0-3.607l10.892.433q2.8.108,5.61.222c1.481.055,3.346-.15,4.722.51,2.569,1.226,2.4,5.271,2.813,7.663.139.793.006,1.065.721,1.221a13.451,13.451,0,0,0,2.674.017l6.015.033c2.319.011,2.325,3.618,0,3.607" transform="translate(16.846 15.433)" fill="#cfd4e2"/>
    <path id="패스_4209" data-name="패스 4209" d="M31.466.09c2.608-.3,3.806,3.046,2.785,5.022C33.1,7.326,30.3,7.4,28.142,7.47a23.447,23.447,0,0,1-7.174-.638,4.994,4.994,0,0,1-3.2-1.959,2.173,2.173,0,0,1,1.742-3.357,1.818,1.818,0,0,1,1.8,1.8,1.84,1.84,0,0,1-1.8,1.8l-.111.006c.3-.078.6-.161.91-.244.072-.061.15-.122.227-.183.155-.261.305-.527.461-.793a.945.945,0,0,0-.067-.76c-.055-.111-.061-.122-.011-.033.15.227-.205-.261-.222-.216a7.949,7.949,0,0,0,.81.322,12.461,12.461,0,0,0,2.158.51,28.028,28.028,0,0,0,4.25.139c.688-.022,1.382-.028,2.07-.094.089-.011.277-.05.083-.011.189-.033.366-.083.549-.128.083-.017.261-.083.078-.006,0,0,.4-.222.283-.139-.161.111.233-.183.222-.222-.017-.055-.289.455-.178.261.139-.227-.033-.211.017.006-.105-.438.111.25.022-.006-.072-.211-.067-.211.033-.017-.05-.105-.244-.25-.067-.139a2.557,2.557,0,0,0,.455.294c-.311-.122.372-.017-.017.028a1.814,1.814,0,0,1-1.8-1.8,1.848,1.848,0,0,1,1.8-1.8" transform="translate(79.296 0.326)" fill="#cfd4e2"/>
    <path id="패스_4210" data-name="패스 4210" d="M23.641,2.631q.283,3.429.56,6.864a1.818,1.818,0,0,1-1.8,1.8,1.844,1.844,0,0,1-1.8-1.8q-.283-3.429-.56-6.864a1.81,1.81,0,0,1,1.8-1.8,1.848,1.848,0,0,1,1.8,1.8" transform="translate(91.11 3.761)" fill="#cfd4e2"/>
    <path id="패스_4211" data-name="패스 4211" d="M37.083,5.825C31.041,6.89,24.954,7.905,18.8,7.273A1.859,1.859,0,0,1,17,5.47a1.814,1.814,0,0,1,1.8-1.8c5.843.6,11.58-.311,17.323-1.321a1.861,1.861,0,0,1,2.219,1.26,1.82,1.82,0,0,1-1.26,2.219" transform="translate(77.313 10.511)" fill="#cfd4e2"/>
    <path id="패스_4212" data-name="패스 4212" d="M85.043,2.518c4.328,1.642,9.638,6.586,4.145,10.6-2.907,2.131-7.3,2.536-10.714,3.235-4.544.932-9.139,1.631-13.75,2.125a139.438,139.438,0,0,1-28.22.133c-8.168-.793-16.424-2.208-23.221-7.1C11.413,10.17,13.211,7.04,15.1,8.4c10.2,7.346,24.836,7.424,36.926,7.241A137,137,0,0,0,71.954,13.9c3.252-.533,6.492-1.176,9.7-1.942a22.846,22.846,0,0,0,3.634-.938q2.888-.449,1.21-3.878A10.952,10.952,0,0,0,84.083,6c-2.147-.816-1.215-4.306.96-3.479" transform="translate(56.83 10.882)" fill="#cfd4e2"/>
    <path id="패스_4213" data-name="패스 4213" d="M113.145,5.529c1.432,10.559-14.132,13.178-21.678,14.687a149.154,149.154,0,0,1-33.247,2.608c-10.165-.283-20.547-1.321-30.345-4.139-6.109-1.764-13.566-4.395-16.929-10.243-1.16-2.014,1.959-3.834,3.113-1.82,2.863,4.972,9.627,7.1,14.776,8.584a113.215,113.215,0,0,0,25.435,3.856A158.321,158.321,0,0,0,81.5,18.18c5.415-.66,29.33-3.152,28.17-11.691-.305-2.269,3.168-3.251,3.479-.96" transform="translate(48.626 19.212)" fill="#cfd4e2"/>
    <path id="패스_4214" data-name="패스 4214" d="M49.588,4.813c5.526,5.643,6.936,13.733,7.468,21.34a71.335,71.335,0,0,1-2.625,24.325A73.1,73.1,0,0,1,27.316,89.5c-1.875,1.37-3.679-1.759-1.82-3.113A69.071,69.071,0,0,0,50.609,50.678,68.506,68.506,0,0,0,53.6,29.766c-.105-7.607-.982-16.7-6.564-22.4-1.626-1.659.927-4.211,2.552-2.552" transform="translate(112.42 19.446)" fill="#cfd4e2"/>
  </g>
</svg>
