<svg xmlns="http://www.w3.org/2000/svg" xmlns:xlink="http://www.w3.org/1999/xlink" width="177.735" height="283.826" viewBox="0 0 177.735 283.826">
  <defs>
    <clipPath id="clip-path">
      <rect id="사각형_2006" data-name="사각형 2006" width="177.735" height="283.826" transform="translate(0 -45)" fill="#fff"/>
    </clipPath>
    <clipPath id="clip-path-2">
      <rect id="사각형_2005" data-name="사각형 2005" width="198.972" height="199.135" fill="none"/>
    </clipPath>
  </defs>
  <g id="마스크_그룹_36" data-name="마스크 그룹 36" transform="translate(0 45)" clip-path="url(#clip-path)">
    <g id="그룹_1485" data-name="그룹 1485" transform="translate(24.493 45.385)">
      <g id="그룹_1484" data-name="그룹 1484" transform="translate(0 0)" clip-path="url(#clip-path-2)">
        <path id="패스_4584" data-name="패스 4584" d="M18.717,19.713a16.252,16.252,0,0,0-5.911,2.458c-1.921,1.322-3.849,3.928-1.537,5.945,1.481,1.283,3.916.938,5.567.22A7.265,7.265,0,0,0,20.8,23.986a2.245,2.245,0,0,0-1.029-2.526c-2.854-1.65-7.55-.656-8.387,2.939a3.146,3.146,0,0,0,2.871,4.018c1.922,0,3.47-1.8,4.838-2.939,1.645-1.362,3.012-2.464,2.667-4.815-.288-1.944-.633-3.871-.825-5.832A77.476,77.476,0,0,1,20.74,2.183L17.366,4.115Q19.859,5.2,22.357,6.28a10.933,10.933,0,0,1,3.758,2.142c1.645,1.792.927,4.476-.305,6.267a2.239,2.239,0,1,0,3.866,2.261c2.046-2.973,2.628-7.245.627-10.4a10.11,10.11,0,0,0-4.391-3.56c-2.063-.972-4.188-1.837-6.284-2.747a2.278,2.278,0,0,0-3.368,1.938,77.868,77.868,0,0,0,.22,12.885q.161,1.577.384,3.154c.023.192.6,3.2.509,3.244.294-.565.271-.667-.068-.3-.119.1-.232.192-.345.288-.458.384-.921.763-1.379,1.142-.345.288-.689.576-1.034.859-.232.192-.458.384-.689.576.215-.085.147-.09-.2-.011h1.187l.023.006c.271.266.537.537.8.8a.944.944,0,0,1,0,.763c-.017-.107.057-.186.22-.232a2.273,2.273,0,0,0,.356-.17,1.42,1.42,0,0,1,1.26.136Q17,24.062,16.479,22.8c-.322.893-2.023,2.153-2.718,1.622.266.271.531.537.8.8-.051-.09-.1-.186-.158-.277.1.373.2.752.305,1.13-.209.39-.2.458.017.209.226-.17.458-.328.689-.475a12.328,12.328,0,0,1,1.458-.819,12.993,12.993,0,0,1,3.035-.961c2.82-.571,1.628-4.894-1.192-4.318" transform="translate(47.501 0.002)" fill="#231815"/>
        <path id="패스_4585" data-name="패스 4585" d="M13.195,17.433a5.671,5.671,0,0,0-7.957,1.933,2.266,2.266,0,0,0,1.339,3.289A9.5,9.5,0,0,0,15.744,20.5a2.254,2.254,0,0,0-.989-3.741,8.98,8.98,0,0,0-8.489,2.368c-1.311,1.294-.509,3.131.989,3.747a7.107,7.107,0,0,0,8.878-3.538c.65-1.419-.085-3.481-1.933-3.368-2.735.17-6.6.882-8.359,3.244-1.006,1.351-1.1,3.227-1.39,4.838q-.5,2.738-.978,5.488Q1.592,40.35.032,51.223A2.259,2.259,0,0,0,3.774,53.4a63.923,63.923,0,0,0,11.732-12.4c2.8-3.877,6.64-10.15,1.192-13.7-2.419-1.582-4.668,2.294-2.261,3.866,1.52.989-.1,3.5-.729,4.516A54.29,54.29,0,0,1,9.906,41,61.947,61.947,0,0,1,.6,50.234c1.249.723,2.5,1.452,3.747,2.176q1.331-9.249,2.888-18.458Q8,29.425,8.826,24.91c.22-1.181.09-2.792,1.226-3.374a10.4,10.4,0,0,1,4.148-1.1q-.966-1.678-1.933-3.368a2.772,2.772,0,0,1-3.826,1.475q.5,1.873.989,3.747a4.345,4.345,0,0,1,4.131-1.221l-.989-3.741a4.886,4.886,0,0,1-4.8,1.006l1.339,3.289a1.174,1.174,0,0,1,1.825-.328c2.4,1.611,4.646-2.266,2.261-3.866" transform="translate(0.001 74.237)" fill="#231815"/>
        <path id="패스_4586" data-name="패스 4586" d="M35.143,28.783A16.06,16.06,0,0,0,30.085,31.9a2.256,2.256,0,0,0,.989,3.741c3.866,1.029,8.308-1.532,8.912-5.612.186-1.243-.554-3.046-2.159-2.837A8.9,8.9,0,0,0,31.182,31.3c-.853,1.339.237,3.543,1.933,3.368a6.43,6.43,0,0,0,5.4-3.95c1.068-2.419.819-5.148.752-7.731q-.212-8.6-.424-17.186c-.944.718-1.888,1.441-2.831,2.159,2.278.667,4.527,1.43,6.731,2.306.667.266,1.989.526,2.458,1.074-.339-.4-.079.978-.062,1.17l.119,1.616q.551,7.265,1.1,14.524l3.374-1.933c-.486-.277-.966-.554-1.447-.831a2.281,2.281,0,0,0-2.718.35c-1.639,1.989-3.555,6.273-.9,8.279a3.446,3.446,0,0,0,3.854.051c1.305-.831,1.526-2.181,2.317-3.38A2.264,2.264,0,0,0,48.294,27.9c-2.413.825-6.556,3.69-4.335,6.669a2.956,2.956,0,0,0,3.956.65,3.944,3.944,0,0,0,1.424-1.605c.187-.367.283-1.577.39-1.7a2.25,2.25,0,0,0-2.718-3.515l-1.43.7c-2.588,1.272-.322,5.137,2.261,3.871.475-.237.955-.469,1.43-.706-.9-1.17-1.809-2.345-2.713-3.515a4.549,4.549,0,0,0-1.029,1.792,2.277,2.277,0,0,0-.158.769c.051.43-.034.062.232.017H46.8l-.266-.068.983.576c-.068-.068-.141-.136-.215-.2.192.328.384.656.576.989l-.1-.328v1.192c.1-.61,1.192-1.085,1.712-1.266-.842-1.1-1.69-2.193-2.532-3.289a8,8,0,0,0-.7,1.413l-.17.39c-.243.5.192.582,1.317.237.192.328.384.656.576.989a2.914,2.914,0,0,1,.746-2.549c-.9.119-1.808.232-2.713.35.48.277.961.548,1.447.825a2.257,2.257,0,0,0,3.368-1.933c-.435-5.736-.746-11.489-1.3-17.214A4.934,4.934,0,0,0,48.2,8.025a11.047,11.047,0,0,0-3.329-1.7,76.727,76.727,0,0,0-7.68-2.684A2.253,2.253,0,0,0,34.363,5.8q.17,6.951.339,13.914c.057,2.2.186,4.414.147,6.618-.017,1.108-.153,3.7-1.735,3.86.644,1.125,1.289,2.244,1.933,3.368a4.068,4.068,0,0,1,2.781-1.888l-2.159-2.837a2.787,2.787,0,0,1-3.4,2.487l.983,3.741A10.341,10.341,0,0,1,36.336,33.1,2.3,2.3,0,0,0,37.9,30.348a2.26,2.26,0,0,0-2.758-1.565" transform="translate(136.893 16.539)" fill="#231815"/>
        <path id="패스_4587" data-name="패스 4587" d="M53.673,60.015c.774-6.917-.876-13.58-7.307-17.254-2.651-1.52-5.595-2.487-8.319-3.866-.757-.384-1.509-.791-2.232-1.238.011.006-1.735-1.221-.961-.6A14.721,14.721,0,0,1,33.514,35.8a10.128,10.128,0,0,1-.735-.819c.311.367.328.35.062-.045-.181-.305-.639-1.469-.356-.6,0,0-.492-2.165-.333-1.13-.209-1.4-.181-2.837-.322-4.244-.4-3.939-1.4-7.409-4.007-10.483a24.524,24.524,0,0,0-6.934-5.132c-.5-.283-1.012-.554-1.5-.859-.051-.028-1.718-1.255-.859-.52-.057-.045-1.7-1.356-.723-.588l-.339-.576c.283.667.311.6.085-.215-.791-3.73-5.177-5.9-8.692-4.934a7.2,7.2,0,0,0-4.934,8.692c1.4,6.624,7.3,9.557,12.535,12.778,1.006.622-.011-.119.458.356.322.328.876,1.181.4.39.4.706.486.882.26.52-.209-.362-.181-.17.09.576.09,1.147.051.062.1.763.249,3.368.39,6.731,1.7,9.89,2.521,6.1,7.929,9.93,13.761,12.569,1.3.582,2.611,1.13,3.9,1.729.712.328,1.407.7,2.108,1.04,2.074,1.023-.22.09.22-.164.113.192.232.384.345.576-.22-.554-.254-.593-.107-.119.254.622.079-.723.1.514a34.439,34.439,0,0,1-.243,4.25c-.424,3.8,3.549,7.064,7.064,7.064,4.171,0,6.64-3.255,7.064-7.064" transform="translate(17.411 25.234)" fill="#2e1d1b"/>
        <path id="패스_4588" data-name="패스 4588" d="M28.07,23c1.164-1.718,2.379-3.419,3.5-5.165a8.381,8.381,0,0,0,1.074-6.793A7.875,7.875,0,0,0,30.529,7.5a11.042,11.042,0,0,0-1.605-1.192,8.241,8.241,0,0,0-3.77-.978,6.829,6.829,0,0,0-6.1,3.5,16.373,16.373,0,0,1-1.882,3.182c.367-.475.735-.949,1.1-1.43a16.367,16.367,0,0,1-2.594,2.639l1.43-1.108a1.451,1.451,0,0,1-.475.283c1.192-.322,2.379-.639,3.566-.961-.085.006-.175.017-.266.028.627.085,1.255.17,1.882.249l-.22-.068,1.69.712-.192-.13,1.43,1.1a3.1,3.1,0,0,1-.345-.373l1.108,1.43a7.931,7.931,0,0,1-.944-1.628c.237.559.475,1.125.712,1.684-.723-1.729-1.221-3.51-2.068-5.2a11.139,11.139,0,0,0-4.759-4.9,7.6,7.6,0,0,0-4.5-.842A6.69,6.69,0,0,0,9.669,5.445a7.345,7.345,0,0,0-1.108,8.562c.435.825.831,1.667,1.2,2.526-.237-.565-.475-1.125-.712-1.69a30.154,30.154,0,0,1,1.786,5.612l-.254-1.882.017.294c.085-.627.164-1.249.249-1.876-.023.09-.045.186-.062.277.237-.559.475-1.125.712-1.684-.045.062-.09.13-.13.2.367-.48.735-.955,1.1-1.43l-.175.158,1.43-1.1a4.674,4.674,0,0,1-.622.328l1.684-.712a4.234,4.234,0,0,1-.876.22c.622-.079,1.249-.164,1.876-.249a7.132,7.132,0,0,1-1.628-.04c.622.085,1.249.164,1.876.249-1.605-.237-3.165-.588-4.781-.791a9.873,9.873,0,0,0-4.662.48,7.08,7.08,0,0,0-4.934,4.934c-.61,2.21-.1,5.369,1.814,6.878a24.039,24.039,0,0,0,7.844,4.335,20.209,20.209,0,0,0,7.483.893,7.55,7.55,0,0,0,5-2.068,7.068,7.068,0,0,0,0-9.992,6.988,6.988,0,0,0-5-2.068,15.5,15.5,0,0,1-3.114-.079c.627.085,1.255.17,1.876.249a15.719,15.719,0,0,1-3.815-1.046l1.684.712a15.386,15.386,0,0,1-3.17-1.859c.475.373.949.74,1.43,1.108-.079-.057-.153-.119-.226-.175q-1.56,5.9-3.114,11.806a5.391,5.391,0,0,1,.893-.26l-1.876.254a7.284,7.284,0,0,1,1.888.028c-.627-.079-1.255-.164-1.882-.249a45.937,45.937,0,0,0,5.612.865c3.719.107,7.579-1.763,9.065-5.29,1.215-2.871.379-5.928-.593-8.748a46.525,46.525,0,0,0-2.69-6.245L11.1,16.538a5.056,5.056,0,0,1,.656.379c-.475-.367-.955-.735-1.43-1.1a5.271,5.271,0,0,1,.893.882c-.367-.475-.74-.949-1.108-1.43a8.582,8.582,0,0,1,.9,1.582c-.237-.565-.475-1.125-.712-1.69.729,1.735,1.226,3.532,2.074,5.222,1.961,3.9,6.29,6.369,10.557,4.572A13.735,13.735,0,0,0,28,20.907a22.321,22.321,0,0,0,3.25-4.945q-3.043,1.746-6.1,3.5l.2.017q-1.789-.483-3.566-.966l.181.085c-.48-.367-.955-.735-1.43-1.1l.147.136c-.367-.475-.735-.949-1.1-1.43.04.062.079.119.113.181-.237-.565-.475-1.125-.712-1.69.028.068.051.136.073.2-.085-.622-.17-1.249-.254-1.876a.965.965,0,0,1-.006.458c.079-.627.164-1.249.249-1.876-.023.079-.051.158-.079.237.237-.565.475-1.125.712-1.69a22.178,22.178,0,0,1-1.808,2.769q-1.009,1.475-2.006,2.95a7.06,7.06,0,0,0,2.538,9.664,7.086,7.086,0,0,0,5.442.712A7.827,7.827,0,0,0,28.07,23" transform="translate(6.568 15.983)" fill="#2e1d1b"/>
        <path id="패스_4589" data-name="패스 4589" d="M34.89,46.316c.045-.232.1-.458.141-.689-.283.5-.305.526-.068.09.2-.769-.418.35.124-.243.237-.26,1.221-.983.475-.486a11.476,11.476,0,0,1,1.255-.723c-.825.407.333-.1.667-.192a14.145,14.145,0,0,1,1.729-.39c1.046-.153,2.2-.17,3.3-.226,5.979-.283,11.908-.848,16.791-4.657a16.522,16.522,0,0,0,4.99-6.674c.209-.486.435-.961.661-1.435.283-.582-.322.045.424-.622-.576.509-.119.034.26-.079-.949.277.249-.068.61-.164.124-.034,1.435-.328.831-.226-.718.124,1.051-.079,1.226-.085,1.277-.051,2.56,0,3.837.011a26.343,26.343,0,0,0,9.268-1.249c3.583-1.311,6.008-4.792,4.934-8.692-.949-3.447-5.086-6.251-8.686-4.934-4.866,1.78-10.834-.017-16.186,1.865a15.709,15.709,0,0,0-8.11,6.036,24.976,24.976,0,0,0-1.741,3.532c.028-.051-.966,2-.514,1.164-.175.175-.35.35-.52.526.373-.249.356-.243-.045.023-1.645,1.085-3.453,1.294-5.657,1.424a61.751,61.751,0,0,0-10.354,1.029c-6.1,1.4-11.959,5.951-13.27,12.309C20.5,46.293,22.35,50.193,26.2,51.25c3.5.961,7.918-1.181,8.692-4.934" transform="translate(98.117 66.609)" fill="#2e1d1b"/>
        <path id="패스_4590" data-name="패스 4590" d="M45.345,25.05a6.818,6.818,0,0,1-.35-1.334c.085.622.17,1.249.254,1.876a7.309,7.309,0,0,1-.017-1.611c-.085.627-.17,1.249-.249,1.876a7.2,7.2,0,0,1,.469-1.78l-.712,1.684a7.23,7.23,0,0,1,.8-1.39c-.367.475-.735.949-1.1,1.43a6.948,6.948,0,0,1,.961-.995q-6.027-2.492-12.055-4.99c-.17,1.458-.333,2.916-.5,4.38a11.486,11.486,0,0,0,.209,5.092A8.38,8.38,0,0,0,43.18,34.85c1.712-.446,3.041-1.492,4.623-2.181l-1.684.712a11.071,11.071,0,0,1,2.515-.7l-1.882.254a11.1,11.1,0,0,1,2.871-.017c-.627-.085-1.249-.164-1.876-.249a10.964,10.964,0,0,1,2.029.5l-1.69-12.914c-.249.124-.5.243-.752.35l1.69-.712c-2.368.966-4.951,1.2-7.324,2.142a9.232,9.232,0,0,0-4.928,3.668,7.64,7.64,0,0,0-.164,7.72c1.136,2.023,3.007,2.888,4.747,4.222-.475-.367-.949-.735-1.43-1.1A12.374,12.374,0,0,1,42,38.648l-1.1-1.43a12.268,12.268,0,0,1,1.362,2.34l4.222-10.376-.277.051c.627-.085,1.249-.17,1.876-.249a5.171,5.171,0,0,1-.836-.006c.627.085,1.255.17,1.882.249a6.8,6.8,0,0,1-1.373-.39l1.69.712a31.148,31.148,0,0,1-6.488-3.933l1.43,1.1c-.74-.576-1.458-1.176-2.153-1.808a7.457,7.457,0,0,0-5-2.068,7.218,7.218,0,0,0-5,2.068,7.068,7.068,0,0,0,0,9.992,44.365,44.365,0,0,0,6.827,5.132,29.558,29.558,0,0,0,2.978,1.6,16.169,16.169,0,0,0,3.046,1.176,11.315,11.315,0,0,0,5.148,0,6.7,6.7,0,0,0,4.578-4.092,5.3,5.3,0,0,0,.6-2.724,6.985,6.985,0,0,0-.961-3.56,17.3,17.3,0,0,0-3.267-4.713,25.431,25.431,0,0,0-4.527-3.464c.475.367.955.735,1.43,1.1a1.3,1.3,0,0,1-.305-.305c.367.475.735.955,1.1,1.43l-.085-.186q.483,1.789.961,3.566l-.017-.2c-.085.627-.17,1.255-.254,1.876.023-.068.04-.136.057-.2l-.712,1.684c.045-.057.085-.119.124-.175-.367.475-.735.955-1.1,1.43l.17-.147-1.43,1.1a2.616,2.616,0,0,1,.413-.22l-1.69.712A29.316,29.316,0,0,1,49.6,34.483a25.669,25.669,0,0,0,5.618-2.023,6.906,6.906,0,0,0,3.374-7.042,7.2,7.2,0,0,0-5.064-5.872,17.6,17.6,0,0,0-8.782-.463,16.64,16.64,0,0,0-4.069,1.385c-.865.384-1.628.932-2.487,1.322l1.69-.712a3.549,3.549,0,0,1-.678.186l1.876-.254c-.073.006-.147.006-.22.006l1.876.254a1.108,1.108,0,0,1-.418-.1c.56.237,1.125.475,1.69.712-.068-.04-.136-.073-.2-.113.475.367.949.735,1.43,1.1a1.013,1.013,0,0,1-.277-.283l1.1,1.43-.1-.17.712,1.684a2.613,2.613,0,0,1-.158-.582l.254,1.876a17.07,17.07,0,0,1,.271-3.255c.141-1.249.283-2.5.43-3.753l-.254-1.882c-.237-.559-.475-1.125-.712-1.684a7.036,7.036,0,0,0-3.38-2.894,6.722,6.722,0,0,0-3.662-.48,7.485,7.485,0,0,0-4.052,1.944A12.9,12.9,0,0,0,31.527,21.2a13.086,13.086,0,0,0,.192,7.613,7.621,7.621,0,0,0,3.25,4.222,7.06,7.06,0,0,0,9.664-2.538,6.946,6.946,0,0,0,.712-5.442" transform="translate(140.312 59.572)" fill="#2e1d1b"/>
        <path id="패스_4591" data-name="패스 4591" d="M9.24,153.618a4.486,4.486,0,0,1-3.662-4.465C5.821,125.185,10.325-4.68,79.223,7.7c69.236,12.439,15.994,135.46,6.149,156.891a4.486,4.486,0,0,1-4.922,2.521Z" transform="translate(25.946 31.946)" fill="#2e1d1b" fill-rule="evenodd"/>
        <path id="패스_4592" data-name="패스 4592" d="M40,8.421A52.556,52.556,0,0,0,21.794,6.556c-3.532.271-6.448,2.475-6.94,6.121-.492,3.668,1.724,6.5,5.064,7.754A80.111,80.111,0,0,0,48.746,25.4a7.077,7.077,0,0,0,1.876-13.88A158.253,158.253,0,0,0,29.938,6.568,7.654,7.654,0,0,0,24.5,7.28a7.218,7.218,0,0,0-3.25,4.222c-.774,3.419,1.04,8.031,4.934,8.692A158.552,158.552,0,0,1,46.87,25.15q.941-6.934,1.876-13.874c-2.334.023-4.668-.045-7-.237-1-.079-1.995-.192-2.99-.305-.791-.1-.661-.079.39.057-.328-.051-.661-.1-.989-.147-.5-.079-.989-.164-1.481-.254A74.19,74.19,0,0,1,23.67,6.8q-.932,6.943-1.876,13.88a46.587,46.587,0,0,1,7.991.04c.333.028.661.062.995.1.791.1.661.079-.39-.057a6.659,6.659,0,0,1,1.967.339c1.311.254,2.605.576,3.888.938,3.555,1,7.85-1.232,8.692-4.934A7.2,7.2,0,0,0,40,8.421" transform="translate(68.776 29.678)" fill="#c5826c"/>
        <path id="패스_4593" data-name="패스 4593" d="M19.845,29.242c4.063-9.822,13.9-11.97,31.083-5.335s7.743,41.544-14.722,35.05S15.782,39.064,19.845,29.242" transform="translate(80.401 93.432)" fill="#2e1d1b" fill-rule="evenodd"/>
        <path id="패스_4594" data-name="패스 4594" d="M25.59,30.69c4.691-4.312,11.659-7.138,17.859-4.419a11.634,11.634,0,0,1,6,5.657c1.469,3.25.814,7.138.068,10.489-.661,2.973-1.7,6.036-4.046,8.1A12.086,12.086,0,0,1,37.6,53.127c-5.109.1-11.088-.961-13.366-6.092-1.5-3.38-1.4-6.776-.588-10.32.7-3.04,1.8-6.262,4.7-7.833,2.538-1.373.277-5.245-2.261-3.871-3.43,1.859-5.318,5.346-6.364,8.98-1.192,4.137-1.667,8.375-.413,12.541a14.567,14.567,0,0,0,5.346,7.929c3.012,2.136,6.991,2.8,10.6,3.074a19.269,19.269,0,0,0,10.913-2.046c3.623-2.046,5.832-5.629,7.047-9.511,1.283-4.1,2.074-8.856,1.215-13.1a15.055,15.055,0,0,0-6.6-9.3C39.611,18.093,29.2,21.292,22.419,27.52c-2.125,1.955,1.051,5.12,3.17,3.17" transform="translate(86.378 96.601)" fill="#c5826c"/>
        <path id="패스_4595" data-name="패스 4595" d="M11.129,13.755C5.291,26.663,9.773,40.045,14.791,52.4c5.092,12.524,11.693,29.049,1.486,40.928-1.871,2.176,1.283,5.358,3.17,3.165C28.118,86.4,26.953,72.632,22.856,60.82c-4.86-14-14.66-29.755-7.861-44.8,1.181-2.605-2.679-4.889-3.866-2.261" transform="translate(38.926 58.564)" fill="#c5826c"/>
        <path id="패스_4596" data-name="패스 4596" d="M8.145,18.824A52.024,52.024,0,0,0,11.169,38.6c2.051,5.991,4.408,11.817,5.188,18.147A51.583,51.583,0,0,1,7.778,91.818c-1.616,2.4,2.261,4.64,3.866,2.261a55.713,55.713,0,0,0,9.444-34.644c-.927-14.112-9.189-26.251-8.46-40.612.141-2.882-4.335-2.871-4.482,0" transform="translate(34.382 77.526)" fill="#c5826c"/>
        <path id="패스_4597" data-name="패스 4597" d="M15.963,17.129a5.678,5.678,0,0,0,1.8,5.81,5.456,5.456,0,0,0,3.374,1.311,5.722,5.722,0,0,0,3.1-.859,5.829,5.829,0,0,0,2.4-3.052,2.242,2.242,0,0,0-4.323-1.187,2.037,2.037,0,0,1-.09.237c.073-.181.153-.356.226-.537a3.027,3.027,0,0,1-.384.65c.119-.147.232-.3.35-.452a3.5,3.5,0,0,1-.593.6c.158-.119.305-.232.458-.35a4.247,4.247,0,0,1-.87.514c.17-.079.356-.153.531-.226a4.133,4.133,0,0,1-.9.237c.2-.028.4-.051.593-.079a3.405,3.405,0,0,1-.831,0c.2.023.39.051.588.079a3.248,3.248,0,0,1-.729-.2c.181.079.356.153.531.226a3.9,3.9,0,0,1-.723-.424c.158.113.3.232.452.35a3.925,3.925,0,0,1-.588-.6c.113.147.232.3.35.452a3.683,3.683,0,0,1-.469-.8c.079.175.153.356.22.531a3.485,3.485,0,0,1-.243-.893c.023.2.057.4.079.6a3.5,3.5,0,0,1-.011-.842c-.028.2-.051.4-.079.593a3.828,3.828,0,0,1,.107-.492,2.242,2.242,0,0,0-4.323-1.192" transform="translate(73.313 72.105)" fill="#fff"/>
        <path id="패스_4598" data-name="패스 4598" d="M14,16.358a4.383,4.383,0,0,0,1.294,2.933A4.817,4.817,0,0,0,17.746,20.6a5.608,5.608,0,0,0,3.035-.254,9.816,9.816,0,0,0,2.662-1.6A2.232,2.232,0,0,0,24.1,17.16a2.238,2.238,0,0,0-2.244-2.238c-.2.023-.4.051-.593.079a2.278,2.278,0,0,0-.989.576,1.446,1.446,0,0,1-.147.113c.153-.113.305-.232.458-.35a7.089,7.089,0,0,1-1.441.87c.175-.073.356-.147.531-.226a4.265,4.265,0,0,1-1.057.3c.2-.028.4-.057.593-.079a3.654,3.654,0,0,1-.786.006c.2.028.4.051.593.079a2.968,2.968,0,0,1-.689-.186c.181.079.356.153.537.226a3.074,3.074,0,0,1-.622-.35c.153.119.305.232.458.35a2.506,2.506,0,0,1-.446-.435c.119.153.232.305.35.458a2.532,2.532,0,0,1-.277-.458l.226.537a2.044,2.044,0,0,1-.141-.514c.023.2.051.4.079.593l-.011-.153a2.364,2.364,0,0,0-.656-1.582,2.244,2.244,0,0,0-3.17,0A2.228,2.228,0,0,0,14,16.358" transform="translate(65.105 65.671)" fill="#fff"/>
        <path id="패스_4599" data-name="패스 4599" d="M18.445,18.445a5.223,5.223,0,0,0,7.206,2.006,2.364,2.364,0,0,0,1.029-1.339,2.311,2.311,0,0,0-.226-1.729,2.239,2.239,0,0,0-3.063-.8,3.3,3.3,0,0,1-.367.2c.175-.079.356-.153.531-.226a2.868,2.868,0,0,1-.7.186c.2-.028.4-.051.593-.079a2.96,2.96,0,0,1-.774,0c.2.028.4.057.593.079a3.241,3.241,0,0,1-.853-.232c.181.073.356.153.537.226a3.091,3.091,0,0,1-.673-.4l.452.35a2.867,2.867,0,0,1-.475-.469c.119.153.237.3.35.452a3.031,3.031,0,0,1-.3-.486,2.238,2.238,0,0,0-1.334-1.029,2.241,2.241,0,0,0-2.758,1.565l-.079.593a2.2,2.2,0,0,0,.305,1.13" transform="translate(84.378 70.145)" fill="#fff"/>
        <path id="패스_4600" data-name="패스 4600" d="M21.077,34.337a21.307,21.307,0,0,1,15.491-9.89,24.264,24.264,0,0,1,19.554,6.335c2.108,1.967,5.284-1.192,3.17-3.165a28.775,28.775,0,0,0-23.307-7.573A25.829,25.829,0,0,0,17.212,32.076c-1.565,2.436,2.311,4.679,3.866,2.261" transform="translate(78.36 92.106)" fill="#c5826c"/>
        <path id="패스_4601" data-name="패스 4601" d="M22.04,10.7a1.083,1.083,0,0,1-.1-.124c.113.153.232.3.35.452a1.743,1.743,0,0,1-.2-.328c.073.175.147.356.226.531a1.55,1.55,0,0,1-.124-.418c.023.2.051.4.079.593a2.236,2.236,0,0,1-.006-.514c-.028.2-.057.4-.079.593a2.382,2.382,0,0,1,.158-.588c-.079.181-.153.356-.226.537a3.01,3.01,0,0,1,.4-.689c-.119.147-.232.3-.35.452a3.58,3.58,0,0,1,.588-.582c-.153.119-.305.232-.458.35a3.211,3.211,0,0,1,.644-.379c-.181.073-.362.147-.537.226a2.8,2.8,0,0,1,.706-.2l-.593.079a2.556,2.556,0,0,1,.588.006l-.6-.085a3.8,3.8,0,0,1,.932.254c-.181-.079-.356-.153-.537-.226a4.746,4.746,0,0,1,.916.526c-.153-.113-.305-.232-.458-.345a6.17,6.17,0,0,1,1.113,1.125l-.35-.452a9.3,9.3,0,0,1,1.1,1.927c-.073-.175-.147-.356-.226-.531a3.775,3.775,0,0,1,.254.825c-.023-.2-.051-.4-.079-.593a2,2,0,0,1,.006.52c.028-.2.051-.4.079-.6a1.618,1.618,0,0,1-.09.294l.226-.531a.989.989,0,0,1-.1.164c.119-.147.237-.3.35-.452a1.449,1.449,0,0,1-.243.249l.452-.35a2.063,2.063,0,0,1-.311.17c.181-.073.356-.153.537-.226a2.493,2.493,0,0,1-.537.136c.2-.023.4-.051.6-.079a5.77,5.77,0,0,1-1.4-.023c.2.028.4.051.593.079a5.847,5.847,0,0,1-1.413-.367c.181.073.356.147.537.226a4.821,4.821,0,0,1-.893-.514c.153.113.305.232.458.35a3.376,3.376,0,0,1-.571-.565c.119.153.237.305.35.458a3.462,3.462,0,0,1-.379-.656l.226.531a3.247,3.247,0,0,1-.2-.729c.028.2.057.4.079.6a3.29,3.29,0,0,1-.006-.746c-.028.2-.051.4-.079.6a2.625,2.625,0,0,1,.17-.616c-.073.181-.153.356-.226.537a2.5,2.5,0,0,1,.232-.4l-.35.452a1.957,1.957,0,0,1,.339-.345c-.153.119-.3.237-.452.35a2.992,2.992,0,0,1,.322-.186c-.181.079-.356.153-.537.226a2.219,2.219,0,0,1,.5-.141c-.2.028-.4.057-.593.079a2.654,2.654,0,0,1,.6,0c-.2-.028-.4-.057-.6-.079a2.2,2.2,0,0,1,.5.13c-.181-.073-.356-.147-.537-.226a2.259,2.259,0,0,1,.379.215l-.452-.35a1.637,1.637,0,0,1,.3.294c-.119-.153-.232-.305-.35-.452a2.034,2.034,0,0,1,.175.305c-.079-.175-.153-.356-.226-.531.023.068.045.136.062.209A2.26,2.26,0,0,0,25.459,12.7a2.284,2.284,0,0,0,1.565-2.752,3.9,3.9,0,0,0-3.645-2.814,4.014,4.014,0,0,0-3.815,2.1,4.974,4.974,0,0,0,.215,4.849,6.059,6.059,0,0,0,3.8,2.611c1.549.35,3.436.441,4.759-.588A3.329,3.329,0,0,0,29.67,13.23a6.933,6.933,0,0,0-.78-2.521,8.744,8.744,0,0,0-2.283-3,6.967,6.967,0,0,0-2.2-1.255,5.153,5.153,0,0,0-2.487-.17,5.224,5.224,0,0,0-3.538,2.594,4.638,4.638,0,0,0-.61,2.3,4.165,4.165,0,0,0,1.1,2.684,2.262,2.262,0,0,0,3.17,0,2.3,2.3,0,0,0,0-3.17" transform="translate(82.665 28.905)" fill="#231815"/>
        <path id="패스_4602" data-name="패스 4602" d="M33.456,7.4c-2.786-.288-5.567-.593-8.353-.87-2.424-.237-5.047-.294-7.217.995a6.537,6.537,0,0,0-3.227,5.222c-.04,2.023,1.277,4.052,2.583,5.516,1.6,1.78,4.256,2.391,6.448,3.137a75.616,75.616,0,0,0,7.7,2.193,81.064,81.064,0,0,0,16.457,2.023c2.882.057,2.882-4.419,0-4.482A75.851,75.851,0,0,1,22.729,16.3a5.828,5.828,0,0,1-2.176-1.057,6.292,6.292,0,0,1-1.209-1.831c-.486-1.136.475-2.012,1.565-2.345,1.752-.531,3.82-.1,5.6.085l6.946.723a2.255,2.255,0,0,0,2.238-2.244A2.284,2.284,0,0,0,33.456,7.4" transform="translate(68.181 29.741)" fill="#231815"/>
        <path id="패스_4603" data-name="패스 4603" d="M59.921,7.14C20.123,22.224,12.793,69.719,7.4,106.572,5.779,117.609,4.683,128.8,5.938,139.938c.774,6.861,1.283,13.914,8.477,16.457,10.308,3.645,22.725,4.38,33.53,5.872,11.676,1.616,23.4,2.786,35.152,3.583,2.882.2,2.865-4.284,0-4.482a490.006,490.006,0,0,1-59.013-7.545c-5.425-1.034-10-1.255-12.445-6.731C9.792,142.95,10,136.666,9.888,132.117c-.243-10.37,1.187-20.684,2.848-30.9C18.15,67.95,25.113,25.1,61.113,11.458c2.667-1.012,1.509-5.341-1.192-4.318" transform="translate(25.089 32.491)" fill="#231815"/>
      </g>
    </g>
  </g>
</svg>
