<svg xmlns="http://www.w3.org/2000/svg" xmlns:xlink="http://www.w3.org/1999/xlink" width="196" height="203.276" viewBox="0 0 196 203.276">
  <defs>
    <clipPath id="clip-path">
      <rect id="사각형_1991" data-name="사각형 1991" width="196" height="203.276" transform="translate(0 19)" fill="#fff"/>
    </clipPath>
    <clipPath id="clip-path-2">
      <rect id="사각형_1990" data-name="사각형 1990" width="195.738" height="192.264" fill="none"/>
    </clipPath>
  </defs>
  <g id="마스크_그룹_29" data-name="마스크 그룹 29" transform="translate(0 -19)" clip-path="url(#clip-path)">
    <g id="그룹_1260" data-name="그룹 1260" transform="translate(15.081 44.645)">
      <g id="그룹_1259" data-name="그룹 1259" transform="translate(0 0)">
        <path id="패스_4243" data-name="패스 4243" d="M99.585,22.612l-4.366,1.679L90.8,21.366,86.475,23,82.055,21.61l-4.2,2.784-4.335.165-4.525-2.125-4.225,1.423-4.354-.079-3.957,3.169-4.231.818-4.3.33-4.7-1.557-4.189,1.154-3.456,4-4.231.72-4.073,1.276-4.054,1.3-4.6.061-3.346,2.961-4.8.275L7.122,41.21,3.813,44.184l-2.5,3.786.006,4.512.739,4.14,1.2,4.561L7.22,63.509,10.6,66.336l4.494.812,3.786,1.966L22.3,72.18l4.378.672,4.592-.305,3.987,1.642,4.164.989L43.08,78.64,47.812,77l4.262.653,4.067,2.027,4.433-.385,4.231,1.16,4.36.037,4.415-.788,4.146,3.248,4.482-2.461,4.262,2.772,4.4-1.63,4.347.8,4.4-1.044,4.378,1.215,4.274-2.076,4.3-.33,4.525,2.448,4.317-.635,4.085-2.619,4.317.012,4.586,1.514,4.067-2.223,4.176-1.209,4.634,1.2L151.107,76l4.653.714,4.189-1.239,3.847-2.3,4.5-.348,3.419-3.169,4.1-1.429,3.145-3.169,3.871-1.905,3.09-2.98,2.027-3.706-.116-3.987,1.185-4.421-3.926-2.448-1.612-4.47-3.8-2.229-3.328-3.029L172.032,34.8l-4.085-1.49-4.384-.543-3.712-2.644-3.963-2.009-4.683.934-4.06-1.661-4.4-.018-4.476.586-3.853-3.444-4.573,1.435-4.409.55L121.3,24.279l-4.3-.751-4.378.275-4.378.488-4.25-2.943Z" transform="translate(6.717 109)" fill="#62c3d9"/>
        <g id="그룹_1258" data-name="그룹 1258" transform="translate(0 0)">
          <g id="그룹_1257" data-name="그룹 1257" clip-path="url(#clip-path-2)">
            <path id="패스_4244" data-name="패스 4244" d="M155.993,82.56c-.855-25.327-8-48.042-12.151-59.362C138.256,7.927,120.823-5.6,93.444,5.35,78.24,11.425,66.4,33.2,58.878,51.364c-12.81,1.154-23.832,5.55-32.264,13.909C1.586,90.088.6,111.667.6,111.667l178.037,50.49s20.681-49.965-22.647-79.6" transform="translate(3.079 6.99)" fill="#f5b314" fill-rule="evenodd"/>
            <path id="패스_4245" data-name="패스 4245" d="M8.976,111.8S47.987-24.789,112,4.062s21.682,148.356,16.169,174.166l-16.083-4.1S129.519,109.151,128.579,73.2c-.812-31-29-70.047-50.649-51.925C37.643,54.985,20.308,139.241,20.308,139.241L4.042,134.747Z" transform="translate(20.638 0.303)" fill="#f08d24" fill-rule="evenodd"/>
            <path id="패스_4246" data-name="패스 4246" d="M10.731,23.7c.586.055,1.166.11,1.752.177l.751.092s.775.1.354.043c1.081.147,2.155.324,3.23.519q3.215.586,6.375,1.447a2.42,2.42,0,1,0,1.288-4.665,80.722,80.722,0,0,0-13.751-2.455,2.429,2.429,0,0,0-2.418,2.424A2.477,2.477,0,0,0,10.731,23.7" transform="translate(42.439 96.225)" fill="#f08d24"/>
            <path id="패스_4247" data-name="패스 4247" d="M14.494,24.395a112.357,112.357,0,0,1,19.844,5.263,2.45,2.45,0,0,0,2.986-1.691,2.477,2.477,0,0,0-1.691-2.98,113.216,113.216,0,0,0-19.85-5.257,2.491,2.491,0,0,0-2.98,1.685,2.444,2.444,0,0,0,1.691,2.98" transform="translate(64.987 100.502)" fill="#f08d24"/>
            <path id="패스_4248" data-name="패스 4248" d="M12.838,22.114a46,46,0,0,1,16.956,4.439,2.483,2.483,0,0,0,3.309-.867,2.446,2.446,0,0,0-.867-3.309,52.207,52.207,0,0,0-19.4-5.1,2.421,2.421,0,0,0,0,4.842" transform="translate(53.204 88.171)" fill="#f08d24"/>
            <path id="패스_4249" data-name="패스 4249" d="M12.316,20.286c2.088.1,4.17.275,6.246.525.244.024.488.055.733.085.122.018.244.031.366.049-.238-.031-.208-.024.085.012.488.073.971.14,1.459.22,1.05.165,2.1.354,3.145.556a2.423,2.423,0,0,0,1.288-4.671,95.863,95.863,0,0,0-13.323-1.618A2.437,2.437,0,0,0,9.9,17.868a2.472,2.472,0,0,0,2.418,2.418" transform="translate(50.527 78.844)" fill="#f08d24"/>
            <path id="패스_4250" data-name="패스 4250" d="M15.818,21.179l12.3,2.766A2.419,2.419,0,0,0,29.4,19.28Q23.258,17.9,17.113,16.514a2.421,2.421,0,1,0-1.294,4.665" transform="translate(71.814 83.99)" fill="#f08d24"/>
            <path id="패스_4251" data-name="패스 4251" d="M18.269,23.341a87.23,87.23,0,0,1,20.382,3.621c2.986.9,4.262-3.767,1.282-4.665a92.592,92.592,0,0,0-21.664-3.8,2.421,2.421,0,0,0,0,4.842" transform="translate(80.934 94.436)" fill="#f08d24"/>
            <path id="패스_4252" data-name="패스 4252" d="M20.425,22.028Q28.146,24.4,36.044,26.1a2.42,2.42,0,1,0,1.288-4.665q-7.895-1.7-15.619-4.073a2.447,2.447,0,0,0-2.98,1.685,2.474,2.474,0,0,0,1.691,2.98" transform="translate(95.301 88.19)" fill="#f08d24"/>
            <path id="패스_4253" data-name="패스 4253" d="M20.21,25.234a59.027,59.027,0,0,1,11.485,3.187,2.433,2.433,0,0,0,2.98-1.691,2.488,2.488,0,0,0-1.691-2.98A59.011,59.011,0,0,0,21.5,20.569a2.482,2.482,0,0,0-2.98,1.685,2.446,2.446,0,0,0,1.691,2.98" transform="translate(94.24 104.792)" fill="#f08d24"/>
            <path id="패스_4254" data-name="패스 4254" d="M23.291,24.447a106.925,106.925,0,0,0,13.122,3.926A2.423,2.423,0,1,0,37.7,23.7a106.893,106.893,0,0,1-13.122-3.92,2.435,2.435,0,0,0-2.98,1.685,2.485,2.485,0,0,0,1.691,2.98" transform="translate(109.922 100.438)" fill="#f08d24"/>
            <path id="패스_4255" data-name="패스 4255" d="M24.251,21.194c.989.018,1.978.073,2.961.159.531.049,1.062.11,1.588.171-.513-.061.226.031.263.037l.788.128a42.255,42.255,0,0,1,5.874,1.435,2.443,2.443,0,0,0,2.98-1.691,2.482,2.482,0,0,0-1.691-2.98,45.245,45.245,0,0,0-12.761-2.1,2.421,2.421,0,0,0,0,4.842" transform="translate(111.466 83.492)" fill="#f08d24"/>
            <path id="패스_4256" data-name="패스 4256" d="M18.979,19.911a70.938,70.938,0,0,1,14.911,3.78A2.438,2.438,0,0,0,36.869,22a2.493,2.493,0,0,0-1.691-2.98,71.019,71.019,0,0,0-14.911-3.773,2.487,2.487,0,0,0-2.98,1.685c-.256,1.142.348,2.79,1.691,2.98" transform="translate(87.973 77.662)" fill="#f08d24"/>
            <path id="패스_4257" data-name="패스 4257" d="M13.625,18.529a98.112,98.112,0,0,1,17.3,5.123A2.435,2.435,0,0,0,33.9,21.96a2.471,2.471,0,0,0-1.691-2.974,97.535,97.535,0,0,0-17.3-5.123,2.48,2.48,0,0,0-2.98,1.685,2.45,2.45,0,0,0,1.691,2.98" transform="translate(60.543 70.496)" fill="#f08d24"/>
            <path id="패스_4258" data-name="패스 4258" d="M10.617,17.642q4.222,1.255,8.438,2.5a2.42,2.42,0,1,0,1.288-4.665l-8.438-2.5a2.449,2.449,0,0,0-2.98,1.685,2.474,2.474,0,0,0,1.691,2.98" transform="translate(45.228 65.814)" fill="#f08d24"/>
            <path id="패스_4259" data-name="패스 4259" d="M9.582,21.8l.311.043c-.214-.031-.427-.061-.641-.085q3.911.531,7.773,1.356a2.42,2.42,0,1,0,1.288-4.665c-2.888-.623-5.8-1.1-8.732-1.49a2.422,2.422,0,0,0-1.71,4.134,2.864,2.864,0,0,0,1.71.708" transform="translate(36.567 86.518)" fill="#f08d24"/>
            <path id="패스_4260" data-name="패스 4260" d="M12.561,25.677a30.676,30.676,0,0,1,3.267.1l.7.073.464.055c-.256-.037-.244-.031.049.012.5.085,1,.165,1.5.269A29,29,0,0,1,21.573,27c.519.165,1.032.354,1.539.55.018.006.7.293.287.11.287.122.568.256.849.385a2.486,2.486,0,0,0,3.316-.867,2.45,2.45,0,0,0-.873-3.309,31.719,31.719,0,0,0-14.129-3.035,2.421,2.421,0,0,0,0,4.842" transform="translate(51.778 106.345)" fill="#f08d24"/>
            <path id="패스_4261" data-name="패스 4261" d="M17.734,26.756l18,4.378a2.42,2.42,0,1,0,1.288-4.665l-18-4.378a2.42,2.42,0,1,0-1.288,4.665" transform="translate(81.487 112.423)" fill="#f08d24"/>
            <path id="패스_4262" data-name="패스 4262" d="M23.044,27.654q7.116,2.262,14.227,4.531a2.45,2.45,0,0,0,2.98-1.691,2.482,2.482,0,0,0-1.691-2.98q-7.116-2.262-14.227-4.525a2.439,2.439,0,0,0-2.98,1.685,2.474,2.474,0,0,0,1.691,2.98" transform="translate(108.674 116.897)" fill="#f08d24"/>
            <path id="패스_4263" data-name="패스 4263" d="M25.446,26.071A158.856,158.856,0,0,0,8.032,19.244,2.419,2.419,0,1,0,6.75,23.909,150.5,150.5,0,0,1,23,30.247a2.482,2.482,0,0,0,3.309-.867,2.439,2.439,0,0,0-.867-3.309" transform="translate(25.386 97.751)" fill="#f08d24"/>
            <path id="패스_4264" data-name="패스 4264" d="M12.412,15.624Q18.759,17.465,25.1,19.3a2.419,2.419,0,0,0,1.282-4.665Q20.044,12.794,13.7,10.96a2.449,2.449,0,0,0-2.98,1.685,2.474,2.474,0,0,0,1.691,2.98" transform="translate(54.394 55.521)" fill="#f08d24"/>
            <path id="패스_4265" data-name="패스 4265" d="M16.933,16.932l14.685,4.238A2.423,2.423,0,0,0,32.906,16.5L18.221,12.267a2.444,2.444,0,0,0-2.98,1.685,2.471,2.471,0,0,0,1.691,2.98" transform="translate(77.478 62.195)" fill="#f08d24"/>
            <path id="패스_4266" data-name="패스 4266" d="M21.747,18.437q8.417,2.986,17.078,5.184a2.42,2.42,0,1,0,1.288-4.665q-8.655-2.2-17.078-5.184a2.445,2.445,0,0,0-2.98,1.685,2.474,2.474,0,0,0,1.691,2.98" transform="translate(101.954 69.756)" fill="#f08d24"/>
            <path id="패스_4267" data-name="패스 4267" d="M23.809,17.086q9.278,2.793,18.562,5.593c2.986.9,4.268-3.773,1.288-4.671Q34.372,15.215,25.1,12.422c-2.992-.9-4.268,3.767-1.288,4.665" transform="translate(112.909 62.834)" fill="#f08d24"/>
            <path id="패스_4268" data-name="패스 4268" d="M20.231,15.618q3.215,1.026,6.35,2.278l.672.275.446.183c-.208-.085-.177-.073.085.043.519.22,1.032.446,1.545.678,1.026.458,2.045.946,3.053,1.441a2.419,2.419,0,1,0,2.442-4.176,94.334,94.334,0,0,0-13.3-5.385,2.439,2.439,0,0,0-2.98,1.685,2.474,2.474,0,0,0,1.691,2.98" transform="translate(94.311 55.442)" fill="#f08d24"/>
            <path id="패스_4269" data-name="패스 4269" d="M14.919,14.718l14.489,5.141a2.435,2.435,0,0,0,2.98-1.685,2.487,2.487,0,0,0-1.691-2.98L16.207,10.053a2.432,2.432,0,0,0-2.98,1.685,2.487,2.487,0,0,0,1.691,2.98" transform="translate(67.182 50.78)" fill="#f08d24"/>
            <path id="패스_4270" data-name="패스 4270" d="M12.71,12.628a98.042,98.042,0,0,0,16.278,5.086,2.479,2.479,0,0,0,2.98-1.691,2.446,2.446,0,0,0-1.691-2.974A98.62,98.62,0,0,1,14,7.963a2.436,2.436,0,0,0-2.98,1.685,2.485,2.485,0,0,0,1.691,2.98" transform="translate(55.799 39.999)" fill="#f08d24"/>
            <path id="패스_4271" data-name="패스 4271" d="M17.821,13.823q6.008,1.667,12.023,3.328a2.419,2.419,0,0,0,1.282-4.665q-6.008-1.667-12.016-3.328a2.42,2.42,0,1,0-1.288,4.665" transform="translate(82.011 46.339)" fill="#f08d24"/>
            <path id="패스_4272" data-name="패스 4272" d="M23.011,15.023q5.569,1.41,11.143,2.827a2.42,2.42,0,1,0,1.288-4.665q-5.578-1.42-11.143-2.827a2.42,2.42,0,1,0-1.288,4.665" transform="translate(108.523 52.514)" fill="#f08d24"/>
            <path id="패스_4273" data-name="패스 4273" d="M27.27,27.7a26.748,26.748,0,0,1,2.711.226l-.641-.092a26.371,26.371,0,0,1,5.88,1.526,2.411,2.411,0,0,0,2.974-1.691,2.472,2.472,0,0,0-1.685-2.974,28.137,28.137,0,0,0-9.238-1.838,2.437,2.437,0,0,0-2.418,2.424A2.468,2.468,0,0,0,27.27,27.7" transform="translate(126.881 116.695)" fill="#f08d24"/>
            <path id="패스_4274" data-name="패스 4274" d="M28.116,29.213q4.973.751,9.861,1.923a2.419,2.419,0,1,0,1.282-4.665Q34.378,25.29,29.4,24.548a2.616,2.616,0,0,0-1.868.244,2.478,2.478,0,0,0-1.111,1.441c-.263,1.154.354,2.778,1.691,2.98" transform="translate(134.62 125.017)" fill="#f08d24"/>
            <path id="패스_4275" data-name="패스 4275" d="M29.859,28.166l7.1,2.308a2.43,2.43,0,0,0,2.974-1.685,2.477,2.477,0,0,0-1.691-2.98l-7.1-2.308a2.434,2.434,0,0,0-2.98,1.685,2.482,2.482,0,0,0,1.691,2.98" transform="translate(143.471 119.493)" fill="#f08d24"/>
            <path id="패스_4276" data-name="패스 4276" d="M27.982,26.063a63.991,63.991,0,0,0,9.251,3.322,2.423,2.423,0,0,0,1.288-4.671q-2.189-.586-4.323-1.337c-.7-.244-1.386-.507-2.076-.782-.354-.14-.727-.263-1.069-.434.6.3.092.037-.024-.012-.2-.085-.4-.177-.6-.263a2.6,2.6,0,0,0-1.862-.244,2.419,2.419,0,0,0-.58,4.421" transform="translate(136.933 110.081)" fill="#f08d24"/>
            <path id="패스_4277" data-name="패스 4277" d="M27.279,24.507a76.541,76.541,0,0,0,7.248,2.528A2.449,2.449,0,0,0,37.5,25.343a2.48,2.48,0,0,0-1.7-2.98,73.915,73.915,0,0,1-7.229-2.522,2.408,2.408,0,0,0-1.868.244,2.4,2.4,0,0,0-.867,3.309,2.813,2.813,0,0,0,1.441,1.111" transform="translate(130.267 100.799)" fill="#f08d24"/>
            <path id="패스_4278" data-name="패스 4278" d="M30.13,25.319c1.667.47,3.334.934,5.007,1.4A2.539,2.539,0,0,0,37,26.479a2.425,2.425,0,0,0,.867-3.316,2.54,2.54,0,0,0-1.447-1.111c-1.667-.464-3.334-.934-5-1.4a2.424,2.424,0,0,0-2.98,1.685,2.461,2.461,0,0,0,.244,1.868,2.515,2.515,0,0,0,1.447,1.111" transform="translate(144.806 105.031)" fill="#f08d24"/>
            <path id="패스_4279" data-name="패스 4279" d="M27.767,23.127q6.292,2.161,12.578,4.323a2.436,2.436,0,0,0,2.98-1.691,2.478,2.478,0,0,0-1.691-2.974L29.055,18.462a2.437,2.437,0,0,0-2.98,1.685,2.482,2.482,0,0,0,1.691,2.98" transform="translate(132.783 93.734)" fill="#f08d24"/>
            <path id="패스_4280" data-name="패스 4280" d="M28.058,21.553a35.566,35.566,0,0,1,6.454,2c-.2-.079-.385-.159-.58-.244.3.128.592.256.885.391a2.614,2.614,0,0,0,1.868.238,2.454,2.454,0,0,0,1.441-1.111,2.426,2.426,0,0,0,.244-1.862,2.352,2.352,0,0,0-1.111-1.447,38.09,38.09,0,0,0-7.913-2.626,2.555,2.555,0,0,0-1.868.244,2.418,2.418,0,0,0,.58,4.421" transform="translate(134.306 85.857)" fill="#f08d24"/>
            <path id="패스_4281" data-name="패스 4281" d="M3.16,22.7,10.9,25.907a2.426,2.426,0,0,0,1.862-.244,2.476,2.476,0,0,0,1.117-1.447,2.446,2.446,0,0,0-.244-1.862,2.864,2.864,0,0,0-1.447-1.117q-3.874-1.6-7.742-3.2a2.414,2.414,0,0,0-1.868.244,2.415,2.415,0,0,0-.867,3.309A2.886,2.886,0,0,0,3.16,22.7" transform="translate(7.098 91.583)" fill="#f08d24"/>
            <path id="패스_4282" data-name="패스 4282" d="M26.361,30.055q3.654.659,7.236,1.606a2.423,2.423,0,1,0,1.288-4.671c-2.387-.629-4.805-1.166-7.236-1.6a2.585,2.585,0,0,0-1.868.244,2.418,2.418,0,0,0,.58,4.421" transform="translate(125.652 129.291)" fill="#f08d24"/>
            <path id="패스_4283" data-name="패스 4283" d="M29.12,30.642a46.142,46.142,0,0,1,8.9,2.235A2.428,2.428,0,0,0,41,31.191a2.484,2.484,0,0,0-1.685-2.98,46.141,46.141,0,0,0-8.9-2.235,2.616,2.616,0,0,0-1.868.244,2.415,2.415,0,0,0-.867,3.309,2.358,2.358,0,0,0,1.447,1.111" transform="translate(139.649 132.313)" fill="#f08d24"/>
            <path id="패스_4284" data-name="패스 4284" d="M4.669,22.192a65.678,65.678,0,0,0,13.274,2.8,2.42,2.42,0,0,0,2.418-2.418,2.481,2.481,0,0,0-2.418-2.418c-.275-.031-.556-.061-.83-.1-.092-.012-.891-.116-.427-.049-.476-.067-.953-.14-1.423-.22-1.069-.171-2.125-.372-3.181-.6q-3.1-.678-6.124-1.661a2.434,2.434,0,0,0-2.98,1.685,2.482,2.482,0,0,0,1.691,2.98" transform="translate(14.852 88.99)" fill="#f08d24"/>
            <path id="패스_4285" data-name="패스 4285" d="M4.149,20.337Q9.37,22.114,14.59,23.885a2.429,2.429,0,0,0,2.974-1.691,2.473,2.473,0,0,0-1.691-2.974q-5.221-1.777-10.435-3.548a2.437,2.437,0,0,0-2.98,1.685,2.485,2.485,0,0,0,1.691,2.98" transform="translate(12.191 79.5)" fill="#f08d24"/>
            <path id="패스_4286" data-name="패스 4286" d="M6.317,18.535l9.031,1.978a2.42,2.42,0,1,0,1.288-4.665L7.605,13.87a2.42,2.42,0,1,0-1.288,4.665" transform="translate(23.297 70.501)" fill="#f08d24"/>
            <path id="패스_4287" data-name="패스 4287" d="M6.875,17.309a39.377,39.377,0,0,1,11.888,2.326,2.432,2.432,0,0,0,2.98-1.685,2.49,2.49,0,0,0-1.691-2.98,45.32,45.32,0,0,0-13.177-2.5,2.441,2.441,0,0,0-2.418,2.424,2.468,2.468,0,0,0,2.418,2.418" transform="translate(22.745 63.649)" fill="#f08d24"/>
            <path id="패스_4288" data-name="패스 4288" d="M7.475,15.676q3.37,1.456,6.747,2.919a2.667,2.667,0,0,0,1.862.238,2.419,2.419,0,0,0,1.691-2.974,2.336,2.336,0,0,0-1.111-1.447L9.917,11.5a2.636,2.636,0,0,0-1.862-.244,2.419,2.419,0,0,0-1.691,2.974,2.336,2.336,0,0,0,1.111,1.447" transform="translate(32.018 57.052)" fill="#f08d24"/>
            <path id="패스_4289" data-name="패스 4289" d="M16.57,11.082a42.492,42.492,0,0,1,9.049,2.375,2.441,2.441,0,0,0,1.868-.244,2.419,2.419,0,0,0-.58-4.421,42.492,42.492,0,0,0-9.049-2.375,2.616,2.616,0,0,0-1.868.244,2.415,2.415,0,0,0-.867,3.309,2.358,2.358,0,0,0,1.447,1.111" transform="translate(75.569 32.441)" fill="#f08d24"/>
            <path id="패스_4290" data-name="패스 4290" d="M20.278,12.159l11.675,1.356a2.429,2.429,0,0,0,2.418-2.424,2.494,2.494,0,0,0-2.418-2.418L20.278,7.317a2.425,2.425,0,0,0-2.418,2.424,2.489,2.489,0,0,0,2.418,2.418" transform="translate(91.186 37.305)" fill="#f08d24"/>
            <path id="패스_4291" data-name="패스 4291" d="M24.058,12.519q6.768,2.363,13.543,4.72a2.434,2.434,0,0,0,2.974-1.691,2.473,2.473,0,0,0-1.691-2.974q-6.768-2.363-13.537-4.72a2.435,2.435,0,0,0-2.98,1.685,2.482,2.482,0,0,0,1.691,2.98" transform="translate(113.845 39.559)" fill="#f08d24"/>
            <path id="패스_4292" data-name="패스 4292" d="M21.73,10.079a119.464,119.464,0,0,1,13.4,5.221,2.479,2.479,0,0,0,3.309-.873,2.45,2.45,0,0,0-.867-3.309,131,131,0,0,0-14.557-5.7A2.439,2.439,0,0,0,20.038,7.1a2.479,2.479,0,0,0,1.691,2.98" transform="translate(101.965 27.149)" fill="#f08d24"/>
            <path id="패스_4293" data-name="패스 4293" d="M18.47,9.487q4.818,1.722,9.641,3.444a2.427,2.427,0,0,0,2.974-1.691,2.476,2.476,0,0,0-1.691-2.974L19.758,4.822a2.432,2.432,0,0,0-2.98,1.685,2.49,2.49,0,0,0,1.691,2.98" transform="translate(85.313 24.071)" fill="#f08d24"/>
            <path id="패스_4294" data-name="패스 4294" d="M14.939,8.88A39.567,39.567,0,0,0,24.067,12.4a2.419,2.419,0,1,0,1.282-4.665,36.5,36.5,0,0,1-4.3-1.343c-.348-.134-.69-.275-1.032-.409-.171-.073-.1-.043.214.085-.1-.037-.2-.079-.287-.122-.171-.073-.342-.153-.507-.226-.7-.324-1.38-.659-2.058-1.02A2.419,2.419,0,0,0,14.939,8.88" transform="translate(70.3 22.455)" fill="#f08d24"/>
            <path id="패스_4295" data-name="패스 4295" d="M16.78,7.245a93.794,93.794,0,0,1,14.96,5.532,2.477,2.477,0,0,0,3.309-.867,2.452,2.452,0,0,0-.867-3.316A101.266,101.266,0,0,0,18.068,2.58a2.449,2.449,0,0,0-2.98,1.685,2.466,2.466,0,0,0,1.691,2.98" transform="translate(76.696 12.752)" fill="#f08d24"/>
            <path id="패스_4296" data-name="패스 4296" d="M44.486,10.088C23.811,22.526,5.615,40.789.071,64.987c-.7,3.035,3.969,4.329,4.665,1.288,5.276-23.007,22.543-40.183,42.192-52.01,2.668-1.6.238-5.788-2.442-4.176" transform="translate(0.002 49.658)" fill="#f08d24"/>
            <path id="패스_4297" data-name="패스 4297" d="M27.93,19.856C43.86,38.4,45.057,64.075,40.4,87.021c-.617,3.041,4.048,4.341,4.671,1.288C50.094,63.513,48.5,36.4,31.355,16.43c-2.033-2.363-5.447,1.075-3.425,3.425" transform="translate(139.453 79.836)" fill="#f08d24"/>
            <path id="패스_4298" data-name="패스 4298" d="M104.484.728C90.91-1.867,73.362,2.676,62.53,11.163c-11.357,8.909-20.089,21.6-27.434,33.87-16.413,27.4-27.929,57.811-31.037,89.721a2.32,2.32,0,0,0,1.2,2.088A79.579,79.579,0,0,0,17.3,141.067c3.016.788,4.3-3.877,1.282-4.665-3.383-.885-8.634-1.551-9.324-5.214-.659-3.535,1.191-8.75,1.875-12.346A188.12,188.12,0,0,1,16.357,98,228.814,228.814,0,0,1,33.972,56.768c6.857-12.615,14.636-24.906,24.583-35.329C69.393,10.082,87.186,2.34,103.2,5.393c3.047.586,4.347-4.079,1.288-4.665" transform="translate(20.694 -0.002)" fill="#231815"/>
            <path id="패스_4299" data-name="패스 4299" d="M28.682,10.24C43.2,28.338,41.5,54.27,39.355,76.031A209.509,209.509,0,0,1,21.7,142.592a2.467,2.467,0,0,0,.867,3.309A55.245,55.245,0,0,0,37.1,151.183c3.041.641,4.341-4.024,1.288-4.671a50.583,50.583,0,0,1-13.384-4.787l.873,3.309A217.279,217.279,0,0,0,44.435,73.473c1.991-22.684,2.674-47.95-12.328-66.659-1.954-2.424-5.355,1.02-3.425,3.425" transform="translate(109.319 30.572)" fill="#231815"/>
            <path id="패스_4300" data-name="패스 4300" d="M9.265,15.367q7,2.72,13.989,5.434a2.433,2.433,0,0,0,2.98-1.691,2.491,2.491,0,0,0-1.691-2.98q-7-2.711-13.989-5.428a2.425,2.425,0,0,0-2.98,1.685,2.493,2.493,0,0,0,1.691,2.98" transform="translate(38.3 54.038)" fill="#231815"/>
            <path id="패스_4301" data-name="패스 4301" d="M7.593,17.218q7.474,3.169,14.941,6.344a2.492,2.492,0,0,0,3.309-.873c.55-1.032.372-2.778-.867-3.309L10.036,13.041a2.483,2.483,0,0,0-3.309.867c-.55,1.038-.379,2.778.867,3.309" transform="translate(32.828 65.181)" fill="#231815"/>
            <path id="패스_4302" data-name="패스 4302" d="M7.495,19.21q7.611,3.169,15.216,6.332a2.42,2.42,0,0,0,2.974-1.691,2.5,2.5,0,0,0-1.691-2.98q-7.6-3.16-15.21-6.326A2.43,2.43,0,0,0,5.8,16.23a2.5,2.5,0,0,0,1.691,2.98" transform="translate(29.251 73.624)" fill="#231815"/>
            <path id="패스_4303" data-name="패스 4303" d="M7.109,21.111q7.2,2.134,14.392,4.292L20.053,21.85c-.031.049-.055.1-.079.153.287-.287.574-.58.867-.867l-.159.079c.409-.11.818-.22,1.221-.33l-.171-.018a2.42,2.42,0,0,0-2.418,2.418A2.485,2.485,0,0,0,21.732,25.7a2.63,2.63,0,0,0,2.5-1.41,2.452,2.452,0,0,0-1.447-3.554Q15.593,18.577,8.4,16.446a2.449,2.449,0,0,0-2.98,1.685,2.474,2.474,0,0,0,1.691,2.98" transform="translate(27.317 83.526)" fill="#231815"/>
            <path id="패스_4304" data-name="패스 4304" d="M6.226,23.609q7.071,1.832,14.147,3.657A2.42,2.42,0,1,0,21.662,22.6Q14.592,20.77,7.515,18.944a2.42,2.42,0,1,0-1.288,4.665" transform="translate(22.82 96.348)" fill="#231815"/>
            <path id="패스_4305" data-name="패스 4305" d="M26.3,20.459q6.2,1.447,12.242,3.45a2.436,2.436,0,0,0,2.98-1.691,2.478,2.478,0,0,0-1.691-2.974q-6.045-2.006-12.242-3.45A2.42,2.42,0,1,0,26.3,20.459" transform="translate(125.328 80.307)" fill="#231815"/>
            <path id="패스_4306" data-name="패스 4306" d="M26.187,22.44a100.384,100.384,0,0,1,11.888,3.554,2.435,2.435,0,0,0,2.98-1.685,2.485,2.485,0,0,0-1.691-2.98,99.588,99.588,0,0,0-11.888-3.554,2.42,2.42,0,1,0-1.288,4.665" transform="translate(124.746 90.422)" fill="#231815"/>
            <path id="패스_4307" data-name="패스 4307" d="M25.911,24.372a98.636,98.636,0,0,1,11.3,3.5,2.427,2.427,0,0,0,2.974-1.691A2.477,2.477,0,0,0,38.5,23.211a99.013,99.013,0,0,0-11.3-3.5,2.42,2.42,0,1,0-1.288,4.665" transform="translate(123.337 100.256)" fill="#231815"/>
            <path id="패스_4308" data-name="패스 4308" d="M25.324,26.359q6.1,1.575,12.273,2.87a2.42,2.42,0,0,0,1.288-4.665q-6.173-1.291-12.273-2.87a2.42,2.42,0,1,0-1.288,4.665" transform="translate(120.309 110.383)" fill="#231815"/>
            <path id="패스_4309" data-name="패스 4309" d="M25.1,28.487a79.318,79.318,0,0,0,12.346,3.706,2.42,2.42,0,1,0,1.288-4.665,78.921,78.921,0,0,1-12.346-3.706,2.43,2.43,0,0,0-2.98,1.685,2.493,2.493,0,0,0,1.691,2.98" transform="translate(119.147 121.029)" fill="#231815"/>
            <path id="패스_4310" data-name="패스 4310" d="M24.483,30.74l11.681,3.407a2.448,2.448,0,0,0,2.98-1.691,2.476,2.476,0,0,0-1.691-2.98q-5.843-1.694-11.681-3.4a2.42,2.42,0,1,0-1.288,4.665" transform="translate(116.028 132.703)" fill="#231815"/>
            <path id="패스_4311" data-name="패스 4311" d="M22.136,16.21c3.151-1.038,6.411-1.722,9.562-2.754A2.423,2.423,0,1,0,30.41,8.785c-3.151,1.038-6.411,1.722-9.562,2.76a2.42,2.42,0,1,0,1.288,4.665" transform="translate(97.29 44.324)" fill="#231815"/>
            <path id="패스_4312" data-name="패스 4312" d="M15.286,10.987a66.688,66.688,0,0,0,5.153,6.7,2.422,2.422,0,0,0,1.71.708,2.459,2.459,0,0,0,1.71-.708,2.418,2.418,0,0,0,.708-1.71c-.024-.214-.055-.434-.085-.647a2.461,2.461,0,0,0-.623-1.069c-.946-1.172-1.942-2.308-2.87-3.5l.379.488c-.672-.873-1.319-1.771-1.905-2.711a2.521,2.521,0,0,0-1.441-1.111,2.421,2.421,0,0,0-2.735,3.554" transform="translate(76.352 37.536)" fill="#231815"/>
            <path id="패스_4313" data-name="패스 4313" d="M20.256,19.123q2.537-2.464,4.915-5.08H21.752a20.914,20.914,0,0,1,1.624,1.581q.366.385.7.788l.336.4c.318.379-.275-.372.1.134a22.885,22.885,0,0,1,2.271,3.816,2.43,2.43,0,0,0,3.309.873,2.492,2.492,0,0,0,.867-3.316,23.656,23.656,0,0,0-5.788-7.7,2.448,2.448,0,0,0-3.419,0q-2.381,2.61-4.928,5.074a2.424,2.424,0,1,0,3.432,3.425" transform="translate(82.361 50.68)" fill="#231815"/>
          </g>
        </g>
      </g>
    </g>
  </g>
</svg>
