<svg xmlns="http://www.w3.org/2000/svg" xmlns:xlink="http://www.w3.org/1999/xlink" width="196.93" height="209.739" viewBox="0 0 196.93 209.739">
  <defs>
    <clipPath id="clip-path">
      <rect id="사각형_1866" data-name="사각형 1866" width="196.93" height="209.739" transform="translate(182 44)" fill="#fff"/>
    </clipPath>
    <clipPath id="clip-path-2">
      <rect id="사각형_1865" data-name="사각형 1865" width="178.108" height="212.313" fill="none"/>
    </clipPath>
  </defs>
  <g id="마스크_그룹_10" data-name="마스크 그룹 10" transform="translate(-182 -44)" clip-path="url(#clip-path)">
    <g id="그룹_1082" data-name="그룹 1082" transform="translate(205.215 68.226)">
      <g id="그룹_862" data-name="그룹 862" transform="translate(0 0)">
        <g id="그룹_1083" data-name="그룹 1083">
          <g id="그룹_860" data-name="그룹 860" transform="translate(0 0)">
            <g id="그룹_1084" data-name="그룹 1084" transform="translate(0 0)">
              <g id="그룹_1082-2" data-name="그룹 1082" clip-path="url(#clip-path-2)">
                <path id="패스_2711" data-name="패스 2711" d="M114.346,40.059c-1.119-.642-2.268-1.393-3.558-2.035-1.17-.58-2.553-.844-3.848-1.419-1.212-.539-2.418-1.176-3.723-1.7-1.238-.5-2.372-1.362-3.682-1.844-1.258-.466-2.62-.735-3.936-1.181-1.274-.435-2.481-1.17-3.8-1.579-1.289-.4-2.755-.274-4.076-.653-1.305-.373-2.688-.482-4.013-.829s-2.569-.979-3.9-1.289-2.683-.539-4.024-.813-2.739-.238-4.086-.476-2.641-.8-3.988-1c-1.372-.2-2.646-1.082-3.993-1.233-1.383-.161-2.776-.2-4.122-.306-1.393-.109-2.781-.212-4.122-.254-1.4-.047-2.786.663-4.122.694-1.409.036-2.771-.083-4.091.036-1.409.135-2.869-.29-4.158-.052a33.327,33.327,0,0,1-3.7,2.263c-1.051.554-2.418,1-3.786,1.776-1.119.632-2.372,1.289-3.641,2.056-1.139.689-2.222,1.621-3.433,2.413-1.139.735-1.916,2.077-3.086,2.89-1.129.792-2.833.839-3.956,1.693-1.108.839-1.926,2.082-3,2.983s-1.875,2.108-2.89,3.061c-1.031.968-2.382,1.6-3.319,2.615-.963,1.041-2.077,1.978-2.91,3.066-.87,1.134-1.046,2.714-1.74,3.889a24.992,24.992,0,0,0-1.885,3.682,18.857,18.857,0,0,0-1.3,3.925,38.659,38.659,0,0,0,3.718,1.771c1.181.461,2.418,1.144,3.832,1.616,1.238.419,2.641.611,4.029,1.036,1.274.388,2.532,1.036,3.915,1.424,1.295.363,2.791.15,4.164.513,1.31.347,2.475,1.378,3.848,1.719,1.321.331,2.688.59,4.055.911,1.326.316,2.693.533,4.045.839s2.755.3,4.117.585c1.346.29,2.724.471,4.086.746s2.745.43,4.107.689,2.667.854,4.029,1.1,2.693.8,4.05,1.031c1.378.238,2.8.171,4.153.383,1.393.223,2.771.409,4.127.606,1.4.2,2.8.223,4.148.4,1.414.186,2.75.756,4.1.906,1.424.161,2.869-.285,4.205-.166,1.44.129,2.828.026,4.138.1,1.471.088,2.993.829,4.267.839a18.092,18.092,0,0,1,.943-3.972c.4-1.093.642-2.418,1.222-3.708.507-1.124.849-2.434,1.466-3.635.585-1.139,2.092-1.813,2.75-2.952s1.119-2.367,1.823-3.439c.741-1.129,1.346-2.289,2.108-3.278a27.4,27.4,0,0,1,2.719-2.786,10.914,10.914,0,0,1,2.988-2.284c.052-.026,1.4-1.331,3.263-2.884,1.015-.839,2.071-1.911,3.211-2.874s2.356-1.854,3.34-2.714c1.844-1.611,3.1-2.7,2.962-2.781-.041,0-.031-.119-.031-.119" transform="translate(18.62 97.983)" fill="#f4da82" fill-rule="evenodd"/>
                <path id="패스_2712" data-name="패스 2712" d="M25.7,17.941c-.409.844-.637,2.227-1.17,3.9-.368,1.144-.606,2.491-1.015,3.946-.347,1.227-1.585,2.315-1.952,3.723-.326,1.258-.181,2.714-.518,4.1-.316,1.289-1.113,2.506-1.434,3.874-.306,1.305.186,2.828-.124,4.184-.3,1.31-.865,2.579-1.16,3.92s-.922,2.594-1.207,3.941.269,2.859,0,4.2c-.274,1.357-1.585,2.5-1.849,3.837-.264,1.367-.513,2.729-.756,4.06-.254,1.378.274,2.869.041,4.189-.243,1.393-.963,2.667-1.176,3.982-.228,1.419-.616,2.76-.808,4.055-.207,1.445-.482,2.807-.627,4.06-.181,1.523.3,2.957.218,4.133a12.047,12.047,0,0,0,.155,3.7c1.341.114,2.465.906,3.822.994,1.336.083,2.672.331,4.034.409,1.331.073,2.714-.554,4.076-.482,1.331.078,2.693-.073,4.055.021,1.326.093,2.626.818,3.988.937,1.336.119,2.641.6,4.013.761,1.326.155,2.677.186,4.044.394,1.321.2,2.807-.44,4.169-.186,1.31.243,2.563.932,3.92,1.238,1.295.29,2.6.663,3.941,1.02,1.289.342,2.594.709,3.925,1.113,1.274.394,2.672.528,3.988.984,1.258.435,2.563.875,3.863,1.378,1.238.482,2.3,1.486,3.584,2.03,1.222.523,2.693.575,3.956,1.16,1.207.559,2.346,1.352,3.589,1.973,1.2.6,2.082,1.833,3.309,2.486,1.181.632,2.527,1,3.739,1.688,1.16.658,2.206,1.559,3.4,2.279,1.155.689,2.491,1.113,3.672,1.859,1.139.72,2.2,1.585,3.366,2.356a4.306,4.306,0,0,0,4.221.088,11.974,11.974,0,0,0,3.164-2.755,26.688,26.688,0,0,0,2.8-3.128c.756-1.072,1.243-2.429,2-3.713.684-1.155,1.854-2.118,2.532-3.413.632-1.207,1-2.6,1.621-3.91.59-1.238,1.243-2.486,1.823-3.8.559-1.269.911-2.646,1.455-3.962.533-1.279.818-2.672,1.336-3.982s1.455-2.444,1.947-3.765.637-2.776,1.108-4.1c.476-1.341.875-2.693,1.326-4.019.456-1.352,1.5-2.5,1.926-3.817.44-1.367.9-2.7,1.3-4.019.425-1.388,1.025-2.688,1.4-4,.409-1.414-.217-3.061.135-4.355.388-1.445,1-2.734,1.31-3.993.368-1.528.709-2.884.943-4.076a37.566,37.566,0,0,0,.932-4.117,13.708,13.708,0,0,0-.839-4.055,17.183,17.183,0,0,0-1.983-3.6,23.164,23.164,0,0,0-2.538-3.226,32.706,32.706,0,0,0-2.936-2.843c-1.02-.834-1.963-1.9-3.128-2.688-1.093-.741-2.657-.823-3.868-1.523-1.155-.663-2.336-1.315-3.584-1.937-1.2-.6-2.367-1.295-3.635-1.854-1.227-.539-2.475-1.082-3.765-1.585-1.253-.492-2.589-.777-3.889-1.233-1.274-.44-2.413-1.341-3.729-1.75-1.289-.4-2.724-.383-4.044-.746s-2.589-.875-3.92-1.2-2.672-.554-4.008-.839-2.683-.528-4.024-.777-2.62-.953-3.967-1.165-2.8.212-4.148.041c-1.367-.176-2.708-.44-4.06-.57-1.378-.135-2.714-.57-4.065-.658-1.383-.088-2.755-.259-4.1-.3-1.4-.041-2.786.057-4.138.072-1.4.021-2.776.135-4.107.217-1.4.078-2.734.528-4.045.678-1.414.166-2.791.186-4.081.435a37.771,37.771,0,0,0-3.91,1.2,27.988,27.988,0,0,0-3.9,1.17,17.17,17.17,0,0,0-3.62,1.958c-1.1.932-1.352,2.382-1.916,3.563l-.4-.181" transform="translate(49.759 36.839)" fill="#e9d07a" fill-rule="evenodd"/>
                <path id="패스_2713" data-name="패스 2713" d="M162.085,15.241c.5.932,1.849,1.916,2.191,3.594a39.549,39.549,0,0,1,.917,4.1c.14,1.274-1.233,2.771-1.15,4.246.072,1.305.217,2.662.249,4.107.031,1.331.606,2.7.6,4.133-.01,1.341-.72,2.708-.761,4.127-.041,1.352,1.207,2.786,1.139,4.2-.067,1.357-.761,2.714-.854,4.122-.088,1.357.689,2.8.57,4.2-.109,1.362-.813,2.693-.948,4.086-.135,1.367-.948,2.672-1.108,4.06-.155,1.367-.29,2.739-.471,4.127-.176,1.367.041,2.8-.161,4.179-.2,1.367-.948,2.657-1.17,4.034s-.5,2.719-.746,4.091.476,2.916.212,4.278-.943,2.662-1.233,4.024-.533,2.75-.844,4.107-.331,2.807-.673,4.153c-.347,1.367-1.025,2.636-1.4,3.967-.378,1.362-.217,2.869-.621,4.19-.414,1.352-2.1,2.268-2.543,3.573-.451,1.336-.285,2.859-.766,4.143-.5,1.321-.518,2.812-1.046,4.07-.549,1.305-1.761,2.289-2.346,3.516-.611,1.284-1.362,2.444-2.014,3.63-.689,1.253-1.362,2.434-2.092,3.558-.787,1.2-1.062,2.714-1.9,3.755a30.478,30.478,0,0,1-2.962,2.941c-1.041,1-2.486,1.108-3.594,1.833-1.952.854-1.486,1.989-3.48,2.739s-2.315-.1-4.3.647-1.6,1.8-3.584,2.553-2.108.461-4.1,1.217-1.906.984-3.9,1.74-2.346-.186-4.335.57-2.1.451-4.091,1.2-1.921.958-3.92,1.709-1.813,1.258-3.817,2.014-2.279.036-4.288.792-1.719,1.512-3.729,2.273c-1.181.445-2.527.181-3.76.383a18.081,18.081,0,0,1-3.666.171c-1.243-.052-2.584.59-3.806.29-1.958-.383-1.455-.1-3.951-.5-1.113-.176-2.465-.233-3.956-.476-1.207-.2-2.372-1.341-3.78-1.579-1.243-.217-2.729.559-4.1.316-1.264-.223-2.522-.772-3.874-1.015-1.279-.238-2.449-1.248-3.786-1.5-1.284-.243-2.817.627-4.143.363-1.289-.254-2.3-1.973-3.615-2.242-1.3-.269-2.594-.57-3.9-.849s-2.714-.1-4.013-.394-2.76.01-4.05-.3c-1.315-.311-2.7-.3-3.982-.621-1.321-.331-2.279-1.947-3.542-2.289-1.326-.357-2.693-.425-3.941-.792-1.331-.394-2.947.243-4.164-.155-1.336-.445-2.387-1.548-3.553-2-1.362-.523-2.833-.59-3.915-1.119a15.75,15.75,0,0,1-3.185-2.5,13.33,13.33,0,0,1-3.024-2.983c-.694-1.072-.813-2.631-1.419-4-.539-1.207-.658-2.62-1.113-4.019-.414-1.274-2.056-2.268-2.393-3.672-.316-1.321-.456-2.771-.689-4.179-.223-1.357-.331-2.791-.471-4.205-.14-1.377-.052-2.817-.1-4.231-.047-1.393-.067-2.817-.026-4.221s.052-2.833.192-4.226.508-3.247.756-4.619A33.169,33.169,0,0,0,7.824,95.4c1.144.564,2.651.585,4.019,1.144,1.217.492,2.154,1.942,3.521,2.434,1.248.445,2.76.342,4.122.777,1.279.414,2.387,1.543,3.749,1.947,1.295.383,2.941-.311,4.3.062,1.315.363,2.677.6,4.039.948,1.326.337,2.745.326,4.1.658,1.326.321,2.325,2.087,3.677,2.4s2.859-.14,4.215.161,2.563,1.248,3.92,1.533,2.843-.036,4.2.233,2.651.963,4.008,1.217c1.372.254,2.921-.5,4.272-.254,1.378.243,2.729.544,4.076.772,1.388.233,2.755.451,4.1.663,1.4.217,2.771.409,4.112.606,1.414.2,2.739.709,4.065.886,1.434.186,2.781.642,4.091.792,1.46.166,2.8.761,4.081.875,1.5.14,2.662-.621,3.889-.559.4-1.315.357-2.543.834-3.806.487-1.289,1.383-2.434,1.942-3.661.57-1.253.86-2.672,1.5-3.863.647-1.207,1.88-2.1,2.594-3.252.725-1.165,1.636-2.206,2.413-3.309.792-1.119,1.849-2.02,2.693-3.076.854-1.077,1.082-2.667,1.983-3.677.906-1.025,2.506-1.4,3.449-2.361.963-.979,1.937-1.906,2.926-2.817,1.015-.932,1.636-2.284,2.662-3.149,1.056-.891,2.584-1.155,3.646-1.978,1.1-.844,1.952-1.963,3.04-2.739,1.134-.8,1.807-2.253,2.926-2.983,1.165-.766,2.47-1.284,3.6-1.973,1.207-.73,2.361-1.486,3.506-2.128,1.248-.7,2.589-1.119,3.739-1.719,1.284-.668,2.724-.823,3.853-1.367,1.367-.663,2.315-1.854,3.392-2.336,1.652-.741,2.973-1,3.755-1.357.28-1.341.487-2.693.834-4.076.337-1.331,1.419-2.481,1.818-3.848.388-1.315.067-2.879.518-4.236.435-1.305,1.072-2.574,1.564-3.91.476-1.289.772-2.688,1.3-4.008.518-1.274,1.181-2.522,1.756-3.827.554-1.258,1.543-2.346,2.154-3.635.585-1.243.621-2.786,1.258-4.055.621-1.238,2.149-2.025,2.817-3.283.647-1.222.829-2.708,1.523-3.956.673-1.207,1.745-2.211,2.465-3.444.7-1.2.264-2.853,1.01-4.07.073-.269.233.451.233.451" transform="translate(12.844 61.552)" fill="#e6bf61" fill-rule="evenodd"/>
                <path id="패스_2714" data-name="패스 2714" d="M54.41,20.554c-.176,1.491-.627,2.879-.746,4.236-.129,1.481-.223,2.895-.326,4.257-.114,1.466.161,2.905.026,4.283-.135,1.429-.414,2.817-.632,4.205s-.746,2.708-1.1,4.1c-.2.8-1.088,1.807-2.884,2.729-1.041.533-2.284,1.186-3.729,1.813-1.155.5-2.61.6-3.967,1.186-1.2.507-2.434,1.124-3.754,1.709-1.207.539-2.33,1.383-3.615,2-1.212.575-2.418,1.227-3.672,1.88-1.2.621-2.387,1.295-3.6,1.994-1.176.668-2.512,1.113-3.687,1.859-1.15.73-2.159,1.688-3.294,2.5-1.113.787-2.211,1.605-3.3,2.475-1.067.849-2.33,1.491-3.361,2.429-1.01.911-1.766,2.113-2.729,3.112-.948.984-2.066,1.833-2.957,2.9-.87,1.051-1.652,2.253-2.465,3.387a21.224,21.224,0,0,1-.15-4.1,24.668,24.668,0,0,1,.772-3.982,30.482,30.482,0,0,1,1.543-3.739,37.738,37.738,0,0,1,1.978-3.5c.637-1.155.979-2.522,1.74-3.656.735-1.1,1.823-1.978,2.657-3.061.813-1.051,1.352-2.351,2.242-3.376.875-1.01,2.1-1.719,3.035-2.7s1.616-2.185,2.589-3.123,2.165-1.636,3.164-2.527c1.01-.906,2.087-1.714,3.118-2.574,1.046-.87,1.906-1.952,2.952-2.776,1.082-.844,2.092-1.75,3.159-2.538,1.108-.823,2.434-1.295,3.511-2.046,1.144-.8,2.268-1.533,3.356-2.248,1.186-.777,2.279-1.574,3.371-2.242,1.248-.761,2.232-1.781,3.314-2.382,1.352-.746,2.755-1,3.775-1.481,2.315-1.082,3.609-1.564,3.542-1.02.01.062.129.016.129.016" transform="translate(18.422 84.883)" fill="#e6bf61" fill-rule="evenodd"/>
                <path id="패스_2715" data-name="패스 2715" d="M59.654,21.561a32.016,32.016,0,0,0-3.672-.782,29.692,29.692,0,0,0-3.666-.72,13.587,13.587,0,0,0-4.05.766,23.274,23.274,0,0,0-3.9,1.362,39.637,39.637,0,0,0-3.609,2.051c-1.139.694-2.439,1.248-3.609,2.087-1.1.787-2.18,1.668-3.294,2.563-1.062.86-2.191,1.683-3.252,2.62-1.031.911-1.885,2.04-2.9,3.014-1,.953-2.268,1.657-3.247,2.657s-1.766,2.165-2.708,3.19-1.859,2.087-2.765,3.133c-.922,1.062-1.937,2.035-2.807,3.107-.9,1.1-1.642,2.289-2.475,3.376-.865,1.139-1.8,2.18-2.589,3.288-.834,1.176-1.455,2.439-2.18,3.563-.8,1.243-1.7,2.336-2.356,3.485-.741,1.321-1.315,2.6-1.828,3.76a20.09,20.09,0,0,0-1.476,3.9c-.363,1.859-.021,3.408,1.051,3.962a20.857,20.857,0,0,1,2.734,1.6,5.031,5.031,0,0,0,2.973,1.17,15.911,15.911,0,0,1,.223-4.05,31.161,31.161,0,0,1,1.491-3.723c.482-1.16.979-2.408,1.626-3.646.59-1.129,1.186-2.33,1.9-3.506.673-1.1,1.538-2.134,2.3-3.263.735-1.072,1.326-2.3,2.144-3.387.782-1.046,1.818-1.942,2.672-2.993.823-1.025,1.823-1.921,2.708-2.941.865-1,1.517-2.211,2.429-3.2.906-.968,2.014-1.756,2.957-2.714.891-.9,1.926-1.7,2.931-2.584.968-.849,1.89-1.781,2.931-2.6,1.015-.808,1.906-1.813,2.967-2.584s2.3-1.3,3.382-2.03c1.1-.746,2.248-1.393,3.335-2.087,1.139-.725,2.185-1.523,3.278-2.175,1.181-.7,2.284-1.414,3.366-2.02,1.248-.7,2.47-1.217,3.527-1.761,1.388-.72,2.594-1.269,3.506-1.668.031-.016-.052-.212-.052-.212" transform="translate(13.079 83.788)" fill="#f7e29b" fill-rule="evenodd"/>
                <path id="패스_2716" data-name="패스 2716" d="M74.9,25.936a23.287,23.287,0,0,1-3.154-1.383,9.8,9.8,0,0,0-3.2-1.191,13.285,13.285,0,0,0-3.936.813,22.262,22.262,0,0,0-3.76,1.357,35.381,35.381,0,0,0-3.589,1.813c-1.1.673-2.046,1.657-3.169,2.475-1.051.766-2.191,1.476-3.257,2.351-1.015.829-2.066,1.662-3.086,2.574-.984.88-1.833,1.932-2.812,2.874-.958.927-2.113,1.667-3.055,2.641-.927.958-1.807,1.978-2.714,2.973s-1.662,2.118-2.538,3.133-1.911,1.916-2.75,2.952c-.86,1.056-1.512,2.253-2.32,3.309-.834,1.082-1.823,2.025-2.594,3.1-.8,1.119-1.512,2.268-2.237,3.351-.777,1.16-1.564,2.253-2.232,3.351-.741,1.222-1.481,2.367-2.077,3.49-.684,1.289-1.4,2.46-1.869,3.584a18.032,18.032,0,0,0-1.108,3.884c-.3,1.792.145,3.076,1.176,3.61a10.921,10.921,0,0,0,3.858,1.031c1.393.124,2.988.15,4.143.15a16.012,16.012,0,0,1,.544-4.314,26.434,26.434,0,0,1,1.4-4.019c.564-1.217,1.393-2.382,2.149-3.661.694-1.17,1.471-2.356,2.31-3.573.782-1.129,1.647-2.258,2.543-3.423.844-1.1,1.44-2.455,2.377-3.578.9-1.067,1.823-2.159,2.791-3.247.932-1.046,1.947-2.071,2.941-3.128.968-1.025,1.942-2.082,2.962-3.112.948-.963,1.942-1.937,2.957-2.895.994-.943,2.227-1.652,3.263-2.574s1.994-1.932,3.04-2.817c1.077-.9,2.206-1.714,3.268-2.563,1.113-.886,2.1-1.89,3.169-2.688,1.155-.87,2.3-1.657,3.382-2.4,1.233-.854,2.579-1.341,3.651-2,1.383-.844,2.382-1.9,3.382-2.33.057-.031.15.083.15.083" transform="translate(80.865 97.594)" fill="#f7e29b" fill-rule="evenodd"/>
                <path id="패스_2717" data-name="패스 2717" d="M65.264,4.063a16.126,16.126,0,0,1,3.858,1.357,26.23,26.23,0,0,0,4.055,1.9c1.321.425,2.714,1.036,4.169,1.517,1.429.476,2.848.865,4.164,1.429,1.507.642,3.174.715,4.195,1.512,1.383,1.072,2.527,2.677,2.263,4.112-.937.6-2.781,2.475-2.6,3.3,1.31.466,2.574.777,3.749,1.31,1.269.57,1.973,2.1,3.086,2.739a33.744,33.744,0,0,1,3.4,2c1.108.823,2.76.953,3.677,1.859.979.963,1.051,2.657,1.823,3.708.8,1.093,1.916,1.921,2.512,3.092a25.194,25.194,0,0,1,1.714,3.63c.4,1.258.171,2.672.388,4,.212,1.3,1.212,2.548,1.258,3.9.047,1.31-.937,2.631-1.036,3.982-.088,1.31-.233,2.6-.451,3.941-.207,1.289.269,2.739-.041,4.06-.3,1.274-.922,2.5-1.315,3.8-.378,1.253-.29,2.708-.746,3.977-.445,1.238-1.859,2.128-2.372,3.371-.5,1.222-.171,2.828-.73,4.05-.549,1.207-1.062,2.465-1.657,3.666s-1.963,1.994-2.6,3.18c-.627,1.17-.492,2.8-1.16,3.962-.735,1.15-1.906,2.035-2.646,3.18S90.613,88.8,89.878,89.95s-1.253,2.434-1.983,3.584-1.253,2.434-1.973,3.589S84.71,99.572,84,100.732s-2.47,1.688-3.169,2.859-.513,2.864-1.2,4.039-1.9,2.051-2.569,3.242S75.274,113,74.627,114.2s-.87,2.626-1.491,3.837-.554,2.765-1.144,3.988-1.585,2.258-2.144,3.5-.963,2.543-1.491,3.8-1.554,2.3-2.046,3.578-.057,2.869-.508,4.153-.839,2.563-1.243,3.863-1.491,2.382-1.849,3.7-.461,2.683-.766,4.008-1.564,2.46-1.823,3.8.274,2.828.073,4.179c-.9.689-2.356.554-3.884.968-1.181.316-2.31,1.512-3.775,1.678-1.264.14-2.657-.539-4.081-.508-1.3.026-2.631.124-4.029.062-1.321-.062-2.641-.3-4.013-.435-1.336-.135-2.771.414-4.122.2-1.336-.2-2.693-.44-4.024-.715s-2.745-.326-4.05-.668c-1.336-.352-2.538-1.15-3.806-1.574-1.321-.435-2.833-.368-4.055-.88-1.295-.549-2.32-1.657-3.464-2.289a26.257,26.257,0,0,1-3.361-2.325c-1.15-.886-2.672-1.4-3.454-2.408-.88-1.124-.243-2.916-.554-4.184a6.6,6.6,0,0,1-.047-3.62c.559-1.274-.3-3.024.145-4.309.456-1.305,2.118-2.227,2.465-3.542.352-1.331-.518-2.931-.264-4.272s1.305-2.563,1.471-3.92.756-2.708.839-4.081-.844-2.781-.834-4.153-.362-2.708-.414-4.086c-.052-1.362.808-2.776.7-4.148s-.673-2.688-.818-4.055-.642-2.672-.818-4.034.306-2.8.109-4.158-.544-2.683-.756-4.039-.766-2.651-.979-4,.632-2.879.419-4.231S9.723,80.266,9.522,78.9s-1.093-2.615-1.274-3.977.311-2.807.155-4.169-.958-2.667-1.077-4.029S8.418,63.9,8.341,62.534s-.813-2.7-.834-4.07-.005-2.739.036-4.107c.021-1.393.709-2.734.746-4.07.041-1.393-1.315-2.807-1.248-4.138.073-1.388.2-2.755.306-4.081.109-1.388.756-2.7.911-4.013.161-1.388.269-2.755.487-4.055.238-1.383.8-2.657,1.113-3.936a39.784,39.784,0,0,1,1.559-3.754,30.38,30.38,0,0,1,1.693-3.6,23.545,23.545,0,0,1,1.823-3.527A18.968,18.968,0,0,1,17.7,16.367c.989-.886,1.709-2.071,2.905-2.755,1.134-.647,2.128-1.844,3.464-2.3,1.217-.419,2.807.285,4.205.026,1.258-.228,2.5-.958,3.915-1.056,1.289-.083,2.667-.772,4.1-.741,1.3.031,2.724,1.3,4.143,1.429.3-.471.005-.9.3-1.647-.642-1.176-.135-3.677.192-5.35A10.008,10.008,0,0,1,44.8,2.732c1.227-.067,2.636.611,4.1.637,1.326.021,2.714.062,4.1.124s2.822-.673,4.143-.6c1.481.083,2.869.181,4.1.233,1.849.078,3.252,1.056,4.019.937" transform="translate(29.411 11.395)" fill="#9fca9e" fill-rule="evenodd"/>
                <path id="패스_2718" data-name="패스 2718" d="M32.673,137.872c.2-1.357.129-2.745.383-4.081s.316-2.739.627-4.065,1.165-2.532,1.523-3.843.7-2.636,1.108-3.936,1.134-2.491,1.579-3.775.186-2.843.678-4.112,1.952-2.149,2.481-3.408.482-2.755,1.041-4,1.838-2.139,2.434-3.366.176-2.952.8-4.164S47.148,97,47.8,95.8s1.378-2.346,2.046-3.537.865-2.636,1.548-3.817,2.113-1.911,2.817-3.076,1.352-2.356,2.061-3.521.9-2.646,1.621-3.8,1.139-2.5,1.869-3.651,1.569-2.232,2.3-3.382,1.372-2.361,2.108-3.506,1.429-2.3,2.165-3.454c.689-1.2,2.087-1.989,2.734-3.2s1.357-2.424,1.973-3.651c.621-1.243.9-2.651,1.471-3.894.58-1.269,1.409-2.424,1.926-3.687.528-1.295.725-2.708,1.181-4,.466-1.315,1.062-2.584,1.44-3.889.394-1.346.839-2.672,1.129-4,.3-1.367.834-2.708,1.015-4.055.181-1.388.047-2.828.093-4.184a34.3,34.3,0,0,0-.482-4.138,30.576,30.576,0,0,0-.264-4.153,27.639,27.639,0,0,0-1.16-4.019,27.284,27.284,0,0,0-2.32-3.48,27.6,27.6,0,0,0-2.574-3.2A30.1,30.1,0,0,0,69.84,7.205c.264,1.134-.155,2.569-.383,4.1a25.961,25.961,0,0,1-.943,3.868c-.388,1.233.166,2.9-.378,4.2-.513,1.222-2.18,1.963-2.8,3.2-.6,1.207-.689,2.693-1.362,3.874-.684,1.2-1.828,2.087-2.548,3.206-.647,1.01-.917,2.455-1.688,3.749-.647,1.082-1.274,2.294-1.994,3.553-.642,1.124-2,1.921-2.693,3.164-.637,1.144-.766,2.631-1.44,3.863-.627,1.16-1.491,2.242-2.144,3.47-.627,1.17-1.274,2.372-1.916,3.6-.621,1.181-.642,2.7-1.274,3.931-.616,1.2-1.8,2.118-2.424,3.345-.606,1.2-.917,2.553-1.528,3.77s-1.419,2.315-2.025,3.537-.963,2.558-1.564,3.78-1.906,2.108-2.5,3.335-.306,2.89-.9,4.117-.906,2.6-1.486,3.827c-.585,1.248-1.574,2.294-2.144,3.521-.58,1.253-1.5,2.336-2.051,3.563-.575,1.258-1.31,2.429-1.854,3.651-.564,1.269-.29,2.879-.823,4.107-.559,1.284-1.724,2.268-2.242,3.5-.549,1.295-1.217,2.506-1.714,3.729-.533,1.315-.378,2.848-.844,4.07-.518,1.336-1.253,2.506-1.683,3.708-.492,1.383-1.554,2.47-1.916,3.646-.383,1.248-.114,2.677-.487,3.894-.383,1.253-1.269,2.33-1.642,3.542q-.583,1.888-1.134,3.7c-.388,1.264.021,2.745-.347,3.946-.394,1.269-1.248,2.361-1.616,3.547-.394,1.284-.554,2.579-.917,3.749-.4,1.295-.487,2.17-.839,3.314,1.362.135,2.294.528,3.594.585,1.383.057,2.714-.373,3.993-.4,1.4-.036,2.771.476,4.013.331a25.729,25.729,0,0,0,3.9-.865,10.341,10.341,0,0,0,3.558-1.647" transform="translate(56.875 30.107)" fill="#88b988"/>
                <path id="패스_2719" data-name="패스 2719" d="M11.13,21.383c-.88-1.719.181-1.585.792-3.718a17.639,17.639,0,0,1,1.512-3.516,11.866,11.866,0,0,1,2.03-3.288,9.866,9.866,0,0,1,3.273-2.222,32.43,32.43,0,0,1,3.993-.694c1.248-.238,2.589-.508,3.972-.678,1.326-.166,2.672-.43,4.013-.544,1.383-.114,2.776.2,4.055.129,1.481-.078,2.859-.016,4.045-.052,2.408-.078,2.159.425,4.029-.274,1.958-.725,1.5-.994,3.527-2.263a34.857,34.857,0,0,1,3.641-1.958C51.29,1.7,52.46.72,53.755.43a7.369,7.369,0,0,1,4.127.342,9.6,9.6,0,0,1,3.5,2.128A24.42,24.42,0,0,1,63.9,6.189a34.871,34.871,0,0,1,1.844,3.682c1.139,2.077.606,2.092,2.035,3.558s1.621.518,3.78,1.673c1.077.575,2.159,1.517,3.433,2.315,1.134.709,2.538,1.165,3.651,2.02A29.1,29.1,0,0,1,81.8,22.2a14.6,14.6,0,0,1,2.139,3.563,6.722,6.722,0,0,1,.974,3.848,40.78,40.78,0,0,1-.471,4.666c-.647,2.978.5,3.112-1.507,4.231-1.8,1-1.45.243-4.065-.021-1.155-.119-2.5-.513-4.065-.7-1.232-.145-2.558-.59-4.024-.787-1.274-.171-2.662-.155-4.091-.373-1.295-.192-2.636-.508-4.044-.741-1.305-.212-2.734-.021-4.133-.269-1.321-.238-2.693-.409-4.07-.678-1.326-.259-2.631-.725-4-1.015-1.326-.28-2.693-.487-4.055-.792-1.331-.306-2.7-.492-4.065-.829-1.326-.321-2.667-.647-4.013-1-1.326-.352-2.512-1.222-3.843-1.6-1.315-.373-2.646-.715-3.977-1.119-1.31-.4-2.563-1.015-3.874-1.45s-2.833-.28-4.127-.746-2.532-1.139-3.827-1.636-2.429-1.357-3.7-1.9c-1.284-.533-2.579-.9-3.832-1.476" transform="translate(45.105 1.149)" fill="#9fca9e" fill-rule="evenodd"/>
                <path id="패스_2720" data-name="패스 2720" d="M25.619,23.727c-.487,2.046,1.367.394,3.651,1.491,1.1.528,2.429,1.108,3.775,1.854,1.17.642,2.185,1.719,3.408,2.506,1.17.756,2.253,1.652,3.356,2.522,1.129.886,2.563,1.424,3.506,2.408a16.824,16.824,0,0,1,2.237,3.6,9.029,9.029,0,0,1,1.155,3.92,7.671,7.671,0,0,1-.414,4.143,38.882,38.882,0,0,1-2.216,3.356,38.7,38.7,0,0,1-2.118,3.387A26.841,26.841,0,0,1,39.11,55.7a27.413,27.413,0,0,1-2.926,2.791c-2.071,1.388-1.626,1.378-3.589,1.3-1.875-.073-1.631-.492-3.641-.772a14.515,14.515,0,0,0-3.775.451c-1.414.2-2.475.533-2.921,1.7a2.343,2.343,0,0,0,.7,3.055c1.279,1,3.252-.5,3.408,1.274.212,2.356-2.154,1.9-2.6,4.029a3.718,3.718,0,0,0,1.921,4.076,2.839,2.839,0,0,0,3.962-.59c1.434-1.45,1.859-1.538,2.434-3.744.43-1.657-.4,1.574-.44,3.34a6.54,6.54,0,0,0,.6,3.221c.5.927,1.176,1.486,2.739.943a6.671,6.671,0,0,0,3.433-2.434c1.352-1.937-.932-3.174.9-4.288,1.621-.984,1.321,2.056,3.118,2.631a4.307,4.307,0,0,0,3.625-.87,3.937,3.937,0,0,0,1.585-4.039c-.28-2.222-1.331-2.025-1.331-4.345,0-2.159.937-1.264,2.62-3.268.808-.958,1.885-1.978,2.838-3.257.813-1.093,1.4-2.449,2.211-3.713.766-1.191,1.9-2.227,2.574-3.516s.792-2.828,1.3-4.169A24.767,24.767,0,0,0,59.027,41.4a16.288,16.288,0,0,0,.487-4.246,11.823,11.823,0,0,0-1.129-4.1A11.737,11.737,0,0,0,56.1,29.439c-.979-.979-1.885-1.978-2.853-2.838-1.036-.922-2.222-1.6-3.237-2.387-1.1-.86-2.061-1.8-3.107-2.517-1.17-.8-2.449-1.264-3.527-1.9-1.258-.746-2.47-1.3-3.563-1.849-1.372-.684-2.506-1.393-3.547-1.813-2.32-.932-2.02-2.429-3.635-1.31-1.569,1.088-1.041,1.59-2.242,3.071a25.751,25.751,0,0,1-2.532,2.884c-1.336,1.346-1.787,1.088-2.232,2.947" transform="translate(91.894 60.285)" fill="#9fca9e" fill-rule="evenodd"/>
                <path id="패스_2721" data-name="패스 2721" d="M48.906,41.848c-1.134-1.771-1.326.772-3.7,1.647-1.15.43-2.594.632-4.065,1.088-1.279.394-2.6.943-4.008,1.274-1.357.316-2.755.647-4.143.839a29.333,29.333,0,0,1-4.221-.052,17.933,17.933,0,0,1-4.215-.119A9.177,9.177,0,0,1,21,44.375a7.676,7.676,0,0,1-2.739-3.159c-.476-1.341-.689-2.688-.994-3.9a38.02,38.02,0,0,1-.922-3.9,29.015,29.015,0,0,1-.2-4,20.955,20.955,0,0,1,.585-3.993c.445-2.455-.331-2.382,1.088-3.739,1.357-1.3,1.631-.689,3.226-1.942a14.629,14.629,0,0,0,2.522-2.848c.839-1.15,1.4-2.382.87-3.516A2.669,2.669,0,0,0,21.5,11.709c-1.611.228-1.844,2.812-3.231,1.688-1.844-1.481-.088-2.7-1.31-4.505a3.65,3.65,0,0,0-4.127-1.766,3.115,3.115,0,0,0-2.434,3.459c.052,2.04-.207,5.9,1.466,4.35,1.761-1.626-1.295-2.553-3.257-3.62-1.227-.668-2.688-.642-4.4.6a3.063,3.063,0,0,0-1.31,3.951c.772,1.989,2.413,1.326,2.548,3.672.109,1.9-1.792-.285-3.449.611A4.068,4.068,0,0,0,.057,23.226c-.3,1.688.637,2.833,1.9,3.77,1.8,1.341,2.216.658,3.884,2.268,1.559,1.5.471,1.491.741,4.1.129,1.248.078,2.724.342,4.3.223,1.341.269,2.828.616,4.293.326,1.378.963,2.714,1.424,4.1a36.365,36.365,0,0,0,1.372,4.127,24.576,24.576,0,0,0,2.47,3.573,16.153,16.153,0,0,0,2.926,3.092,11.787,11.787,0,0,0,3.589,2.284,11.783,11.783,0,0,0,4.226.539c1.383-.021,2.729.129,4.019.031,1.383-.109,2.708-.311,3.982-.487,1.383-.192,2.662-.58,3.91-.834,1.383-.285,2.781-.192,3.988-.523,1.4-.383,2.631-.953,3.78-1.357,1.45-.513,2.615-1.212,3.646-1.673,2.294-1.025,3.475.3,3.8-1.647.311-1.88-.585-1.921-.813-3.811a22.534,22.534,0,0,1-.383-3.811c-.005-1.921.471-2.1-.559-3.708" transform="translate(0 29.218)" fill="#9fca9e" fill-rule="evenodd"/>
                <path id="패스_2722" data-name="패스 2722" d="M18.948,14.909a3.327,3.327,0,1,1-3.325-3.325,3.322,3.322,0,0,1,3.325,3.325" transform="translate(51.368 48.405)" fill="#231815"/>
                <path id="패스_2723" data-name="패스 2723" d="M23.536,16.193a3.325,3.325,0,1,1-3.325-3.325,3.322,3.322,0,0,1,3.325,3.325" transform="translate(70.564 53.77)" fill="#231815"/>
                <path id="패스_2724" data-name="패스 2724" d="M13.4,15.661a6.156,6.156,0,0,0,9.42,6.442,6.338,6.338,0,0,0,2.734-3.811A2.055,2.055,0,0,0,21.594,17.2c-.026.129-.057.254-.093.378l-.057.161c-.078.2-.052.14.083-.181a5.191,5.191,0,0,0-.331.575c-.207.321.331-.383.016-.021-.088.1-.176.192-.269.28a1.727,1.727,0,0,0-.249.223c.254-.192.321-.243.192-.15a1.282,1.282,0,0,1-.135.1,6.843,6.843,0,0,1-.632.357c-.145.067-.067.031.233-.1l-.207.078-.321.093a2.278,2.278,0,0,0-.326.067c.363-.047.435-.057.218-.036l-.166.01c-.129.005-.259-.005-.388-.005-.378,0,.5.1.1.021-.212-.047-.435-.161-.642-.186q.474.21.186.078l-.15-.078c-.114-.062-.223-.124-.331-.2a1.281,1.281,0,0,1-.135-.1c-.129-.093-.062-.041.2.15a2.539,2.539,0,0,0-.249-.223,2.787,2.787,0,0,1-.269-.285c-.316-.363.212.347.01.021-.119-.192-.233-.378-.337-.575-.186-.352.145.43.026.083-.047-.145-.093-.28-.135-.425-.026-.109-.047-.218-.067-.326-.088-.394.016.508.016.1,0-.109-.005-.217-.005-.331.005-.166.093-.694-.021-.005a2.219,2.219,0,0,0-.207-1.585,2.1,2.1,0,0,0-1.222-.943A2.079,2.079,0,0,0,13.4,15.661" transform="translate(55.594 59.237)" fill="#231815"/>
                <path id="패스_2725" data-name="패스 2725" d="M24.734,4.354c-11.113,4.7-15.743,18-17.571,29.011C4.527,49.232,10.441,62.7,13.248,78.1A140.009,140.009,0,0,1,15.283,110.8a137.721,137.721,0,0,1-1.807,16.028c-.59,3.423-2.346,7.659-1.818,11.212.9,6.038,10.2,9.021,14.878,10.973A81.141,81.141,0,0,0,53.7,155.016c2.636.14,2.631-3.962,0-4.1a76.327,76.327,0,0,1-25.815-5.795c-4.785-2.014-11.465-4.029-11.859-10.2-.223-3.516,1.642-8.172,2.144-11.719A144.893,144.893,0,0,0,17.2,77.016c-2.418-13.278-8.058-25.66-6.52-39.378C11.907,26.726,15.723,12.588,26.806,7.9c2.424-1.025.337-4.562-2.071-3.542" transform="translate(27.171 17.432)" fill="#231815"/>
                <path id="패스_2726" data-name="패스 2726" d="M27.138,21.523c-.849-.865.052-2.04.88-2.481A6.164,6.164,0,0,1,32,18.893a27.619,27.619,0,0,1,7.773,2.973c4.454,2.449,9.782,5.893,11.662,10.854C55.413,43.211,47.044,53.1,40.628,60.4c-1.735,1.978,1.155,4.9,2.905,2.91,4.775-5.448,9.772-11.175,11.9-18.249,1.958-6.53,1.227-13.9-3.439-19.1A36.946,36.946,0,0,0,32.736,14.853c-3.076-.575-6.7-.414-8.747,2.284a5.51,5.51,0,0,0,.243,7.291c1.854,1.88,4.759-1.015,2.905-2.905" transform="translate(94.984 60.936)" fill="#231815"/>
                <path id="패스_2727" data-name="패스 2727" d="M21.713,7.5a9.161,9.161,0,0,1,.575-.834c-.1.14-.212.274-.321.414A9.62,9.62,0,0,1,23.624,5.43c-.14.1-.28.212-.414.321A9.354,9.354,0,0,1,24.934,4.69L21.848,2.919c-.01.093-.016.192-.031.285.026-.181.052-.363.073-.544a4.054,4.054,0,0,1-.269.989c.067-.161.135-.326.2-.492a4.189,4.189,0,0,1-.549.943c.109-.14.218-.28.321-.419a4.235,4.235,0,0,1-.725.735c.14-.109.28-.218.419-.321a4.476,4.476,0,0,1-.886.523c.161-.073.326-.14.487-.207l-.1.041c-.166.067-.326.14-.492.207a1.567,1.567,0,0,0-.575.528,2.063,2.063,0,0,0-.44,1.243,2.373,2.373,0,0,0,1.233,2.1,2.476,2.476,0,0,0,1.243.311,2.826,2.826,0,0,0,.621-.1,2.439,2.439,0,0,0,.979-.575,2.066,2.066,0,0,0,.6-1.455,2.109,2.109,0,0,0-.6-1.45,2.075,2.075,0,0,0-1.455-.6c-.181.026-.363.052-.544.073a2.059,2.059,0,0,0-.906.528l-.031.026.414-.321L20.8,4.99c.161-.067.326-.135.492-.207a.222.222,0,0,1-.083.026c.186-.026.368-.047.549-.073a.222.222,0,0,1-.083,0c.181.026.363.052.544.073a.622.622,0,0,1-.124-.031l.492.207-.073-.041c.135.109.274.212.414.321a.356.356,0,0,1-.088-.088c.1.14.212.274.321.414a.2.2,0,0,1-.041-.073c.067.166.14.326.207.492l-.01-.041c.026.181.047.363.073.544l-.005-.083q-.753.994-1.507,1.978a5.876,5.876,0,0,0,1.486-.772,7.277,7.277,0,0,0,.839-.7,7.969,7.969,0,0,0,.673-.829,6.019,6.019,0,0,0,1.077-3.185,2.052,2.052,0,0,0-3.086-1.771A11.249,11.249,0,0,0,18.171,5.43a2.052,2.052,0,0,0,2.315,3.014A2.188,2.188,0,0,0,21.713,7.5" transform="translate(74.77 3.627)" fill="#231815"/>
                <path id="패스_2728" data-name="패스 2728" d="M24.163,6.5c-.192-.922-.425-1.849-.564-2.781.026.181.047.363.073.544a1.677,1.677,0,0,1-.01-.394c-.026.181-.052.363-.073.544a.934.934,0,0,1,.052-.207c-.067.166-.14.326-.207.492a.587.587,0,0,1,.083-.135c-.109.135-.217.274-.321.414l.073-.078c-.14.109-.28.218-.419.321a.977.977,0,0,1,.124-.073l-.492.207a.8.8,0,0,1,.181-.052c-.181.026-.362.052-.544.073a.78.78,0,0,1,.192.01l-.544-.078a1.17,1.17,0,0,1,.192.057l-.487-.207a1.338,1.338,0,0,1,.218.129c-.14-.109-.28-.212-.414-.321a1.984,1.984,0,0,1,.145.15c-.109-.135-.212-.274-.321-.414a1.574,1.574,0,0,1,.155.269c-.067-.166-.135-.326-.207-.492a5.456,5.456,0,0,1,.28,1.321c.078.487.166.974.233,1.46-.026-.181-.052-.363-.072-.544a1.7,1.7,0,0,1,.005.363c.026-.181.052-.363.073-.544a.916.916,0,0,1-.041.171c.067-.166.135-.326.207-.492a.423.423,0,0,1-.062.1l.321-.414-.052.057.414-.321a.455.455,0,0,1-.109.062c.166-.067.326-.135.492-.207a.506.506,0,0,1-.119.031c.181-.026.363-.047.544-.073h-.083c.181.026.363.047.544.073A.43.43,0,0,1,23.51,5.5c.161.073.326.14.487.207l-.062-.036c.14.1.28.212.419.321l-.026-.026c.1.14.212.274.321.414l-.041-.062c.072.161.14.326.207.487l-.01-.036a2.128,2.128,0,0,0-.943-1.227,2.052,2.052,0,0,0-2.807.735,2.139,2.139,0,0,0-.207,1.585,2.377,2.377,0,0,0,2.874,1.626,2.482,2.482,0,0,0,1.144-.647,2.55,2.55,0,0,0,.694-1.481A4.028,4.028,0,0,0,25.5,6.114c-.031-.218-.067-.44-.1-.658-.062-.425-.129-.844-.2-1.269a3.981,3.981,0,0,0-.492-1.45A2.991,2.991,0,0,0,22.884,1.36a2.685,2.685,0,0,0-2.594.715,2.662,2.662,0,0,0-.653,1.2,2.927,2.927,0,0,0-.073.994c.14,1.119.414,2.227.642,3.33a2.072,2.072,0,0,0,.943,1.227,2.129,2.129,0,0,0,1.579.207,2.069,2.069,0,0,0,1.227-.948A2.253,2.253,0,0,0,24.163,6.5" transform="translate(81.683 5.351)" fill="#231815"/>
                <path id="패스_2729" data-name="패스 2729" d="M14.649,21.22c-.021-4.319,3.2-7.587,7.084-9.006,4.355-1.59,8.845-.943,13.361-1.186A28.581,28.581,0,0,0,46.212,7.709c3.609-1.761,7.193-3.734,11.331-3.594,2.641.088,2.636-4.019,0-4.107-4.635-.155-8.716,1.849-12.765,3.843A33.443,33.443,0,0,1,38.445,6.43c-2.734.7-5.562.528-8.358.513C21.324,6.912,10.5,10.765,10.542,21.22c.016,2.641,4.117,2.646,4.107,0" transform="translate(44.051 0.002)" fill="#231815"/>
                <path id="패스_2730" data-name="패스 2730" d="M20.014,1.477c-2.47-.016-5.091.249-6.711,2.341a4.483,4.483,0,0,0-.036,5.645c1.388,1.74,3.672,2.361,5.707,2.978q4.9,1.5,9.891,2.688a171.792,171.792,0,0,0,39.653,4.64c2.641.005,2.641-4.1,0-4.1a167.1,167.1,0,0,1-28.524-2.424q-6.82-1.2-13.521-2.947c-2.31-.6-4.614-1.248-6.9-1.963a8.984,8.984,0,0,1-2.361-.865c-2.04-1.543,1.818-1.9,2.8-1.885,2.641.016,2.646-4.091,0-4.107" transform="translate(51.327 6.171)" fill="#231815"/>
                <path id="패스_2731" data-name="패스 2731" d="M11.287,4.809c-2.651,4.8,2.289,7.5,6.137,8.8a179.793,179.793,0,0,0,19.487,5.344,189.332,189.332,0,0,0,39.5,4.226c2.641.01,2.646-4.1,0-4.1A184,184,0,0,1,44.42,16.259Q36.807,14.9,29.334,12.9C27.5,12.412,13.695,8.942,14.829,6.881c1.279-2.315-2.263-4.386-3.542-2.071" transform="translate(44.031 15.869)" fill="#231815"/>
                <path id="패스_2732" data-name="패스 2732" d="M23.613,15.314a9.686,9.686,0,0,1,4.257-2.631c1.367-.4,3.345-.761,4.619.078,1.414.937.119,2-.772,2.771-1.429,1.233-3.118,2.139-4.65,3.231-2.859,2.04-5.847,5.091-5.645,8.9.181,3.475,3.055,6.97,6.794,6.375a3.511,3.511,0,0,0,2.708-5.1c-1.227-2.356-4.07-2.268-5.935-.813a2.072,2.072,0,0,0,0,2.905,2.107,2.107,0,0,0,2.905,0c-.176.135-.316.1-.487-.047-.43-.383.285-.974.259-1,0,0-.378.021-.435.01a1.442,1.442,0,0,1-.621-.28,2.948,2.948,0,0,1-1.088-2.481c.2-2.8,3.18-4.671,5.282-6.049,2.512-1.647,6.245-3.77,6.458-7.146C37.5,10.3,33.8,8.23,30.526,8.193a13.708,13.708,0,0,0-9.819,4.215c-1.833,1.9,1.067,4.811,2.905,2.905" transform="translate(84.087 34.235)" fill="#231815"/>
                <path id="패스_2733" data-name="패스 2733" d="M27.044,11.056C24.9,8.4,22.124,5.712,18.427,6.075A5.977,5.977,0,0,0,14.294,8.1a6.35,6.35,0,0,0-.994,5.7c.813,3.263,3.568,6.24,3.118,9.777a3.58,3.58,0,0,1-2.289,3.035,7.234,7.234,0,0,1-1.818.363c.135.01.073-.01-.176-.062a.864.864,0,0,1,.544,1.077c-.093.274-.886.917-1.062.3V27.193c-.01.093-.026.186-.036.285.176-.306.352-.606.528-.906l.078-.057,1.036-.28-.207-.005,1.036.28-.161-.124a2.062,2.062,0,0,0-2.807.741,2.1,2.1,0,0,0,.735,2.807,2.452,2.452,0,0,0,3.055-.285,2.756,2.756,0,0,0,.342-3.361,3.665,3.665,0,0,0-5.51-.968,3.248,3.248,0,0,0,.435,5.148,5.978,5.978,0,0,0,5.116.083,8.039,8.039,0,0,0,5.225-8.793,19,19,0,0,0-1.906-5.841c-.616-1.31-1.828-3.185-1.388-4.7.337-1.144,1.833-1.238,2.828-.911,1.75.575,3.014,2.284,4.122,3.661a2.072,2.072,0,0,0,2.905,0,2.1,2.1,0,0,0,0-2.905" transform="translate(36.099 25.246)" fill="#231815"/>
                <path id="패스_2734" data-name="패스 2734" d="M5.781,12.378c-.621-1.336,1.828-1.714,1.585-.223a2.085,2.085,0,0,0,3.014,2.32c.673-.306,3.055-1.512,3.646-.368.549,1.067-1.616,2.579-2.185,3.066A13.18,13.18,0,0,0,7.7,23.134c-1.621,4.79-1.062,10.751.326,15.531,1.388,4.811,4.314,9.249,9.047,11.253,4.319,1.823,9.322,1.455,12.843-1.8,1.947-1.792-.963-4.692-2.9-2.9-3.568,3.3-9.3,1.486-12.123-1.88-3.263-3.894-4.107-9.612-3.972-14.536.073-2.465.5-5.122,2.092-7.095s3.956-3.019,4.832-5.562a4.8,4.8,0,0,0-2.077-5.862c-2.449-1.383-5.111-.414-7.457.647q1.507,1.165,3.014,2.32c.544-3.309-2.071-6.9-5.722-6.157C2.228,7.775.887,11.545,2.238,14.45c1.108,2.393,4.65.311,3.542-2.071" transform="translate(7.181 29.216)" fill="#231815"/>
              </g>
            </g>
          </g>
        </g>
      </g>
    </g>
  </g>
</svg>
