<svg xmlns="http://www.w3.org/2000/svg" xmlns:xlink="http://www.w3.org/1999/xlink" width="248" height="349" viewBox="0 0 248 349">
  <defs>
    <clipPath id="clip-path">
      <rect id="사각형_2494" data-name="사각형 2494" width="248" height="349" transform="translate(145 122)" fill="none" stroke="#707070" stroke-width="1"/>
    </clipPath>
    <clipPath id="clip-path-2">
      <rect id="사각형_1903" data-name="사각형 1903" width="247.728" height="395.598" transform="translate(0 -45)" fill="#fff"/>
    </clipPath>
    <clipPath id="clip-path-3">
      <rect id="사각형_1902" data-name="사각형 1902" width="214.033" height="216.314" fill="none"/>
    </clipPath>
  </defs>
  <g id="마스크_그룹_62" data-name="마스크 그룹 62" transform="translate(-145 -122)" clip-path="url(#clip-path)">
    <g id="마스크_그룹_14" data-name="마스크 그룹 14" transform="translate(145.272 121.703)" clip-path="url(#clip-path-2)">
      <g id="그룹_1152" data-name="그룹 1152" transform="translate(18.789 175.63)">
        <g id="그룹_1151" data-name="그룹 1151" transform="translate(0 0)">
          <g id="그룹_1150" data-name="그룹 1150" clip-path="url(#clip-path-3)">
            <path id="패스_3029" data-name="패스 3029" d="M2.788,42.426C2.788,22.683,43.125-.886,88.393.37,143.45,1.9,189.471,12.888,190.066,42.426c.516,25.5-19.729,92.195-58.348,109.459-9.068,4.058-23.239,4.481-32.3,4.567-13.073.119-24.713.291-37.383-6.438C29.655,132.843,2.788,91.388,2.788,42.426" transform="translate(15.639 1.803)" fill="#4c4348"/>
            <path id="패스_3030" data-name="패스 3030" d="M27.875,10.984S-7.994,20.984,3.6,36.047C17.763,54.461,41.94,47.329,41.94,47.329L32.773,36.047S5.456,33.886,16.322,25.71c13.569-10.218,17.112-4.541,17.112-4.541Z" transform="translate(7.247 61.613)" fill="#4c4348"/>
            <path id="패스_3031" data-name="패스 3031" d="M40.3,10.984s35.869,10,24.276,25.063C50.41,54.461,26.233,47.329,26.233,47.329L35.4,36.047S62.717,33.886,51.851,25.71c-13.569-10.218-17.112-4.541-17.112-4.541Z" transform="translate(147.152 61.613)" fill="#4c4348"/>
            <path id="패스_3032" data-name="패스 3032" d="M103.513.756C92.032-.678,80.181.195,68.694,1.166,56.625,2.191,44.378,3.473,32.95,7.7c-8.857,3.278-24.633,8.943-28.2,18.625S4.265,44.253,13.6,48.265c29.372,12.617,64.931,12.723,96.24,10.985,16.828-.939,33.748-2.578,50.119-6.728,9.009-2.28,26.213-6.186,25.308-18.843-.839-11.719-18.387-19.842-27.5-23.662-17.145-7.2-35.869-8.764-54.263-9.26-3.371-.093-3.371,5.149,0,5.241,16.543.449,33.331,1.712,48.983,7.522,7.958,2.954,16.378,7.165,22.584,13.087,4.931,4.7,6.2,11.229-.549,15.413-2.987,1.851-6.609,2.8-9.96,3.8-31.216,9.352-66.729,10.522-99.069,8-16.193-1.256-32.981-3.893-48.222-9.729C6.156,39.838,6.638,29.131,15.409,22.521c5.922-4.455,13.351-7.8,20.278-10.245C47,8.291,59.071,7.148,70.955,6.222,81.715,5.39,92.766,4.649,103.513,6c3.338.416,3.3-4.825,0-5.241" transform="translate(18.537 -0.004)" fill="#756e71"/>
            <path id="패스_3033" data-name="패스 3033" d="M6.7,22.03C59.639,31.469,116.15,39.962,166.368,15.2c3.021-1.487.37-6.008-2.65-4.521C114.92,34.74,59.487,26.141,8.1,16.981c-3.3-.588-4.713,4.455-1.395,5.05" transform="translate(26.991 58.22)" fill="#756e71"/>
            <path id="패스_3034" data-name="패스 3034" d="M8.122,23.311a421.74,421.74,0,0,0,72.8,9.339c22.518.958,45.314-1.553,65.2-12.869,2.928-1.666.291-6.193-2.644-4.521-19.908,11.322-42.783,13.206-65.255,12.023A422.473,422.473,0,0,1,9.516,18.261c-3.285-.727-4.693,4.323-1.395,5.05" transform="translate(35.012 83.556)" fill="#756e71"/>
            <path id="패스_3035" data-name="패스 3035" d="M40.794,16.784c-.337,1.467-2.056,1.362-3.232.872-1-.423-1.851-1.176-2.849-1.633A6.085,6.085,0,0,0,30.86,15.6c-2.2.456-4.065,1.884-6.391,1.9-1.282.013-3.12-.43-3.668-1.778A2.7,2.7,0,0,0,17.582,13.9a2.64,2.64,0,0,0-1.831,3.225,8.663,8.663,0,0,0,6.325,5.38,12.158,12.158,0,0,0,4.884-.053,31.524,31.524,0,0,0,4.455-1.566c1.229-.43,1.877.39,2.928.991a9.741,9.741,0,0,0,4.831,1.362,6.823,6.823,0,0,0,6.669-5.056c.753-3.285-4.3-4.686-5.05-1.395" transform="translate(87.587 77.412)" fill="#fff"/>
            <path id="패스_3036" data-name="패스 3036" d="M21.967,16.494a4.243,4.243,0,1,1-4.243-4.243,4.244,4.244,0,0,1,4.243,4.243" transform="translate(75.615 68.72)" fill="#fff"/>
            <path id="패스_3037" data-name="패스 3037" d="M29.006,16.494a4.243,4.243,0,1,1-4.243-4.243,4.244,4.244,0,0,1,4.243,4.243" transform="translate(115.1 68.72)" fill="#fff"/>
            <path id="패스_3038" data-name="패스 3038" d="M22.339,28.05A91.541,91.541,0,0,0,10.885,71.124a16.542,16.542,0,0,0,10.159,15.1A15.761,15.761,0,0,0,29.6,87.35c3.331-.443,7.264-1.851,9.491-4.541l.654-.793c2.868-3.463,4.838-7.032,4.838-11.685a16.8,16.8,0,0,0-4.838-11.679c-3.153-2.895-7.284-5.036-11.685-4.845-4.138.185-8.929,1.514-11.685,4.845-.218.258-.436.522-.654.787q14.108,5.839,28.209,11.685a76.515,76.515,0,0,1,.674-9.2c-.2,1.467-.4,2.928-.595,4.4a75.167,75.167,0,0,1,5.03-18.348l-1.666,3.946a77.477,77.477,0,0,1,3.5-7.184A17.258,17.258,0,0,0,52.538,32a16.833,16.833,0,0,0-7.594-9.874c-3.833-2.022-8.48-3.04-12.73-1.666a16.956,16.956,0,0,0-9.875,7.594" transform="translate(61.052 111.209)" fill="#4c4348"/>
            <path id="패스_3039" data-name="패스 3039" d="M18.389,40.938A146.644,146.644,0,0,1,26.829,73.5c-.192-1.467-.39-2.928-.588-4.4q.783,5.879,1.117,11.791c.33,5.915,2.941,11.2,8.182,14.27a16.662,16.662,0,0,0,16.682,0,26.939,26.939,0,0,1,3.021-1.527L51.3,95.307a26.49,26.49,0,0,1,5.863-1.566c-1.467.2-2.928.4-4.4.588a28.566,28.566,0,0,1,6.761-.007c-1.461-.2-2.928-.4-4.389-.588a28.327,28.327,0,0,1,6.537,1.738l-3.946-1.666A26.709,26.709,0,0,1,63,96.814q-1.675-1.3-3.344-2.584a27.271,27.271,0,0,1,3,2.73c5.935,6.305,17.456,6.444,23.364,0a16.857,16.857,0,0,0,0-23.364C73.273,60.046,51.482,57.29,35.54,66.635Q47.972,73.764,60.4,80.9A160.027,160.027,0,0,0,50.253,32.154c-1.593-4.138-3.635-7.561-7.588-9.874C39.122,20.2,33.9,19.325,29.929,20.614c-4,1.289-7.852,3.767-9.874,7.594-1.956,3.7-3.245,8.652-1.666,12.73" transform="translate(99.18 112.248)" fill="#4c4348"/>
            <path id="패스_3040" data-name="패스 3040" d="M53.082,27.009A200.679,200.679,0,0,0,18.5,32.58a17.017,17.017,0,0,0-9.875,7.594c-2.069,3.543-2.948,8.764-1.666,12.736,1.3,3.992,3.774,7.852,7.594,9.874a17.5,17.5,0,0,0,12.736,1.666,175.878,175.878,0,0,1,19.835-3.9l-4.389.595q5.155-.694,10.344-1.091c4.435-.337,8.46-1.613,11.685-4.838a16.809,16.809,0,0,0,4.838-11.685c-.192-4.276-1.593-8.7-4.838-11.685-3.093-2.835-7.343-5.169-11.685-4.838" transform="translate(35.689 151.326)" fill="#4c4348"/>
            <path id="패스_3041" data-name="패스 3041" d="M54.2,38.174c.126.139.555.5.582.674-.046-.344-1.137-1.639-.357-.37.165.271.615,1.256.086,0-.542-1.3-.106-.093-.046.218-.093-.727-.192-1.461-.291-2.194a3.241,3.241,0,0,1,.02.8c.1-.727.2-1.461.3-2.194q-.268,1.229.449-.813a4.174,4.174,0,0,1,1.421-1.553,3.9,3.9,0,0,1,1.89-.991,3.5,3.5,0,0,1-.694.145c.734-.1,1.461-.192,2.194-.291a6.768,6.768,0,0,1-1.1-.013c.734.1,1.467.192,2.2.291a4.291,4.291,0,0,0-.72-.159q1.983.942,1.13.469c-.33-.2-.218-.106.33.284,1.058.833.238.1.013-.086-.595-.482,1.058,1.705.357.436-.291-.529-.575-1.044-.846-1.586-.635-1.262.443,1.507.238.568-.073-.35-.172-.661-.225-1.024l.3,2.2v-.4c-.1.727-.2,1.461-.3,2.194-.555.879-1.11,1.751-1.659,2.631q-7.059-2.925-14.1-5.843a5.316,5.316,0,0,1-.04.793c.1-.727.2-1.461.3-2.194-.066.39-.2.74-.284,1.124q.892-1.953.416-1.1a5.714,5.714,0,0,1-.311.5c-.059-.231,1.454-1.692.383-.588-.291.3-.608.568-.919.846-.72.654,1.639-1.143.489-.4-.35.231-.7.463-1.064.681-.245.145-1.064.443-1.15.648.35-.139.7-.278,1.057-.423a4.771,4.771,0,0,1-.945.258l2.194-.3a2.836,2.836,0,0,1-.945,0c.734.1,1.467.2,2.2.291a6.092,6.092,0,0,1,3.3,2.624c.192.463.39.919.582,1.381a3.794,3.794,0,0,1-.139-.661l.3,2.2a5.97,5.97,0,0,1,0-1.031c-.1.727-.2,1.461-.3,2.194a4.014,4.014,0,0,1,.139-.681q-1.021,2.191-.39.939l.231-.377c.489-.694.324-.5-.489.608a21.437,21.437,0,0,0,2.062-2.386c1.408-1.8,2.419-3.45,2.419-5.843a8.262,8.262,0,0,0-14.1-5.843c-.648.595-1.322,1.157-2,1.725-1.137.958,1.051-.74.211-.172-.364.251-.714.516-1.077.767-.628.43-1.262.846-1.923,1.229a4.182,4.182,0,0,1-1.031.549c.364-.165.734-.33,1.1-.489a6.006,6.006,0,0,1-.905.212l2.2-.3a6.643,6.643,0,0,1-1.256,0c.734.1,1.467.192,2.194.291-.615-.152-.549-.093.192.185a3.77,3.77,0,0,1,1.613,1.091l.787,1c.482,1.348.648,1.6.482.76l.3,2.194a3.8,3.8,0,0,1,.026-.866l-.3,2.2a4.729,4.729,0,0,1,.212-.853q-.863,1.894-.185.74c-1.243,1.989-.2.39.344-.119.978-.912,2.009-1.765,3.054-2.6,1.646-1.315-1.091.767.258-.2.529-.377,1.044-.767,1.586-1.124a10.981,10.981,0,0,0,1.619-.925q-1.913.753-.674.35a6.56,6.56,0,0,1,.952-.192l-2.2.3a10.67,10.67,0,0,1,2,0l-2.194-.3a24.706,24.706,0,0,1,3.959.965c.628.2,1.256.39,1.87.608.311.106.621.218.925.33q1.229.486-.615-.264a7.334,7.334,0,0,0,1.712.945c1.223.674-1.659-1.342-.02.066,1.044.905-1.21-1.745-.026.026q.575,1.15-.337-.813a5.921,5.921,0,0,1,.2.82c.846,4.25,6.127,7.079,10.159,5.77a8.455,8.455,0,0,0,5.77-10.159C68.109,22.318,62.7,18.537,57.144,16.356A33.244,33.244,0,0,0,50.9,14.479a17.807,17.807,0,0,0-11.157,1.3A33.607,33.607,0,0,0,33.37,20.2a32.4,32.4,0,0,0-5.043,4.514c-2.756,3.318-4.349,7.449-3.232,11.791a11.334,11.334,0,0,0,8.2,8.044c7.178,1.791,13.8-3.516,18.758-8.024L40.369,24.836c-1.223,1.566-2.6,2.961-3.767,4.58a12.392,12.392,0,0,0-2.181,5.7c-.793,5.942,2.855,11.844,9.035,12.67,4.95.668,9.313-1.983,12.988-5.017a14.815,14.815,0,0,0,5.453-11.2,8.275,8.275,0,0,0-5.083-7.548c-2.8-1.183-6.953-.826-9.022,1.705A10.817,10.817,0,0,0,45.26,35.59a20.2,20.2,0,0,0,2.1,5,13.929,13.929,0,0,0,11.481,7.541c5.109.192,10.278-3.1,11.514-8.235,1.249-5.175-1.137-9.637-4.468-13.4-2.875-3.245-8.791-3.153-11.685,0a8.459,8.459,0,0,0,0,11.685" transform="translate(138.747 79.222)" fill="#4c4348"/>
            <path id="패스_3042" data-name="패스 3042" d="M4.966,26.587c-3.278,3.7-5.678,8.1-4.5,13.206a11.335,11.335,0,0,0,11.547,8.434A13.967,13.967,0,0,0,23.38,40.883a19.748,19.748,0,0,0,2.161-4.99,12.24,12.24,0,0,0,.112-5.407,10.529,10.529,0,0,0-2.591-4.66C21,23.3,16.8,22.952,14.034,24.115A8.281,8.281,0,0,0,8.958,31.67a14.724,14.724,0,0,0,5.294,11.071c3.7,3.087,8.123,5.823,13.146,5.149a10.918,10.918,0,0,0,9.18-11.573,13.11,13.11,0,0,0-2.194-6.623c-1.183-1.7-2.637-3.139-3.9-4.759Q24.635,30.774,18.8,36.62c4.237,3.853,9.366,8.011,15.314,8.381a11.569,11.569,0,0,0,10.41-5.453,12.292,12.292,0,0,0-.046-12.062,21.133,21.133,0,0,0-5.3-5.83A58.052,58.052,0,0,0,32.54,16.64a16.3,16.3,0,0,0-9.147-2.518A30.189,30.189,0,0,0,15.567,15.8C9.335,17.836,2.884,21.709,1.489,28.682.65,32.912,2.7,37.81,7.259,38.848c4.111.939,9.26-1.236,10.165-5.77a5.7,5.7,0,0,1,.2-.82q-.912,1.963-.337.813c1.176-1.771-1.077.872-.026-.026,1.639-1.408-1.243.6-.02-.066a7.471,7.471,0,0,0,1.712-.945q-1.844.753-.621.264c.311-.112.615-.225.925-.33.621-.218,1.249-.41,1.877-.608a24.018,24.018,0,0,1,3.959-.965l-2.194.3a11.258,11.258,0,0,1,2-.007c-.734-.093-1.467-.192-2.2-.291a6.547,6.547,0,0,1,.952.185c.82.278.595.159-.674-.344a11.61,11.61,0,0,0,1.619.925c.542.35,1.058.747,1.586,1.124,1.348.965-1.388-1.117.258.2,1.044.833,2.075,1.692,3.054,2.6.542.5,1.586,2.108.344.119.449.767.39.516-.185-.74a4.265,4.265,0,0,1,.2.846c-.1-.727-.192-1.461-.291-2.194a4.218,4.218,0,0,1,.026.866c.1-.734.2-1.467.3-2.194-.132.621-.066.568.212-.172a4.133,4.133,0,0,1,1.058-1.593c.337-.278.674-.549,1-.82q2.042-.753.793-.456c.734-.1,1.467-.2,2.2-.291a6.642,6.642,0,0,1-1.256,0c.734.1,1.467.192,2.194.291-.3-.053-1.6-.522-.35.04,1.309.575.007-.026-.278-.185-.734-.41-1.434-.879-2.128-1.355-.291-.2-.568-.4-.859-.6-1.467-1.024,1,.846.2.172-.747-.621-1.487-1.229-2.2-1.884-3.2-2.908-8.572-3.4-11.685,0a8.3,8.3,0,0,0-2.419,5.843A9.7,9.7,0,0,0,18.8,36.62,12.241,12.241,0,0,0,20.855,39q-1.15-1.557-.608-.787c.126.178.245.37.357.562q.635,1.249-.39-.939a4.763,4.763,0,0,1,.132.681c-.093-.734-.192-1.467-.291-2.2a6.711,6.711,0,0,1,0,1.031l.3-2.194c-.165,1.018-.549.8.443-.72a6.133,6.133,0,0,1,3.3-2.624c.734-.1,1.467-.2,2.2-.291a2.836,2.836,0,0,1-.945,0l2.194.3a3.264,3.264,0,0,1-.707-.178c-.595-.2-.324-.086.82.344a8.457,8.457,0,0,0-1.15-.648c-.3-.178-.6-.37-.892-.562-1.467-.978.932.839.311.284-.258-.238-.529-.456-.773-.7-.145-.145-.284-.291-.423-.449-.423-.476-.2-.185.668.892-.073-.112-.145-.225-.218-.33q-.6-1.12.324.925c-.04-.364-.218-.753-.284-1.124l.3,2.194a5.315,5.315,0,0,1-.04-.793q-7.049,2.915-14.1,5.843c-.555-.879-1.1-1.758-1.659-2.631l-.3-2.2v.4l.3-2.2c-.04.284-.112.549-.159.82-.271,1.428.661-1.335.264-.568-.311.6-.615,1.2-.945,1.791-.608,1.1.489-.641.509-.595a4.6,4.6,0,0,1-.615.628c.324-.258.641-.509.965-.76-.522.284-.416.251.33-.1,1.335-.575.3-.185-.073-.119l2.194-.3A5.468,5.468,0,0,1,11.1,31.7l2.194.3a3.684,3.684,0,0,1-.7-.152,4.041,4.041,0,0,1,1.9.991,4.249,4.249,0,0,1,1.421,1.56q.7,2.032.449.813l.3,2.194a3.241,3.241,0,0,1,.02-.8l-.3,2.194c.013-.066.185-.813.2-.806.112.046-1.051,2.056-.152.582.152-.251.82-1.137.007-.1-.886,1.137.066-.033.218-.2,2.862-3.239,3.424-8.539,0-11.685-3.133-2.875-8.625-3.457-11.685,0" transform="translate(0.903 79.123)" fill="#4c4348"/>
            <path id="패스_3043" data-name="패스 3043" d="M5.165,34.074c.965-3.351,1.943-6.98,4.144-9.762,2.637-3.325,6.861-4.131,10.839-4.746,7.4-1.15,17.753-.3,21.077,7.759a2.714,2.714,0,0,0,3.225,1.831,2.636,2.636,0,0,0,1.824-3.225c-4.3-10.443-15.8-13.014-26.048-11.633-5.05.681-10.416,1.765-14.045,5.651C2.9,23.459,1.41,28.159.115,32.679c-.932,3.252,4.118,4.633,5.05,1.395" transform="translate(0.004 78.279)" fill="#231815"/>
            <path id="패스_3044" data-name="패스 3044" d="M29.8,30.16A19.543,19.543,0,0,1,46.236,19.373c4.124-.165,8.017,1.249,11.831,2.664,1.87.694,3.437,1.381,4.6,3.073a39.57,39.57,0,0,0,3.43,4.865c2.3,2.479,5.995-1.236,3.7-3.7-1.553-1.679-2.419-3.86-3.939-5.578A14.426,14.426,0,0,0,59.8,17.113c-4.527-1.705-9.233-3.285-14.138-2.948A24.824,24.824,0,0,0,25.284,27.516c-1.507,3.007,3.007,5.664,4.521,2.644" transform="translate(140.124 79.199)" fill="#231815"/>
            <path id="패스_3045" data-name="패스 3045" d="M6.094,5.9C-2.465,28.535,5.929,52.2,15.063,73.2c1.342,3.087,5.856.423,4.527-2.644C10.991,50.8,3.1,28.582,11.143,7.293c1.2-3.159-3.867-4.521-5.05-1.395" transform="translate(14.184 23.156)" fill="#231815"/>
            <path id="패스_3046" data-name="패스 3046" d="M6.7,22.13A61.86,61.86,0,0,0,38.74,52.58a2.643,2.643,0,0,0,3.225-1.831,2.69,2.69,0,0,0-1.831-3.225A56.627,56.627,0,0,1,11.218,19.487a2.638,2.638,0,0,0-3.582-.939A2.682,2.682,0,0,0,6.7,22.13" transform="translate(35.801 102.145)" fill="#231815"/>
          </g>
        </g>
      </g>
    </g>
  </g>
</svg>
