<svg xmlns="http://www.w3.org/2000/svg" xmlns:xlink="http://www.w3.org/1999/xlink" width="172" height="239" viewBox="0 0 172 239">
  <defs>
    <clipPath id="clip-path">
      <rect id="사각형_2494" data-name="사각형 2494" width="172" height="239" transform="translate(221 233)" fill="none" stroke="#707070" stroke-width="1"/>
    </clipPath>
    <clipPath id="clip-path-2">
      <rect id="사각형_1792" data-name="사각형 1792" width="218.145" height="247.403" transform="translate(0 41)" fill="#fff"/>
    </clipPath>
    <clipPath id="clip-path-3">
      <rect id="사각형_1832" data-name="사각형 1832" width="180.778" height="274.375" fill="none"/>
    </clipPath>
  </defs>
  <g id="마스크_그룹_62" data-name="마스크 그룹 62" transform="translate(-221 -233)" clip-path="url(#clip-path)">
    <g id="마스크_그룹_7" data-name="마스크 그룹 7" transform="translate(196.5 183)" clip-path="url(#clip-path-2)">
      <g id="그룹_1023" data-name="그룹 1023" transform="translate(28.046 56.793)">
        <path id="패스_1972" data-name="패스 1972" d="M83.249,19.115l-7.477.239-7.344,1.453-7.26,1.783-7.52-.028L46.8,25.94l-7.168,1.622-6.958,2.324-7.976.091-5.392,5.842-5.975,4.114L6,42.868,3.1,50,0,57.043l3.532,6.8,3.223,6.607,4.992,5.722,6.6,3.679,6.235,4.367,8.137-.3,6.066,5.371,7.765-.112,6.838,3.756,7.772-1.194,7.246,1.868,7.428.456,7.484-1.081,7.4.218,7.463,1.4,7.323-2.148,7.562,1.334,7.2-2.331,7.632.59,7.14-2.247,7-2.492,6.789-2.921,7.007-2.3,7.709-1.327,5.427-5.448,5.455-5.02,3.489-6.4,2.865-6.838-2.717-6.874-3.869-6.094-4.922-5.6-6.621-3.461-7.084-2.261-6.431-3.707-6.516-4.093L135.324,23.1l-7.842,1.039-7.154-2.113-7.344-1.1-7.267-2.422-7.555,1.439-7.442-1.776Z" transform="translate(0.003 109.431)" fill="#fff"/>
        <path id="패스_1973" data-name="패스 1973" d="M9.709,32.687l.786,7.337,2.155,7.26.105,7.414.983,7.337.807,7.386-.19,7.449.828,7.372-.007,7.421.646,7.4,1.1,7.372.26,7.463.4,7.927,7.056-.541,6.516-.414,6.53-.126,6.108.126.19-6.733,2.05-6.965,1.018-7.091-1.018-7.267,2.3-6.951-.407-7.232,1.931-7.007L50,64.443l-.358-7.2,1.973-7.014L51.316,43l.414-7.2.85-6.824-6.747-1.467-7.084-.864L31.474,27.73,24.446,25.56l-7.274.646L10.1,25.335Z" transform="translate(58.459 152.547)" fill="#fff"/>
        <g id="그룹_1022" data-name="그룹 1022" transform="translate(0 0)">
          <g id="그룹_1021" data-name="그룹 1021" clip-path="url(#clip-path-3)">
            <path id="패스_1974" data-name="패스 1974" d="M1.2,32.728c23.394,22.853,62.845,27.41,93.948,25.711,16.422-.9,34.3-2.851,49.821-8.531,11.788-4.318,25.4-10.953,32.627-21.632,2.008-2.97-2.808-5.757-4.809-2.808-7.386,10.918-24.223,18.107-36.523,21.267a212.44,212.44,0,0,1-44.141,6.277c-28.709,1.144-65.4-3.138-86.984-24.223-2.57-2.5-6.509,1.432-3.939,3.939" transform="translate(2.191 145.79)" fill="#a4a4a5"/>
            <path id="패스_1975" data-name="패스 1975" d="M1.2,31.191C24.594,54.045,64.045,58.6,95.148,56.9c16.422-.9,34.3-2.851,49.821-8.531,11.788-4.318,25.4-10.953,32.627-21.632,2.008-2.97-2.808-5.757-4.809-2.808C165.4,34.849,148.565,42.039,136.264,45.2a212.44,212.44,0,0,1-44.141,6.277c-28.709,1.144-65.4-3.138-86.984-24.223-2.57-2.5-6.509,1.432-3.939,3.939" transform="translate(2.191 136.536)" fill="#a4a4a5"/>
            <path id="패스_1976" data-name="패스 1976" d="M119.473,78.788c1.4-13.719-14.449-19.863-25.163-23.549-3.644-6.473-8.488-12.82-16.127-15.8C56.8,31.993,64.47,44.034,60.117,15.887c-.035-5.87-4.234-5.6-5.483-10A5.78,5.78,0,0,1,52.7,5.243c-4.732.225-3.209,5.062-6.452,7.414-1.362,7.751-2.787,14.842-3.869,22.91C10.281,36.767,2.186,69.2,6.244,94.6c.611,9.6-1.825,26.027,5.16,32.9,20.235,19.006,94.882,18.227,87.426-21.288,8.4-8.938,23.857-11.669,20.642-27.424m-11.613,7.1c-1.945,2.9-5.076,6.4-9.029,6.775-.028-7.885-.674-14.119-.646-21.611,4.711.386,11.922,7.681,9.675,14.835" transform="translate(31.775 31.57)" fill="#e3e7e1"/>
            <path id="패스_1977" data-name="패스 1977" d="M40.212,78.093c8.4-8.931,23.857-11.662,20.642-27.417C62.251,36.957,46.4,30.814,35.69,27.128c-3.644-6.473-8.488-12.82-16.127-15.8-1.72-.6-3.188-1.039-4.55-1.411,2.127,3.833,4.325,10.082,5.041,20.157,1.06,14.786-.828,53.844-2.675,78.4C32.516,103.98,43.266,94.3,40.212,78.093m9.029-20.319c-1.945,2.9-5.076,6.4-9.029,6.775-.028-7.885-.674-14.119-.646-21.618,4.711.393,11.922,7.688,9.675,14.842" transform="translate(90.394 59.682)" fill="#b7c5cb"/>
            <path id="패스_1978" data-name="패스 1978" d="M12.18,10.353a9.89,9.89,0,0,0,9.97.667,2.3,2.3,0,0,0,.821-3.131,2.352,2.352,0,0,0-3.131-.821c-.105.049-.218.105-.323.147l.548-.232a7.483,7.483,0,0,1-1.938.527c.2-.028.4-.056.6-.077a8.353,8.353,0,0,1-2.008-.007c.2.028.407.049.6.077a8.07,8.07,0,0,1-1.938-.52l.548.232A8.134,8.134,0,0,1,14.49,6.4a2.287,2.287,0,0,0-3.131.821,2.354,2.354,0,0,0,.821,3.131" transform="translate(66.61 36.683)" fill="#1a1311"/>
            <path id="패스_1979" data-name="패스 1979" d="M11.38,13.889a24.949,24.949,0,0,0,18.88.688,2.35,2.35,0,0,0,1.6-2.815,2.308,2.308,0,0,0-2.815-1.6A20.323,20.323,0,0,1,13.69,9.936a2.362,2.362,0,0,0-3.131.821,2.306,2.306,0,0,0,.821,3.131" transform="translate(61.814 58.233)" fill="#1a1311"/>
            <path id="패스_1980" data-name="패스 1980" d="M25.769,10.157C12.225,14.882,6.953,28.692,5.892,41.969A199.988,199.988,0,0,0,5.9,67.343c.372,7.85-.049,17.461,3.265,24.791,5.54,12.273,22.2,16.45,34.3,17.574a106.886,106.886,0,0,0,50.158-7.927c2.689-1.1,1.51-5.533-1.222-4.409a105.543,105.543,0,0,1-41.459,8.13c-12.034-.147-30.015-2.331-36.917-13.881C10.484,85.7,11,76.808,10.618,70.1c-.393-7.007-.576-14.042-.449-21.063.232-13,2.661-29.516,16.815-34.459,2.766-.969,1.58-5.392-1.215-4.416" transform="translate(33.032 60.315)" fill="#1a1311"/>
            <path id="패스_1981" data-name="패스 1981" d="M16.694,18.176a3.708,3.708,0,1,1-4.416-2.837,3.717,3.717,0,0,1,4.416,2.837" transform="translate(56.374 91.845)" fill="#1a1311"/>
            <path id="패스_1982" data-name="패스 1982" d="M20.612,18.4A3.708,3.708,0,1,1,16.2,15.566,3.717,3.717,0,0,1,20.612,18.4" transform="translate(79.964 93.212)" fill="#1a1311"/>
            <path id="패스_1983" data-name="패스 1983" d="M14.383,20.472c.421-.218-.393.084-.091.049l.063-.021c.246-.049.183-.049-.19.007a1.953,1.953,0,0,0,.569-.014c.119.007.828.084.4.028s.274.042.386.063a13.137,13.137,0,0,1,2.24.639c-.688-.253-.091-.035.077.049s.323.176.484.274c.14.084.274.176.407.267.365.246-.351-.295-.126-.1.084.084.183.161.267.246.133.126.253.26.372.393s.161.3-.133-.176c.042.07.1.133.14.2.091.133.161.281.246.428.14.239-.211-.6-.091-.232l.091.288c.035.126.049.26.084.386-.2-.737-.042-.3-.035-.056,0,.147-.007.3-.014.449-.014.337.028-.3.049-.309-.028.007-.049.253-.056.295-.035.147-.077.288-.126.435-.133.449.267-.541.028-.056-.07.133-.147.253-.218.379-.049.084-.2.274.042-.042.267-.344.035-.056-.035.021-.2.2-.491.309.084-.028-.119.07-.246.147-.351.218-.218.14.541-.183.288-.119-.07.014-.147.049-.218.07a1.833,1.833,0,0,0-.19.042c.548-.176.484-.049.2-.049a1.338,1.338,0,0,0-.239-.007c.414-.084.484.1.26.028-.091-.028-.19-.056-.281-.077-.281-.07.534.288.161.07a2.73,2.73,0,0,0-.407-.246c.344.105.358.295.133.1-.077-.07-.147-.14-.218-.218-.056-.056-.288-.372-.063-.042s-.028-.049-.07-.119c-.056-.091-.105-.176-.154-.267s-.2-.428-.035-.063c.161.386.007.007-.014-.07-.042-.133-.063-.274-.105-.414-.049-.19.049-.3.014.154.014-.14-.028-.309-.028-.449a6.91,6.91,0,0,1,.028-.765c.035-.449-.007.154-.021.154l.091-.456a11.169,11.169,0,0,1,.5-1.629,2.3,2.3,0,0,0-1.6-2.815,2.346,2.346,0,0,0-2.815,1.6c-.906,2.394-1.229,5.385.365,7.583a5.777,5.777,0,0,0,3.307,2.387,4.88,4.88,0,0,0,3.623-.541,5.964,5.964,0,0,0,2.654-5.455,6.08,6.08,0,0,0-1.116-3.174,8.065,8.065,0,0,0-2.675-2.359A11.931,11.931,0,0,0,16.925,16.2a7.2,7.2,0,0,0-4.852.316,2.3,2.3,0,0,0-.821,3.131,2.345,2.345,0,0,0,3.131.821" transform="translate(65.874 95.966)" fill="#1a1311"/>
            <path id="패스_1984" data-name="패스 1984" d="M37.158,31.111c.365-.014,1.243.14-.232-.07-1.762-.26.814.2,1.229.309,1.362.344,2.7.786,4.023,1.25.793.281,1.587.562,2.359.885-1.053-.442.955.463,1.018.5.667.337,1.3.737,1.945,1.109,1.425.814-.26-.5.871.66,0,0,1.5,1.636.737.765.751.857.161.007.562,1.137.183.892.232,1.046.161.456l.042.814c0-.014-.246,2.359-.056,1.313a12.95,12.95,0,0,1-.667,2.345c.218-.576-.653,1.271-.814,1.559a32.33,32.33,0,0,1-5.5,7.035Q41.2,52.883,39.44,54.449q-.874.79-1.79,1.538c.042-.035-1.678,1.32-1,.814A56.526,56.526,0,0,1,20.3,65.4,7.377,7.377,0,0,0,15.26,74.29c1,3.623,5.16,6.263,8.882,5.041a72.025,72.025,0,0,0,22.5-12.146C53.377,61.842,59.871,54.947,62.932,46.8a19.931,19.931,0,0,0-9.1-24.749,49.131,49.131,0,0,0-11.346-4.493,19.289,19.289,0,0,0-5.329-.885,7.221,7.221,0,0,0,0,14.442" transform="translate(90.33 100.338)" fill="#e3e7e1"/>
            <path id="패스_1985" data-name="패스 1985" d="M44.147,90.392C30.034,84.2,17.067,72.629,15.241,56.48c-.857-7.611.765-15.524,5.427-21.7,5.1-6.761,12.778-11.149,19.9-15.432,7.955-4.788.7-17.279-7.288-12.469C24.2,12.339,15.164,18.124,8.747,26.746A43.567,43.567,0,0,0,.8,56.48c1.973,21.168,17.061,38.04,36.06,46.381,3.567,1.566,7.751,1.046,9.879-2.591,1.79-3.061,1-8.306-2.591-9.879" transform="translate(3.652 34.886)" fill="#e3e7e1"/>
            <path id="패스_1986" data-name="패스 1986" d="M19.063,18.444a10.6,10.6,0,0,1,.07-2.057c-.084.639-.176,1.278-.26,1.917a10.959,10.959,0,0,1,.646-2.31l-.723,1.72A10.983,10.983,0,0,1,20,15.635c-.379.491-.758.976-1.13,1.467.218-.274.435-.527.674-.779L7.478,13.136c.049.26.091.52.126.786L7.352,12a15.682,15.682,0,0,1-.021,3.974c.084-.639.169-1.278.26-1.917-.33,2.05-1.1,3.939-1.088,6.059a9.037,9.037,0,0,0,6.747,8.636,11.987,11.987,0,0,0,7.26-.737c2.24-.857,4.451-1.8,6.628-2.8a7.144,7.144,0,0,0,3.314-4.318,7.436,7.436,0,0,0-.358-4.7,7.283,7.283,0,0,0-8.524-4.185A28.591,28.591,0,0,0,8,19.469a7.325,7.325,0,0,0-2.113,5.1c.077,1.776.646,3.953,2.113,5.1,4.276,3.349,8.615,6.614,13.059,9.738a7.044,7.044,0,0,0,3.644.983,7.118,7.118,0,0,0,4.374-1.552,6.93,6.93,0,0,0,2.226-2.886,6.691,6.691,0,0,0,.365-4.7,13.067,13.067,0,0,0-3.04-4.88,16.293,16.293,0,0,0-3.335-2.4A37.524,37.524,0,0,1,20.558,21.5c.491.379.976.751,1.46,1.13a6.7,6.7,0,0,1-1-.948l1.13,1.46a5.378,5.378,0,0,1-.6-.976c.246.576.484,1.144.73,1.72l-.091-.218a7.9,7.9,0,0,0-3.321-4.318A7.232,7.232,0,0,0,8.987,21.94c-.843,1.608-1.439,3.805-.723,5.568a12.8,12.8,0,0,0,3.012,4.887,15.893,15.893,0,0,0,3.433,2.464,32.3,32.3,0,0,1,4.823,2.556c-.491-.372-.976-.751-1.46-1.123a6.7,6.7,0,0,1,.969.976c-.379-.484-.758-.969-1.13-1.46a6.466,6.466,0,0,1,.47.8l-.73-1.727.091.218q5.308-4.076,10.609-8.151-5.034-3.549-9.921-7.3l1.46,1.13c-.555-.435-1.116-.871-1.671-1.306V29.678a23.725,23.725,0,0,1,1.9-1.664c-.484.372-.969.751-1.46,1.13a22.651,22.651,0,0,1,4.683-2.738c-.576.246-1.151.491-1.727.73a23.072,23.072,0,0,1,3.791-1.194q-2.78-6.6-5.561-13.2c-.772.358-1.552.7-2.338,1.039.576-.246,1.151-.484,1.727-.73a23.062,23.062,0,0,1-5,1.783c.639-.091,1.285-.176,1.924-.26a4.987,4.987,0,0,1-.857.014c.639.084,1.278.169,1.917.26a2.174,2.174,0,0,1-.52-.133c.569.246,1.144.484,1.72.73a1.792,1.792,0,0,1-.456-.274l1.46,1.13c-.063-.063-.126-.133-.2-.2.379.484.758.976,1.13,1.46a1.773,1.773,0,0,1-.295-.513l.73,1.72c-.028-.091-.056-.19-.077-.281.084.639.169,1.278.26,1.917a3.969,3.969,0,0,1-.014-.913l-.253,1.917c.105-.667.316-1.3.484-1.959a25.765,25.765,0,0,0,.625-3.876A21.991,21.991,0,0,0,21.4,9.3c-.428-2.408-2.787-4.423-5.041-5.041A7.222,7.222,0,0,0,9.332,6.108,16.841,16.841,0,0,0,4.62,18.444a7.64,7.64,0,0,0,2.113,5.1,7.311,7.311,0,0,0,5.111,2.113c3.707-.161,7.47-3.181,7.218-7.218" transform="translate(27.655 24.091)" fill="#e3e7e1"/>
            <path id="패스_1987" data-name="패스 1987" d="M35.289,30.13a16.718,16.718,0,0,0-8.727-6.67c-4.22-1.4-10.152-.9-12.554,3.356a8.2,8.2,0,0,0,.646,9.162,13.287,13.287,0,0,0,4.62,3.567c1.278.681,2.563,1.362,3.841,2.043l1.924,1.018c.281.147.569.295.85.449,1.7.906-.372.211-1.194-1.453l-.99-3.644.028.351c.091-.639.176-1.278.26-1.924.548-1.074.681-1.369.386-.885-.119.19-.246.379-.372.562-.218.344-.449.681-.674,1.018-.491.744-.983,1.488-1.474,2.24-1.966,2.956-.878,8.4,2.584,9.879a17.063,17.063,0,0,0,2.429.948,8.844,8.844,0,0,0,4.2.007,8.9,8.9,0,0,0,3.468-1.446,14.4,14.4,0,0,0,3.693-3.826c.211-.288.421-.576.611-.878.309-.449.147-.246-.5.6q1.316-1.327-2.057,1.18H32.445c-2.556-.569-4.4-4.016-3.012-1.966.225.33.456.646.7.962a31.337,31.337,0,0,0,2.422,2.942,26.954,26.954,0,0,0,4.493,3.637,14.214,14.214,0,0,0,7.14,2.71,8.378,8.378,0,0,0,8.425-8.3c.337-7.934-6.235-15.9-14.021-17.244a7.793,7.793,0,0,0-5.568.723,7.378,7.378,0,0,0-3.314,4.318c-.8,3.5,1.06,8.194,5.041,8.882a10.3,10.3,0,0,1,1.376.323c.295.091,1.334.506.126.007-1.13-.463-.316-.112-.063.021.316.176,1.615,1.1.6.3-1.039-.814.351.358.6.611.056.063.407.541.47.534-.105.007-1.032-1.474-.484-.618.253.4.484.807.723,1.222.484.857-.337-.618-.295-.758a4.275,4.275,0,0,0,.274.835,10.57,10.57,0,0,1,.316,1.559c-.084-.646-.169-1.285-.253-1.924a6.446,6.446,0,0,1,.014,1.376c.084-.639.168-1.278.26-1.917.456-.8.92-1.594,1.376-2.394q1.59-.927,3.188-1.861l-.344.119,1.924-.253c-.119-.007-.246-.007-.365-.007.639.084,1.278.169,1.917.26-.716-.2-.506-.084.639.337-.239-.105-.47-.218-.709-.344Q45.5,39.618,45,39.313c-.337-.2-.66-.435-.99-.639-.611-.435-.435-.295.506.421-.2-.161-.407-.33-.6-.5a19.765,19.765,0,0,1-1.685-1.657c-.176-.2-.344-.4-.513-.6.723.948.857,1.123.414.52-.211-.323-.428-.66-.646-.983a8.919,8.919,0,0,0-5.041-3.981,8.329,8.329,0,0,0-7.793,2.036,16.074,16.074,0,0,0-2.64,3.314c-.786,1.208,1.137-1.088.07-.133.99-.688,1.158-.843.52-.456,1.151-.421,1.362-.562.639-.428l1.917-.253-.365-.014c.639.091,1.278.176,1.917.26.344.168.688.337,1.032.513l2.591,9.879a32.469,32.469,0,0,0,3.138-5.175A8.394,8.394,0,0,0,33.6,30.811c-1.531-.878-3.131-1.657-4.7-2.485l-2.556-1.362c-.428-.225-.843-.491-1.285-.674-.1-.063-.2-.126-.3-.183a4.891,4.891,0,0,1,2.282,3l.253,1.924.021-.288-.983,3.644c-1.137.878-2.275,1.762-3.412,2.64-.639.084-1.278.176-1.917.26a8.365,8.365,0,0,1,2.177.014c-.646-.084-1.285-.176-1.924-.26.506.084.969.225,1.46.351.709.253.477.154-.674-.309.225.112.442.232.66.358s.428.267.632.414c-.955-.765-1.151-.9-.6-.414,1.271,1.425-.632-1.046.077-.021a7.733,7.733,0,0,0,4.318,3.321,7.36,7.36,0,0,0,5.561-.73c3.089-1.994,4.88-6.551,2.591-9.879" transform="translate(77.715 137.05)" fill="#e3e7e1"/>
            <path id="패스_1988" data-name="패스 1988" d="M51.007,23.03c3.609.337,9.8.92,10.665,5.448.716,3.855-4.648,7.723-7.084,10.012A115.578,115.578,0,0,1,33.307,54.28c1.046.274,2.092.548,3.124.821-2.71-4.894-10.047-7.548-15.411-7.639a8.027,8.027,0,0,0-7.653,11.283,10.539,10.539,0,0,0,2.422,3.532c.955.934,2.492,1.439,3.356,2.352.779.828-.077,2.106-.105,3.3a8.064,8.064,0,0,0,.885,3.805c3.117,6.235,10.553,6.171,16.31,4.213,2.773-.941,1.58-5.364-1.222-4.409-3.391,1.151-10.546,2.443-11.36-2.872-.26-1.72,1.074-3.152.618-4.943s-2.029-2.57-3.482-3.412c-1.8-1.032-3.595-2.752-3.525-5,.07-2.387,1.924-3.377,4.163-3.258,3.637.19,9.233,2.064,11.051,5.357a2.321,2.321,0,0,0,3.138.821c9.9-5.75,19.75-12.94,27.3-21.632,3.089-3.553,4.683-8.116,1.783-12.336-3.138-4.529-8.608-5.336-13.7-5.813-2.935-.274-2.921,4.3,0,4.578" transform="translate(76.495 111.031)" fill="#1a1311"/>
            <path id="패스_1989" data-name="패스 1989" d="M21.5,27.451A16.583,16.583,0,0,1,18.776,4.085l-3.595-.463c3.981,6.164,7.646,14.225,3.925,21.393l3.595-.463a15.367,15.367,0,0,1-5.357-16.3q-1.906.506-3.826,1c3.8,3.461,3.23,9.331,2.8,13.965H20.9l-.021-11.844-4.5.611a120.824,120.824,0,0,0,4.058,13.41,2.342,2.342,0,0,0,2.815,1.594,2.313,2.313,0,0,0,1.6-2.815,120.707,120.707,0,0,1-4.058-13.4c-.6-2.528-4.5-1.959-4.493.6l.021,11.844c.007,3,4.311,2.893,4.578,0,.548-5.926.632-12.856-4.142-17.2a2.316,2.316,0,0,0-3.826,1.011,19.817,19.817,0,0,0,6.537,20.761c1.088.85,2.851.976,3.595-.463C27.595,18.6,24.1,8.993,19.135,1.312,18.4.188,16.516-.352,15.54.848a21.346,21.346,0,0,0-4.838,16.2A21.432,21.432,0,0,0,19.191,31.4a2.3,2.3,0,0,0,3.131-.821,2.344,2.344,0,0,0-.821-3.131" transform="translate(63.454 1.021)" fill="#ba4211"/>
            <path id="패스_1990" data-name="패스 1990" d="M17.473.653A20.3,20.3,0,0,0,10.262,19.9,20.357,20.357,0,0,0,23.469,35.1c2.78,1,3.974-3.419,1.215-4.416a15.741,15.741,0,0,1-10-12.006A15.884,15.884,0,0,1,20.709,3.889a2.305,2.305,0,0,0,0-3.237,2.339,2.339,0,0,0-3.237,0" transform="translate(59.984 0.002)" fill="#1a1311"/>
            <path id="패스_1991" data-name="패스 1991" d="M17.259,14.733c-.26-.407-.477-.843-.7-1.271-.246-.47.07.232-.1-.218-.1-.26-.19-.52-.274-.786-.119-.4-.225-.8-.309-1.208-.014-.1-.133-.948-.077-.421-.021-.211-.042-.414-.056-.625a12.333,12.333,0,0,1-.014-1.348c.007-.246.028-.484.049-.723.063-.674-.091.435.035-.218A12.246,12.246,0,0,1,16.149,6.5c.056-.2.119-.393.2-.59.042-.133.091-.26.147-.393-.1.232-.091.225.014-.014H12.554c.133.26.267.534.386.814-.161-.372.105.281.105.288.19.491.358,1,.506,1.5s.274,1.018.379,1.538q.084.39.147.779l.056.344c-.035-.246-.028-.225,0,.056a20.643,20.643,0,0,1,.112,3.159c-.021.527-.063,1.053-.133,1.58.056-.407-.035.2-.056.288-.049.295-.105.59-.176.885A2.29,2.29,0,1,0,18.3,17.948a22.627,22.627,0,0,0-1.79-14.765,2.3,2.3,0,0,0-3.953,0,14.649,14.649,0,0,0,.751,13.86,2.289,2.289,0,1,0,3.953-2.31" transform="translate(67.24 12.398)" fill="#f79a00"/>
            <path id="패스_1992" data-name="패스 1992" d="M39.35,4.143c-5.231-.449-8.474,3.693-10.11,8.187-1.5,4.121-2.71,7.225-6.354,9.935a62.365,62.365,0,0,0-6.993,5.75A53.16,53.16,0,0,0,.629,60.7C-1.7,85.72,16.237,108.854,40.347,114.619c2.865.688,4.086-3.728,1.222-4.416C19.923,105.028,3.648,84.779,5.087,62.242A48.455,48.455,0,0,1,18.041,32.36c3.482-3.679,8.25-6.031,11.514-9.843C32.729,18.81,33.27,8.2,39.35,8.72c2.935.253,2.921-4.325,0-4.578" transform="translate(2.566 24.743)" fill="#1a1311"/>
            <path id="패스_1993" data-name="패스 1993" d="M13.944,9.9c-2.085,1.109-4.185,2.521-4.866,4.929a5.117,5.117,0,0,0,2.191,5.757c2.015,1.3,4.7,1.811,7.014,2.275a45.752,45.752,0,0,0,8.292.9,41.245,41.245,0,0,0,15.4-2.6c3.651-1.432,9.787-4.543,9.015-9.275-.47-2.9-4.887-1.671-4.416,1.215.07-.555-.028-.569-.309-.042-.26.295-.527.569-.807.836a11.087,11.087,0,0,1-1.832,1.4,19.44,19.44,0,0,1-4.255,1.952,38.006,38.006,0,0,1-10.44,1.91,39.425,39.425,0,0,1-10.735-.983c-1.06-.253-3.848-.541-4.55-1.488-.892-1.2,1.832-2.408,2.612-2.822,2.6-1.383.295-5.336-2.31-3.953" transform="translate(53.444 57.887)" fill="#1a1311"/>
            <path id="패스_1994" data-name="패스 1994" d="M9.163,18.465l-.737,5.687A5.055,5.055,0,0,0,8.5,26.7a3.158,3.158,0,0,0,1.671,1.6c1.713.807,3.5,1.488,5.238,2.226.814.344,1.762.66,2.471-.091a3.285,3.285,0,0,0,.59-2.191q.211-3.349.421-6.712c.077-1.18-1.755-1.173-1.832,0q-.19,3.075-.379,6.143a6.744,6.744,0,0,0-.1,1.348.338.338,0,0,1-.049.168c-.042.084.007.049.161-.112a7.1,7.1,0,0,0-.674-.267c-.948-.4-1.9-.807-2.844-1.208a22.6,22.6,0,0,1-2.464-1.081c-.786-.463-.59-1.25-.491-2.036L11,18.465a.921.921,0,0,0-.92-.913.934.934,0,0,0-.913.913" transform="translate(49.954 105.683)" fill="#275727"/>
            <path id="패스_1995" data-name="패스 1995" d="M8.813,19.909q3.086,1.569,6.164,3.138a.917.917,0,0,0,.92-1.587q-3.075-1.569-6.157-3.131a.937.937,0,0,0-1.257.33.922.922,0,0,0,.33,1.25" transform="translate(50.36 109.673)" fill="#275727"/>
            <path id="패스_1996" data-name="패스 1996" d="M8.6,20.881c4.571,1.882,9.184,3.686,13.9,5.167,1.13.358,1.608-1.411.491-1.762C18.27,22.8,13.665,20.993,9.087,19.111A.917.917,0,0,0,8.6,20.881" transform="translate(47.72 114.781)" fill="#275727"/>
            <path id="패스_1997" data-name="패스 1997" d="M8.914,20.448v3.475a.916.916,0,1,0,1.832,0V20.448a.916.916,0,0,0-1.832,0" transform="translate(53.672 117.615)" fill="#275727"/>
            <path id="패스_1998" data-name="패스 1998" d="M8.81,21.733l3.405.765a27.716,27.716,0,0,1,2.949.7,6.9,6.9,0,0,1,.99.428,5.022,5.022,0,0,1,.534.309c.07.049-.014-.021.084.063l.1.1c-.063-.07.028.126-.007,0a1.826,1.826,0,0,1,.07.281c-.014-.119,0,.077,0,.112a1.612,1.612,0,0,1-.014.26,1.369,1.369,0,0,1-.232.576.916.916,0,0,0,1.3,1.292,3.118,3.118,0,0,0,.7-2.822,3.071,3.071,0,0,0-2.036-1.959,16.712,16.712,0,0,0-3.293-.962c-1.355-.3-2.7-.6-4.058-.913-1.144-.253-1.636,1.51-.484,1.769" transform="translate(49.092 120.058)" fill="#275727"/>
            <path id="패스_1999" data-name="패스 1999" d="M8.747,22.2c3,.681,5.877,1.8,8.875,2.478,1.144.267,1.636-1.5.484-1.762-3-.688-5.877-1.8-8.875-2.485-1.144-.26-1.636,1.51-.484,1.769" transform="translate(48.713 122.844)" fill="#275727"/>
            <path id="패스_2000" data-name="패스 2000" d="M9.068,20.609A2.352,2.352,0,0,0,8.1,23.3a4.12,4.12,0,0,0,2.127,2.352,11.523,11.523,0,0,0,3.433,1.018c1.243.281,2.478.618,3.735.814a.943.943,0,0,0,1.123-.639.919.919,0,0,0-.639-1.123c-1.032-.168-2.043-.421-3.061-.66-.491-.119-.99-.232-1.488-.33a10.844,10.844,0,0,1-1.418-.3A5.018,5.018,0,0,1,10.8,23.86a3.877,3.877,0,0,1-.737-.632,1.188,1.188,0,0,1-.239-.7.517.517,0,0,1,.049-.232c-.028.077.1-.105.007-.014.119-.112-.056.014.112-.091,1-.611.084-2.2-.927-1.58" transform="translate(48.175 123.246)" fill="#275727"/>
            <path id="패스_2001" data-name="패스 2001" d="M11.124,20.31q3.886,1.5,7.765,3a.914.914,0,0,0,1.123-.639.926.926,0,0,0-.639-1.123q-3.876-1.506-7.765-3a.922.922,0,0,0-1.123.646.935.935,0,0,0,.639,1.123" transform="translate(62.927 111.371)" fill="#275727"/>
            <path id="패스_2002" data-name="패스 2002" d="M17.167,19.707a11.08,11.08,0,0,1-6.712,9.6.917.917,0,0,0-.323,1.25.935.935,0,0,0,1.25.33A12.856,12.856,0,0,0,19,19.707c.042-1.18-1.79-1.18-1.832,0" transform="translate(60.289 113.329)" fill="#275727"/>
            <path id="패스_2003" data-name="패스 2003" d="M11.118,19.924a20.352,20.352,0,0,0-.007,4.135,23.063,23.063,0,0,0,.927,3.876c.737,2.289,1.811,5.167,4.044,6.4,1.039.569,1.959-1.011.927-1.58a5.391,5.391,0,0,1-1.966-2.3,18.22,18.22,0,0,1-1.348-3.356,21.04,21.04,0,0,1-.8-3.405,19.4,19.4,0,0,1,.056-3.777c.07-1.18-1.762-1.173-1.832,0" transform="translate(66.254 114.656)" fill="#275727"/>
            <path id="패스_2004" data-name="패스 2004" d="M10.693,21.507V26.92a.916.916,0,0,0,1.832,0V21.507a.916.916,0,0,0-1.832,0" transform="translate(64.383 123.992)" fill="#275727"/>
            <path id="패스_2005" data-name="패스 2005" d="M10.347,23.076c4.465,1.018,8.882,2.226,13.347,3.251,1.144.26,1.636-1.51.484-1.769-4.465-1.018-8.882-2.226-13.347-3.251-1.144-.26-1.636,1.51-.484,1.769" transform="translate(58.347 128.131)" fill="#275727"/>
            <path id="패스_2006" data-name="패스 2006" d="M17.829,19.657a26.663,26.663,0,0,1-5.778,7.835c-.864.807.435,2.1,1.292,1.3a28.109,28.109,0,0,0,6.066-8.208.95.95,0,0,0-.33-1.257.922.922,0,0,0-1.25.33" transform="translate(70.847 115.661)" fill="#275727"/>
            <path id="패스_2007" data-name="패스 2007" d="M12.466,21.488q2.212,2.633,4.43,5.259a.911.911,0,0,0,1.292,0,.938.938,0,0,0,0-1.292q-2.212-2.633-4.43-5.259a.911.911,0,0,0-1.292,0,.938.938,0,0,0,0,1.292" transform="translate(73.506 119.987)" fill="#275727"/>
            <path id="패스_2008" data-name="패스 2008" d="M13.65,20.2Q13.576,26.2,13.5,32.188a.917.917,0,0,0,1.832,0Q15.4,26.2,15.482,20.2a.917.917,0,0,0-1.832,0" transform="translate(81.254 116.316)" fill="#275727"/>
            <path id="패스_2009" data-name="패스 2009" d="M13.868,26.74c.077-.821.161-1.636.225-2.457.035-.379.049-.758.105-1.137l.063-.253c-.049-.028-.147.063-.1.105a1.969,1.969,0,0,0,.428.091c.183.049.351.1.534.14.393.105.779.211,1.173.309.744.2,1.5.4,2.254.6s1.488.393,2.24.6c.456.119,1.053.2,1.306.632.442.744-.049,1.98-.379,2.717a.935.935,0,0,0,.33,1.25A.922.922,0,0,0,23.3,29a6.691,6.691,0,0,0,.744-3.384,3,3,0,0,0-2.436-2.57c-1.524-.414-3.047-.8-4.564-1.2-.73-.2-1.46-.414-2.212-.583a1.913,1.913,0,0,0-2.015.506A3.994,3.994,0,0,0,12.289,24l-.246,2.738a.915.915,0,0,0,.913.913.939.939,0,0,0,.913-.913" transform="translate(72.49 127.549)" fill="#275727"/>
            <path id="패스_2010" data-name="패스 2010" d="M12.724,23.621q4.623.864,9.247,1.72a.917.917,0,0,0,.484-1.769q-4.623-.853-9.247-1.72a.948.948,0,0,0-1.123.646.917.917,0,0,0,.639,1.123" transform="translate(72.581 131.468)" fill="#275727"/>
          </g>
        </g>
      </g>
    </g>
  </g>
</svg>
