<svg xmlns="http://www.w3.org/2000/svg" xmlns:xlink="http://www.w3.org/1999/xlink" width="193.816" height="309.507" viewBox="0 0 193.816 309.507">
  <defs>
    <clipPath id="clip-path">
      <rect id="사각형_1876" data-name="사각형 1876" width="193.816" height="309.507" transform="translate(0 -45)" fill="#fff"/>
    </clipPath>
    <clipPath id="clip-path-2">
      <rect id="사각형_1875" data-name="사각형 1875" width="151.134" height="373.553" fill="none"/>
    </clipPath>
  </defs>
  <g id="마스크_그룹_11" data-name="마스크 그룹 11" transform="translate(0 45)" clip-path="url(#clip-path)">
    <g id="그룹_1122" data-name="그룹 1122" transform="translate(30.502 3.095)">
      <g id="그룹_1121" data-name="그룹 1121" transform="translate(0 0)">
        <g id="그룹_1120" data-name="그룹 1120" clip-path="url(#clip-path-2)">
          <path id="패스_2918" data-name="패스 2918" d="M52.5,18.839s4.253-13.281,16.473-4.253S81.2,35.312,76.943,46.47s-6.377,18.062-3.719,26.563,6.287,30.816-7.213,29.22-13.507-8.5-13.507-8.5-3.719,9.034-15.939,6.377-17-11.7-14.343-22.316,3.887-21.782-.714-30.282-16.653-34.008,0-43.57,31,14.877,31,14.877" transform="translate(-11.861 9.475)" fill="#fabd1f"/>
          <path id="패스_2919" data-name="패스 2919" d="M27.988,3.885c.212,57.624-4.041,115.279-1.062,172.89.721,13.989.708,29.227,3.8,42.926,1.628,7.2,10.572,14.736,1.152,20.894-5.431,3.546-14.272,1.641-15.733-5.3-1.422-6.75,5.064-11.943,11.248-10.482,5.038,1.19,2.909,8.944-2.136,7.754,4.06.959-.6-4.112-1.281-5.939-1.242-3.365-1.377-7.265-1.808-10.8q-1.776-14.787-2.735-29.671C18.085,165.8,17.744,145.4,17.859,125,18.1,84.623,20.092,44.27,19.944,3.885c-.019-5.174,8.024-5.186,8.043,0" transform="translate(12.371 0.003)" fill="#fabd1f"/>
          <path id="패스_2920" data-name="패스 2920" d="M48.314,51.533l-.907-12.207c-.142-1.9-.277-3.8-.418-5.695-.084-1.081-.161-2.169-.245-3.25l-.122-1.628q-.261-2.548.611,1.782l2.883,2.883c.3.232,2.934.457,1.062.3-.753-.058-1.506-.109-2.265-.142-1.261-.045-2.522-.039-3.784-.039q-4.749,0-9.5.006l-18.6.019q3.88-2.954,7.754-5.907c-.154,1.068-.315,2.136-.457,3.2.2-1.486-.2,1.6-.232,1.873q-.376,3.214-.669,6.441c-.2,2.149-.36,4.3-.5,6.454a33,33,0,0,0-.167,6.171c-.367-1.351-.727-2.7-1.094-4.054A5.425,5.425,0,0,0,17.839,45.3c-.714-.09-.714-.129-.006-.116a13.929,13.929,0,0,1,2.072-.1c1.383-.077,2.761-.154,4.144-.238q4.343-.261,8.687-.586t8.681-.714c1.377-.122,2.754-.245,4.131-.38a15.809,15.809,0,0,0,2.066-.2c-1.525.354-2.587.5-3.507,2.259-.116.309-.225.624-.335.933.187-.753.238-.8.142-.142-.418,1.03.154-.373-.045-.785.142,1,.142,1.2-.006.6-.135-.431-.1-.405.09.071.29,1.062-.341-.5-.45-.74.579.689.669.811.283.386a7.213,7.213,0,0,0-.7-.7c.74.766.418.29-.27-.116-.643-.386-1.248-.624-.2-.219-.528-.2-1.062-.373-1.609-.528s-1.1-.27-1.654-.386c-2.014-.412,1.448,0-.869-.071-1.313-.045-2.606-.077-3.919-.006s-2.619.206-3.925.354c-2.567.3,1.564-.251-.991.142-.257.039-.515.071-.779.109-.875.187-.753.1.367-.245l2.889-2.889c.315-1.139.367-1.268.154-.4-.09.431-.174.856-.264,1.287s-.174.856-.264,1.281c.084-1.145.154-1.274.219-.386-.367-1.351-.734-2.709-1.1-4.06-1.512-3.147-7.336-2.748-3.584-2.7.547.006,1.087.013,1.628.013,1.493,0,2.979-.026,4.472-.064q4.266-.125,8.52-.489c4.2-.341,8.224,3.951,8.043,8.043-.212,4.659-3.539,7.677-8.043,8.043a103.941,103.941,0,0,1-15.945.508c-3.79-.27-7.117-1.763-8.983-5.238-1.77-3.314-1.1-7.053-.212-10.514a10.123,10.123,0,0,1,7.831-7.7,72.009,72.009,0,0,1,9.182-1.133A30.9,30.9,0,0,1,50.348,30.5a18.031,18.031,0,0,1,9.607,14.723,14.474,14.474,0,0,1-2.117,8.333c-2.291,3.668-5.836,5-9.929,5.457-5.315.586-10.662.991-16,1.383q-3.928.29-7.863.528c-3.089.187-6.358.669-9.421.051a10.046,10.046,0,0,1-8.037-9.832A78.643,78.643,0,0,1,7.035,42.8C7.518,36.3,8.309,29.822,9.275,23.374c.515-3.43,4.537-5.9,7.754-5.9l17.355-.019c5.682-.006,11.518-.386,17.168.219,4.7.5,9.125,2.053,10.637,7.1.856,2.851.695,6.3.914,9.266q.656,8.745,1.3,17.49c.309,4.208-3.925,8.23-8.043,8.043-4.627-.206-7.709-3.539-8.043-8.043" transform="translate(44.411 94.191)" fill="#fff"/>
          <path id="패스_2921" data-name="패스 2921" d="M73.114,39.25q-21.244-.415-42.489-.837l6.95-12.1c2.439,4.17,14.208,3.256,18.313,3.359,4.549.116,14.568,1.4,17.618-3.14q4.546,5.907,9.086,11.814a120.287,120.287,0,0,1-30.057,1.383q1.071-7.905,2.136-15.8c11.435,2.136,9.556,15.534,8.867,24.06-.5,6.261-1.023,12.522-1.506,18.79-.161,2.1-.972,5.437-.418,7.606.791,3.076,1.918,2.915,4.266,4.833,6.827,5.579,7.973,15.038.888,21.119-7.908,6.8-18.423,2.876-24.336-4.408-2.973-3.649-2.986-7.69,0-11.377,3.488-4.3,7.542-6.724,12.625-8.777,6.415-2.587,10.624,4.646,9.89,9.9a274.685,274.685,0,0,0-2.445,42.27H46.416q.656-9.131,1.313-18.268c.759-10.553,14.787-10.1,16.087,0,1.139,8.854,3.224,19.929.669,28.686-2.156,7.368-9.877,11.711-17.046,8.114-16.377-8.224-1.145-39.471,4.627-50.4,4.878-9.234,18.326-1.12,13.893,8.121a76.9,76.9,0,0,0-5.109,13.629,31.088,31.088,0,0,0-1.3,7.149c-.039,1.383,1.094,4.324.856,5.2,1.017,1.21.373,1.84-1.918,1.892q-3.755,2.925-2.432-2c-.772-2.066-.238-5.38-.412-7.561a139.268,139.268,0,0,0-2.574-17.329H68.583q-1.7,11.94-3.4,23.879c-.508,3.539-.322,8.661-1.705,11.937q.7,4.672-1.815,2.04,1.6,1.216,3.147,2.477c9,9.762-1.371,26.544-6.28,35.913-3.05,5.817-13.494,4.923-14.7-1.924-1.885-10.662-8.623-40.8,11.441-38.261,21.988,2.793.257,34.651,6.364,45.037,3.777,6.409,7.818,13.011,1.139,19.459-5.013,4.839-13.191,4.717-18.777.959-13.822-9.3-1.9-29.394,12.882-22.38a7.777,7.777,0,0,1,3.983,6.943c-1.1,12.052-1.911,24.124-2.362,36.215-.032,1.01-.071,2.021-.1,3.024q.753,6.477-2.786-.553c-.077.257,8.59,1.371,9.17,1.4a49.364,49.364,0,0,0,17.58-2.606q1.062,7.9,2.136,15.8c-19.259-.064-40.346-2.522-58.814,3.945V232.95a114.743,114.743,0,0,0,42.4,1.319c1.93-.322,3.854-.695,5.772-1.107q6.834-3.05,2.851,7.509c-1.255.534-7.078-1.326-8.249-1.474a152.321,152.321,0,0,0-20.829-1.126,145.5,145.5,0,0,0-21.608,1.782q-2.2.357-4.4.791-4.855,1.641-.109-6.177c1.576-1.158,10.386.624,12.541.695a296.831,296.831,0,0,0,43.892-1.911c10.263-1.19,10.18,14.9,0,16.087a297.509,297.509,0,0,1-39.181,2.027c-8.951-.154-24.118,1.622-30.52-6.358-5.714-7.123-2.355-16.447,6.016-19.189,10.65-3.488,23.777-3.809,34.864-3.835,10.3-.026,24.491-.47,34.008,4.015,7.149,3.372,11.074,12.348,4.517,18.616s-20.6,6.235-29.085,6.814A134.259,134.259,0,0,1,21.4,248.464c-8.314-1.776-6.95-13.082,0-15.514,19.9-6.962,42.373-4.588,63.093-4.517,9.221.032,10.72,13.076,2.136,15.8a63.231,63.231,0,0,1-24.71,2.986c-6.165-.547-14.536-1.184-18.153-7.033-3.385-5.476-1.326-14.26-1.03-20.282.463-9.569,1.165-19.118,2.033-28.661q2,3.475,3.99,6.943,7.075-8,2.4-3.14-1.332,3.031-2.445.791c-1.306-.618-2.542-3.243-3.159-4.556-1.641-3.52-1.673-7.091-1.152-10.856.579-4.247,1.557-8.455,2.368-12.67.328-1.744,2.773-12.831,2.806-12.8l5.688,2.355q2.625-3.542,1.937.553c.116,1.872.27,3.732.45,5.6.4,3.945.991,7.844,1.679,11.75l-14.7-1.924a116.094,116.094,0,0,0,5.09-10.785c.6-1.493,3-5.643,2.548-7.394.438,1.705-3.97-3.005-4.3-3.674-1.248-2.484-1.223-4.981-1-7.69,1.126-14.279,4.08-28.68,6.1-42.862,1.133-7.908,13.983-7.432,15.514,0,2.233,10.836,4.549,23,3.526,34.1-.824,9-8.886,14.465-17.438,10.83-19.562-8.333-9.073-36.3-2.606-49.754l13.893,8.121A85.723,85.723,0,0,0,60.7,115.907c-1.274,3.636-1.634,9.9-3.52,13.108q.029,3.127-4.125,2.374Q48.51,134.613,49.2,131c-.824-1.564-.071-5.206-.161-7.13-.225-4.755-.695-9.485-1.306-14.208H63.815q-.656,9.141-1.313,18.268c-.734,10.225-15.92,10.469-16.087,0A301.223,301.223,0,0,1,49.44,81.385q4.942,4.952,9.89,9.9c-2.439.985-3.919,2.658-5.527,4.639V84.544c1.8,2.214,4.138,7.458-.039,5.888-1.737-.65-3.282-2.677-4.382-4.112-2.921-3.816-3.829-8.314-3.842-13.076-.013-5.778.824-11.679,1.287-17.432q.376-4.7.753-9.395c.122-1.564.251-3.134.373-4.7q-1.12-4.865,2.445-2.284c-8.829-1.647-6.917-16.57,2.136-15.8a103.5,103.5,0,0,0,25.778-.811C84.587,21.792,91.7,28.246,87.4,34.643,80.217,45.337,67.753,46.058,55.888,45.755c-11.235-.29-25.816-.425-32.206-11.325-3.044-5.186.817-12.226,6.943-12.1q21.244.415,42.489.837c10.341.206,10.373,16.293,0,16.087" transform="translate(24.097 121.332)" fill="#fabd1f"/>
          <path id="패스_2922" data-name="패스 2922" d="M13.34,37.863a15.2,15.2,0,0,0,2.5-21.415l3.295-.425c-3.649,5.65-7.007,13.037-3.6,19.607l-3.295-.425a14.084,14.084,0,0,0,4.91-14.942q1.747.463,3.507.92c-3.481,3.172-2.96,8.552-2.567,12.8h-4.2l.019-10.855,4.125.56a110.732,110.732,0,0,1-3.719,12.29,2.147,2.147,0,0,1-2.58,1.461,2.12,2.12,0,0,1-1.467-2.58A110.631,110.631,0,0,0,13.99,22.574c.553-2.317,4.125-1.8,4.118.553l-.019,10.855c-.006,2.748-3.951,2.651-4.2,0-.5-5.431-.579-11.782,3.8-15.765a2.123,2.123,0,0,1,3.507.927,18.162,18.162,0,0,1-5.991,19.028,2.132,2.132,0,0,1-3.295-.425c-4.157-8-.952-16.8,3.6-23.841.669-1.03,2.4-1.525,3.295-.425a19.564,19.564,0,0,1,4.434,14.851,19.643,19.643,0,0,1-7.78,13.153,2.108,2.108,0,0,1-2.87-.753,2.148,2.148,0,0,1,.753-2.87" transform="translate(63.498 69.889)" fill="#ba4211"/>
          <path id="패스_2923" data-name="패스 2923" d="M17.45,13.288a18.6,18.6,0,0,1,6.609,17.638,18.657,18.657,0,0,1-12.1,13.938c-2.548.914-3.642-3.134-1.113-4.047a14.426,14.426,0,0,0,9.17-11,14.557,14.557,0,0,0-5.527-13.558,2.113,2.113,0,0,1,0-2.966,2.144,2.144,0,0,1,2.966,0" transform="translate(66.266 68.969)" fill="#1a1311"/>
          <path id="패스_2924" data-name="패스 2924" d="M12.041,26.366c.238-.38.438-.772.643-1.165.225-.431-.064.212.09-.2.09-.238.174-.476.251-.721.109-.367.206-.734.283-1.107.013-.09.122-.869.071-.386.019-.193.039-.38.051-.573a11.307,11.307,0,0,0,.013-1.235c-.006-.225-.026-.444-.045-.669-.058-.611.084.405-.032-.193a11.223,11.223,0,0,0-.309-1.3c-.051-.18-.109-.36-.18-.541-.039-.122-.084-.238-.135-.36.09.212.084.206-.013-.019h3.623c-.122.245-.245.5-.354.753.148-.341-.1.257-.1.264-.174.45-.328.914-.463,1.377s-.251.933-.347,1.409q-.077.357-.135.714l-.051.309c.032-.219.026-.2,0,.058a18.919,18.919,0,0,0-.1,2.9c.019.483.058.965.122,1.448-.051-.373.032.18.045.264.051.27.1.541.167.811a2.1,2.1,0,0,1-4.047,1.113A20.738,20.738,0,0,1,12.729,15.78a2.107,2.107,0,0,1,3.623,0,13.426,13.426,0,0,1-.689,12.7,2.1,2.1,0,0,1-3.623-2.117" transform="translate(65.215 80.164)" fill="#f79a00"/>
          <path id="패스_2925" data-name="패스 2925" d="M13.535,19.913a3.992,3.992,0,0,1,1.506,1.4,4.544,4.544,0,0,1,.431.933,4.267,4.267,0,0,1,.18,1.068l-.077.553a1.59,1.59,0,0,1-.373.714,1.073,1.073,0,0,1-.38.38,1.59,1.59,0,0,1-.714.373,1.285,1.285,0,0,1-.225.058c-.251.039-.508.077-.759.1a4.414,4.414,0,0,1-1.01-.1,4.137,4.137,0,0,1-.92-.335,3.53,3.53,0,0,1-.785-.553,1.9,1.9,0,0,1-.161-.161,5,5,0,0,1-.444-.586,3.652,3.652,0,0,1-.3-.669,1.227,1.227,0,0,1-.064-.219,4.413,4.413,0,0,1-.09-.721,4.215,4.215,0,0,1,.084-.753,3.483,3.483,0,0,1,.322-.875,3.262,3.262,0,0,1,.534-.753,1.01,1.01,0,0,1,.154-.135,3.471,3.471,0,0,1,.579-.431,3.3,3.3,0,0,1,1.39-.38,4.059,4.059,0,0,1,.92.09,1.843,1.843,0,0,1,.18.045,5.185,5.185,0,0,1,.65.277,3.4,3.4,0,0,1,.721.528,3.853,3.853,0,0,1,.56.689,1.564,1.564,0,0,1,.193.335,3.9,3.9,0,0,1,.431,1.744,5.278,5.278,0,0,1-.084.714l-.039.193a4.58,4.58,0,0,1-.264.637,1.172,1.172,0,0,1-.1.174,4.358,4.358,0,0,1-.425.553,3.07,3.07,0,0,1-.347.29,2.873,2.873,0,0,1-.36.264,4.637,4.637,0,0,1-.663.277,2.82,2.82,0,0,1-.894.135.831.831,0,0,1-.18-.006,4.681,4.681,0,0,1-.734-.1,3.948,3.948,0,0,1-.843-.328,1.378,1.378,0,0,1-.335-.206,3.994,3.994,0,0,1-.689-.586,3.355,3.355,0,0,1-.508-.727,4.58,4.58,0,0,1-.264-.637,4.612,4.612,0,0,1-.109-.727,2.788,2.788,0,0,1,.1-.92,3,3,0,0,1,.154-.4,3.162,3.162,0,0,1,.18-.4,4.523,4.523,0,0,1,.405-.521l.116-.122a3.239,3.239,0,0,1,.676-.489,3.833,3.833,0,0,1,.791-.315,6.138,6.138,0,0,1,.7-.1,1.585,1.585,0,0,1,.18-.013,4.919,4.919,0,0,1,.869.1,1.818,1.818,0,0,1,.322.084,3.778,3.778,0,0,1,.772.354,6.556,6.556,0,0,1,.534.412l.116.122a5.372,5.372,0,0,1,.405.521l.077.148a3.854,3.854,0,0,1,.251.637,4.977,4.977,0,0,1,.1.7,1.558,1.558,0,0,1-.18.8,1.924,1.924,0,0,1-1.113,1.113,1.558,1.558,0,0,1-.8.18,2.143,2.143,0,0,1-1.486-.618l-.328-.425a2.075,2.075,0,0,1-.283-1.055l-.006-.051.077.56a1.3,1.3,0,0,0-.064-.225l.212.5a1.083,1.083,0,0,0-.129-.219l.328.425a.855.855,0,0,0-.187-.187c.142.109.283.212.425.322a1.39,1.39,0,0,0-.3-.167c.167.064.335.135.5.206a1.818,1.818,0,0,0-.418-.109l.56.077a1.612,1.612,0,0,0-.431,0l.553-.077a1.932,1.932,0,0,0-.367.1l.5-.212a1.479,1.479,0,0,0-.277.161l.425-.328a1.523,1.523,0,0,0-.174.18l.328-.425a1.082,1.082,0,0,0-.129.219l.212-.5a.859.859,0,0,0-.071.251l.077-.553a.906.906,0,0,0,0,.264l-.077-.553a1.042,1.042,0,0,0,.077.277l-.212-.5a1.446,1.446,0,0,0,.18.3l-.328-.425a1.345,1.345,0,0,0,.27.27l-.425-.328a2.36,2.36,0,0,0,.386.232l-.5-.212a1.712,1.712,0,0,0,.431.116c-.187-.026-.373-.051-.56-.071a1.258,1.258,0,0,0,.347-.006l-.553.077a1.161,1.161,0,0,0,.283-.077l-.5.212a1.064,1.064,0,0,0,.232-.142l-.425.328a1.138,1.138,0,0,0,.193-.2l-.328.425a1.307,1.307,0,0,0,.135-.225l-.212.5a1.46,1.46,0,0,0,.09-.328l-.077.56a1.449,1.449,0,0,0,0-.373l.077.553a1.747,1.747,0,0,0-.122-.444l.212.5a1.814,1.814,0,0,0-.238-.405l.328.425a1.684,1.684,0,0,0-.283-.283l.425.328a1.417,1.417,0,0,0-.3-.174l.5.212a1.023,1.023,0,0,0-.283-.077l.56.071a1.748,1.748,0,0,0-.367,0l.56-.077a1.448,1.448,0,0,0-.225.058c.167-.071.335-.135.5-.206a1.082,1.082,0,0,0-.219.129l.425-.328a1.041,1.041,0,0,0-.206.206l.328-.425a1.561,1.561,0,0,0-.167.283l.212-.5a1.7,1.7,0,0,0-.1.354l.077-.56a1.4,1.4,0,0,0,0,.328l-.077-.56a1.767,1.767,0,0,0,.071.264c-.064-.167-.135-.335-.206-.5a1.2,1.2,0,0,0,.161.277l-.328-.425a1.529,1.529,0,0,0,.232.225l-.425-.328a1.67,1.67,0,0,0,.373.219l-.5-.212a1.784,1.784,0,0,0,.45.116l-.56-.071a2.238,2.238,0,0,0,.508,0c-.187.026-.373.045-.56.071a1.517,1.517,0,0,0,.3-.064l-1.544,2.027-.013-.148.077.553a1.917,1.917,0,0,0-.135-.463l.212.5a2.093,2.093,0,0,0-.245-.418l.328.425a1.98,1.98,0,0,0-.367-.367l.425.328a2.578,2.578,0,0,0-.315-.193A1.544,1.544,0,0,1,10.826,23a1.59,1.59,0,0,1-.373-.714,1.541,1.541,0,0,1-.039-.837,1.549,1.549,0,0,1,.251-.779A2.118,2.118,0,0,1,11.92,19.7l.553-.077a2.19,2.19,0,0,1,1.062.29" transform="translate(75.683 102.266)" fill="#1a1311"/>
          <path id="패스_2926" data-name="패스 2926" d="M19.144,21.119a4.088,4.088,0,0,1,.1.74,3.489,3.489,0,0,1-.084.746,2.97,2.97,0,0,1-.322.862l-.1.154a5.448,5.448,0,0,1-.444.573,1.476,1.476,0,0,1-.148.135,6.133,6.133,0,0,1-.573.438,4.537,4.537,0,0,1-.862.4,4.369,4.369,0,0,1-.946.174,3.3,3.3,0,0,1-1.8-.386,2.643,2.643,0,0,1-.734-.541l-.064-.077c-.071-.077-.135-.167-.193-.245a1.26,1.26,0,0,1-.283-.483l-.109-.251a1.607,1.607,0,0,1-.032-.837c.013-.109.026-.225.045-.335l.032-.167a4.909,4.909,0,0,1,.393-1.036,4.144,4.144,0,0,1,.483-.721,3.483,3.483,0,0,1,.586-.643,4.072,4.072,0,0,1,1.364-.83,2.4,2.4,0,0,1,1.171.006l.1.026.1.032a5.673,5.673,0,0,1,.573.245,2.478,2.478,0,0,1,.734.586,3.57,3.57,0,0,1,.45.611,4.451,4.451,0,0,1,.3.695,2.945,2.945,0,0,1,.148,1,4.294,4.294,0,0,1-.09.766.917.917,0,0,1-.071.225,2.852,2.852,0,0,1-.811,1.274,1.508,1.508,0,0,1-.676.431,1.562,1.562,0,0,1-.8.187,1.6,1.6,0,0,1-.811-.187,1.581,1.581,0,0,1-.676-.431,2.109,2.109,0,0,1-.611-1.486c.026-.18.045-.367.071-.553a2.179,2.179,0,0,1,.541-.927,1.127,1.127,0,0,0,.154-.148l-.328.425a1.239,1.239,0,0,0,.116-.2l-.212.5a1.042,1.042,0,0,0,.077-.277c-.026.187-.051.373-.071.56a1.258,1.258,0,0,0-.006-.347l.077.56a1.53,1.53,0,0,0-.1-.335l.212.5a1.075,1.075,0,0,0-.161-.277l.328.425a1.009,1.009,0,0,0-.2-.206l.425.328a1.238,1.238,0,0,0-.2-.116l.5.212a.722.722,0,0,0-.232-.058l.56.071H16l1.055-.29a2.933,2.933,0,0,0-.38.245l.425-.328a2.6,2.6,0,0,0-.483.476l.328-.425a3.054,3.054,0,0,0-.36.611c.071-.161.142-.328.212-.5a2.778,2.778,0,0,0-.18.65c-.071-.541-.142-1.081-.212-1.615l.019.019-.328-.425a.977.977,0,0,0,.2.2l-.425-.328a.84.84,0,0,0,.232.135c-.167-.071-.335-.142-.5-.206a1.208,1.208,0,0,0,.309.077c-.187-.019-.373-.045-.56-.071a1.708,1.708,0,0,0,.405,0c-.187.019-.373.045-.56.071a1.8,1.8,0,0,0,.45-.122l-.5.212a1.815,1.815,0,0,0,.405-.238l-.425.328a1.725,1.725,0,0,0,.29-.283l-.328.425a1.718,1.718,0,0,0,.161-.277l-.212.5a1.134,1.134,0,0,0,.077-.29l-.077.56a1,1,0,0,0,0-.277c.026.187.045.373.071.56l-.013-.084a1.676,1.676,0,0,1-.039-.837,1.57,1.57,0,0,1,.251-.779,1.526,1.526,0,0,1,.541-.586,1.539,1.539,0,0,1,.714-.38,2.115,2.115,0,0,1,1.615.212,2.076,2.076,0,0,1,.965,1.255" transform="translate(51.445 101.729)" fill="#1a1311"/>
          <path id="패스_2927" data-name="패스 2927" d="M22.809,23.38a7.481,7.481,0,0,1-6.351,4.44c-2.67.084-5.56-1.866-6.01-4.594a2.27,2.27,0,0,1,.212-1.615,2.1,2.1,0,0,1,1.255-.965,2.124,2.124,0,0,1,2.58,1.467,4.05,4.05,0,0,0,.154.611c.077.238-.225-.444-.045-.135a2.738,2.738,0,0,0,.174.3c.18.3-.257-.29-.09-.1.064.071.122.148.193.212.077.084.167.161.251.238.264.245-.315-.206-.1-.077.187.116.367.225.553.328.322.167-.36-.129-.122-.045.1.026.187.064.283.09a2.947,2.947,0,0,0,.341.09c.084.019.438.1.071.019s-.026-.013.071-.013a3.131,3.131,0,0,0,.347-.006c.367-.006-.393.084-.129.026.1-.019.2-.039.3-.064a3.665,3.665,0,0,0,.354-.1c.077-.026.425-.161.1-.026s.013-.013.084-.045c.109-.058.219-.122.322-.187s.174-.109.264-.167c.27-.187.026-.058-.077.064.142-.167.347-.3.5-.463q.116-.116.212-.232c.045-.045.084-.1.122-.142q.154-.183-.135.174c.032-.154.27-.386.347-.521a7.346,7.346,0,0,0,.347-.669,2.1,2.1,0,0,1,2.87-.753,2.162,2.162,0,0,1,.753,2.87" transform="translate(61.204 109.937)" fill="#1a1311"/>
          <path id="패스_2928" data-name="패스 2928" d="M61.033,27.072q-26.3.425-52.6-.566c-2.69-.1-2.7-4.3,0-4.2q26.293.985,52.6.566c2.7-.045,2.7,4.15,0,4.2" transform="translate(46.807 121.244)" fill="#1a1311"/>
          <path id="패스_2929" data-name="패스 2929" d="M22.4,30.143a41.99,41.99,0,0,1-10.662-.5,2.111,2.111,0,0,1-1.461-2.587,2.154,2.154,0,0,1,2.58-1.461c.412.071.83.135,1.248.193.154.019.129.019-.071-.006.129.013.257.032.386.045.193.019.386.045.579.064q1.216.125,2.432.174a39.994,39.994,0,0,0,4.968-.122,2.1,2.1,0,0,1,2.1,2.1,2.15,2.15,0,0,1-2.1,2.1" transform="translate(60.998 138.9)" fill="#1a1311"/>
          <path id="패스_2930" data-name="패스 2930" d="M13.782,31.441a58.761,58.761,0,0,1,4.311,5.772Q19.107,38.767,20,40.392a13.9,13.9,0,0,1,1.589,3.333c.637,2.741-2.085,4.594-3.816,6.248q-2.867,2.741-5.843,5.36a2.143,2.143,0,0,1-2.966,0,2.113,2.113,0,0,1,0-2.966c1.622-1.435,3.23-2.9,4.807-4.382.791-.74,1.577-1.493,2.355-2.246A12.893,12.893,0,0,1,17.289,44.6a3.668,3.668,0,0,0,.277-.27c-.238.238.084.45-.225-.019-.541-.817-.927-1.763-1.416-2.606s-1.01-1.7-1.557-2.529a49.266,49.266,0,0,0-3.552-4.768,2.15,2.15,0,0,1,0-2.966,2.119,2.119,0,0,1,2.966,0" transform="translate(75.649 167.582)" fill="#1a1311"/>
          <path id="패스_2931" data-name="패스 2931" d="M12.9,33.226a31.219,31.219,0,0,0,8.655,6.731l-2.542.328,10.115-8.822a2.144,2.144,0,0,1,2.966,0,2.119,2.119,0,0,1,0,2.966L21.984,43.251a2.183,2.183,0,0,1-2.542.328,34.592,34.592,0,0,1-9.5-7.387c-1.808-2,1.152-4.974,2.966-2.966" transform="translate(58.11 167.753)" fill="#1a1311"/>
          <path id="패스_2932" data-name="패스 2932" d="M27.355,46.175a60.838,60.838,0,0,0-8.237-9.794h2.96a114.885,114.885,0,0,1-8.745,8.507,2.142,2.142,0,0,1-2.96,0,2.113,2.113,0,0,1,0-2.966,119.849,119.849,0,0,0,8.745-8.507,2.117,2.117,0,0,1,2.96,0,65.15,65.15,0,0,1,8.893,10.643,2.1,2.1,0,1,1-3.616,2.117" transform="translate(57.031 178.323)" fill="#1a1311"/>
          <path id="패스_2933" data-name="패스 2933" d="M28.348,45.327a124.086,124.086,0,0,0-17.014-.354,2.119,2.119,0,0,1-2.1-2.1,2.141,2.141,0,0,1,2.1-2.1,124.086,124.086,0,0,1,17.014.354,2.154,2.154,0,0,1,2.1,2.1,2.115,2.115,0,0,1-2.1,2.1" transform="translate(61.25 220.849)" fill="#1a1311"/>
          <path id="패스_2934" data-name="패스 2934" d="M30.4,46.217a180.918,180.918,0,0,0-19.143-.245c-2.7.1-2.69-4.093,0-4.2a180.919,180.919,0,0,1,19.143.251,2.141,2.141,0,0,1,2.1,2.1,2.115,2.115,0,0,1-2.1,2.1" transform="translate(59.205 226.24)" fill="#1a1311"/>
          <path id="패스_2935" data-name="패스 2935" d="M26.957,50.874H12.08a2.1,2.1,0,0,1,0-4.2H26.957a2.1,2.1,0,0,1,0,4.2" transform="translate(57.847 253.692)" fill="#1a1311"/>
          <path id="패스_2936" data-name="패스 2936" d="M30.568,52.731a93.866,93.866,0,0,1-19.143-.83,2.106,2.106,0,0,1-1.461-2.58,2.155,2.155,0,0,1,2.58-1.467,88.845,88.845,0,0,0,18.024.682,2.115,2.115,0,0,1,2.1,2.1,2.141,2.141,0,0,1-2.1,2.1" transform="translate(54.777 259.898)" fill="#1a1311"/>
          <path id="패스_2937" data-name="패스 2937" d="M26.307,48.825q2.7,4.768,5.071,9.717a2.148,2.148,0,0,1-.328,2.542q-6.824,5.84-13.667,11.666a2.131,2.131,0,0,1-2.966,0,25.059,25.059,0,0,1-4.3-6.055c-1.21-2.426-2.059-5.026.071-7.233A13.266,13.266,0,0,1,13.1,57.428c1.19-.714,2.387-1.435,3.584-2.149q3.677-2.2,7.355-4.395c2.323-1.39,4.44,2.233,2.117,3.623-3.99,2.381-8,4.723-11.969,7.155-.315.193-1.081.566-1.178.965-.148.618.631,1.757.9,2.278a21.162,21.162,0,0,0,3.475,4.878H14.415q6.843-5.82,13.667-11.666c-.109.849-.219,1.7-.328,2.542q-2.365-4.942-5.071-9.717c-1.338-2.349,2.291-4.466,3.623-2.117" transform="translate(62.333 259.795)" fill="#1a1311"/>
          <path id="패스_2938" data-name="패스 2938" d="M16.54,48.952a47.181,47.181,0,0,1,7.606,10.765,2.127,2.127,0,0,1-.753,2.87q-4.411,2.172-8.816,4.35a2.155,2.155,0,0,1-2.876-.753,2.122,2.122,0,0,1,.753-2.87q4.411-2.172,8.822-4.35c-.251.952-.5,1.911-.753,2.87a42.763,42.763,0,0,0-6.95-9.916,2.1,2.1,0,1,1,2.966-2.966" transform="translate(53.181 262.751)" fill="#1a1311"/>
          <path id="패스_2939" data-name="패스 2939" d="M25.109,35.333a62.519,62.519,0,0,0-9.337,7.529V39.9q3.861,3.919,7.728,7.831c1.9,1.924-1.068,4.89-2.966,2.966q-3.861-3.919-7.728-7.831a2.125,2.125,0,0,1,0-2.966A67.745,67.745,0,0,1,22.992,31.71a2.1,2.1,0,0,1,2.117,3.623" transform="translate(46.472 170.755)" fill="#1a1311"/>
          <path id="패스_2940" data-name="패스 2940" d="M26.278,34.821a78.97,78.97,0,0,1-14.356,1.268,2.1,2.1,0,0,1,0-4.2,73.154,73.154,0,0,0,13.243-1.12,2.146,2.146,0,0,1,2.58,1.467,2.124,2.124,0,0,1-1.467,2.58" transform="translate(60.128 167.026)" fill="#1a1311"/>
          <path id="패스_2941" data-name="패스 2941" d="M26.416,39.074a85.405,85.405,0,0,1-14.337-.586,2.163,2.163,0,0,1-2.1-2.1,2.111,2.111,0,0,1,2.1-2.1,85.405,85.405,0,0,0,14.337.586,2.1,2.1,0,0,1,0,4.2" transform="translate(58.388 186.313)" fill="#1a1311"/>
          <path id="패스_2942" data-name="패스 2942" d="M31.91,74.672l-5.579-.405a35.79,35.79,0,0,1-5.051-.476,5.931,5.931,0,0,1-3.713-2.838c-1.03-1.583-1.975-3.23-2.966-4.845-.965-1.577-1.943-3.153-2.9-4.736-1.023-1.692-1.2-3.391.122-4.974,1.165-1.383,2.587-2.593,3.874-3.867q2.017-2,4.047-4c1.918-1.9,4.89,1.062,2.966,2.966q-3.272,3.224-6.538,6.461c-.09.084-1.261,1.216-1.242,1.242-.013-.508.051-.611.18-.3l.328.541.579.946q1.226,2,2.439,3.983,1.168,1.9,2.323,3.79c.592.965.888,1.512,2.053,1.654,3,.367,6.068.444,9.079.663a2.15,2.15,0,0,1,2.1,2.1,2.115,2.115,0,0,1-2.1,2.1" transform="translate(47.122 260.44)" fill="#1a1311"/>
          <path id="패스_2943" data-name="패스 2943" d="M12.78,35.51A88.035,88.035,0,0,1,17.039,57c.476,6.711.83,14.446-2.143,20.662-1.165,2.439-4.781.309-3.623-2.117,1.4-2.921,1.6-6.19,1.718-9.375a83.816,83.816,0,0,0-.206-9.929,83.451,83.451,0,0,0-4.054-19.62c-.849-2.568,3.2-3.668,4.047-1.113" transform="translate(78.337 185.102)" fill="#1a1311"/>
          <path id="패스_2944" data-name="패스 2944" d="M18.462,44.073a50.936,50.936,0,0,1-5.534,29.162c-1.248,2.4-4.871.277-3.623-2.117a47.09,47.09,0,0,0,4.961-27.045,2.111,2.111,0,0,1,2.1-2.1,2.145,2.145,0,0,1,2.1,2.1" transform="translate(74.148 228.127)" fill="#1a1311"/>
          <path id="패스_2945" data-name="패스 2945" d="M22.921,53.176l-.058,14.066a4.463,4.463,0,0,0,.322,2.535,12.146,12.146,0,0,0,1.8,1.692c1.486,1.4,2.6,3.571,1.789,5.6a2.12,2.12,0,0,1-4.047,0c-1.268-3.726-6.177-6.036-9.839-4.427a2.165,2.165,0,0,1-2.87-.753,2.112,2.112,0,0,1,.753-2.87,11.968,11.968,0,0,1,16,6.93H22.728C23.2,74.79,20.752,73.4,20.1,72.6c-1.422-1.725-1.435-3.687-1.422-5.823l.051-13.6c.006-2.7,4.208-2.7,4.2,0" transform="translate(61.343 277.985)" fill="#1a1311"/>
          <path id="패스_2946" data-name="패스 2946" d="M56.369,52.889c9.517.618,20.276,3.153,28.043,9,2.78,2.091,5.437,5.56,3.822,9.17-1.641,3.668-6.094,3.932-9.562,4.363A205.245,205.245,0,0,1,7.04,71.531c-2.632-.6-1.519-4.652,1.113-4.048a202.247,202.247,0,0,0,54.014,5.1q6.39-.261,12.767-.933c1.866-.2,5.283.006,6.956-.92.811-.051,1.281-.573,1.422-1.57,1.1-.753,1.235-1.467.405-2.13-.444-1.062-1.86-1.879-2.786-2.465-7.258-4.594-16.061-6.93-24.562-7.484-2.683-.174-2.7-4.369,0-4.2" transform="translate(26.781 287.416)" fill="#1a1311"/>
          <path id="패스_2947" data-name="패스 2947" d="M69.053,61.95q-29.758.9-59.515-.483c-2.69-.122-2.7-4.318,0-4.2q29.738,1.38,59.515.483c2.7-.084,2.7,4.112,0,4.2" transform="translate(31.697 311.25)" fill="#1a1311"/>
          <path id="패스_2948" data-name="패스 2948" d="M58.037,56.491c-6.119,1.377-11.956-.071-17.573-2.574-2.555-1.145-5.006-2.5-7.458-3.848-2.432-1.338-5.212-2.51-7.4-4.241a5.927,5.927,0,0,1-1.615-7.638c.386-.676,3.069-3.147,2.889-3.616-.174-.444-.927-.676-1.306-.792-.592-.193-1.705.116-2.027-.039.18.09-.148-.862.09-.508a7.919,7.919,0,0,0,2.111,2.259q-2.027,3.465-4.06,6.943c-.9-.65-1.679-1.422-2.542-2.1l1.77,1.036-.071-.013h2.143c1.577-.476.4-.122-.032.077a20.931,20.931,0,0,1-2.175.862c-1.564.547-.135.3-.47.174-.856-.676-1.068-1.235-.631-1.673.122.148.309.167.56.064.405.026.811.039,1.21.039.592-.032.547-.013-.129.058-.174.071-1,.438-.386.142a10.507,10.507,0,0,1,4.356-.875c4.3-.167,5.038,5.341,2.027,7.49a8.99,8.99,0,0,0-2.567,2.432c.026-.045-.1.328-.051.328a5.389,5.389,0,0,1-.985-.463c-.257.032-.29.013-.1-.051a1.3,1.3,0,0,0,.618-.5,6.627,6.627,0,0,0,1.1-1.525,8.963,8.963,0,0,0,1.165-3.964c.3-5.141,8.346-5.18,8.043,0-.367,6.216-5.656,17.1-13.655,13.417a7.7,7.7,0,0,1-4.093-8.32c.573-3.79,3.526-6.2,6.467-8.294q1.013,3.745,2.033,7.5c-.405.006-.811.026-1.216.064a1.319,1.319,0,0,0,.914-.29c-.051-.006-2.033.824-1.358.611a10.24,10.24,0,0,1-3.932.206c-4.125-.367-7.728-2.831-7.31-7.406.38-4.125,3.977-5.92,6.853-7.123,1.319-.553,2.278-1.152,3.816-.714,1.216.341,1.757,1.2,2.69,1.873A4.138,4.138,0,0,1,27.189,41c-1.023,1.757-3.713,2.7-5.5,1.441-2.7-1.9-5.277-4.3-5.914-7.69a7.536,7.536,0,0,1,4.2-8.185c5.965-2.883,14.51.746,14.974,7.786a7.7,7.7,0,0,1-1.19,4.665,10.582,10.582,0,0,1-2.748,3.1q-.319.29-.077.135c-1.1-2.471-1.087-3.295.058-2.477a10.767,10.767,0,0,1,2.239,1.235c1.493.824,2.979,1.647,4.472,2.471,5.418,2.986,11.776,6.7,18.2,5.257,5.038-1.139,7.194,6.615,2.136,7.754" transform="translate(10.705 138.961)" fill="#fabd1f"/>
          <path id="패스_2949" data-name="패스 2949" d="M25.245,25.764c4.2-1.4,7.928,2.658,7.2,6.731-.785,4.408-5.264,6.448-9.356,6.248.187-1.371.373-2.748.56-4.118a6.865,6.865,0,0,1,5.077,8.738c-1.454,4.331-5.772,5.1-9.807,4.9.187-1.377.373-2.748.56-4.125,4.15.727,8.661,2.078,10.3,6.415,1.4,3.713-1.345,8.706-5.695,8.134a2.177,2.177,0,0,1-2.1-2.1c-.006-1.023.978-2.252,2.1-2.1,2.278.3,2.156-2.362,1.081-3.629-1.615-1.924-4.472-2.271-6.8-2.677s-1.8-4.241.553-4.118c1.853.09,4.665.412,5.656-1.6a2.658,2.658,0,0,0-2.046-3.8c-2.291-.515-1.815-4.241.56-4.125,1.853.09,4.125-.238,5.013-2.13.6-1.287-.058-3.166-1.744-2.606-2.567.856-3.668-3.2-1.113-4.047" transform="translate(10.076 138.485)" fill="#1a1311"/>
          <path id="패스_2950" data-name="패스 2950" d="M55.477,21.408C50.007,11.125,37.543.713,25.857,8.847c-12.947,9.009,1.808,25.314,5.418,35.533a34.088,34.088,0,0,1,1.853,16.692c-1.049,6.673-4.343,12.889-4.961,19.639a15.875,15.875,0,0,0,10.27,16.634c6.731,2.542,14.144.219,19.42-4.292,2.04-1.75,5.026,1.2,2.966,2.966-8.217,7.02-20.186,9.157-29.207,2.252-11-8.436-7.3-20.726-4.009-32.045a32.985,32.985,0,0,0-1.2-22.844c-2.645-6.454-7.053-12.136-9.079-18.848-3.089-10.244,2.651-19.69,13-22.149C42.929-.606,53.572,8.892,59.1,19.291c1.268,2.381-2.355,4.5-3.623,2.117" transform="translate(-16.495 9.931)" fill="#1a1311"/>
          <path id="패스_2951" data-name="패스 2951" d="M22.217,19.056A426.091,426.091,0,0,1,24.16,70.077c-.058,2.7-4.253,2.7-4.2,0a428.792,428.792,0,0,0-1.943-51.021c-.264-2.683,3.932-2.67,4.2,0" transform="translate(10.987 92.654)" fill="#1a1311"/>
          <path id="패스_2952" data-name="패스 2952" d="M21.534,32.427q1.66,15.135,3.314,30.269a2.111,2.111,0,0,1-2.1,2.1,2.141,2.141,0,0,1-2.1-2.1q-1.66-15.135-3.314-30.269a2.115,2.115,0,0,1,2.1-2.1,2.145,2.145,0,0,1,2.1,2.1" transform="translate(14.765 164.833)" fill="#1a1311"/>
          <path id="패스_2953" data-name="패스 2953" d="M36.37,37.741q1.052,1.38,2,2.838a11.741,11.741,0,0,1,1.622,2.96c.689,2.374-1.126,4.118-2.812,5.47a21.491,21.491,0,0,1-11.222,4.6c-1.93.206-4.389.341-6.113-.676-1.873-1.107-2.574-3.443-3.269-5.354-1.383-3.822-1.557-8.642,2.078-11.3,2.008-1.467,4.575-1.345,6.924-1.12a54.866,54.866,0,0,1,8.166,1.416,2.118,2.118,0,0,1,.927,3.507,31.779,31.779,0,0,1-4.453,3.694,6.149,6.149,0,0,1-2.889,1.358,3.38,3.38,0,0,1-2.8-1.229c-.708-.772-1.351-1.615-2.021-2.419A13.285,13.285,0,0,1,20.515,38.9a2.317,2.317,0,0,1,4.067-2.22,2.047,2.047,0,0,1,0,2.123l-.064.1c-1.435,2.278-5.071.174-3.623-2.123l.064-.1V38.8l-.09-.116c.418.322.837.637,1.255.959l-.154-.058c.541-.071,1.075-.135,1.615-.206l-.135.064c.322-.412.643-.83.965-1.248-.019.071-.032.148-.045.219V37.3c-.135-.36.116.032.212.135.18.193.341.412.515.618.386.463.766.927,1.152,1.39.347.412.689.824,1.03,1.229.058.077.386.367.4.457.212.193.1.167-.328-.058-.521-.064-.566-.18-.129-.347a21.533,21.533,0,0,1,2.143-1.5,29.131,29.131,0,0,0,2.342-2.111c.309,1.171.618,2.336.927,3.507a49.667,49.667,0,0,0-5.309-1.062,18.867,18.867,0,0,0-4.955-.322c-2.587.335-2.838,3.269-2.336,5.322a16.949,16.949,0,0,0,1.609,4.318c.553.965,2.233.663,3.185.618a16.9,16.9,0,0,0,8.095-2.574A14.694,14.694,0,0,0,34.71,45.63c.328-.277.65-.573.952-.875.29-.283.232-.386.29-.1a4.333,4.333,0,0,0-.586-.978c-.238-.386-.476-.766-.727-1.139-.6-.914-1.229-1.8-1.892-2.677a2.108,2.108,0,0,1,.753-2.87,2.148,2.148,0,0,1,2.87.753" transform="translate(10.198 190.354)" fill="#1a1311"/>
          <path id="패스_2954" data-name="패스 2954" d="M20.1,36.478a20.967,20.967,0,0,1,2.748,2.252,20.018,20.018,0,0,1,2.284,2.715,2.1,2.1,0,0,1-.753,2.87,2.115,2.115,0,0,1-1.615.212l-.5-.212a2.11,2.11,0,0,1-.753-.753c-.129-.18-.257-.354-.393-.528l.328.425a17.651,17.651,0,0,0-3.114-3.121l.425.328c-.251-.193-.508-.386-.772-.566a2.215,2.215,0,0,1-.965-1.255,2.1,2.1,0,0,1,1.467-2.58,2.083,2.083,0,0,1,1.615.212" transform="translate(16.675 196.726)" fill="#1a1311"/>
          <path id="패스_2955" data-name="패스 2955" d="M26.545,40.241a27.707,27.707,0,0,0-3.327,2.188l.425-.328a26.95,26.95,0,0,0-2.458,2.149,2.1,2.1,0,0,1-2.966-2.966,29.119,29.119,0,0,1,6.21-4.665,2.1,2.1,0,0,1,2.117,3.623" transform="translate(10.211 197.558)" fill="#1a1311"/>
          <path id="패스_2956" data-name="패스 2956" d="M21.874,2.126q.347,8.764.7,17.528a2.1,2.1,0,1,1-4.2,0q-.347-8.764-.7-17.528a2.1,2.1,0,1,1,4.2,0" transform="translate(14.811 0.153)" fill="#1a1311"/>
          <path id="패스_2957" data-name="패스 2957" d="M34.1,9.267c7.741,1.351,12.934,9.794,11.061,17.322a2.116,2.116,0,0,1-4.047,0,4.871,4.871,0,0,0-4.273-3.784,4.821,4.821,0,0,0-4.71,3.2c-.734,2.136-4.208,1.924-4.125-.56.064-2.1-.476-5.341-2.851-6.042-2.786-.811-5.334,2.67-6.782,4.524A2.107,2.107,0,0,1,14.866,23,15.993,15.993,0,0,1,24.93,5.489a2.113,2.113,0,0,1,2.58,1.467,2.141,2.141,0,0,1-1.461,2.58,11.7,11.7,0,0,0-7.143,12.355q-1.747-.463-3.507-.927c2.593-3.32,6.57-7.1,11.184-5.5,4.054,1.416,5.753,6,5.618,9.987l-4.118-.56a9.1,9.1,0,0,1,8.758-6.28,9.107,9.107,0,0,1,8.32,6.859H41.113c1.364-5.47-2.677-11.2-8.127-12.155a2.111,2.111,0,0,1-1.467-2.58A2.144,2.144,0,0,1,34.1,9.267" transform="translate(11.304 29.286)" fill="#1a1311"/>
          <path id="패스_2958" data-name="패스 2958" d="M35.853,24.349c4.112-.978,3.88-6.319,3.649-9.569l3.584,1.486c-2.387,2.3-5.36,4.9-8.925,4.556-3.108-.3-6.152-2.658-5.984-6.017,1.377.187,2.748.373,4.125.553a8.2,8.2,0,0,1-6.872,6.087c-3.6.528-7.033-1.165-9.549-3.649,1.171-.309,2.336-.611,3.507-.92A10.428,10.428,0,0,0,21.9,25.334c1.8,2.008-1.165,4.987-2.966,2.966a14.964,14.964,0,0,1-3.6-12.541c.264-1.615,2.477-1.943,3.507-.927,1.512,1.493,3.591,2.767,5.8,2.51a4.067,4.067,0,0,0,3.6-3.1c.5-2.291,4.241-1.815,4.118.56-.064,1.332,1.564,2.008,2.728,1.84,2-.283,3.642-2.021,5.019-3.346a2.118,2.118,0,0,1,3.578,1.48c.212,2.979.206,6.017-1.075,8.783A8.616,8.616,0,0,1,36.966,28.4c-2.625.624-3.745-3.423-1.113-4.047" transform="translate(9.969 69.002)" fill="#1a1311"/>
          <path id="패스_2959" data-name="패스 2959" d="M47,74.383A230.346,230.346,0,0,0,27.372,51.4c-6.255-6.293-13.365-11.891-22.1-14.137C.256,35.98,2.379,28.22,7.4,29.513c9.813,2.522,18.05,8.655,25.141,15.688a239.107,239.107,0,0,1,21.4,25.121c1.319,1.731.27,4.5-1.441,5.5-2.066,1.21-4.183.29-5.5-1.441" transform="translate(81.099 159.613)" fill="#fabd1f"/>
          <path id="패스_2960" data-name="패스 2960" d="M16.667,35.806A67.627,67.627,0,0,1,27.02,39.834c3.6,1.808,6.4,6.094,4.208,10.064-1.982,3.616-6.422,3.867-9.9,2.477a13.81,13.81,0,0,1-7.419-6.686q3.745-1.023,7.5-2.033c-.045,1.345-.1,2.69-.142,4.028a13.083,13.083,0,0,1-.631,4.659,6.122,6.122,0,0,1-7.426,3.616A7.533,7.533,0,0,1,7.98,50.651c-.759-3.295.7-6.4,2.49-9.073l5.5,5.5c-.6.36.058-.135-.251.142-.232.212-.457.438-.669.669-.386.425-.734.882-1.087,1.332a14.3,14.3,0,0,1-2.883,2.863,7.268,7.268,0,0,1-8.758-.045C-.72,49.686-.669,45.516,1.867,42.8a17.375,17.375,0,0,1,3.455-2.522q1.911-1.216,3.816-2.432a4.06,4.06,0,0,1,5.508,1.441,4.111,4.111,0,0,1-1.448,5.5c-1.654,1.055-3.32,2.091-4.968,3.166-.193.122-.38.251-.566.38.347-.277.347-.27.006.032-.077.077-.154.161-.232.245a1.606,1.606,0,0,0,.534-1.383A2.109,2.109,0,0,0,7.4,45.851q-.695-.483-.135-.135c-.483-.18-.573-.225-.29-.142.3.071.187.058-.354-.045-.611.129-.663.129-.161.013l-.322.154a4.3,4.3,0,0,0,.6-.354c-.656.386.116-.142.257-.283.29-.3.56-.611.817-.933a15.793,15.793,0,0,1,4.1-3.99c3.34-1.995,7.786,2.091,5.508,5.5-.463.689-.9,1.39-1.3,2.117-.386.7.1-.257-.219.541-.032.129-.064.257-.1.386.026-.354.032-.386.013-.09q.019.434-.077-.077c.1.328.084.335-.045.013-.148-.315-.142-.322.019-.013-.1-.135-.212-.264-.315-.393-.077.116,1.126.83-.019.058.656.444-.779-.142-.026.019s-.927-.032-.109-.032a2.264,2.264,0,0,0-1.383.431,3.264,3.264,0,0,0-.676.785c-.045.483-.051.483-.013.006l.013-.36c.077-1.789.122-3.584.187-5.373a4.02,4.02,0,0,1,7.49-2.027c.2.412.425.8.656,1.184.2.335.212.3-.026.013.142.174.29.341.444.508a9.72,9.72,0,0,0,1,.927c-.3-.238-.315-.225.006-.032.2.116.386.238.586.347s.405.206.6.309c-.322-.167-.412-.142-.019-.019.438.129.869.232,1.313.341-.315-.077-.592-.045-.1-.045.534.006.142-.071-.116.045a1.974,1.974,0,0,0-1.229,1.4c-.026.129.051.914-.032.534-.1-.425.2.322.206.373.1.425-.27-.3-.019-.051s-.251-.174-.341-.225a21.367,21.367,0,0,0-2.921-1.4c-.669-.283.412.167-.264-.109-.277-.109-.553-.225-.83-.328-.547-.219-1.1-.431-1.66-.631q-1.776-.647-3.578-1.2a4.021,4.021,0,1,1,2.136-7.754" transform="translate(119.133 193.718)" fill="#fabd1f"/>
        </g>
      </g>
    </g>
  </g>
</svg>
