<svg xmlns="http://www.w3.org/2000/svg" width="110" height="120" viewBox="0 0 110 120">
  <g id="그룹_1805" data-name="그룹 1805" transform="translate(-21 -1178)">
    <g id="사각형_1968" data-name="사각형 1968" transform="translate(21 1178)" fill="#ef8026" stroke="#000" stroke-width="2">
      <rect width="110" height="120" stroke="none"/>
      <rect x="1" y="1" width="108" height="118" fill="none"/>
    </g>
    <line id="선_101" data-name="선 101" x1="98" y2="107" transform="translate(27.5 1184.5)" fill="none" stroke="#000" stroke-linecap="round" stroke-width="2"/>
    <g id="그룹_1604" data-name="그룹 1604" transform="translate(8777.053 147.54)">
      <path id="패스_5520" data-name="패스 5520" d="M21.693,2.2c6.225,1.024,13.335.671,19.843,1.284,6.842.656,5.675.264,6.842.656,1.439.489,3.471,4.007,3.437,5.465a6.522,6.522,0,0,1,1.3,2.626,1.717,1.717,0,0,0-.834,1.377c9.875,6.815,7.68,21.4,5.376,31.569C55.6,53.942,50.892,61.424,46.3,68.937c-2.25,6.183-12,3.553-18.66,3.774-14.32-1.241-12.365-.372-17.648-12.87C4.363,48.477,2.028,34.808,4.514,22.1a25.049,25.049,0,0,1,4.333-7.765c1-1.21,3.832-2.3,4.4-3.65-.531-.295-1.059-.415-1.1-1.206a8.743,8.743,0,0,0,2.067-3.118C15.832,4,15.495,1.766,21.693,2.2" transform="translate(-8738.853 1050.24)" fill="#1d1211" fill-rule="evenodd"/>
      <path id="패스_5521" data-name="패스 5521" d="M6.683,5.9Q26.627,6.941,46.548,8.359c1.427.1,1.427-2.126,0-2.226Q26.627,4.713,6.683,3.669c-1.435-.074-1.431,2.157,0,2.23" transform="translate(-8732.856 1054.612)" fill="#493532"/>
      <path id="패스_5522" data-name="패스 5522" d="M8.444,4.1A271.385,271.385,0,0,0,36.115,5.675a1.116,1.116,0,0,0,0-2.23A270.278,270.278,0,0,1,8.444,1.873c-1.423-.151-1.412,2.079,0,2.23" transform="translate(-8727.753 1049.427)" fill="#493532"/>
      <path id="패스_5523" data-name="패스 5523" d="M10.443,5.018C2.3,11.856,2.8,23.546,4.044,33.131c1.427,11,6.02,21.046,10.713,30.979.613,1.3,2.537.167,1.924-1.125C12.425,53.971,8.155,44.821,6.538,34.9,5.009,25.54,3.966,13.357,12.018,6.593c1.1-.923-.481-2.49-1.575-1.575" transform="translate(-8739.391 1057.701)" fill="#493532"/>
      <path id="패스_5524" data-name="패스 5524" d="M18,19.8a36.668,36.668,0,0,0-5.911,8.921c-.438.95-.846,1.92-1.218,2.9-.7,1.858.88-2.292,3.266-1.5.233.078.718.345.252.035a9.449,9.449,0,0,0-1-.605,10.958,10.958,0,0,0-6.912-.919,3.534,3.534,0,0,0-.842,6.423c1.276.624,2.541,1.284,3.832,1.873,1.974.9,4.073,1.346,6.066.171a3.516,3.516,0,0,0-3.549-6.07c-.322.182-.217.14.322-.132.628-.058.756-.089.376-.089.182.019.365.043.547.066a3.384,3.384,0,0,1-.388-.109c-.687-.159.7.361.081.05-.24-.124-.489-.24-.733-.361-1-.489-2.005-.981-3.006-1.47q-.419,3.212-.842,6.427c.729-.128-.76.031-.078.019.217,0,.431-.016.648-.008.388.016.7.221-.078-.035.2.066.431.081.632.136.116.031.551.237.617.2-.147-.062-.295-.128-.438-.19.128.058.26.12.388.19.337.178.644.407.97.609a4.365,4.365,0,0,0,5.333-.411,5.309,5.309,0,0,0,1.241-2.219c.078-.209.159-.419.24-.628.039-.1.081-.206.124-.31.1-.244.054-.14-.14.326a6.15,6.15,0,0,0,.551-1.226c.178-.368.361-.737.551-1.1q.593-1.14,1.276-2.23c.473-.76.977-1.5,1.509-2.219l.136-.178c.225-.295.178-.237-.14.182A4.2,4.2,0,0,0,22.1,25.8c.283-.345.574-.687.873-1.02A3.516,3.516,0,1,0,18,19.8" transform="translate(-8737.7 1098.155)" fill="#1d1211"/>
      <path id="패스_5525" data-name="패스 5525" d="M11.809,22.9A14.1,14.1,0,0,0,18.8,30.522a23.014,23.014,0,0,0,4.992,1.788,11.643,11.643,0,0,0,1.214.26c.058.012.12.023.178.039a1.724,1.724,0,0,1-1.121-1q-.774-1.315-.586-.586c-.023-.163-.047-.326-.066-.489a7.288,7.288,0,0,0,.016,1.125c-.031.306-.023.3.016-.019s.043-.326-.008-.023l-.047.217c.822-1.055,1.008-1.4.562-1.028q.774-.454,1.551-.908l-.128.035h1.87l-.132-.035c.516.3,1.036.6,1.551.9l-.116-.128c.3.516.605,1.036.9,1.551-.05-.128-.085-.256-.128-.388-.19-.6-.027.52.019.124.012-.12.062-.648-.035-.112-.109.6.058-.151.078-.221q-3.456-.465-6.908-.935a21.8,21.8,0,0,0-.167,3.181,4.395,4.395,0,0,0,1.121,3.266,3.816,3.816,0,0,0,3.677,1c3.157-.861,3.7-4.934,3.468-7.7a3.591,3.591,0,0,0-3.518-3.514c-1.769.078-3.685,1.555-3.514,3.514.027.318.047.632.047.946,0,.159,0,.318-.012.473-.008.132-.1.818,0,.24.093-.543-.008.012-.027.12-.027.155-.062.306-.1.462s-.1.306-.124.458c-.1.326,0,.171.3-.469a2.068,2.068,0,0,1,1.551-1.3h1.87l-.1-.023q.774.454,1.551.9l-.093-.078c.3.516.6,1.032.9,1.551.05.721.062.853.043.4q-.012-.244-.012-.489c0-.33,0-.655.008-.981.023-.655.081-1.3.163-1.955a3.476,3.476,0,0,0-1.028-2.482,3.637,3.637,0,0,0-2.021-.97,3.511,3.511,0,0,0-3.855,2.521c-.516,1.873-.446,4.395.97,5.884a3.789,3.789,0,0,0,3.8,1.032,4.208,4.208,0,0,0,2.746-2.82,9.8,9.8,0,0,0,.14-4.7A4.518,4.518,0,0,0,26.436,25.7a24.326,24.326,0,0,1-3.056-.822,3.923,3.923,0,0,0-.842-.318c.493.209.566.24.217.085-.1-.047-.2-.093-.3-.144a12.592,12.592,0,0,1-1.431-.8c-.167-.1-.33-.221-.5-.334q-.442-.326.233.186c-.1-.081-.206-.167-.31-.252a10.78,10.78,0,0,1-1-.974c-.206-.229-.605-.946-.078-.058-.1-.167-.233-.326-.337-.493-.144-.221-.275-.45-.4-.683-.062-.12-.12-.237-.175-.357.221.535.264.632.128.287a3.8,3.8,0,0,0-1.617-2.1,3.589,3.589,0,0,0-2.707-.357c-1.664.539-3.165,2.486-2.455,4.325" transform="translate(-8715.525 1097.153)" fill="#1d1211"/>
      <path id="패스_5526" data-name="패스 5526" d="M11.946,21.807c2,3.223,6.221,4.779,9.805,5.322a1.136,1.136,0,0,0,1.373-.78,1.2,1.2,0,0,1,.485-.9l-1.524-1.524a9.46,9.46,0,0,0-.756,6.683c.7,2.036,2.8,2.533,4.709,2.734a1.119,1.119,0,0,0,1.117-1.113,1.14,1.14,0,0,0-1.117-1.113c-1.051-.112-2.4-.283-2.669-1.493a7.567,7.567,0,0,1,.64-4.573,1.161,1.161,0,0,0-.175-1.35,1.122,1.122,0,0,0-1.35-.175,3.344,3.344,0,0,0-1.509,2.238l1.369-.78a18.122,18.122,0,0,1-4.6-1.315,8.479,8.479,0,0,1-3.871-2.983c-.752-1.218-2.68-.1-1.924,1.125" transform="translate(-8715.107 1102.079)" fill="#493532"/>
      <path id="패스_5527" data-name="패스 5527" d="M16.49,19.872a24.752,24.752,0,0,0-2.025,2.835c-.283.469-.551.954-.8,1.447a4.418,4.418,0,0,1-.679,1.311c.163-.1.326-.19.493-.287-.4.167-1.047-.074-1.474-.136-.632-.093-1.261-.182-1.9-.221a7.912,7.912,0,0,0-3.386.465,4.5,4.5,0,0,0-2.952,5.26,1.115,1.115,0,0,0,2.149-.593A2.27,2.27,0,0,1,7.5,27.362a8.723,8.723,0,0,1,4.48-.085,3.548,3.548,0,0,0,2.354-.062c.659-.384.884-1.195,1.206-1.839a21.449,21.449,0,0,1,2.525-3.929,1.144,1.144,0,0,0,0-1.575,1.121,1.121,0,0,0-1.575,0" transform="translate(-8738.596 1100.329)" fill="#493532"/>
      <path id="패스_5528" data-name="패스 5528" d="M52.922,8.445c-1.97,1.672-4.689.438-6.753-.349a10.6,10.6,0,0,0-5.609-.911c-2.521.431-4.685,1.986-7.288,2.06-2.653.074-4.565-1.361-6.9-2.316-3.852-1.579-6.559.621-10.123,1.78-4.2,1.369-6.722-3.278-10.822-3.134-1.431.05-1.435,2.277,0,2.23,2.281-.081,3.9,1.676,5.818,2.641a6.993,6.993,0,0,0,4.961.6c2-.489,3.716-1.73,5.69-2.281,2.859-.8,4.837,1.071,7.358,2.017a10.811,10.811,0,0,0,6.4.376c2.8-.694,5.015-2.35,8.041-1.567,3.7.958,7.331,3.374,10.8.431,1.1-.927-.485-2.5-1.575-1.575" transform="translate(-8736.47 1060.092)" fill="#693418"/>
      <path id="패스_5529" data-name="패스 5529" d="M56.063,9.875c-1.524,1.237-4.67.741-6.384.272-2.3-.628-4.371-1.928-6.827-1.873-2.362.05-4.367,1.4-6.609,1.939-3.231.772-5.612-.725-8.425-1.97-4.247-1.881-6.9.83-10.88,1.815C12.61,11.132,9.332,6.171,4.969,6.318c-1.431.05-1.435,2.277,0,2.23,4.348-.147,7.284,4.627,11.88,3.813,2.288-.407,4.189-1.881,6.415-2.455,3-.776,5.252,1.563,7.967,2.354a11.051,11.051,0,0,0,6.792-.275,20.7,20.7,0,0,1,4.17-1.381,9.71,9.71,0,0,1,4.72.908c3.223,1.21,7.761,2.347,10.725-.062,1.117-.9-.469-2.471-1.575-1.575" transform="translate(-8737.791 1062.234)" fill="#693418"/>
      <path id="패스_5530" data-name="패스 5530" d="M9.994,14.886A24.441,24.441,0,0,1,16.03,10.86c1.711-.787,4.546-1.358,5.516.826a8.24,8.24,0,0,1,.485,3.32,12.74,12.74,0,0,1-.535,3.518,7.426,7.426,0,0,1-1.4,2.917,1.172,1.172,0,0,1-1,.485c-.209-.035-.465-.159-.465-.384a1.056,1.056,0,0,0-2.11,0,2.491,2.491,0,0,0,1.792,2.347,3.094,3.094,0,0,0,3.056-.745,7.634,7.634,0,0,0,1.807-3.029,14.925,14.925,0,0,0,.865-3.665c.256-2.234.2-5.244-1.474-6.962-1.745-1.792-4.5-1.7-6.671-.853a25.2,25.2,0,0,0-7.4,4.759c-1.012.911.485,2.4,1.493,1.493" transform="translate(-8725.498 1067.223)" fill="#693418"/>
      <path id="패스_5531" data-name="패스 5531" d="M10.527,14.863A24.049,24.049,0,0,1,14.3,12.148a10.944,10.944,0,0,1,2.048-.9c.357-.109,1.264-.469,1.524-.221.334.318.233,1.156.213,1.559a7.988,7.988,0,0,1-.365,1.9,8.653,8.653,0,0,1-1.87,3.227,8.514,8.514,0,0,1-1.606,1.377,8.858,8.858,0,0,1-.974.551c-.132.062-.26.12-.4.175-.081.031-.171.05-.248.089-.473.229.128-.368.213.609A1.146,1.146,0,0,0,11.725,19.4a1.124,1.124,0,0,0-1.113,1.117,1.88,1.88,0,0,0,2.707,1.5,9.373,9.373,0,0,0,2.447-1.276,10.954,10.954,0,0,0,3.561-4.278,9.263,9.263,0,0,0,.888-5.484,2.7,2.7,0,0,0-1.8-2.153,5.592,5.592,0,0,0-3.278.481,21.715,21.715,0,0,0-6.187,3.976,1.118,1.118,0,0,0,0,1.575,1.136,1.136,0,0,0,1.575,0" transform="translate(-8724.165 1069.189)" fill="#693418"/>
      <path id="패스_5532" data-name="패스 5532" d="M9.182,13.88a3.536,3.536,0,0,0,1.482,3.627,3.281,3.281,0,0,0,3.7-.089,3.472,3.472,0,0,0,1.377-1.908,1.116,1.116,0,0,0-2.153-.593,1.717,1.717,0,0,0-.07.229c.023-.054.047-.1.066-.159a.927.927,0,0,1-.05.109c-.027.05-.058.1-.089.155-.019.031-.171.248-.047.078s-.039.035-.07.066-.085.085-.128.124l-.089.078.128-.1a1.6,1.6,0,0,0-.2.132c-.05.031-.1.058-.155.085-.124.062-.182.023.047-.016-.128.019-.268.081-.4.116-.194.047.279-.019.062-.008-.058,0-.116.008-.175.008a.8.8,0,0,1-.237-.012l.178.023-.116-.027a1.451,1.451,0,0,1-.175-.047l-.109-.043c.163.074.206.089.128.054-.112-.062-.217-.132-.33-.2.268.155.112.089.043.023a1.693,1.693,0,0,1-.167-.167c-.062-.062-.159-.225.019.043-.031-.05-.07-.1-.1-.147a1.65,1.65,0,0,1-.1-.178c-.047-.085-.1-.295,0,.023a3.488,3.488,0,0,1-.109-.341l-.023-.116c-.019-.116-.016-.078.016.124,0-.058-.012-.12-.012-.178l0-.178c.008-.194-.058.3,0,0a1.115,1.115,0,1,0-2.149-.593" transform="translate(-8722.781 1081.687)" fill="#fff"/>
      <path id="패스_5533" data-name="패스 5533" d="M11.342,14.184a1.7,1.7,0,1,1-1.625-1.776,1.7,1.7,0,0,1,1.625,1.776" transform="translate(-8726.147 1079.767)" fill="#fff"/>
      <path id="패스_5534" data-name="패스 5534" d="M14.77,14.34a1.7,1.7,0,1,1-1.625-1.776A1.7,1.7,0,0,1,14.77,14.34" transform="translate(-8716.279 1080.216)" fill="#fff"/>
      <path id="패스_5535" data-name="패스 5535" d="M8.242,13.975c.939.636,2.071.915,2.983,1.6L11,15.4l.043.031a1.229,1.229,0,0,0,.787.326,1.146,1.146,0,0,0,.787-.326,1.122,1.122,0,0,0,.326-.791,1.069,1.069,0,0,0-.326-.787,6.836,6.836,0,0,0-.911-.617c-.256-.14-.52-.264-.787-.384a10.27,10.27,0,0,1-1.548-.8,1.122,1.122,0,0,0-.857-.112,1.114,1.114,0,0,0-.268,2.036" transform="translate(-8726.837 1078.312)" fill="#fff"/>
      <path id="패스_5536" data-name="패스 5536" d="M14.608,12.156a4.062,4.062,0,0,1-.45.407c.074-.058.147-.116.225-.175-.857.659-1.893,1.028-2.758,1.672a1.238,1.238,0,0,0-.512.667,1.115,1.115,0,0,0,.78,1.373,1.085,1.085,0,0,0,.857-.112c1.105-.826,2.463-1.241,3.433-2.257a1.114,1.114,0,0,0-1.575-1.575" transform="translate(-8717.114 1078.125)" fill="#fff"/>
      <path id="패스_5537" data-name="패스 5537" d="M18.263,22.914c.787-.675,1.575-1.354,2.362-2.029a1.113,1.113,0,0,0,.326-.787,1.112,1.112,0,0,0-1.113-1.117,1.246,1.246,0,0,0-.787.326c-.787.679-1.575,1.354-2.362,2.032a1.11,1.11,0,0,0-.33.787,1.14,1.14,0,0,0,.33.787,1.106,1.106,0,0,0,.787.326,1.226,1.226,0,0,0,.787-.326" transform="translate(-8701.907 1098.695)" fill="#1d1110"/>
      <path id="패스_5538" data-name="패스 5538" d="M18.311,23.143c1.016-.163,1.932-.675,2.944-.853a1.133,1.133,0,0,0,.667-.512,1.112,1.112,0,0,0-.4-1.524,1.27,1.27,0,0,0-.861-.112c-1.008.178-1.928.69-2.944.853a1.107,1.107,0,0,0-.776,1.369,1.108,1.108,0,0,0,.512.667c.085.039.175.074.264.112a1.1,1.1,0,0,0,.593,0" transform="translate(-8700.353 1101.954)" fill="#1d1110"/>
      <path id="패스_5539" data-name="패스 5539" d="M18.57,23.607h2.471a1.154,1.154,0,0,0,.787-.326,1.119,1.119,0,0,0,0-1.579,1.164,1.164,0,0,0-.787-.326H18.57a1.146,1.146,0,0,0-.787.326,1.119,1.119,0,0,0,0,1.579,1.164,1.164,0,0,0,.787.326" transform="translate(-8698.75 1105.593)" fill="#1d1110"/>
      <path id="패스_5540" data-name="패스 5540" d="M20.245,21.3c.07-1,1.245-1.369,2.06-1.567a3.663,3.663,0,0,1,2.874.481,2.373,2.373,0,0,1,1.381,2.153,2.866,2.866,0,0,1-1.835,2.052,1.124,1.124,0,0,0,.562,2.079c.524-.043,2.149-.3,2.343.477.132.531-.981.737-1.327.83a1.127,1.127,0,0,0-.264,2.036,3.054,3.054,0,0,1,1.885,2.63c-.043.888-.853,1.835-1.8,1.319-1.261-.69-2.385,1.237-1.125,1.924A3.488,3.488,0,0,0,30.007,33.5c.636-2.343-.857-4.484-2.843-5.578L26.9,29.954c1.551-.415,3.347-1.451,2.936-3.355-.458-2.118-2.731-2.478-4.546-2.331l.562,2.075a4.892,4.892,0,0,0,2.936-3.925A4.616,4.616,0,0,0,26.3,18.291c-2.785-1.7-8.021-.884-8.289,3.01-.1,1.431,2.133,1.427,2.23,0" transform="translate(-8697.151 1094.285)" fill="#1d1110"/>
    </g>
  </g>
</svg>
