<svg xmlns="http://www.w3.org/2000/svg" width="110" height="120" viewBox="0 0 110 120">
  <g id="그룹_1807" data-name="그룹 1807" transform="translate(-262 -1178)">
    <g id="사각형_2206" data-name="사각형 2206" transform="translate(262 1178)" fill="#ef8026" stroke="#000" stroke-width="2">
      <rect width="110" height="120" stroke="none"/>
      <rect x="1" y="1" width="108" height="118" fill="none"/>
    </g>
    <line id="선_191" data-name="선 191" x1="98" y2="107" transform="translate(268.5 1184.5)" fill="none" stroke="#000" stroke-linecap="round" stroke-width="2"/>
    <g id="그룹_1605" data-name="그룹 1605" transform="translate(9182.634 -21.743)">
      <path id="패스_5492" data-name="패스 5492" d="M30.879,71.326s-12.4,6.268-14.805.272-.7-9.41-.7-9.41,2.106-.465,1.21-2.207a6.884,6.884,0,0,0-1.117-1.862s-.306-3.495-2.75-2.766-.415,3.623-.415,3.623S10.64,56,8.549,57.657c-2,1.579.911,3.716.911,3.716s-2.447-.116-2.727,1.889-3.2.539-3.2.539S10.7,81.038,18.871,80.573,31.763,76.81,31.763,76.81Z" transform="translate(-8897.452 1186.112)" fill="#96c08d" fill-rule="evenodd"/>
      <path id="패스_5493" data-name="패스 5493" d="M36.4,52.352a11.18,11.18,0,0,1,2.052.283,29.345,29.345,0,0,0,3.359,1.078,24.391,24.391,0,0,1,3.347,1.4c1.4.624,2.281,1.385,2.126,2.444a2.954,2.954,0,0,0-.939,1.9,22.536,22.536,0,0,1,2.847,1.156,19.722,19.722,0,0,1,2.9,1.187,13.064,13.064,0,0,1,2.172,2.257,11.831,11.831,0,0,1,1.548,2.669,12.735,12.735,0,0,1,.884,2.913,15.693,15.693,0,0,1,.539,3.018,20.962,20.962,0,0,1,.124,3.1,29.943,29.943,0,0,1-.838,2.99c-.233.974-.392,2.009-.721,3-.314.954-.562,1.974-.95,2.94-.376.939-1.311,1.66-1.745,2.6-.431.923-.605,1.986-1.078,2.9-.516.877-.927,1.815-1.439,2.692s-1.3,1.594-1.815,2.471-.621,1.986-1.121,2.87-1.292,1.606-1.776,2.5-1.144,1.695-1.61,2.595-.981,1.792-1.423,2.7-.675,1.932-1.086,2.859-.477,2-.849,2.944-.784,1.862-1.113,2.82-.822,1.862-1.105,2.839-.462,1.967-.69,2.959-.3,1.994-.477,3-.271,2.11-.384,3.126c-.644.535-2.079.52-3.4.776a20.687,20.687,0,0,1-3.219.465,31.177,31.177,0,0,1-3.3.337c-1.074-.066-2.149-.528-3.243-.69s-2.16-.434-3.212-.694a26.061,26.061,0,0,1-3.072-1.129,18.935,18.935,0,0,1-3.126-1.032,7.186,7.186,0,0,1-2.1-2.444,3.619,3.619,0,0,1-.745-2.94,26.76,26.76,0,0,0,1.02-3.064,27.263,27.263,0,0,0,.287-3.219c.144-1.071.706-2.106.741-3.177s-.431-2.145-.489-3.219.213-2.168.089-3.243c-.124-1.059-.213-2.141-.384-3.208s-.477-2.1-.679-3.161c-.2-1.047-.846-2.017-1.059-3.068s.213-2.23.008-3.285-.687-2.052-.865-3.111-.175-2.137-.318-3.2-.7-2.083-.783-3.153-.1-2.153-.112-3.227c-.027-1.09-.24-2.149-.24-3.173,0-1.094.578-2.141.624-3.157.05-1.1-.229-2.18-.109-3.177a26.315,26.315,0,0,1,.6-3.118,15.539,15.539,0,0,1,1.416-2.816c.454-.993.485-2.207,1.16-2.983a9.864,9.864,0,0,1,2.692-1.7,11.177,11.177,0,0,1,2.839-1.346,17.77,17.77,0,0,1,3.126-.392,24.3,24.3,0,0,1,3.13-.229c.136-.237.551-.1.679-.469a5.063,5.063,0,0,1-.776-2.653,12.39,12.39,0,0,1,3.161-.2c.919-.047,1.947-.295,2.975-.287s2.063.458,2.983.473a13.938,13.938,0,0,0,2.963-.3" transform="translate(-8881.913 1177.268)" fill="#96c08d" fill-rule="evenodd"/>
      <path id="패스_5494" data-name="패스 5494" d="M22.945,118.523c.112-1.02.438-1.947.609-2.944s.062-2.071.291-3.06,1.055-1.827,1.338-2.8.415-1.99.749-2.948.345-2.04.721-2.987,1.074-1.757,1.486-2.684.516-2,.958-2.917,1-1.776,1.47-2.676,1.16-1.683,1.645-2.575,1.032-1.745,1.532-2.634.915-1.807,1.427-2.692,1.183-1.656,1.7-2.533.946-1.807,1.462-2.688c.465-.9,1.063-1.73,1.489-2.638s.838-1.85,1.214-2.769c.388-.946.768-1.9,1.086-2.828.33-.97.256-2.052.5-3.006a27.036,27.036,0,0,0,.465-2.959,20.3,20.3,0,0,0,.112-2.975,15.588,15.588,0,0,0-.252-2.94,13.043,13.043,0,0,0-.749-2.866,12.889,12.889,0,0,0-1.214-2.8c-.59-.752-1.5-1.039-2.312-1.707a5.693,5.693,0,0,1-.151,2.661,18.106,18.106,0,0,1-.76,2.862c-.334.9-.966,1.707-1.4,2.61s-.919,1.757-1.408,2.587c-.431.733-.555,1.835-1.1,2.859-.434.815-.931,1.683-1.416,2.645-.431.857-1.253,1.579-1.714,2.529-.427.873-.822,1.807-1.268,2.75-.423.892-.45,1.994-.884,2.936-.419.9-1.319,1.594-1.742,2.529-.415.911-.745,1.873-1.16,2.8s-.617,1.959-1.02,2.886c-.411.943-.6,1.978-1,2.909s-1.086,1.753-1.466,2.684c-.4.95-.671,1.939-1.043,2.859-.388.974-.566,1.994-.919,2.913-.38.985-1.195,1.769-1.524,2.676-.365,1.012-.508,2.036-.8,2.928-.349,1.063-.846,1.978-1.071,2.828-.291,1.082-.031,2.288-.3,3.324-.291,1.094-1.074,2.025-1.342,3.045-.3,1.113-.144,2.281-.407,3.274-.3,1.148-.815,2.126-1.067,3.068a30.969,30.969,0,0,0,3.223.144,18.79,18.79,0,0,0,3.165-.632,6.552,6.552,0,0,0,2.855-1.047" transform="translate(-8868.192 1185.075)" fill="#7eac74"/>
      <path id="패스_5495" data-name="패스 5495" d="M11.42,61.431c-.683-1.757.167-1.831,1.032-3.572A4.932,4.932,0,0,1,15,55.291a16.368,16.368,0,0,1,2.831-.69c.927-.178,1.877-.6,2.851-.718,1.032-.128,2.071.089,2.952.016,1.691-.136,1.54.186,2.9-.345,1.249-.485.869-.861,2.118-1.648a13.12,13.12,0,0,1,2.51-1,3.922,3.922,0,0,1,2.544-.295,5.175,5.175,0,0,1,2.075,1.513,15.451,15.451,0,0,1,1.8,1.978c.8,1.237.1,1.6,1.09,2.486,1.121,1.008,1.365.272,2.882,1.071a25.251,25.251,0,0,1,2.517,1.66,12.27,12.27,0,0,1,2.362,1.893,4.278,4.278,0,0,1,1.175,2.8c-.14,3.029.9,3.142-.923,4.48-1.2.888-1.175-.058-3.06-.19-.846-.062-1.827-.38-2.956-.489-.915-.085-1.912-.186-2.983-.31-.939-.109-1.932-.221-2.971-.365-.954-.132-1.97-.093-2.99-.26-.962-.155-1.912-.524-2.917-.71-.962-.178-1.974-.186-2.963-.4-.966-.206-1.924-.516-2.909-.752-.966-.237-1.955-.419-2.928-.69s-1.947-.5-2.905-.8-1.866-.752-2.812-1.09-1.935-.621-2.859-1" transform="translate(-8875.476 1172.432)" fill="#96c08d" fill-rule="evenodd"/>
      <path id="패스_5496" data-name="패스 5496" d="M15.6,59.487a1.611,1.611,0,1,1-1.672-1.548A1.612,1.612,0,0,1,15.6,59.487" transform="translate(-8872.011 1193.84)" fill="#1a1311"/>
      <path id="패스_5497" data-name="패스 5497" d="M18.6,60.2a1.611,1.611,0,1,1-1.672-1.548A1.612,1.612,0,0,1,18.6,60.2" transform="translate(-8863.366 1195.895)" fill="#1a1311"/>
      <path id="패스_5498" data-name="패스 5498" d="M16.782,53.314C11.55,55.808,9.56,62.1,8.827,67.436c-1.051,7.637,1.893,13.886,3.6,21.193A67.926,67.926,0,0,1,14.188,103.7a68.458,68.458,0,0,1-.4,7.719c-.217,2.013-1.036,4.461-.869,6.5.256,3.1,4.48,4.3,6.916,5.248a39.354,39.354,0,0,0,13.758,2.595,1,1,0,0,0,0-1.99,37.735,37.735,0,0,1-12.055-2.083,35.17,35.17,0,0,1-3.8-1.614c-1.617-.8-1.621-.667-2.094-2.723-.485-2.1-.093-3.855.136-5.938A70.013,70.013,0,0,0,14.49,88.73c-1.427-6.384-4.395-12.3-3.917-18.971.384-5.31,1.951-12.222,7.211-14.727,1.16-.551.147-2.265-1-1.718" transform="translate(-8882.862 1180.224)" fill="#1a1311"/>
      <path id="패스_5499" data-name="패스 5499" d="M17.59,54.14a4.062,4.062,0,0,1,.365-.547c-.054.062-.1.132-.155.2a4.649,4.649,0,0,1,.8-.807c-.066.054-.136.1-.2.151a4.964,4.964,0,0,1,.683-.434c-.5-.287-1-.57-1.5-.861a1.634,1.634,0,0,1-.016.2l.035-.268a2.073,2.073,0,0,1-.132.5c.031-.078.066-.159.1-.233a1.972,1.972,0,0,1-.26.446c.05-.07.1-.132.155-.2a2.314,2.314,0,0,1-.365.365c.066-.05.132-.1.2-.151a2.2,2.2,0,0,1-.4.237.994.994,0,0,0-.493.857,1.149,1.149,0,0,0,.714,1.059,1.107,1.107,0,0,0,.613.081.815.815,0,0,0,.407-.12,1.279,1.279,0,0,0,.248-.19.991.991,0,0,0-.7-1.695,1.084,1.084,0,0,0-.706.287l-.016.012c.07-.05.136-.1.2-.151l-.031.019c.078-.039.155-.066.237-.1l-.039.008.268-.031h-.039l.264.031-.058-.012a2.114,2.114,0,0,1,.24.1l-.035-.023.2.155-.043-.043c.05.074.1.14.155.2l-.016-.027.1.233-.008-.039.035.264V53.6c-.163.283-.326.574-.493.861a2.921,2.921,0,0,0,1.2-1.067,3.176,3.176,0,0,0,.341-.725,2.939,2.939,0,0,0,.132-.822,1,1,0,0,0-.493-.857,1.019,1.019,0,0,0-1,0,5.523,5.523,0,0,0-2.207,2.149,1.051,1.051,0,0,0-.1.772,1.032,1.032,0,0,0,.458.593,1,1,0,0,0,1.361-.361" transform="translate(-8862.333 1173.448)" fill="#1a1311"/>
      <path id="패스_5500" data-name="패스 5500" d="M19.1,53.624c-.058-.24-.12-.481-.178-.721a6.718,6.718,0,0,1-.155-.671l.035.264a.757.757,0,0,1,0-.163l-.035.268.019-.078c-.031.081-.066.159-.1.24l.039-.07c-.054.066-.1.136-.155.2l.05-.05c-.066.05-.136.1-.2.155l.062-.035-.24.1.066-.019-.264.035h.1l-.268-.035a.608.608,0,0,1,.12.031c-.081-.031-.159-.066-.24-.1a.365.365,0,0,1,.085.047c-.066-.05-.132-.1-.2-.155a.529.529,0,0,1,.093.093c-.054-.066-.1-.136-.155-.2a.938.938,0,0,1,.081.151l-.1-.24a3.49,3.49,0,0,1,.151.624c.043.233.1.465.136.7l-.035-.264a.936.936,0,0,1,0,.147l.035-.264-.016.081.1-.237a.216.216,0,0,1-.035.066l.155-.2-.027.027c.066-.054.132-.1.2-.155l-.035.019c.081-.035.159-.07.24-.1l-.058.016.268-.035-.058,0,.264.035-.05-.016c.078.035.159.07.237.1l-.027-.016c.066.05.136.1.2.155l-.012-.012c.05.066.1.132.155.2l-.019-.031.1.237,0-.016a1.032,1.032,0,0,0-.458-.593,1,1,0,0,0-.768-.1,1,1,0,0,0-.694,1.222,1.189,1.189,0,0,0,.512.667,1.174,1.174,0,0,0,.884.116,1.187,1.187,0,0,0,.865-.908,1.862,1.862,0,0,0-.012-.718c-.019-.112-.047-.221-.066-.334-.043-.2-.081-.407-.12-.609a2.045,2.045,0,0,0-.26-.7,1.593,1.593,0,0,0-.465-.473,1.208,1.208,0,0,0-.2-.1,1.6,1.6,0,0,0-.213-.081,1.271,1.271,0,0,0-1.575.939,1.659,1.659,0,0,0,0,.718c.039.225.1.446.159.663l.171.7a1.025,1.025,0,0,0,.458.6,1.039,1.039,0,0,0,.768.1,1.02,1.02,0,0,0,.593-.458,1.058,1.058,0,0,0,.1-.768" transform="translate(-8859.262 1174.142)" fill="#1a1311"/>
      <path id="패스_5501" data-name="패스 5501" d="M13.032,61.4a4.851,4.851,0,0,1,3.386-4.588c2.094-.811,4.3-.559,6.485-.791a13.924,13.924,0,0,0,5.166-1.8c1.695-.911,3.39-1.947,5.376-1.955a1,1,0,0,0,0-1.99,12.621,12.621,0,0,0-5.942,1.99A18.03,18.03,0,0,1,24.455,53.7a14.278,14.278,0,0,1-3.976.454A11.808,11.808,0,0,0,13.943,55.9a6.459,6.459,0,0,0-2.9,5.508c.054,1.276,2.044,1.284,1.99,0" transform="translate(-8875.865 1171.793)" fill="#1a1311"/>
      <path id="패스_5502" data-name="패스 5502" d="M15.812,51.38a3.888,3.888,0,0,0-3.227,1.226,2.182,2.182,0,0,0-.035,2.641,4.579,4.579,0,0,0,2.657,1.392q2.449.657,4.938,1.148a83.3,83.3,0,0,0,19.428,1.54c1.276-.05,1.284-2.04,0-1.99a82.043,82.043,0,0,1-13.661-.6c-2.257-.291-4.5-.69-6.726-1.179-1.156-.252-2.308-.528-3.448-.834a4.7,4.7,0,0,1-1.175-.368c-.981-.706.776-.97,1.249-.985,1.276-.043,1.284-2.032,0-1.99" transform="translate(-8872.742 1174.962)" fill="#1a1311"/>
      <path id="패스_5503" data-name="패스 5503" d="M11.363,53.451c-1.109,2.215.939,3.53,2.816,4.092A85.7,85.7,0,0,0,23.9,59.827,91.846,91.846,0,0,0,43.2,61.154c1.28-.047,1.284-2.036,0-1.99a89.32,89.32,0,0,1-15.569-.752q-3.788-.524-7.521-1.377c-.787-.178-7.509-1.614-7.024-2.579.574-1.14-1.144-2.149-1.718-1" transform="translate(-8875.829 1179.474)" fill="#1a1311"/>
      <path id="패스_5504" data-name="패스 5504" d="M19.042,59.121a4.645,4.645,0,0,1,1.924-1.342,3.258,3.258,0,0,1,2.246-.151c.229.1.512.349.458.628s-.45.578-.644.76a25.937,25.937,0,0,1-2.114,1.61c-1.358,1.032-2.8,2.541-2.676,4.395.124,1.722,1.583,3.429,3.437,3.053a1.708,1.708,0,0,0,1.218-2.486A1.849,1.849,0,0,0,20,65.245a1,1,0,0,0,1.408,1.408c-.058.05-.163.016-.237-.07-.147-.171.1-.372.062-.442a2.63,2.63,0,0,1-.438-.132,1.43,1.43,0,0,1-.574-1.276c.116-1.33,1.489-2.261,2.478-2.963,1.179-.842,2.948-1.947,2.956-3.592.008-1.8-1.831-2.738-3.421-2.661a6.639,6.639,0,0,0-4.6,2.2c-.849.954.551,2.366,1.408,1.408" transform="translate(-8857.634 1186.86)" fill="#1a1311"/>
      <path id="패스_5505" data-name="패스 5505" d="M18.59,56.713c-1.1-1.253-2.467-2.49-4.259-2.277a2.825,2.825,0,0,0-2.409,3.724c.438,1.617,1.893,3.041,1.726,4.81a1.717,1.717,0,0,1-1.016,1.474,7.191,7.191,0,0,1-.865.233c.058.023.027.019-.089-.019q.239.064.256.407c-.027.407-.621.543-.578.093.047-.167.089-.334.136-.5l-.062.085.357-.357-.1.05c.171-.047.337-.093.5-.136h-.1c.167.047.334.089.5.136l-.081-.058a.994.994,0,0,0-1,1.718,1.191,1.191,0,0,0,1.482-.147,1.329,1.329,0,0,0,.186-1.567,1.8,1.8,0,0,0-2.517-.644,1.57,1.57,0,0,0-.039,2.587,2.653,2.653,0,0,0,2.416.093,3.891,3.891,0,0,0,2.552-4.36,8.608,8.608,0,0,0-1-2.793c-.33-.636-.946-1.5-.811-2.261.1-.578.78-.679,1.261-.574a4.481,4.481,0,0,1,2.141,1.691c.846.966,2.25-.446,1.408-1.408" transform="translate(-8878.961 1183.69)" fill="#1a1311"/>
      <path id="패스_5506" data-name="패스 5506" d="M11.471,53.921a6.213,6.213,0,0,0-2.273.946c-.745.508-1.486,1.513-.593,2.288a2.132,2.132,0,0,0,2.141.085,2.8,2.8,0,0,0,1.528-1.676.871.871,0,0,0-.4-.974c-1.1-.636-2.909-.252-3.231,1.133a1.212,1.212,0,0,0,1.105,1.548c.741,0,1.334-.694,1.862-1.133.632-.524,1.16-.95,1.024-1.854-.109-.749-.24-1.489-.314-2.242a30.055,30.055,0,0,1-.074-4.872l-1.3.745c.64.279,1.28.555,1.92.834a4.126,4.126,0,0,1,1.447.826,1.962,1.962,0,0,1-.116,2.409.867.867,0,0,0,.31,1.179.877.877,0,0,0,1.179-.306,3.735,3.735,0,0,0,.24-4,3.883,3.883,0,0,0-1.691-1.373c-.8-.372-1.614-.706-2.42-1.055a.876.876,0,0,0-1.3.745,29.433,29.433,0,0,0,.085,4.961c.039.4.093.811.147,1.214.008.074.229,1.233.2,1.249.112-.217.1-.256-.027-.116l-.136.112c-.175.147-.353.291-.528.438l-.4.33c-.089.074-.178.147-.264.221.081-.031.054-.031-.078,0h.458l.008,0,.31.31a.378.378,0,0,1,0,.291c-.008-.043.019-.07.081-.089a.655.655,0,0,0,.14-.066.55.55,0,0,1,.485.054c-.132-.326-.264-.648-.4-.974-.124.345-.78.83-1.047.624l.31.31c-.019-.035-.043-.07-.062-.109l.12.434c-.081.151-.081.178,0,.081.085-.062.175-.124.268-.182a4.385,4.385,0,0,1,.559-.314,4.983,4.983,0,0,1,1.167-.368c1.086-.221.628-1.885-.458-1.664" transform="translate(-8884.041 1160.436)" fill="#1a1311"/>
      <path id="패스_5507" data-name="패스 5507" d="M7,62.616a2.176,2.176,0,0,0-3.146.167.876.876,0,0,0,.175,1.354,3.646,3.646,0,0,0,3.619-.225.877.877,0,0,0-.206-1.579,3.35,3.35,0,0,0-3.165.431.875.875,0,0,0,0,1.489,2.773,2.773,0,0,0,3.735-.919.874.874,0,0,0-.745-1.3c-1.071-.085-2.731.039-3.413,1a6.612,6.612,0,0,0-.679,1.73q-.337,1.012-.663,2.025-1.3,4-2.475,8.037A.874.874,0,0,0,1.3,75.8a24.822,24.822,0,0,0,5.135-4.053C7.655,70.49,9.672,68.2,7.8,66.561c-.834-.729-2.056.489-1.222,1.222.539.469.016,1.183-.33,1.606a19.254,19.254,0,0,1-1.769,1.877A22.975,22.975,0,0,1,.429,74.315l1.268.974q1.012-3.468,2.11-6.912.541-1.693,1.1-3.378c.147-.434.147-.9.6-1.059a4.256,4.256,0,0,1,1.753-.178c-.248-.434-.5-.865-.745-1.3a1.011,1.011,0,0,1-1.377.3v1.489A1.779,1.779,0,0,1,6.98,64c-.07-.524-.14-1.051-.206-1.575a1.9,1.9,0,0,1-1.877.225L5.072,64c.167-.217.458-.388.706-.167.818.745,2.04-.469,1.218-1.218" transform="translate(-8907.635 1205.569)" fill="#1a1311"/>
      <path id="패스_5508" data-name="패스 5508" d="M2.554,57.3a5.706,5.706,0,0,0-1.893.83c-.473.318-.648,1.218,0,1.493A2.8,2.8,0,0,0,4.493,57.9a.871.871,0,0,0-.834-1.09,3.325,3.325,0,0,0-2.568,1.14A.87.87,0,0,0,1.7,59.418,2.486,2.486,0,0,0,3.919,58.1a7.27,7.27,0,0,0,.636-2.839q.39-3.334.78-6.664c-.431.252-.865.5-1.3.745.815.372,1.614.776,2.393,1.218.24.132.477.275.714.419.1.066.3.287.244.1a4.147,4.147,0,0,1-.074,1.214l-.372,5.667c.489-.206.981-.4,1.47-.609-.167-.136-.337-.264-.5-.392a.89.89,0,0,0-1.222,0c-.714.652-1.555,2.18-.7,3.037a1.31,1.31,0,0,0,1.369.248c.586-.206.718-.7,1.094-1.121a.871.871,0,0,0-.838-1.443c-.989.186-2.634,1.179-1.835,2.378a1.149,1.149,0,0,0,1.513.318,1.5,1.5,0,0,0,.566-.535c.1-.171.147-.528.295-.655a.869.869,0,0,0-.838-1.443c-.2.062-.392.124-.586.194-1.051.341-.6,2.009.458,1.656l.586-.186c-.279-.481-.559-.962-.842-1.443a1.555,1.555,0,0,0-.423.628,1.069,1.069,0,0,0-.116.322c0,.163.047-.124.213-.109l.434.116-.081-.047c.1.109.206.209.306.314l.008,0v.454c.035-.116.64-.268.8-.295-.279-.481-.559-.962-.842-1.439a3.436,3.436,0,0,0-.4.543c-.225.376-.035.031.206.194l.306.3c.027.159.05.144.074-.054a.705.705,0,0,1,.1-.248,1.555,1.555,0,0,1,.388-.465H6.688c.171.132.337.264.508.392a.874.874,0,0,0,1.47-.609c.144-2.172.3-4.352.431-6.524a1.938,1.938,0,0,0-.268-1.276,3.133,3.133,0,0,0-1.078-.826,29.87,29.87,0,0,0-2.843-1.474.873.873,0,0,0-1.3.741q-.314,2.688-.628,5.372c-.1.811-.151,1.629-.3,2.428-.1.535-.306,1.327-.981,1.3.2.493.4.981.609,1.478a1.654,1.654,0,0,1,1.346-.636c-.275-.365-.551-.729-.83-1.09a1.057,1.057,0,0,1-1.3.69v1.493a4.239,4.239,0,0,1,1.482-.659c1.078-.26.621-1.928-.458-1.664" transform="translate(-8906.951 1164.516)" fill="#1a1311"/>
      <path id="패스_5509" data-name="패스 5509" d="M39.133,66.772s-8.607,10.911-13.312,6.489-4.6-8.238-4.6-8.238,2.537-3.813.993-5.011-2.622,1.28-2.622,1.28-1.753-3.041-3.661-1.346,1.152,3.46,1.152,3.46-4.073-2.277-3.96.384a2.954,2.954,0,0,0,2.393,2.987s-2.269.927-1.676,2.862,3.929,1.187,3.929,1.187,7.16,13.257,14.371,9.394,10.108-8.843,10.108-8.843Z" transform="translate(-8869.867 1198.14)" fill="#96c08d" fill-rule="evenodd"/>
      <path id="패스_5510" data-name="패스 5510" d="M36.062,63.454c.64-.326,1.036.636,1.024,1.1a4.451,4.451,0,0,1-.811,2.052,14.543,14.543,0,0,1-2.339,2.839c-1.78,1.711-4.115,3.642-6.691,3.739-5.376.209-8.684-4.941-11.171-8.937-.675-1.082-2.4-.085-1.718,1,1.873,3.006,3.852,6.136,6.881,8.11a9.542,9.542,0,0,0,9.371.958,18.371,18.371,0,0,0,7.575-7.032c.768-1.346,1.323-3.1.423-4.526a2.7,2.7,0,0,0-3.549-1.024c-1.14.582-.136,2.3,1,1.718" transform="translate(-8866.757 1203.91)" fill="#1a1311"/>
      <path id="패스_5511" data-name="패스 5511" d="M20.088,60.72a5.044,5.044,0,0,0-2.149-1.334,2.542,2.542,0,0,0-2.292.547,2.226,2.226,0,0,0-.462,2.475,4.247,4.247,0,0,0,1.827,1.885c.167-.617.334-1.237.5-1.854a15.034,15.034,0,0,0-2.428-.485,2.2,2.2,0,0,0-2.067,1.536,2.588,2.588,0,0,0,.621,2.362A5.047,5.047,0,0,0,15.919,67.1c.085-.652.175-1.3.264-1.955a2.666,2.666,0,0,0-2.494,3.184c.279,1.676,1.749,2.645,3.235,3.173a1,1,0,0,0,.531-1.92,2.716,2.716,0,0,1-1.738-1.33c-.175-.419-.078-1.105.465-1.117a1,1,0,0,0,.264-1.955c-.427-.14-1.815-.555-1.482-1.222-.07.14.012,0,.12-.012a1.64,1.64,0,0,1,.644.07,11.785,11.785,0,0,0,1.784.415c1.051.1,1.264-1.361.5-1.854-.248-.163-1.389-.9-.962-1.218.454-.345,1.284.465,1.625.772.95.853,2.362-.547,1.408-1.408" transform="translate(-8870.391 1197.804)" fill="#1a1311"/>
      <path id="패스_5512" data-name="패스 5512" d="M16.118,52.889q-4.6-.623-9.247-.849a1.312,1.312,0,0,0-.935.186,1.333,1.333,0,0,0-.365.78A173.875,173.875,0,0,0,2.453,71.631a2.19,2.19,0,0,0,.109,1.276,2.185,2.185,0,0,0,1.447.892,42.632,42.632,0,0,0,9.53,1.555,2.819,2.819,0,0,0,1.183-.116c.857-.341,1.187-1.361,1.4-2.257A111.365,111.365,0,0,0,18.736,56.4a4.366,4.366,0,0,0-.213-2.207c-.322-.679-.679-1-2.4-1.307" transform="translate(-8900.695 1176.836)" fill="#ecc664"/>
      <path id="패스_5513" data-name="패스 5513" d="M11.674,53.236a52.7,52.7,0,0,0-5.415-.442.708.708,0,0,0-.551.147,1.066,1.066,0,0,0-.229.559Q4.107,60.039,3.327,66.7a1.828,1.828,0,0,0,.043.9A1.2,1.2,0,0,0,4.2,68.2a20.606,20.606,0,0,0,5.57.935,1.4,1.4,0,0,0,.7-.1c.508-.252.718-.977.857-1.614a96.11,96.11,0,0,0,1.823-11.745,3.591,3.591,0,0,0-.089-1.555c-.175-.469.128-.621-1.389-.877" transform="translate(-8898.156 1179.029)" fill="#ecc664"/>
      <path id="패스_5514" data-name="패스 5514" d="M12.4,53.007c-.95-.124-1.9-.229-2.859-.306a13.522,13.522,0,0,0-2.878-.116,1.585,1.585,0,0,0-1.346,1.187,28.688,28.688,0,0,0-.578,2.859q-.553,2.9-.989,5.81c-.132.873-.252,1.749-.368,2.626A19.437,19.437,0,0,0,3.044,67.9c.035,1.8,1.947,2.126,3.355,2.436a22.822,22.822,0,0,0,2.61.407,5.043,5.043,0,0,0,2.556-.085c1.389-.652,1.513-2.626,1.776-3.929q.57-2.839.966-5.706.209-1.524.38-3.053a11.01,11.01,0,0,0,.144-2.874,3.37,3.37,0,0,0-.376-1.222,2.525,2.525,0,0,0-1.8-.83c-1.218-.217-1.742,1.645-.512,1.866a3.373,3.373,0,0,0,.787.167c.062-.027.043-.175-.132-.225-.058-.012,0,.054.023.171a3.214,3.214,0,0,1,.12.853,37.5,37.5,0,0,1-.434,4.111q-.285,2.2-.683,4.383a29.411,29.411,0,0,1-.842,4.065c-.206.605-.477.477-1.082.442a17.508,17.508,0,0,1-2.106-.24q-1.03-.18-2.036-.462c-.155-.047-.628-.1-.733-.229-.136-.167.008-.621.035-.826C5.4,64.2,5.844,61.292,6.371,58.4q.227-1.257.477-2.5c.07-.365.144-.729.221-1.1.035-.167.089-.341.112-.512-.039.31-.353.128.116.225a23.3,23.3,0,0,0,2.556.151q1.274.111,2.541.279a.978.978,0,0,0,.97-.97.991.991,0,0,0-.97-.97" transform="translate(-8898.877 1178.288)" fill="#1a1311"/>
      <path id="패스_5515" data-name="패스 5515" d="M11.076,57.212a2.7,2.7,0,0,0-3.212-.357,2.3,2.3,0,0,0-.427,3.712,2.976,2.976,0,0,0,2.277.834,3.554,3.554,0,0,0,1.435-.392,2.641,2.641,0,0,0,1.071-1.043,2.356,2.356,0,0,0,.19-1.858,2.63,2.63,0,0,0-.6-1.016,4.012,4.012,0,0,0-.617-.508A3.63,3.63,0,0,0,9.1,55.819a5,5,0,0,0-1.924.434,3.5,3.5,0,0,0-1.261.725,2.231,2.231,0,0,0-.31,2.727c.88,1.466,2.63,1.912,4.208,2.106a1.441,1.441,0,0,0,.745-.167,1.43,1.43,0,0,0,.624-.4,1.934,1.934,0,0,0,0-2.742c-.128-.1-.26-.2-.392-.306a1.925,1.925,0,0,0-.977-.264l-.124-.016.516.07A6.046,6.046,0,0,1,8.761,57.6l.465.2a2.833,2.833,0,0,1-.59-.33c.128.1.26.2.392.3a1.7,1.7,0,0,1-.291-.287c.1.132.206.26.306.392a1.76,1.76,0,0,1-.116-.178c.066.151.132.306.2.462a.387.387,0,0,1-.039-.112l.07.516,0-.058c-.019.175-.043.345-.066.516a.153.153,0,0,1,.023-.081c-.066.151-.132.306-.2.462l.023-.039-.3.4a.573.573,0,0,1,.1-.1l-.392.3a2.039,2.039,0,0,1,.275-.14c-.151.066-.306.132-.462.2a5.43,5.43,0,0,1,1.222-.376l-.516.07a1.638,1.638,0,0,1,.365-.008l-.516-.07a1.381,1.381,0,0,1,.33.089c-.155-.066-.31-.132-.462-.2a3.572,3.572,0,0,1,.659.4c-.132-.1-.26-.2-.392-.3a1.5,1.5,0,0,1,.252.244c-.1-.132-.2-.26-.3-.392a1.245,1.245,0,0,1,.074.12l-.194-.462a.829.829,0,0,1,.035.132c-.023-.171-.047-.341-.066-.516a.4.4,0,0,1,0,.1l.07-.516a.655.655,0,0,1-.035.132l.194-.462a.71.71,0,0,1-.07.116c.1-.128.2-.26.3-.392a1.09,1.09,0,0,1-.136.132c.128-.1.26-.2.392-.306a.944.944,0,0,1-.209.12c.155-.062.31-.128.462-.194a1.672,1.672,0,0,1-.361.1l.516-.07a1.778,1.778,0,0,1-.38,0l.516.07a1.6,1.6,0,0,1-.268-.07c.155.062.31.128.465.194a1.041,1.041,0,0,1-.24-.136c.132.1.264.2.392.3a1.084,1.084,0,0,1-.136-.132c.1.132.206.264.306.392a.647.647,0,0,1-.081-.128c.066.151.128.306.194.462a.4.4,0,0,1-.027-.1c.023.175.047.345.066.516a.405.405,0,0,1,0-.1l-.07.516a.335.335,0,0,1,.023-.089l-.194.462.047-.07c-.1.132-.2.26-.3.392a.309.309,0,0,1,.066-.058l-.4.3a1.218,1.218,0,0,1,.12-.07l-.465.2a1.318,1.318,0,0,1,.268-.078l-.516.07a1.2,1.2,0,0,1,.237,0l-.516-.07a.971.971,0,0,1,.175.047c-.155-.062-.31-.128-.465-.194a.317.317,0,0,1,.078.047c-.132-.1-.264-.206-.392-.306a.5.5,0,0,1,.066.062,2,2,0,0,0,1.369.57,1.974,1.974,0,0,0,1.373-.57,1.951,1.951,0,0,0,.566-1.369,2.029,2.029,0,0,0-.566-1.373" transform="translate(-8892.431 1187.741)" fill="#96c08d"/>
      <path id="패스_5516" data-name="패스 5516" d="M10.214,55.671a11.8,11.8,0,0,0-2.122.194,3.643,3.643,0,0,0-2.23.962,2.69,2.69,0,0,0-.283,3.262A5.864,5.864,0,0,0,7.821,61.97a16.323,16.323,0,0,0,2.486,1.272,1,1,0,0,0,1.226-.694,1.022,1.022,0,0,0-.694-1.226c-.039-.012-.256-.089-.1-.035s-.054-.027-.089-.043c-.159-.074-.31-.151-.465-.233-.318-.167-.632-.341-.943-.52-.268-.155-.531-.306-.8-.462-.163-.093-.33-.194-.489-.3-.035-.027-.074-.05-.112-.078-.019-.016-.167-.132-.081-.058s-.031-.031-.039-.039c-.047-.039-.089-.081-.136-.12-.074-.074-.144-.155-.213-.233s0,.008.016.023c-.023-.035-.05-.07-.074-.109a1.776,1.776,0,0,1-.144-.268c.07.171-.012-.074-.023-.132-.008-.035-.027-.213-.019-.081s0-.023,0-.039l0-.128c0-.112,0,.031-.008.054a1.316,1.316,0,0,0,.043-.167c0,.019-.078.132-.019.043.043-.066.178-.229.054-.109.043-.039.078-.081.116-.12.012-.008.116-.1.027-.031-.074.062.109-.066.147-.085s.1-.054.147-.081c.1-.054-.027.016-.043.019.058-.016.112-.039.171-.054a5.941,5.941,0,0,1,.741-.14c.1-.016.3-.066.078-.016.089-.019.19-.023.283-.035.175-.019.345-.035.52-.05a6.365,6.365,0,0,1,.815-.039,1.006,1.006,0,0,0,1-.993,1.017,1.017,0,0,0-1-1" transform="translate(-8892.779 1187.303)" fill="#1a1311"/>
      <path id="패스_5517" data-name="패스 5517" d="M6.369,58.553c.489,2.82.559,5.911,2.6,8.141a7.047,7.047,0,0,0,7.315,1.846,1,1,0,0,0-.528-1.92,5.06,5.06,0,0,1-5.55-1.532c-1.548-1.924-1.52-4.744-1.92-7.063a1.007,1.007,0,0,0-1.226-.7,1.02,1.02,0,0,0-.694,1.226" transform="translate(-8889.36 1191.993)" fill="#1a1311"/>
      <path id="패스_5518" data-name="패스 5518" d="M15.621,61.944a11.339,11.339,0,0,0,3.045,5.5A7.273,7.273,0,0,0,24.65,69.41a1,1,0,0,0,.694-1.222,1.02,1.02,0,0,0-1.226-.694,5.3,5.3,0,0,1-4.228-1.629,9.592,9.592,0,0,1-2.35-4.449,1,1,0,0,0-1.92.528" transform="translate(-8862.776 1201.82)" fill="#1a1311"/>
      <path id="패스_5519" data-name="패스 5519" d="M10.362,51.757c-2.091-.318-4.476-.268-5.488,1.924-.749,1.625-.791,3.708-1.105,5.461-.442,2.447-.861,4.879-1.121,7.354-.2,1.881-.462,3.766-.578,5.655-.089,1.513.12,2.75,1.583,3.452A22.9,22.9,0,0,0,15.1,77.562c1.264-.109,1.276-2.1,0-1.99a20.429,20.429,0,0,1-5.415-.248,25.233,25.233,0,0,1-2.719-.659c-.609-.182-2.285-.462-2.723-.981-.524-.628-.136-2.122-.062-2.835.109-1.071.225-2.137.337-3.208.144-1.346.26-2.692.477-4.03.365-2.226.822-4.433,1.164-6.664a7.135,7.135,0,0,1,.605-2.61c.617-1.008,2.079-.811,3.072-.659,1.253.19,1.792-1.726.528-1.92" transform="translate(-8901.731 1175.637)" fill="#1a1311"/>
    </g>
  </g>
</svg>
