<svg xmlns="http://www.w3.org/2000/svg" width="110" height="120" viewBox="0 0 110 120">
  <g id="그룹_1810" data-name="그룹 1810" transform="translate(-262 -1369)">
    <g id="사각형_2207" data-name="사각형 2207" transform="translate(262 1369)" fill="#ef8026" stroke="#000" stroke-width="2">
      <rect width="110" height="120" stroke="none"/>
      <rect x="1" y="1" width="108" height="118" fill="none"/>
    </g>
    <line id="선_192" data-name="선 192" x1="98" y2="107" transform="translate(268.5 1375.5)" fill="none" stroke="#000" stroke-linecap="round" stroke-width="2"/>
    <g id="그룹_1602" data-name="그룹 1602" transform="translate(27.006 1017.424)">
      <g id="그룹_1603" data-name="그룹 1603">
        <path id="패스_3777" data-name="패스 3777" d="M80.083,110.339c-.027.012.942-.361.555-.229-.361.124.57.062-.035-.031.093.016.935.279.624.155-.264-.1.566.33.57.334.144.085.438.353.151.1a9.742,9.742,0,0,1,.749.749,11.371,11.371,0,0,1,1.012,1.241c1.916,2.572,3.952,5.12,7.156,6.086a10.487,10.487,0,0,0,4.93,0c.423-.066-.345-.186.45-.031-.636-.124.345.112-.027.015-.4-.1.582.368.054,0a4.622,4.622,0,0,1,.559.508c-.008-.008.624.69.458.485-.19-.237.334.481.384.555.376.555.725,1.125,1.113,1.672a14.146,14.146,0,0,0,3.491,3.6c1.629,1.16,4.115.287,5.062-1.327a3.778,3.778,0,0,0-1.327-5.058c.368.264-.434-.446-.438-.45-.089-.1-.175-.2-.26-.3.128.178.116.167-.027-.039-.4-.535-.745-1.109-1.117-1.668a14.788,14.788,0,0,0-2.959-3.44,8.051,8.051,0,0,0-5.17-1.947,22.87,22.87,0,0,0-2.618.372c-.256.05-.272.05-.039,0l-.392,0c.714.217-.613-.229,0,.008a5.933,5.933,0,0,1-2.254-1.92,46.933,46.933,0,0,0-3.1-3.9c-2.374-2.4-6.2-4.045-9.518-2.676-1.842.764-3.157,2.455-2.583,4.55.481,1.745,2.692,3.351,4.55,2.583" transform="translate(217.045 295.671)" fill="#231616"/>
        <path id="패스_3778" data-name="패스 3778" d="M90.388,113.443c.043-.062.089-.124.136-.182-.194.248-.384.5-.578.749a3.343,3.343,0,0,1,.485-.481c-.252.19-.5.384-.749.578a3.632,3.632,0,0,1,.783-.465l-.884.372a3.823,3.823,0,0,1,.877-.244c-.326.043-.656.089-.981.132a3.555,3.555,0,0,1,.908,0c-.326-.043-.656-.085-.981-.132a4.373,4.373,0,0,1,.446.1q-.442-3.38-.884-6.757c-.741.388-1.482.772-2.222,1.16a5.485,5.485,0,0,0-2.789,2.692,4.421,4.421,0,0,0,1.889,5.477c.527.334,1.113.535,1.625.915-.252-.194-.5-.388-.749-.578a5.953,5.953,0,0,1,1.016,1.008c-.194-.248-.388-.5-.578-.749a6.157,6.157,0,0,1,.667,1.133c-.124-.295-.248-.59-.372-.88a6.14,6.14,0,0,1,.271.791q2.711-2.089,5.43-4.177a6.764,6.764,0,0,1-.772-.5c.248.194.5.384.749.578a32.064,32.064,0,0,0-3.537-2.913A4.3,4.3,0,0,0,86.3,110.6a4.042,4.042,0,0,0-2.777,2.777,15.779,15.779,0,0,0-.19,2.669c.047-.326.089-.655.132-.981a6.547,6.547,0,0,1-.434,1.6l.372-.884a6.877,6.877,0,0,1-.45.853q2.9-.372,5.806-.749a1.1,1.1,0,0,1-.159-.171c.19.248.384.5.578.749a2.109,2.109,0,0,1-.237-.4l.372.884a4.476,4.476,0,0,1-.256-1.051l.132.985a18.635,18.635,0,0,1,.008-4.829l-.132.981.023-.155a2.8,2.8,0,0,0,.066-1.474,2.735,2.735,0,0,0-.438-1.373,3.7,3.7,0,0,0-5.058-1.327,3.522,3.522,0,0,0-1.7,2.211,22.6,22.6,0,0,0-.279,4.8c.132,1.963.384,3.945,1.85,5.407a3.743,3.743,0,0,0,5.806-.749,9.043,9.043,0,0,0,1.179-2.859,12.175,12.175,0,0,0,.252-1.943c.019-.357-.039-.714-.016-1.067-.043.33-.089.656-.132.985a.51.51,0,0,1,.05-.186l-.372.884.05-.074c-.194.248-.384.5-.578.749l.074-.058-1.633.95.109-.035c-.33.043-.656.085-.985.132h.113c-.326-.043-.656-.089-.981-.132l.112.031c-.291-.124-.586-.248-.88-.372a3.7,3.7,0,0,1,.648.419c-.252-.194-.5-.388-.749-.578a32.837,32.837,0,0,0,3.824,3.084,3.719,3.719,0,0,0,5.43-4.177,9.245,9.245,0,0,0-2.281-4.011A9.408,9.408,0,0,0,90.8,110.7c-.423-.264-.911-.415-1.315-.706.248.194.5.384.745.578a1.607,1.607,0,0,1-.213-.217c.19.248.384.5.578.745l-.05-.081.372.884a.576.576,0,0,1-.058-.186l.132.981a.545.545,0,0,1,.008-.209l-.132.985.027-.1c-.124.295-.248.586-.372.88a.8.8,0,0,1,.1-.175c-.194.248-.384.5-.578.749a1.624,1.624,0,0,1,.237-.225c-.252.194-.5.384-.749.578a13.209,13.209,0,0,1,1.493-.815q.832-.431,1.664-.869a3.685,3.685,0,0,0,1.327-1.326,3.647,3.647,0,0,0,.438-2.358,3.7,3.7,0,0,0-2.649-3.072,6.541,6.541,0,0,0-1.994-.264,6.684,6.684,0,0,0-2.044.341,7.007,7.007,0,0,0-1.78.865A8.239,8.239,0,0,0,84,109.711a3.7,3.7,0,0,0,4.174,5.43l.884-.372a3.747,3.747,0,0,0,1.327-1.327" transform="translate(235.028 306.505)" fill="#231616"/>
        <path id="패스_3779" data-name="패스 3779" d="M74.4,176.976a2.353,2.353,0,0,1-2.4-1.842c-2.715-12.249-15.8-78.994,20.8-80.844,36.77-1.858,24.2,67.171,21.713,79.261a2.348,2.348,0,0,1-2.211,1.87Z" transform="translate(194.349 271.325)" fill="#231616" fill-rule="evenodd"/>
        <path id="패스_3780" data-name="패스 3780" d="M83.462,93.969a27.64,27.64,0,0,0-9.5,1.241,3.723,3.723,0,0,0-2.649,4.057,3.519,3.519,0,0,0,1.016,2.126,4.383,4.383,0,0,0,2.614,1.086,41.733,41.733,0,0,0,15.282-.923A3.683,3.683,0,0,0,92.876,97.5a3.729,3.729,0,0,0-3.63-3.2,84.009,84.009,0,0,0-11.136-.078,3.7,3.7,0,1,0,0,7.393,84,84,0,0,1,11.136.078q-.495-3.63-.985-7.261c-1.144.283-2.3.5-3.464.69-.842.136.69-.07-.093.016-.314.035-.628.074-.946.1-.586.054-1.171.1-1.761.132a38.968,38.968,0,0,1-7.051-.291q.495,3.636.985,7.269c.687-.217,1.377-.415,2.079-.566.353-.081.706-.151,1.059-.217.112-.019,1.191-.147.578-.093s.473-.039.582-.054c.357-.027.718-.05,1.078-.066.718-.027,1.439-.016,2.157.016a3.721,3.721,0,0,0,3.7-3.7,3.778,3.778,0,0,0-3.7-3.7" transform="translate(205.195 270.427)" fill="#ba6e58"/>
        <path id="패스_3781" data-name="패스 3781" d="M76.136,110.359c.908-5.488,5.667-7.75,15.216-6.4s8.867,20.262-3.355,19.611-12.769-7.722-11.861-13.211" transform="translate(218.339 298.17)" fill="#231616" fill-rule="evenodd"/>
        <path id="패스_3782" data-name="패스 3782" d="M79.565,110.611c1.8-2.637,4.872-4.848,8.219-4.4a6.332,6.332,0,0,1,3.8,1.9c1.233,1.33,1.454,3.235,1.532,4.972a8.811,8.811,0,0,1-.88,5,5.97,5.97,0,0,1-3.6,2.478c-2.548.729-5.892.993-7.726-1.284a7.991,7.991,0,0,1-1.633-5.077c-.035-1.734.112-3.623,1.486-4.845,1.129-1-.535-2.657-1.66-1.656a7.691,7.691,0,0,0-2.172,5.741,11.206,11.206,0,0,0,1.4,6.194,7.4,7.4,0,0,0,3.855,3.336,11.659,11.659,0,0,0,5.756.147,9.487,9.487,0,0,0,5.391-2.637,8.976,8.976,0,0,0,2.141-6.012,12.942,12.942,0,0,0-1.23-6.656,8.054,8.054,0,0,0-4.461-3.533c-4.806-1.645-9.573,1.226-12.245,5.139-.853,1.249,1.179,2.424,2.025,1.183" transform="translate(221.449 298.856)" fill="#ba6e58"/>
        <path id="패스_3783" data-name="패스 3783" d="M68.011,100.876c-1.458,7.323,2.533,13.684,6.578,19.417,4.069,5.764,9.231,13.327,5.465,20.534-.7,1.338,1.323,2.525,2.025,1.183,3.281-6.28.873-13.292-2.7-18.874-4.15-6.477-10.771-13.261-9.107-21.635.291-1.474-1.966-2.106-2.261-.624" transform="translate(194.899 287.96)" fill="#ba6e58"/>
        <path id="패스_3784" data-name="패스 3784" d="M67.549,104.731a26.057,26.057,0,0,0,3.425,8.96c1.78,2.956,3.852,5.713,5.093,8.964a27.025,27.025,0,0,1-.081,19.324c-.543,1.412,1.726,2.021,2.257.624a29.156,29.156,0,0,0,.5-19.39,38.3,38.3,0,0,0-4.526-8.774,27.759,27.759,0,0,1-4.41-10.333c-.264-1.482-2.525-.853-2.261.624" transform="translate(194.392 297.257)" fill="#ba6e58"/>
        <path id="패스_3785" data-name="패스 3785" d="M73.46,102.148a2.969,2.969,0,0,0,.78,2.067,2.828,2.828,0,0,0,4.069.194,2.721,2.721,0,0,0,.609-.752,3.07,3.07,0,0,0,.365-1.23,1.172,1.172,0,0,0-1.175-1.171,1.172,1.172,0,0,0-.826.341,1.342,1.342,0,0,0-.345.83l0,.047c.012-.1.027-.206.043-.31a1.872,1.872,0,0,1-.112.415l.116-.279a1.946,1.946,0,0,1-.244.415l.182-.241a1.873,1.873,0,0,1-.341.337c.078-.058.155-.12.237-.182a1.956,1.956,0,0,1-.419.24c.093-.039.186-.078.279-.12a1.88,1.88,0,0,1-.415.116c.1-.016.209-.027.314-.043a2.035,2.035,0,0,1-.434,0l.31.039a1.662,1.662,0,0,1-.411-.116l.279.116a1.814,1.814,0,0,1-.372-.221c.078.062.159.124.237.182a2.162,2.162,0,0,1-.341-.337c.062.078.124.159.182.237a2.121,2.121,0,0,1-.244-.415c.039.093.081.186.12.279a1.73,1.73,0,0,1-.124-.462c.012.1.027.209.039.31a1.763,1.763,0,0,1,0-.287,1.181,1.181,0,0,0-1.175-1.171,1.2,1.2,0,0,0-1.171,1.171" transform="translate(211.461 290.679)" fill="#fff"/>
        <path id="패스_3786" data-name="패스 3786" d="M71.938,101.934a2.289,2.289,0,0,0,1.012,1.307,2.613,2.613,0,0,0,1.408.369,3.461,3.461,0,0,0,2.5-1.416,1.261,1.261,0,0,0,.345-.826,1.179,1.179,0,0,0-1.175-1.175,1.13,1.13,0,0,0-.826.345,3.658,3.658,0,0,1-.617.632c.078-.062.159-.12.237-.182a2.521,2.521,0,0,1-.512.306c.1-.039.19-.081.283-.12a1.667,1.667,0,0,1-.427.12c.1-.012.206-.027.31-.043a1.619,1.619,0,0,1-.388,0c.1.012.209.027.314.039a1.545,1.545,0,0,1-.376-.1c.093.043.186.081.279.12a1.777,1.777,0,0,1-.264-.151c.081.058.159.12.237.182a1.552,1.552,0,0,1-.213-.209l.186.237a1,1,0,0,1-.132-.225l.116.279-.035-.109a1.227,1.227,0,0,0-.539-.7,1.206,1.206,0,0,0-.9-.12,1.19,1.19,0,0,0-.818,1.443" transform="translate(206.956 288.422)" fill="#fff"/>
        <path id="패스_3787" data-name="패스 3787" d="M75.482,102.259a2.157,2.157,0,0,0,.741.578,3.055,3.055,0,0,0,1.187.306,3.4,3.4,0,0,0,.939-.128,2.662,2.662,0,0,0,1.043-.636,1.206,1.206,0,0,0,.345-.826,1.179,1.179,0,0,0-1.171-1.175,1.218,1.218,0,0,0-.83.345c-.043.043-.085.078-.132.116.081-.062.159-.124.24-.182a1.658,1.658,0,0,1-.322.186c.093-.039.186-.081.283-.12a1.8,1.8,0,0,1-.388.1c.1-.012.206-.027.31-.043a1.671,1.671,0,0,1-.462,0c.1.016.209.027.314.043a1.588,1.588,0,0,1-.388-.1l.279.116a1.38,1.38,0,0,1-.345-.2c.078.062.155.12.237.182a1.518,1.518,0,0,1-.225-.221,1.168,1.168,0,0,0-.83-.345,1.189,1.189,0,0,0-.826.345,1.166,1.166,0,0,0-.345.826c.016.1.031.209.039.314a1.229,1.229,0,0,0,.306.516" transform="translate(216.293 288.613)" fill="#fff"/>
        <path id="패스_3788" data-name="패스 3788" d="M77.665,113.225a11.055,11.055,0,0,1,6.365-6.7,12.733,12.733,0,0,1,11.1.8,1.173,1.173,0,0,0,1.183-2.025,15.045,15.045,0,0,0-13.168-.923A13.523,13.523,0,0,0,75.4,112.6c-.5,1.427,1.757,2.04,2.261.624" transform="translate(216.856 297.285)" fill="#ba6e58"/>
        <path id="패스_3789" data-name="패스 3789" d="M75.559,96.076l-.035-.023.24.182a1.08,1.08,0,0,1-.167-.159l.182.237a1.025,1.025,0,0,1-.113-.19c.039.093.081.186.12.283a1.13,1.13,0,0,1-.07-.248c.016.1.027.209.043.314a1.228,1.228,0,0,1,0-.337c-.016.1-.031.206-.043.31a1.638,1.638,0,0,1,.109-.38c-.039.093-.081.186-.12.279a2.145,2.145,0,0,1,.206-.353l-.182.237a1.874,1.874,0,0,1,.287-.295l-.24.186a1.543,1.543,0,0,1,.314-.19c-.093.039-.186.078-.279.12a1.235,1.235,0,0,1,.31-.089c-.1.016-.206.027-.31.043a1.932,1.932,0,0,1,.5,0c-.1-.016-.209-.031-.31-.043a2.5,2.5,0,0,1,.524.144l-.279-.116a3.168,3.168,0,0,1,.679.4l-.241-.186a4.758,4.758,0,0,1,.772.783l-.182-.237a2.637,2.637,0,0,1,.33.524c-.039-.093-.078-.186-.12-.279a1.3,1.3,0,0,1,.066.241c-.016-.1-.031-.209-.043-.31a.617.617,0,0,1,0,.12c.016-.1.027-.209.043-.31a1.311,1.311,0,0,1-.043.167l.116-.283a.822.822,0,0,1-.07.128l.182-.241a.772.772,0,0,1-.14.136l.241-.182a1.244,1.244,0,0,1-.221.124c.1-.039.19-.078.283-.116a2.592,2.592,0,0,1-.636.159c.1-.012.206-.027.31-.039a3.16,3.16,0,0,1-.834,0c.1.016.209.027.314.043a2.319,2.319,0,0,1-.512-.136c.093.039.186.078.279.12a1.867,1.867,0,0,1-.392-.225l.237.186a1.7,1.7,0,0,1-.287-.291l.186.237a1.569,1.569,0,0,1-.2-.349l.116.279a1.745,1.745,0,0,1-.093-.337c.012.1.027.206.043.31a1.258,1.258,0,0,1,0-.341c-.016.1-.027.206-.043.31a1.238,1.238,0,0,1,.081-.283c-.043.093-.081.19-.12.283a.97.97,0,0,1,.112-.194l-.182.237a1.185,1.185,0,0,1,.14-.14l-.237.182a1.216,1.216,0,0,1,.248-.144l-.283.116a1.18,1.18,0,0,1,.279-.07c-.1.012-.209.027-.314.039a1.38,1.38,0,0,1,.283,0c-.1-.012-.206-.027-.31-.043a.952.952,0,0,1,.229.062c-.093-.043-.186-.081-.279-.12a1.016,1.016,0,0,1,.2.116l-.237-.182a.955.955,0,0,1,.109.109l-.186-.237A.615.615,0,0,1,76,96.27a1.173,1.173,0,0,0,1.6.419,1.2,1.2,0,0,0,.423-1.6,1.762,1.762,0,0,0-.811-.784,2.34,2.34,0,0,0-1.416-.175,2.086,2.086,0,0,0-1.656,1.555,2.628,2.628,0,0,0,.714,2.42,3.186,3.186,0,0,0,2.331.861,2.812,2.812,0,0,0,2.4-1.051,1.905,1.905,0,0,0,.027-1.846,4.391,4.391,0,0,0-.706-.977c-.989-1.121-2.719-1.947-4.142-1.113a2.8,2.8,0,0,0-1.3,1.765,2.412,2.412,0,0,0,.023,1.2,2.191,2.191,0,0,0,.88,1.16A1.173,1.173,0,0,0,76.1,96.778a1.348,1.348,0,0,0-.539-.7" transform="translate(211.321 269.554)" fill="#1a1311"/>
        <path id="패스_3790" data-name="패스 3790" d="M80.435,94.037c-1.5.186-3,.368-4.5.562a6.528,6.528,0,0,0-3.557,1.257,3.449,3.449,0,0,0-1.195,2.9,4.008,4.008,0,0,0,1.7,2.537,6.279,6.279,0,0,0,3.526,1.02,39.562,39.562,0,0,0,4.445.26,42.649,42.649,0,0,0,8.847-.931c1.478-.31.853-2.572-.624-2.261a39.235,39.235,0,0,1-13.459.489,2.487,2.487,0,0,1-1.963-1.082c-.322-.5,0-1,.465-1.307a6.493,6.493,0,0,1,2.727-.648l3.58-.446a1.216,1.216,0,0,0,1.171-1.175,1.178,1.178,0,0,0-1.171-1.171" transform="translate(204.883 270.688)" fill="#1a1311"/>
        <path id="패스_3791" data-name="패스 3791" d="M83.252,95.031c-18.8,12.652-16.678,38.616-14.852,58.328a64.091,64.091,0,0,0,3.1,15.8c1.136,3.153,2.16,6.629,5.8,7.273,2.835.5,6.291-.081,9.142-.237q4.555-.256,9.1-.667c6.163-.566,12.3-1.369,18.4-2.354,1.486-.24.857-2.5-.624-2.261a257.273,257.273,0,0,1-31.437,3.146c-2.793.1-4.891.485-6.656-2.005-1.4-1.97-2.056-5.108-2.661-7.443a81.751,81.751,0,0,1-2.1-14.712c-1.292-17.978-3.142-41.328,13.971-52.843,1.245-.838.074-2.87-1.183-2.025" transform="translate(193.587 272.984)" fill="#1a1311"/>
        <path id="패스_3792" data-name="패스 3792" d="M70.688,104.269l-.05-.939a.686.686,0,0,1,.163-.543c.171-.2.671-.182.671-.182a35.063,35.063,0,0,1,4.724.144,3.07,3.07,0,0,1,.993.171c.248.132.291.5.272.908a5.821,5.821,0,0,1-.081.733Z" transform="translate(203.323 295.303)" fill="#c9c9c9"/>
        <path id="패스_3793" data-name="패스 3793" d="M100.82,106.587a6.212,6.212,0,0,0-.593-2.645,1.8,1.8,0,0,0-1.109-.605c-3.4-.275-6.869-.279-10.387-.318-5.38-.062-10.76,0-16.135.074a2.73,2.73,0,0,0-1.3.229,2.528,2.528,0,0,0-1.032,1.881A18.536,18.536,0,0,0,70,108.445c5.035.05,24.323.272,30.89.349,0-.741-.019-1.478-.07-2.207" transform="translate(201.509 296.488)" fill="#1a1311"/>
        <path id="패스_3794" data-name="패스 3794" d="M100.892,104.748c-6.57-.078-25.855-.3-30.89-.349a48.2,48.2,0,0,0,.291,5.12l.8,8.25a.882.882,0,0,0,1.1.97c9.076.14,13.025.283,22.1.419.244,0,3.627-.027,5.725-.05a1.55,1.55,0,0,0,1.536-1.668c-.213-3.15-.656-9.957-.663-12.691" transform="translate(201.511 300.534)" fill="#c9c9c9"/>
        <path id="패스_3795" data-name="패스 3795" d="M73.709,106.846a3.62,3.62,0,0,0-.233,3.98,5.07,5.07,0,0,0,3.394,2.455,4.84,4.84,0,0,0,5.616-3.231,2.932,2.932,0,0,0-.306-2.455,5.172,5.172,0,0,0-4.15-2.5,5.716,5.716,0,0,0-4.278,1.711" transform="translate(210.138 302.512)" fill="#fff"/>
        <path id="패스_3796" data-name="패스 3796" d="M73.734,106.859a4.519,4.519,0,0,0,.233,5.76,5.9,5.9,0,0,0,5.737,1.943,5.5,5.5,0,0,0,4.127-3.9c.57-2.3-1.117-4.41-3.146-5.283a6.321,6.321,0,0,0-6.908,1.439c-.71.69.376,1.773,1.082,1.082a4.843,4.843,0,0,1,4.395-1.389c1.431.33,3.169,1.544,3.177,3.177a3.725,3.725,0,0,1-2.463,3.2,4.325,4.325,0,0,1-4.224-.659c-1.164-.919-2.063-2.987-.927-4.282.652-.737-.431-1.823-1.082-1.082" transform="translate(209.57 301.96)" fill="#1a1311"/>
        <path id="패스_3797" data-name="패스 3797" d="M80.672,103.746a34.622,34.622,0,0,0-4.3-.175.77.77,0,1,0,0,1.54,35.394,35.394,0,0,1,4.3.175.773.773,0,0,0,.772-.768.792.792,0,0,0-.772-.772" transform="translate(217.624 298.119)" fill="#dfdfde"/>
        <path id="패스_3798" data-name="패스 3798" d="M71.263,103.266a5.7,5.7,0,0,0-1.338,4.208c.035,2.25.271,4.511.415,6.753s.26,4.492.427,6.733c.1,1.354.5,2.215,1.959,2.331,2.246.182,4.573.027,6.83.031q3.625.006,7.253-.012,7.249-.029,14.5-.132a.77.77,0,0,0,0-1.54q-11.782.163-23.567.14l-2.723-.008c-1.012-.008-2.343.322-2.711-.811a12.864,12.864,0,0,1-.186-2.928c-.058-.877-.112-1.753-.171-2.634l-.372-5.853c-.1-1.695-.5-3.828.772-5.19.675-.725-.411-1.819-1.09-1.09" transform="translate(201.289 296.578)" fill="#1a1311"/>
        <path id="패스_3799" data-name="패스 3799" d="M78.264,102.361q-2.35-.041-4.7-.027c-.69,0-1.59-.132-2.083.469a1.526,1.526,0,0,0-.295,1c0,.186.012.372.027.559.008.093.019.186.031.279.008.074,0,.388.047.186l.2-.337c.07-.07.225-.116.043-.066a1.469,1.469,0,0,0-.279.116,1.914,1.914,0,0,0-.462.326,2.111,2.111,0,0,0-.562.908c-.322.943,1.167,1.346,1.486.411a.5.5,0,0,1,.365-.318.972.972,0,0,0,.741-.97c0-.2-.054-.4-.07-.605a5.34,5.34,0,0,0-.019-.559s-.012-.116.008-.093a.377.377,0,0,1-.206.244c-.019.008,0,.008.043,0a2.441,2.441,0,0,0,.628-.008q2.531-.017,5.062.023a.77.77,0,0,0,0-1.54" transform="translate(202.034 294.558)" fill="#1a1311"/>
        <path id="패스_3800" data-name="패스 3800" d="M73.844,112.684q7.226-.006,14.452-.209a1.848,1.848,0,0,0,0-3.7q-7.226.2-14.452.209a1.849,1.849,0,0,0,0,3.7" transform="translate(207.436 313.139)" fill="#c9c9c9"/>
        <path id="패스_3801" data-name="패스 3801" d="M73.817,110.665q-.017,19.019-.043,38.042a1.822,1.822,0,0,0,3.642,0q.017-19.019.039-38.042a1.82,1.82,0,0,0-3.638,0" transform="translate(212.373 313.51)" fill="#c9c9c9"/>
        <path id="패스_3802" data-name="패스 3802" d="M73.041,140.511c1.792-5.349,3.487-10.732,5.209-16.1q1.321-4.148,2.7-8.277c.1-.322.213-.648.326-.97q-1.094.442.124.314a10.737,10.737,0,0,0,2.238.074l4.794.151c1.493.05,2.983.1,4.476.144a10.2,10.2,0,0,1,2.556.081q-.832-.733-.4.151c.078.33.163.659.252.985.768,2.82,1.509,5.636,2.168,8.483a155.193,155.193,0,0,0,3.991,15.426c.76,2.242,4.332,1.28,3.564-.981a134.813,134.813,0,0,1-3.627-13.835c-.566-2.482-1.144-4.961-1.8-7.424-.5-1.87-.741-5.069-2.614-6.136a6.066,6.066,0,0,0-2.808-.407l-4.48-.144c-2.874-.089-5.756-.279-8.634-.275-2.606,0-3.165,1.792-3.89,3.972q-1.233,3.706-2.42,7.424c-1.745,5.461-3.468,10.93-5.291,16.368-.76,2.261,2.812,3.231,3.565.981" transform="translate(199.698 321.741)" fill="#c9c9c9"/>
        <path id="패스_3803" data-name="패스 3803" d="M74.5,103.882a9.309,9.309,0,0,1-1.714.966c-.33.155-.663.3-1,.446-.543.237.838-.349.427-.178-.089.035-.178.074-.264.109-.225.093-.446.186-.671.275a25.8,25.8,0,0,0-4.569,2.075,4.454,4.454,0,0,0-2.261,3.712,4.265,4.265,0,0,0,3.254,3.952,27.361,27.361,0,0,0,5.737.927,28.1,28.1,0,0,0,2.855.167,23.036,23.036,0,0,1,3.018-.043c-.33-.043-.656-.089-.985-.132a5.051,5.051,0,0,1,.547.113c.155.039.687.248.078-.012s-.066,0,.047.054c.547.3-.667-.59-.175-.124a3.7,3.7,0,1,0,5.229-5.228,8.01,8.01,0,0,0-4.833-2.079,17.244,17.244,0,0,0-2.61.054,30.082,30.082,0,0,1-4.794-.353c.33.043.656.085.985.132-.8-.109-1.586-.225-2.366-.4-.272-.062-.535-.144-.8-.217-.512-.136.919.454.562.237a3.619,3.619,0,0,1,1.52,1.974c.043.33.085.656.132.981v-.031l-.132.981a3.678,3.678,0,0,1-.8,1.369c.431-.45-.807.531-.438.33.275-.147.535-.318.818-.454.361-.178.733-.341,1.1-.5.489-.217-.842.349-.45.19.1-.047.209-.089.318-.136.217-.089.434-.178.655-.268a23.438,23.438,0,0,0,5.314-2.5,4.032,4.032,0,0,0,1.7-2.207,3.772,3.772,0,0,0-.372-2.851,3.712,3.712,0,0,0-2.207-1.7,3.589,3.589,0,0,0-2.851.372" transform="translate(185.541 297.607)" fill="#231616"/>
        <path id="패스_3804" data-name="패스 3804" d="M68.021,112.228c.039,1.067.062,2.133.116,3.2a4.565,4.565,0,0,0,1.668,3.611,4.044,4.044,0,0,0,4.616.341,3.841,3.841,0,0,0,1.7-4.177c-.043-.2-.081-.4-.112-.609l.132.985a8.63,8.63,0,0,1-.016-2.168c-.043.326-.085.656-.132.981a7.909,7.909,0,0,1,.248-1.167l-.372.884a.5.5,0,0,1,.1-.19c-.194.248-.388.5-.578.749l.081-.066q-.82.471-1.633.95l.113-.039c-.326.043-.656.089-.981.132l.12,0c-.326-.043-.656-.085-.981-.132a2.976,2.976,0,0,1,.628.178c-.295-.124-.586-.248-.88-.376a21.834,21.834,0,0,1,1.97,1.214,7.579,7.579,0,0,0,1.807.772,6.314,6.314,0,0,0,2.936.031c.295-.124.59-.248.88-.372.252-.194.5-.384.749-.578a3.658,3.658,0,0,0,1.02-2.122,3.524,3.524,0,0,0-.256-1.916,3.434,3.434,0,0,0-1.513-1.769,18.007,18.007,0,0,1-2.979-1.85c.248.194.5.384.749.578a7.168,7.168,0,0,1-.849-.718c.194.248.388.5.578.749l-.062-.093c.124.295.248.586.372.88l-.039-.1c.043.33.085.656.132.981l-.008-.12-.132.981a.858.858,0,0,1,.07-.24l-.372.884a2.4,2.4,0,0,1,.186-.322c-.19.248-.384.5-.578.749a2.513,2.513,0,0,1,.458-.45c-.248.194-.5.384-.749.578a11.917,11.917,0,0,1,1.695-.884,6.417,6.417,0,0,0,2.6-2.37,3.71,3.71,0,0,0,0-3.731,3.771,3.771,0,0,0-3.2-1.831,10.606,10.606,0,0,0-3.89.578,12.493,12.493,0,0,0-4.061,2.366A3.735,3.735,0,0,0,68.3,109.8a3.695,3.695,0,0,0,3.7,3.7,4.137,4.137,0,0,0,2.618-1.082c.1-.089.206-.175.31-.26-.248.194-.5.388-.749.578a8.2,8.2,0,0,1,1.738-1.012c-.295.124-.59.248-.88.372a8.2,8.2,0,0,1,1.943-.531c-.33.043-.656.089-.985.132a8.164,8.164,0,0,1,1.342-.062q-1.594-2.781-3.192-5.562c-.05.081-.1.155-.159.233.19-.248.384-.5.578-.749a2.754,2.754,0,0,1-.407.388c.248-.194.5-.384.749-.578a13.237,13.237,0,0,1-1.831.958,5.8,5.8,0,0,0-2.913,3.328,4.216,4.216,0,0,0,1.071,4.247,17.848,17.848,0,0,0,1.807,1.431,17.406,17.406,0,0,0,2.688,1.629q.442-3.38.884-6.757l-.14.023c.33-.043.655-.085.981-.132a2.65,2.65,0,0,1-.555,0c.33.043.655.085.985.132a3.676,3.676,0,0,1-.679-.194c.291.124.586.248.88.372a19.161,19.161,0,0,1-1.955-1.2,7.645,7.645,0,0,0-1.734-.752,4.219,4.219,0,0,0-4.15.923,6.714,6.714,0,0,0-1.544,4.348,11.484,11.484,0,0,0,.295,3.452q.849-2.089,1.7-4.174l-.078.05c.295-.124.59-.248.884-.376l-.085.023c.326-.043.656-.085.981-.132H72.3c.326.043.652.089.981.132l-.093-.023.884.372a.434.434,0,0,1-.163-.1c.248.19.5.384.749.578l-.062-.074c.19.252.384.5.578.749l-.066-.112c.128.295.252.586.376.88a.835.835,0,0,1-.066-.252c.043.326.089.656.132.981-.109-1.144-.093-2.316-.136-3.464a3.872,3.872,0,0,0-1.086-2.614,3.7,3.7,0,0,0-6.311,2.614" transform="translate(195.808 300.039)" fill="#231616"/>
        <path id="패스_3805" data-name="패스 3805" d="M73.249,108.774a2.058,2.058,0,0,0-1.323,1.924,2.55,2.55,0,0,0,.663,2.052,5.125,5.125,0,0,0,2.956.954,18.931,18.931,0,0,0,3.246.124.789.789,0,0,0,.772-.772.779.779,0,0,0-.772-.772,18.693,18.693,0,0,1-2.552-.047c-.4-.035-.787-.085-1.179-.151a4.505,4.505,0,0,1-1.133-.268.663.663,0,0,1-.407-.392c-.023-.089-.035-.182-.05-.275.031.217,0-.1-.008-.171,0-.116,0-.229.012-.345-.012.178.039-.14.054-.206.019-.081-.066.1.008-.019.019-.031.128-.175.019-.05.023-.027.163-.14.035-.05.031-.019.2-.1.07-.05a.788.788,0,0,0,.535-.946.772.772,0,0,0-.946-.539" transform="translate(207.03 313.016)" fill="#1a1311"/>
        <path id="패스_3806" data-name="패스 3806" d="M73.819,110.422c-.159,2.358-.322,4.709-.353,7.071a.772.772,0,0,0,1.544,0c.027-2.362.194-4.713.349-7.071a.776.776,0,0,0-.768-.772.784.784,0,0,0-.772.772" transform="translate(211.487 315.65)" fill="#1a1311"/>
        <path id="패스_3807" data-name="패스 3807" d="M78.057,112.209a92.737,92.737,0,0,0-6.346,18.168c-.756,2.975-1.745,5.993-2.253,9.022-.419,2.5,1.369,3.332,3.572,3.025.981-.136.562-1.621-.407-1.486-2.432.337-1.486-1.994-1.16-3.289q.465-1.827.923-3.654c.593-2.347,1.175-4.7,1.815-7.032a78.648,78.648,0,0,1,5.186-13.975c.434-.888-.892-1.672-1.33-.78" transform="translate(199.771 321.884)" fill="#1a1311"/>
        <path id="패스_3808" data-name="패스 3808" d="M73.6,113.5q-.017,8.942-.031,17.881c0,1.427-.008,2.851-.008,4.278A7.416,7.416,0,0,0,74,138.77a2.621,2.621,0,0,0,4.111,1.094c.741-.663-.353-1.749-1.09-1.09-1.261,1.129-1.866-1.369-1.908-2.083-.07-1.094-.008-2.211-.008-3.309l.012-6.458.023-13.424a.77.77,0,0,0-1.54,0" transform="translate(211.752 324.591)" fill="#1a1311"/>
        <path id="패스_3809" data-name="패스 3809" d="M75.866,113.763c1.784,6.047,3.223,12.109,4.577,18.265.531,2.413,1.253,5.38,3.053,7.2,1.226,1.241,3.724,1.261,4.577-.469.438-.884-.888-1.668-1.33-.776-.69,1.4-2.207.194-2.727-.6a12.7,12.7,0,0,1-1.354-2.994,64.527,64.527,0,0,1-1.555-6.8c-1.024-4.8-2.366-9.53-3.755-14.239a.771.771,0,0,0-1.486.411" transform="translate(218.294 324.755)" fill="#1a1311"/>
      </g>
    </g>
  </g>
</svg>
