<svg xmlns="http://www.w3.org/2000/svg" width="110" height="120" viewBox="0 0 110 120">
  <g id="그룹_1808" data-name="그룹 1808" transform="translate(-21 -1369)">
    <g id="사각형_1960" data-name="사각형 1960" transform="translate(21 1369)" fill="#ef8026" stroke="#000" stroke-width="2">
      <rect width="110" height="120" stroke="none"/>
      <rect x="1" y="1" width="108" height="118" fill="none"/>
    </g>
    <line id="선_106" data-name="선 106" x1="98" y2="107" transform="translate(27.5 1375.5)" fill="none" stroke="#000" stroke-linecap="round" stroke-width="2"/>
    <g id="그룹_1606" data-name="그룹 1606" transform="translate(8432.79 80)">
      <path id="패스_5541" data-name="패스 5541" d="M49.123,69.082c1.292-.741.617,1.109,1.73,2.463.566.683,1.315,1.4,2.06,2.164A26.377,26.377,0,0,0,55.158,75.7a14.457,14.457,0,0,0,2.494,1.652,6.644,6.644,0,0,0,2.828.88,4.009,4.009,0,0,0,2.7-1.086,25.027,25.027,0,0,0,2.095-1.7,17.739,17.739,0,0,0,1.637-2.141,13.934,13.934,0,0,0,1.272-2.389c.648-1.555.993-1.319.59-2.587-.462-1.458-.9-1.35-1.288-2.785a2.549,2.549,0,0,1,.566-2.824c1.761-1.233,1.33.283,2.723,1.575.923.857.78-1.2,1.819-1.71a1.791,1.791,0,0,1,2.242.458,1.688,1.688,0,0,1,.411,2.2c-.566.943-1.389,2.688-1.761,1.52-.392-1.214,1.105-.9,2.292-.853a2.246,2.246,0,0,1,1.9,1.579,1.638,1.638,0,0,1-.586,2.137c-.888.721-2.952.016-2.211,1.032,1.2,1.641,2.568,1.233,1.8,3.355-.314.869-1.268,1.02-2.091,1.113-1.183.132-1.3-.648-2.463-.237-1.392.489-.656,1.1-1.707,2.506-.524.7-1.012,1.61-1.73,2.42a28.231,28.231,0,0,1-2.095,2.11,19.44,19.44,0,0,1-2.409,1.738,11.645,11.645,0,0,1-2.61,1.358,6.878,6.878,0,0,1-2.886.438,6.037,6.037,0,0,1-2.8-.877c-.888-.555-1.633-1.233-2.4-1.807-.846-.64-1.629-1.257-2.327-1.885-.811-.737-1.586-1.389-2.211-2.067a26.737,26.737,0,0,1-1.819-2.378c-1.109-1.493-2.281-1.067-1.742-2.44.566-1.431,1.117-1.117,1.87-2.463.768-1.377.535-1.7,1.87-2.463" transform="translate(-8392.744 1296.295)" fill="#2b2f2f" fill-rule="evenodd"/>
      <path id="패스_5542" data-name="패스 5542" d="M36.347,67.318c-1.036-.946-.423-1.039.268-2.533A6.111,6.111,0,0,1,38.38,62.71a9.919,9.919,0,0,1,2.308-1.462,19.168,19.168,0,0,1,2.649-.768,21.971,21.971,0,0,1,2.634-1.032c.849-.14,1.811,0,2.808-.089.873-.085,1.8-.2,2.8-.244,1.792-.016,1.792-.167,3.584-.167s1.99,1.024,3.665.388c1.3-.5-.283-1.524-.05-2.987a6.028,6.028,0,0,1,1.071-2.564,3.251,3.251,0,0,1,2.323-1.416,5.188,5.188,0,0,1,3.4.659,3.269,3.269,0,0,1,1.5,2.874c.225,2.083-.485,2.071.361,3.9.617,1.327.966.039,2.707.24.849.1,1.811.415,2.866.57.923.136,1.9.3,2.878.481.966.182,1.97.229,2.905.462a27.267,27.267,0,0,1,2.738,1.051,10.878,10.878,0,0,1,2.537,1.358c1,.683,1.9,1.33,1.695,2.242-.14.6-1.23,1.078-2.653,1.439a27.669,27.669,0,0,1-2.905.345c-.888.112-1.85.349-2.9.427-.923.066-1.908.019-2.932.062-.946.043-1.92.2-2.932.225-.954.019-1.939-.229-2.94-.225-.962.008-1.943.434-2.936.431-.966-.008-1.943-.217-2.928-.233s-1.955-.244-2.936-.268-1.97-.085-2.948-.112c-.993-.035-1.978-.058-2.948-.093-1-.039-2,.322-2.963.283-1-.043-1.97-.372-2.917-.419-1.028-.047-2.025.109-2.956.058-1.055-.058-2.025-.407-2.928-.458-1.109-.066-2.11.12-2.94.07-1.823-.116-1.683.559-2.75-.419" transform="translate(-8419.958 1267.681)" fill="#2b2f2f"/>
      <path id="패스_5543" data-name="패스 5543" d="M40.6,55.921c-1.373-.341-1.354-.516-2.707.085a3.392,3.392,0,0,0-1.811,1.986,9.557,9.557,0,0,0-.551,2.742,18.134,18.134,0,0,0-.209,2.831c.054,1.008.136,2.029.136,3.068,0,1.012-.159,2.036-.178,3.068s-.085,2.048-.089,3.08.209,2.048.248,3.072.093,2.052.209,3.068a28.861,28.861,0,0,0,.33,3.068,23.909,23.909,0,0,0,1.086,2.89,20.023,20.023,0,0,0,1.167,2.835,20.324,20.324,0,0,0,1.835,2.459,20.346,20.346,0,0,0,1.8,2.506,25.446,25.446,0,0,0,2.455,1.873A17.023,17.023,0,0,0,46.8,96.415a23.581,23.581,0,0,0,2.847,1.233c.946.33,2.06.19,3.076.434.981.237,1.912.846,2.94,1.008,1,.163,2.071-.066,3.1.035,1.016.1,2.044.05,3.072.1s2.056.144,3.08.147c1.043.008,2.079.384,3.091.353,1.051-.031,2.063-.438,3.06-.5,1.071-.07,2.129.206,3.111.116,1.1-.1,2.137-.171,3.084-.283,1.152-.136,2.188-.271,3.056-.4,1.877-.279,1.625-.015,2.975-.71,1.33-.683.718-.923,1.87-2.339a27.755,27.755,0,0,0,1.9-2.292,29.277,29.277,0,0,0,1.648-2.494,28.643,28.643,0,0,0,1.105-2.781,23.566,23.566,0,0,0,1.078-2.785,22.414,22.414,0,0,0,.279-2.987,19.159,19.159,0,0,0,.054-2.956c-.031-1.024.384-2.056.388-3.072.008-1.032-.392-2.063-.368-3.068.027-1.039.337-2.056.361-3.049.023-1.059.225-2.087.221-3.072,0-1.078-.4-2.095-.469-3.056a21.308,21.308,0,0,0-.128-3.072,7.257,7.257,0,0,0-1.361-2.75,4.139,4.139,0,0,0-2.657-1.214,15.287,15.287,0,0,0-2.828-.655c-.849-.062-1.827-.066-2.905-.116-.9-.039-1.885.054-2.917.019-.927-.027-1.9.039-2.917.016-.943-.019-1.916-.058-2.913-.074-.954-.016-1.928-.244-2.917-.256-.958-.012-1.928-.031-2.905-.039s-1.947-.136-2.925-.14-1.959.256-2.932.252c-.989,0-1.97-.272-2.936-.272-.993,0-1.974.066-2.932.066-1,0-1.974.178-2.917.182-1.024,0-2.005.085-2.936.089-1.047,0-2.032-.019-2.932-.016-1.105.008-2.091-.062-2.917-.054-1.815.016-1.482.3-2.882-.047" transform="translate(-8421.698 1277.138)" fill="#2b2f2f"/>
      <path id="패스_5544" data-name="패스 5544" d="M52.471,60.46c-1.113-.935-1.447-.1-2.9-.1s-1.458.016-2.913.016-1.668.849-2.963.178c-1.2-.617.155-1.466.167-2.781.016-1.144-.016-2.168-.71-2.277-.454-.07-1.455-.209-2.688-.306-.834-.066-1.769-.326-2.707-.361s-1.893.1-2.734.132a7.042,7.042,0,0,0-2.61.485c-.38.194-.574,1.264-.776,2.874-.112.88-.392,1.9-.458,3.045-.062.962-.078,2.005-.112,3.076-.031,1.008.14,2.052.124,3.091s-.1,2.079-.1,3.1c0,1.071.07,2.11.081,3.084.016,1.136-.058,2.184-.035,3.084.043,1.517.206,2.618.248,3.068.225,2.4.811.834,1.447,2.2.8,1.707-.14,2.75,1.866,2.75.431,0,1.455-.035,2.789.047.83.054,1.769.3,2.773.368.908.062,1.873-.066,2.824,0s1.9.275,2.8.345c1.028.078,1.986.2,2.812.26,1.668.128,2.731,1.551,2.847.155.132-1.582-.605-1.5-1.04-3.025s.485-2.091-.7-3.146c-1.121-1-1.555.012-3.041-.171s-1.474-.318-2.959-.5-1.5-.136-2.99-.318-2.009.737-3.053-.345c-1.063-1.1-.109-1.59-.264-3.115s-.078-1.528-.233-3.053-.337-1.509-.493-3.041.124-1.559-.031-3.091-.283-1.524-.438-3.06-1.52-2.087-.419-3.169c1.23-1.2,2.269-1.071,3.6.027,1.21,1,.012,1.645.182,3.208s-.737,2.063.357,3.188c.958.985,1.451-.12,2.824-.1s1.377.209,2.754.233,1.385-.155,2.765-.132,1.385.159,2.769.182,2.091,1.187,2.878.043c.884-1.284-.9-1.544-.97-3.1-.074-1.633.628-2.032-.566-3.037" transform="translate(-8433.573 1274.865)" fill="#2b2f2f"/>
      <path id="패스_5545" data-name="패스 5545" d="M49.687,60.25c1.113-.935,1.532.175,2.987.175s1.455-.081,2.909-.081,1.641.714,2.936.047c1.2-.621-.206-1.412-.217-2.727-.016-1.144.1-2.094.8-2.2a24.524,24.524,0,0,1,2.672-.423c.838-.066,1.78-.039,2.723-.07s1.881-.14,2.723-.1a6.743,6.743,0,0,1,2.575.539c.38.194.784,1.167.985,2.781.112.88-.016,1.939.054,3.08.058.966.4,1.986.434,3.06.031,1.008-.136,2.052-.124,3.091s.093,2.083.093,3.1c0,1.074.05,2.114.035,3.091-.016,1.133-.2,2.176-.225,3.076-.043,1.517-.062,2.626-.1,3.08-.229,2.4-.993.78-1.629,2.137-.8,1.707.24,2.7-1.765,2.7-.431,0-1.443.233-2.777.314-.83.054-1.788,0-2.793.074-.908.062-1.862.112-2.812.182s-1.9.221-2.808.291c-1.024.078-1.994.05-2.824.116-1.668.124-2.525,1.683-2.641.291-.132-1.583.314-1.509.752-3.037s-.33-2,.857-3.053c1.121-1,1.462-.318,2.948-.5s1.5-.081,2.99-.264,1.493-.163,2.987-.349,1.842.628,2.886-.454c1.067-1.1.4-1.416.547-2.94s-.008-1.536.147-3.06.3-1.513.45-3.045.012-1.544.167-3.076.314-1.52.469-3.056S67.4,60.983,66.3,59.9c-1.226-1.2-2.215-1.136-3.537-.039-1.214,1-.066,1.645-.237,3.208s.667,1.943-.431,3.072c-.958.985-1.323-.016-2.7.008s-1.377.043-2.758.066-1.377.209-2.758.233-1.389-.039-2.773-.016-2.079,1.195-2.862.054c-.884-1.284.683-1.544.729-3.1.047-1.683-.489-2.129.706-3.134" transform="translate(-8384.876 1274.974)" fill="#2b2f2f"/>
      <path id="패스_5546" data-name="패스 5546" d="M46.919,62.823l0,.186c0,.217.054-.275,0-.016a1.4,1.4,0,0,1-.047.182l-.027.089c-.043.109-.027.078.043-.089-.07.1-.112.225-.178.326-.047.074-.175.194.027-.023-.043.047-.078.1-.12.144l-.132.132-.093.081.124-.1c-.116.05-.221.151-.337.209-.217.109.143-.047.039-.012-.066.019-.132.047-.2.062a1.2,1.2,0,0,0-.178.039L46,64.014l-.124.008-.182,0c-.217-.008.264.062.05.008a2.507,2.507,0,0,0-.349-.1c.167.074.2.085.093.039l-.081-.043-.159-.093c-.035-.023-.221-.155-.066-.039s-.047-.05-.074-.074c-.047-.043-.089-.089-.132-.136-.058-.066-.132-.225.016.031-.062-.109-.136-.206-.194-.314l-.054-.112.062.147a.768.768,0,0,0-.058-.175c-.019-.074-.035-.144-.05-.213-.016-.085-.008-.039.019.14-.008-.043-.008-.085-.012-.128a1.1,1.1,0,0,0-2.2,0,3.433,3.433,0,0,0,1.043,2.312,3.291,3.291,0,0,0,2.323.95,3.438,3.438,0,0,0,3.243-3.394,1.1,1.1,0,0,0-2.2,0" transform="translate(-8400.633 1294.742)" fill="#fff"/>
      <path id="패스_5547" data-name="패스 5547" d="M44.291,61.477a1.8,1.8,0,0,0,1.466,2.06,1.763,1.763,0,0,0,2.009-1.5A1.8,1.8,0,0,0,46.3,59.98a1.765,1.765,0,0,0-2.013,1.5" transform="translate(-8395.562 1289.654)" fill="#fff"/>
      <path id="패스_5548" data-name="패스 5548" d="M40.943,61.877a1.8,1.8,0,0,0,1.466,2.06,1.763,1.763,0,0,0,2.009-1.5,1.8,1.8,0,0,0-1.462-2.06,1.765,1.765,0,0,0-2.013,1.5" transform="translate(-8405.199 1290.805)" fill="#fff"/>
      <path id="패스_5549" data-name="패스 5549" d="M41.692,61.418a12.515,12.515,0,0,0,1.276,1.206.835.835,0,0,0,.353.225.852.852,0,0,0,.427.1,1.252,1.252,0,0,0,.776-.322,1.122,1.122,0,0,0,.322-.776c-.012-.1-.027-.2-.039-.295a1.138,1.138,0,0,0-.283-.485,11.712,11.712,0,0,1-1.276-1.206,1.275,1.275,0,0,0-.78-.322,1.252,1.252,0,0,0-.776.322,1.107,1.107,0,0,0-.322.78c.012.1.027.194.039.291a1.115,1.115,0,0,0,.283.485" transform="translate(-8403.908 1288.452)" fill="#fff"/>
      <path id="패스_5550" data-name="패스 5550" d="M44.315,59.922c-.213.415-.423.83-.636,1.245a.8.8,0,0,0-.132.407.885.885,0,0,0,.019.438.826.826,0,0,0,.2.372.839.839,0,0,0,.31.283,1.094,1.094,0,0,0,1.5-.392c.213-.415.427-.83.636-1.245a.83.83,0,0,0,.132-.407.841.841,0,0,0-.019-.438.86.86,0,0,0-.2-.376.827.827,0,0,0-.306-.283,1.121,1.121,0,0,0-.849-.109,1.1,1.1,0,0,0-.656.5" transform="translate(-8397.695 1287.978)" fill="#fff"/>
      <path id="패스_5551" data-name="패스 5551" d="M60.915,67.423l-2.471-1.412-2.839-.756-2.959.089-2.979-.182-2.909.671-2.292,1.532-.109,2.6L41.89,71.019l-2.145,1.827.128,2.7L41.7,77.5l2.742.566,2.828-.756,1.567,1.924,3.371.547,3.456-.3,3.2-1,1.094-2.595.842-2.785.648-2.878ZM42.72,75.347,42.635,73.3l2.036-.822.989,2.967Z" transform="translate(-8408.586 1304.637)" fill="#fff" fill-rule="evenodd"/>
      <path id="패스_5552" data-name="패스 5552" d="M54.606,67.414,51.682,68.97l-3.576.12-3.553-.268-3.169-1.408,3.15-1.517,3.572-.233,3.545.372Z" transform="translate(-8403.868 1306.085)" fill="#743f1a" fill-rule="evenodd"/>
      <path id="패스_5553" data-name="패스 5553" d="M32.124,57.015a39.588,39.588,0,0,1,11.566-.136c-.291-.38-.578-.76-.869-1.14a28.82,28.82,0,0,0-.256,5.6.921.921,0,0,0,1.14.869,18.051,18.051,0,0,1,3.332-.128c1.16.054,1.156-1.745,0-1.8a20.854,20.854,0,0,0-3.809.194c.38.287.76.578,1.14.869a26.3,26.3,0,0,1,.19-5.124.925.925,0,0,0-.869-1.14,40.989,40.989,0,0,0-12.047.2c-1.14.186-.656,1.924.481,1.738" transform="translate(-8433.782 1274.598)" fill="#c4cbdc"/>
      <path id="패스_5554" data-name="패스 5554" d="M49.839,61.7c.935,0,1.87-.012,2.808-.016a7.3,7.3,0,0,0,2.4-.144c1.408-.512,1.315-2.7,1.52-3.917.027-.159.116-.628.112-.624.225-.151.935-.05,1.206-.058q1.391-.058,2.773-.112l5.706-.233c1.156-.047,1.16-1.85,0-1.8l-5.38.221q-1.385.052-2.769.112a6.066,6.066,0,0,0-2.339.256c-1.288.624-1.195,2.665-1.4,3.867-.066.4,0,.539-.345.624a6.277,6.277,0,0,1-1.323.008c-.989.008-1.982.012-2.971.015a.9.9,0,0,0,0,1.8" transform="translate(-8382.037 1274.775)" fill="#c4cbdc"/>
      <path id="패스_5555" data-name="패스 5555" d="M43.345,52.4c-1.311-.155-1.885,1.54-1.385,2.521.566,1.109,1.951,1.156,3.029,1.187a11.249,11.249,0,0,0,3.545-.322,2.473,2.473,0,0,0,1.586-.985,1.088,1.088,0,0,0-.869-1.679.9.9,0,1,0,0,1.8l.054,0c-.151-.039-.3-.081-.454-.12l-.112-.089c-.078-.136-.155-.268-.233-.4a.465.465,0,0,1,.031-.376c.031-.058.035-.062.008-.016-.074.1.093-.124.112-.109,0,0-.372.159-.4.167a6.282,6.282,0,0,1-1.067.256,12.8,12.8,0,0,1-2.1.07c-.337-.008-.683-.012-1.02-.047.1.012.008,0-.039-.008-.093-.016-.182-.039-.272-.062-.047-.012-.128-.047-.039,0,0,0-.206-.1-.136-.07q.064.052-.047-.047l.039.062c-.043-.074-.047-.078-.019-.016s.023.062.008.012c-.066-.085,0-.128-.008,0,0-.039-.027-.2,0-.089-.012.074,0,.07.012-.016l-.043.089c.027-.054.12-.12.035-.07-.039.019-.2.14-.07.074-.058.031-.314.066-.155.085a.909.909,0,0,0,.9-.9.924.924,0,0,0-.9-.9" transform="translate(-8402.726 1267.863)" fill="#c4cbdc"/>
      <path id="패스_5556" data-name="패스 5556" d="M41.879,53.835c-.093,1.156-.182,2.312-.275,3.468a.906.906,0,0,0,.9.9.931.931,0,0,0,.9-.9q.134-1.734.275-3.468a.906.906,0,0,0-.9-.9.921.921,0,0,0-.9.9" transform="translate(-8403.242 1269.438)" fill="#c4cbdc"/>
      <path id="패스_5557" data-name="패스 5557" d="M42.208,55.763a31.9,31.9,0,0,0,9.033.729.924.924,0,0,0,.9-.9.9.9,0,0,0-.9-.9,30.215,30.215,0,0,1-8.553-.667.928.928,0,0,0-1.109.628.908.908,0,0,0,.628,1.109" transform="translate(-8403.388 1272.526)" fill="#c4cbdc"/>
      <path id="패스_5558" data-name="패스 5558" d="M40.609,54.129c-2.176.834-4.767,3.324-2.052,5.341,1.431,1.063,3.611,1.28,5.3,1.633,2.246.469,4.515.826,6.792,1.074a67.421,67.421,0,0,0,14.289.031c3.933-.411,7.889-1.152,11.132-3.553.923-.683.019-2.246-.912-1.555-5,3.7-12.268,3.755-18.242,3.662a65.858,65.858,0,0,1-10.178-.939q-2.414-.413-4.786-1c-.531-.132-1.7-.248-2.1-.659-1.319-1.346.361-1.951,1.241-2.292,1.071-.411.6-2.153-.481-1.738" transform="translate(-8415.361 1272.694)" fill="#c4cbdc"/>
      <path id="패스_5559" data-name="패스 5559" d="M35.707,56.255c-.671,5.062,7.2,6.443,10.748,7.172a72.262,72.262,0,0,0,16.756,1.307,57.944,57.944,0,0,0,14.906-2.157c2.967-.9,6.52-2.234,8.126-5.1a.9.9,0,0,0-1.555-.912c-1.4,2.49-4.728,3.588-7.292,4.344A55.219,55.219,0,0,1,64.51,62.88,75.033,75.033,0,0,1,50.547,62.3c-3.076-.427-13.626-1.606-13.036-6.047.151-1.144-1.652-1.136-1.8,0" transform="translate(-8420.326 1276.533)" fill="#c4cbdc"/>
      <path id="패스_5560" data-name="패스 5560" d="M38.171,55.706c-2.416,2.63-2.572,6.823-3.037,10.185A36.768,36.768,0,0,0,35.6,78.723a30.564,30.564,0,0,0,13.572,19.77c.993.609,1.9-.95.911-1.555a28.654,28.654,0,0,1-12.614-18.1,34.913,34.913,0,0,1-.725-11.388c.31-3.134.462-8.033,2.7-10.465.784-.853-.489-2.133-1.276-1.276" transform="translate(-8422.876 1276.601)" fill="#c4cbdc"/>
      <path id="패스_5561" data-name="패스 5561" d="M50.449,66.787a57.191,57.191,0,0,1,7.649.058c2.393.213,4.771-.019,7.16.078,1.389.058,2.781.14,4.177.221v-4.2c-4.751.341-9.476.5-14.231.38-2.432-.062-2.432,4.135,0,4.2,4.755.12,9.48-.039,14.231-.38,2.416-.171,2.432-4.049,0-4.2-2.556-.151-5.089-.291-7.653-.194-2.378.089-4.736-.318-7.11-.295-1.408.016-2.82.07-4.224.132-2.424.1-2.432,4.3,0,4.2" transform="translate(-8383.016 1296.852)" fill="#49a123"/>
      <path id="패스_5562" data-name="패스 5562" d="M50.132,65.742c2.222.116,4.449.209,6.667.353,2.42.151,4.821-.023,7.245.078,1.2.05,2.4.229,3.6.365.993.116,1.427-1.54.52-1.955l-2.3-1.047c-1.195-.547-2.238,1.261-1.036,1.811l2.3,1.047c.171-.652.345-1.3.516-1.955a40.081,40.081,0,0,0-6.536-.427c-2.444.12-4.844-.054-7.288-.175-1.23-.062-2.455-.128-3.685-.194-1.319-.07-1.315,2.029,0,2.1" transform="translate(-8381.528 1299.659)" fill="#512d15"/>
      <path id="패스_5563" data-name="패스 5563" d="M50.451,68.529c2.285.054,4.573.093,6.854.229,2.49.147,4.976.1,7.467.229.551.027,1.094.008,1.641,0,.438-.008.877-.019,1.315-.027.128,0,.264,0,.4-.008-.334.031-.326-.047.047.012a1.647,1.647,0,0,0,1.963-1.136c.431-1.191-.1-1.877-.69-2.828a13.13,13.13,0,0,0-1.424-2.222,8.652,8.652,0,0,0-2.362-1.319,8.941,8.941,0,0,0-2.769-.442,16.331,16.331,0,0,0-4.274-.206,16.293,16.293,0,0,0-4.523,1.237,10.355,10.355,0,0,0-2.362,1.342c-.69.624-1.354,1.284-2.032,1.916-.943.892-.268,2.956,1.129,2.789.438-.054,6.559-.884,6.524-1.043,0-.008-.733.1,0,0l1.117-.124c.508-.066,1.02-.151,1.528-.182,1.036-.066,2.087,0,3.118,0a1.631,1.631,0,0,0,0-3.262c-1.517-.178-2.987-.287-4.515-.33-2.056-.047-2.052,3.2,0,3.266,1.233.039,2.471.081,3.7.116a1.629,1.629,0,0,0,0-3.258l-1.3-.163c-.337-.047-.675-.085-1.008-.128-.1-.012-.2-.027-.295-.035-.206-.023-.155-.1.039,0s.24.047.081,0c-.109-.027-.221-.035-.334-.058-.3-.054-.605-.112-.908-.167l-1.365-.26c-.144,1.071-.283,2.133-.427,3.2.555.019,1.109.031,1.664.05a8.681,8.681,0,0,0,1.831.054c-.089.163-.582-.116-.306-.031.132.035.279.054.415.085.384.078.764.155,1.148.237.555.112,1.113.225,1.668.345.143-1.067.283-2.141.427-3.2l-3.533.058c-2.06.031-2.04,3.153,0,3.262,1.691.085,3.378.182,5.066.279-.14-1.063-.279-2.137-.423-3.2l-.609.1a1.626,1.626,0,0,0-1.168,1.571,1.7,1.7,0,0,0,1.168,1.575c.275.109.551.217.826.322a1.6,1.6,0,0,0,1.959-1.14,1.672,1.672,0,0,0-1.113-2.005c-.275-.1-.547-.213-.822-.322v3.146l.609-.1a1.639,1.639,0,0,0-.427-3.2q-2.531-.151-5.066-.279v3.262c1.179-.023,2.354-.043,3.533-.058,1.734-.031,2.242-2.828.423-3.2a30.735,30.735,0,0,0-3.762-.749c-1.16-.1-2.343-.074-3.506-.109-1.757-.054-2.219,2.866-.423,3.2,1.978.372,3.941.671,5.934.915V63.277c-1.233-.043-2.471-.081-3.7-.124v3.266c1.528.039,3,.144,4.515.326V63.483a48.318,48.318,0,0,0-6.175.361c-.411.054-3.437.675-3.437.667s.613-.078.295-.047c-.1.016-.2.023-.3.043-.376.039-.752.089-1.125.136-.516.062-1.032.124-1.544.19.376.923.752,1.858,1.129,2.781.512-.485,1.024-.966,1.536-1.451.066-.058.547-.617.632-.6.128.031-.574.33-.128.159.112-.05.221-.112.33-.167a15.287,15.287,0,0,0,2.122-1.067c-.392.279-.291.132.163.047l1.2-.244,1.2-.244c.132-.023.268-.047.4-.078.291-.089-.326-.039-.275.035.058.089.8.054.9.062.434.035.869.062,1.3.093,1.171.081,2.335.2,3.506.326-.271-.074-.539-.147-.807-.217q1.03.529,2.052,1.067l-.57-.578q.937,1.5,1.87,3c-.054-.415-.109-.838-.159-1.253l-.167.45c.656-.376,1.307-.76,1.963-1.14a25.056,25.056,0,0,0-3.817-.07c-1.109-.019-2.211-.155-3.316-.151-2.544.016-5.069-.14-7.614-.225-1.272-.047-2.544-.074-3.821-.1-2.052-.054-2.052,3.208,0,3.258" transform="translate(-8382.196 1291.86)" fill="#eeb877"/>
      <path id="패스_5564" data-name="패스 5564" d="M69.354,64.07c-5.2.012-10.418-.283-15.612.012-1.377.078-2.8-.376-4.131.1a1.09,1.09,0,0,0-.233,1.916c.6.361,1.195.784,1.823,1.09a5.708,5.708,0,0,0,2.114.287c.155.008,1.117.081.574.016.326.039.652.1.974.159a13.8,13.8,0,0,0,1.9.256,43.159,43.159,0,0,0,4.309-.24c1.167-.093,2.327.066,3.495-.078a16.2,16.2,0,0,0,2.246-.31c.776-.213,1.54-.547,2.3-.818.993-.353.9-2.149-.264-2.063a20.782,20.782,0,0,1-3.025.155,28.989,28.989,0,0,0-3.483-.085c-1.152.05-2.285.186-3.433.318a21.608,21.608,0,0,1-3.006-.019v2.1q2.38.006,4.751.074v-2.1c-1.307.066-2.614.128-3.921.194a1.057,1.057,0,0,0,0,2.1c1.994.058,3.952.05,5.942-.027a1.055,1.055,0,0,0,0-2.1c-2.49-.047-4.972-.019-7.463-.167v2.1c1.284.039,2.564.081,3.844.12v-2.1c-1.8-.043-3.565-.147-5.36-.318v2.1l.7-.023-.26-2.063c-.322.054-.644.112-.966.171-1.245.217-.718,2.238.52,2.025.322-.058.644-.116.966-.171,1.1-.194.83-2.1-.26-2.063-.233.008-.469.016-.7.027a1.055,1.055,0,0,0,0,2.1c1.8.171,3.557.275,5.36.318,1.264.031,1.261-2.06,0-2.1-1.28-.043-2.56-.081-3.844-.124-1.264-.039-1.253,2.029,0,2.1,2.49.144,4.973.12,7.463.163v-2.1c-1.99.074-3.948.085-5.942.023v2.1l3.921-.2a1.055,1.055,0,0,0,0-2.1q-2.374-.07-4.751-.074c-1.264,0-1.261,2.067,0,2.1a21.6,21.6,0,0,0,3.006.023c1.148-.136,2.281-.268,3.433-.322a28.993,28.993,0,0,1,3.483.085A20.779,20.779,0,0,0,68.85,66.5c-.085-.69-.171-1.377-.26-2.063-.675.241-1.358.465-2.029.721-.109.043-.221.078-.334.12-.035.012.368-.05.07,0-.388.062-.787.1-1.179.147-1.276.159-2.49.062-3.77.116-1.253.054-2.478.252-3.739.264-.349,0-.7-.008-1.047.008-.155,0,.368.062.027.012-.19-.027-.376-.062-.566-.093-.644-.1-1.288-.237-1.939-.3-.217-.023-2.281-.206-2.3-.147.023-.1.71.334.213-.015-.19-.132-.4-.241-.6-.357l-1.032-.617-.233,1.92a2.528,2.528,0,0,1,.33-.109c.341-.07.124-.05.124-.05.388-.012.791.05,1.179.074.547.035,1.1.089,1.645.078,1.385-.039,2.734-.132,4.119-.089,1.257.039,2.5-.07,3.751-.07,1.218,0,2.44.1,3.658.116,1.47.016,2.944.016,4.414.012,1.261,0,1.264-2.1,0-2.1" transform="translate(-8382.222 1301.148)" fill="#eeb877"/>
      <path id="패스_5565" data-name="패스 5565" d="M51.744,61.685l.206.264a.271.271,0,0,0,.112.074.284.284,0,0,0,.14.031.358.358,0,0,0,.353-.357l-.012-.093a.305.305,0,0,0-.093-.155c-.066-.089-.136-.178-.2-.264a.27.27,0,0,0-.116-.074A.242.242,0,0,0,52,61.08a.358.358,0,0,0-.357.353l.012.1a.4.4,0,0,0,.093.155" transform="translate(-8374.347 1292.882)" fill="#d38a3c"/>
      <path id="패스_5566" data-name="패스 5566" d="M52.611,61.909l.144.175a.284.284,0,0,0,.116.074.26.26,0,0,0,.136.031.36.36,0,0,0,.248-.1.333.333,0,0,0,.1-.248l-.012-.093a.328.328,0,0,0-.089-.155l-.147-.175a.238.238,0,0,0-.112-.074.269.269,0,0,0-.136-.031.358.358,0,0,0-.353.353l.016.093a.347.347,0,0,0,.089.155" transform="translate(-8371.851 1293.542)" fill="#d38a3c"/>
      <path id="패스_5567" data-name="패스 5567" d="M52.18,62.071l.012.225a.244.244,0,0,0,.047.128.259.259,0,0,0,.089.1.35.35,0,0,0,.493-.066l.047-.081a.356.356,0,0,0,.023-.178l-.012-.229a.386.386,0,0,0-.136-.233.372.372,0,0,0-.264-.066.336.336,0,0,0-.229.136l-.047.081a.351.351,0,0,0-.023.178" transform="translate(-8372.797 1294.587)" fill="#d38a3c"/>
      <path id="패스_5568" data-name="패스 5568" d="M50.8,61.372l-.093.178a.36.36,0,0,0,.407.531.35.35,0,0,0,.217-.167l.1-.175a.4.4,0,0,0,.035-.283.387.387,0,0,0-.167-.217.37.37,0,0,0-.279-.035.36.36,0,0,0-.217.167" transform="translate(-8377.165 1293.206)" fill="#d38a3c"/>
      <path id="패스_5569" data-name="패스 5569" d="M51.222,61.984V62.1a.408.408,0,0,0,.074.237.233.233,0,0,0,.182.1.225.225,0,0,0,.175-.1.385.385,0,0,0,.078-.237v-.112a.4.4,0,0,0-.078-.24.215.215,0,0,0-.175-.1.228.228,0,0,0-.182.1.42.42,0,0,0-.074.24" transform="translate(-8375.547 1294.515)" fill="#d38a3c"/>
      <path id="패스_5570" data-name="패스 5570" d="M53.493,62.119l.112.128a.384.384,0,0,0,.275.136.266.266,0,0,0,.237-.14.473.473,0,0,0,.054-.326.672.672,0,0,0-.163-.337c-.035-.047-.074-.089-.109-.132a.4.4,0,0,0-.275-.136.275.275,0,0,0-.24.14.512.512,0,0,0-.054.33.723.723,0,0,0,.163.337" transform="translate(-8369.502 1293.554)" fill="#d38a3c"/>
      <path id="패스_5571" data-name="패스 5571" d="M59.217,78.439s1.815-2.382-.144-3.254-5.046,3.13-5.046,3.13-2.835,2.665-9.538.423c-3.471-1.164-4.418-4.5-3.681-8.467a8.312,8.312,0,0,1-1.4-2.575,36.012,36.012,0,0,1-2.358-5.609,44.6,44.6,0,0,0-2.533,14.181c.066,9.138,16.519,9.065,16.519,9.065s1.032,3.673,3.2,3.215,1.866-3.173,1.866-3.173a3.185,3.185,0,0,0,4.115.749c2.606-1.319-1.7-4.092-1.7-4.092s3.293,2.056,3.917-.721-3.208-2.87-3.208-2.87" transform="translate(-8423.647 1295.782)" fill="#2b2f2f" fill-rule="evenodd"/>
      <path id="패스_5572" data-name="패스 5572" d="M39.395,71.059a6.9,6.9,0,0,0,2.358-.628,9.92,9.92,0,0,0,1.493-.78c.807-.6,1.109-1.714,1.648-2.428a1.385,1.385,0,0,1,1.877,0,1.213,1.213,0,0,1,.229.624c0,.081,0,.089-.093.163-.233.19-.745.334-1.059.543a.907.907,0,0,0,.694,1.648,3.343,3.343,0,0,1,3.13.97c.752.884,2.021-.4,1.276-1.272a5.208,5.208,0,0,0-4.883-1.435c.229.547.462,1.1.694,1.645a9.786,9.786,0,0,0,1.42-.822,2.041,2.041,0,0,0,.524-2.079,2.84,2.84,0,0,0-3.056-2.126,2.944,2.944,0,0,0-1.974.807,3.159,3.159,0,0,0-.489.7c-.035.062-.066.128-.1.19-.054.085-.043.07.039-.043-.085.1-.167.206-.248.31-.213.31-.287.71-.528,1a1.652,1.652,0,0,1-.628.4,7.489,7.489,0,0,1-2.323.807.927.927,0,0,0-.9.9.905.905,0,0,0,.9.9" transform="translate(-8412.185 1304.387)" fill="#c4cbdc"/>
    </g>
  </g>
</svg>
