<svg xmlns="http://www.w3.org/2000/svg" width="110" height="120" viewBox="0 0 110 120">
  <g id="그룹_1812" data-name="그룹 1812" transform="translate(-21 -1558)">
    <g id="사각형_1971" data-name="사각형 1971" transform="translate(21 1558)" fill="#53a9df" stroke="#000" stroke-width="2">
      <rect width="110" height="120" stroke="none"/>
      <rect x="1" y="1" width="108" height="118" fill="none"/>
    </g>
    <g id="그룹_1811" data-name="그룹 1811">
      <g id="그룹_1608" data-name="그룹 1608" transform="translate(8556.441 92)">
        <path id="패스_5617" data-name="패스 5617" d="M2.39,112.629c0-7.141,14.592-15.67,30.971-15.212,19.913.551,36.565,4.526,36.782,15.212.186,9.224-7.141,33.353-21.112,39.6-3.281,1.47-8.405,1.625-11.683,1.652-4.732.047-8.94.1-13.525-2.327C12.11,145.338,2.39,130.343,2.39,112.629" transform="translate(-8516.12 1397.439)" fill="#3b3438"/>
        <path id="패스_5618" data-name="패스 5618" d="M11.084,106.357s-12.974,3.615-8.781,9.068c5.124,6.66,13.87,4.08,13.87,4.08l-3.316-4.08s-9.883-.784-5.954-3.739c4.91-3.7,6.19-1.645,6.19-1.645Z" transform="translate(-8518.774 1423.225)" fill="#3b3438"/>
        <path id="패스_5619" data-name="패스 5619" d="M21.775,106.828s12.974,3.615,8.781,9.068c-5.124,6.66-13.87,4.08-13.87,4.08L20,115.9s9.883-.784,5.954-3.739c-4.91-3.7-6.19-1.645-6.19-1.645Z" transform="translate(-8474.966 1424.581)" fill="#3b3438"/>
        <path id="패스_5620" data-name="패스 5620" d="M38.978,97.474a61.517,61.517,0,0,0-12.784.167,48.54,48.54,0,0,0-12.745,2.343c-3.169,1.171-8.553,3.126-10.077,6.4-1.423,3.064-.562,6.474,2.44,7.982,4.779,2.4,10.69,3.231,15.941,3.859a110.068,110.068,0,0,0,18.265.469A101.734,101.734,0,0,0,58.05,116.53c3.444-.8,9.743-1.827,10.441-6.218.749-4.717-6.6-8.141-9.988-9.538-6.187-2.552-12.9-3.118-19.525-3.3a.949.949,0,0,0,0,1.9c6.09.167,12.268.64,18.013,2.828,2.649,1.012,5.942,2.482,7.878,4.627,4.55,5.042-3.2,6.854-6.163,7.6-11.039,2.769-23.311,3.181-34.614,2.153a72.073,72.073,0,0,1-9.584-1.489c-2.529-.574-5.973-1.078-8.145-2.552-3.53-2.4-1.024-6.093,1.555-7.711a32.7,32.7,0,0,1,7.009-3.355,50.887,50.887,0,0,1,12.148-2.005,58.989,58.989,0,0,1,11.9-.093c1.206.147,1.2-1.749,0-1.9" transform="translate(-8515.221 1396.866)" fill="#615a5e"/>
        <path id="패스_5621" data-name="패스 5621" d="M4.323,107.814c19.153,3.413,39.594,6.485,57.762-2.471,1.094-.539.136-2.176-.958-1.637-17.656,8.708-37.709,5.593-56.3,2.281-1.195-.213-1.707,1.614-.5,1.827" transform="translate(-8512.529 1415.286)" fill="#615a5e"/>
        <path id="패스_5622" data-name="패스 5622" d="M5.2,109.429a152.366,152.366,0,0,0,26.336,3.378c8.145.345,16.4-.562,23.586-4.654a.948.948,0,0,0-.954-1.637c-7.2,4.1-15.48,4.779-23.61,4.348A152.752,152.752,0,0,1,5.7,107.6c-1.191-.264-1.695,1.563-.5,1.827" transform="translate(-8509.992 1423.302)" fill="#615a5e"/>
        <path id="패스_5623" data-name="패스 5623" d="M19.406,105.963c-.12.531-.745.493-1.167.314-.365-.151-.671-.427-1.032-.59a2.2,2.2,0,0,0-1.392-.151,12.119,12.119,0,0,1-2.316.687c-.465,0-1.129-.155-1.327-.64a.972.972,0,0,0-1.164-.663.952.952,0,0,0-.663,1.164,3.145,3.145,0,0,0,2.288,1.951,4.526,4.526,0,0,0,1.769-.019,11.341,11.341,0,0,0,1.61-.57c.446-.155.679.144,1.059.361a3.561,3.561,0,0,0,1.749.493,2.472,2.472,0,0,0,2.413-1.831c.272-1.187-1.555-1.695-1.827-.5" transform="translate(-8493.36 1418.987)" fill="#fff"/>
        <path id="패스_5624" data-name="패스 5624" d="M12.049,105.466a1.534,1.534,0,1,1-1.536-1.536,1.535,1.535,0,0,1,1.536,1.536" transform="translate(-8497.146 1416.238)" fill="#fff"/>
        <path id="패스_5625" data-name="패스 5625" d="M11.524,112.4A33.107,33.107,0,0,0,7.381,127.98a5.982,5.982,0,0,0,3.673,5.465,5.694,5.694,0,0,0,3.1.407,5.523,5.523,0,0,0,3.433-1.645c.078-.093.155-.19.237-.283a6.432,6.432,0,0,0,1.749-4.228,6.091,6.091,0,0,0-1.749-4.228,6,6,0,0,0-4.228-1.749,5.854,5.854,0,0,0-4.228,1.749l-.237.287,10.2,4.224a28.124,28.124,0,0,1,.244-3.328c-.074.531-.144,1.063-.213,1.59a27.155,27.155,0,0,1,1.815-6.636c-.2.477-.4.95-.6,1.427a27.242,27.242,0,0,1,1.268-2.6,6.259,6.259,0,0,0,.6-4.608,6.113,6.113,0,0,0-2.746-3.572,6.025,6.025,0,0,0-4.608-.6,6.128,6.128,0,0,0-3.572,2.746" transform="translate(-8501.753 1432.05)" fill="#3b3438"/>
        <path id="패스_5626" data-name="패스 5626" d="M11.827,117.108a53.288,53.288,0,0,1,3.056,11.78c-.074-.527-.144-1.059-.217-1.586q.285,2.124.407,4.263a6.122,6.122,0,0,0,2.959,5.163,6.025,6.025,0,0,0,6.035,0,9.558,9.558,0,0,1,1.09-.551c-.473.2-.95.4-1.427.6a9.579,9.579,0,0,1,2.122-.566c-.531.07-1.059.143-1.59.213a10.13,10.13,0,0,1,2.447,0c-.528-.07-1.059-.144-1.59-.213a10.153,10.153,0,0,1,2.366.632l-1.427-.605a9.973,9.973,0,0,1,1.908,1.086c-.4-.31-.807-.621-1.21-.935a10.114,10.114,0,0,1,1.086.989,6.032,6.032,0,0,0,8.456,0,6.1,6.1,0,0,0,0-8.452,15.115,15.115,0,0,0-18.265-2.517q4.5,2.577,8.995,5.159a57.9,57.9,0,0,0-3.673-17.633,6.464,6.464,0,0,0-2.746-3.572,5.976,5.976,0,0,0-8.18,2.141,5.851,5.851,0,0,0-.6,4.608" transform="translate(-8489.69 1432.379)" fill="#3b3438"/>
        <path id="패스_5627" data-name="패스 5627" d="M21.5,113.842a72.611,72.611,0,0,0-12.509,2.017,5.984,5.984,0,0,0-4.177,7.354,6.054,6.054,0,0,0,2.75,3.572,6.3,6.3,0,0,0,4.6.6,63.613,63.613,0,0,1,7.179-1.408c-.531.07-1.059.14-1.59.213,1.245-.167,2.49-.3,3.743-.4a6.367,6.367,0,0,0,4.228-1.749,5.984,5.984,0,0,0,0-8.456,5.9,5.9,0,0,0-4.228-1.749" transform="translate(-8509.777 1444.74)" fill="#3b3438"/>
        <path id="패스_5628" data-name="패스 5628" d="M16.181,103.756a10.859,10.859,0,0,0-2.537,1.8.68.68,0,0,0,.3,1.129c1.148.24,2.3.477,3.444.718a.678.678,0,0,0,.361-1.307c-1.148-.237-2.3-.477-3.444-.714.1.376.2.752.3,1.129.175-.163.353-.322.539-.477l.14-.112c.155-.124-.1.078.054-.043l.291-.209a10.533,10.533,0,0,1,1.237-.741.677.677,0,0,0,.244-.923.694.694,0,0,0-.927-.244" transform="translate(-8484.278 1415.493)" fill="#fff"/>
        <path id="패스_5629" data-name="패스 5629" d="M3.519,100.387c-3.1,8.192-.058,16.752,3.246,24.35.485,1.113,2.118.151,1.637-.958-3.111-7.148-5.965-15.185-3.056-22.888.434-1.144-1.4-1.637-1.827-.5" transform="translate(-8516.581 1404.193)" fill="#1a1311"/>
        <path id="패스_5630" data-name="패스 5630" d="M4.72,109.845a22.377,22.377,0,0,0,11.593,11.016.949.949,0,0,0,1.164-.663.968.968,0,0,0-.659-1.164A20.463,20.463,0,0,1,6.357,108.887a.953.953,0,0,0-1.3-.337.966.966,0,0,0-.341,1.3" transform="translate(-8509.742 1429.181)" fill="#1a1311"/>
        <path id="패스_5631" data-name="패스 5631" d="M6.667,108.6,6.6,107.362a.889.889,0,0,1,.213-.71c.221-.264.88-.237.88-.237a45.989,45.989,0,0,1,6.194.186,4.012,4.012,0,0,1,1.3.225c.322.175.38.652.357,1.191a7.6,7.6,0,0,1-.112.958Z" transform="translate(-8504.024 1423.305)" fill="#c9c9c9"/>
        <path id="패스_5632" data-name="패스 5632" d="M46.178,111.636c-.054-.8-.233-2.89-.78-3.471a2.378,2.378,0,0,0-1.451-.791c-4.461-.361-9.006-.365-13.626-.419-7.051-.078-14.1.008-21.154.1a3.617,3.617,0,0,0-1.7.3,3.348,3.348,0,0,0-1.354,2.471,24.355,24.355,0,0,0-.345,4.247c6.6.07,31.895.361,40.505.462,0-.97-.027-1.935-.093-2.894" transform="translate(-8506.401 1424.858)" fill="#1a1311"/>
        <path id="패스_5633" data-name="패스 5633" d="M46.271,109.225c-8.611-.1-33.9-.392-40.505-.458a64.735,64.735,0,0,0,.388,6.71L7.2,126.3a1.53,1.53,0,0,0,.314.95,1.551,1.551,0,0,0,1.125.322c11.9.182,17.078.368,28.974.551.33,0,4.759-.043,7.513-.07a2.039,2.039,0,0,0,2.017-2.184c-.283-4.135-.865-13.056-.877-16.644" transform="translate(-8506.405 1430.162)" fill="#c9c9c9"/>
        <path id="패스_5634" data-name="패스 5634" d="M10.629,111.978a4.74,4.74,0,0,0-.3,5.221,6.662,6.662,0,0,0,4.449,3.219,6.345,6.345,0,0,0,7.362-4.236,4.221,4.221,0,0,0,.182-1.412,4.288,4.288,0,0,0-.582-1.811,6.792,6.792,0,0,0-5.442-3.281,7.5,7.5,0,0,0-5.612,2.246" transform="translate(-8495.091 1432.758)" fill="#fff"/>
        <path id="패스_5635" data-name="패스 5635" d="M10.66,111.992c-1.9,2.157-1.427,5.453.31,7.552a7.708,7.708,0,0,0,7.517,2.544,7.226,7.226,0,0,0,5.419-5.112c.741-3.014-1.47-5.779-4.131-6.927a8.286,8.286,0,0,0-9.057,1.889c-.931.9.489,2.323,1.42,1.42a6.342,6.342,0,0,1,5.76-1.823c1.877.434,4.154,2.025,4.162,4.166a4.866,4.866,0,0,1-3.227,4.189,5.66,5.66,0,0,1-5.539-.865c-1.524-1.2-2.7-3.917-1.214-5.612.857-.966-.562-2.393-1.42-1.42" transform="translate(-8495.835 1432.034)" fill="#1a1311"/>
        <path id="패스_5636" data-name="패스 5636" d="M19.759,107.913a45.646,45.646,0,0,0-5.64-.233,1.01,1.01,0,1,0,0,2.021,46.426,46.426,0,0,1,5.64.233,1.017,1.017,0,0,0,1.012-1.008,1.039,1.039,0,0,0-1.012-1.012" transform="translate(-8485.272 1426.994)" fill="#dfdfde"/>
        <path id="패스_5637" data-name="패스 5637" d="M7.42,107.282A7.476,7.476,0,0,0,5.666,112.8c.043,2.948.353,5.911.543,8.855s.341,5.888.559,8.828c.136,1.776.652,2.9,2.568,3.056,2.948.24,6,.039,8.956.039q4.759.006,9.511-.012,9.507-.041,19.017-.175a1.011,1.011,0,0,0,0-2.021q-15.453.215-30.9.182c-1.191,0-2.378-.008-3.568-.012-1.327,0-3.076.427-3.561-1.059a17.527,17.527,0,0,1-.244-3.84c-.07-1.152-.144-2.3-.217-3.452l-.489-7.68c-.144-2.223-.652-5.015,1.008-6.8.888-.95-.539-2.382-1.427-1.427" transform="translate(-8506.693 1424.98)" fill="#1a1311"/>
        <path id="패스_5638" data-name="패스 5638" d="M16.6,106.095q-3.084-.052-6.163-.035c-.908,0-2.083-.175-2.731.613a1.985,1.985,0,0,0-.384,1.315,6.621,6.621,0,0,0,.031.733c.012.12.023.244.039.365.012.093,0,.508.062.244.085-.147.171-.295.26-.446.093-.089.295-.147.058-.085a2.385,2.385,0,0,0-.368.155,2.546,2.546,0,0,0-.605.427,2.767,2.767,0,0,0-.737,1.191c-.423,1.233,1.532,1.765,1.947.539a.667.667,0,0,1,.481-.415,1.281,1.281,0,0,0,.97-1.276c-.008-.26-.074-.528-.093-.791-.019-.233.019-.5-.023-.733,0,0-.016-.151.008-.12a.486.486,0,0,1-.268.318c-.027.008-.008.012.058,0a3.076,3.076,0,0,0,.822-.008q3.316-.029,6.636.031a1.011,1.011,0,0,0,0-2.021" transform="translate(-8505.715 1422.327)" fill="#1a1311"/>
        <path id="패스_5639" data-name="패스 5639" d="M20.367,118.531c-.066.128-.132.256-.206.38-.05.085-.1.167-.159.248.314-.384.4-.489.248-.314-.093.1-.493.446-.054.1.237-.167.264-.2.081-.089.524-.19.64-.256.345-.194.264-.035.528-.07.8-.109a.884.884,0,0,1-.268-.008c.264.035.528.074.8.109-.295-.074-.175-.019.357.167a1.886,1.886,0,0,1,.718.721c-.147-.264-.1-.144.132.357a1.449,1.449,0,0,1-.062-.256l.1.791a2.249,2.249,0,0,1-.012-.4l-.1.791a1.4,1.4,0,0,1,.054-.283c.1-.295.058-.206-.12.272.05-.093.1-.186.163-.275-.291.365-.368.458-.221.283.128-.144.252-.287.384-.423.078-.081.159-.159.24-.233a1.712,1.712,0,0,1-.733.45l-.8.1h.155c-.264-.035-.528-.07-.8-.109l.155.047V114.9a2.188,2.188,0,0,1-.473.128l.8-.1a2.8,2.8,0,0,1-.477,0l.8.1a3.457,3.457,0,0,1-.4-.078c-.1-.027-.477-.175-.039.008.473.2,0-.016-.1-.074q-.192-.111-.372-.233c-.085-.058-.419-.318-.05-.023.388.306,0-.008-.085-.081a1.851,1.851,0,0,0-.237-.225c.272.388.345.485.229.291s-.066-.081.163.365l.1.791a.844.844,0,0,1,0-.279c-.035.264-.074.531-.109.8q.2-.739-.555.884c.209-.206.1-.128-.31.229-.733.423-.446.151-.085.1l-.8.1a2.382,2.382,0,0,1,.438.016c-.268-.035-.531-.074-.8-.109a17.309,17.309,0,0,1,1.683.535,2.993,2.993,0,0,0,2.3-5.461,15.652,15.652,0,0,1-1.815-1.051c-.128-.089-.256-.186-.388-.275-.322-.221.5.454.128.093-.206-.194-.372-.512.016.109-.287-.458.175.663.035.1l.1.791a1.367,1.367,0,0,1-.019-.334c-.039.264-.074.528-.109.8.058-.31.008-.229-.155.237a1.5,1.5,0,0,1-.485.547,1.337,1.337,0,0,1-.644.345,1.654,1.654,0,0,1,.275-.058c-.264.035-.528.074-.8.109A2.572,2.572,0,0,1,19.8,114l-.8-.1c.116.019.229.054.341.078.559.124-.423-.225-.144-.07.221.12.45.225.671.341.52.279,1.032.574,1.528.888.12.078.729.508.337.2-.442-.349.31.209.318.33,0-.085-.442-.516-.182-.19.291.361-.116-.256-.1-.252.109.043.167.725.186.83-.039-.264-.074-.528-.109-.8a12.325,12.325,0,0,1,.089,2.777c.035-.264.07-.527.109-.8-.035.233-.093.454-.14.679-.109.5.341-.617.07-.14a2.092,2.092,0,0,1-.116.2c-.124.194-.043.1.244-.295a2.809,2.809,0,0,1-.209.221c.415-.3.5-.361.24-.194a2.99,2.99,0,1,0,3.018,5.163,6.43,6.43,0,0,0,2.8-5.7c-.019-2.118-.283-4.344-1.85-5.919a11.619,11.619,0,0,0-2.281-1.641,15.71,15.71,0,0,0-2.734-1.35c-2.711-.95-6.008.927-5.814,4,.175,2.738,2.645,4.367,4.891,5.481q1.152-2.734,2.3-5.465c-.481-.144-.939-.365-1.427-.481a5.049,5.049,0,0,0-2.61,0,4.021,4.021,0,0,0-2.894,4.763,6.126,6.126,0,0,0,2.948,3.39,5.506,5.506,0,0,0,4.658.706,2.989,2.989,0,0,0,0-5.764c-2.021-.609-3.658.7-4.81,2.191a4.81,4.81,0,0,0-.756,4.879,4.054,4.054,0,0,0,4.751,2.436,5.393,5.393,0,0,0,3.192-2.855,2.99,2.99,0,0,0-5.163-3.018" transform="translate(-8479.031 1427.989)" fill="#3b3438"/>
        <path id="패스_5640" data-name="패스 5640" d="M17.174,109.945A7.064,7.064,0,0,1,22.809,114a10.169,10.169,0,0,1,.671,4.17,3.492,3.492,0,0,1-.4,2.133,16.294,16.294,0,0,0-1.164,1.734c-.524,1.094,1.109,2.056,1.637.954.365-.76.985-1.346,1.373-2.091a5.269,5.269,0,0,0,.446-2.606,12.513,12.513,0,0,0-.931-5.252,8.977,8.977,0,0,0-7.273-5c-1.214-.109-1.206,1.788,0,1.9" transform="translate(-8476.175 1428.081)" fill="#1a1311"/>
        <path id="패스_5641" data-name="패스 5641" d="M8.342,122.689a5.351,5.351,0,0,0,4.779,1.629,4.1,4.1,0,0,0,3.049-4.177,5.042,5.042,0,0,0-2.657-4.111,7.083,7.083,0,0,0-1.8-.783,4.378,4.378,0,0,0-1.955-.039,3.8,3.8,0,0,0-1.687.935,3.007,3.007,0,0,0,2.114,5.1,5.334,5.334,0,0,0,4-1.916c1.117-1.342,2.11-2.94,1.866-4.755a3.946,3.946,0,0,0-4.185-3.32,4.717,4.717,0,0,0-2.4.791c-.617.427-1.136.954-1.722,1.412q2.112,2.112,4.228,4.228c1.392-1.532,2.9-3.39,3.029-5.539a4.188,4.188,0,0,0-1.97-3.77,4.45,4.45,0,0,0-4.364.019,7.648,7.648,0,0,0-2.11,1.916,21.413,21.413,0,0,0-1.815,2.4,5.884,5.884,0,0,0-.911,3.309,10.89,10.89,0,0,0,.609,2.831c.737,2.257,2.137,4.589,4.662,5.093a2.989,2.989,0,1,0,1.586-5.764,1.916,1.916,0,0,1-.295-.07c.473.217.57.26.295.12-.64-.427.314.388-.012.008-.508-.59.221.45-.023.008a2.613,2.613,0,0,0-.341-.617c.182.442.213.516.1.221-.043-.109-.085-.221-.12-.334-.078-.225-.151-.45-.221-.679a8.563,8.563,0,0,1-.349-1.431c.035.264.074.531.109.8a4.118,4.118,0,0,1,0-.725l-.1.8a2.591,2.591,0,0,1,.07-.345q.145-.442-.128.244a3.9,3.9,0,0,0,.334-.586c.128-.194.272-.38.407-.574.349-.485-.4.5.074-.093.3-.376.613-.749.943-1.105.182-.2.76-.574.043-.124q.413-.244-.268.07a1.421,1.421,0,0,1,.306-.078c-.264.035-.531.074-.8.109a1.419,1.419,0,0,1,.314-.012l-.8-.1c.225.047.206.019-.062-.078a1.542,1.542,0,0,1-.578-.384l-.295-.365c-.182-.493-.237-.59-.163-.287-.035-.264-.074-.531-.109-.8a2.218,2.218,0,0,1,0,.454l.109-.8c-.023.112-.19.582.012.128.209-.473-.008,0-.066.1-.147.264-.318.52-.489.768l-.221.314c-.368.531.306-.365.066-.074-.225.268-.446.535-.683.8a2.99,2.99,0,0,0,2.114,5.1,3.515,3.515,0,0,0,2.114-.877,4.521,4.521,0,0,0,.861-.745c-.376.275-.473.349-.287.221a2.252,2.252,0,0,1,.206-.128c.3-.155.186-.109-.341.14a1.766,1.766,0,0,1,.248-.05c-.268.035-.531.074-.8.109a2.387,2.387,0,0,1,.372,0l-.8-.1c.368.062.287.2-.26-.159a2.22,2.22,0,0,1-.95-1.2l-.1-.8a1.009,1.009,0,0,1,0,.341c.035-.264.07-.528.109-.8a1.5,1.5,0,0,1-.066.26c-.074.213-.031.112.124-.3a3.086,3.086,0,0,0-.233.415c-.066.113-.136.217-.206.326-.353.527.306-.337.1-.116-.085.093-.167.194-.256.283-.05.05-.1.1-.159.151-.175.151-.07.074.318-.241l-.116.078c-.272.147-.159.109.334-.116-.132.016-.272.081-.407.1l.8-.1a2.373,2.373,0,0,1-.287.016q1.053,2.548,2.114,5.1c-.318.2-.636.4-.95.6l-.8.1h.144l-.8-.1c.1.016.2.039.295.058.52.1-.481-.241-.206-.1.217.112.434.221.648.341.4.221-.233-.178-.213-.182l.225.221c-.093-.116-.182-.233-.275-.349.1.19.093.147-.035-.12-.206-.481-.066-.109-.043.027l-.1-.8a2.7,2.7,0,0,1,0,.4l.1-.8a1.124,1.124,0,0,1-.054.252,1.438,1.438,0,0,1,.361-.683,1.564,1.564,0,0,1,.562-.516c.493-.171.59-.225.295-.163l.8-.1a1.461,1.461,0,0,1-.291-.008l.8.1c-.023,0-.295-.066-.295-.07.019-.043.745.38.213.054-.093-.054-.411-.295-.035,0,.411.322-.016-.023-.074-.078a2.99,2.99,0,0,0-4.228,4.228" transform="translate(-8511.987 1427.419)" fill="#3b3438"/>
        <path id="패스_5642" data-name="패스 5642" d="M11.013,122.791a10.028,10.028,0,0,1-3.533-1.5c-1.2-.95-1.493-2.482-1.714-3.917-.415-2.676-.112-6.423,2.8-7.626a.981.981,0,0,0,.663-1.167.952.952,0,0,0-1.164-.663c-3.782,1.559-4.709,5.721-4.212,9.425.248,1.827.64,3.766,2.048,5.081a10.907,10.907,0,0,0,4.6,2.2.948.948,0,0,0,.5-1.827" transform="translate(-8512.253 1427.569)" fill="#1a1311"/>
      </g>
    </g>
  </g>
</svg>
