<svg xmlns="http://www.w3.org/2000/svg" width="110" height="120" viewBox="0 0 110 120">
  <g id="그룹_1806" data-name="그룹 1806" transform="translate(-142 -1178)">
    <g id="사각형_1967" data-name="사각형 1967" transform="translate(142 1178)" fill="#ef8026" stroke="#000" stroke-width="2">
      <rect width="110" height="120" stroke="none"/>
      <rect x="1" y="1" width="108" height="118" fill="none"/>
    </g>
    <line id="선_103" data-name="선 103" x1="98" y2="107" transform="translate(148.5 1184.5)" fill="none" stroke="#000" stroke-linecap="round" stroke-width="2"/>
    <g id="그룹_1607" data-name="그룹 1607" transform="translate(8553.293 73.189)">
      <rect id="사각형_2204" data-name="사각형 2204" width="2.118" height="9.767" transform="translate(-8357.713 1199.225)" fill="#fabd1f"/>
      <rect id="사각형_2205" data-name="사각형 2205" width="2.118" height="9.767" transform="translate(-8316.963 1206.695)" fill="#fabd1f"/>
      <path id="패스_5573" data-name="패스 5573" d="M55.167,6.979s-1.4-4.391-5.446-1.4-4.042,6.85-2.638,10.542,2.11,5.973,1.23,8.785S46.234,35.091,50.7,34.564s4.464-2.812,4.464-2.812,1.23,2.987,5.271,2.11,5.624-3.867,4.744-7.381-1.288-7.2.237-10.015,5.5-11.244,0-14.406S55.167,6.979,55.167,6.979" transform="translate(-8389.902 1120.87)" fill="#fabd1f"/>
      <path id="패스_5574" data-name="패스 5574" d="M50.568,1.653c-.066,20.658,1.59,41.355.047,61.989-.186,2.478-.411,4.957-.706,7.424a11,11,0,0,1-1.315,4.449A4.42,4.42,0,0,0,47.9,76.8a3.279,3.279,0,0,0,3.025,3.7c4.7.485,4.5-6.431-.163-5.783-1.687.237-.97,2.8.706,2.568-.264.035.737-3.433.83-3.991.574-3.406.787-6.943,1.032-10.387.477-6.7.613-13.413.59-20.127-.043-13.711-.733-27.411-.69-41.122a1.331,1.331,0,0,0-2.661,0" transform="translate(-8385.21 1118.117)" fill="#fabd1f"/>
      <path id="패스_5575" data-name="패스 5575" d="M50.164,7.847c1.807-3.4,5.927-6.842,9.8-4.154,4.278,2.979-.605,8.37-1.8,11.752a11.388,11.388,0,0,0-.617,5.519c.349,2.207,1.443,4.263,1.641,6.493a5.237,5.237,0,0,1-3.394,5.5,6.493,6.493,0,0,1-6.419-1.42c-.675-.578-1.66.4-.985.981,2.719,2.323,6.675,3.029,9.662.745,3.642-2.789,2.416-6.854,1.327-10.6a10.884,10.884,0,0,1,.4-7.556c.869-2.133,2.327-4.011,3-6.229a5.645,5.645,0,0,0-4.294-7.327c-4.17-.989-7.691,2.153-9.518,5.589-.419.791.776,1.493,1.2.7" transform="translate(-8384.349 1121.002)" fill="#1a1311"/>
      <path id="패스_5576" data-name="패스 5576" d="M50.381,11.037c-.485-.365-.283-.38-.217.3.058.621.093,1.241.124,1.866.124,2.4.151,4.81.14,7.214-.031,9.456-.675,18.9-1.551,28.318-.085.888,1.3.88,1.385,0,.919-9.836,1.59-19.719,1.555-29.6-.008-2.277-.043-4.561-.194-6.834-.047-.69.085-1.986-.539-2.459-.714-.535-1.408.667-.7,1.2" transform="translate(-8382.312 1144.991)" fill="#1a1311"/>
      <path id="패스_5577" data-name="패스 5577" d="M48.96,20.483c-.233.306-.454.617-.663.939a3.93,3.93,0,0,0-.535.977c-.229.787.372,1.361.931,1.811a7.122,7.122,0,0,0,3.712,1.52,3.421,3.421,0,0,0,2.021-.225A3.128,3.128,0,0,0,55.5,23.737c.458-1.264.516-2.859-.687-3.739a3.252,3.252,0,0,0-2.288-.368,18.109,18.109,0,0,0-2.7.469.7.7,0,0,0-.306,1.16A10.334,10.334,0,0,0,51,22.476a2.012,2.012,0,0,0,.954.45,1.117,1.117,0,0,0,.927-.407c.233-.252.446-.531.667-.8a4.646,4.646,0,0,0,.659-.853.766.766,0,0,0-1.346-.733.666.666,0,0,0,0,.7l.023.035c.473.752,1.676.058,1.2-.7l-.023-.031v.7l.031-.039c-.14.109-.279.213-.415.322l.05-.019-.535-.07.047.023c-.109-.14-.213-.279-.318-.415l.012.074v-.368c.047-.12-.039.012-.07.043-.058.066-.112.136-.171.206-.124.151-.252.306-.38.458-.112.136-.225.272-.341.407-.019.027-.128.124-.132.151-.07.062-.035.058.109-.019.175-.023.186-.058.043-.112a7.17,7.17,0,0,0-.706-.5,8.88,8.88,0,0,1-.776-.7l-.306,1.16a16.894,16.894,0,0,1,1.753-.353,6.307,6.307,0,0,1,1.641-.1c.857.112.935,1.078.772,1.757a5.529,5.529,0,0,1-.531,1.431c-.182.318-.741.217-1.055.2A5.569,5.569,0,0,1,50.1,23.52a5.342,5.342,0,0,1-.593-.427q-.163-.14-.314-.291c-.1-.093-.074-.128-.093-.035a1.293,1.293,0,0,1,.194-.322c.078-.128.155-.252.237-.376.2-.3.411-.6.628-.884a.7.7,0,0,0-.248-.95.712.712,0,0,0-.95.248" transform="translate(-8385.654 1173.432)" fill="#1a1311"/>
      <path id="패스_5578" data-name="패스 5578" d="M50.173,20.321a6.369,6.369,0,0,0-1.664,1.645.672.672,0,0,0-.07.531.686.686,0,0,0,.318.415.7.7,0,0,0,.535.07l.163-.07a.7.7,0,0,0,.252-.248l.128-.175c-.035.047-.07.093-.109.14A6.04,6.04,0,0,1,50.759,21.6c-.047.039-.093.074-.14.109.081-.062.167-.128.256-.186a.757.757,0,0,0,.318-.415.693.693,0,0,0-.485-.853.7.7,0,0,0-.535.07" transform="translate(-8383.629 1175.286)" fill="#1a1311"/>
      <path id="패스_5579" data-name="패스 5579" d="M49.12,21.6a8.992,8.992,0,0,1,1.1.725l-.143-.109a8.9,8.9,0,0,1,.815.71.7.7,0,0,0,.981,0,.707.707,0,0,0,0-.981A9.711,9.711,0,0,0,49.822,20.4a.695.695,0,1,0-.7,1.2" transform="translate(-8382.567 1175.524)" fill="#1a1311"/>
      <path id="패스_5580" data-name="패스 5580" d="M49.048,1.078l-.233,5.795a.7.7,0,0,0,1.392,0l.233-5.795a.7.7,0,0,0-1.392,0" transform="translate(-8382.477 1118.16)" fill="#1a1311"/>
      <path id="패스_5581" data-name="패스 5581" d="M50.941,4.608a4.782,4.782,0,0,0-3.658,5.729.7.7,0,0,0,1.338,0,1.536,1.536,0,0,1,2.971-.194c.244.71,1.392.64,1.361-.182-.023-.694.159-1.769.946-2,.919-.272,1.765.88,2.242,1.493A.7.7,0,0,0,57.3,9.15a5.288,5.288,0,0,0-3.328-5.791.7.7,0,0,0-.853.485A.708.708,0,0,0,53.6,4.7a3.867,3.867,0,0,1,2.362,4.084c.388-.1.772-.2,1.16-.306-.857-1.1-2.176-2.347-3.7-1.815a3.241,3.241,0,0,0-1.858,3.3l1.361-.186a2.922,2.922,0,0,0-5.647.194h1.338A3.391,3.391,0,0,1,51.31,5.946a.694.694,0,0,0-.368-1.338" transform="translate(-8387.251 1126.628)" fill="#1a1311"/>
      <path id="패스_5582" data-name="패스 5582" d="M50.047,11.187c-1.361-.322-1.284-2.091-1.206-3.165-.4.163-.791.33-1.187.493a3.989,3.989,0,0,0,2.952,1.5,2.041,2.041,0,0,0,1.978-1.99l-1.361.19A2.714,2.714,0,0,0,53.5,10.229a3.812,3.812,0,0,0,3.157-1.2c-.388-.1-.772-.209-1.16-.31a3.452,3.452,0,0,1-.834,2.8c-.59.663.388,1.652.981.981a4.948,4.948,0,0,0,1.191-4.146.7.7,0,0,0-1.16-.3,2.455,2.455,0,0,1-1.92.826A1.339,1.339,0,0,1,52.56,7.847.7.7,0,0,0,51.2,8.03c.019.446-.516.667-.9.613a3.431,3.431,0,0,1-1.66-1.109.7.7,0,0,0-1.183.489,5.829,5.829,0,0,0,.357,2.905,2.838,2.838,0,0,0,1.87,1.6c.869.206,1.237-1.133.368-1.342" transform="translate(-8386.497 1138.166)" fill="#1a1311"/>
      <path id="패스_5583" data-name="패스 5583" d="M43.638,23c6.245,1.439,12.474,3.029,18.773,4.224,6.249,1.179,12.583,1.885,18.889,2.657.884.109.877-1.28,0-1.389-6.3-.772-12.621-1.474-18.854-2.672-6.187-1.187-12.3-2.746-18.439-4.158-.869-.2-1.241,1.136-.368,1.338" transform="translate(-8398.811 1179.36)" fill="#1a1311"/>
      <path id="패스_5584" data-name="패스 5584" d="M53.107,22.764c-.357.07-.318,1.14-.24,1.551a1.9,1.9,0,0,0,.644.993,2.959,2.959,0,0,0,1.61.834,1.623,1.623,0,0,0,1.567-.764,2.222,2.222,0,0,0-.368-2.475,2.961,2.961,0,0,0-2.191-.849,1.35,1.35,0,0,0-1.02.71" transform="translate(-8370.963 1180.542)" fill="#fabd1f"/>
      <path id="패스_5585" data-name="패스 5585" d="M53.444,22.609c-.578.155-.741.749-.791,1.272a3.373,3.373,0,0,0,.1,1.261,3.1,3.1,0,0,0,1.195,1.5,3.255,3.255,0,0,0,1.745.706,2.279,2.279,0,0,0,2.42-2.106A3.015,3.015,0,0,0,56.6,22.353a4.062,4.062,0,0,0-1.889-.477,2.025,2.025,0,0,0-1.679,1.051.7.7,0,0,0,.248.95.709.709,0,0,0,.95-.248c.008-.012.128-.182.035-.066a1,1,0,0,1,.081-.093l.089-.085c.12-.128-.1.047.043-.035.058-.035.221-.1.078-.058l.14-.039s-.182.008.016.012c.089,0,.182.008.275.016.035,0,.171.019.027,0,.043,0,.081.012.124.019a3.1,3.1,0,0,1,.59.167c-.144-.054.043.019.062.027l.109.058a2.769,2.769,0,0,1,.264.171c-.1-.078.1.089.124.116a1.434,1.434,0,0,0,.1.112c.1.1-.058-.093.027.039a2.581,2.581,0,0,1,.151.244l.05.1c-.062-.116-.016-.035,0,0,.031.093.062.186.085.283.012.039.016.078.027.116.035.136,0-.1.012.078,0,.085.008.175,0,.26,0,0-.016.194,0,.081s-.016.074-.016.078c-.008.039-.019.074-.031.112,0,0-.054.178-.019.078s-.035.066-.039.07a1.26,1.26,0,0,1-.093.155c.074-.112,0-.008-.023.019a1.335,1.335,0,0,1-.1.1c-.023.023-.1.062,0,0-.039.023-.078.05-.12.074a1,1,0,0,1-.128.066c.027-.012.128-.039.008,0l-.136.039c-.019.008-.2.035-.1.023s-.074,0-.078,0l-.112,0c-.019,0-.2-.027-.058,0-.043-.008-.085-.016-.128-.027l-.128-.035c-.008,0-.213-.078-.085-.023a2.8,2.8,0,0,1-.3-.159,3.337,3.337,0,0,1-.287-.19c-.112-.081-.047-.039-.023-.019-.047-.035-.093-.074-.136-.112-.074-.062-.143-.128-.213-.2l-.1-.116-.062-.07c.043.058.043.054,0-.012l-.07-.109c-.019-.031-.074-.175-.035-.066a1.376,1.376,0,0,0-.07-.283c0,.008.019.19.012.07l-.012-.128c-.008-.081-.012-.167-.012-.252s0-.178,0-.264c0-.039.012-.078.012-.116,0-.07-.039.163,0,.008.016-.07.1-.279,0-.07l.031-.058a.48.48,0,0,1-.171.171c-.132.043-.163.058-.1.039a.694.694,0,0,0-.368-1.338" transform="translate(-8371.481 1180.029)" fill="#1a1311"/>
      <path id="패스_5586" data-name="패스 5586" d="M52.871,23.609q.134,4.6.272,9.2c.023.888,1.412.892,1.385,0q-.134-4.6-.268-9.2c-.027-.892-1.416-.9-1.389,0" transform="translate(-8370.801 1183.087)" fill="#1a1311"/>
      <path id="패스_5587" data-name="패스 5587" d="M53.418,23.609q.134,4.6.272,9.2c.023.888,1.412.892,1.385,0q-.134-4.6-.268-9.2c-.027-.892-1.416-.9-1.389,0" transform="translate(-8369.226 1183.087)" fill="#1a1311"/>
      <path id="패스_5588" data-name="패스 5588" d="M42.672,20.911c-.361.07-.318,1.14-.24,1.551a1.9,1.9,0,0,0,.644.993,2.948,2.948,0,0,0,1.606.834,1.62,1.62,0,0,0,1.567-.764,2.221,2.221,0,0,0-.365-2.475,2.961,2.961,0,0,0-2.191-.849,1.35,1.35,0,0,0-1.02.71" transform="translate(-8401.006 1175.207)" fill="#fabd1f"/>
      <path id="패스_5589" data-name="패스 5589" d="M43.007,20.755c-.578.155-.741.749-.791,1.272a3.374,3.374,0,0,0,.1,1.261,3.1,3.1,0,0,0,1.195,1.5,3.255,3.255,0,0,0,1.745.706,2.279,2.279,0,0,0,2.42-2.106A3.015,3.015,0,0,0,46.16,20.5a4.062,4.062,0,0,0-1.889-.477,2.025,2.025,0,0,0-1.679,1.051.7.7,0,0,0,.248.95.709.709,0,0,0,.95-.248c.008-.012.128-.182.035-.066a1,1,0,0,1,.081-.093L44,21.531c.12-.128-.1.047.047-.035.054-.035.217-.1.074-.058l.14-.039s-.182.008.015.012c.089,0,.182.008.275.016.035,0,.171.019.027,0,.043,0,.081.012.124.019a3.1,3.1,0,0,1,.59.167c-.144-.058.043.019.062.027l.109.058a2.774,2.774,0,0,1,.264.171c-.1-.078.1.089.124.116a1.438,1.438,0,0,0,.1.112c.1.1-.058-.093.027.039a2.577,2.577,0,0,1,.151.244l.05.1c-.062-.116-.016-.035,0,0,.031.093.062.186.085.283.012.039.016.078.027.116.035.136,0-.1.012.078,0,.085.008.175,0,.26,0,0-.016.194,0,.081s-.016.074-.016.078l-.027.112s-.058.178-.023.078-.035.066-.039.07a1.264,1.264,0,0,1-.093.155c.074-.112,0-.008-.023.019a1.335,1.335,0,0,1-.1.1c-.023.023-.1.062,0,0-.039.023-.078.05-.12.074a1,1,0,0,1-.128.066c.027-.012.128-.039.008,0l-.136.039c-.019,0-.2.035-.1.023s-.074,0-.078,0l-.112,0c-.019,0-.2-.027-.058,0-.043-.008-.085-.016-.128-.027L45,24.052c-.008,0-.213-.078-.085-.023a2.8,2.8,0,0,1-.3-.159,3.335,3.335,0,0,1-.287-.19c-.112-.081-.047-.039-.023-.019-.047-.035-.093-.074-.136-.112-.074-.062-.144-.128-.213-.2l-.1-.116-.062-.07c.043.058.043.054,0-.012l-.07-.109c-.019-.031-.074-.175-.035-.066a1.375,1.375,0,0,0-.07-.283c0,.008.019.19.012.07l-.012-.128c-.008-.081-.012-.167-.012-.252s0-.178,0-.264c0-.039.012-.078.012-.116,0-.07-.039.163,0,.008.016-.07.1-.279,0-.07l.031-.058a.48.48,0,0,1-.171.171c-.132.043-.163.058-.1.039a.694.694,0,1,0-.368-1.338" transform="translate(-8401.526 1174.692)" fill="#1a1311"/>
      <path id="패스_5590" data-name="패스 5590" d="M42.435,21.755q.134,4.6.272,9.2c.023.888,1.412.892,1.385,0q-.134-4.6-.268-9.2c-.027-.892-1.416-.9-1.389,0" transform="translate(-8400.843 1177.75)" fill="#1a1311"/>
      <path id="패스_5591" data-name="패스 5591" d="M42.981,21.755q.134,4.6.272,9.2c.023.888,1.412.892,1.385,0q-.134-4.6-.268-9.2c-.027-.892-1.416-.9-1.389,0" transform="translate(-8399.271 1177.75)" fill="#1a1311"/>
      <path id="패스_5592" data-name="패스 5592" d="M40.418,21.832l.45-6.066.209-2.831c.043-.539.081-1.078.12-1.617.019-.272.039-.539.062-.811q.128-1.263-.3.888-.721.716-1.435,1.435c-.151.116-1.458.225-.528.147.376-.031.749-.058,1.125-.07.628-.023,1.253-.023,1.881-.023q2.362,0,4.724,0,4.625.006,9.247.008-1.932-1.466-3.855-2.932c.078.528.155,1.059.229,1.59-.1-.741.1.8.112.935.128,1.063.237,2.129.334,3.2s.178,2.137.244,3.208a16.573,16.573,0,0,1,.085,3.068c.178-.671.361-1.346.543-2.017a2.691,2.691,0,0,1,1.9-1.214c.357-.047.357-.066,0-.058a6.992,6.992,0,0,0-1.028-.05c-.687-.039-1.373-.078-2.06-.12-1.439-.085-2.882-.182-4.321-.291s-2.878-.225-4.313-.353c-.687-.062-1.369-.124-2.056-.19a7.564,7.564,0,0,1-1.024-.1c.76.178,1.284.248,1.742,1.125.058.155.112.31.167.462q-.14-.559-.07-.07c.206.512-.074-.186.023-.388-.074.5-.074.593,0,.3.07-.213.054-.2-.043.031-.144.531.171-.244.225-.365-.287.341-.334.4-.144.19a3.707,3.707,0,0,1,.349-.349c-.365.38-.209.144.136-.058.318-.19.621-.306.1-.1a7.467,7.467,0,0,1,.8-.264c.272-.078.547-.136.822-.19,1-.206-.721,0,.431-.039.652-.019,1.3-.035,1.947,0s1.3.1,1.951.178c1.28.151-.776-.128.493.07.128.019.26.035.388.054.434.093.372.05-.182-.124-.477-.477-.958-.954-1.435-1.431-.159-.566-.186-.632-.078-.2.043.209.089.423.132.636s.085.427.128.636c-.039-.57-.074-.632-.1-.19.182-.675.365-1.346.547-2.021.752-1.563,3.642-1.361,1.78-1.338-.272,0-.539,0-.811,0-.741,0-1.482-.008-2.222-.031q-2.118-.064-4.236-.24a4.015,4.015,0,0,0-4,4,4.1,4.1,0,0,0,4,4,52.062,52.062,0,0,0,7.928.252,5.139,5.139,0,0,0,4.464-2.606c.88-1.645.547-3.506.1-5.225a5.036,5.036,0,0,0-3.89-3.832,36.777,36.777,0,0,0-4.565-.562,15.393,15.393,0,0,0-8.238,1.5A8.952,8.952,0,0,0,34.635,18.7a7.145,7.145,0,0,0,1.051,4.142,6.114,6.114,0,0,0,4.934,2.711c2.641.291,5.3.5,7.951.69,1.3.093,2.606.182,3.91.26a18.367,18.367,0,0,0,4.682.027,5,5,0,0,0,4-4.891,39.024,39.024,0,0,0-.221-4.146c-.24-3.231-.632-6.45-1.109-9.654C59.571,6.127,57.569,4.9,55.971,4.9q-4.317-.006-8.63-.008a80.263,80.263,0,0,0-8.533.1c-2.339.252-4.534,1.024-5.287,3.533a22.468,22.468,0,0,0-.454,4.6q-.326,4.346-.648,8.7a4.018,4.018,0,0,0,4,4,4.1,4.1,0,0,0,4-4" transform="translate(-8429.695 1130.961)" fill="#fff"/>
      <path id="패스_5593" data-name="패스 5593" d="M40.22,13.573A7.554,7.554,0,0,1,38.979,2.93c-.547-.07-1.094-.144-1.641-.213C39.153,5.525,40.825,9.2,39.13,12.46l1.637-.209a7,7,0,0,1-2.44-7.428c-.582.155-1.164.306-1.742.462,1.726,1.575,1.47,4.247,1.272,6.361h2.087l-.012-5.4c-.683.093-1.365.186-2.048.275a55.918,55.918,0,0,0,1.846,6.109,1.073,1.073,0,0,0,1.284.729,1.055,1.055,0,0,0,.729-1.284A55.08,55.08,0,0,1,39.9,5.971a1.048,1.048,0,0,0-2.048.279q.006,2.7.008,5.4a1.044,1.044,0,0,0,2.087,0c.252-2.7.287-5.857-1.885-7.835a1.055,1.055,0,0,0-1.745.458,9.026,9.026,0,0,0,2.979,9.456,1.056,1.056,0,0,0,1.637-.209c2.063-3.976.473-8.351-1.788-11.849A1.056,1.056,0,0,0,37.5,1.452a9.754,9.754,0,0,0-2.2,7.385,9.766,9.766,0,0,0,3.871,6.536A1.044,1.044,0,0,0,40.592,15a1.068,1.068,0,0,0-.372-1.427" transform="translate(-8421.601 1120.346)" fill="#ba4211"/>
      <path id="패스_5594" data-name="패스 5594" d="M38.171,1.3a9.25,9.25,0,0,0-3.285,8.77A9.283,9.283,0,0,0,40.9,17c1.268.454,1.811-1.559.555-2.013A7.177,7.177,0,0,1,36.9,9.517a7.238,7.238,0,0,1,2.746-6.741,1.049,1.049,0,0,0,0-1.474,1.064,1.064,0,0,0-1.474,0" transform="translate(-8422.969 1119.946)" fill="#1a1311"/>
      <path id="패스_5595" data-name="패스 5595" d="M38.515,8.477c-.112-.19-.213-.384-.322-.582-.109-.213.035.109-.043-.1-.039-.12-.085-.237-.12-.357a4.58,4.58,0,0,1-.14-.551c-.012-.043-.066-.431-.043-.194,0-.093-.016-.186-.023-.283-.012-.206-.012-.411-.008-.613,0-.112.019-.221.027-.334.027-.3-.047.2.016-.1.039-.217.089-.434.147-.644.027-.093.058-.182.089-.272l.07-.175c-.043.1-.043.1.008-.012h-1.8c.058.12.116.244.171.372-.074-.171.05.128.05.132.085.225.163.454.229.687a7.064,7.064,0,0,1,.175.7c.027.116.043.237.062.353a.767.767,0,0,1,.027.155c-.012-.109-.012-.1,0,.027a8.976,8.976,0,0,1,.05,1.443c-.008.24-.027.481-.058.718.027-.182-.019.093-.023.132-.027.136-.054.268-.078.4a1.042,1.042,0,1,0,2.009.555,10.34,10.34,0,0,0-.818-6.73,1.043,1.043,0,0,0-1.8,0,6.671,6.671,0,0,0,.337,6.315,1.042,1.042,0,1,0,1.8-1.051" transform="translate(-8420.105 1124.833)" fill="#f79a00"/>
      <path id="패스_5596" data-name="패스 5596" d="M36.76,6.6a1.991,1.991,0,0,0-.749.7,1.97,1.97,0,0,0-.3.993c.012.093.023.186.039.275a.772.772,0,0,0,.186.357.535.535,0,0,0,.186.186.759.759,0,0,0,.353.186.632.632,0,0,0,.116.027,3.026,3.026,0,0,0,.376.05,2.2,2.2,0,0,0,.5-.05,2.125,2.125,0,0,0,.454-.167,1.83,1.83,0,0,0,.392-.275.771.771,0,0,0,.078-.081,2.259,2.259,0,0,0,.221-.287,1.683,1.683,0,0,0,.147-.334.28.28,0,0,0,.027-.109,1.88,1.88,0,0,0,.05-.361,1.992,1.992,0,0,0-.043-.372,1.6,1.6,0,0,0-.159-.438,1.563,1.563,0,0,0-.268-.372l-.074-.07a1.511,1.511,0,0,0-.287-.209,1.617,1.617,0,0,0-.694-.19,2,2,0,0,0-.454.043l-.093.023a3.33,3.33,0,0,0-.322.136,1.806,1.806,0,0,0-.357.264,1.953,1.953,0,0,0-.279.341,1.036,1.036,0,0,0-.1.167A1.981,1.981,0,0,0,35.5,7.9a2.241,2.241,0,0,0,.043.357l.019.093a2.475,2.475,0,0,0,.128.318l.05.085a2.061,2.061,0,0,0,.209.275,1.274,1.274,0,0,0,.175.144A1.23,1.23,0,0,0,36.3,9.3a2.068,2.068,0,0,0,.33.144,1.551,1.551,0,0,0,.446.066l.089,0a2.941,2.941,0,0,0,.365-.05,2.038,2.038,0,0,0,.419-.163.853.853,0,0,0,.167-.1,2.023,2.023,0,0,0,.341-.291,1.5,1.5,0,0,0,.248-.361,1.784,1.784,0,0,0,.136-.318,2.692,2.692,0,0,0,.054-.361,1.227,1.227,0,0,0-.054-.458,1,1,0,0,0-.07-.2A1.515,1.515,0,0,0,38.68,7a2.55,2.55,0,0,0-.2-.26l-.062-.062a1.628,1.628,0,0,0-.334-.24,1.792,1.792,0,0,0-.392-.155,2.609,2.609,0,0,0-.349-.05l-.093-.008a2.367,2.367,0,0,0-.431.05.74.74,0,0,0-.159.043,1.782,1.782,0,0,0-.384.175,3.223,3.223,0,0,0-.264.206l-.058.058c-.07.081-.14.171-.2.26l-.039.074a1.747,1.747,0,0,0-.124.318,2.059,2.059,0,0,0-.05.345.727.727,0,0,0,.089.4.935.935,0,0,0,.551.551.762.762,0,0,0,.4.089,1.076,1.076,0,0,0,.737-.3c.054-.074.109-.144.163-.213a1.046,1.046,0,0,0,.144-.528V7.734l-.035.279a.372.372,0,0,1,.031-.112l-.1.248a.436.436,0,0,1,.062-.109l-.167.213a.573.573,0,0,1,.1-.1l-.209.163a.611.611,0,0,1,.147-.085l-.248.1a.891.891,0,0,1,.206-.054c-.093.012-.186.023-.275.039a.656.656,0,0,1,.213,0c-.093-.012-.182-.027-.275-.039a.741.741,0,0,1,.182.047L37,8.226a.627.627,0,0,1,.14.081l-.209-.163a.887.887,0,0,1,.085.085l-.167-.209a.55.55,0,0,1,.07.112l-.1-.252a.513.513,0,0,1,.031.128l-.035-.275a.749.749,0,0,1,0,.132l.035-.275a.544.544,0,0,1-.039.136c.039-.081.07-.163.109-.248a.612.612,0,0,1-.093.151l.163-.213a.564.564,0,0,1-.136.136l.213-.163a.791.791,0,0,1-.19.112l.248-.1a.693.693,0,0,1-.217.058l.283-.035a.658.658,0,0,1-.175,0l.275.035a.627.627,0,0,1-.14-.039l.248.1a.463.463,0,0,1-.116-.07l.213.163a.384.384,0,0,1-.1-.1c.054.07.109.14.163.213a.691.691,0,0,1-.066-.116l.1.252a.632.632,0,0,1-.043-.163l.035.275a.749.749,0,0,1,0-.186l-.035.279a.844.844,0,0,1,.058-.221l-.1.248a.942.942,0,0,1,.116-.2c-.054.07-.109.14-.163.213a.837.837,0,0,1,.144-.144l-.209.163a.7.7,0,0,1,.147-.085l-.248.1a.491.491,0,0,1,.14-.039c-.093.012-.186.023-.279.039a.921.921,0,0,1,.178,0l-.275-.035a.53.53,0,0,1,.112.027l-.248-.1a.543.543,0,0,1,.109.066l-.209-.163a.5.5,0,0,1,.1.1l-.163-.209a.507.507,0,0,1,.081.14l-.1-.248a.644.644,0,0,1,.047.175l-.035-.279a.6.6,0,0,1,0,.167l.035-.279a.445.445,0,0,1-.035.128l.1-.248a.426.426,0,0,1-.081.14l.163-.213a.516.516,0,0,1-.112.112c.074-.054.14-.109.213-.163a.808.808,0,0,1-.182.109l.248-.1a1.128,1.128,0,0,1-.225.058c.093-.012.186-.023.275-.039a.887.887,0,0,1-.248,0c.093.016.182.027.275.039-.05-.008-.1-.019-.147-.031.252.334.512.667.764,1l.012-.074c-.012.093-.027.186-.039.275a.963.963,0,0,1,.066-.229l-.1.248a.985.985,0,0,1,.12-.206l-.163.209a.9.9,0,0,1,.182-.182l-.209.163a1.294,1.294,0,0,1,.155-.1.755.755,0,0,0,.295-.268.8.8,0,0,0,.186-.353.854.854,0,0,0,.019-.419.789.789,0,0,0-.124-.388,1.058,1.058,0,0,0-.624-.477c-.093-.012-.182-.027-.275-.039a1.046,1.046,0,0,0-.527.144" transform="translate(-8420.809 1134.49)" fill="#1a1311"/>
      <path id="패스_5597" data-name="패스 5597" d="M38.249,7.17a2.812,2.812,0,0,0-.05.368,2.137,2.137,0,0,0,.043.368,1.492,1.492,0,0,0,.163.431l.047.078a2.282,2.282,0,0,0,.225.279l.074.074c.093.074.186.147.283.217a2.238,2.238,0,0,0,.431.19,1.937,1.937,0,0,0,.469.093,1.641,1.641,0,0,0,.9-.194,1.317,1.317,0,0,0,.361-.272l.035-.035a.942.942,0,0,0,.093-.124.549.549,0,0,0,.144-.237l.054-.124a.8.8,0,0,0,.016-.415c0-.054-.012-.112-.019-.167L41.5,7.612a2.813,2.813,0,0,0-.2-.508,1.773,1.773,0,0,0-.24-.361,1.9,1.9,0,0,0-.291-.322,2.085,2.085,0,0,0-.679-.407,1.1,1.1,0,0,0-.582,0l-.05.008-.05.019a2.555,2.555,0,0,0-.283.116,1.34,1.34,0,0,0-.365.295,1.94,1.94,0,0,0-.225.3,2.6,2.6,0,0,0-.147.353,1.445,1.445,0,0,0-.078.5,2.078,2.078,0,0,0,.047.38.4.4,0,0,0,.035.109,1.39,1.39,0,0,0,.4.636.792.792,0,0,0,.334.217.809.809,0,0,0,.4.089.8.8,0,0,0,.4-.089.792.792,0,0,0,.334-.217,1.065,1.065,0,0,0,.306-.741c-.012-.089-.023-.178-.039-.272a1,1,0,0,0-.268-.462l-.074-.078c.054.074.109.144.163.213a.363.363,0,0,1-.058-.1l.1.252a.574.574,0,0,1-.039-.14c.012.1.023.19.039.283a.687.687,0,0,1,0-.178c-.012.1-.027.19-.039.283a.616.616,0,0,1,.047-.171l-.1.252a.526.526,0,0,1,.081-.136c-.058.07-.112.14-.167.206a1.189,1.189,0,0,1,.1-.1l-.209.163a.634.634,0,0,1,.1-.062l-.252.1a.619.619,0,0,1,.116-.023l-.279.035h.016l-.528-.144a1.112,1.112,0,0,1,.19.12c-.07-.054-.14-.109-.213-.163a1.366,1.366,0,0,1,.24.233L39.339,7.9a1.174,1.174,0,0,1,.178.3l-.1-.248a1.353,1.353,0,0,1,.089.326l.1-.8-.008.012c.054-.074.109-.147.163-.213a.789.789,0,0,1-.1.1l.209-.163a.566.566,0,0,1-.116.066l.252-.1a.707.707,0,0,1-.155.043c.093-.012.186-.031.279-.043a.877.877,0,0,1-.2,0c.093.012.186.027.275.043a1.437,1.437,0,0,1-.221-.062l.248.1a1.139,1.139,0,0,1-.2-.116l.209.163a.816.816,0,0,1-.14-.144l.163.209a.507.507,0,0,1-.081-.14l.1.252a.657.657,0,0,1-.039-.144c.016.1.027.186.039.275a.749.749,0,0,1,0-.132l-.035.275.008-.043a.78.78,0,0,0,.016-.411.8.8,0,0,0-.12-.392.754.754,0,0,0-.272-.291.8.8,0,0,0-.353-.19,1.09,1.09,0,0,0-.8.1,1.065,1.065,0,0,0-.481.628" transform="translate(-8413.04 1134.255)" fill="#1a1311"/>
      <path id="패스_5598" data-name="패스 5598" d="M36.583,8.787a3.718,3.718,0,0,0,3.157,2.207,2.98,2.98,0,0,0,2.987-2.285,1.132,1.132,0,0,0-.1-.8A1.076,1.076,0,0,0,42,7.425a1.056,1.056,0,0,0-1.28.729,2.1,2.1,0,0,1-.081.306c-.035.12.112-.221.027-.066l-.085.147c-.093.147.124-.144.043-.054-.031.035-.062.074-.1.109s-.081.078-.124.116c-.132.12.155-.1.05-.039s-.182.112-.275.163c-.159.085.182-.062.062-.023-.047.016-.093.035-.14.047a1.372,1.372,0,0,1-.171.043c-.043.012-.221.05-.035.012s.012-.008-.035-.008-.116,0-.175,0c-.182-.008.194.039.066.012L39.6,8.888c-.058-.016-.12-.031-.178-.05-.035-.016-.209-.085-.047-.016s0,0-.043-.023c-.054-.027-.1-.058-.159-.089s-.085-.054-.128-.085c-.136-.093-.016-.027.039.035-.074-.085-.175-.155-.252-.233-.039-.039-.074-.078-.109-.116l-.058-.07c-.05-.062-.027-.031.066.085-.016-.074-.132-.19-.175-.26-.062-.1-.116-.217-.171-.33a1.046,1.046,0,0,0-1.427-.376,1.077,1.077,0,0,0-.372,1.427" transform="translate(-8418.045 1137.839)" fill="#1a1311"/>
      <path id="패스_5599" data-name="패스 5599" d="M60.8,8.951q-10.56.209-21.12.415a4.291,4.291,0,0,0-.465.1c-.706-.081-1.412-.155-2.122-.272-3.037-.493-6.761,2.727-4.515,5.876,2.925,4.1,7.16,5.24,11.768,5.477.012.124.019.252.031.376.283,3.565.593,7.129.857,10.7.074.985.559,2.936.093,3.875-.508,1.02-2.188,1.664-2.983,2.467a6.549,6.549,0,0,0-.05,9.189,3.09,3.09,0,0,0-.365.849C41.044,52.388,38,67.759,43.457,70.661c-2.009,2.6-1.16,4.15.035,7.474H55.931a9.328,9.328,0,0,0-.873-6,6.919,6.919,0,0,0-1.54-2.292c4.685-3.821,1.982-12.6-.826-18.975-.062-1.028-.144-2.06-.225-3.087a12.336,12.336,0,0,0,2.467-2.242,4.141,4.141,0,0,0,0-5.655,14.244,14.244,0,0,0-2.044-1.959,11.863,11.863,0,0,0,.485-2.653,60.683,60.683,0,0,0-.531-8.506c-.109-1.358-.652-3.925-.88-6.3,4.767-.291,9.534-1.288,12.292-5.5,1.664-2.537-.52-6.074-3.452-6.016" transform="translate(-8431.187 1142.819)" fill="#fabd1f"/>
      <path id="패스_5600" data-name="패스 5600" d="M66.737,21.061a116.931,116.931,0,0,1-15.011-.943c-4.3-.605-8.766-1.726-12.218-4.488a2.061,2.061,0,0,0-2.828,0,2.007,2.007,0,0,0,0,2.824A27.771,27.771,0,0,0,50.194,23.9,118.022,118.022,0,0,0,66.737,25.06c2.575.027,2.575-3.972,0-4" transform="translate(-8419.081 1160.431)" fill="#fabd1f"/>
      <path id="패스_5601" data-name="패스 5601" d="M45.528,25.8a33.448,33.448,0,0,0,4.057,2.572,5.328,5.328,0,0,0,2.723.768A3.492,3.492,0,0,0,55.1,27.559c1.226-1.986-.272-4.084-2-5.1a7.028,7.028,0,0,0-4.984-.78q.977,1.67,1.947,3.343L51.7,23.708a5.118,5.118,0,0,0,1.489-1.551,3.1,3.1,0,0,0-1.307-4.15,3.715,3.715,0,0,0-4.282.438,7.071,7.071,0,0,0-1.92,3.274c1.307.175,2.618.353,3.925.531a5.449,5.449,0,0,1-.019-.562c0,.287-.008.043.027-.12.066-.31.155-.613.237-.919a6.72,6.72,0,0,0,.291-2.071,3.631,3.631,0,0,0-2.734-3.5A3.064,3.064,0,0,0,43.7,17.766a20.314,20.314,0,0,0,.171,4.057,2,2,0,0,0,4,0c-.07-.974-.151-1.947-.213-2.921-.012-.194-.008-.388-.016-.582.016-.225.008-.194-.023.1.062-.213.039-.182-.066.089a1.037,1.037,0,0,1-.617.434c-.337.027-.4.039-.178.035-.33-.054-.384-.05-.171.008-.283-.124-.33-.136-.14-.027q-.349-.285-.116-.058c-.454-.489.07.194-.194-.268.05.225.054.206.008-.062a2.96,2.96,0,0,1,0,.322c-.019.229-.016.217.019-.047-.019.109-.043.217-.066.326a9.645,9.645,0,0,0-.493,3.072,2,2,0,0,0,3.929.531c.062-.182.128-.357.194-.535.081-.206.07-.182-.035.078.039-.089.078-.175.12-.26.062-.128.132-.252.206-.372.05-.081.1-.159.155-.233-.175.221-.194.248-.05.085a2.246,2.246,0,0,1,.2-.186c-.229.171-.252.194-.07.078.334-.225-.4.112-.027.023-.341.035-.4.05-.186.043.217.016.155.008-.182-.027a1.641,1.641,0,0,1,.225.066c-.279-.128-.353-.155-.217-.081.411.2-.237-.264-.008-.012-.194-.272-.237-.322-.132-.147a1.084,1.084,0,0,1-.163-.617c-.008.155,0,.14.012-.054a.727.727,0,0,1,.089-.357c.163-.2.167-.217.016-.054-.078.074-.155.14-.237.206-.721.609-1.474,1.179-2.207,1.769a2,2,0,0,0-.314,2.42,2.093,2.093,0,0,0,2.257.919c.384-.074-.26,0,0-.008.124,0,.252-.019.376-.019.1,0,.206,0,.306,0,.07,0,.485.081.186.012-.314-.074.167.043.182.047l.295.081c.054.019.465.159.186.058-.248-.093.058.031.109.054.112.058.225.12.33.186.05.027.415.264.175.1-.213-.144.05.047.093.085a3.164,3.164,0,0,1,.279.279l-.116-.147c.093.171.1.182.039.043a1.572,1.572,0,0,1-.05-.45.94.94,0,0,1,.272-.57c.07-.047.14-.1.206-.144-.151.085-.147.093.008.023.14-.05.155-.058.054-.023a.733.733,0,0,1-.132.035c-.19.07.442-.012.035-.039.178.012.256.05.043-.019-.5-.155.194.124-.074-.012-.508-.256-1-.531-1.493-.818q-1.518-.9-2.94-1.943a2,2,0,0,0-2.734.718,2.055,2.055,0,0,0,.718,2.734" transform="translate(-8397.372 1160.251)" fill="#fabd1f"/>
      <path id="패스_5602" data-name="패스 5602" d="M33.286,11.3q13.073.209,26.146-.279c1.338-.05,1.342-2.137,0-2.087q-13.067.489-26.146.279a1.044,1.044,0,0,0,0,2.087" transform="translate(-8430.077 1142.781)" fill="#1a1311"/>
      <path id="패스_5603" data-name="패스 5603" d="M36.447,13.895a20.908,20.908,0,0,0,5.3-.248,1.048,1.048,0,0,0,.729-1.284,1.068,1.068,0,0,0-1.284-.725c-.209.035-.415.066-.621.1-.078.008-.066.008.031-.008l-.19.023-.287.035c-.4.039-.8.066-1.206.085a20.2,20.2,0,0,1-2.471-.062A1.044,1.044,0,0,0,35.4,12.851a1.07,1.07,0,0,0,1.043,1.043" transform="translate(-8421.086 1150.492)" fill="#1a1311"/>
      <path id="패스_5604" data-name="패스 5604" d="M37.816,16.27a29.688,29.688,0,0,0-2.145,2.87c-.334.516-.652,1.039-.95,1.579a6.854,6.854,0,0,0-.787,1.66c-.318,1.361,1.036,2.281,1.9,3.1q1.425,1.361,2.905,2.665a1.067,1.067,0,0,0,1.474,0,1.052,1.052,0,0,0,0-1.474c-.807-.714-1.606-1.439-2.389-2.18-.4-.368-.783-.741-1.171-1.117a6.637,6.637,0,0,0-.578-.566.9.9,0,0,1-.136-.136c.12.12-.039.225.112-.008.268-.4.458-.877.7-1.3s.5-.846.776-1.257a24.864,24.864,0,0,1,1.765-2.37,1.067,1.067,0,0,0,0-1.474,1.049,1.049,0,0,0-1.474,0" transform="translate(-8425.453 1163.019)" fill="#1a1311"/>
      <path id="패스_5605" data-name="패스 5605" d="M44.565,17.167a15.413,15.413,0,0,1-4.3,3.343c.423.054.842.109,1.264.167Q39.015,18.484,36.5,16.29a1.064,1.064,0,0,0-1.474,0,1.049,1.049,0,0,0,0,1.474q2.513,2.193,5.031,4.387a1.081,1.081,0,0,0,1.261.163,17.075,17.075,0,0,0,4.724-3.673c.9-.993-.57-2.471-1.474-1.474" transform="translate(-8423.049 1163.095)" fill="#1a1311"/>
      <path id="패스_5606" data-name="패스 5606" d="M36.99,24.239a29.969,29.969,0,0,1,4.1-4.868H39.608A58.843,58.843,0,0,0,43.956,23.6a1.064,1.064,0,0,0,1.474,0,1.049,1.049,0,0,0,0-1.474A58.807,58.807,0,0,1,41.086,17.9a1.061,1.061,0,0,0-1.478,0,32.6,32.6,0,0,0-4.418,5.291,1.049,1.049,0,0,0,.372,1.423,1.06,1.06,0,0,0,1.427-.372" transform="translate(-8422.121 1167.713)" fill="#1a1311"/>
      <path id="패스_5607" data-name="패스 5607" d="M35.651,26.383a61.531,61.531,0,0,1,8.456-.175,1.043,1.043,0,0,0,0-2.087,61.53,61.53,0,0,0-8.456.175,1.07,1.07,0,0,0-1.043,1.043,1.054,1.054,0,0,0,1.043,1.043" transform="translate(-8423.374 1186.289)" fill="#1a1311"/>
      <path id="패스_5608" data-name="패스 5608" d="M35.65,27.15a89.494,89.494,0,0,1,9.514-.124c1.342.054,1.342-2.032,0-2.087a90.533,90.533,0,0,0-9.514.124,1.07,1.07,0,0,0-1.043,1.043A1.051,1.051,0,0,0,35.65,27.15" transform="translate(-8423.377 1188.645)" fill="#1a1311"/>
      <path id="패스_5609" data-name="패스 5609" d="M37.567,18.395a30.764,30.764,0,0,1,4.639,3.743V20.664q-1.92,1.943-3.84,3.89c-.943.958.531,2.432,1.478,1.474q1.92-1.943,3.84-3.89a1.06,1.06,0,0,0,0-1.474A33.649,33.649,0,0,0,38.618,16.6a1.048,1.048,0,0,0-1.423.372,1.06,1.06,0,0,0,.372,1.427" transform="translate(-8416.334 1164.408)" fill="#1a1311"/>
      <path id="패스_5610" data-name="패스 5610" d="M35.847,17.916a39.312,39.312,0,0,0,7.137.628,1.041,1.041,0,1,0,0-2.083A36.428,36.428,0,0,1,36.4,15.9a1.072,1.072,0,0,0-1.284.729,1.059,1.059,0,0,0,.729,1.284" transform="translate(-8421.983 1162.78)" fill="#1a1311"/>
      <path id="패스_5611" data-name="패스 5611" d="M36.265,21.193a42.457,42.457,0,0,0,7.125-.291,1.078,1.078,0,0,0,1.043-1.043,1.051,1.051,0,0,0-1.043-1.043,42.05,42.05,0,0,1-7.125.291,1.043,1.043,0,1,0,0,2.087" transform="translate(-8421.606 1171.202)" fill="#1a1311"/>
      <path id="패스_5612" data-name="패스 5612" d="M36.334,19.348a43.645,43.645,0,0,0-2.219,13.009c-.043,3.056.05,6.927,2.238,9.336.9,1,2.374-.481,1.474-1.474a7.657,7.657,0,0,1-1.42-3.727,23.31,23.31,0,0,1-.186-4.934A41.458,41.458,0,0,1,38.347,19.9c.423-1.276-1.594-1.827-2.013-.555" transform="translate(-8424.813 1170.673)" fill="#1a1311"/>
      <path id="패스_5613" data-name="패스 5613" d="M35.041,25.676a8.349,8.349,0,0,1-.213.869,12.147,12.147,0,0,0-.295,1.621,16.97,16.97,0,0,0,.342,4.04c.06.035,2.1,0,2.1,0a10.372,10.372,0,0,1-.351-4.038c.019-.2-.027.163,0,.035.012-.066.019-.136.031-.2.016-.112.039-.225.062-.337.039-.2.085-.392.136-.586a7.911,7.911,0,0,0,.209-.846,1.075,1.075,0,0,0-.729-1.284,1.055,1.055,0,0,0-1.284.729" transform="translate(-8423.772 1188.796)" fill="#1a1311"/>
      <path id="패스_5614" data-name="패스 5614" d="M38.613,27.015c3.169.714,6.179-.1,9.068-1.431,1.427-.659,2.793-1.439,4.17-2.2,1.218-.671,2.917-1.276,3.658-2.521a3.206,3.206,0,0,0-.718-3.914c-.438-.477-1.09-.7-.334-1.121a3.157,3.157,0,0,1,1.055-.186.438.438,0,0,1,.213.016.251.251,0,0,0-.016-.074A1.305,1.305,0,0,1,56,14.332c.159-.112.175-.128.047-.05a2.187,2.187,0,0,1-.268.14c.229-.109-.314.12-.365.14a10.565,10.565,0,0,0-1.73.8l2.021,3.452c.357-.229.2-.12-.337-.19a.615.615,0,0,1-.578-.132c-.1-.081-.112-.085-.027,0a3.348,3.348,0,0,0,.9.764,8.736,8.736,0,0,0,1.389.69c.531.26.233.287.473-.295.26-.632.124-.392-.469-.38a2.107,2.107,0,0,0-.469,0c.031-.035.729.07.562.159-.116.062-.636-.291-.776-.326a7.094,7.094,0,0,0-1.489-.163c-2.137-.081-2.506,2.657-1.008,3.724a4.509,4.509,0,0,1,1.276,1.206c-.012-.019.05.163.023.167a2.493,2.493,0,0,0,.489-.233c.128.019.147.008.054-.023a.659.659,0,0,1-.306-.248,3.291,3.291,0,0,1-.547-.76,4.414,4.414,0,0,1-.578-1.97c-.151-2.556-4.15-2.575-4,0,.182,3.091,2.812,8.5,6.788,6.671a3.833,3.833,0,0,0,2.032-4.135c-.283-1.885-1.753-3.084-3.215-4.127q-.5,1.862-1.008,3.727a4.791,4.791,0,0,0,.605.031c-.043.074-.458-.136-.458-.144a4.223,4.223,0,0,0,.675.306,5.367,5.367,0,0,0,1.959.1c2.168-.2,4.123-1.672,3.572-4.1a3.932,3.932,0,0,0-1.714-2.389,8.273,8.273,0,0,0-1.268-.605,1.956,1.956,0,0,1-.4-.233,4.414,4.414,0,0,0-1.625-1.082,3.16,3.16,0,0,0-2.544.535c-2.16,1.377-.178,4.813,2.021,3.452.931-.578,2.242-.76,3.122-1.652a3.012,3.012,0,0,0-.279-4.325c-2.447-2.366-7.2-1.055-8.258,2.094a4.253,4.253,0,0,0,1.3,4.484,4.773,4.773,0,0,1,.489.528c.551-1.23.539-1.637-.027-1.23l-.636.349c-.741.411-1.482.818-2.222,1.23-2.828,1.559-6.155,3.63-9.522,2.874-2.506-.562-3.576,3.289-1.063,3.855" transform="translate(-8415.972 1150.501)" fill="#fabd1f"/>
      <path id="패스_5615" data-name="패스 5615" d="M45.664,19.871a2.211,2.211,0,0,1,1.23-2.882,1.67,1.67,0,0,1,1.528.058c.368.334.194.966.047,1.354a1.013,1.013,0,0,0,.974,1.276c.656-.043,1.315-.085,1.974-.124.582-.039.958-.12,1.23.469a1.423,1.423,0,0,1-.411,1.881c-.946.5-.423,1.811.508,1.877A2.149,2.149,0,0,1,54.283,27c-.8,1.513-3.3.962-4.6.555-1.241-.392-1.769,1.555-.535,1.943a9.266,9.266,0,0,0,4.294.345A3.693,3.693,0,0,0,56.3,27.415a4.146,4.146,0,0,0-3.553-5.647l.508,1.877a3.383,3.383,0,0,0,1.33-4.193,2.858,2.858,0,0,0-1.862-1.866,10.944,10.944,0,0,0-3.278.078l.97,1.272a3.186,3.186,0,0,0-.368-3.087,3.3,3.3,0,0,0-3.351-.9,4.217,4.217,0,0,0-2.971,5.453c.419,1.218,2.366.694,1.943-.535" transform="translate(-8397.788 1159.77)" fill="#1a1311"/>
      <path id="패스_5616" data-name="패스 5616" d="M42.521,15.981c.074-1.726,2.009-2.758,3.572-2.51.741.116,1.245.206,1.606.892.442.853.066,1.451-.392,2.2-.361.59.093,1.617.873,1.517a2.318,2.318,0,0,1,1.439.163,1.993,1.993,0,0,1,.582,1.583c-.035,1.012-1.645,1.191-2.409,1.3a1.017,1.017,0,0,0-.24,1.842,1.743,1.743,0,0,1,.718,2.68c-.539.911-1.854,1.641-2.816.846-.993-.818-2.428.6-1.427,1.427a3.954,3.954,0,0,0,5.865-1.071,3.994,3.994,0,0,0,.7-3.146,4,4,0,0,0-2.021-2.478c-.081.617-.159,1.23-.24,1.842,1.912-.279,4-1.218,3.883-3.468A4.1,4.1,0,0,0,51.027,16.8a3.716,3.716,0,0,0-2.847-.733c.287.5.578,1.012.869,1.517a3.919,3.919,0,0,0,.512-4,3.576,3.576,0,0,0-2.932-2.06c-2.874-.512-5.989,1.358-6.124,4.453-.054,1.3,1.963,1.3,2.017,0" transform="translate(-8406.404 1150)" fill="#1a1311"/>
    </g>
  </g>
</svg>
