<svg xmlns="http://www.w3.org/2000/svg" width="110" height="120" viewBox="0 0 110 120">
  <g id="그룹_1813" data-name="그룹 1813" transform="translate(-142 -1558)">
    <g id="사각형_1970" data-name="사각형 1970" transform="translate(142 1558)" fill="#53a9df" stroke="#000" stroke-width="2">
      <rect width="110" height="120" stroke="none"/>
      <rect x="1" y="1" width="108" height="118" fill="none"/>
    </g>
    <g id="그룹_1601" data-name="그룹 1601" transform="translate(-122.4 327.863)">
      <path id="패스_5442" data-name="패스 5442" d="M72.855,5.021a55.988,55.988,0,0,1,3.572,22.57c-.062,1.276,1.928,1.276,1.99,0a57.471,57.471,0,0,0-3.646-23.1c-.446-1.187-2.37-.671-1.916.528" transform="translate(244.86 1250.508)" fill="#429f25"/>
      <path id="패스_5443" data-name="패스 5443" d="M76.27,2.571A110.787,110.787,0,0,1,74.292,24.1c-.237,1.249,1.679,1.784,1.92.528A113.757,113.757,0,0,0,78.26,2.571a1,1,0,0,0-1.99,0" transform="translate(249.137 1244.139)" fill="#429f25"/>
      <path id="패스_5444" data-name="패스 5444" d="M83.62,3.444a58.3,58.3,0,0,1-8.514,23.575c-.683,1.086,1.036,2.087,1.718,1A60.582,60.582,0,0,0,85.609,3.444c.163-1.264-1.827-1.253-1.99,0" transform="translate(251.084 1246.702)" fill="#429f25"/>
      <path id="패스_5445" data-name="패스 5445" d="M86.16,5.66Q80.982,14.294,75.8,22.924a1,1,0,0,0,1.718,1Q82.7,15.295,87.878,6.664a1,1,0,0,0-1.718-1" transform="translate(253.121 1254.431)" fill="#429f25"/>
      <path id="패스_5446" data-name="패스 5446" d="M78.666,6.59a1.9,1.9,0,0,1-.337-1.358,2.171,2.171,0,0,1,.167-.621,1.682,1.682,0,0,1,.2-.334.154.154,0,0,1,.085-.1c.132-.12.124-.124-.023-.008h-.527c-.291-.058-.12-.2-.1.012,0-.027.05.128.047.12a1.209,1.209,0,0,1,.066.566,1.363,1.363,0,0,1-.423.842l1.4,1.4a3.086,3.086,0,0,1,1.237-.869,3.05,3.05,0,0,1,.578-.1c-.012,0,.1.012.093.031s-.1-.175-.074-.163c.155.058-.438.469-.582.512-.632.194-1.3.221-1.912.469a1.012,1.012,0,0,0-.438,1.664A2.519,2.519,0,0,1,78.9,10a.549.549,0,0,1-.136.458.726.726,0,0,1-.144.016c-1.109-.186-.787-1.842-.636-2.649a1,1,0,0,0-.574-1.171.984.984,0,0,0-1.241.407,1.95,1.95,0,0,1-2.533.943c-.066-.031-.295-.171-.26-.144-.066-.05-.132-.167-.2-.194-.136-.054.035-.081-.043,0a.2.2,0,0,1-.047.2c-.085.147-.089.182-.016.1-.054,0,.279-.147.159-.093a3.069,3.069,0,0,1,.446-.124,3.405,3.405,0,0,1,2.4.388,1,1,0,0,0,1-1.718,4.954,4.954,0,0,1-1.008-.834,4.368,4.368,0,0,1-.431-.531,4.06,4.06,0,0,0-.264-.431c-.012-.066-.019-.078-.023-.043-.012.159-.143.24-.392.248-.6.349-.423.1-.268.357.109.182.252.341.357.528a4.447,4.447,0,0,1,.5,1.342c.268,1.249,2.184.721,1.916-.528A6.169,6.169,0,0,0,76.288,4c-.628-.807-1.92-1.369-2.641-.318a2.164,2.164,0,0,0,.376,2.5,7.369,7.369,0,0,0,2.06,1.951l1-1.718A5.442,5.442,0,0,0,72.7,5.957,2.138,2.138,0,0,0,71.2,7.342a1.988,1.988,0,0,0,.768,1.924,3.911,3.911,0,0,0,5.915-1.2L76.071,7.3a5.585,5.585,0,0,0,.155,3.619,2.872,2.872,0,0,0,2.482,1.548,2.269,2.269,0,0,0,2.164-2.122,4.108,4.108,0,0,0-1.35-3.1c-.144.555-.291,1.109-.438,1.664.958-.388,2.044-.31,2.9-.95a2.288,2.288,0,0,0,.935-2.556,2.164,2.164,0,0,0-2.541-1.195,4.663,4.663,0,0,0-2.564,1.493.993.993,0,0,0,1.4,1.4,3.336,3.336,0,0,0,.954-2.963C80,3.079,79.05,1.683,77.816,2.4a3.548,3.548,0,0,0-1.462,2.7,3.966,3.966,0,0,0,.9,2.9,1,1,0,0,0,1.408,0,1.019,1.019,0,0,0,0-1.408" transform="translate(240.178 1245.856)" fill="#fff"/>
      <path id="패스_5447" data-name="패스 5447" d="M81.073,4.384a1.9,1.9,0,0,1-.337-1.358,2.173,2.173,0,0,1,.167-.621,1.68,1.68,0,0,1,.2-.334.153.153,0,0,1,.085-.1c.132-.12.124-.124-.023-.008h-.528c-.291-.058-.12-.2-.1.012,0-.027.05.128.05.12a1.261,1.261,0,0,1,.062.566,1.363,1.363,0,0,1-.423.842l1.4,1.4a3.087,3.087,0,0,1,1.237-.869,3.05,3.05,0,0,1,.578-.1c-.012,0,.1.012.093.031s-.1-.175-.074-.163c.155.058-.438.469-.582.512-.632.194-1.3.221-1.912.469a1.013,1.013,0,0,0-.438,1.664A2.52,2.52,0,0,1,81.309,7.8a.549.549,0,0,1-.136.458.726.726,0,0,1-.144.016c-1.109-.186-.787-1.842-.636-2.649A1,1,0,0,0,79.82,4.45a.984.984,0,0,0-1.241.407,1.95,1.95,0,0,1-2.533.943c-.066-.031-.295-.171-.26-.144-.066-.05-.132-.167-.2-.194-.136-.054.035-.081-.043,0a.2.2,0,0,1-.047.2c-.085.147-.089.182-.016.1-.054,0,.279-.147.159-.093a3.069,3.069,0,0,1,.446-.124,3.405,3.405,0,0,1,2.4.388,1,1,0,0,0,1-1.718,4.956,4.956,0,0,1-1.008-.834,4.369,4.369,0,0,1-.431-.531,4.056,4.056,0,0,0-.264-.431c-.012-.066-.019-.078-.023-.043-.012.159-.144.24-.392.248-.6.349-.423.1-.268.357.109.182.252.341.357.528a4.446,4.446,0,0,1,.5,1.342c.268,1.249,2.184.721,1.916-.528A6.169,6.169,0,0,0,78.7,1.8c-.628-.807-1.92-1.369-2.641-.318a2.164,2.164,0,0,0,.376,2.5,7.369,7.369,0,0,0,2.06,1.951c.334-.574.667-1.144,1-1.718A5.442,5.442,0,0,0,75.1,3.751,2.138,2.138,0,0,0,73.61,5.136a1.988,1.988,0,0,0,.768,1.924,3.911,3.911,0,0,0,5.915-1.2l-1.815-.768a5.585,5.585,0,0,0,.155,3.619,2.872,2.872,0,0,0,2.482,1.548A2.269,2.269,0,0,0,83.28,8.138a4.108,4.108,0,0,0-1.35-3.1l-.438,1.664c.958-.388,2.044-.31,2.9-.95A2.288,2.288,0,0,0,85.324,3.2a2.164,2.164,0,0,0-2.541-1.195A4.663,4.663,0,0,0,80.219,3.5a.993.993,0,0,0,1.4,1.4,3.336,3.336,0,0,0,.954-2.963C82.407.873,81.457-.523,80.223.2a3.548,3.548,0,0,0-1.462,2.7,3.967,3.967,0,0,0,.9,2.9,1,1,0,0,0,1.408,0,1.019,1.019,0,0,0,0-1.408" transform="translate(247.107 1239.506)" fill="#fff"/>
      <path id="패스_5448" data-name="패스 5448" d="M83.76,5.412a1.9,1.9,0,0,1-.337-1.358,2.172,2.172,0,0,1,.167-.621,1.68,1.68,0,0,1,.2-.334.153.153,0,0,1,.085-.1c.132-.12.124-.124-.023-.008h-.527c-.291-.058-.12-.2-.1.012,0-.027.05.128.046.12a1.209,1.209,0,0,1,.066.566,1.364,1.364,0,0,1-.423.842l1.4,1.4a3.086,3.086,0,0,1,1.237-.869,3.05,3.05,0,0,1,.578-.1c-.012,0,.1.012.093.031s-.1-.175-.074-.163c.155.058-.438.469-.582.512-.632.194-1.3.221-1.912.469a1.012,1.012,0,0,0-.438,1.664A2.519,2.519,0,0,1,84,8.825a.549.549,0,0,1-.136.458.725.725,0,0,1-.143.016c-1.109-.186-.787-1.842-.636-2.649a1,1,0,0,0-.574-1.171.984.984,0,0,0-1.241.407,1.95,1.95,0,0,1-2.533.943c-.066-.031-.295-.171-.26-.144-.066-.05-.132-.167-.2-.194-.136-.054.035-.081-.043,0a.2.2,0,0,1-.047.2c-.085.147-.089.182-.016.1-.054,0,.279-.147.159-.093a3.068,3.068,0,0,1,.446-.124,3.405,3.405,0,0,1,2.4.388,1,1,0,0,0,1-1.718A4.954,4.954,0,0,1,81.173,4.4a4.371,4.371,0,0,1-.431-.531,4.06,4.06,0,0,0-.264-.431c-.012-.066-.019-.078-.023-.043-.012.159-.144.24-.392.248-.6.349-.423.1-.268.357.109.182.252.341.357.528a4.447,4.447,0,0,1,.5,1.342c.268,1.249,2.184.721,1.916-.528a6.169,6.169,0,0,0-1.187-2.521c-.628-.807-1.92-1.369-2.641-.318A2.164,2.164,0,0,0,79.117,5a7.369,7.369,0,0,0,2.06,1.951l1-1.718a5.442,5.442,0,0,0-4.391-.458A2.138,2.138,0,0,0,76.3,6.164a1.988,1.988,0,0,0,.768,1.924,3.911,3.911,0,0,0,5.915-1.2l-1.815-.768A5.585,5.585,0,0,0,81.32,9.74,2.872,2.872,0,0,0,83.8,11.288a2.269,2.269,0,0,0,2.164-2.122,4.108,4.108,0,0,0-1.35-3.1c-.144.555-.291,1.109-.438,1.664.958-.388,2.044-.31,2.9-.95a2.288,2.288,0,0,0,.935-2.556A2.164,2.164,0,0,0,85.47,3.034a4.663,4.663,0,0,0-2.564,1.493.993.993,0,0,0,1.4,1.4,3.336,3.336,0,0,0,.954-2.963C85.094,1.9,84.144.505,82.91,1.226a3.548,3.548,0,0,0-1.462,2.7,3.966,3.966,0,0,0,.9,2.9,1,1,0,0,0,1.408,0,1.019,1.019,0,0,0,0-1.408" transform="translate(254.842 1242.465)" fill="#fff"/>
      <path id="패스_5449" data-name="패스 5449" d="M84.847,7.64a1.9,1.9,0,0,1-.337-1.358,2.172,2.172,0,0,1,.167-.621,1.682,1.682,0,0,1,.2-.334.153.153,0,0,1,.085-.1c.132-.12.124-.124-.023-.008h-.528c-.291-.058-.12-.2-.1.012,0-.027.05.128.047.12a1.21,1.21,0,0,1,.066.566,1.363,1.363,0,0,1-.423.842l1.4,1.4a3.087,3.087,0,0,1,1.237-.869,3.05,3.05,0,0,1,.578-.1c-.012,0,.1.012.093.031s-.1-.175-.074-.163c.155.058-.438.469-.582.512-.632.194-1.3.221-1.912.469A1.012,1.012,0,0,0,84.3,9.707a2.519,2.519,0,0,1,.783,1.346.562.562,0,0,1-.136.458.726.726,0,0,1-.144.016c-1.109-.186-.787-1.842-.636-2.649a1,1,0,0,0-.574-1.171.984.984,0,0,0-1.241.407,1.95,1.95,0,0,1-2.533.943c-.066-.031-.295-.171-.26-.144-.066-.05-.132-.167-.2-.194-.136-.054.035-.081-.043,0a.21.21,0,0,1-.047.2c-.085.147-.089.182-.016.1-.054,0,.279-.147.159-.093a3.07,3.07,0,0,1,.446-.124,3.405,3.405,0,0,1,2.4.388,1,1,0,0,0,1-1.718,4.955,4.955,0,0,1-1.008-.834,4.365,4.365,0,0,1-.431-.531,4.062,4.062,0,0,0-.264-.431c-.012-.066-.019-.078-.023-.043-.012.159-.144.24-.392.248-.6.349-.423.1-.268.357.109.182.252.341.357.528a4.447,4.447,0,0,1,.5,1.342c.268,1.249,2.184.721,1.916-.528a6.169,6.169,0,0,0-1.187-2.521c-.628-.807-1.92-1.369-2.641-.318a2.164,2.164,0,0,0,.376,2.5,7.368,7.368,0,0,0,2.06,1.951l1-1.718a5.442,5.442,0,0,0-4.391-.458,2.138,2.138,0,0,0-1.493,1.385,1.988,1.988,0,0,0,.768,1.924,3.911,3.911,0,0,0,5.915-1.2l-1.815-.768a5.585,5.585,0,0,0,.155,3.619,2.872,2.872,0,0,0,2.482,1.548,2.269,2.269,0,0,0,2.164-2.122A4.108,4.108,0,0,0,85.7,8.3c-.144.555-.291,1.109-.438,1.664.958-.388,2.044-.31,2.9-.95A2.288,2.288,0,0,0,89.1,6.457a2.164,2.164,0,0,0-2.541-1.195,4.663,4.663,0,0,0-2.564,1.493.993.993,0,0,0,1.4,1.4A3.336,3.336,0,0,0,86.352,5.2C86.181,4.129,85.231,2.733,84,3.454a3.548,3.548,0,0,0-1.462,2.7,3.967,3.967,0,0,0,.9,2.9,1,1,0,0,0,1.408,0,1.023,1.023,0,0,0,0-1.408" transform="translate(257.971 1248.879)" fill="#fff"/>
      <path id="패스_5450" data-name="패스 5450" d="M92.952,7.106c3.8.171,21.325-.089,21.143,2.261C114,11.1,111,14.836,113.35,15.887c20.48,7.85-.4,37.674-4.5,57.688-.109.527-1.071.5-1.09,1.008-1.152,5.2-18.009,4.992-25.351,1.028a1.2,1.2,0,0,1-.578-.919c-.442-3.246-2.222-5.977-6.179-15.848-2.215-5.581-9.359-23.711-6.768-32.461,1.389-4.693,3.138-7.994,7.932-9.968.95-.438,2.246-.5,2.983-1.292a1.735,1.735,0,0,0-.062-1.986,18.863,18.863,0,0,1-1.16-4.7c-.019-.535.508-.679.943-.818,3.6-1.245,9.476.458,13.323-.5Z" transform="translate(232.021 1259.963)" fill="#dcdbda" fill-rule="evenodd"/>
      <path id="패스_5451" data-name="패스 5451" d="M71.769,25.84c1.365,2.219,3.758,3.219,6.194,3.817a31.94,31.94,0,0,0,7.812.915c4.678-.031,9.871-1.094,13.215-4.62.88-.927-.524-2.335-1.408-1.4-2.89,3.045-7.373,3.949-11.419,4.03a29.763,29.763,0,0,1-6.737-.628c-2.188-.458-4.693-1.086-5.938-3.115-.671-1.086-2.389-.089-1.718,1" transform="translate(241.493 1309.296)" fill="#1a1311"/>
      <path id="패스_5452" data-name="패스 5452" d="M77.239,10.669a28.131,28.131,0,0,0-4.6.376,7.933,7.933,0,0,0-4.111,1.967,4.5,4.5,0,0,0-.7,5.6,8.132,8.132,0,0,0,4.216,3.049,22.524,22.524,0,0,0,4.135.958,3.417,3.417,0,0,0,2.416-.314,3.21,3.21,0,0,0,1.443-1.877,3.168,3.168,0,0,0-.318-2.416,3.047,3.047,0,0,0-1.873-1.439,20.933,20.933,0,0,1-4.46-1.09l.749.318a6.158,6.158,0,0,1-1.276-.718c.209.167.423.33.632.493a3.8,3.8,0,0,1-.632-.617c.163.213.326.423.489.636a2.4,2.4,0,0,1-.26-.442l.314.749a1.83,1.83,0,0,1-.1-.38c.039.279.074.555.112.834a1.618,1.618,0,0,1,0-.306c-.039.279-.074.559-.112.834a1.387,1.387,0,0,1,.089-.3c-.109.252-.213.5-.318.749A1.979,1.979,0,0,1,73.283,17c-.163.213-.326.423-.493.636a2.76,2.76,0,0,1,.372-.365c-.209.167-.423.33-.632.493a4.352,4.352,0,0,1,.962-.543l-.752.314a8.838,8.838,0,0,1,2.067-.524c-.279.039-.555.078-.834.112a29.624,29.624,0,0,1,3.266-.182,3.265,3.265,0,0,0,2.219-.919,3.135,3.135,0,0,0-2.219-5.353" transform="translate(228.635 1270.219)" fill="#dcdbda"/>
      <path id="패스_5453" data-name="패스 5453" d="M83.532,17.376c.656.062,1.311.124,1.967.213-.279-.039-.555-.078-.834-.112a11.632,11.632,0,0,1,2.917.718l-.749-.314a5.455,5.455,0,0,1,1.121.644c-.209-.163-.423-.326-.632-.489a2.977,2.977,0,0,1,.458.454c-.163-.209-.326-.423-.493-.632a1.8,1.8,0,0,1,.209.353l-.314-.749a1.4,1.4,0,0,1,.081.3c-.035-.279-.074-.555-.109-.834a1.614,1.614,0,0,1,0,.306c.039-.279.074-.555.112-.834a1.372,1.372,0,0,1-.109.372c.109-.248.213-.5.318-.749a2.085,2.085,0,0,1-.217.357c.163-.209.326-.423.493-.632a3.444,3.444,0,0,1-.539.524c.209-.163.423-.326.632-.493a5.381,5.381,0,0,1-1.036.593l.749-.318a12.282,12.282,0,0,1-3.049.737c.279-.039.559-.078.834-.112-.675.085-1.35.151-2.029.213a3.381,3.381,0,0,0-2.219.919,3.142,3.142,0,0,0,0,4.433,3.066,3.066,0,0,0,2.219.919c2.967-.272,6.369-.512,8.626-2.711a4.56,4.56,0,0,0,.857-5.628,7.391,7.391,0,0,0-4.22-2.925,24.053,24.053,0,0,0-5.046-.8,3.145,3.145,0,0,0-2.219.919,3.132,3.132,0,0,0,0,4.433,3.552,3.552,0,0,0,2.219.919" transform="translate(266.14 1271.452)" fill="#dcdbda"/>
      <path id="패스_5454" data-name="패스 5454" d="M73.012,11.959a175.935,175.935,0,0,0,29.637.911c2.005-.1,2.017-3.243,0-3.134a175.937,175.937,0,0,1-29.637-.915c-2-.229-1.986,2.909,0,3.138" transform="translate(241.205 1264.865)" fill="#aac1d7"/>
      <path id="패스_5455" data-name="패스 5455" d="M76.567,9.833l-6.19,6.1a1.566,1.566,0,0,0,2.215,2.215q3.1-3.049,6.194-6.093a1.569,1.569,0,0,0-2.219-2.219" transform="translate(236.622 1266.522)" fill="#aac1d7"/>
      <path id="패스_5456" data-name="패스 5456" d="M76.009,9.985a27.566,27.566,0,0,0-3.863,6.1,1.685,1.685,0,0,0-.159,1.21,1.57,1.57,0,0,0,2.866.372,26.269,26.269,0,0,1,1.59-2.967c.291-.469.6-.927.919-1.377.081-.112.163-.225.244-.334l.124-.167c.027-.039.178-.229.035-.047s.008-.012.039-.047l.128-.163c.1-.12.194-.24.295-.361a1.689,1.689,0,0,0,.458-1.109,1.567,1.567,0,0,0-2.676-1.109" transform="translate(242.405 1266.943)" fill="#aac1d7"/>
      <path id="패스_5457" data-name="패스 5457" d="M70.081,13.99a168.769,168.769,0,0,0,25.293,3.3c7.393.388,15.453.911,22.151-2.789,1.769-.974.19-3.685-1.583-2.707-6.377,3.518-14.456,2.719-21.465,2.312a162.885,162.885,0,0,1-23.563-3.146c-1.97-.407-2.812,2.614-.834,3.025" transform="translate(233.822 1270.963)" fill="#aac1d7"/>
      <path id="패스_5458" data-name="패스 5458" d="M75.248,10.529a25.053,25.053,0,0,0-1.412,6.233,1.586,1.586,0,0,0,.462,1.105,1.566,1.566,0,0,0,2.676-1.105l.047-.434c.012-.109.016-.45,0-.016a5.521,5.521,0,0,1,.116-.752c.078-.465.171-.927.279-1.389a22.974,22.974,0,0,1,.857-2.808,1.574,1.574,0,0,0-1.1-1.928,1.6,1.6,0,0,0-1.928,1.094" transform="translate(247.874 1266.531)" fill="#aac1d7"/>
      <path id="패스_5459" data-name="패스 5459" d="M74.987,11.506q.78,3.438,1.555,6.873a1.579,1.579,0,0,0,1.928,1.1,1.6,1.6,0,0,0,1.094-1.928q-.774-3.438-1.551-6.877a1.585,1.585,0,0,0-1.932-1.094,1.6,1.6,0,0,0-1.094,1.928" transform="translate(251.067 1266.901)" fill="#aac1d7"/>
      <path id="패스_5460" data-name="패스 5460" d="M75.971,11.639A66.335,66.335,0,0,0,79.54,19a1.587,1.587,0,0,0,2.145.559,1.605,1.605,0,0,0,.562-2.149q-.943-1.658-1.784-3.374c-.272-.555-.535-1.109-.787-1.672-.128-.279-.252-.559-.376-.842-.07-.163-.144-.322-.206-.485.14.353-.074-.171-.1-.229a1.72,1.72,0,0,0-.721-.943,1.606,1.606,0,0,0-1.21-.155,1.582,1.582,0,0,0-1.094,1.928" transform="translate(253.779 1267.295)" fill="#aac1d7"/>
      <path id="패스_5461" data-name="패스 5461" d="M77.26,12.052A49.108,49.108,0,0,0,80.669,17.7a1.669,1.669,0,0,0,.935.721,1.57,1.57,0,0,0,1.773-2.3,49.106,49.106,0,0,1-3.409-5.651,1.58,1.58,0,0,0-2.145-.562,1.6,1.6,0,0,0-.562,2.145" transform="translate(257.165 1267.413)" fill="#aac1d7"/>
      <path id="패스_5462" data-name="패스 5462" d="M78.609,12.407q2.746,3,5.729,5.775a1.585,1.585,0,0,0,2.463-.314c.1-.217.2-.431.295-.644a1.7,1.7,0,0,0,.159-1.206,1.569,1.569,0,0,0-2.866-.376c-.1.213-.2.427-.3.64l2.463-.314q-2.979-2.769-5.725-5.779a1.583,1.583,0,0,0-2.219,0,1.6,1.6,0,0,0,0,2.219" transform="translate(260.338 1267.531)" fill="#aac1d7"/>
      <path id="패스_5463" data-name="패스 5463" d="M79.818,12.112a47.245,47.245,0,0,1,5.163,5.372,1.571,1.571,0,0,0,2.68-1.109,1.823,1.823,0,0,0-.462-1.109,47.243,47.243,0,0,0-5.163-5.372,1.569,1.569,0,0,0-2.219,2.219" transform="translate(263.803 1266.698)" fill="#aac1d7"/>
      <path id="패스_5464" data-name="패스 5464" d="M79.425,9.208c-3.677,1.365-7.35,2.8-10.372,5.372a1.571,1.571,0,0,0,0,2.215,1.609,1.609,0,0,0,2.219,0c.167-.144.334-.283.508-.419-.144.112.291-.217.341-.252.357-.256.725-.5,1.1-.729a25.343,25.343,0,0,1,2.327-1.253c.877-.419,1.389-.632,2.223-.962s1.656-.64,2.49-.946A1.6,1.6,0,0,0,81.352,10.3a1.585,1.585,0,0,0-1.928-1.094" transform="translate(232.798 1265.792)" fill="#aac1d7"/>
      <path id="패스_5465" data-name="패스 5465" d="M68.479,13.435c2.37,3.363,7.2,4.034,10.981,4.744a100.533,100.533,0,0,0,15.67,1.455c9.394.26,19.421.489,27.721-4.585,1.718-1.051.147-3.766-1.583-2.711-7.276,4.453-15.969,4.371-24.219,4.2a124.065,124.065,0,0,1-12.924-.791,60.417,60.417,0,0,1-7.1-1.3c-1.932-.481-4.62-.861-5.841-2.595-1.152-1.637-3.875-.074-2.707,1.583" transform="translate(231.642 1271.631)" fill="#aac1d7"/>
      <path id="패스_5466" data-name="패스 5466" d="M85.331,20.217a4.679,4.679,0,0,1,1.78-2.482H85.529l.128.066c-.186-.19-.372-.376-.562-.562-.012-.644-.05-.791-.112-.454l-.1.431c-.066.287-.136.574-.2.865-.136.574-.268,1.148-.4,1.722-.291,1.241,1.113,2.583,2.3,1.773a18.154,18.154,0,0,1,2.164-1.284c.3-.147.6-.291.9-.419a2.775,2.775,0,0,0,.617-.229c.291-.233-.112.636-.551-.384-.074-.264-.144-.528-.213-.791.233-.392.233-.454,0-.186-.1.062-.194.124-.291.19a9.971,9.971,0,0,1-.912.512,8.127,8.127,0,0,1-1.842.624,13.067,13.067,0,0,1-4.022.054c-2.614-.221-6.268-.469-7.916,2.063a1.581,1.581,0,0,0,1.354,2.358q2.554.047,5.1-.016c2.017-.05,2.025-3.169,0-3.138a23.884,23.884,0,0,0-6.078.888,1.582,1.582,0,0,0,0,3.025l2.354.593a8.97,8.97,0,0,0,2.2.446c1.711-.008,2.6-1.838,3.5-3.037a1.58,1.58,0,0,0-.562-2.145,1.605,1.605,0,0,0-2.145.562c-.306.407-.609.811-.915,1.214-.074.1-.147.2-.225.3-.144.163-.008.159.4-.012a6.651,6.651,0,0,1-.683-.167c-1.032-.26-2.06-.524-3.091-.783v3.025a20.178,20.178,0,0,1,5.244-.776V20.931q-2.548.064-5.1.019c.45.783.9,1.571,1.354,2.358.365-.559,1.761-.624,2.343-.648a25.665,25.665,0,0,1,3.134.163,13.428,13.428,0,0,0,6.706-.911,6.981,6.981,0,0,0,2.618-1.757,2.211,2.211,0,0,0-.524-3.44c-1.1-.578-2.281-.047-3.316.4A18.674,18.674,0,0,0,85,18.864q1.152.89,2.3,1.773c.237-1,.5-2.009.71-3.018a2.173,2.173,0,0,0-.9-2.591,1.571,1.571,0,0,0-1.582,0,8.161,8.161,0,0,0-3.223,4.356c-.6,1.932,2.428,2.758,3.025.834" transform="translate(247.705 1282.148)" fill="#aac1d7"/>
      <path id="패스_5467" data-name="패스 5467" d="M77.744,17.132l-.8.57a1.563,1.563,0,0,0-.562.562,1.123,1.123,0,0,0-.186.582,1.178,1.178,0,0,0,.027.624,1.572,1.572,0,0,0,.4.694l.039.035c.054.047.124.1.171.136s.112.093.175.132l.039.023a3.313,3.313,0,0,0,.419.178,1.564,1.564,0,0,0,.291.047,1.61,1.61,0,0,0,.306.031,2.774,2.774,0,0,0,.5-.074,2.816,2.816,0,0,0,.462-.19.82.82,0,0,0,.078-.047,2.325,2.325,0,0,0,.384-.314,2.248,2.248,0,0,0,.291-.388,4.123,4.123,0,0,0,.171-.407l.008-.027a1.333,1.333,0,0,0,.031-.217.682.682,0,0,0,.027-.217c-.016-.151-.031-.306-.062-.458l-.012-.043c-.05-.136-.109-.272-.171-.4l-.031-.05a2.1,2.1,0,0,0-.683-.675,3.325,3.325,0,0,0-.454-.194l-.089-.027a2.1,2.1,0,0,0-1.028.008,1.8,1.8,0,0,0-.462.2L77,17.237c-.1.078-.229.171-.33.256l-.043.043a1.185,1.185,0,0,0-.322.5,1.417,1.417,0,0,0,0,1.21,1.185,1.185,0,0,0,.322.5c.109.081.213.163.318.244a1.534,1.534,0,0,0,.791.213c.14-.019.279-.035.419-.054a1.559,1.559,0,0,0,.69-.4L78.9,19.7c-.1.081-.209.163-.318.244l.074-.039-.376.155a.4.4,0,0,1,.1-.023c-.14.019-.279.039-.419.054a.412.412,0,0,1,.12,0l-.419-.058a.653.653,0,0,1,.124.035c-.124-.05-.248-.1-.372-.159a.881.881,0,0,1,.1.062c-.1-.081-.209-.163-.318-.244a.415.415,0,0,1,.074.07c-.081-.1-.163-.213-.244-.318l.043.078c-.05-.124-.1-.248-.155-.376l.019.081c-.019-.14-.039-.275-.054-.415v.023l.058-.415-.019.058c.05-.124.1-.248.159-.372l-.043.074c.081-.109.163-.213.244-.318l-.074.074.318-.248a.525.525,0,0,1-.1.058c.128-.05.252-.1.376-.155a.692.692,0,0,1-.128.035l.419-.058a.444.444,0,0,1-.124,0l.415.054a.521.521,0,0,1-.1-.027c.124.05.248.1.372.155a.28.28,0,0,1-.074-.043c.1.081.213.163.318.244a.19.19,0,0,1-.05-.047c-.109.822-.213,1.641-.318,2.463l.8-.57a1.155,1.155,0,0,0,.438-.4,1.39,1.39,0,0,0,.31-1.16,1.135,1.135,0,0,0-.186-.582c-.081-.1-.163-.213-.244-.318a1.58,1.58,0,0,0-.69-.4c-.14-.019-.279-.035-.419-.054a1.534,1.534,0,0,0-.791.213" transform="translate(254.582 1288.211)" fill="#aac1d7"/>
      <path id="패스_5468" data-name="패스 5468" d="M99.582,19.583c3.844.272,3.832,5.054,1.8,7.28-2.529,2.758-6.764,2.758-10.135,1.916a18.124,18.124,0,0,1-5.058-2.118,32.086,32.086,0,0,0-4.255-2.5,8.935,8.935,0,0,0-4.8-.5c-1.3.175-3.708.842-4.685-.454-1.206-1.59-3.929-.027-2.711,1.583a5.822,5.822,0,0,0,5.139,2.285c1.2-.043,2.382-.384,3.584-.419a6.7,6.7,0,0,1,3.824,1.218c4.251,2.595,8.521,4.872,13.7,4.507,4.317-.306,8.7-2.719,9.8-7.191a7.029,7.029,0,0,0-6.2-8.739c-2.013-.14-2.005,2.994,0,3.138" transform="translate(235.184 1286.835)" fill="#aac1d7"/>
      <path id="패스_5469" data-name="패스 5469" d="M69.5,18.858a54.858,54.858,0,0,0,7,6.132,1.574,1.574,0,0,0,2.145-.562,1.616,1.616,0,0,0-.562-2.145c-.147-.109-.295-.221-.442-.33-.081-.062-.163-.124-.24-.186-.14-.1-.078-.05.027.023-.3-.213-.582-.454-.865-.683-.566-.462-1.129-.935-1.679-1.42q-1.647-1.46-3.169-3.049A1.569,1.569,0,0,0,69.5,18.858" transform="translate(234.121 1286.105)" fill="#aac1d7"/>
      <path id="패스_5470" data-name="패스 5470" d="M71.461,18.984q4.579,3.869,9.433,7.4a1.572,1.572,0,0,0,2.145-.562,1.611,1.611,0,0,0-.562-2.145c-3.06-2.226-5.868-4.429-8.8-6.908a1.6,1.6,0,0,0-2.219,0,1.586,1.586,0,0,0,0,2.219" transform="translate(239.738 1286.484)" fill="#aac1d7"/>
      <path id="패스_5471" data-name="패스 5471" d="M75.083,20.927a50.343,50.343,0,0,0,6.311,3.735,1.568,1.568,0,1,0,1.583-2.707,50.343,50.343,0,0,1-6.311-3.735,1.576,1.576,0,0,0-2.145.562,1.608,1.608,0,0,0,.562,2.145" transform="translate(249.269 1291.321)" fill="#aac1d7"/>
      <path id="패스_5472" data-name="패스 5472" d="M72.059,22.059a23.883,23.883,0,0,0,10.255,4.713,1.6,1.6,0,0,0,1.932-1.094,1.586,1.586,0,0,0-1.1-1.928,23.59,23.59,0,0,1-2.529-.624c-.415-.132-.826-.272-1.233-.427-.2-.074-.4-.155-.605-.237.209.085-.248-.109-.3-.132a21.872,21.872,0,0,1-2.238-1.167c-.376-.225-.741-.458-1.1-.7-.178-.12-.357-.248-.531-.372-.05-.035-.493-.368-.334-.248a1.616,1.616,0,0,0-2.219,0,1.586,1.586,0,0,0,0,2.219" transform="translate(241.459 1295.347)" fill="#aac1d7"/>
      <path id="패스_5473" data-name="패스 5473" d="M72.939,24.085a14.367,14.367,0,0,0,10.356,2.436,1.569,1.569,0,0,0,1.094-1.928A1.618,1.618,0,0,0,82.461,23.5c.322-.043-.275.023-.334.027-.2.016-.4.027-.605.031-.349.012-.7,0-1.055-.016-.2-.008-.4-.023-.6-.047-.1-.008-.2-.019-.3-.035.167.023.155.019-.031-.008-.372-.07-.741-.14-1.109-.233s-.725-.2-1.082-.326c-.19-.07-.38-.14-.566-.217.268.109-.194-.089-.244-.112a12.938,12.938,0,0,1-2.013-1.187,1.572,1.572,0,0,0-2.145.562,1.611,1.611,0,0,0,.562,2.145" transform="translate(243.097 1300.4)" fill="#aac1d7"/>
      <path id="패스_5474" data-name="패스 5474" d="M76.549,21.982l-.5,2.909a1.18,1.18,0,0,0-.027.624,1.123,1.123,0,0,0,.186.582,1.6,1.6,0,0,0,.935.721,1.571,1.571,0,0,0,1.21-.159,1.512,1.512,0,0,0,.718-.935c.167-.97.337-1.939.5-2.909a1.774,1.774,0,0,0-.159-1.21,1.6,1.6,0,0,0-.939-.718,1.579,1.579,0,0,0-1.206.155,1.536,1.536,0,0,0-.721.939" transform="translate(254.086 1299.486)" fill="#aac1d7"/>
      <path id="패스_5475" data-name="패스 5475" d="M77.752,22.193a5.485,5.485,0,0,1-.039.8c.019-.14.035-.275.054-.415a5.324,5.324,0,0,1-.357,1.315c.05-.124.1-.248.155-.376a4.668,4.668,0,0,1-.3.59,1.624,1.624,0,0,0-.155,1.21,1.567,1.567,0,0,0,1.928,1.094,1.64,1.64,0,0,0,.935-.721,6.62,6.62,0,0,0,.915-3.495,1.647,1.647,0,0,0-.462-1.109,1.573,1.573,0,0,0-2.219,0,1.608,1.608,0,0,0-.458,1.109" transform="translate(257.158 1298.879)" fill="#aac1d7"/>
      <path id="패스_5476" data-name="패스 5476" d="M78.492,21.009l-.233,1.164a1.181,1.181,0,0,0-.031.624,1.2,1.2,0,0,0,.186.582,1.229,1.229,0,0,0,.4.442,1.206,1.206,0,0,0,.535.279l.415.058a1.576,1.576,0,0,0,.791-.217c.109-.081.213-.163.318-.244a1.559,1.559,0,0,0,.4-.69c.078-.388.155-.776.237-1.164a1.774,1.774,0,0,0-.159-1.21,1.217,1.217,0,0,0-.4-.438,1.149,1.149,0,0,0-.535-.279L80,19.857a1.572,1.572,0,0,0-.791.213c-.109.081-.213.167-.318.248a1.559,1.559,0,0,0-.4.69" transform="translate(260.444 1296.669)" fill="#aac1d7"/>
      <path id="패스_5477" data-name="패스 5477" d="M74.028,24.755a25.263,25.263,0,0,0,1.939,5.508,1.574,1.574,0,0,0,2.145.562,1.611,1.611,0,0,0,.562-2.145c-.182-.372-.353-.752-.512-1.133.05.124.1.248.159.376a23.413,23.413,0,0,1-1.268-4,1.58,1.58,0,0,0-1.932-1.094,1.6,1.6,0,0,0-1.094,1.928" transform="translate(248.31 1305.04)" fill="#aac1d7"/>
      <path id="패스_5478" data-name="패스 5478" d="M72.335,24.742a20.757,20.757,0,0,0,2.5,5.345A1.568,1.568,0,0,0,77.545,28.5a19.423,19.423,0,0,1-1.679-3.13c.054.124.109.248.159.372a19.234,19.234,0,0,1-.663-1.838,1.569,1.569,0,0,0-3.025.834" transform="translate(243.382 1304.991)" fill="#aac1d7"/>
      <path id="패스_5479" data-name="패스 5479" d="M80.592,22.211a13.442,13.442,0,0,0-3.045,6.5,1.716,1.716,0,0,0,.159,1.206,1.567,1.567,0,0,0,2.866-.376,12.02,12.02,0,0,1,.341-1.524q.111-.378.244-.745l.14-.365c.066-.155.05-.12-.043.1l.081-.178a11.484,11.484,0,0,1,.737-1.381c.14-.221.287-.438.438-.648l.116-.159c.1-.132.078-.1-.066.085.078-.035.19-.237.248-.3a1.688,1.688,0,0,0,.458-1.109,1.567,1.567,0,0,0-2.676-1.109" transform="translate(258.452 1302.143)" fill="#aac1d7"/>
      <path id="패스_5480" data-name="패스 5480" d="M78.451,18c0,.05,0,.1,0,.155.012.078.016-.155.027-.159l-.016.062-.043.144c-.008-.008.1-.206.058-.14l-.043.074-.043.074c-.047.093.089-.14.089-.112s-.074.085-.089.1a1.485,1.485,0,0,1-.112.109c-.147.136.194-.124.016-.012a2.259,2.259,0,0,1-.268.151l-.066.031c-.093.05.14-.07.128-.054a.48.48,0,0,1-.186.062c-.047.016-.093.027-.14.039s-.252.043-.054.016-.016,0-.058,0-.109,0-.163,0l-.07,0c-.159,0,.14.016.128.019-.027.012-.116-.023-.144-.031-.062-.012-.116-.035-.175-.05-.089-.027.12.043.12.05l-.093-.043a1.264,1.264,0,0,1-.155-.093l-.066-.043c-.128-.085.074.054.078.062-.074-.089-.175-.167-.256-.256-.109-.124.12.178.031.035-.031-.05-.066-.1-.093-.151a1.348,1.348,0,0,1-.085-.163c.008,0,.081.209.05.12-.008-.035-.023-.066-.031-.1a1.223,1.223,0,0,1-.047-.171l-.016-.078c-.027-.109.027.155.016.136-.047-.085,0-.264,0-.357,0,.237-.027.171.012.058l.039-.109.023-.066c.054-.144-.12.268-.05.124a4.036,4.036,0,0,1,.186-.365c.039-.062.081-.12.12-.182.1-.155-.151.178-.058.078a1.2,1.2,0,0,1,.093-.1c.05-.058.112-.1.167-.159.043-.039-.225.151-.085.07l.124-.07.047-.027c0,.008-.221.081-.155.066l.124-.039a1.082,1.082,0,0,1,.109-.023c-.31.078-.178.019-.066.019.047,0,.233.019.035-.008s-.023,0,.023.012c.1.019.194.039.295.062.167.039.326.093.489.144.039.012-.26-.12-.1-.043l.1.054.1.062c.1.058-.213-.186-.1-.074l.081.078.027.031c.093.089-.147-.213-.093-.124.043.066.081.132.12.2l.019.043c.043.078-.1-.268-.054-.128l.043.116c.027.1.054.194.074.291a2.311,2.311,0,0,1,.062.365c0,.019-.031-.248-.019-.136l.016.1.023.256a1.052,1.052,0,0,0,.291.7,1,1,0,0,0,1.7-.7c-.1-1.067-.283-2.277-1.338-2.828a4.373,4.373,0,0,0-1.361-.419,2.343,2.343,0,0,0-1.947.551,3.628,3.628,0,0,0-1.051,1.753,2.778,2.778,0,0,0,.458,2.18,2.892,2.892,0,0,0,1.819,1.237,3.177,3.177,0,0,0,2.261-.45A2.339,2.339,0,0,0,80.441,18a.995.995,0,0,0-1.99,0" transform="translate(250.303 1281.892)" fill="#1a1311"/>
      <path id="패스_5481" data-name="패스 5481" d="M74.48,16.039a1.661,1.661,0,0,1,.008-.31l-.035.264a1.627,1.627,0,0,1,.1-.38c-.035.078-.07.159-.1.237a1.9,1.9,0,0,1,.221-.384c-.054.066-.1.136-.155.2a1.853,1.853,0,0,1,.31-.318l-.2.155a1.885,1.885,0,0,1,.38-.225c-.078.031-.159.066-.237.1a1.467,1.467,0,0,1,.38-.109l-.264.035a1.534,1.534,0,0,1,.353,0c-.085-.016-.175-.027-.264-.039a1.865,1.865,0,0,1,.384.1c-.078-.031-.159-.066-.237-.1a1.9,1.9,0,0,1,.384.221c-.07-.05-.136-.1-.2-.155a2.006,2.006,0,0,1,.314.314c-.05-.07-.1-.136-.155-.2a1.8,1.8,0,0,1,.229.38c-.035-.081-.066-.159-.1-.237a1.592,1.592,0,0,1,.116.423l-.035-.264a1.5,1.5,0,0,1,0,.264,1,1,0,0,0,1,1,1.019,1.019,0,0,0,.993-1,2.664,2.664,0,0,0-1.66-2.51,2.5,2.5,0,0,0-2.9.756,2.607,2.607,0,0,0-.624,1.78,1.063,1.063,0,0,0,.291.7,1,1,0,0,0,1.7-.7" transform="translate(243.992 1277.839)" fill="#1a1311"/>
      <path id="패스_5482" data-name="패스 5482" d="M78.723,16.416a2.207,2.207,0,0,1,.151-.264c.1-.159-.159.178-.031.039l.1-.109.113-.1c.128-.116-.2.132-.039.031.078-.047.155-.1.24-.14.19-.1-.151.05-.054.016.05-.016.1-.035.144-.05.089-.027.186-.035.272-.066-.264.085-.163.019-.062.016.05,0,.1,0,.151,0s.1.008.151.008c-.283-.008-.155-.023-.062,0a1.083,1.083,0,0,1,.151.039l.05.016c.1.039.066.023-.093-.039.078.054.175.089.252.14.182.116-.1-.1-.031-.031l.1.085.109.112c.027.027.047.054.07.081-.027-.039-.058-.078-.089-.116a1.123,1.123,0,0,1,.171.268c.039.07.081.225-.012-.047.016.05.039.1.054.147l.043.151c.019.1-.012.221,0-.058,0,.1.016.213.008.318a.995.995,0,0,0,1.99,0,2.937,2.937,0,0,0-5.562-1.443,1.081,1.081,0,0,0-.1.768,1.032,1.032,0,0,0,.458.593,1.011,1.011,0,0,0,1.361-.357" transform="translate(256.621 1279.231)" fill="#1a1311"/>
      <path id="패스_5483" data-name="패스 5483" d="M72.088,9.806a28.509,28.509,0,0,1,8.471-.714q4.049.058,8.095.244,8.25.384,16.461,1.327c1.272.144,1.261-1.846,0-1.99Q96.586,7.708,88.007,7.32c-5.329-.233-11.26-.943-16.446.57a.994.994,0,0,0,.528,1.916" transform="translate(239.32 1259.512)" fill="#1a1311"/>
      <path id="패스_5484" data-name="패스 5484" d="M68.58,11.626a3.707,3.707,0,0,0-.442,3.437,3.832,3.832,0,0,0,2.572,2.3,1,1,0,0,0,.528-1.92c-.1-.027-.2-.058-.3-.093a.667.667,0,1,0,.066.031.781.781,0,0,0-.14-.07c-.081-.043-.163-.093-.24-.144-.019-.012-.182-.136-.054-.031s-.016-.019-.043-.043c-.07-.062-.14-.128-.2-.194l-.1-.12c-.116-.132.085.132.023.031-.05-.081-.1-.155-.151-.237-.023-.047-.05-.093-.07-.14-.047-.093-.015-.155.012.035a2.681,2.681,0,0,0-.093-.283l-.035-.163c-.031-.132.008.016,0,.066.008-.1-.019-.225-.016-.334,0-.047,0-.089,0-.136,0-.019.027-.233,0-.07s.008-.031.012-.066l.039-.163a1.034,1.034,0,0,0,.093-.287c.008.07-.081.178-.008.023l.078-.151q.087-.145.186-.279a1,1,0,0,0-.357-1.361,1.025,1.025,0,0,0-1.361.357" transform="translate(230.793 1271.578)" fill="#1a1311"/>
      <path id="패스_5485" data-name="패스 5485" d="M78,8.224l.361,3.464a3.674,3.674,0,0,1,.016,1.524,2.335,2.335,0,0,1-1.094,1.067,55.051,55.051,0,0,0-5.166,3.545c-2.9,2.447-4.837,6.33-3.215,10.03.512,1.175,2.226.159,1.718-1-1.7-3.871,2.215-7.319,5.058-9.189,1.4-.919,3.479-1.765,4.356-3.262a4.613,4.613,0,0,0,.3-2.89c-.116-1.1-.229-2.2-.341-3.293-.132-1.261-2.122-1.276-1.99,0" transform="translate(231.989 1260.443)" fill="#1a1311"/>
      <path id="패스_5486" data-name="패스 5486" d="M68.056,14.283c.074,7.463,2.575,14.359,5.236,21.232,2.634,6.8,4.786,13.769,8.141,20.262.59,1.136,2.3.132,1.718-1-3.278-6.342-5.372-13.153-7.94-19.789-2.595-6.7-5.1-13.42-5.166-20.7a1,1,0,0,0-1.99,0" transform="translate(231.243 1277.854)" fill="#1a1311"/>
      <path id="패스_5487" data-name="패스 5487" d="M90.426,37.074c-5.081-.551-10.259-.783-15.108-2.4S65.866,29.794,64.109,25a20.514,20.514,0,0,1-.873-8.029c.19-4.014.943-8.324,3.821-11.132a12.314,12.314,0,0,1,4.864-2.769,12.029,12.029,0,0,1,9.022.31,11.442,11.442,0,0,1,5.108,5.787,25.32,25.32,0,0,1,1.714,7.66c.489,5.077.388,10.2,1.016,15.267.268,2.133.838,4.515,2.7,5.593" transform="translate(217.228 1246.25)" fill="#dcdbda"/>
      <path id="패스_5488" data-name="패스 5488" d="M91.179,36.818c-6.613-.7-13.7-.892-19.494-4.557a14.122,14.122,0,0,1-5.865-6.792c-1.148-3.091-1.028-6.64-.679-9.875.334-3.08,1.214-6.349,3.58-8.51a12.694,12.694,0,0,1,9.549-2.94c7.781.877,9.061,9.8,9.464,16.073.252,3.983.279,7.982.729,11.95.306,2.719.834,5.5,3.262,7.114,1.071.71,2.067-1.012,1-1.718-1.377-.915-1.831-2.525-2.1-4.073a54.929,54.929,0,0,1-.582-6.625,118.727,118.727,0,0,0-.861-11.977c-1.032-6.675-5.038-13.013-12.513-12.8a14.9,14.9,0,0,0-9.15,3.4A13.79,13.79,0,0,0,63.4,13.744c-1.121,6.644-.555,13.734,4.81,18.4,6.353,5.527,15.011,5.818,22.966,6.664,1.272.132,1.261-1.854,0-1.99" transform="translate(216.475 1245.513)" fill="#1a1311"/>
      <path id="패스_5489" data-name="패스 5489" d="M65.614,6.683c.981-.058,1.967-.12,2.948-.178a1.056,1.056,0,0,0,.295-.012c-.05,0-.1-.008-.151-.016a.572.572,0,0,1-.337-.229.228.228,0,0,1-.074-.124c-.035-.085-.039-.089-.016-.012l.019.116c-.07-.244-.012-.1,0-.019l.047.376.186,1.47a1.1,1.1,0,0,0,.291.7,1.025,1.025,0,0,0,.706.291,1.009,1.009,0,0,0,.7-.291.937.937,0,0,0,.291-.7L70.307,6.4a4.88,4.88,0,0,0-.143-.919,1.371,1.371,0,0,0-1.117-.946,4.6,4.6,0,0,0-.865.008c-.283.019-.562.035-.846.05l-1.722.1a.995.995,0,0,0,0,1.99" transform="translate(221.351 1252.493)" fill="#1a1311"/>
      <path id="패스_5490" data-name="패스 5490" d="M65.318,7.949c.081.539.159,1.074.24,1.614a3.111,3.111,0,0,0,.535,1.761,1.387,1.387,0,0,0,1.125.427c.326-.031.648-.1.966-.167.551-.1,1.1-.206,1.652-.31a1,1,0,0,0,.694-1.226,1.022,1.022,0,0,0-1.226-.694c-.764.147-1.532.31-2.3.434l.264-.035a1.2,1.2,0,0,1-.2.012l.264.035a.6.6,0,0,1-.144-.035c.078.031.159.066.237.1-.136-.078.109.093.14.136.1.128.031.023.012-.023l.1.24a3.2,3.2,0,0,1-.113-.605c-.039-.248-.074-.493-.112-.741-.07-.485-.143-.97-.217-1.451a.971.971,0,0,0-.454-.593,1,1,0,0,0-1.361.353,1.166,1.166,0,0,0-.1.768" transform="translate(223.299 1258.767)" fill="#1a1311"/>
      <path id="패스_5491" data-name="패스 5491" d="M71.407,7.638q-1.047.291-2.1.586c-.353.1-.71.194-1.067.295a1.323,1.323,0,0,0-1.055,1.264,5.175,5.175,0,0,0,.252,1.156c.093.353.182.71.275,1.063a5.1,5.1,0,0,0,.341,1.117,1.445,1.445,0,0,0,1.288.745,13.5,13.5,0,0,0,2.618-.26,1,1,0,0,0,.694-1.222,1.024,1.024,0,0,0-1.226-.694c-.109.019-.221.035-.33.05l-.116.019c.128-.023-.05,0-.074.008q-.355.041-.71.07c-.237.016-.473.031-.71.039-.047,0-.1,0-.147,0s-.047,0,.031.008a.277.277,0,0,1,.2.089.536.536,0,0,1,.248.26c.074.147,0-.012-.012-.047-.124-.438-.225-.884-.341-1.323-.058-.233-.116-.465-.178-.7L69.2,9.795a.961.961,0,0,0-.039-.151c-.019-.089-.019-.039-.012.14q-.035.279.023.116c-.085.147-.171.291-.256.438a.562.562,0,0,1-.182.1c-.081.031-.085.035,0,.012.054-.012.109-.031.163-.047l.454-.128c.287-.078.574-.159.861-.24.578-.159,1.152-.318,1.726-.481a.994.994,0,0,0-.528-1.916" transform="translate(228.741 1261.389)" fill="#1a1311"/>
    </g>
  </g>
</svg>
