<svg xmlns="http://www.w3.org/2000/svg" xmlns:xlink="http://www.w3.org/1999/xlink" width="24.293" height="18.473" viewBox="0 0 24.293 18.473">
  <defs>
    <clipPath id="clip-path">
      <rect id="사각형_1749" data-name="사각형 1749" width="24.293" height="18.473" fill="#fff"/>
    </clipPath>
  </defs>
  <g id="그룹_919" data-name="그룹 919" transform="translate(0 0)">
    <g id="그룹_918" data-name="그룹 918" transform="translate(0 0)" clip-path="url(#clip-path)">
      <path id="패스_1633" data-name="패스 1633" d="M10.414.048c2.089-.126,4.2.043,6.293.013a55.879,55.879,0,0,1,7.072.407c.888.256.425,1.361.105,2.007-1.012,2.131-1.171,5.153-2.066,7.6a16.815,16.815,0,0,1-2.958,5.053c-.628.928-.918,2.224-1.786,2.684a8.154,8.154,0,0,1-2.617.559,23.5,23.5,0,0,1-4.972-.067c-3.2-.319-2.217-1.179-4.2-3.312C1.93,11.462,2.167,8.157.751,3.673.362,2.578-.78,1.03.855.625,3.737-.16,7.367.378,10.366.052Z" transform="translate(0 0)" fill="#fff" fill-rule="evenodd"/>
    </g>
  </g>
</svg>
