<svg xmlns="http://www.w3.org/2000/svg" xmlns:xlink="http://www.w3.org/1999/xlink" width="27.904" height="31.736" viewBox="0 0 27.904 31.736">
  <defs>
    <clipPath id="clip-path">
      <rect id="사각형_1750" data-name="사각형 1750" width="27.904" height="31.736" fill="#fff"/>
    </clipPath>
  </defs>
  <g id="그룹_921" data-name="그룹 921" transform="translate(0 -2.729)">
    <g id="그룹_920" data-name="그룹 920" transform="translate(0 2.729)" clip-path="url(#clip-path)">
      <path id="패스_1634" data-name="패스 1634" d="M11.423.176a6.083,6.083,0,0,1,2.441-.1c1.329.168,4.163-.17,4.782,1.156.216.543-.208,1.11-.568,1.549a4.332,4.332,0,0,0-1.2,2.1,26.04,26.04,0,0,0-.005,7.594c.1,1.172-.312,2.448.876,3.2a18.226,18.226,0,0,0,2.038,1.074,13.148,13.148,0,0,0,3.277,1.535c1.263.252,2.631-.031,3.9.25,2.594.662-.943,3.236-1.308,4.348a11.732,11.732,0,0,0-.734,2.459,14.33,14.33,0,0,1-1.783,3.633,4.249,4.249,0,0,1-3.944,2.53,46.38,46.38,0,0,1-8.983.019,7.52,7.52,0,0,1-2.777-.557,6.006,6.006,0,0,1-2.408-3,29.751,29.751,0,0,0-1.757-3.646A30.512,30.512,0,0,0,.984,22.1c-.911-1.016-1.794-2.433.322-2.889a17.763,17.763,0,0,1,3.1-.347c2.037-.089,3.453-1.679,5.112-2.685a4.629,4.629,0,0,0,2.492-4.167,36.05,36.05,0,0,0,.035-6.461,6.656,6.656,0,0,0-.131-1.5c-.164-1.259-2.149-2.912-.53-3.856Z" transform="translate(0 0)" fill="#fff" fill-rule="evenodd"/>
    </g>
  </g>
</svg>
