<svg xmlns="http://www.w3.org/2000/svg" xmlns:xlink="http://www.w3.org/1999/xlink" width="22.917" height="29.739" viewBox="0 0 22.917 29.739">
  <defs>
    <clipPath id="clip-path">
      <rect id="사각형_1756" data-name="사각형 1756" width="22.917" height="29.739" fill="#fff"/>
    </clipPath>
  </defs>
  <g id="그룹_988" data-name="그룹 988" transform="translate(0 0)">
    <g id="그룹_929" data-name="그룹 929" transform="translate(0 0.001)" clip-path="url(#clip-path)">
      <path id="패스_1655" data-name="패스 1655" d="M6.844,0c2.562.3,5.459.027,8.13.158C17.781.3,17-.529,18.645,1.89c.561.27,1.71.115,1.364,1.049-.436.12-.7-.018-.682.577A2.65,2.65,0,0,1,19.9,4.565a.7.7,0,0,0-.315.576c4.161,2.6,3.533,8.6,2.78,12.8-.676,3.618-2.461,6.761-4.2,9.913-.8,2.569-4.835,1.675-7.552,1.889-5.873-.241-5.058.077-7.447-4.931A24.709,24.709,0,0,1,.236,9.494,10.251,10.251,0,0,1,1.862,6.243c.385-.513,1.523-1.01,1.731-1.573-.222-.11-.439-.152-.472-.472a3.571,3.571,0,0,0,.787-1.311c-.332-.547-.777.038-.734-1,.057-.047,0,0,.052-.052C5.806,1.981,4.3-.062,6.844,0" transform="translate(0 0)" fill="#fff" fill-rule="evenodd"/>
    </g>
  </g>
</svg>
