<svg xmlns="http://www.w3.org/2000/svg" xmlns:xlink="http://www.w3.org/1999/xlink" width="19.817" height="27.376" viewBox="0 0 19.817 27.376">
  <defs>
    <clipPath id="clip-path">
      <rect id="사각형_1748" data-name="사각형 1748" width="19.817" height="27.376" fill="#fff"/>
    </clipPath>
  </defs>
  <g id="그룹_917" data-name="그룹 917" transform="translate(0 0)">
    <g id="그룹_916" data-name="그룹 916" transform="translate(0 0)" clip-path="url(#clip-path)">
      <path id="패스_1632" data-name="패스 1632" d="M11.14,0a26.188,26.188,0,0,1,3.588.475.826.826,0,0,1,.445.278c.194.262-.057.7-.055.988s.295.508.551.663c.352.207.764.363,1.132.543a5.637,5.637,0,0,1,2.407,3.258,12.606,12.606,0,0,1,.338,6.546,18.072,18.072,0,0,1-1.04,4.62,6.065,6.065,0,0,1-.606,1.651,16.089,16.089,0,0,0-.827,1.845,22.405,22.405,0,0,0-1.083,1.987c-.4.955-.98,1.782-1.435,2.707a2.406,2.406,0,0,1-.857,1.064,10.453,10.453,0,0,1-5.218.682c-1.157-.186-2.32-.448-2.792-1.542-1.5-3.105-3.594-5.905-4.674-9.33A24.561,24.561,0,0,1,.039,8.457,5.9,5.9,0,0,1,.563,6.675,5.274,5.274,0,0,1,2.252,3.687,7.664,7.664,0,0,1,4.519,2.246c.488-.488-.617-1.119.322-1.629C5.865.1,7.341.3,8.615.109,9.437-.046,10.315.136,11.1,0Z" transform="translate(0 -0.001)" fill="#fff" fill-rule="evenodd"/>
    </g>
  </g>
</svg>
