<svg xmlns="http://www.w3.org/2000/svg" width="36.617" height="22.287" viewBox="0 0 36.617 22.287">
  <path id="패스_1855" data-name="패스 1855" d="M31.884.118c.109.176-.107.362-.2.548a1.125,1.125,0,0,0,.036,1.15,27.934,27.934,0,0,1,4.606,10.967,13.556,13.556,0,0,1-.011,5.632c-.307.8-.887,1.513-1.125,2.3-.365.828-1.416.965-2.247,1.188a32.546,32.546,0,0,1-5.065.219,96.042,96.042,0,0,1-12.811-.135c-2.088-.084-2.332-2.133-3.32-3.635-.272-.437-.365-.941-.651-1.351a19.73,19.73,0,0,1-1.737-2.423,2.816,2.816,0,0,0-.445-.7c-2.467-2.779-3.7-7.008-6.8-9.315C1.561,4.127.735,4.205.23,3.719c-.634-.711.159-1.652,1.006-1.6a6.085,6.085,0,0,1,2.872.842c1.306.215,2.117,1.4,3.075,2.2,1.868,1.038,2.619,3.732,5,3.387a.949.949,0,0,0,.468-.45c.755-1.353,1.268-2.982,2.094-4.284.473-.795,1.785-1.79,1.136-2.79a1.034,1.034,0,0,1-.322-.584c-.021-.241.22-.269.424-.275C20.719.091,26.447-.12,31.858.091Z" transform="translate(0 0)" fill="#fff" fill-rule="evenodd"/>
</svg>
