<svg xmlns="http://www.w3.org/2000/svg" xmlns:xlink="http://www.w3.org/1999/xlink" width="104.174" height="128.032" viewBox="0 0 104.174 128.032">
  <defs>
    <clipPath id="clip-path">
      <path id="패스_5158" data-name="패스 5158" d="M.075,0h92.1V104.758H-1.053Z" transform="translate(1.053)" fill="none"/>
    </clipPath>
  </defs>
  <g id="그룹_1815" data-name="그룹 1815" transform="translate(2894.605 1877.342)">
    <path id="패스_5154" data-name="패스 5154" d="M0,0H92.1V104.758H0Z" transform="translate(-2889.69 -1860.114)" fill="#53a9df"/>
    <g id="그룹_1582" data-name="그룹 1582" transform="translate(-2890.817 -1860.114)">
      <g id="마스크_그룹_51" data-name="마스크 그룹 51" transform="translate(0)" clip-path="url(#clip-path)">
        <path id="패스_5122" data-name="패스 5122" d="M49.747,41.334a5.169,5.169,0,0,1,4.268.025L96.585,61.008V46.692a3.62,3.62,0,0,0-2.1-3.287L54.014,24.729a5.16,5.16,0,0,0-4.268-.027L6.88,43.853a3.618,3.618,0,0,0-2.143,3.3V61.441Z" transform="translate(-3.632 -12.419)" fill="#ef8026" stroke="#000" stroke-width="2"/>
        <path id="패스_5124" data-name="패스 5124" d="M55.93,28.666,10.92,48.773.583,116.326H112.77l-10-67.986L60.2,28.691a5.169,5.169,0,0,0-4.268-.025" transform="translate(-9.815 -6.517)" fill="#fac213" stroke="#000" stroke-width="2"/>
      </g>
    </g>
    <path id="패스_5126" data-name="패스 5126" d="M5.316,20.807c30.7.249,61.4.595,92.1.844a.986.986,0,0,0,0-1.971c-30.7-.249-61.4-.6-92.1-.846a.987.987,0,0,0,0,1.973" transform="translate(-2895.005 -1880.599)" fill="#1a1311"/>
    <path id="패스_5127" data-name="패스 5127" d="M41.678,20.432q-.754,51.594.493,103.191a.987.987,0,0,0,1.973,0q-1.25-51.587-.493-103.191a.987.987,0,0,0-1.973,0" transform="translate(-2839.885 -1879.636)" fill="#1a1311"/>
    <path id="패스_5128" data-name="패스 5128" d="M5.2,62.836c31.261.881,62.476,1.839,93.749.864,1.264-.037,1.272-2.011,0-1.971-31.273.973-62.489.015-93.749-.866a.987.987,0,0,0,0,1.973" transform="translate(-2895.172 -1818.04)" fill="#1a1311"/>
    <path id="패스_5129" data-name="패스 5129" d="M7.09,60.806a6.044,6.044,0,0,0-3.374.264,1.018,1.018,0,0,0-.689,1.214q.519,2.456,1.035,4.91a1,1,0,0,0,.951.724c20.893.426,41.787.936,62.685,1.045,10.852.057,21.71.05,32.562-.142,2.075-.037,6.5-.289,6.338-3.347-.124-2.279-4.447-3.77-6.244-3.148-1.192.413-.682,2.319.523,1.9.515-.179,3.021.2,3.168.98.376,1.993-2.9,1.615-3.785,1.637-2.4.062-4.813.062-7.219.085q-6.249.06-12.5.077-12.367.03-24.728-.122c-16.937-.2-33.868-.6-50.8-.941q.478.362.951.724-.515-2.456-1.035-4.912l-.687,1.214,2.324-.266c1.242.2,1.777-1.7.525-1.9" transform="translate(-2897.034 -1818.305)" fill="#1a1311"/>
    <path id="패스_5130" data-name="패스 5130" d="M99.649,25.25a6.044,6.044,0,0,0,3.374-.264,1.018,1.018,0,0,0,.689-1.214q-.519-2.456-1.035-4.91a1,1,0,0,0-.951-.724c-20.279-.418-40.543-1.292-60.821-1.662-10.621-.194-21.252-.266-31.875-.085-2.69.047-6.679.463-5.938,4.181.453,2.272,3.715,4.666,5.992,3.994a.987.987,0,0,0-.525-1.9,3.475,3.475,0,0,1-2.926-1.476c-1.441-3.287,1.951-2.79,3.4-2.824,2.391-.06,4.785-.055,7.174-.07q6.133-.037,12.268,0,11.919.075,23.837.416c16.471.44,32.94,1.06,49.417,1.4q-.478-.362-.951-.724.515,2.456,1.033,4.912c.231-.406.46-.809.689-1.214l-2.324.266c-1.242-.2-1.777,1.7-.525,1.9" transform="translate(-2897.031 -1884.391)" fill="#1a1311"/>
    <path id="패스_5131" data-name="패스 5131" d="M5.093,19.908q1.082,51.986-1.339,103.96c-.06,1.269,1.914,1.267,1.971,0Q8.151,71.927,7.066,19.908a.987.987,0,0,0-1.973,0" transform="translate(-2895.915 -1880.416)" fill="#1a1311"/>
    <path id="패스_5132" data-name="패스 5132" d="M3.889,51.446q50.067-.844,100.1,1.919c1.267.07,1.264-1.9,0-1.973q-50-2.758-100.1-1.919a.987.987,0,0,0,0,1.973" transform="translate(-2897.13 -1835.286)" fill="#1a1311"/>
    <path id="패스_5133" data-name="패스 5133" d="M6.069,50.64c.381,9.217.854,18.435,1.122,27.655.037,1.267,2.011,1.272,1.973,0-.271-9.22-.742-18.437-1.122-27.655-.052-1.264-2.026-1.272-1.973,0" transform="translate(-2892.469 -1834.671)" fill="#1a1311"/>
    <path id="패스_5134" data-name="패스 5134" d="M2.772,50.908c.381,9.217.854,18.435,1.122,27.655.037,1.267,2.011,1.272,1.973,0-.271-9.22-.742-18.437-1.122-27.655-.052-1.264-2.026-1.272-1.973,0" transform="translate(-2897.376 -1834.272)" fill="#1a1311"/>
    <path id="패스_5135" data-name="패스 5135" d="M8.746,50.361A207.193,207.193,0,0,1,9.8,78.667c-.037,1.272,1.934,1.269,1.973,0a207.193,207.193,0,0,0-1.058-28.307c-.134-1.249-2.108-1.264-1.973,0" transform="translate(-2888.491 -1835.074)" fill="#1a1311"/>
    <path id="패스_5136" data-name="패스 5136" d="M11.834,50.639q.705,14.143.46,28.312a.987.987,0,0,0,1.973,0q.246-14.162-.46-28.312c-.065-1.264-2.038-1.272-1.973,0" transform="translate(-2883.887 -1834.673)" fill="#1a1311"/>
    <path id="패스_5137" data-name="패스 5137" d="M14.87,50.456q.437,14.043.871,28.088c.04,1.264,2.013,1.272,1.976,0q-.44-14.046-.873-28.088c-.037-1.267-2.013-1.272-1.973,0" transform="translate(-2879.366 -1834.946)" fill="#1a1311"/>
    <path id="패스_5138" data-name="패스 5138" d="M17.932,50.184q.6,14.267-.025,28.543c-.055,1.269,1.919,1.267,1.973,0q.62-14.267.025-28.543c-.055-1.264-2.026-1.272-1.973,0" transform="translate(-2874.848 -1835.35)" fill="#1a1311"/>
    <path id="패스_5139" data-name="패스 5139" d="M20.36,50.833a122.8,122.8,0,0,1,.555,28.481c-.122,1.262,1.851,1.254,1.973,0a124.844,124.844,0,0,0-.627-29.006c-.172-1.252-2.073-.719-1.9.525" transform="translate(-2871.211 -1834.813)" fill="#1a1311"/>
    <path id="패스_5140" data-name="패스 5140" d="M24.469,50.458q-.19,14.845-1.227,29.658c-.09,1.267,1.884,1.259,1.973,0Q26.249,65.3,26.442,50.458a.987.987,0,0,0-1.973,0" transform="translate(-2866.909 -1834.945)" fill="#1a1311"/>
    <path id="패스_5141" data-name="패스 5141" d="M26.625,50.548Q26.763,64.7,26.9,78.86a.987.987,0,0,0,1.973,0L28.6,50.548a.987.987,0,0,0-1.973,0" transform="translate(-2861.869 -1834.811)" fill="#1a1311"/>
    <path id="패스_5142" data-name="패스 5142" d="M30.078,50.821q.03,13.931.062,27.859a.986.986,0,0,0,1.971,0l-.06-27.859a.987.987,0,0,0-1.973,0" transform="translate(-2856.729 -1834.404)" fill="#1a1311"/>
    <path id="패스_5143" data-name="패스 5143" d="M32.9,50.728l1.083,28.548c.047,1.267,2.021,1.272,1.973,0L34.873,50.728c-.05-1.264-2.021-1.272-1.973,0" transform="translate(-2852.53 -1834.54)" fill="#1a1311"/>
    <path id="패스_5144" data-name="패스 5144" d="M35.676,51.1a194.21,194.21,0,0,1,1.769,27.359.987.987,0,0,0,1.973,0,197.916,197.916,0,0,0-1.841-27.884c-.169-1.252-2.07-.719-1.9.525" transform="translate(-2848.412 -1834.412)" fill="#1a1311"/>
    <path id="패스_5145" data-name="패스 5145" d="M39.4,51.182a211.012,211.012,0,0,1,1.916,27.162.986.986,0,0,0,1.971,0,214.264,214.264,0,0,0-1.986-27.687c-.169-1.252-2.07-.719-1.9.525" transform="translate(-2842.863 -1834.293)" fill="#1a1311"/>
    <path id="패스_5146" data-name="패스 5146" d="M43.627,51.366a76.14,76.14,0,0,1,.3,13.261c-.1,2.13-.226,4.258-.319,6.388-.045,1.065-.085,2.13-.1,3.2-.007.348.229,3.35.01,3.511-1.008.749-.025,2.461,1,1.7,1.53-1.135.936-3.549.968-5.216.05-2.578.2-5.151.328-7.724a84.324,84.324,0,0,0-.2-15.123c-.159-1.242-2.135-1.257-1.973,0" transform="translate(-2837.36 -1833.569)" fill="#1a1311"/>
    <path id="패스_5147" data-name="패스 5147" d="M103.116,22.044c-.216-1.637-.072-3.275-.289-4.91a1.012,1.012,0,0,0-.985-.988C83.23,15.763,64.628,15,46.017,14.589q-13.692-.306-27.388-.269-4.128.015-8.259.065c-1.682.02-3.75-.229-5.32.518-2.439,1.157-2.307,3.907-.694,5.691.854.943,2.245-.455,1.4-1.4q-.646-2.938,1.4-2.745a14.426,14.426,0,0,1,2-.08c1.209-.03,2.424-.03,3.633-.04q3.21-.034,6.418-.042,6.025-.019,12.047.035,11.325.1,22.653.433c15.981.44,31.957,1.033,47.943,1.361l-.985-.985c.214,1.635.072,3.272.286,4.91.164,1.242,2.14,1.257,1.973,0" transform="translate(-2896.774 -1887.328)" fill="#1a1311"/>
    <path id="패스_5148" data-name="패스 5148" d="M103.116,20.305c-.216-1.637-.072-3.275-.289-4.91a1.012,1.012,0,0,0-.985-.988c-18.611-.383-37.213-1.142-55.825-1.558q-13.692-.306-27.388-.269-4.128.015-8.259.065c-1.682.02-3.75-.229-5.32.518-2.439,1.157-2.307,3.907-.694,5.691.854.943,2.245-.455,1.4-1.4q-.646-2.938,1.4-2.745a14.425,14.425,0,0,1,2-.08c1.209-.03,2.424-.03,3.633-.04q3.21-.034,6.418-.042,6.025-.019,12.047.035,11.325.1,22.653.433c15.981.44,31.957,1.033,47.943,1.361l-.985-.985c.214,1.635.072,3.272.286,4.91.164,1.242,2.14,1.257,1.973,0" transform="translate(-2896.774 -1889.916)" fill="#1a1311"/>
    <path id="패스_6474" data-name="패스 6474" d="M16.385,11.016v3.84a1.323,1.323,0,0,0,1.376,1.456,1.342,1.342,0,0,0,1.392-1.456V5.624a1.346,1.346,0,0,0-1.392-1.44,1.309,1.309,0,0,0-1.376,1.44V9.016H11.9V5.624a1.323,1.323,0,0,0-1.36-1.44,1.35,1.35,0,0,0-1.408,1.44v9.232a1.346,1.346,0,0,0,1.408,1.456,1.324,1.324,0,0,0,1.36-1.456v-3.84Zm8.592-2.784c-2.416,0-4.288,1.3-4.448,3.312a12.557,12.557,0,0,0,0,1.552c.176,1.952,2.08,3.312,4.448,3.312,2.384,0,4.336-1.312,4.464-3.312a10.051,10.051,0,0,0,0-1.552C29.265,9.544,27.233,8.232,24.977,8.232Zm-1.76,4.88a6.689,6.689,0,0,1,0-1.6,1.628,1.628,0,0,1,1.76-1.344c1.024,0,1.712.464,1.776,1.344a8.9,8.9,0,0,1,0,1.6A1.613,1.613,0,0,1,24.977,14.5C23.985,14.5,23.217,13.992,23.217,13.112Zm7.36-3.6V15.24c0,.688.528,1.072,1.328,1.072,1.024,0,1.408-.48,1.408-1.36V11.736a1.383,1.383,0,0,1,1.552-1.568,1.329,1.329,0,0,1,1.472,1.376v3.7c0,.688.464,1.072,1.328,1.072,1.04,0,1.392-.368,1.392-1.088V11.592a1.369,1.369,0,0,1,1.536-1.424,1.327,1.327,0,0,1,1.488,1.376v3.632c0,.752.576,1.136,1.376,1.136,1.056,0,1.328-.448,1.328-1.168V11.576c0-2.176-1.7-3.344-4.064-3.344A3.331,3.331,0,0,0,38.033,9.32a3.73,3.73,0,0,0-2.9-1.088A2.386,2.386,0,0,0,33.1,9a1.163,1.163,0,0,0-1.152-.672A1.221,1.221,0,0,0,30.577,9.512ZM48.609,13.16h4c1.072,0,2.128-.224,2.128-1.712,0-1.856-1.968-3.248-4.32-3.248-2.624,0-4.464,1.52-4.5,3.264a13.883,13.883,0,0,0,0,1.632c.128,1.968,1.92,3.312,4.784,3.312A6.455,6.455,0,0,0,54,15.64a.847.847,0,0,0,.3-1.248c-.32-.512-.88-.464-1.408-.288a6.614,6.614,0,0,1-2.128.5C49.441,14.6,48.625,14.072,48.609,13.16ZM51.7,11.448H48.609v-.256c0-.7.832-1.152,1.792-1.152,1.008,0,1.776.528,1.776,1.2C52.177,11.432,52.065,11.448,51.7,11.448Z" transform="translate(-2874.334 -1815.997)"/>
  </g>
</svg>
