<svg xmlns="http://www.w3.org/2000/svg" xmlns:xlink="http://www.w3.org/1999/xlink" width="167.983" height="25.982" viewBox="0 0 167.983 25.982">
  <defs>
    <clipPath id="clip-path">
      <rect id="사각형_1754" data-name="사각형 1754" width="167.983" height="25.982" fill="none" stroke="#fac213" stroke-width="1"/>
    </clipPath>
  </defs>
  <g id="그룹_956" data-name="그룹 956" transform="translate(0 0)">
    <g id="그룹_925" data-name="그룹 925" transform="translate(0 0)" clip-path="url(#clip-path)">
      <path id="패스_1644" data-name="패스 1644" d="M74.692,19.1A7.71,7.71,0,1,1,82.4,11.39,7.711,7.711,0,0,1,74.692,19.1Z" transform="translate(9.299 0.511)" fill="none" stroke="#fac213" stroke-miterlimit="10" stroke-width="3"/>
      <line id="선_52" data-name="선 52" x1="53.598" transform="translate(22.683 11.901)" fill="none" stroke="#fac213" stroke-miterlimit="10" stroke-width="2"/>
      <path id="패스_1645" data-name="패스 1645" d="M31.013,22.9l-11.1-11.1,11.1-11.1" transform="translate(2.765 0.098)" fill="none" stroke="#fac213" stroke-miterlimit="10" stroke-width="2"/>
      <path id="패스_1646" data-name="패스 1646" d="M19.1,20.462l-8.924-8.924L19.1,2.614" transform="translate(1.412 0.363)" fill="none" stroke="rgba(250,194,19,0.6)" stroke-miterlimit="10" stroke-width="2"/>
      <path id="패스_1647" data-name="패스 1647" d="M10.338,20.462,1.414,11.538l8.924-8.924" transform="translate(0.196 0.363)" fill="none" stroke="rgba(250,194,19,0.2)" stroke-miterlimit="10" stroke-width="2"/>
      <line id="선_53" data-name="선 53" x2="53.598" transform="translate(91.702 11.901)" fill="none" stroke="#fac213" stroke-miterlimit="10" stroke-width="2"/>
      <path id="패스_1648" data-name="패스 1648" d="M117.844.707l11.1,11.1-11.1,11.1" transform="translate(16.36 0.098)" fill="none" stroke="#fac213" stroke-miterlimit="10" stroke-width="2"/>
      <path id="패스_1649" data-name="패스 1649" d="M129.494,2.614l8.924,8.924-8.924,8.924" transform="translate(17.977 0.363)" fill="none" stroke="rgba(250,194,19,0.6)" stroke-miterlimit="10" stroke-width="2"/>
      <path id="패스_1650" data-name="패스 1650" d="M138.255,2.614l8.924,8.924-8.924,8.924" transform="translate(19.193 0.363)" fill="none" stroke="rgba(250,194,19,0.2)" stroke-miterlimit="10" stroke-width="2"/>
      <path id="패스_1651" data-name="패스 1651" d="M82.556,16.138,78.7,12.1l-1.72-1.72a1.86,1.86,0,0,0-2.138-.4,1.105,1.105,0,0,0-.368.817,1.977,1.977,0,0,0,.531,1.417l8.449,8.449a.563.563,0,0,1,.118.63.573.573,0,0,1-.541.336q-.465-.022-.945-.022c-2.278,0-4.654.391-4.924,1.535a.532.532,0,0,0,.024.362c.142.175.853.2,1.539.216.341.01.723.022,1.14.048l.454.03c2.3.157,7.686.52,9.883-.871,1.559-.986,4.036-3.144,3.126-6.525a15.6,15.6,0,0,0-4.351-7.391l-.027-.025a1.377,1.377,0,0,0-1.9,0,1.3,1.3,0,0,0-.285.462L88,11.212l-.673.473L86.023,9.827l-.014-.015a1.322,1.322,0,0,0-1.455-.318,1.339,1.339,0,0,0-.791,1.618L85.4,13.179l-.323.255-.32.255-1.679-2.118-.394-.393a1.432,1.432,0,0,0-1.91-.146,1.335,1.335,0,0,0-.453,1.387c.022.05.129.245.13.247l.1.184,2.6,2.718Z" transform="translate(10.339 1.195)" fill="#fff"/>
      <path id="패스_1652" data-name="패스 1652" d="M94.222,16.29a16.191,16.191,0,0,0-4.6-7.8,2.22,2.22,0,0,0-3.053.014,2.068,2.068,0,0,0-.346.459,2.1,2.1,0,0,0-1.9-.124,2.2,2.2,0,0,0-1.294,1.573,2.207,2.207,0,0,0-2.689.1,2.279,2.279,0,0,0-.756,1.312l-.182-.182-.008-.009L77.663,9.9a2.634,2.634,0,0,0-3.239-.457,1.906,1.906,0,0,0-.667,1.412,2.761,2.761,0,0,0,.769,2.038l7.993,7.992c-2.072-.034-5.593.2-6.059,2.188a1.242,1.242,0,0,0,.19,1.048c.379.467,1.084.487,2.152.519.333.009.7.021,1.11.047l.451.03c1.017.068,2.462.166,3.992.166,2.359,0,4.916-.232,6.388-1.164,1.748-1.107,4.527-3.544,3.479-7.433M80.42,23.9l-.454-.03c-.417-.027-.8-.039-1.14-.048-.686-.021-1.4-.042-1.539-.216a.544.544,0,0,1-.024-.363c.27-1.143,2.648-1.535,4.925-1.535.319,0,.634.008.945.022a.572.572,0,0,0,.541-.335.563.563,0,0,0-.12-.631l-8.449-8.448a1.978,1.978,0,0,1-.531-1.417,1.1,1.1,0,0,1,.369-.818,1.859,1.859,0,0,1,2.136.4L78.8,12.2l3.854,4.034.593-.568-2.6-2.72-.1-.183s-.108-.2-.13-.247a1.333,1.333,0,0,1,.454-1.387,1.429,1.429,0,0,1,1.909.146l.393.393,1.68,2.117.321-.255.322-.255-1.638-2.067a1.337,1.337,0,0,1,.791-1.618,1.321,1.321,0,0,1,1.455.319l.014.014,1.3,1.859.674-.473L86.862,9.55a1.3,1.3,0,0,1,.285-.462,1.378,1.378,0,0,1,1.9,0l.026.025A15.584,15.584,0,0,1,93.43,16.5c.909,3.381-1.568,5.54-3.127,6.525-2.2,1.393-7.583,1.028-9.883.872" transform="translate(10.239 1.096)"/>
    </g>
  </g>
</svg>
