<svg xmlns="http://www.w3.org/2000/svg" xmlns:xlink="http://www.w3.org/1999/xlink" width="95.256" height="135.351" viewBox="0 0 95.256 135.351">
  <defs>
    <clipPath id="clip-path">
      <rect id="사각형_2450" data-name="사각형 2450" width="95.256" height="135.351" fill="none"/>
    </clipPath>
  </defs>
  <g id="그룹_1712" data-name="그룹 1712" transform="translate(0 0)">
    <g id="그룹_1709" data-name="그룹 1709" transform="translate(0 0)" clip-path="url(#clip-path)">
      <path id="패스_6149" data-name="패스 6149" d="M36.419,0c7.941.479,19.489-.86,23.3,5.821q-.263.916-.533,1.833c-6.871,2.027-7.957,5.976-7.361,12.813-.514,10.61,6.463,19.361,11.708,28.053C69.663,62.6,80.121,76.766,79.394,92.82c-4.327,13.431-10.42,22.275-20.5,29.8-2.078,1.549-1.782,5.6-3.159,7.848-7.525,6.945-32.971,7.758-32.2-6.1-12.05-10.875-25.641-24.318-20.318-43C8.491,69.117,14.144,56.822,21.373,45.531c8.684-9.284,13.777-21.948,12.4-35.06-1.661-3.529-6.7-1.922-6.79-6.568C29.377,1.658,33.427.856,36.419,0" transform="translate(5.859 0.001)" fill="#fff" fill-rule="evenodd"/>
      <path id="패스_6150" data-name="패스 6150" d="M10.9,9.806a5.683,5.683,0,0,0-.1.887,6.175,6.175,0,0,0,.089.887,4.793,4.793,0,0,0,.444,1.292,4.9,4.9,0,0,0,1.84,2.008,4.313,4.313,0,0,0,2.638.638,4.8,4.8,0,0,0,1.323-.3,6.151,6.151,0,0,0,.778-.362,6.39,6.39,0,0,0,.728-.525,4.532,4.532,0,0,0,1.552-2.5,1.68,1.68,0,0,0-.16-1.21,1.569,1.569,0,0,0-2.148-.56,1.555,1.555,0,0,0-.72.938,2.918,2.918,0,0,1-.167.533c.054-.125.109-.253.16-.377a3.233,3.233,0,0,1-.409.7l.245-.319a3.732,3.732,0,0,1-.607.607L16.7,11.9a3.61,3.61,0,0,1-.778.455c.125-.054.253-.109.377-.16a3.558,3.558,0,0,1-.825.23l.416-.058a3.156,3.156,0,0,1-.766.008c.14.016.28.035.416.054a2.924,2.924,0,0,1-.743-.2c.125.054.249.105.374.16a3.317,3.317,0,0,1-.7-.412l.319.245a3.732,3.732,0,0,1-.607-.607l.245.319a3.807,3.807,0,0,1-.455-.778c.054.125.109.249.16.374a3.367,3.367,0,0,1-.226-.825c.019.14.035.28.054.42a3.19,3.19,0,0,1,0-.77c-.016.14-.035.28-.054.416,0-.043.012-.086.019-.128a1.169,1.169,0,0,0,.027-.623,1.126,1.126,0,0,0-.187-.584,1.566,1.566,0,0,0-2.148-.564,1.527,1.527,0,0,0-.72.938" transform="translate(31.207 25.033)" fill="#1b1311"/>
      <path id="패스_6151" data-name="패스 6151" d="M8.186,2.834A7.436,7.436,0,0,0,13.034,7a35.368,35.368,0,0,0,7.7,1.424,57.7,57.7,0,0,0,16.727-.673C39.842,7.3,44.1,6.527,43.27,3.114c-.475-1.961-3.5-1.132-3.027.837-.121-.5.3-.284-.051-.195A4.367,4.367,0,0,0,39.761,4a8.889,8.889,0,0,1-1.8.455c-1.447.307-2.9.564-4.369.743a56.108,56.108,0,0,1-8.782.377,52.981,52.981,0,0,1-8.61-1c-1.626-.327-4.268-.813-4.988-2.58A1.618,1.618,0,0,0,9.284.9a1.578,1.578,0,0,0-1.1,1.93" transform="translate(23.427 2.446)" fill="#1b1311"/>
      <path id="패스_6152" data-name="패스 6152" d="M11.256,3.412a38.015,38.015,0,0,0,17.1.619,1.581,1.581,0,0,0,1.1-1.93A1.611,1.611,0,0,0,27.52,1c-.35.066-.7.132-1.054.187-.152.027-.3.051-.455.074-.066.008-.471.066-.191.027-.661.089-1.323.156-1.984.206a36.362,36.362,0,0,1-4.066.074c-.665-.027-1.327-.07-1.988-.132q-.5-.047-.992-.105c-.016,0-.506-.066-.191-.023-.179-.023-.354-.051-.533-.078A36.7,36.7,0,0,1,12.089.385a1.591,1.591,0,0,0-1.93,1.1,1.6,1.6,0,0,0,1.1,1.93" transform="translate(29.244 0.966)" fill="#1b1311"/>
      <path id="패스_6153" data-name="패스 6153" d="M32.728,4.242c3.887,10.8,1.432,21.972-5.622,30.839C20.74,43.088,12.928,49.659,7.741,58.612,2.695,67.328.045,77.6,2.076,87.619c1.992,9.809,8.879,17.334,16.318,23.579,4.42,3.712,8.965,6.677,14.766,7.595a74.7,74.7,0,0,0,20,.3c1.984-.226,2.008-3.366,0-3.14a76.445,76.445,0,0,1-16.9.105,26.972,26.972,0,0,1-15.015-6.541C13.608,103.205,6.488,95.7,4.873,85.533c-1.646-10.377,2.2-20.692,8-29.154C18.4,48.309,26.2,42.15,31.72,34.092A33.913,33.913,0,0,0,35.755,3.409c-.681-1.887-3.712-1.074-3.027.833" transform="translate(4.017 6.759)" fill="#1b1311"/>
      <path id="패스_6154" data-name="패스 6154" d="M8.2,32.006a7.3,7.3,0,0,0,.346,7A10.686,10.686,0,0,0,14.5,43.484,28.145,28.145,0,0,0,22.311,44.8a36.705,36.705,0,0,0,8.206-.556,36.452,36.452,0,0,0,8.914-2.86,1.581,1.581,0,0,0,.56-2.148,1.607,1.607,0,0,0-2.148-.56A33.058,33.058,0,0,1,24.362,41.7a31.032,31.032,0,0,1-6.758-.626A10.783,10.783,0,0,1,12.172,38.6c-1.284-1.257-2.1-3.346-1.257-5.008a1.61,1.61,0,0,0-.564-2.148,1.586,1.586,0,0,0-2.148.564" transform="translate(21.585 90.304)" fill="#1b1311"/>
      <path id="패스_6155" data-name="패스 6155" d="M14.345,9.118A2.014,2.014,0,1,1,12.33,7.1a2.016,2.016,0,0,1,2.015,2.015" transform="translate(29.828 20.534)" fill="#1b1311"/>
      <path id="패스_6156" data-name="패스 6156" d="M17.22,9.233A2.014,2.014,0,1,1,15.2,7.218,2.016,2.016,0,0,1,17.22,9.233" transform="translate(38.139 20.867)" fill="#1b1311"/>
      <path id="패스_6157" data-name="패스 6157" d="M6.992,9.757c-.525,2.537-3.443,3.2-5.6,3.77a1.962,1.962,0,0,0,0,3.751A10.772,10.772,0,0,1,8.44,24.433a1.961,1.961,0,0,0,3.751,0,8.175,8.175,0,0,1,6.762-6.171,1.973,1.973,0,0,0,1.377-3.319c-2.984-3.206-6.109-6.56-7.237-10.91a1.97,1.97,0,0,0-3.556-.467,14.8,14.8,0,0,0-2.058,4.56c-.447,1.864.514,3.93,2.743,3.467A1.947,1.947,0,0,0,9.187,7.838c-.051.012-.1.023-.148.031l1.5.2L10.412,8l.7.7c-.086.261-.043.416.121.463.054-.21.113-.416.179-.623.105-.327.218-.658.354-.977A12.813,12.813,0,0,1,12.9,5.531q-1.78-.233-3.556-.463c1.3,5.008,4.794,8.929,8.237,12.626q.689-1.663,1.373-3.323A12.138,12.138,0,0,0,8.44,23.4H12.19a14.823,14.823,0,0,0-9.758-9.871v3.751c3.5-.93,7.486-2.5,8.311-6.486A1.993,1.993,0,0,0,9.385,8.4,1.963,1.963,0,0,0,6.992,9.757" transform="translate(0.031 7.652)" fill="#1b1311"/>
      <path id="패스_6158" data-name="패스 6158" d="M26.127,10.81c-.058-.366-.082.152-.105.21s-.284.444-.35.529a13.662,13.662,0,0,1-1.424,1.424,23.094,23.094,0,0,1-3.2,2.455,2.008,2.008,0,0,0-.895,2.2,2.043,2.043,0,0,0,1.875,1.428c-.362-.043.183.035.257.051.191.043.381.089.568.144s.37.117.556.179c.366.125-.125-.082.253.105.319.163.634.327.938.517.167.105.331.214.486.331.109.082.105.078-.008,0,.078.062.152.125.226.191a9.3,9.3,0,0,1,.766.751s.385.459.191.21c.121.156.23.319.335.479a9.752,9.752,0,0,1,.568,1.023c.027.058.054.121.078.179q-.088-.2-.012-.012c.074.214.144.432.206.65.506,1.79,3.311,1.914,3.751,0a9.812,9.812,0,0,1,1.6-3.91,5.6,5.6,0,0,1,.463-.5c.128-.125.261-.249.4-.358.1-.086.109-.089.031-.019l.175-.117c.152-.089.3-.187.459-.268.039-.023.42-.179.21-.1.128-.047.265-.089.4-.125.008,0,.6-.1.311-.074a2.025,2.025,0,0,0,1.875-1.428,2,2,0,0,0-.895-2.2c-2.7-1.712-5.377-3.416-6.984-6.066a1.945,1.945,0,1,0-3.358,1.965c2,3.288,5.2,5.439,8.381,7.463.327-1.21.654-2.416.98-3.626-4.467.451-6.867,4.288-7.8,8.33h3.751a10.747,10.747,0,0,0-9.159-7.649q.5,1.809.984,3.626a29,29,0,0,0,4.521-3.568c1.552-1.514,2.712-3.19,2.342-5.447a1.957,1.957,0,0,0-2.393-1.358,1.991,1.991,0,0,0-1.358,2.393" transform="translate(58.071 22.341)" fill="#1b1311"/>
    </g>
  </g>
</svg>
