<svg xmlns="http://www.w3.org/2000/svg" xmlns:xlink="http://www.w3.org/1999/xlink" width="106.823" height="135.351" viewBox="0 0 106.823 135.351">
  <defs>
    <clipPath id="clip-path">
      <rect id="사각형_2451" data-name="사각형 2451" width="106.823" height="135.351" fill="none"/>
    </clipPath>
  </defs>
  <g id="그룹_1711" data-name="그룹 1711" transform="translate(0 0)">
    <g id="그룹_1711-2" data-name="그룹 1711" transform="translate(0 0)" clip-path="url(#clip-path)">
      <path id="패스_6159" data-name="패스 6159" d="M35.274.111C43.208.589,51.726-1.9,54.347,4.2c.424.987-3.623,1.959-3.8,2.57,3.853,3.371-.482,6.959.113,13.79-.513,10.6,6.458,19.345,11.7,28.03C68.49,62.66,78.94,76.816,78.213,92.856c-4.327,13.42-10.411,22.257-20.488,29.78-2.072,1.547-1.777,5.6-3.157,7.842-7.515,6.94-32.945,7.752-32.175-6.1C10.357,113.512-3.223,100.08,2.1,81.411,7.368,69.172,13.013,56.887,20.24,45.605,28.917,36.329,34,23.674,32.63,10.573c-1.66-3.526-6.691-1.921-6.788-6.562C28.237,1.767,32.28.966,35.274.111" transform="translate(2.624 0.001)" fill="#fff" fill-rule="evenodd"/>
      <path id="패스_6160" data-name="패스 6160" d="M19.033,14.347a5.71,5.71,0,0,0,.089-.89,5.675,5.675,0,0,0-.1-.89,4.776,4.776,0,0,0-.455-1.271A4.943,4.943,0,0,0,16.7,9.316a4.3,4.3,0,0,0-2.636-.6,5.88,5.88,0,0,0-.863.144,5.683,5.683,0,0,0-.82.319,5.053,5.053,0,0,0-1.127.743,4.506,4.506,0,0,0-1.528,2.539,1.666,1.666,0,0,0,.159,1.205,1.564,1.564,0,0,0,2.146.564,1.54,1.54,0,0,0,.719-.937,3.067,3.067,0,0,1,.187-.618c-.051.124-.1.249-.156.373a3.022,3.022,0,0,1,.393-.665l-.245.315a3.466,3.466,0,0,1,.606-.61l-.315.245A3.6,3.6,0,0,1,14,11.867c-.124.054-.249.1-.373.159a3.281,3.281,0,0,1,.828-.229l-.416.058a3.032,3.032,0,0,1,.774,0c-.136-.016-.276-.035-.416-.054a2.985,2.985,0,0,1,.708.194c-.124-.054-.249-.1-.373-.159a3.272,3.272,0,0,1,.7.412L15.122,12a3.627,3.627,0,0,1,.61.61c-.082-.109-.163-.214-.245-.319a3.521,3.521,0,0,1,.459.785c-.051-.128-.1-.253-.156-.377a3.424,3.424,0,0,1,.225.832c-.019-.14-.039-.28-.054-.42a3.062,3.062,0,0,1,0,.778l.058-.42-.008.047a1.168,1.168,0,0,0-.027.622,1.126,1.126,0,0,0,.187.583,1.564,1.564,0,0,0,2.146.564,1.512,1.512,0,0,0,.719-.937" transform="translate(27.961 25.089)" fill="#1b1311"/>
      <path id="패스_6161" data-name="패스 6161" d="M9.269,8.554a3.309,3.309,0,0,0,.941,1.707,4.22,4.22,0,0,0,1.7,1,4.511,4.511,0,0,0,1.015.175,4.39,4.39,0,0,0,1.034-.082,3.709,3.709,0,0,0,.731-.2,6.571,6.571,0,0,0,1.019-.478,8.393,8.393,0,0,0,1.613-1.306,1.629,1.629,0,0,0,.459-1.112,1.6,1.6,0,0,0-.459-1.108,1.585,1.585,0,0,0-1.108-.459,1.613,1.613,0,0,0-1.108.459,7.581,7.581,0,0,1-.789.711l.315-.245a5.047,5.047,0,0,1-1.05.63c.124-.051.249-.1.373-.156a3.567,3.567,0,0,1-.875.245c.14-.016.28-.035.42-.054a2.814,2.814,0,0,1-.723,0c.14.019.28.039.416.054a2.74,2.74,0,0,1-.673-.183c.124.054.249.1.377.159a2.657,2.657,0,0,1-.568-.327c.1.082.21.163.319.245a2.191,2.191,0,0,1-.4-.4l.245.315a2.045,2.045,0,0,1-.229-.389c.051.124.1.249.156.373a1.881,1.881,0,0,1-.117-.408,1.561,1.561,0,0,0-1.928-1.1,1.571,1.571,0,0,0-.937.719c-.054.124-.1.249-.159.377a1.589,1.589,0,0,0,0,.832" transform="translate(26.607 18.963)" fill="#1b1311"/>
      <path id="패스_6162" data-name="패스 6162" d="M12.543,9.354a4.548,4.548,0,0,0,.517.673,4.31,4.31,0,0,0,.645.544,4.216,4.216,0,0,0,1.17.579,2.656,2.656,0,0,0,.459.121,5.657,5.657,0,0,0,.851.1,3.623,3.623,0,0,0,.459-.019A5.272,5.272,0,0,0,17.5,11.2a4.445,4.445,0,0,0,.836-.342,4.276,4.276,0,0,0,.743-.525,1.188,1.188,0,0,0,.323-.505,1.155,1.155,0,0,0,.136-.6,1.161,1.161,0,0,0-.136-.606,1.152,1.152,0,0,0-.323-.5,1.589,1.589,0,0,0-1.108-.463l-.42.058a1.584,1.584,0,0,0-.692.4l-.058.047c.1-.082.21-.163.319-.245a2.684,2.684,0,0,1-.552.319c.124-.054.249-.1.377-.159a2.811,2.811,0,0,1-.688.183c.14-.016.28-.035.416-.054a3.154,3.154,0,0,1-.789,0c.136.016.276.035.416.054a3.057,3.057,0,0,1-.766-.206c.124.051.249.1.373.159a2.888,2.888,0,0,1-.634-.373c.1.086.21.167.315.249a2.726,2.726,0,0,1-.447-.451c.082.1.163.21.245.319a2.041,2.041,0,0,1-.128-.19,1.656,1.656,0,0,0-.937-.723,1.225,1.225,0,0,0-.626-.027,1.2,1.2,0,0,0-.583.187,1.6,1.6,0,0,0-.723.937,1.62,1.62,0,0,0,.159,1.209" transform="translate(35.619 20.192)" fill="#1b1311"/>
      <path id="패스_6163" data-name="패스 6163" d="M7.067,2.861C8.435,6.286,12.008,8.253,15.472,8.9a48.531,48.531,0,0,0,12.573.77A66.869,66.869,0,0,0,35.5,8.65a1.582,1.582,0,0,0,.937-2.305c-.455-.778-.91-1.551-1.365-2.329A1.568,1.568,0,0,0,32.368,5.6q.682,1.166,1.365,2.329c.311-.766.622-1.536.937-2.3a50.821,50.821,0,0,1-14.455.824c-1.186-.117-2.36-.288-3.53-.5a13.83,13.83,0,0,1-2.791-.7,9.47,9.47,0,0,1-2.317-1.431,7.44,7.44,0,0,1-1-1.007c.019.023-.214-.311-.272-.4-.035-.058-.284-.564-.21-.373A1.613,1.613,0,0,0,8.163.933a1.58,1.58,0,0,0-1.1,1.928" transform="translate(20.175 2.522)" fill="#1b1311"/>
      <path id="패스_6164" data-name="패스 6164" d="M10.136,3.437a37.985,37.985,0,0,0,17.087.618,1.58,1.58,0,0,0,1.1-1.928,1.61,1.61,0,0,0-1.932-1.1c-.35.066-.7.132-1.057.187-.148.027-.3.051-.451.074-.066.008-.47.066-.19.027-.661.089-1.322.156-1.983.206a36.333,36.333,0,0,1-4.063.074c-.665-.027-1.326-.07-1.987-.132q-.5-.047-.991-.1c-.016,0-.505-.066-.19-.023-.179-.023-.354-.051-.533-.078A36.667,36.667,0,0,1,10.968.413a1.59,1.59,0,0,0-1.928,1.1,1.6,1.6,0,0,0,1.1,1.928" transform="translate(25.981 1.044)" fill="#1b1311"/>
      <path id="패스_6165" data-name="패스 6165" d="M31.584,4.268c3.884,10.792,1.431,21.954-5.618,30.814-6.36,8-14.167,14.567-19.349,23.513C1.575,67.3-1.073,77.567.956,87.578c1.991,9.8,8.872,17.32,16.305,23.56,4.416,3.709,8.957,6.671,14.754,7.589a74.639,74.639,0,0,0,19.987.3c1.983-.225,2.006-3.363,0-3.137a76.382,76.382,0,0,1-16.884.1,26.951,26.951,0,0,1-15-6.535c-7.635-6.3-14.75-13.805-16.363-23.96-1.645-10.369,2.2-20.675,7.989-29.131C17.265,48.3,25.06,42.146,30.577,34.095A33.886,33.886,0,0,0,34.609,3.436c-.68-1.886-3.709-1.073-3.025.832" transform="translate(0.781 6.83)" fill="#1b1311"/>
      <path id="패스_6166" data-name="패스 6166" d="M7.083,32.033a7.3,7.3,0,0,0,.346,7A10.677,10.677,0,0,0,13.377,43.5a28.123,28.123,0,0,0,7.8,1.318,36.675,36.675,0,0,0,8.2-.556,36.422,36.422,0,0,0,8.907-2.857,1.58,1.58,0,0,0,.56-2.146A1.605,1.605,0,0,0,36.7,38.7a33.031,33.031,0,0,1-13.471,3.021,31.008,31.008,0,0,1-6.753-.626,10.774,10.774,0,0,1-5.427-2.476c-1.283-1.256-2.1-3.343-1.256-5a1.609,1.609,0,0,0-.564-2.146,1.585,1.585,0,0,0-2.146.564" transform="translate(18.331 90.285)" fill="#1b1311"/>
      <path id="패스_6167" data-name="패스 6167" d="M24.462,15.653a49.972,49.972,0,0,0-9.354,4.311,9.843,9.843,0,0,0-4.817,8.394,9.654,9.654,0,0,0,4.817,8.39,18.3,18.3,0,0,0,5.769,1.975,21.258,21.258,0,0,1,3.861.723q-1.166-.49-2.325-.98c.078.043.156.086.237.128-.657-.505-1.314-1.015-1.967-1.52l.175.19q-1.248-2.146-2.5-4.288l.078.194c-.117-.859-.233-1.722-.346-2.581v.191c.117-.859.229-1.722.346-2.581l-.062.187q.49-1.166.98-2.325c-.039.058-.078.121-.121.179q.764-.986,1.52-1.967a1.57,1.57,0,0,1-.35.311q.98-.758,1.967-1.516a2.786,2.786,0,0,1-.435.237l2.321-.98c-1.2.451-2.441.8-3.658,1.194A9.809,9.809,0,0,0,13.634,31.6a9.272,9.272,0,0,0,.665,5.035,9.734,9.734,0,0,0,3.977,4.65A37.7,37.7,0,0,1,21.5,43.408l-1.967-1.52a13.641,13.641,0,0,1,2.247,2.169l-1.52-1.967a9.383,9.383,0,0,1,1.229,2.088l-.98-2.325a7.915,7.915,0,0,1,.4,1.454c-.113-.863-.229-1.722-.346-2.585a5.57,5.57,0,0,1,.019,1.322c.117-.863.233-1.722.35-2.585a4.717,4.717,0,0,1-.194.758l.98-2.321a3.71,3.71,0,0,1-.369.665l1.52-1.967a2.121,2.121,0,0,1-.362.362A9.719,9.719,0,0,0,29.38,53.547,10.581,10.581,0,0,0,36.253,50.7c4.895-4.413,4.642-12.285,1.4-17.549-2.337-3.791-5.824-6.372-9.568-8.654q-1.16,8.881-2.321,17.767a31.781,31.781,0,0,0,6.2-2.286,11.027,11.027,0,0,0,5.147-6.426,10.255,10.255,0,0,0-1.753-9.047,11.809,11.809,0,0,0-8.051-4.354,17.578,17.578,0,0,1-4.152-.89l2.321.98c-.191-.086-.381-.175-.564-.276V36.748a38.372,38.372,0,0,1,4.821-2.48l-2.321.98q1.091-.455,2.212-.851a10.346,10.346,0,0,0,5.808-4.467,9.717,9.717,0,0,0-3.487-13.3,9.637,9.637,0,0,0-7.488-.98" transform="translate(29.718 44.065)" fill="#b7b1b1"/>
      <path id="패스_6168" data-name="패스 6168" d="M4.7,25.17a5.3,5.3,0,0,0-.68,3.542,4.928,4.928,0,0,0,.626,1.913,8.13,8.13,0,0,0,.987,1.264c-.206-.26-.408-.525-.61-.785a.591.591,0,0,1,.1.187c-.132-.307-.26-.618-.393-.929l.019.1c-.043-.346-.089-.688-.136-1.034l0,.1.14-1.034-.023.1c.128-.307.26-.618.393-.929a.646.646,0,0,1-.1.183l.61-.785a1.948,1.948,0,0,1-.241.233c.26-.2.525-.4.785-.61a5.389,5.389,0,0,1-.669.338,4.475,4.475,0,0,0-1.256.964,4.7,4.7,0,0,0-.505,5.68,28.129,28.129,0,0,0,1.765,2.267q.676.846,1.345,1.691a3.89,3.89,0,0,0,2.749,1.135A3.883,3.883,0,0,0,13.5,34.874c-.047-.342-.089-.688-.136-1.03a3.908,3.908,0,0,0-1-1.718c-.793-1-1.6-1.991-2.387-3,.2.264.408.525.61.789a2.582,2.582,0,0,1-.276-.467c.132.311.26.618.393.929a.927.927,0,0,1-.058-.249l.14,1.034v-.124c-.047.342-.093.688-.14,1.034a.707.707,0,0,1,.066-.218c-.132.311-.26.618-.393.929l.051-.082-.61.785a1.449,1.449,0,0,1,.206-.2l-.785.61a7.27,7.27,0,0,1,.739-.369,4.992,4.992,0,0,0,1.858-1.8,4.532,4.532,0,0,0,.467-3.433,6.307,6.307,0,0,0-1.4-2.239c.2.26.4.525.606.785a1.916,1.916,0,0,1-.159-.292c.132.311.26.622.393.929a2.153,2.153,0,0,1-.093-.319l.14,1.034a1.879,1.879,0,0,1-.008-.443c-.047.342-.093.688-.14,1.034a1.793,1.793,0,0,1,.121-.428c-.132.311-.26.622-.393.929a1.373,1.373,0,0,1,.109-.194,3.885,3.885,0,0,0-1.4-5.318A3.97,3.97,0,0,0,4.7,25.17" transform="translate(8.725 67.224)" fill="#b7b1b1"/>
      <path id="패스_6169" data-name="패스 6169" d="M2.169,27.1,18,21.425l6.423-5.777,3.316-1.5" transform="translate(6.264 40.864)" fill="none" stroke="#1b1311" stroke-linecap="round" stroke-linejoin="round" stroke-width="3"/>
      <line id="선_248" data-name="선 248" x1="5.136" y1="1.283" transform="translate(27.8 59.937)" fill="none" stroke="#1b1311" stroke-linecap="round" stroke-linejoin="round" stroke-width="3"/>
      <path id="패스_6170" data-name="패스 6170" d="M26.914,32.089l-5.136-2.784L14.61,28.022" transform="translate(42.188 80.919)" fill="none" stroke="#1b1311" stroke-linecap="round" stroke-linejoin="round" stroke-width="3"/>
      <path id="패스_6171" data-name="패스 6171" d="M19.04,33.077,18.4,27.941l-4.175-1.928" transform="translate(41.074 75.117)" fill="none" stroke="#1b1311" stroke-linecap="round" stroke-linejoin="round" stroke-width="3"/>
      <path id="패스_6172" data-name="패스 6172" d="M4.185,5.439c-1.232,2.018-1.24,4.607-1.874,6.835a1.979,1.979,0,0,0,1.357,2.391l3.981,1.283a3.5,3.5,0,0,0,.91.3c-.284-.4-.571-.8-.855-1.2l-.012.156a.876.876,0,0,0,.023-.14c-.016.113-.031.225-.043.338L7.38,17.518a2,2,0,0,0,1.357,2.391,1.957,1.957,0,0,0,2.387-1.357L11.5,15.87a3.494,3.494,0,0,0-.043-1.641,2.579,2.579,0,0,0-1.477-1.571c-1.7-.715-3.526-1.178-5.276-1.746L6.055,13.3c.3-1.038.463-2.115.688-3.172.124-.583.257-1.17.42-1.746.074-.253.159-.5.241-.743.14-.408-.1.175-.023.051.062-.089.1-.2.159-.292a1.959,1.959,0,0,0-.7-2.659,1.98,1.98,0,0,0-2.659.7" transform="translate(6.464 12.976)" fill="#1b1311"/>
      <path id="패스_6173" data-name="패스 6173" d="M0,8.705l.008,7.783a1.962,1.962,0,0,0,1.944,1.944q2.566-.192,5.132-.381L7.752,18c.525-.035.591.132-.233-.5-.809-.618-.649-.626-.548-.124.043.214.082.428.124.641.167.859.338,1.714.505,2.57a1.953,1.953,0,0,0,2.391,1.357,1.993,1.993,0,0,0,1.357-2.391c-.194-1-.393-2-.587-3a3.212,3.212,0,0,0-.715-1.676,2.58,2.58,0,0,0-1.909-.793c-1.015,0-2.049.148-3.06.222l-3.126.233L3.9,16.488q-.006-3.9-.008-7.783A1.965,1.965,0,0,0,1.944,6.761,1.978,1.978,0,0,0,0,8.705" transform="translate(0 19.519)" fill="#1b1311"/>
      <path id="패스_6174" data-name="패스 6174" d="M21.757,26.041a23.411,23.411,0,0,0,2.154,1.765,4.262,4.262,0,0,0,2.624,1.151,2.968,2.968,0,0,0,2.457-1.952c.42-.855.8-1.734,1.151-2.616.3-.766.579-1.543.82-2.329.121-.393.237-.789.342-1.186.051-.2.113-.4.152-.595.066-.187.066-.214.008-.086s-.051.1.043-.066c-.117.121-.229.241-.342.365-.21.089-.206.1.012.039a3.966,3.966,0,0,0,.521-.1L33,20.2c.945-.171,1.889-.338,2.838-.509A1.953,1.953,0,0,0,37.2,17.3,2,2,0,0,0,34.8,15.945q-1.242.222-2.484.447c-.774.136-1.586.222-2.34.428-1.952.54-2.2,2.333-2.7,3.993a27.317,27.317,0,0,1-1.547,4.028c-.082.171-.163.338-.249.505-.043.086-.086.171-.132.253.552-.124,1.108-.253,1.66-.381a4.727,4.727,0,0,0-.875-.575,14.651,14.651,0,0,1-1.633-1.349,1.944,1.944,0,0,0-2.749,2.749" transform="translate(61.214 45.919)" fill="#1b1311"/>
      <path id="패스_6175" data-name="패스 6175" d="M23.033,26.793a9.437,9.437,0,0,0,4.949,1.4c2.006-.179,3.336-1.419,4.657-2.819q.851-.9,1.645-1.858a4.533,4.533,0,0,0,.77-.941c.264-.284.039-.233-.684.152.1.043.21.086.311.124a4.36,4.36,0,0,0,.622.257l5.287,2.15A1.955,1.955,0,0,0,42.981,23.9a1.993,1.993,0,0,0-1.361-2.391q-2.484-1.015-4.972-2.025a4.647,4.647,0,0,0-2.784-.63,4.017,4.017,0,0,0-2.13,1.676,20.283,20.283,0,0,1-3.258,3.5c-1.038.766-2.5-.1-3.48-.591a1.984,1.984,0,0,0-2.659.7,1.959,1.959,0,0,0,.7,2.659" transform="translate(63.768 54.284)" fill="#1b1311"/>
    </g>
  </g>
</svg>
