<svg xmlns="http://www.w3.org/2000/svg" width="54.323" height="25.017" viewBox="0 0 54.323 25.017">
  <g id="그룹_1803" data-name="그룹 1803" transform="translate(2738.307 1709.907)">
    <path id="패스_2558" data-name="패스 2558" d="M8.874,9.458S6.583.962,15.444.791,54.432-1.714,59.192,5.125s2.5,18.532-3.312,18.518-35.668-.161-40.425-1.009-8.13.619-6.58-13.175" transform="translate(-2745.795 -1709.519)" fill="#00a269"/>
    <path id="패스_2559" data-name="패스 2559" d="M58.337,17.638c.141-2.669.31-5.342.275-8.016-.024-1.891.344-5.571-1.019-7.143-.885-1.021-2.561-1.024-3.8-1.2C51.868,1,49.938.8,48.008.641A269.707,269.707,0,0,0,20.97.1q-2.833.051-5.664.134C14.029.268,11.93-.08,10.885.851,9.649,1.955,9.413,4.787,9.1,6.281a43.754,43.754,0,0,0-.941,8.162c-.029,1.414-.4,3.729.851,4.779,1.089.912,3.261.573,4.575.617,4.389.144,8.784.18,13.175.18,10.175,0,20.353-.2,30.523-.514,1.241-.039,1.245-1.972,0-1.933-14.952.465-29.965.86-44.917.29-.963-.037-1.747.21-2.245-.765-.366-.714-.044-2.274-.017-3.1A41.307,41.307,0,0,1,11.15,5.93c.171-.726.383-2.9.948-3.412.468-.422,1.2-.292,1.782-.312q2.559-.08,5.121-.136c7.6-.171,15.223-.207,22.824.124a116.629,116.629,0,0,1,11.73.987c1.494.219,2.279.334,2.859,2a14.973,14.973,0,0,1,.258,4.007c.058,2.82-.119,5.64-.268,8.455-.063,1.243,1.867,1.238,1.933,0" transform="translate(-2746.387 -1709.907)" fill="#231815"/>
    <path id="패스_2560" data-name="패스 2560" d="M8.164,15c-.336,1.718.59,3.787,1.4,5.264,1.065,1.945,2.761,2.237,4.874,2.415,5.623.475,11.279.624,16.916.785q9.52.267,19.042.324c2.532.017,5.074.073,7.6.007,2.6-.066,3.288-1.723,3.88-4.126.9-3.666.3-7.638.383-11.372.071-3.249-2.191-5.576-4.816-7.3-1.041-.685-2.011.987-.975,1.669,1.652,1.085,3.7,2.886,3.892,4.957.168,1.791-.09,3.746-.024,5.559A23.205,23.205,0,0,1,60.1,18.74c-.444,2.128-.782,3.117-2.908,3.124-5.547.022-11.094-.034-16.639-.129-5.978-.1-11.959-.253-17.933-.517-2.466-.107-4.935-.234-7.4-.414-1.757-.129-3.254-.088-4.112-1.752-.419-.816-1.282-2.554-1.089-3.541C10.265,14.294,8.4,13.775,8.164,15" transform="translate(-2746.369 -1708.713)" fill="#231815"/>
    <path id="패스_2561" data-name="패스 2561" d="M27.871,8.177a6.454,6.454,0,0,0,.953,2.861c.241.453.492.9.729,1.353.122.236.241.473.351.714.029.068.058.134.088.2-.037-.088-.027-.066,0,.01q.077.2.146.4A.966.966,0,1,0,32,13.2a18.864,18.864,0,0,0-1.387-2.912c-.115-.212-.227-.424-.334-.639-.056-.11-.107-.219-.158-.329l-.066-.146c.034.073.046.117.007.017a5.022,5.022,0,0,1-.207-.621c-.007-.032-.078-.249-.056-.268-.015.015.015.239.007.029,0-.051,0-.1,0-.158a.966.966,0,0,0-1.933,0" transform="translate(-2717.945 -1699.544)" fill="#231815"/>
    <path id="패스_3758" data-name="패스 3758" d="M3.284,10.109Q3.639,9.1,4,8.1q1.3.073,2.605.161c-.163.5-.329,1.01-.484,1.517-.385,1.254,1.578,1.789,1.962.54.2-.648.407-1.293.616-1.935.747.034,1.492.061,2.24.063a1.017,1.017,0,0,0,0-2.033c-.528,0-1.057-.027-1.587-.046.192-.594.375-1.191.555-1.787l1.534.024a1.017,1.017,0,0,0,0-2.033l-.974-.015c.08-.312.17-.618.243-.93A1.039,1.039,0,0,0,9.994.373a1.026,1.026,0,0,0-1.249.711c-.112.482-.246.957-.375,1.434-.8-.012-1.595-.024-2.393-.039.093-.258.183-.519.275-.777A1.027,1.027,0,0,0,5.541.451a1.038,1.038,0,0,0-1.249.711Q4.066,1.8,3.84,2.445c-.565-.01-1.13-.022-1.692-.029a1.017,1.017,0,0,0,0,2.033c.326,0,.652.01.979.017-.183.514-.363,1.027-.545,1.541-.533-.019-1.064-.044-1.6-.046a1.017,1.017,0,0,0,0,2.033c.3,0,.594.019.889.027-.183.516-.363,1.032-.545,1.551a1.026,1.026,0,0,0,.708,1.249,1.037,1.037,0,0,0,1.251-.711M5.264,4.5l2.522.041c-.178.577-.355,1.152-.543,1.724-.847-.054-1.7-.1-2.547-.156.187-.536.377-1.074.567-1.609" transform="translate(-2724.72 -1705.832)" fill="#fff"/>
    <path id="패스_3759" data-name="패스 3759" d="M7.645,3.448c.278-.09.536-.229.811-.331C7.969,5.4,7.416,7.667,6.737,9.9a1.017,1.017,0,0,0,1.96.54,82.28,82.28,0,0,0,2.135-8.709A1.031,1.031,0,0,0,9.34.582,16.45,16.45,0,0,1,7.1,1.488,1.036,1.036,0,0,0,6.4,2.737a1.024,1.024,0,0,0,1.249.711" transform="translate(-2715.595 -1705.657)" fill="#fff"/>
  </g>
</svg>
