<svg xmlns="http://www.w3.org/2000/svg" width="102.026" height="126.312" viewBox="0 0 102.026 126.312">
  <g id="그룹_1813" data-name="그룹 1813" transform="translate(5669.055 402.123)">
    <path id="패스_2162" data-name="패스 2162" d="M94.823,162.489c30.067.244,60.132.582,90.2.826a.967.967,0,0,0,0-1.933c-30.067-.241-60.132-.582-90.2-.826a.967.967,0,0,0,0,1.933" transform="translate(-5759.063 -546.499)" fill="#231815"/>
    <path id="패스_2163" data-name="패스 2163" d="M131.2,162.134q-.738,50.53.483,101.062a.967.967,0,0,0,1.933,0q-1.225-50.523-.483-101.062a.967.967,0,0,0-1.933,0" transform="translate(-5705.844 -545.571)" fill="#231815"/>
    <path id="패스_2164" data-name="패스 2164" d="M94.711,204.516c30.616.863,61.188,1.8,91.816.846,1.238-.037,1.245-1.969,0-1.93-30.628.953-61.2.015-91.816-.848a.967.967,0,0,0,0,1.933" transform="translate(-5759.224 -486.099)" fill="#231815"/>
    <path id="패스_2165" data-name="패스 2165" d="M96.533,202.525a5.919,5.919,0,0,0-3.3.258,1,1,0,0,0-.675,1.189q.508,2.405,1.014,4.809a.976.976,0,0,0,.931.709c20.463.417,40.925.916,61.392,1.024,10.629.056,21.262.049,31.89-.139,2.033-.037,6.371-.283,6.208-3.278-.122-2.232-4.355-3.692-6.115-3.083-1.167.4-.668,2.271.512,1.864.5-.175,2.959.2,3.1.96.368,1.952-2.839,1.582-3.707,1.6-2.354.061-4.713.061-7.07.083q-6.12.059-12.239.076-12.112.029-24.218-.119c-16.587-.193-33.17-.585-49.755-.921q.468.355.931.709-.5-2.406-1.011-4.811c-.227.4-.451.792-.675,1.189l2.276-.261c1.216.2,1.74-1.662.514-1.862" transform="translate(-5761.022 -486.355)" fill="#231815"/>
    <path id="패스_2166" data-name="패스 2166" d="M187.182,166.786a5.919,5.919,0,0,0,3.3-.258,1,1,0,0,0,.675-1.189q-.508-2.406-1.014-4.809a.976.976,0,0,0-.931-.709c-19.861-.409-39.706-1.265-59.567-1.628-10.4-.19-20.813-.261-31.218-.083-2.635.046-6.541.453-5.815,4.094.444,2.225,3.639,4.57,5.869,3.912a.966.966,0,0,0-.514-1.862,3.4,3.4,0,0,1-2.866-1.445c-1.411-3.219,1.911-2.732,3.327-2.766,2.342-.059,4.687-.054,7.026-.068q6.006-.037,12.015,0,11.673.073,23.346.407c16.132.431,32.261,1.038,48.4,1.37q-.468-.355-.931-.709.5,2.405,1.011,4.811c.227-.4.451-.792.675-1.189l-2.276.261c-1.216-.2-1.74,1.662-.514,1.862" transform="translate(-5761.02 -550.162)" fill="#231815"/>
    <path id="패스_2167" data-name="패스 2167" d="M94.592,161.611q1.06,50.914-1.311,101.815c-.059,1.243,1.874,1.241,1.93,0q2.376-50.87,1.314-101.815a.967.967,0,0,0-1.933,0" transform="translate(-5759.941 -546.323)" fill="#231815"/>
    <path id="패스_2168" data-name="패스 2168" d="M93.4,193.122q49.035-.826,98.04,1.879c1.241.068,1.236-1.864,0-1.933q-48.973-2.7-98.04-1.879a.967.967,0,0,0,0,1.933" transform="translate(-5761.116 -502.75)" fill="#231815"/>
    <path id="패스_2169" data-name="패스 2169" d="M95.6,192.341c.373,9.027.836,18.055,1.1,27.084.037,1.241,1.969,1.245,1.933,0-.266-9.03-.726-18.057-1.1-27.084-.051-1.238-1.984-1.245-1.933,0" transform="translate(-5756.614 -502.157)" fill="#231815"/>
    <path id="패스_2170" data-name="패스 2170" d="M92.3,192.609c.373,9.027.836,18.055,1.1,27.084.037,1.241,1.969,1.245,1.933,0-.266-9.03-.726-18.057-1.1-27.084-.051-1.238-1.984-1.245-1.933,0" transform="translate(-5761.353 -501.771)" fill="#231815"/>
    <path id="패스_2171" data-name="패스 2171" d="M98.273,192.062a202.918,202.918,0,0,1,1.036,27.723c-.037,1.245,1.894,1.243,1.933,0a202.918,202.918,0,0,0-1.036-27.723c-.132-1.223-2.064-1.238-1.933,0" transform="translate(-5752.774 -502.546)" fill="#231815"/>
    <path id="패스_2172" data-name="패스 2172" d="M101.36,192.34q.691,13.852.451,27.728a.967.967,0,0,0,1.933,0q.241-13.87-.451-27.728c-.063-1.238-2-1.245-1.933,0" transform="translate(-5748.331 -502.158)" fill="#231815"/>
    <path id="패스_2173" data-name="패스 2173" d="M104.4,192.158q.428,13.753.853,27.508c.039,1.238,1.972,1.245,1.933,0q-.428-13.757-.853-27.508c-.039-1.241-1.972-1.245-1.933,0" transform="translate(-5743.964 -502.422)" fill="#231815"/>
    <path id="패스_2174" data-name="패스 2174" d="M107.457,191.886q.585,13.972-.024,27.954c-.054,1.243,1.879,1.24,1.933,0q.607-13.972.024-27.954c-.054-1.238-1.984-1.245-1.933,0" transform="translate(-5739.602 -502.81)" fill="#231815"/>
    <path id="패스_2175" data-name="패스 2175" d="M109.886,192.529a120.261,120.261,0,0,1,.543,27.893c-.119,1.236,1.813,1.228,1.933,0a122.269,122.269,0,0,0-.614-28.408c-.168-1.226-2.03-.7-1.862.514" transform="translate(-5736.09 -502.293)" fill="#231815"/>
    <path id="패스_2176" data-name="패스 2176" d="M113.97,192.159q-.186,14.539-1.2,29.046c-.088,1.241,1.845,1.233,1.933,0q1.013-14.506,1.2-29.046a.967.967,0,0,0-1.933,0" transform="translate(-5731.936 -502.421)" fill="#231815"/>
    <path id="패스_2177" data-name="패스 2177" d="M116.152,192.249q.135,13.863.271,27.728a.967.967,0,0,0,1.933,0q-.135-13.863-.271-27.728a.967.967,0,0,0-1.933,0" transform="translate(-5727.069 -502.291)" fill="#231815"/>
    <path id="패스_2178" data-name="패스 2178" d="M119.605,192.523q.029,13.643.061,27.284a.966.966,0,0,0,1.93,0q-.029-13.64-.058-27.284a.967.967,0,0,0-1.933,0" transform="translate(-5722.107 -501.898)" fill="#231815"/>
    <path id="패스_2179" data-name="패스 2179" d="M122.425,192.429l1.06,27.959c.046,1.241,1.979,1.245,1.933,0l-1.06-27.959c-.049-1.238-1.979-1.245-1.933,0" transform="translate(-5718.055 -502.03)" fill="#231815"/>
    <path id="패스_2180" data-name="패스 2180" d="M125.2,192.8a190.208,190.208,0,0,1,1.733,26.794.967.967,0,0,0,1.933,0,193.841,193.841,0,0,0-1.8-27.309c-.166-1.226-2.028-.7-1.862.514" transform="translate(-5714.076 -501.905)" fill="#231815"/>
    <path id="패스_2181" data-name="패스 2181" d="M128.931,192.878a206.666,206.666,0,0,1,1.877,26.6.967.967,0,0,0,1.933,0,210.283,210.283,0,0,0-1.947-27.116c-.166-1.226-2.028-.7-1.862.514" transform="translate(-5708.719 -501.791)" fill="#231815"/>
    <path id="패스_2182" data-name="패스 2182" d="M133.144,193.068a74.331,74.331,0,0,1,.29,12.988c-.1,2.086-.219,4.17-.31,6.256-.044,1.043-.085,2.086-.1,3.132-.007.341.224,3.283.007,3.439-.985.734-.022,2.41.977,1.669,1.5-1.109.916-3.475.948-5.108.049-2.525.193-5.045.322-7.565a82.589,82.589,0,0,0-.2-14.811c-.156-1.216-2.091-1.231-1.933,0" transform="translate(-5703.407 -501.092)" fill="#231815"/>
    <path id="패스_2183" data-name="패스 2183" d="M190.581,163.476c-.212-1.6-.071-3.207-.283-4.809a.992.992,0,0,0-.965-.968c-18.228-.375-36.445-1.119-54.673-1.526q-13.409-.3-26.824-.263-4.043.015-8.089.063c-1.648.022-3.673-.224-5.208.507-2.391,1.133-2.262,3.826-.682,5.574.836.924,2.2-.446,1.367-1.367Q94.592,157.811,96.6,158a14.129,14.129,0,0,1,1.955-.078c1.184-.029,2.374-.029,3.558-.039q3.144-.033,6.285-.041,5.9-.018,11.8.034,11.092.1,22.186.424c15.652.431,31.3,1.011,46.955,1.333l-.965-.965c.21,1.6.071,3.2.28,4.809.161,1.216,2.1,1.231,1.933,0" transform="translate(-5760.771 -553.184)" fill="#231815"/>
    <path id="패스_2184" data-name="패스 2184" d="M190.581,161.489c-.212-1.6-.071-3.207-.283-4.809a.992.992,0,0,0-.965-.968c-18.228-.375-36.445-1.119-54.673-1.526q-13.409-.3-26.824-.263-4.043.015-8.089.063c-1.648.022-3.673-.224-5.208.507-2.391,1.133-2.262,3.826-.682,5.574.836.924,2.2-.446,1.367-1.367q-.632-2.877,1.372-2.688a14.131,14.131,0,0,1,1.955-.078c1.184-.029,2.374-.029,3.558-.039q3.144-.033,6.285-.041,5.9-.018,11.8.034,11.092.1,22.186.424c15.652.431,31.3,1.011,46.955,1.333l-.965-.965c.21,1.6.071,3.2.28,4.809.161,1.216,2.1,1.231,1.933,0" transform="translate(-5760.771 -556.04)" fill="#231815"/>
  </g>
</svg>
