<svg xmlns="http://www.w3.org/2000/svg" width="102.026" height="125.391" viewBox="0 0 102.026 125.391">
  <g id="그룹_1806" data-name="그룹 1806" transform="translate(5669.055 746.598)">
    <path id="패스_2535" data-name="패스 2535" d="M94.823,20.768c30.067.244,60.132.582,90.2.826a.967.967,0,0,0,0-1.933c-30.067-.241-60.132-.582-90.2-.826a.967.967,0,0,0,0,1.933" transform="translate(-5759.063 -750.177)" fill="#231815"/>
    <path id="패스_2536" data-name="패스 2536" d="M131.2,20.412q-.738,50.534.483,101.062a.967.967,0,0,0,1.933,0q-1.225-50.523-.483-101.062a.967.967,0,0,0-1.933,0" transform="translate(-5705.844 -749.248)" fill="#231815"/>
    <path id="패스_2537" data-name="패스 2537" d="M94.711,62.795c30.616.863,61.188,1.8,91.816.846,1.238-.037,1.245-1.969,0-1.93-30.628.953-61.2.015-91.816-.848a.967.967,0,0,0,0,1.933" transform="translate(-5759.224 -689.777)" fill="#231815"/>
    <path id="패스_2538" data-name="패스 2538" d="M96.533,60.8a5.919,5.919,0,0,0-3.3.258,1,1,0,0,0-.675,1.189q.508,2.405,1.014,4.809a.976.976,0,0,0,.931.709c20.463.417,40.925.916,61.392,1.024,10.629.056,21.262.049,31.89-.139,2.033-.037,6.371-.283,6.208-3.278-.122-2.232-4.355-3.692-6.115-3.083-1.167.4-.668,2.271.512,1.864.5-.175,2.959.2,3.1.96.368,1.952-2.839,1.582-3.707,1.6-2.354.061-4.713.061-7.07.083q-6.12.059-12.239.076-12.112.029-24.218-.119c-16.587-.193-33.17-.585-49.755-.921q.468.355.931.709-.5-2.405-1.011-4.811c-.227.4-.451.792-.675,1.189l2.276-.261c1.216.2,1.74-1.662.514-1.862" transform="translate(-5761.022 -690.031)" fill="#231815"/>
    <path id="패스_2539" data-name="패스 2539" d="M187.182,25.066a5.919,5.919,0,0,0,3.3-.258,1,1,0,0,0,.675-1.189q-.508-2.405-1.014-4.809a.976.976,0,0,0-.931-.709c-19.861-.409-39.706-1.265-59.567-1.628-10.4-.19-20.813-.261-31.218-.083-2.635.046-6.541.453-5.815,4.094.444,2.225,3.639,4.57,5.869,3.912a.966.966,0,0,0-.514-1.862,3.4,3.4,0,0,1-2.866-1.445c-1.411-3.22,1.911-2.732,3.327-2.766,2.342-.058,4.687-.054,7.026-.068q6.006-.037,12.015,0,11.673.073,23.346.407c16.132.431,32.261,1.038,48.4,1.37q-.468-.355-.931-.709.5,2.405,1.011,4.811c.227-.4.451-.792.675-1.189L187.7,23.2c-1.216-.2-1.74,1.662-.514,1.862" transform="translate(-5761.02 -753.839)" fill="#231815"/>
    <path id="패스_2540" data-name="패스 2540" d="M94.592,19.89q1.06,50.914-1.311,101.815c-.059,1.243,1.874,1.241,1.93,0q2.376-50.87,1.314-101.815a.967.967,0,0,0-1.933,0" transform="translate(-5759.941 -750)" fill="#231815"/>
    <path id="패스_2541" data-name="패스 2541" d="M93.4,51.4q49.035-.826,98.04,1.879c1.241.068,1.236-1.864,0-1.933q-48.973-2.7-98.04-1.879a.967.967,0,0,0,0,1.933" transform="translate(-5761.116 -706.426)" fill="#231815"/>
    <path id="패스_2542" data-name="패스 2542" d="M95.6,50.62c.373,9.027.836,18.055,1.1,27.084.037,1.241,1.969,1.245,1.933,0-.266-9.03-.726-18.057-1.1-27.084-.051-1.238-1.984-1.245-1.933,0" transform="translate(-5756.614 -705.834)" fill="#231815"/>
    <path id="패스_2543" data-name="패스 2543" d="M92.3,50.888c.373,9.027.836,18.055,1.1,27.084.037,1.241,1.969,1.245,1.933,0-.266-9.03-.726-18.057-1.1-27.084-.051-1.238-1.984-1.245-1.933,0" transform="translate(-5761.353 -705.449)" fill="#231815"/>
    <path id="패스_2544" data-name="패스 2544" d="M98.273,50.342a202.918,202.918,0,0,1,1.036,27.723c-.037,1.245,1.894,1.241,1.933,0a202.918,202.918,0,0,0-1.036-27.723c-.132-1.223-2.064-1.238-1.933,0" transform="translate(-5752.774 -706.222)" fill="#231815"/>
    <path id="패스_2545" data-name="패스 2545" d="M101.36,50.619q.691,13.852.451,27.728a.967.967,0,0,0,1.933,0q.241-13.87-.451-27.728c-.063-1.238-2-1.245-1.933,0" transform="translate(-5748.331 -705.836)" fill="#231815"/>
    <path id="패스_2546" data-name="패스 2546" d="M104.4,50.437q.428,13.753.853,27.508c.039,1.238,1.972,1.245,1.933,0q-.428-13.757-.853-27.508c-.039-1.241-1.972-1.245-1.933,0" transform="translate(-5743.964 -706.099)" fill="#231815"/>
    <path id="패스_2547" data-name="패스 2547" d="M107.457,50.165q.585,13.972-.024,27.954c-.054,1.243,1.879,1.241,1.933,0q.607-13.972.024-27.954c-.054-1.238-1.984-1.245-1.933,0" transform="translate(-5739.602 -706.488)" fill="#231815"/>
    <path id="패스_2548" data-name="패스 2548" d="M109.886,50.809A120.261,120.261,0,0,1,110.43,78.7c-.119,1.236,1.813,1.228,1.933,0a122.27,122.27,0,0,0-.614-28.408c-.168-1.226-2.03-.7-1.862.514" transform="translate(-5736.09 -705.969)" fill="#231815"/>
    <path id="패스_2549" data-name="패스 2549" d="M113.97,50.439q-.186,14.539-1.2,29.046c-.088,1.241,1.845,1.233,1.933,0q1.013-14.506,1.2-29.046a.967.967,0,0,0-1.933,0" transform="translate(-5731.936 -706.097)" fill="#231815"/>
    <path id="패스_2550" data-name="패스 2550" d="M116.152,50.53q.135,13.863.271,27.725a.967.967,0,0,0,1.933,0q-.135-13.859-.271-27.725a.967.967,0,0,0-1.933,0" transform="translate(-5727.069 -705.968)" fill="#231815"/>
    <path id="패스_2551" data-name="패스 2551" d="M119.605,50.8q.029,13.643.061,27.284a.966.966,0,0,0,1.93,0q-.029-13.64-.058-27.284a.967.967,0,0,0-1.933,0" transform="translate(-5722.107 -705.575)" fill="#231815"/>
    <path id="패스_2552" data-name="패스 2552" d="M122.425,50.709l1.06,27.959c.046,1.241,1.979,1.245,1.933,0l-1.06-27.959c-.049-1.238-1.979-1.245-1.933,0" transform="translate(-5718.055 -705.706)" fill="#231815"/>
    <path id="패스_2553" data-name="패스 2553" d="M125.2,51.078a190.208,190.208,0,0,1,1.733,26.794.967.967,0,0,0,1.933,0,193.84,193.84,0,0,0-1.8-27.309c-.166-1.226-2.028-.7-1.862.514" transform="translate(-5714.076 -705.583)" fill="#231815"/>
    <path id="패스_2554" data-name="패스 2554" d="M128.931,51.157a206.667,206.667,0,0,1,1.877,26.6.967.967,0,0,0,1.933,0,210.282,210.282,0,0,0-1.947-27.116c-.166-1.226-2.028-.7-1.862.514" transform="translate(-5708.719 -705.469)" fill="#231815"/>
    <path id="패스_2555" data-name="패스 2555" d="M133.144,51.349a74.308,74.308,0,0,1,.29,12.985c-.1,2.089-.219,4.17-.31,6.256-.044,1.046-.085,2.089-.1,3.134-.007.341.224,3.28.007,3.436-.985.736-.022,2.41.977,1.672,1.5-1.109.916-3.475.948-5.108.049-2.525.193-5.047.322-7.567a82.565,82.565,0,0,0-.2-14.808c-.156-1.216-2.091-1.233-1.933,0" transform="translate(-5703.407 -704.769)" fill="#231815"/>
    <path id="패스_2556" data-name="패스 2556" d="M190.581,21.885c-.212-1.6-.071-3.207-.283-4.809a.992.992,0,0,0-.965-.968c-18.228-.375-36.445-1.119-54.673-1.526q-13.409-.3-26.824-.263-4.043.015-8.089.063c-1.648.022-3.673-.224-5.208.507-2.391,1.133-2.262,3.826-.682,5.574.836.924,2.2-.446,1.367-1.367q-.632-2.877,1.372-2.688a14.127,14.127,0,0,1,1.955-.078c1.184-.029,2.374-.029,3.558-.039q3.144-.033,6.285-.041,5.9-.018,11.8.034,11.092.1,22.186.424c15.652.431,31.3,1.011,46.955,1.333l-.965-.965c.21,1.6.071,3.2.28,4.809.161,1.216,2.1,1.231,1.933,0" transform="translate(-5760.771 -756.675)" fill="#231815"/>
    <path id="패스_2557" data-name="패스 2557" d="M190.581,20.147c-.212-1.6-.071-3.207-.283-4.809a.992.992,0,0,0-.965-.968c-18.228-.375-36.445-1.119-54.673-1.526q-13.409-.3-26.824-.263-4.043.015-8.089.063c-1.648.022-3.673-.224-5.208.507-2.391,1.133-2.262,3.826-.682,5.574.836.924,2.2-.446,1.367-1.367q-.632-2.877,1.372-2.688a14.127,14.127,0,0,1,1.955-.078c1.184-.029,2.374-.029,3.558-.039q3.144-.033,6.285-.041,5.9-.018,11.8.034,11.092.1,22.186.424c15.652.431,31.3,1.011,46.955,1.333l-.965-.965c.21,1.6.071,3.2.28,4.809.161,1.216,2.1,1.231,1.933,0" transform="translate(-5760.771 -759.173)" fill="#231815"/>
  </g>
</svg>
