<svg xmlns="http://www.w3.org/2000/svg" width="54.324" height="25.017" viewBox="0 0 54.324 25.017">
  <g id="그룹_1817" data-name="그룹 1817" transform="translate(6386.742 -341.897)">
    <path id="패스_2612" data-name="패스 2612" d="M8.874,150.934s-2.291-8.5,6.571-8.667,38.987-2.505,43.747,4.333,2.5,18.532-3.312,18.518-35.668-.161-40.425-1.009-8.13.619-6.58-13.175" transform="translate(-6394.23 200.806)" fill="#aecf30"/>
    <path id="패스_2613" data-name="패스 2613" d="M58.337,159.115c.141-2.669.31-5.342.275-8.016-.024-1.891.344-5.571-1.019-7.143-.885-1.021-2.561-1.024-3.8-1.2-1.92-.275-3.851-.478-5.781-.636a269.7,269.7,0,0,0-27.038-.544q-2.833.051-5.664.134c-1.277.037-3.375-.312-4.421.619-1.236,1.1-1.472,3.936-1.789,5.43a43.754,43.754,0,0,0-.941,8.162c-.029,1.414-.4,3.729.851,4.779,1.089.912,3.261.573,4.575.617,4.389.144,8.784.18,13.175.18,10.175,0,20.353-.2,30.523-.514,1.241-.039,1.245-1.972,0-1.933-14.952.466-29.965.86-44.917.29-.963-.037-1.747.21-2.245-.765-.366-.714-.044-2.274-.017-3.1a41.307,41.307,0,0,1,1.05-8.069c.171-.726.383-2.9.948-3.412.468-.422,1.2-.292,1.782-.312q2.559-.08,5.121-.136c7.6-.171,15.223-.207,22.824.124a116.63,116.63,0,0,1,11.73.987c1.494.219,2.279.334,2.859,2a14.973,14.973,0,0,1,.258,4.007c.058,2.82-.119,5.64-.268,8.455-.063,1.243,1.867,1.238,1.933,0" transform="translate(-6394.822 200.42)" fill="#231815"/>
    <path id="패스_2614" data-name="패스 2614" d="M8.164,156.473c-.336,1.718.59,3.787,1.4,5.264,1.065,1.945,2.761,2.237,4.874,2.415,5.623.475,11.279.624,16.916.785q9.52.267,19.042.324c2.532.017,5.074.073,7.6.007,2.6-.066,3.288-1.723,3.88-4.126.9-3.666.3-7.638.383-11.372.071-3.249-2.191-5.576-4.816-7.3-1.041-.685-2.011.987-.975,1.67,1.652,1.085,3.7,2.886,3.892,4.957.168,1.791-.09,3.746-.024,5.559a23.205,23.205,0,0,1-.236,5.562c-.444,2.128-.782,3.117-2.908,3.124-5.547.022-11.094-.034-16.639-.129-5.978-.1-11.959-.253-17.933-.517-2.466-.107-4.935-.234-7.4-.414-1.757-.129-3.254-.088-4.112-1.752-.419-.816-1.282-2.554-1.089-3.541.239-1.216-1.623-1.735-1.862-.514" transform="translate(-6394.804 201.614)" fill="#231815"/>
    <path id="패스_2615" data-name="패스 2615" d="M27.871,149.651a6.444,6.444,0,0,0,.953,2.861c.241.456.492.9.729,1.355.122.236.241.473.351.712l.088.2c-.037-.088-.027-.068,0,.01.051.132.1.266.146.4A.966.966,0,1,0,32,154.679a18.971,18.971,0,0,0-1.387-2.912c-.115-.212-.227-.422-.334-.639-.056-.107-.107-.219-.158-.327l-.066-.149c.034.076.046.117.007.017a5.024,5.024,0,0,1-.207-.622c-.007-.029-.078-.246-.056-.266-.015.012.015.239.007.027,0-.051,0-.1,0-.158a.966.966,0,0,0-1.933,0" transform="translate(-6366.38 210.783)" fill="#231815"/>
    <path id="패스_3772" data-name="패스 3772" d="M12.008,144.133l-1.04-.017c.085-.331.18-.66.258-.993.28-1.208-1.58-1.724-1.86-.514-.114.5-.253.984-.385,1.473q-1.253-.018-2.505-.041c.1-.28.2-.56.3-.84a.976.976,0,0,0-.674-1.188.988.988,0,0,0-1.188.674q-.23.661-.465,1.32c-.575-.007-1.152-.019-1.729-.027a.965.965,0,0,0,0,1.928c.351,0,.7.012,1.052.019l-.582,1.646c-.543-.022-1.088-.046-1.634-.049a.966.966,0,0,0,0,1.931c.321,0,.64.019.959.027-.19.538-.377,1.076-.57,1.614a.976.976,0,0,0,.674,1.188.988.988,0,0,0,1.188-.674l.723-2.052q1.358.077,2.712.166c-.17.526-.341,1.052-.5,1.58-.365,1.188,1.5,1.7,1.862.511.2-.66.416-1.317.628-1.974.76.034,1.519.063,2.279.066a.966.966,0,0,0,0-1.931c-.553,0-1.105-.027-1.658-.049q.3-.942.587-1.889.785.015,1.573.027a.966.966,0,0,0,0-1.931m-4.156,3.7c-.886-.056-1.77-.107-2.656-.163.2-.57.4-1.139.6-1.709.876.017,1.75.029,2.627.046-.187.609-.377,1.217-.575,1.826" transform="translate(-6372.262 204.277)" fill="#1a1311"/>
    <path id="패스_3773" data-name="패스 3773" d="M14.024,141.9q-3.079.095-6.155.188c-1.239.039-1.244,1.97,0,1.931l4.536-.139c-1.675,2.807-4.183,5.1-5.166,8.309-.365,1.188,1.5,1.7,1.862.514,1.091-3.559,4.29-5.97,5.755-9.351a.977.977,0,0,0-.833-1.451" transform="translate(-6363.201 204.243)" fill="#1a1311"/>
  </g>
</svg>
