<svg xmlns="http://www.w3.org/2000/svg" width="54.321" height="25.017" viewBox="0 0 54.321 25.017">
  <g id="그룹_1815" data-name="그룹 1815" transform="translate(6271.676 -167.493)">
    <path id="패스_2594" data-name="패스 2594" d="M56.086,79.374s-2.289-8.5,6.571-8.667,38.99-2.505,43.747,4.333,2.5,18.532-3.312,18.518S67.426,93.4,62.669,92.549s-8.133.619-6.583-13.175" transform="translate(-6326.378 97.962)" fill="#5c87be"/>
    <path id="패스_2595" data-name="패스 2595" d="M105.55,87.555c.141-2.669.31-5.342.275-8.016-.024-1.891.344-5.571-1.019-7.143-.885-1.021-2.561-1.024-3.8-1.2-1.92-.275-3.851-.478-5.781-.636a269.7,269.7,0,0,0-27.038-.543q-2.833.051-5.664.134c-1.277.037-3.375-.312-4.421.619-1.236,1.1-1.472,3.936-1.789,5.43a43.754,43.754,0,0,0-.941,8.162c-.029,1.414-.4,3.729.851,4.779,1.089.911,3.261.573,4.575.617,4.389.144,8.784.18,13.175.18,10.175,0,20.353-.2,30.523-.514,1.241-.039,1.245-1.972,0-1.933-14.952.466-29.965.86-44.917.29-.963-.037-1.747.21-2.245-.765-.366-.714-.044-2.274-.017-3.1a41.306,41.306,0,0,1,1.05-8.069c.171-.726.383-2.9.948-3.412.468-.422,1.2-.292,1.782-.312q2.559-.08,5.12-.136c7.6-.171,15.223-.207,22.824.124a116.63,116.63,0,0,1,11.73.987c1.494.219,2.279.334,2.859,2a14.974,14.974,0,0,1,.258,4.007c.058,2.82-.119,5.64-.268,8.455-.063,1.243,1.867,1.238,1.933,0" transform="translate(-6326.969 97.576)" fill="#231815"/>
    <path id="패스_2596" data-name="패스 2596" d="M55.376,84.913c-.336,1.718.59,3.787,1.4,5.264,1.065,1.945,2.761,2.237,4.874,2.415,5.623.475,11.279.624,16.916.785q9.52.267,19.042.324c2.532.017,5.074.073,7.6.007,2.6-.066,3.288-1.723,3.88-4.126.9-3.666.3-7.638.383-11.372.071-3.249-2.191-5.576-4.816-7.3-1.041-.685-2.011.987-.975,1.669,1.652,1.085,3.7,2.886,3.892,4.957.168,1.791-.09,3.746-.024,5.559a23.206,23.206,0,0,1-.236,5.562c-.444,2.128-.782,3.117-2.908,3.124-5.547.022-11.094-.034-16.639-.129-5.978-.1-11.959-.253-17.933-.517-2.466-.107-4.935-.234-7.4-.414-1.757-.129-3.254-.088-4.112-1.752-.419-.816-1.282-2.554-1.089-3.541.239-1.216-1.623-1.735-1.862-.514" transform="translate(-6326.952 98.77)" fill="#231815"/>
    <path id="패스_2597" data-name="패스 2597" d="M75.083,78.093a6.454,6.454,0,0,0,.953,2.861c.241.453.492.9.729,1.353.122.236.241.473.351.714.029.068.058.134.088.2-.037-.088-.027-.066,0,.01q.077.2.146.4a.966.966,0,1,0,1.862-.512,18.863,18.863,0,0,0-1.387-2.912c-.115-.212-.227-.424-.334-.639-.056-.11-.107-.219-.158-.329l-.066-.146c.034.073.046.117.007.017a5.022,5.022,0,0,1-.207-.621c-.007-.032-.078-.249-.056-.268-.015.015.015.239.007.029,0-.051,0-.1,0-.158a.966.966,0,0,0-1.933,0" transform="translate(-6298.528 107.937)" fill="#231815"/>
    <path id="패스_3764" data-name="패스 3764" d="M59.463,72.347l-.974-.015c.08-.312.17-.618.243-.93a1.041,1.041,0,0,0-.711-1.251,1.029,1.029,0,0,0-1.251.711c-.11.482-.243.957-.372,1.434q-1.2-.018-2.393-.039c.09-.261.183-.519.273-.777a1.028,1.028,0,0,0-.708-1.251,1.038,1.038,0,0,0-1.251.711l-.453,1.281c-.562-.007-1.127-.019-1.692-.027a1.017,1.017,0,0,0,0,2.033l.979.015c-.18.516-.363,1.03-.543,1.544-.533-.019-1.066-.044-1.6-.046a1.017,1.017,0,0,0,0,2.033c.3,0,.592.019.889.027l-.548,1.548a1.017,1.017,0,1,0,1.96.54q.358-1,.711-2.011,1.3.073,2.607.161c-.166.5-.329,1.01-.484,1.517-.385,1.254,1.575,1.789,1.96.54.2-.648.409-1.293.618-1.938.745.037,1.492.063,2.24.066a1.017,1.017,0,0,0,0-2.033c-.531,0-1.059-.027-1.587-.046.192-.594.372-1.191.553-1.787l1.536.024a1.017,1.017,0,0,0,0-2.033m-4.192,3.7c-.85-.054-1.7-.1-2.547-.156.187-.536.377-1.074.567-1.609l2.522.041c-.178.577-.355,1.152-.543,1.724" transform="translate(-6304.255 101.27)" fill="#fff"/>
    <path id="패스_3765" data-name="패스 3765" d="M60.911,79.94a3.443,3.443,0,0,0-.85-5.833,6.018,6.018,0,0,0-2.284-.234,12.056,12.056,0,0,0-1.215.117c.01-.553.034-1.1.078-1.653a35.218,35.218,0,0,0,3.854.368c1.307.046,1.3-1.987,0-2.033a32.132,32.132,0,0,1-4.506-.465,1.041,1.041,0,0,0-1.288.981,26.585,26.585,0,0,0-.175,4.034,1.027,1.027,0,0,0,1.285.981,9.6,9.6,0,0,1,1.967-.3,4.2,4.2,0,0,1,1.707.144,1.342,1.342,0,0,1,.572,1.712A2.382,2.382,0,0,1,58.1,79.028a5.571,5.571,0,0,1-3.309-.984A1.017,1.017,0,0,0,53.77,79.8c2.189,1.3,5.023,1.933,7.141.141" transform="translate(-6296.719 101.368)" fill="#fff"/>
  </g>
</svg>
