<svg xmlns="http://www.w3.org/2000/svg" xmlns:xlink="http://www.w3.org/1999/xlink" width="101.652" height="125.383" viewBox="0 0 101.652 125.383">
  <defs>
    <clipPath id="clip-path">
      <rect id="사각형_1858" data-name="사각형 1858" width="90.205" height="102.6" fill="none"/>
    </clipPath>
    <clipPath id="clip-path-2">
      <rect id="사각형_1857" data-name="사각형 1857" width="53.983" height="73.656" fill="none"/>
    </clipPath>
  </defs>
  <g id="그룹_1805" data-name="그룹 1805" transform="translate(6304.97 736.259)">
    <g id="그룹_1070" data-name="그룹 1070" transform="translate(-6300.155 -719.39)">
      <g id="그룹_1069" data-name="그룹 1069" clip-path="url(#clip-path)">
        <rect id="사각형_1856" data-name="사각형 1856" width="90.202" height="102.598" transform="translate(0 0.002)" fill="#00a269"/>
        <g id="그룹_1068" data-name="그룹 1068" transform="translate(13.212 27.547)" opacity="0.13">
          <g id="그룹_1067" data-name="그룹 1067" transform="translate(0)">
            <g id="그룹_1066" data-name="그룹 1066" clip-path="url(#clip-path-2)">
              <path id="패스_2444" data-name="패스 2444" d="M59.706,66.381A29.037,29.037,0,0,0,51.59,60.59c2.579-9.81-.161-19.714-11.267-23.677-.083-.388.634-1.47,1.075-1.75.49-2.637-2.788-2.1-4.935-3.151a7.581,7.581,0,0,0-1.825-.758C33.043,31.5,30.908,30.24,29,31.11a4.691,4.691,0,0,0,.08,2.52,2.177,2.177,0,0,1-.3.595C15.366,33.016,7.6,41.612,7.416,55.094c-.436,13.7,6.237,27.421.653,40.162-2.03,7.809,19.851,11.243,24.155,7.957,1.942-12.983,9.086-23.741,16.059-34.605.509-.9.975-1.813,1.4-2.737,3.3,1.967,6.97,5.033,5.33,8.335-2.793,5.615-6.366,6.59-6.366,6.59s-4.253-1.287-4.933.485,1.925,2.074,1.925,2.074-2.337,2.483-.224,3.783S48.307,85.1,48.307,85.1s-.972,4.426,1.47,3.575a2.87,2.87,0,0,0,2.1-3.064s1.5,1.847,3.132.753,0-3.987,0-3.987S65.321,72,59.706,66.381" transform="translate(-7.397 -30.8)" fill="#231815" fill-rule="evenodd"/>
            </g>
          </g>
        </g>
        <path id="패스_2445" data-name="패스 2445" d="M58.565,57.031c-.526-.3-1.194-.4-1.8-.707-.551-.275-.936-.968-1.545-1.238-.57-.253-1.287-.219-1.9-.466-.582-.236-1.136-.582-1.752-.812-.595-.219-1.163-.551-1.782-.76-.6-.2-1.287-.18-1.908-.375s-1.175-.531-1.8-.709-1.3-.107-1.928-.268-1.16-.675-1.789-.824-1.355.154-1.984.024-1.265-.241-1.9-.353-1.243-.388-1.877-.48-1.292-.1-1.925-.168c-.651-.073-1.275-.31-1.908-.356-.656-.051-1.3-.178-1.93-.2-.66-.022-1.309.175-1.938.19-.663.015-1.314-.11-1.933-.051a18.837,18.837,0,0,0-1.869.5c-.024,0-.607.356-1.674.916-.495.261-1.15.429-1.794.792-.526.3-1.111.6-1.708.96-.536.324-1,.809-1.577,1.18-.536.349-1.145.612-1.694,1-.531.37-1.15.639-1.682,1.041s-1.067.773-1.574,1.2-1.038.829-1.518,1.277-.765,1.106-1.209,1.584S9.9,60.989,9.5,61.5a17.242,17.242,0,0,0-1.3,1.487,12.078,12.078,0,0,0-.824,1.784,8.038,8.038,0,0,0-.431,1.821,14.361,14.361,0,0,0,1.6.97c.556.214,1.15.514,1.813.738.585.195,1.25.271,1.906.468.6.183,1.2.468,1.847.651.609.171,1.236.366,1.884.536.614.163,1.336-.017,1.979.141.624.156,1.214.49,1.857.641.621.149,1.292.124,1.93.268s1.245.366,1.884.5,1.226.5,1.867.631,1.316.083,1.957.207,1.309.124,1.95.241,1.255.426,1.894.536,1.34-.063,1.977.037c.656.1,1.3.217,1.935.31.658.1,1.262.512,1.9.595.665.088,1.321.129,1.955.2.67.076,1.338,0,1.967.051.678.061,1.323.207,1.938.244.695.039,1.258-.166,1.86-.161a9.74,9.74,0,0,1,.585-1.611c.19-.514.6-1.009.873-1.613.239-.531.375-1.143.663-1.708.275-.536.634-1.041.941-1.577s.375-1.221.707-1.728c.349-.529.668-1.08,1.028-1.545A12.9,12.9,0,0,1,50.981,63.3a5.849,5.849,0,0,1,1.462-1.15c.024-.01.59-.6,1.465-1.328.475-.4,1-.86,1.54-1.314s1.311-.634,1.774-1.041a5.507,5.507,0,0,0,1.372-1.523l-.029.083" transform="translate(5.176 23.393)" fill="#f4da82" fill-rule="evenodd"/>
        <path id="패스_2446" data-name="패스 2446" d="M20.748,38.847c-.193.4-.01,1.175-.263,1.964-.173.536-.526,1.1-.719,1.786-.161.578-.183,1.238-.356,1.9-.154.595-.6,1.145-.765,1.791-.149.609-.336,1.228-.487,1.872-.144.614-.1,1.287-.244,1.928-.139.617-.295,1.238-.431,1.869s-.307,1.248-.439,1.879-.193,1.282-.319,1.913-.363,1.253-.485,1.884-.039,1.318-.156,1.945c-.119.648-.227,1.284-.334,1.906-.115.656-.5,1.248-.6,1.864-.11.668-.032,1.338-.122,1.947-.1.68-.124,1.326-.193,1.918-.085.717-.512,1.328-.546,1.884a4.433,4.433,0,0,0,.349,1.8c.631.054,1.18.468,1.818.509s1.292-.429,1.93-.392,1.25.251,1.891.288,1.272-.1,1.913-.054c.624.044,1.255.158,1.9.217.626.056,1.238.358,1.886.434.624.073,1.262.1,1.908.2.619.093,1.214.4,1.855.517.617.115,1.294-.017,1.933.127.609.139,1.192.441,1.823.609.6.161,1.219.327,1.845.517.6.185,1.277.173,1.9.39.595.207,1.172.5,1.782.741.585.227,1.058.756,1.66,1.011.578.246,1.314.161,1.908.436.568.263,1.021.8,1.606,1.092.563.28,1.177.48,1.755.787.553.3,1.228.407,1.8.731.548.312,1.048.734,1.609,1.07.543.327.929.921,1.484,1.272.536.339,1.153.563,1.7.926a1.863,1.863,0,0,0,1.886-.127,4.985,4.985,0,0,0,1.5-1.182c.407-.429,1.153-.685,1.567-1.275.356-.507.275-1.345.631-1.95.322-.543.848-1,1.167-1.611.3-.568.809-1.058,1.1-1.669.278-.582.314-1.3.587-1.913.263-.595.751-1.109,1.009-1.728.249-.6.151-1.353.392-1.972s.39-1.26.621-1.882.641-1.177.863-1.8.329-1.3.539-1.921.639-1.2.841-1.818c.207-.641.353-1.292.543-1.908.2-.656.232-1.338.409-1.952.195-.668.79-1.192.953-1.8.183-.68.185-1.367.329-1.962.175-.719.115-1.411.224-1.969.175-.9.639-1.552.624-1.935a6.866,6.866,0,0,0-.729-1.835A7.789,7.789,0,0,0,66.8,46.39a11.561,11.561,0,0,0-1.345-1.357,14.754,14.754,0,0,0-1.333-1.348c-.478-.39-1.024-.7-1.572-1.075-.514-.349-.87-.985-1.44-1.314-.543-.312-1.07-.707-1.657-1-.563-.283-1.345-.127-1.942-.39-.578-.256-1.036-.824-1.643-1.06-.587-.232-1.163-.546-1.774-.758s-1.328-.046-1.947-.236-1.15-.619-1.772-.792-1.287-.154-1.913-.307-1.206-.492-1.835-.626-1.316.017-1.947-.1-1.2-.656-1.83-.756-1.284-.19-1.918-.271-1.338.317-1.972.253-1.277-.2-1.913-.241c-.653-.041-1.289-.154-1.923-.171-.66-.019-1.3.061-1.938.068-.66.007-1.316-.273-1.945-.236-.66.039-1.3.195-1.916.268-.665.076-1.255.448-1.864.568-.663.127-1.389-.129-1.974.049a11.354,11.354,0,0,0-1.672,1.011,7.07,7.07,0,0,0-1.545,1.05,4.508,4.508,0,0,0-1.3,1.343c-.08.076-.219-.117-.219-.117" transform="translate(15.71 2.312)" fill="#e9d07a" fill-rule="evenodd"/>
        <path id="패스_2447" data-name="패스 2447" d="M80.872,40.571a7.435,7.435,0,0,1,.695,1.918c.115.563-.4,1.309-.319,2.025.066.6.244,1.226.283,1.921.037.614.453,1.253.468,1.933.015.626-.331,1.282-.334,1.957,0,.631-.08,1.28-.1,1.95-.017.636-.224,1.277-.256,1.942-.032.639.361,1.314.317,1.977-.041.639-.48,1.255-.534,1.913-.054.641.083,1.3.017,1.957S80.943,61.35,80.87,62s.171,1.333.088,1.984-.656,1.226-.748,1.877.251,1.357.146,2.006-.575,1.228-.69,1.872-.3,1.272-.427,1.913-.141,1.311-.278,1.95.158,1.387.01,2.025-.933,1.128-1.1,1.762-.049,1.348-.224,1.977-.529,1.216-.719,1.838.032,1.4-.175,2.008c-.214.631-.465,1.243-.692,1.845-.234.624-.295,1.314-.541,1.9-.261.614-1.036.989-1.309,1.565-.29.607-.266,1.353-.573,1.911-.324.59-.719,1.126-1.063,1.655-.37.568-1.106.826-1.5,1.316-.424.529-.4,1.431-.851,1.862-.49.468-1.241.563-1.762.9-.919.4-.855.556-1.794.911s-.965.275-1.9.629-.858.558-1.794.911-1.155-.212-2.094.144-.712.955-1.65,1.309-1.085-.037-2.023.317-.851.58-1.786.933-1.094-.054-2.035.3-.731.912-1.674,1.267-.931.39-1.877.748-1,.2-1.947.558a8.915,8.915,0,0,1-1.765.263,8.737,8.737,0,0,1-1.752.224,8.767,8.767,0,0,1-1.74-.331c-.924-.178-.741.241-1.913.056-.524-.085-1.116-.387-1.818-.5-.568-.1-1.163-.351-1.825-.463-.582-.1-1.238,0-1.882-.117-.595-.107-1.192-.346-1.828-.463-.6-.11-1.2-.31-1.83-.429-.607-.115-1.292.112-1.916-.01-.607-.119-1.165-.524-1.784-.651s-1.211-.329-1.825-.461-1.172-.529-1.784-.665-1.272-.1-1.879-.241-1.262-.158-1.864-.31c-.621-.156-1.2-.431-1.791-.592-.626-.168-1.226-.358-1.813-.531-.626-.185-1.221-.388-1.794-.578-.629-.207-1.372,0-1.923-.217-.641-.246-1.046-.907-1.555-1.158A7.193,7.193,0,0,1,10.123,96c-.444-.361-1.182-.556-1.584-1.175A14.165,14.165,0,0,1,7.757,93c-.251-.565-.453-1.192-.668-1.847-.195-.6-.38-1.228-.539-1.889-.146-.621-.473-1.231-.582-1.9-.107-.636-.019-1.318-.088-1.984-.063-.648-.073-1.306-.1-1.972s-.3-1.321-.283-1.981.6-1.28.663-1.935-.088-1.243.029-1.889a11.467,11.467,0,0,0,1.54,1.05c.541.266,1.26.266,1.906.529.57.234,1.041.846,1.684,1.075.59.21,1.418-.2,2.062,0,.6.195,1.067.887,1.706,1.075.612.18,1.236.388,1.874.563.619.171,1.228.431,1.867.595s1.3.144,1.942.3,1.3.132,1.93.278,1.265.292,1.9.431,1.282.234,1.92.368,1.311.1,1.95.229,1.167.863,1.806.985,1.306.158,1.942.271,1.333,0,1.967.1c.656.11,1.262.458,1.894.558.66.1,1.358-.124,1.986-.032.665.1,1.306.222,1.933.3.675.09,1.328.141,1.947.212.685.08,1.36-.141,1.962-.088.709.066,1.243.3,1.818.334.188-.621.807-.994,1.031-1.587s.422-1.2.685-1.777.509-1.163.809-1.723.58-1.136.916-1.677.219-1.4.587-1.923.941-.919,1.338-1.418.687-1.119,1.109-1.594.873-.968,1.319-1.418,1.292-.522,1.757-.95.663-1.2,1.148-1.606,1.365-.358,1.864-.746.719-1.194,1.231-1.56c.534-.38,1.1-.7,1.623-1.043.551-.363,1.138-.639,1.669-.96.568-.346.955-.968,1.494-1.27.587-.329,1.18-.614,1.721-.894.6-.314,1.2-.568,1.733-.824.646-.312,1.472-.056,1.979-.285.777-.346,1.046-.994,1.411-1.16.134-.634.809-1.06.972-1.711.158-.626.154-1.3.344-1.942.183-.621-.1-1.4.115-2.04.2-.614.726-1.138.958-1.769.224-.607.378-1.258.631-1.879.241-.6.69-1.128.958-1.743.261-.592.631-1.145.916-1.752.275-.585.234-1.338.534-1.938.292-.58.658-1.138.972-1.733.3-.573.4-1.28.726-1.864s.943-.98,1.282-1.56c.329-.563.9-.943,1.25-1.518a.417.417,0,0,0,.056-.307" transform="translate(3.093 10.79)" fill="#e6bf61" fill-rule="evenodd"/>
        <path id="패스_2448" data-name="패스 2448" d="M30.175,46.255c-.083.7-.117,1.377-.173,2.016-.061.7-.019,1.367-.068,2.008-.054.69-.173,1.345-.234,1.994-.066.673-.019,1.345-.122,2s-.329,1.282-.495,1.94c-.1.375-.626.709-1.472,1.143-.49.251-1.1.47-1.782.765-.543.234-1.111.556-1.75.829-.563.241-1.138.543-1.76.821-.568.253-1.177.478-1.782.768-.568.271-1.082.692-1.672,1-.563.292-1.138.582-1.711.909-.553.317-1.15.575-1.706.926-.539.341-1.1.665-1.638,1.046s-1.024.787-1.535,1.2-1.009.8-1.494,1.245-.838.985-1.292,1.455-.929.892-1.348,1.4-.848.965-1.228,1.5a9.571,9.571,0,0,1,.056-1.884,11.607,11.607,0,0,1,.29-1.872,14.314,14.314,0,0,1,.539-1.83,18.269,18.269,0,0,1,.921-1.669c.3-.543.6-1.109.955-1.645.349-.517.692-1.06,1.085-1.567s.931-.868,1.35-1.35.763-1.011,1.2-1.472.858-.936,1.316-1.377.994-.795,1.467-1.216.858-.953,1.343-1.358,1.058-.726,1.55-1.114c.509-.4,1.055-.729,1.557-1.1.522-.385,1.048-.738,1.555-1.092.539-.375,1.026-.79,1.538-1.124.558-.366,1.038-.807,1.552-1.119.587-.358,1.153-.665,1.662-.948.639-.353,1.238-.59,1.721-.816,1.089-.507,1.786-.621,1.755-.366-.027.049-.156-.039-.156-.039" transform="translate(5.086 18.825)" fill="#e6bf61" fill-rule="evenodd"/>
        <path id="패스_2449" data-name="패스 2449" d="M32.083,46.668a17.393,17.393,0,0,0-1.711-.436,14.519,14.519,0,0,0-1.733-.356,6.3,6.3,0,0,0-1.967.229,12.028,12.028,0,0,0-1.779.848,17.581,17.581,0,0,0-1.728.916c-.539.327-1.18.551-1.73.946-.519.37-1.033.787-1.557,1.209-.5.4-.885.965-1.384,1.406s-1.111.717-1.591,1.172-.914.941-1.375,1.411-.846,1.007-1.289,1.489S13.426,56.538,13,57.031s-.955.921-1.365,1.423c-.422.519-.792,1.063-1.182,1.577-.409.534-.729,1.111-1.1,1.63-.392.556-.924.987-1.265,1.516-.378.585-.653,1.2-.958,1.738-.349.619-.726,1.175-.968,1.718a7.569,7.569,0,0,0-.409,1.911c-.171.875-.2,1.538.3,1.8a10.56,10.56,0,0,1,1.326.7,2.172,2.172,0,0,0,1.314.595A7.553,7.553,0,0,1,9,69.806a12.779,12.779,0,0,1,.487-1.813c.227-.548.626-1.055.931-1.638.278-.531.6-1.06.938-1.613.314-.517.49-1.15.851-1.682.346-.5.89-.89,1.272-1.4.37-.492.646-1.072,1.046-1.57.39-.48.863-.9,1.28-1.382s.853-.911,1.282-1.377.726-1.041,1.17-1.489c.419-.424,1-.712,1.472-1.128.453-.4.8-.948,1.292-1.336s.972-.76,1.472-1.126,1.041-.675,1.548-1.019,1.033-.7,1.545-1.026c.536-.341,1.158-.512,1.672-.819.553-.331,1.009-.78,1.516-1.065.587-.329,1.114-.673,1.611-.929.656-.339,1.211-.626,1.643-.814l.056.088" transform="translate(3.295 18.402)" fill="#f7e29b" fill-rule="evenodd"/>
        <path id="패스_2450" data-name="패스 2450" d="M47.936,50.505a10.388,10.388,0,0,1-1.479-.687,4.876,4.876,0,0,0-1.477-.6,6.137,6.137,0,0,0-1.869.29,10.5,10.5,0,0,0-1.823.556,18.662,18.662,0,0,0-1.6,1.031c-.517.317-1.06.646-1.589,1.028-.495.361-.929.831-1.433,1.241-.478.392-.938.816-1.418,1.245-.463.414-.933.834-1.394,1.28s-.943.834-1.384,1.292-.807.972-1.233,1.44-1,.8-1.414,1.28-.7,1.07-1.1,1.557-.763,1.016-1.143,1.513-.919.909-1.282,1.411c-.38.529-.587,1.153-.929,1.665-.366.546-.746,1.048-1.06,1.567-.351.573-.736,1.087-1.016,1.616a18.166,18.166,0,0,0-.695,1.762,10.774,10.774,0,0,0-.777,1.735,1.569,1.569,0,0,0,.582,1.745,5.456,5.456,0,0,0,1.85.292c.656.058,1.34.178,1.882.178a7.264,7.264,0,0,1,.173-2.023,13.113,13.113,0,0,1,.76-1.869c.266-.573.668-1.119,1.024-1.721.327-.551.707-1.1,1.1-1.672.368-.531.734-1.1,1.155-1.645.4-.517.875-.994,1.314-1.523.422-.5.829-1.036,1.284-1.548.439-.492.941-.943,1.411-1.44q.68-.728,1.4-1.455c.448-.453.916-.9,1.394-1.35S38,57.7,38.482,57.271s.953-.9,1.448-1.311.992-.87,1.492-1.267c.524-.417,1.053-.809,1.557-1.187.543-.407,1.111-.741,1.616-1.089.582-.4,1.221-.621,1.726-.931.651-.4,1.126-.909,1.6-1.114.022-.007.02.134.02.134" transform="translate(26.491 23.212)" fill="#f7e29b" fill-rule="evenodd"/>
        <path id="패스_2451" data-name="패스 2451" d="M36.925,28.778a7.423,7.423,0,0,1,1.818,1.007,13.53,13.53,0,0,0,1.925.79c.621.2,1.377.185,2.062.414s1.333.539,1.952.8a7.647,7.647,0,0,1,1.7,1.238c.648.5,1.1.982.972,1.66-.441.28-1.3,1.523-1.219,1.911.617.219,1.4.158,1.957.409.6.271,1.255.414,1.779.717a15.216,15.216,0,0,1,1.479,1.228,13.535,13.535,0,0,1,1.474,1.2,13.328,13.328,0,0,1,1.411,1.319,11.93,11.93,0,0,1,.816,1.755c.283.561.078,1.3.268,1.9A12.167,12.167,0,0,1,55.8,46.9a15.145,15.145,0,0,1,.158,1.838c.022.614.487,1.245.441,1.881-.044.614-.246,1.233-.346,1.864-.1.609-.621,1.133-.768,1.755-.144.6-.041,1.262-.227,1.872-.178.592-.534,1.126-.748,1.723s-.47,1.143-.712,1.728-.349,1.2-.612,1.779-.122,1.331-.4,1.9-1.138.821-1.435,1.379-.327,1.248-.639,1.8c-.346.539-.48,1.214-.826,1.755s-.98.9-1.326,1.435-.826,1-1.17,1.538-.263,1.353-.6,1.9-.719,1.063-1.053,1.609-.8,1.014-1.131,1.565-.741,1.053-1.063,1.606-.773,1.041-1.085,1.6-.483,1.2-.787,1.767-.76,1.05-1.053,1.621-.219,1.323-.5,1.9-.982.958-1.245,1.54-.483,1.2-.731,1.789-.431,1.214-.663,1.813-.261,1.27-.473,1.877-.346,1.231-.539,1.845-.29,1.243-.461,1.864-.541,1.18-.687,1.806-.48,1.214-.6,1.847-.024,1.267-.119,1.9a4.647,4.647,0,0,1-1.669.746,12.063,12.063,0,0,1-1.852.451c-.595.066-1.241-.163-1.908-.151-.612.015-1.253.395-1.911.366-.621-.027-1.282.058-1.93-.007-.626-.063-1.2-.634-1.84-.734s-1.282-.049-1.908-.178-1.3-.1-1.913-.258-1.306-.188-1.9-.385c-.621-.207-.982-1.06-1.557-1.3-.609-.256-1.233-.375-1.772-.67a12.687,12.687,0,0,1-1.66-.933,7.089,7.089,0,0,1-1.25-1.4,4.154,4.154,0,0,1-.855-1.6,3.527,3.527,0,0,1-.08-1.828c.263-.6.409-1.231.621-1.835s.48-1.211.643-1.83.134-1.294.253-1.925.178-1.27.256-1.908.09-1.277.129-1.921,0-1.28,0-1.925.49-1.294.465-1.94-.212-1.284-.261-1.93.127-1.311.058-1.955-.324-1.262-.407-1.9-.646-1.209-.738-1.847-.195-1.267-.295-1.906.441-1.375.339-2.013-.829-1.175-.929-1.811.022-1.311-.076-1.95.1-1.319.01-1.957-.3-1.262-.368-1.9-.451-1.258-.507-1.9.012-1.3-.022-1.947.3-1.3.292-1.945-.161-1.287-.141-1.933-.239-1.3-.222-1.933c.019-.653.414-1.28.446-1.906.032-.653-.329-1.319-.28-1.94.051-.653.6-1.241.67-1.86.076-.653-.353-1.362-.249-1.974.112-.651.807-1.163.953-1.762.156-.643-.166-1.4.037-1.986a15.063,15.063,0,0,1,.748-1.791,12.115,12.115,0,0,1,.936-1.723,10.018,10.018,0,0,1,1.375-1.409,9.419,9.419,0,0,1,1.567-1.18,10.908,10.908,0,0,1,1.84-.66c.573-.2,1.294.107,1.952-.015.592-.107,1.141-.819,1.806-.863.607-.041,1.26.568,1.93.582.612.015,1.3-.049,1.969.012.139-.219-.151-.409-.015-.763-.3-.553.071-1.765.224-2.552a4.686,4.686,0,0,1,1.838-.648c.578-.032,1.243.621,1.933.634.624.01,1.294-.582,1.947-.551s1.314.041,1.935.076c.7.039,1.348.124,1.925.149a10.8,10.8,0,0,0,1.942-.076" transform="translate(8.831 -6.493)" fill="#9fca9e" fill-rule="evenodd"/>
        <path id="패스_2452" data-name="패스 2452" d="M25.125,94.616c.1-.639,0-1.331.115-1.959s.556-1.194.7-1.818-.1-1.35.073-1.967.765-1.114.955-1.726.38-1.219.59-1.823S27.667,84,27.9,83.4s.9-1.019,1.145-1.611-.01-1.4.256-1.986.536-1.17.816-1.747.782-1.046,1.075-1.618.463-1.2.768-1.769.9-.968,1.214-1.528.261-1.326.585-1.879,1.089-.843,1.418-1.394.578-1.145.914-1.691.436-1.238.775-1.782,1.007-.88,1.348-1.421.563-1.163.909-1.7.475-1.219.821-1.76.67-1.089,1.016-1.63c.322-.565.821-1.026,1.126-1.6s.675-1.119.963-1.7.356-1.277.624-1.864.736-1.1.98-1.7.5-1.216.712-1.821c.222-.621.195-1.314.375-1.928.183-.634.336-1.255.475-1.882.139-.643.582-1.228.665-1.86.088-.656.163-1.321.185-1.959a16.872,16.872,0,0,0-.115-1.964,14,14,0,0,0-.509-1.894,12.141,12.141,0,0,0-.6-1.835,11.774,11.774,0,0,0-.829-1.747,12.46,12.46,0,0,0-.943-1.73,16.32,16.32,0,0,0-1.54-1.37A6.189,6.189,0,0,1,42.317,35a10.8,10.8,0,0,1-.149,1.908c-.183.58-.178,1.282-.434,1.9-.241.575-.8,1.036-1.089,1.616s-.475,1.2-.792,1.755-1.011.892-1.35,1.418c-.3.475-.339,1.214-.7,1.823-.3.509-.709,1.016-1.048,1.609-.3.529-.646,1.07-.97,1.655-.3.539-.651,1.077-.965,1.66-.3.546-.707,1.053-1.016,1.63-.292.551-.619,1.1-.924,1.682-.29.558-.57,1.136-.868,1.713-.292.561-.626,1.111-.919,1.689s-.517,1.16-.8,1.733-.487,1.182-.773,1.757-.634,1.114-.916,1.691-.353,1.255-.634,1.833-.8,1.046-1.072,1.623-.492,1.2-.765,1.774-.383,1.248-.651,1.825-.331,1.27-.595,1.847-.69,1.1-.946,1.682c-.266.6-.687,1.114-.938,1.691-.263.6-.631,1.145-.875,1.723-.258.612-.378,1.262-.612,1.838-.251.619-.19,1.336-.409,1.908-.244.629-.373,1.255-.575,1.823-.232.648-.509,1.216-.682,1.772-.18.585-.414,1.148-.59,1.718-.18.59-.539,1.116-.714,1.687-.183.592-.4,1.16-.573,1.728-.183.595-.266,1.206-.441,1.769-.183.6-.561,1.121-.734,1.682-.185.6.08,1.316-.09,1.867-.188.612-.49.975-.656,1.513.639.063,1.1.407,1.716.434.648.027,1.28-.4,1.884-.414.66-.017,1.294.19,1.879.122a16.152,16.152,0,0,0,1.918-.076,5.08,5.08,0,0,0,1.682-.989" transform="translate(18.249 -0.042)" fill="#88b988"/>
        <path id="패스_2453" data-name="패스 2453" d="M13.458,35.923c-.414-.809.024-.663.314-1.667a8.386,8.386,0,0,1,.69-1.648,5.434,5.434,0,0,1,1.075-1.4,4.211,4.211,0,0,1,1.44-1.041,11.431,11.431,0,0,1,1.794-.619c.587-.112,1.228-.214,1.879-.3.624-.078,1.267-.149,1.9-.2.651-.054,1.314.207,1.918.173.7-.039,1.338-.151,1.894-.168,1.133-.034.982.171,1.864-.158a6.2,6.2,0,0,0,1.694-.968,15.654,15.654,0,0,1,1.657-1.043,8.7,8.7,0,0,1,1.864-.553,3.368,3.368,0,0,1,1.891-.039,4.444,4.444,0,0,1,1.606,1.036,10.982,10.982,0,0,1,1.306,1.455,18.288,18.288,0,0,1,.963,1.694c.534.975.1,1.092.77,1.782s.819.161,1.835.7c.5.271,1.055.66,1.652,1.036.534.334.985.843,1.513,1.243a14.058,14.058,0,0,1,1.513,1.226,6.976,6.976,0,0,1,1.17,1.548,3.284,3.284,0,0,1,.473,1.85,20.654,20.654,0,0,1-.219,2.206c-.3,1.4.195,1.518-.748,2.045-.846.47-.709-.061-1.942-.185-.543-.056-1.209.032-1.945-.054-.582-.071-1.219-.183-1.908-.275-.6-.08-1.233-.219-1.906-.319-.612-.093-1.214-.417-1.877-.526-.619-.1-1.258-.183-1.913-.3-.621-.112-1.3-.029-1.947-.156-.621-.119-1.2-.5-1.847-.631-.624-.132-1.272-.19-1.913-.336-.624-.141-1.3-.119-1.935-.275s-1.248-.341-1.882-.509-1.189-.526-1.816-.7-1.243-.346-1.867-.539-1.314-.151-1.933-.356-1.241-.395-1.855-.614-1.216-.473-1.823-.707-1.167-.587-1.767-.841-1.041-.595-1.63-.865" transform="translate(14.284 -9.903)" fill="#9fca9e" fill-rule="evenodd"/>
        <path id="패스_2454" data-name="패스 2454" d="M26.009,44.669c-.229.963.687.344,1.76.86.522.251,1.167.461,1.8.812.551.3,1.085.712,1.657,1.082.553.356,1.1.736,1.618,1.143A14.3,14.3,0,0,1,34.413,49.8a7.9,7.9,0,0,1,1.08,1.667,4.587,4.587,0,0,1,.775,1.825,3.833,3.833,0,0,1-.475,1.938c-.3.6-.609,1.15-.919,1.65A16.865,16.865,0,0,1,33.8,58.427a13.149,13.149,0,0,1-1.314,1.333,12.824,12.824,0,0,1-1.409,1.277c-.975.651-.753.7-1.677.665a12.533,12.533,0,0,1-1.721-.334,7.06,7.06,0,0,0-1.8-.1,1.575,1.575,0,0,0-1.284,1.075,1.011,1.011,0,0,0,.31,1.37c.6.473,1.482-.19,1.557.648.1,1.109-.821.931-1.033,1.935a1.6,1.6,0,0,0,.709,1.9,1.572,1.572,0,0,0,2.05-.132,3.072,3.072,0,0,0,.931-1.942c.2-.78-.115.751-.134,1.584a3.308,3.308,0,0,0,.161,1.562c.236.436.639.641,1.372.385a3.3,3.3,0,0,0,1.682-1.094c.636-.912-.419-1.406.441-1.93.763-.463.59.7,1.435.968a1.834,1.834,0,0,0,1.662-.266,1.876,1.876,0,0,0,.765-1.9c-.134-1.048-.807-.951-.807-2.042,0-1.016.6-.6,1.392-1.538.38-.453.958-.88,1.406-1.482.383-.514.651-1.167,1.031-1.762.361-.561.631-1.189.951-1.8a17.315,17.315,0,0,0,.9-1.823,12.364,12.364,0,0,0,.7-1.923,7.813,7.813,0,0,0-.049-2.04,5.623,5.623,0,0,0-.361-1.989,5.781,5.781,0,0,0-1.209-1.638c-.461-.461-.963-.843-1.418-1.248-.49-.434-.89-.938-1.365-1.311-.517-.4-1.024-.787-1.516-1.126-.548-.375-1.192-.531-1.7-.831-.592-.349-1.1-.738-1.611-1-.646-.322-1.241-.524-1.73-.721-1.094-.439-1-1.267-1.765-.741-.736.509-.478.8-1.043,1.494a9.053,9.053,0,0,1-1.214,1.323c-.67.629-.873.563-1.082,1.438" transform="translate(30.341 10.321)" fill="#9fca9e" fill-rule="evenodd"/>
        <path id="패스_2455" data-name="패스 2455" d="M25.62,49.112c-.534-.834-.785.456-1.9.87-.541.2-1.211.329-1.9.543-.6.183-1.219.47-1.882.626-.639.151-1.333.08-1.986.173a14.186,14.186,0,0,1-1.964.2,7.891,7.891,0,0,1-1.945-.261,4.279,4.279,0,0,1-1.728-.843,3.636,3.636,0,0,1-1.262-1.513A17.059,17.059,0,0,1,10.7,47.05a15.722,15.722,0,0,1-.334-1.838,13.611,13.611,0,0,1-.127-1.85A10.96,10.96,0,0,1,10.4,41.5c.21-1.155-.239-1.143.429-1.784.636-.612.753-.346,1.5-.936a6.764,6.764,0,0,0,1.226-1.294A1.741,1.741,0,0,0,14,35.79a1.374,1.374,0,0,0-1.45-.836c-.758.107-.831,1.367-1.487.841-.865-.7-.139-1.194-.714-2.04a1.6,1.6,0,0,0-1.855-.831A1.527,1.527,0,0,0,7.222,34.5c.024.96-.034,2.717.753,1.989.829-.763-.543-1.172-1.47-1.674a1.909,1.909,0,0,0-2.135.236,1.435,1.435,0,0,0-.487,1.9c.363.936,1.089.651,1.15,1.755.051.892-.877-.146-1.66.275a1.928,1.928,0,0,0-.892,1.462,1.85,1.85,0,0,0,.809,1.872c.846.631,1.206.117,1.991.875.731.707.044.8.173,2.03.061.587.073,1.282.195,2.023.1.631.351,1.282.514,1.972.154.646.193,1.348.407,2A17.381,17.381,0,0,0,7.38,53.1a11.48,11.48,0,0,0,1.067,1.73,7.831,7.831,0,0,0,1.321,1.535A5.777,5.777,0,0,0,11.5,57.43a5.848,5.848,0,0,0,2.02.271c.653-.012,1.275-.149,1.881-.2.653-.051,1.3.054,1.9-.029.651-.09,1.272-.214,1.857-.336.651-.134,1.216-.461,1.784-.617.658-.183,1.309-.2,1.847-.395.682-.241,1.238-.561,1.723-.777,1.08-.483,1.6.11,1.755-.807.146-.885-.268-.9-.375-1.789a7.15,7.15,0,0,1-.119-1.794c.049-.953.331-1.089-.154-1.847" transform="translate(-1.292 -0.29)" fill="#9fca9e" fill-rule="evenodd"/>
        <path id="패스_2456" data-name="패스 2456" d="M17.87,39a1.565,1.565,0,1,1-1.565-1.565A1.563,1.563,0,0,1,17.87,39" transform="translate(16.372 6.279)" fill="#231815"/>
        <path id="패스_2457" data-name="패스 2457" d="M22.464,40.281A1.565,1.565,0,1,1,20.9,38.716a1.563,1.563,0,0,1,1.565,1.565" transform="translate(22.974 8.124)" fill="#231815"/>
        <path id="패스_2458" data-name="패스 2458" d="M15.8,40.724a2.9,2.9,0,0,0,4.433,3.032,2.983,2.983,0,0,0,1.287-1.794.967.967,0,0,0-1.864-.514c-.012.061-.027.119-.044.178l-.027.076c-.037.1-.024.066.039-.085a2.443,2.443,0,0,0-.156.271c-.1.151.156-.18.007-.01-.041.046-.083.09-.127.132a.812.812,0,0,0-.117.1c.119-.09.151-.115.09-.071a.605.605,0,0,1-.063.046,3.226,3.226,0,0,1-.3.168c-.068.032-.032.015.11-.046l-.1.037-.151.044a1.072,1.072,0,0,0-.154.032c.171-.022.2-.027.1-.017l-.078,0c-.061,0-.122,0-.183,0-.178,0,.234.049.049.01-.1-.022-.2-.076-.3-.088q.223.1.088.037l-.071-.037c-.054-.029-.1-.058-.156-.093a.6.6,0,0,1-.063-.046c-.061-.044-.029-.019.093.071a1.2,1.2,0,0,0-.117-.1,1.311,1.311,0,0,1-.127-.134c-.149-.171.1.163,0,.01-.056-.09-.11-.178-.158-.271-.088-.166.068.2.012.039-.022-.068-.044-.132-.063-.2-.012-.051-.022-.1-.032-.154-.041-.185.007.239.007.049,0-.051,0-.1,0-.156,0-.078.044-.327-.01,0a1.044,1.044,0,0,0-.1-.746.989.989,0,0,0-.575-.444.978.978,0,0,0-1.189.675" transform="translate(17.825 10.006)" fill="#231815"/>
        <path id="패스_2459" data-name="패스 2459" d="M17.531,30.106c-5.23,2.213-7.409,8.472-8.269,13.653C8.021,51.226,10.8,57.565,12.125,64.814A65.892,65.892,0,0,1,13.083,80.2a64.815,64.815,0,0,1-.851,7.543c-.278,1.611-1.1,3.6-.855,5.276.422,2.842,4.8,4.246,7,5.164a38.187,38.187,0,0,0,12.785,2.827c1.241.066,1.238-1.864,0-1.93a35.921,35.921,0,0,1-12.149-2.727c-2.252-.948-5.4-1.9-5.581-4.8-.1-1.655.773-3.846,1.009-5.515A68.19,68.19,0,0,0,13.987,64.3c-1.138-6.249-3.792-12.076-3.068-18.532.575-5.135,2.371-11.789,7.587-14,1.141-.483.158-2.147-.975-1.667" transform="translate(8.05 -4.374)" fill="#231815"/>
        <path id="패스_2460" data-name="패스 2460" d="M27.253,43.7c-.4-.407.024-.96.414-1.165a2.885,2.885,0,0,1,1.874-.073,13,13,0,0,1,3.658,1.4c2.1,1.153,4.6,2.773,5.489,5.108C40.56,53.906,36.621,58.556,33.6,62c-.816.931.543,2.3,1.367,1.367,2.247-2.564,4.6-5.259,5.6-8.589a9.342,9.342,0,0,0-1.618-8.991,17.384,17.384,0,0,0-9.061-5.225c-1.448-.273-3.151-.2-4.116,1.075a2.59,2.59,0,0,0,.115,3.429c.873.887,2.24-.478,1.367-1.367" transform="translate(31.373 10.589)" fill="#231815"/>
        <path id="패스_2461" data-name="패스 2461" d="M22.139,29.838a4.277,4.277,0,0,1,.271-.39c-.049.063-.1.127-.151.195a4.443,4.443,0,0,1,.78-.777c-.066.046-.132.1-.195.151a4.286,4.286,0,0,1,.812-.5c-.485-.278-.97-.553-1.453-.831,0,.041-.007.088-.015.132.012-.085.024-.168.034-.253a1.889,1.889,0,0,1-.127.463c.032-.073.063-.154.1-.232a1.919,1.919,0,0,1-.258.444c.051-.066.1-.132.151-.2a2.007,2.007,0,0,1-.341.349q.1-.08.2-.154a2,2,0,0,1-.417.246c.076-.034.154-.066.229-.1l-.049.02-.232.1a.711.711,0,0,0-.271.246.971.971,0,0,0-.207.585,1.118,1.118,0,0,0,.58.992,1.136,1.136,0,0,0,.585.141,1.087,1.087,0,0,0,.292-.041,1.153,1.153,0,0,0,.461-.273.971.971,0,0,0,.283-.682,1,1,0,0,0-.283-.685.987.987,0,0,0-.685-.283c-.085.012-.171.027-.256.037a.942.942,0,0,0-.427.246l-.015.012.195-.151-.017.01.232-.1a.1.1,0,0,1-.039.01c.088-.01.173-.022.258-.032H22.12l.256.032a.138.138,0,0,1-.058-.015l.232.1-.034-.022c.063.051.129.1.195.151a.134.134,0,0,1-.041-.041c.049.068.1.132.151.195a.112.112,0,0,1-.019-.032c.032.076.066.151.1.232l0-.022c.012.085.022.171.034.258l0-.041c-.236.314-.473.624-.709.933a2.854,2.854,0,0,0,.7-.366,3.425,3.425,0,0,0,.395-.331,3.3,3.3,0,0,0,.317-.39,2.832,2.832,0,0,0,.507-1.5.966.966,0,0,0-1.453-.836,5.284,5.284,0,0,0-2.208,2.018.967.967,0,0,0,1.089,1.418,1.044,1.044,0,0,0,.578-.446" transform="translate(24.421 -9.122)" fill="#231815"/>
        <path id="패스_2462" data-name="패스 2462" d="M24.168,29.586c-.09-.434-.2-.87-.266-1.309.012.085.022.171.034.256a.789.789,0,0,1,0-.185c-.012.085-.024.171-.034.256a.439.439,0,0,1,.024-.1c-.032.078-.066.154-.1.232a.276.276,0,0,1,.039-.063c-.051.063-.1.129-.151.195l.034-.037-.195.151a.311.311,0,0,1,.056-.034c-.078.032-.154.063-.232.1a.374.374,0,0,1,.085-.024c-.085.012-.171.024-.256.034a.367.367,0,0,1,.09,0l-.256-.037a.551.551,0,0,1,.09.027l-.229-.1a.629.629,0,0,1,.1.061c-.066-.051-.132-.1-.195-.151a.934.934,0,0,1,.068.071c-.051-.063-.1-.129-.151-.195a.741.741,0,0,1,.073.127c-.032-.078-.063-.154-.1-.232a2.567,2.567,0,0,1,.132.621c.037.229.078.458.11.687-.012-.085-.024-.171-.034-.256a.8.8,0,0,1,0,.171c.012-.085.024-.171.034-.256a.431.431,0,0,1-.019.08c.032-.078.063-.154.1-.232a.2.2,0,0,1-.029.049l.151-.195-.024.027.195-.151a.214.214,0,0,1-.051.029c.078-.032.154-.063.232-.1a.238.238,0,0,1-.056.015l.256-.034h-.039l.256.034a.2.2,0,0,1-.051-.015c.076.034.154.066.229.1l-.029-.017.2.151-.012-.012c.049.066.1.129.151.195l-.019-.029c.034.076.066.154.1.229l0-.017a1,1,0,0,0-.444-.578.966.966,0,0,0-1.321.346,1.006,1.006,0,0,0-.1.746,1.118,1.118,0,0,0,1.353.765,1.168,1.168,0,0,0,.539-.3,1.2,1.2,0,0,0,.327-.7A1.9,1.9,0,0,0,24.8,29.4c-.015-.1-.032-.207-.049-.31-.029-.2-.061-.4-.093-.6a1.873,1.873,0,0,0-.232-.682,1.408,1.408,0,0,0-.86-.648,1.233,1.233,0,0,0-1.528.9,1.378,1.378,0,0,0-.034.468c.066.526.195,1.048.3,1.567a.975.975,0,0,0,.444.578,1,1,0,0,0,.743.1.974.974,0,0,0,.578-.446,1.06,1.06,0,0,0,.1-.743" transform="translate(26.798 -8.529)" fill="#231815"/>
        <path id="패스_2463" data-name="패스 2463" d="M14.923,35.835A4.665,4.665,0,0,1,18.257,31.6c2.05-.748,4.163-.444,6.288-.558a13.451,13.451,0,0,0,5.233-1.562c1.7-.829,3.385-1.757,5.333-1.691,1.243.041,1.241-1.891,0-1.933-2.179-.073-4.1.87-6.008,1.808a15.739,15.739,0,0,1-2.981,1.214,15.294,15.294,0,0,1-3.934.241c-4.124-.015-9.22,1.8-9.2,6.719a.967.967,0,0,0,1.933,0" transform="translate(13.855 -10.369)" fill="#231815"/>
        <path id="패스_2464" data-name="패스 2464" d="M18.369,27.326a3.692,3.692,0,0,0-3.159,1.1,2.11,2.11,0,0,0-.017,2.657,5.131,5.131,0,0,0,2.686,1.4q2.307.706,4.655,1.265A80.849,80.849,0,0,0,41.2,35.934a.966.966,0,0,0,0-1.93,78.643,78.643,0,0,1-13.424-1.141q-3.21-.563-6.363-1.387c-1.087-.283-2.172-.587-3.246-.924a4.228,4.228,0,0,1-1.111-.407c-.96-.726.855-.892,1.319-.887a.967.967,0,0,0,0-1.933" transform="translate(16.358 -8.246)" fill="#231815"/>
        <path id="패스_2465" data-name="패스 2465" d="M13.338,30.122c-1.248,2.259,1.077,3.531,2.888,4.141A84.614,84.614,0,0,0,25.4,36.778a89.1,89.1,0,0,0,18.588,1.989.966.966,0,0,0,0-1.93A86.6,86.6,0,0,1,28.931,35.51q-3.583-.64-7.1-1.579c-.863-.232-7.36-1.864-6.827-2.834.6-1.089-1.065-2.064-1.667-.975" transform="translate(13.849 -4.912)" fill="#231815"/>
        <path id="패스_2466" data-name="패스 2466" d="M24.213,37.392a4.558,4.558,0,0,1,2-1.238,2.811,2.811,0,0,1,2.174.037c.665.441.056.943-.363,1.3-.673.58-1.467,1.007-2.189,1.521-1.345.96-2.752,2.4-2.657,4.187.085,1.635,1.438,3.28,3.2,3a1.652,1.652,0,0,0,1.275-2.4,1.8,1.8,0,0,0-2.793-.383.975.975,0,0,0,0,1.367.992.992,0,0,0,1.367,0c-.083.063-.149.046-.229-.022-.2-.18.134-.458.122-.47s-.178.01-.2,0a.679.679,0,0,1-.292-.132A1.387,1.387,0,0,1,25.113,43c.1-1.319,1.5-2.2,2.486-2.847,1.182-.775,2.939-1.774,3.039-3.363.112-1.76-1.63-2.735-3.171-2.752a6.451,6.451,0,0,0-4.621,1.984c-.863.894.5,2.264,1.367,1.367" transform="translate(27.625 1.405)" fill="#231815"/>
        <path id="패스_2467" data-name="패스 2467" d="M19.748,34.25c-1.009-1.248-2.315-2.515-4.055-2.345a2.813,2.813,0,0,0-1.945.955,2.988,2.988,0,0,0-.468,2.681c.383,1.535,1.679,2.937,1.467,4.6a1.685,1.685,0,0,1-1.077,1.428,3.4,3.4,0,0,1-.855.171c.061,0,.034,0-.083-.029a.407.407,0,0,1,.256.507c-.044.129-.417.431-.5.139v-.514c0,.044-.012.088-.017.134.083-.144.166-.285.249-.427l.037-.027.487-.132-.1,0,.487.132-.076-.058a.971.971,0,0,0-1.321.349.989.989,0,0,0,.346,1.321A1.154,1.154,0,0,0,14.02,43a1.3,1.3,0,0,0,.161-1.582,1.725,1.725,0,0,0-2.593-.456,1.528,1.528,0,0,0,.2,2.423,2.813,2.813,0,0,0,2.408.039,3.783,3.783,0,0,0,2.459-4.138,8.944,8.944,0,0,0-.9-2.749c-.29-.617-.86-1.5-.653-2.213.158-.539.863-.582,1.331-.429a4.735,4.735,0,0,1,1.94,1.723.975.975,0,0,0,1.367,0,.989.989,0,0,0,0-1.367" transform="translate(11.119 -1.687)" fill="#231815"/>
        <path id="패스_2468" data-name="패스 2468" d="M6.078,35.375c-.292-.629.86-.807.746-.1a.981.981,0,0,0,1.418,1.092c.317-.144,1.438-.712,1.716-.173.258.5-.76,1.214-1.028,1.443a6.2,6.2,0,0,0-1.95,2.805,12.849,12.849,0,0,0,.154,7.309,7.876,7.876,0,0,0,4.258,5.3,5.585,5.585,0,0,0,6.044-.848c.916-.843-.453-2.208-1.365-1.365-1.679,1.552-4.377.7-5.705-.885C8.83,48.112,8.433,45.421,8.5,43.1a5.523,5.523,0,0,1,.985-3.339c.748-.929,1.862-1.421,2.274-2.618a2.257,2.257,0,0,0-.977-2.759c-1.153-.651-2.405-.195-3.51.3q.709.548,1.418,1.092a2.415,2.415,0,0,0-2.693-2.9A2.428,2.428,0,0,0,4.411,36.35c.522,1.126,2.189.146,1.667-.975" transform="translate(1.175 -0.321)" fill="#231815"/>
      </g>
    </g>
    <path id="패스_2469" data-name="패스 2469" d="M2.526,20.768c30.067.244,60.132.582,90.2.826a.967.967,0,0,0,0-1.933c-30.067-.241-60.132-.582-90.2-.826a.967.967,0,0,0,0,1.933" transform="translate(-6302.679 -739.838)" fill="#231815"/>
    <path id="패스_2470" data-name="패스 2470" d="M38.9,20.412q-.738,50.534.483,101.062a.967.967,0,0,0,1.933,0q-1.225-50.523-.483-101.062a.967.967,0,0,0-1.933,0" transform="translate(-6249.461 -738.909)" fill="#231815"/>
    <path id="패스_2471" data-name="패스 2471" d="M2.414,62.795c30.616.863,61.188,1.8,91.816.846,1.238-.037,1.245-1.969,0-1.93-30.628.953-61.2.015-91.816-.848a.967.967,0,0,0,0,1.933" transform="translate(-6302.839 -679.438)" fill="#231815"/>
    <path id="패스_2472" data-name="패스 2472" d="M4.235,60.8a5.919,5.919,0,0,0-3.3.258,1,1,0,0,0-.675,1.189q.508,2.405,1.014,4.809a.976.976,0,0,0,.931.709c20.121.409,40.243.9,60.369,1.019q15.263.088,30.523-.1c2.052-.027,7.755.712,8.213-2.564.314-2.257-3.921-4.331-5.73-3.829a.967.967,0,0,0,.512,1.864c.483-.134,3.424,1.206,3.254,1.76-.317,1.021-3.151.787-3.858.8-2.354.061-4.713.061-7.07.083q-6.12.059-12.239.076-12.112.029-24.218-.119c-16.587-.193-33.17-.585-49.755-.921q.468.355.931.709-.5-2.405-1.014-4.811l-.673,1.189,2.276-.261c1.216.2,1.74-1.662.514-1.862" transform="translate(-6304.639 -679.693)" fill="#231815"/>
    <path id="패스_2473" data-name="패스 2473" d="M94.885,25.066a5.919,5.919,0,0,0,3.3-.258,1,1,0,0,0,.675-1.189q-.508-2.405-1.014-4.809a.976.976,0,0,0-.931-.709c-19.861-.409-39.706-1.265-59.567-1.628-10.4-.19-20.813-.261-31.218-.083C3.5,16.436-.406,16.843.32,20.484c.444,2.225,3.639,4.57,5.869,3.912a.966.966,0,0,0-.514-1.862,3.4,3.4,0,0,1-2.866-1.445c-1.411-3.22,1.911-2.732,3.327-2.766,2.342-.058,4.687-.054,7.026-.068q6.006-.037,12.015,0,11.673.073,23.346.407c16.132.431,32.261,1.038,48.4,1.37q-.468-.355-.931-.709.5,2.405,1.011,4.811c.227-.4.451-.792.675-1.189L95.4,23.2c-1.216-.2-1.74,1.662-.514,1.862" transform="translate(-6304.636 -743.5)" fill="#231815"/>
    <path id="패스_2474" data-name="패스 2474" d="M98.134,21.885c-.212-1.6-.071-3.207-.283-4.809a.992.992,0,0,0-.965-.968c-18.228-.375-36.445-1.119-54.673-1.526q-13.409-.3-26.824-.263-4.043.015-8.089.063c-1.648.022-3.673-.224-5.211.507C-.3,16.024-.169,18.717,1.41,20.464c.836.924,2.2-.446,1.367-1.367Q2.145,16.22,4.15,16.409A14.127,14.127,0,0,1,6.1,16.331c1.184-.029,2.374-.029,3.558-.039q3.144-.033,6.285-.041,5.9-.018,11.8.034,11.092.1,22.186.424c15.652.431,31.3,1.011,46.955,1.333l-.965-.965c.21,1.6.071,3.2.28,4.809.161,1.216,2.094,1.231,1.933,0" transform="translate(-6304.602 -746.337)" fill="#231815"/>
    <path id="패스_2475" data-name="패스 2475" d="M2.294,19.89Q3.354,70.8.983,121.705c-.058,1.243,1.874,1.241,1.93,0Q5.289,70.835,4.227,19.89a.967.967,0,0,0-1.933,0" transform="translate(-6303.558 -739.662)" fill="#231815"/>
    <path id="패스_2476" data-name="패스 2476" d="M1.1,51.4q49.035-.826,98.038,1.879c1.241.068,1.238-1.864,0-1.933Q50.167,48.647,1.1,49.47a.967.967,0,0,0,0,1.933" transform="translate(-6304.731 -696.088)" fill="#231815"/>
    <path id="패스_2477" data-name="패스 2477" d="M3.3,50.62c.373,9.027.836,18.055,1.1,27.084.037,1.241,1.969,1.245,1.933,0-.266-9.03-.726-18.057-1.1-27.084-.051-1.238-1.984-1.245-1.933,0" transform="translate(-6300.231 -695.496)" fill="#231815"/>
    <path id="패스_2478" data-name="패스 2478" d="M0,50.888c.373,9.027.836,18.055,1.1,27.084.037,1.241,1.969,1.245,1.933,0-.266-9.03-.726-18.057-1.1-27.084-.051-1.238-1.984-1.245-1.933,0" transform="translate(-6304.969 -695.111)" fill="#231815"/>
    <path id="패스_2479" data-name="패스 2479" d="M5.975,50.342A202.919,202.919,0,0,1,7.011,78.065c-.037,1.245,1.894,1.241,1.933,0A202.919,202.919,0,0,0,7.907,50.342c-.132-1.223-2.064-1.238-1.933,0" transform="translate(-6296.391 -695.883)" fill="#231815"/>
    <path id="패스_2480" data-name="패스 2480" d="M9.063,50.619q.691,13.852.451,27.728a.967.967,0,0,0,1.933,0q.241-13.87-.451-27.728c-.063-1.238-2-1.245-1.933,0" transform="translate(-6291.946 -695.497)" fill="#231815"/>
    <path id="패스_2481" data-name="패스 2481" d="M12.1,50.437q.428,13.753.853,27.508c.039,1.238,1.972,1.245,1.933,0q-.428-13.757-.853-27.508c-.039-1.241-1.972-1.245-1.933,0" transform="translate(-6287.579 -695.761)" fill="#231815"/>
    <path id="패스_2482" data-name="패스 2482" d="M15.16,50.165q.585,13.972-.024,27.954c-.054,1.243,1.879,1.241,1.933,0q.607-13.972.024-27.954c-.054-1.238-1.984-1.245-1.933,0" transform="translate(-6283.218 -696.15)" fill="#231815"/>
    <path id="패스_2483" data-name="패스 2483" d="M17.588,50.809A120.262,120.262,0,0,1,18.132,78.7c-.119,1.236,1.813,1.228,1.933,0a122.269,122.269,0,0,0-.614-28.408c-.168-1.226-2.03-.7-1.862.514" transform="translate(-6279.707 -695.631)" fill="#231815"/>
    <path id="패스_2484" data-name="패스 2484" d="M21.672,50.439q-.186,14.539-1.2,29.046c-.088,1.241,1.845,1.233,1.933,0q1.013-14.506,1.2-29.046a.967.967,0,0,0-1.933,0" transform="translate(-6275.553 -695.758)" fill="#231815"/>
    <path id="패스_2485" data-name="패스 2485" d="M23.854,50.53q.139,13.863.271,27.725a.967.967,0,0,0,1.933,0Q25.926,64.4,25.787,50.53a.967.967,0,0,0-1.933,0" transform="translate(-6270.687 -695.63)" fill="#231815"/>
    <path id="패스_2486" data-name="패스 2486" d="M27.308,50.8q.029,13.643.061,27.284a.966.966,0,0,0,1.93,0L29.241,50.8a.967.967,0,0,0-1.933,0" transform="translate(-6265.723 -695.237)" fill="#231815"/>
    <path id="패스_2487" data-name="패스 2487" d="M30.128,50.709l1.06,27.959c.046,1.241,1.979,1.245,1.933,0l-1.06-27.959c-.049-1.238-1.979-1.245-1.933,0" transform="translate(-6261.67 -695.368)" fill="#231815"/>
    <path id="패스_2488" data-name="패스 2488" d="M32.905,51.078a190.2,190.2,0,0,1,1.733,26.794.967.967,0,0,0,1.933,0,193.835,193.835,0,0,0-1.8-27.309c-.166-1.226-2.028-.7-1.862.514" transform="translate(-6257.693 -695.244)" fill="#231815"/>
    <path id="패스_2489" data-name="패스 2489" d="M36.633,51.157a206.66,206.66,0,0,1,1.877,26.6.966.966,0,0,0,1.93,0A209.843,209.843,0,0,0,38.5,50.643c-.166-1.226-2.028-.7-1.862.514" transform="translate(-6252.335 -695.13)" fill="#231815"/>
    <path id="패스_2490" data-name="패스 2490" d="M40.257,51.349A95.922,95.922,0,0,1,40.9,64.334c-.012,2.086-.054,4.17-.08,6.256q-.022,1.568-.027,3.134c0,.344.261,3.273.039,3.436-.987.736-.027,2.41.975,1.672,1.5-1.111.914-3.475.919-5.108,0-2.525.058-5.043.088-7.567a104.712,104.712,0,0,0-.629-14.808c-.158-1.216-2.094-1.233-1.933,0" transform="translate(-6247.126 -694.43)" fill="#231815"/>
    <path id="패스_2491" data-name="패스 2491" d="M98.134,20.147c-.212-1.6-.071-3.207-.283-4.809a.992.992,0,0,0-.965-.968C78.659,14,60.441,13.252,42.213,12.845q-13.409-.3-26.824-.263-4.043.015-8.089.063c-1.648.022-3.673-.224-5.211.507C-.3,14.286-.169,16.979,1.41,18.726c.836.924,2.2-.446,1.367-1.367q-.632-2.877,1.372-2.688A14.127,14.127,0,0,1,6.1,14.593c1.184-.029,2.374-.029,3.558-.039q3.144-.033,6.285-.041,5.9-.018,11.8.034,11.092.1,22.186.424c15.652.431,31.3,1.011,46.955,1.333l-.965-.965c.21,1.6.071,3.2.28,4.809.161,1.216,2.094,1.231,1.933,0" transform="translate(-6304.602 -748.834)" fill="#231815"/>
  </g>
</svg>
