<svg xmlns="http://www.w3.org/2000/svg" xmlns:xlink="http://www.w3.org/1999/xlink" width="102.026" height="125.391" viewBox="0 0 102.026 125.391">
  <defs>
    <clipPath id="clip-path">
      <rect id="사각형_1861" data-name="사각형 1861" width="90.205" height="102.6" fill="none"/>
    </clipPath>
  </defs>
  <g id="그룹_1806" data-name="그룹 1806" transform="translate(5669.055 746.598)">
    <g id="그룹_1073" data-name="그룹 1073" transform="translate(-5664.243 -729.728)" clip-path="url(#clip-path)">
      <path id="패스_2639" data-name="패스 2639" d="M0,0H90.2V102.6H0Z" transform="translate(0 0.002)" fill="#ef8026"/>
      <path id="패스_2492" data-name="패스 2492" d="M122.961,29.516s-1.611-5.03-6.239-1.611-4.628,7.85-3.017,12.076,2.415,6.841,1.409,10.061-2.381,11.672,2.732,11.067,5.116-3.22,5.116-3.22,1.409,3.422,6.037,2.415,6.439-4.428,5.432-8.452-1.472-8.25.271-11.469,6.307-12.88,0-16.5-11.74,5.635-11.74,5.635" transform="translate(-67.744 -14.403)" fill="#f5ca35"/>
      <path id="패스_2493" data-name="패스 2493" d="M118.79,22.77c-.08,21.825,1.531,43.662.4,65.482-.273,5.3-.268,11.07-1.44,16.258-.617,2.727-4,5.581-.436,7.913,2.057,1.343,5.406.621,5.959-2.006a3.462,3.462,0,0,0-4.263-3.97c-1.906.451-1.1,3.388.812,2.937-1.538.363.229-1.557.485-2.25a18.351,18.351,0,0,0,.685-4.09q.673-5.6,1.036-11.238c.512-7.711.641-15.439.6-23.165-.09-15.293-.846-30.577-.79-45.872a1.524,1.524,0,0,0-3.046,0" transform="translate(-63.468 -16.908)" fill="#f5ca35"/>
      <path id="패스_2494" data-name="패스 2494" d="M112.43,51.583q.172-2.31.344-4.623c.054-.719.1-1.438.158-2.157.032-.409.061-.821.093-1.231.015-.207.029-.412.046-.617q.1-.965-.232.675l-1.092,1.092c-.115.088-1.111.173-.4.112.285-.022.57-.041.858-.054.478-.017.955-.015,1.433-.015l3.6,0,7.043.007q-1.47-1.119-2.937-2.237c.058.4.119.809.173,1.214-.076-.563.076.6.088.709q.143,1.217.253,2.44c.076.814.136,1.628.188,2.444a12.5,12.5,0,0,1,.063,2.337c.139-.512.275-1.024.414-1.535a2.055,2.055,0,0,1,1.45-.926c.271-.034.271-.049,0-.044a5.275,5.275,0,0,0-.785-.039c-.524-.029-1.046-.058-1.57-.09q-1.645-.1-3.29-.222t-3.288-.271c-.522-.046-1.043-.093-1.565-.144a5.987,5.987,0,0,1-.782-.076c.578.134.98.188,1.328.855.041.117.085.236.127.353-.071-.285-.09-.3-.054-.054.158.39-.058-.141.017-.3-.054.378-.054.453,0,.227.051-.163.039-.154-.034.027-.11.4.129-.188.171-.28-.219.261-.253.307-.107.146a2.732,2.732,0,0,1,.266-.266c-.28.29-.158.11.1-.044.244-.146.473-.236.076-.083.2-.076.4-.141.609-.2s.417-.1.626-.146c.763-.156-.548,0,.329-.029.5-.015.987-.027,1.484,0s.992.078,1.487.134c.972.115-.592-.1.375.054l.295.041c.331.071.285.039-.139-.093l-1.094-1.094c-.119-.431-.139-.48-.058-.151.034.163.066.324.1.487s.066.324.1.485c-.032-.434-.058-.483-.083-.146l.417-1.538c.573-1.192,2.778-1.041,1.357-1.021-.207,0-.412,0-.617,0-.565,0-1.128-.01-1.694-.024q-1.616-.048-3.227-.185a3.063,3.063,0,0,0-3.046,3.046,3.122,3.122,0,0,0,3.046,3.046,39.368,39.368,0,0,0,6.039.193,3.918,3.918,0,0,0,3.4-1.984,5.438,5.438,0,0,0,.08-3.982,3.834,3.834,0,0,0-2.966-2.917,27.273,27.273,0,0,0-3.478-.429,11.7,11.7,0,0,0-6.276,1.145,6.829,6.829,0,0,0-3.639,5.576,5.482,5.482,0,0,0,.8,3.156,4.662,4.662,0,0,0,3.758,2.067c2.016.222,4.041.375,6.061.524q1.488.11,2.978.2a13.99,13.99,0,0,0,3.568.019,3.8,3.8,0,0,0,3.044-3.724,29.788,29.788,0,0,0-.168-3.161c-.183-2.464-.483-4.916-.848-7.358a3.055,3.055,0,0,0-2.937-2.235l-6.573-.007a60.891,60.891,0,0,0-6.5.083c-1.782.19-3.456.777-4.029,2.691a17,17,0,0,0-.346,3.51q-.249,3.312-.492,6.624a3.062,3.062,0,0,0,3.046,3.046,3.121,3.121,0,0,0,3.046-3.046" transform="translate(-76.94 7.999)" fill="#fff"/>
      <path id="패스_2495" data-name="패스 2495" d="M112.425,50.034l16.093-.317-2.632-4.584c-.924,1.579-5.381,1.233-6.936,1.272-1.723.044-5.518.529-6.673-1.189q-1.722,2.237-3.441,4.475a45.559,45.559,0,0,0,11.384.524q-.406-2.994-.809-5.986c-4.331.809-3.619,5.883-3.358,9.113.19,2.371.387,4.743.57,7.117a10.272,10.272,0,0,1,.158,2.881c-.3,1.165-.726,1.1-1.616,1.83-2.586,2.113-3.02,5.7-.336,8,3,2.576,6.978,1.089,9.217-1.669a3.165,3.165,0,0,0,0-4.309,11.01,11.01,0,0,0-4.782-3.324c-2.43-.98-4.024,1.76-3.746,3.748a104.035,104.035,0,0,1,.926,16.01h6.093l-.5-6.919c-.288-4-5.6-3.826-6.093,0-.431,3.354-1.221,7.548-.253,10.865a4.587,4.587,0,0,0,6.456,3.073c6.2-3.115.434-14.95-1.752-19.088-1.847-3.5-6.941-.424-5.262,3.076a29.126,29.126,0,0,1,1.935,5.162,11.645,11.645,0,0,1,.492,2.708c.015.524-.414,1.638-.324,1.969-.385.458-.141.7.726.717q1.422,1.108.921-.758a12.031,12.031,0,0,0,.156-2.864A53.213,53.213,0,0,1,120.016,75H114.14q.643,4.522,1.289,9.044c.193,1.34.122,3.28.646,4.521q-.267,1.769.687.773-.607.461-1.192.938c-3.407,3.7.519,10.053,2.379,13.6,1.155,2.2,5.111,1.864,5.567-.729.714-4.038,3.266-15.454-4.333-14.491-8.328,1.058-.1,13.124-2.41,17.058-1.431,2.43-2.961,4.928-.431,7.37a5.792,5.792,0,0,0,7.112.363c5.235-3.522.719-11.133-4.879-8.477a2.945,2.945,0,0,0-1.509,2.63c.417,4.565.724,9.137.894,13.716l.039,1.145q-.285,2.453,1.055-.21a33.069,33.069,0,0,1-3.473.529,18.7,18.7,0,0,1-6.658-.987q-.4,2.99-.809,5.983c7.294-.024,15.281-.955,22.276,1.494V123.4a43.459,43.459,0,0,1-16.059.5c-.731-.122-1.46-.263-2.186-.419q-2.588-1.155-1.08,2.844c.475.2,2.681-.5,3.124-.558a57.686,57.686,0,0,1,7.889-.427,55.109,55.109,0,0,1,8.184.675q.833.135,1.667.3,1.839.621.041-2.34c-.6-.439-3.934.236-4.75.263a112.423,112.423,0,0,1-16.624-.724c-3.887-.451-3.856,5.645,0,6.093a112.679,112.679,0,0,0,14.84.768c3.39-.058,9.135.614,11.56-2.408a4.509,4.509,0,0,0-2.279-7.268c-4.034-1.321-9.005-1.443-13.2-1.453-3.9-.01-9.276-.178-12.88,1.521-2.708,1.277-4.194,4.679-1.711,7.051s7.8,2.362,11.016,2.581a50.849,50.849,0,0,0,14.072-1.124c3.149-.673,2.632-4.955,0-5.876-7.536-2.637-16.049-1.738-23.9-1.711-3.492.012-4.06,4.952-.809,5.986a23.948,23.948,0,0,0,9.359,1.131c2.335-.207,5.506-.448,6.875-2.664,1.282-2.074.5-5.4.39-7.682-.175-3.624-.441-7.241-.77-10.855q-.757,1.316-1.511,2.63-2.68-3.031-.909-1.189c.336.765.643.865.926.3.495-.234.963-1.228,1.2-1.726a7.069,7.069,0,0,0,.436-4.112c-.219-1.609-.59-3.2-.9-4.8-.124-.66-1.05-4.86-1.063-4.848l-2.154.892q-.994-1.342-.734.21c-.044.709-.1,1.414-.171,2.12-.151,1.494-.375,2.971-.636,4.45l5.566-.729a43.973,43.973,0,0,1-1.928-4.085c-.227-.565-1.136-2.137-.965-2.8-.166.646,1.5-1.138,1.63-1.392a5.222,5.222,0,0,0,.38-2.912c-.426-5.408-1.545-10.862-2.31-16.234-.429-3-5.3-2.815-5.876,0-.846,4.1-1.723,8.713-1.336,12.917.312,3.407,3.366,5.479,6.6,4.1,7.409-3.156,3.436-13.748.987-18.844q-2.632,1.535-5.262,3.076a32.466,32.466,0,0,1,1.991,4.438c.483,1.377.619,3.751,1.333,4.965q-.011,1.184,1.562.9,1.722,1.221,1.462-.146c.312-.592.027-1.972.061-2.7.085-1.8.263-3.592.495-5.381h-6.093l.5,6.919c.278,3.873,6.03,3.965,6.093,0a114.091,114.091,0,0,0-1.145-17.631q-1.872,1.875-3.746,3.748a5.159,5.159,0,0,1,2.094,1.757V67.189c-.682.838-1.567,2.825.015,2.23a4.592,4.592,0,0,0,1.66-1.557,7.887,7.887,0,0,0,1.455-4.952c0-2.189-.312-4.423-.487-6.6q-.143-1.78-.285-3.558c-.046-.592-.1-1.187-.141-1.779q.424-1.843-.926-.865c3.344-.624,2.62-6.276-.809-5.983a39.2,39.2,0,0,1-9.763-.307c-2.376-.392-5.069,2.052-3.441,4.475,2.72,4.051,7.441,4.324,11.935,4.209,4.255-.11,9.778-.161,12.2-4.289a3.073,3.073,0,0,0-2.63-4.584l-16.093.317c-3.917.078-3.929,6.171,0,6.093" transform="translate(-78.633 15.177)" fill="#f5ca35"/>
      <path id="패스_2496" data-name="패스 2496" d="M113.546,43.628a5.756,5.756,0,0,1-.946-8.111l-1.248-.161c1.382,2.14,2.654,4.938,1.362,7.426l1.248-.161a5.334,5.334,0,0,1-1.86-5.659q-.662.175-1.328.349c1.319,1.2,1.121,3.239.972,4.848h1.589l-.007-4.109c-.522.068-1.041.139-1.562.21a41.939,41.939,0,0,0,1.409,4.655.813.813,0,0,0,.977.553.8.8,0,0,0,.556-.977,41.905,41.905,0,0,1-1.409-4.653.8.8,0,0,0-1.56.212l.007,4.109a.8.8,0,0,0,1.589,0c.19-2.057.219-4.462-1.438-5.971a.8.8,0,0,0-1.328.351,6.879,6.879,0,0,0,2.269,7.207.807.807,0,0,0,1.248-.161c1.574-3.029.361-6.363-1.362-9.03a.8.8,0,0,0-1.248-.161A7.276,7.276,0,0,0,112.744,45a.8.8,0,0,0,1.087-.285.814.814,0,0,0-.285-1.087" transform="translate(-72.041 1.574)" fill="#c6581a"/>
      <path id="패스_2497" data-name="패스 2497" d="M111.771,34.215a6.906,6.906,0,0,0,2.081,11.959c.965.346,1.379-1.187.422-1.533a5.326,5.326,0,0,1-1.379-9.3.8.8,0,0,0,0-1.124.812.812,0,0,0-1.124,0" transform="translate(-72.869 1.329)" fill="#231815"/>
      <path id="패스_2498" data-name="패스 2498" d="M112.484,40.447c-.09-.144-.166-.292-.244-.441s.024.08-.034-.076c-.034-.09-.066-.18-.1-.273-.041-.139-.078-.278-.107-.419,0-.034-.046-.329-.027-.146-.007-.073-.015-.144-.019-.217a4.279,4.279,0,0,1,0-.468c0-.085.01-.168.017-.253.022-.232-.032.154.012-.073a4.248,4.248,0,0,1,.117-.492c.019-.068.041-.136.068-.2.015-.046.032-.09.051-.136-.034.08-.032.078,0-.007h-1.372c.046.1.093.188.134.285-.056-.129.037.1.037.1.066.171.124.346.175.522s.1.353.132.534q.029.135.051.271l.02.117c-.012-.083-.01-.076,0,.022a7.165,7.165,0,0,1,.039,1.1c-.007.183-.022.366-.046.548.02-.141-.012.071-.02.1-.017.1-.037.2-.061.307a.795.795,0,0,0,1.533.422,7.855,7.855,0,0,0-.621-5.125.8.8,0,0,0-1.372,0,5.085,5.085,0,0,0,.261,4.811.795.795,0,0,0,1.372-.8" transform="translate(-71.137 4.289)" fill="#f4ab16"/>
      <path id="패스_2499" data-name="패스 2499" d="M109.944,40.53a1.512,1.512,0,0,0-.57.531,1.72,1.72,0,0,0-.163.353,1.616,1.616,0,0,0-.068.4l.029.21a.6.6,0,0,0,.141.271.406.406,0,0,0,.144.144.6.6,0,0,0,.271.141.487.487,0,0,0,.085.022c.1.015.193.029.288.037a1.672,1.672,0,0,0,.383-.039,1.567,1.567,0,0,0,.349-.127,1.337,1.337,0,0,0,.3-.21.719.719,0,0,0,.061-.061,1.891,1.891,0,0,0,.168-.222,1.384,1.384,0,0,0,.112-.253.463.463,0,0,0,.024-.083,1.671,1.671,0,0,0,.034-.273,1.6,1.6,0,0,0-.032-.285,1.319,1.319,0,0,0-.122-.331,1.235,1.235,0,0,0-.2-.285.384.384,0,0,0-.059-.051,1.314,1.314,0,0,0-.219-.163,1.25,1.25,0,0,0-.526-.144,1.537,1.537,0,0,0-.349.034.7.7,0,0,0-.068.017,1.965,1.965,0,0,0-.246.1,1.288,1.288,0,0,0-.273.2,1.459,1.459,0,0,0-.212.261.591.591,0,0,0-.073.127,1.478,1.478,0,0,0-.163.66,2,2,0,0,0,.032.271l.015.073a1.737,1.737,0,0,0,.1.241.444.444,0,0,0,.037.066,1.653,1.653,0,0,0,.161.21,1.162,1.162,0,0,0,.132.11,1.086,1.086,0,0,0,.136.1,1.757,1.757,0,0,0,.251.1,1.068,1.068,0,0,0,.339.051.315.315,0,0,0,.068,0,1.774,1.774,0,0,0,.278-.039,1.5,1.5,0,0,0,.319-.124.522.522,0,0,0,.127-.078,1.512,1.512,0,0,0,.261-.222,1.27,1.27,0,0,0,.193-.275,1.111,1.111,0,0,0,.141-.517,1.056,1.056,0,0,0-.037-.349,1.139,1.139,0,0,0-.058-.151,1.2,1.2,0,0,0-.068-.151,1.712,1.712,0,0,0-.154-.2l-.044-.046a1.227,1.227,0,0,0-.256-.185,1.451,1.451,0,0,0-.3-.119,2.323,2.323,0,0,0-.266-.037l-.068,0a1.863,1.863,0,0,0-.329.037.689.689,0,0,0-.122.032,1.431,1.431,0,0,0-.292.134,2.122,2.122,0,0,0-.2.156l-.044.046a2.039,2.039,0,0,0-.154.2l-.029.056a1.725,1.725,0,0,0-.1.241,2.317,2.317,0,0,0-.037.266.59.59,0,0,0,.068.3.729.729,0,0,0,.422.422.59.59,0,0,0,.3.068.812.812,0,0,0,.563-.234l.124-.161a.786.786,0,0,0,.107-.4l0-.019-.029.212a.489.489,0,0,1,.024-.085c-.027.063-.054.127-.08.188a.473.473,0,0,1,.049-.08l-.124.161a.4.4,0,0,1,.071-.073l-.161.124a.527.527,0,0,1,.115-.063c-.063.024-.127.051-.19.078a.688.688,0,0,1,.158-.041l-.212.029a.61.61,0,0,1,.163,0l-.21-.029a.73.73,0,0,1,.139.037l-.19-.08a.56.56,0,0,1,.1.061l-.161-.124a.578.578,0,0,1,.066.068l-.124-.161a.41.41,0,0,1,.049.083l-.08-.188a.325.325,0,0,1,.027.1l-.029-.21a.343.343,0,0,1,0,.1l.029-.21a.394.394,0,0,1-.029.1l.08-.19a.548.548,0,0,1-.068.115l.124-.161a.509.509,0,0,1-.1.1l.161-.124a.894.894,0,0,1-.146.088l.19-.08a.649.649,0,0,1-.163.044c.071-.01.141-.019.212-.027a.477.477,0,0,1-.132,0l.21.029a.439.439,0,0,1-.107-.029l.19.08a.4.4,0,0,1-.088-.054l.161.124a.43.43,0,0,1-.073-.076l.124.161a.494.494,0,0,1-.051-.085l.08.19a.554.554,0,0,1-.034-.124l.029.212a.549.549,0,0,1,0-.141l-.029.21a.662.662,0,0,1,.046-.168l-.08.19a.687.687,0,0,1,.09-.154l-.124.161a.637.637,0,0,1,.107-.107l-.161.124a.538.538,0,0,1,.115-.066l-.19.08a.387.387,0,0,1,.107-.029l-.212.027a.661.661,0,0,1,.139,0l-.212-.029a.549.549,0,0,1,.085.022l-.19-.078a.41.41,0,0,1,.083.049l-.161-.124a.394.394,0,0,1,.078.078l-.124-.161a.59.59,0,0,1,.063.107l-.08-.19a.642.642,0,0,1,.037.134l-.029-.212a.531.531,0,0,1,0,.124l.029-.212a.671.671,0,0,1-.027.1c.024-.063.051-.127.078-.19a.452.452,0,0,1-.061.1l.124-.161a.58.58,0,0,1-.088.085l.161-.124a.632.632,0,0,1-.141.083l.19-.08a.676.676,0,0,1-.171.044l.212-.027a.848.848,0,0,1-.193,0l.212.027a.573.573,0,0,1-.112-.024l.585.768,0-.056-.029.21a.726.726,0,0,1,.051-.175l-.08.19a.793.793,0,0,1,.093-.158l-.124.161a.75.75,0,0,1,.139-.139l-.161.124a.978.978,0,0,1,.119-.073.585.585,0,0,0,.224-.2.6.6,0,0,0,.141-.271.881.881,0,0,0-.08-.612.8.8,0,0,0-.475-.366l-.21-.029a.829.829,0,0,0-.4.11" transform="translate(-73.128 10.134)" fill="#231815"/>
      <path id="패스_2500" data-name="패스 2500" d="M112.295,40.925a1.547,1.547,0,0,0-.037.28,1.32,1.32,0,0,0,.032.283,1.125,1.125,0,0,0,.122.327l.039.058a2.063,2.063,0,0,0,.168.217.555.555,0,0,0,.056.051,2.323,2.323,0,0,0,.217.166,1.719,1.719,0,0,0,.327.151,1.655,1.655,0,0,0,.358.066,1.251,1.251,0,0,0,.682-.146,1,1,0,0,0,.278-.2l.024-.029c.027-.029.051-.063.073-.093a.478.478,0,0,0,.107-.183l.041-.1a.609.609,0,0,0,.012-.317c0-.041-.01-.085-.017-.127l-.012-.063a1.858,1.858,0,0,0-.149-.392,1.569,1.569,0,0,0-.183-.273,1.319,1.319,0,0,0-.222-.244,1.542,1.542,0,0,0-.517-.314.911.911,0,0,0-.444,0l-.039.01-.037.012a2.151,2.151,0,0,0-.217.093.938.938,0,0,0-.278.222,1.351,1.351,0,0,0-.171.232,1.685,1.685,0,0,0-.115.263,1.115,1.115,0,0,0-.056.38,1.628,1.628,0,0,0,.034.29.347.347,0,0,0,.027.085,1.08,1.08,0,0,0,.307.483.571.571,0,0,0,.256.163.592.592,0,0,0,.3.071.606.606,0,0,0,.307-.071.6.6,0,0,0,.256-.163.8.8,0,0,0,.232-.563c-.01-.068-.017-.139-.027-.21a.825.825,0,0,0-.2-.351.428.428,0,0,1-.059-.056l.124.161a.468.468,0,0,1-.044-.076l.08.19a.4.4,0,0,1-.029-.1c.01.071.02.141.027.212a.476.476,0,0,1,0-.132l-.029.212a.579.579,0,0,1,.037-.127l-.08.19a.407.407,0,0,1,.061-.1l-.124.161a.382.382,0,0,1,.076-.078l-.161.124a.468.468,0,0,1,.076-.044l-.19.08a.273.273,0,0,1,.088-.022c-.071.007-.141.017-.212.027h.01l-.4-.11a1.111,1.111,0,0,1,.144.093l-.161-.124a.985.985,0,0,1,.183.18l-.124-.161a1.11,1.11,0,0,1,.136.234l-.08-.19a1.051,1.051,0,0,1,.068.246l.08-.612-.007.007.124-.161a.371.371,0,0,1-.076.076l.161-.124a.319.319,0,0,1-.088.051c.063-.027.127-.054.19-.078a.588.588,0,0,1-.117.032l.212-.029a.647.647,0,0,1-.154,0c.071.007.141.017.212.027a.679.679,0,0,1-.171-.046l.19.08a.687.687,0,0,1-.154-.09l.161.124a.653.653,0,0,1-.11-.107l.124.161a.651.651,0,0,1-.061-.1l.08.19a.429.429,0,0,1-.029-.11l.029.212a.376.376,0,0,1,0-.1c-.01.071-.017.141-.027.212l0-.032a.635.635,0,0,0,.015-.317.6.6,0,0,0-.1-.295.907.907,0,0,0-.475-.366.8.8,0,0,0-.612.08.786.786,0,0,0-.366.475" transform="translate(-68.423 9.992)" fill="#231815"/>
      <path id="패스_2501" data-name="패스 2501" d="M110.244,42.72a2.827,2.827,0,0,0,2.4,1.682,2.269,2.269,0,0,0,2.276-1.74.872.872,0,0,0-.078-.612.8.8,0,0,0-1.455.19,1.289,1.289,0,0,1-.058.232c-.029.09.088-.168.019-.051-.022.039-.041.076-.066.112-.068.115.1-.11.034-.039-.027.027-.049.056-.073.08s-.063.061-.1.09c-.1.093.117-.078.037-.029s-.137.085-.207.124c-.124.063.136-.049.044-.017-.037.01-.071.024-.107.034a.907.907,0,0,1-.129.034c-.032.007-.166.037-.027.007s.012,0-.024,0a1.164,1.164,0,0,1-.132,0c-.139,0,.146.032.046.01-.037-.007-.073-.015-.112-.024a1.215,1.215,0,0,1-.134-.039c-.029-.01-.163-.061-.037-.01s0,0-.032-.017-.085-.046-.124-.071-.066-.041-.1-.063c-.1-.071-.01-.022.029.024-.051-.063-.132-.115-.188-.175-.029-.029-.056-.058-.083-.088s-.032-.037-.044-.054c-.039-.046-.024-.024.049.066-.01-.058-.1-.146-.132-.2-.046-.083-.09-.168-.129-.253a.8.8,0,0,0-1.089-.285.82.82,0,0,0-.283,1.087" transform="translate(-71.454 12.163)" fill="#231815"/>
      <path id="패스_2502" data-name="패스 2502" d="M106.937,45.412q9.962.161,19.921-.214c1.019-.039,1.024-1.628,0-1.589q-9.958.373-19.921.214a.8.8,0,0,0,0,1.589" transform="translate(-77.174 15.154)" fill="#231815"/>
      <path id="패스_2503" data-name="패스 2503" d="M110.752,48.592a15.9,15.9,0,0,0,4.038-.188.8.8,0,0,0,.553-.98.816.816,0,0,0-.977-.553c-.156.027-.314.051-.473.073-.059.007-.049.007.027,0l-.146.017-.219.024q-.461.048-.921.066A15.148,15.148,0,0,1,110.752,47a.8.8,0,0,0-.795.795.814.814,0,0,0,.795.795" transform="translate(-71.73 19.822)" fill="#231815"/>
      <path id="패스_2504" data-name="패스 2504" d="M111.112,52.362a22.254,22.254,0,0,0-1.633,2.186q-.384.589-.724,1.2a5.266,5.266,0,0,0-.6,1.262c-.241,1.038.79,1.74,1.445,2.366q1.086,1.038,2.213,2.03a.812.812,0,0,0,1.124,0,.8.8,0,0,0,0-1.124c-.614-.543-1.223-1.1-1.821-1.66-.3-.28-.6-.565-.892-.851a4.885,4.885,0,0,0-.439-.431,1.39,1.39,0,0,1-.1-.1c.09.09-.032.171.085-.007.2-.31.351-.668.536-.987s.383-.643.59-.958a18.665,18.665,0,0,1,1.345-1.806.814.814,0,0,0,0-1.124.8.8,0,0,0-1.124,0" transform="translate(-74.374 27.406)" fill="#231815"/>
      <path id="패스_2505" data-name="패스 2505" d="M116.63,53.058a11.824,11.824,0,0,1-3.278,2.549l.963.124-3.831-3.341a.812.812,0,0,0-1.124,0,.8.8,0,0,0,0,1.124l3.831,3.341a.827.827,0,0,0,.963.124,13.1,13.1,0,0,0,3.6-2.8c.685-.758-.436-1.884-1.124-1.124" transform="translate(-72.917 27.452)" fill="#231815"/>
      <path id="패스_2506" data-name="패스 2506" d="M111,59.172a22.917,22.917,0,0,1,3.12-3.709H113a44.439,44.439,0,0,0,3.312,3.222.814.814,0,0,0,1.124,0,.8.8,0,0,0,0-1.124,44.9,44.9,0,0,1-3.312-3.222.8.8,0,0,0-1.124,0,24.8,24.8,0,0,0-3.368,4.031.795.795,0,1,0,1.372.8" transform="translate(-72.356 30.248)" fill="#231815"/>
      <path id="패스_2507" data-name="패스 2507" d="M109.788,63.712a47,47,0,0,1,6.444-.134.8.8,0,0,0,.795-.795.811.811,0,0,0-.795-.795,47,47,0,0,0-6.444.134.816.816,0,0,0-.795.795.8.8,0,0,0,.795.795" transform="translate(-73.115 41.494)" fill="#231815"/>
      <path id="패스_2508" data-name="패스 2508" d="M109.788,64.665a69.189,69.189,0,0,1,7.251-.1c1.021.041,1.019-1.548,0-1.589a68.524,68.524,0,0,0-7.251.1.811.811,0,0,0-.795.795.8.8,0,0,0,.795.795" transform="translate(-73.115 42.919)" fill="#231815"/>
      <path id="패스_2509" data-name="패스 2509" d="M110.533,69.567h5.635a.795.795,0,1,0,0-1.589h-5.635a.795.795,0,1,0,0,1.589" transform="translate(-72.045 50.179)" fill="#231815"/>
      <path id="패스_2510" data-name="패스 2510" d="M110.45,70.979a35.552,35.552,0,0,0,7.251-.314.8.8,0,0,0,.553-.977.816.816,0,0,0-.977-.556,33.651,33.651,0,0,1-6.827.258.8.8,0,0,0-.795.795.811.811,0,0,0,.795.795" transform="translate(-72.164 51.818)" fill="#231815"/>
      <path id="패스_2511" data-name="패스 2511" d="M110.659,69.487q-1.024,1.806-1.92,3.68a.813.813,0,0,0,.124.963q2.585,2.212,5.177,4.419a.807.807,0,0,0,1.124,0,9.491,9.491,0,0,0,1.628-2.293c.458-.919.78-1.9-.027-2.739a5.025,5.025,0,0,0-1.1-.77c-.451-.271-.9-.543-1.358-.814q-1.393-.834-2.786-1.665a.8.8,0,0,0-.8,1.372c1.509.9,3.032,1.789,4.533,2.71.119.073.409.214.446.366.056.234-.239.665-.341.863a8.015,8.015,0,0,1-1.316,1.847h1.124q-2.592-2.2-5.177-4.419c.041.322.083.643.124.963q.9-1.872,1.921-3.68a.8.8,0,0,0-1.372-.8" transform="translate(-73.624 51.791)" fill="#231815"/>
      <path id="패스_2512" data-name="패스 2512" d="M114.165,69.874a17.818,17.818,0,0,0-2.881,4.077.805.805,0,0,0,.285,1.087q1.671.823,3.339,1.648A.816.816,0,0,0,116,76.4a.8.8,0,0,0-.285-1.087l-3.341-1.648.285,1.087A16.2,16.2,0,0,1,115.289,71a.794.794,0,1,0-1.124-1.124" transform="translate(-69.962 52.574)" fill="#231815"/>
      <path id="패스_2513" data-name="패스 2513" d="M112.35,54.2a23.679,23.679,0,0,1,3.536,2.851V55.927q-1.462,1.484-2.927,2.966c-.719.729.4,1.852,1.124,1.124q1.462-1.484,2.927-2.966a.8.8,0,0,0,0-1.124,25.658,25.658,0,0,0-3.858-3.1.795.795,0,1,0-.8,1.372" transform="translate(-68.854 28.245)" fill="#231815"/>
      <path id="패스_2514" data-name="패스 2514" d="M110.154,53.58a29.91,29.91,0,0,0,5.437.48.795.795,0,0,0,0-1.589,27.707,27.707,0,0,1-5.016-.424.813.813,0,0,0-.977.556.8.8,0,0,0,.556.977" transform="translate(-72.273 27.261)" fill="#231815"/>
      <path id="패스_2515" data-name="패스 2515" d="M110.531,57.394a32.337,32.337,0,0,0,5.43-.222.819.819,0,0,0,.795-.795.8.8,0,0,0-.795-.795,32.337,32.337,0,0,1-5.43.222.795.795,0,0,0,0,1.589" transform="translate(-72.043 32.359)" fill="#231815"/>
      <path id="패스_2516" data-name="패스 2516" d="M111.43,79.351l2.113-.154a13.558,13.558,0,0,0,1.913-.18,2.246,2.246,0,0,0,1.406-1.075c.39-.6.748-1.223,1.124-1.835s.736-1.194,1.1-1.794a1.5,1.5,0,0,0-.046-1.884c-.441-.524-.98-.982-1.467-1.465q-.764-.757-1.533-1.513a.8.8,0,0,0-1.124,1.124q1.239,1.221,2.476,2.447c.034.032.478.461.47.47,0-.193-.019-.232-.068-.115l-.124.2-.219.358q-.464.757-.924,1.509-.442.72-.88,1.435c-.224.366-.336.573-.777.626-1.136.139-2.3.168-3.439.251a.814.814,0,0,0-.795.795.8.8,0,0,0,.795.795" transform="translate(-70.756 51.962)" fill="#231815"/>
      <path id="패스_2517" data-name="패스 2517" d="M110.105,55.906a33.342,33.342,0,0,0-1.613,8.14c-.18,2.542-.314,5.471.812,7.826.441.924,1.811.117,1.372-.8a8.91,8.91,0,0,1-.651-3.551,31.064,31.064,0,0,1,1.613-11.191c.322-.972-1.211-1.389-1.533-.422" transform="translate(-74.008 32.039)" fill="#231815"/>
      <path id="패스_2518" data-name="패스 2518" d="M108.921,64.07a19.273,19.273,0,0,0,2.1,11.045c.473.909,1.843.1,1.37-.8A17.837,17.837,0,0,1,110.51,64.07a.8.8,0,0,0-.8-.8.813.813,0,0,0-.792.8" transform="translate(-73.387 43.417)" fill="#231815"/>
      <path id="패스_2519" data-name="패스 2519" d="M111.07,73.215l.022,5.328a1.691,1.691,0,0,1-.122.96,4.6,4.6,0,0,1-.682.641,2,2,0,0,0-.678,2.123.8.8,0,0,0,1.533,0,2.929,2.929,0,0,1,3.726-1.677.82.82,0,0,0,1.087-.285.8.8,0,0,0-.285-1.087,4.533,4.533,0,0,0-6.061,2.625h1.533c-.178-.441.748-.968,1-1.27a3.147,3.147,0,0,0,.539-2.206q-.007-2.577-.019-5.152a.8.8,0,0,0-1.589,0" transform="translate(-72.377 56.601)" fill="#231815"/>
      <path id="패스_2520" data-name="패스 2520" d="M117.547,74.185c-3.6.234-7.68,1.194-10.621,3.407-1.053.792-2.059,2.106-1.448,3.473.621,1.389,2.308,1.489,3.622,1.652a77.737,77.737,0,0,0,27.131-1.472c1-.229.575-1.762-.422-1.533a76.6,76.6,0,0,1-20.458,1.933q-2.42-.1-4.835-.353a8.382,8.382,0,0,1-2.635-.349c-.307-.02-.485-.217-.539-.595-.417-.285-.468-.556-.154-.807a2.631,2.631,0,0,1,1.055-.933,19.989,19.989,0,0,1,9.3-2.834c1.016-.066,1.024-1.655,0-1.589" transform="translate(-78.433 59.097)" fill="#231815"/>
      <path id="패스_2521" data-name="패스 2521" d="M108.039,80.343q11.271.34,22.541-.183c1.019-.046,1.024-1.638,0-1.591q-11.263.526-22.541.185c-1.024-.032-1.021,1.557,0,1.589" transform="translate(-75.588 65.398)" fill="#231815"/>
      <path id="패스_2522" data-name="패스 2522" d="M113.2,58.579a10.458,10.458,0,0,0,6.656-.975c.968-.434,1.9-.946,2.825-1.457a19.9,19.9,0,0,0,2.8-1.606,2.245,2.245,0,0,0,.612-2.893c-.146-.256-1.163-1.192-1.094-1.37s.351-.256.495-.3c.224-.073.646.044.768-.015-.068.034.056-.327-.034-.193a3,3,0,0,1-.8.855q.768,1.312,1.538,2.63c.341-.246.636-.539.963-.795l-.67.392.027,0h-.812c-.6-.18-.151-.046.012.029a7.923,7.923,0,0,0,.824.327c.592.207.051.112.178.063.324-.253.4-.465.239-.631-.046.056-.117.063-.212.024-.154.01-.307.015-.458.015-.224-.012-.207,0,.049.022.066.027.38.166.146.054a3.979,3.979,0,0,0-1.65-.331c-1.628-.063-1.908,2.023-.768,2.837a3.4,3.4,0,0,1,.972.921c-.01-.017.039.124.02.124a2.04,2.04,0,0,0,.373-.175c.1.012.11,0,.039-.02a.491.491,0,0,1-.234-.19,2.509,2.509,0,0,1-.417-.578,3.394,3.394,0,0,1-.441-1.5c-.115-1.947-3.161-1.962-3.046,0,.139,2.354,2.142,6.478,5.172,5.082a2.917,2.917,0,0,0,1.55-3.151,5.009,5.009,0,0,0-2.449-3.142q-.384,1.418-.77,2.839c.154,0,.307.01.461.024a.5.5,0,0,1-.346-.11c.019,0,.77.312.514.232a3.878,3.878,0,0,0,1.489.078c1.562-.139,2.927-1.072,2.769-2.805-.144-1.562-1.506-2.242-2.6-2.7a1.948,1.948,0,0,0-1.445-.271c-.461.129-.665.453-1.019.709a1.567,1.567,0,0,0-.546,2.084,1.535,1.535,0,0,0,2.084.546,4.86,4.86,0,0,0,2.24-2.912,2.853,2.853,0,0,0-1.591-3.1c-2.259-1.092-5.5.283-5.671,2.949a2.914,2.914,0,0,0,.451,1.767,4.008,4.008,0,0,0,1.041,1.175q.121.11.029.051c.417-.936.412-1.248-.022-.938a4.077,4.077,0,0,0-.848.468l-1.694.936c-2.052,1.131-4.46,2.537-6.892,1.991-1.908-.431-2.725,2.505-.809,2.937" transform="translate(-68.633 19.839)" fill="#f5ca35"/>
      <path id="패스_2523" data-name="패스 2523" d="M119.384,46.888a2.187,2.187,0,0,0-2.727,2.549A3.217,3.217,0,0,0,120.2,51.8c-.071-.517-.141-1.041-.212-1.557a2.6,2.6,0,0,0-1.923,3.31c.551,1.64,2.186,1.933,3.714,1.855-.071-.524-.141-1.041-.212-1.565-1.572.278-3.28.787-3.9,2.432-.529,1.406.509,3.3,2.157,3.078a.825.825,0,0,0,.795-.795.8.8,0,0,0-.795-.8c-.863.115-.816-.89-.409-1.372a4.145,4.145,0,0,1,2.574-1.014c.882-.151.68-1.606-.21-1.56-.7.037-1.767.158-2.142-.6a1.008,1.008,0,0,1,.775-1.438.8.8,0,0,0-.212-1.56,1.859,1.859,0,0,1-1.9-.809c-.229-.485.022-1.2.66-.987.972.324,1.389-1.209.422-1.531" transform="translate(-62.151 19.713)" fill="#231815"/>
      <path id="패스_2524" data-name="패스 2524" d="M118.534,30.542c2.072-3.895,6.792-7.838,11.218-4.757,4.9,3.412-.685,9.588-2.052,13.458a12.911,12.911,0,0,0-.7,6.322c.4,2.527,1.645,4.882,1.879,7.438a6.013,6.013,0,0,1-3.89,6.3,7.447,7.447,0,0,1-7.355-1.626c-.773-.663-1.9.458-1.124,1.124,3.112,2.659,7.645,3.468,11.062.853,4.168-3.2,2.764-7.85,1.518-12.137a12.493,12.493,0,0,1,.456-8.652c1-2.444,2.671-4.6,3.439-7.138a6.465,6.465,0,0,0-4.923-8.389c-4.774-1.133-8.806,2.464-10.9,6.4-.48.9.892,1.706,1.372.8" transform="translate(-62.691 -14.281)" fill="#231815"/>
      <path id="패스_2525" data-name="패스 2525" d="M118.541,39.107a161.381,161.381,0,0,0-.736,19.324.8.8,0,0,0,1.589,0,162.4,162.4,0,0,1,.736-19.324c.1-1.016-1.489-1.011-1.589,0" transform="translate(-60.507 7.594)" fill="#231815"/>
      <path id="패스_2526" data-name="패스 2526" d="M118.345,52.423q-.629,5.732-1.255,11.464a.8.8,0,0,0,.792.795.815.815,0,0,0,.8-.795q.625-5.732,1.255-11.464a.795.795,0,1,0-1.589,0" transform="translate(-61.483 26.681)" fill="#231815"/>
      <path id="패스_2527" data-name="패스 2527" d="M116.85,57.352q-.4.523-.758,1.075a4.446,4.446,0,0,0-.614,1.121c-.261.9.427,1.56,1.065,2.072a8.14,8.14,0,0,0,4.25,1.743,3.945,3.945,0,0,0,2.315-.256,3.589,3.589,0,0,0,1.238-2.028c.524-1.448.59-3.273-.787-4.28a3.722,3.722,0,0,0-2.622-.424,20.782,20.782,0,0,0-3.093.536.8.8,0,0,0-.351,1.328,12.036,12.036,0,0,0,1.687,1.4,2.329,2.329,0,0,0,1.094.514,1.28,1.28,0,0,0,1.06-.466c.268-.292.512-.612.765-.916a5.033,5.033,0,0,0,.756-.98.877.877,0,0,0-1.54-.841.775.775,0,0,0,0,.8l.024.039c.543.863,1.921.066,1.372-.8l-.024-.039v.8l.034-.044-.475.363.058-.022-.612-.078.051.024-.366-.473.017.083v-.422c.051-.136-.044.012-.08.051-.068.073-.129.156-.195.234l-.436.526c-.132.156-.261.312-.39.465-.022.029-.146.139-.151.173-.08.073-.039.063.124-.022.2-.027.214-.068.049-.132a8.151,8.151,0,0,0-.812-.568,11.036,11.036,0,0,1-.887-.8l-.351,1.328a18.811,18.811,0,0,1,2.011-.4,7.145,7.145,0,0,1,1.877-.122c.98.127,1.075,1.238.885,2.016a6.419,6.419,0,0,1-.609,1.635c-.21.366-.846.251-1.206.234a6.4,6.4,0,0,1-3.066-.975,5.568,5.568,0,0,1-.678-.49c-.124-.1-.246-.217-.361-.331s-.088-.146-.11-.039a1.641,1.641,0,0,1,.222-.37c.09-.146.18-.29.275-.431.227-.346.466-.682.717-1.014a.8.8,0,0,0-.285-1.087.814.814,0,0,0-1.087.285" transform="translate(-63.878 33.428)" fill="#231815"/>
      <path id="패스_2528" data-name="패스 2528" d="M118.715,57.6a7.749,7.749,0,0,0-1.041.853,7.433,7.433,0,0,0-.865,1.028.794.794,0,0,0,.285,1.087.8.8,0,0,0,.612.08l.19-.08a.819.819,0,0,0,.285-.285c.049-.068.1-.134.149-.2l-.124.161a6.685,6.685,0,0,1,1.18-1.182l-.161.124c.1-.073.193-.146.292-.214a.847.847,0,0,0,.366-.475.8.8,0,0,0-.556-.977.789.789,0,0,0-.612.08" transform="translate(-62.037 35.115)" fill="#231815"/>
      <path id="패스_2529" data-name="패스 2529" d="M117.759,59.122a10.494,10.494,0,0,1,1.26.829l-.161-.124a10.545,10.545,0,0,1,.931.814.794.794,0,1,0,1.124-1.124,11.028,11.028,0,0,0-2.352-1.767.795.795,0,0,0-.8,1.372" transform="translate(-61.07 35.333)" fill="#231815"/>
      <path id="패스_2530" data-name="패스 2530" d="M117.7,22.122q-.132,3.319-.266,6.639a.795.795,0,1,0,1.589,0l.266-6.639a.795.795,0,1,0-1.589,0" transform="translate(-60.985 -16.867)" fill="#231815"/>
      <path id="패스_2531" data-name="패스 2531" d="M118.744,28.155a5.479,5.479,0,0,0-4.19,6.561.8.8,0,0,0,1.533,0,1.845,1.845,0,0,1,1.618-1.433A1.826,1.826,0,0,1,119.49,34.5c.278.809,1.594.729,1.562-.212-.027-.8.18-2.023,1.08-2.289,1.055-.307,2.02,1.011,2.569,1.713a.8.8,0,0,0,1.328-.351,6.057,6.057,0,0,0-3.812-6.634.8.8,0,0,0-.98.556.815.815,0,0,0,.556.977,4.426,4.426,0,0,1,2.7,4.679l1.328-.351c-.98-1.258-2.488-2.691-4.233-2.084a3.724,3.724,0,0,0-2.128,3.782l1.56-.212a3.348,3.348,0,0,0-6.468.219h1.533a3.882,3.882,0,0,1,3.078-4.6.8.8,0,0,0,.556-.977.812.812,0,0,0-.977-.556" transform="translate(-65.331 -9.165)" fill="#231815"/>
      <path id="패스_2532" data-name="패스 2532" d="M117.9,38.408c-1.557-.37-1.467-2.393-1.382-3.624l-1.358.563c.9.87,2.03,1.857,3.38,1.726a2.348,2.348,0,0,0,2.267-2.279c-.522.071-1.041.141-1.562.21a3.1,3.1,0,0,0,2.6,2.306,4.351,4.351,0,0,0,3.617-1.382l-1.328-.349a3.949,3.949,0,0,1-.953,3.2c-.68.76.441,1.889,1.124,1.124a5.667,5.667,0,0,0,1.362-4.75.8.8,0,0,0-1.328-.351,2.812,2.812,0,0,1-2.2.95,1.54,1.54,0,0,1-1.365-1.172.8.8,0,0,0-1.56.212c.024.5-.592.76-1.033.7a3.872,3.872,0,0,1-1.9-1.267.8.8,0,0,0-1.355.561,6.664,6.664,0,0,0,.407,3.327,3.263,3.263,0,0,0,2.142,1.83c.994.236,1.418-1.3.422-1.533" transform="translate(-64.645 1.338)" fill="#231815"/>
      <path id="패스_2533" data-name="패스 2533" d="M105.02,67.716a87.24,87.24,0,0,1,7.436-8.7,18.642,18.642,0,0,1,8.372-5.354c1.9-.487,1.094-3.427-.809-2.937a21.42,21.42,0,0,0-9.522,5.942,90.562,90.562,0,0,0-8.106,9.515,1.532,1.532,0,0,0,.546,2.084,1.562,1.562,0,0,0,2.084-.546" transform="translate(-82.929 25.299)" fill="#f5ca35"/>
      <path id="패스_2534" data-name="패스 2534" d="M105.565,57a25.615,25.615,0,0,0-3.921,1.526c-1.362.685-2.423,2.308-1.594,3.812.751,1.37,2.432,1.465,3.748.938a5.231,5.231,0,0,0,2.81-2.532q-1.418-.388-2.839-.77c.017.509.037,1.019.054,1.526a4.955,4.955,0,0,0,.239,1.765,2.319,2.319,0,0,0,2.812,1.37,2.853,2.853,0,0,0,1.981-2.011,4.448,4.448,0,0,0-.943-3.436l-2.084,2.084c.229.136-.022-.051.1.054.088.08.173.166.253.253.146.161.278.334.412.5a5.417,5.417,0,0,0,1.092,1.085A2.753,2.753,0,0,0,111,63.153a2.33,2.33,0,0,0,.173-3.5,6.581,6.581,0,0,0-1.309-.955q-.724-.461-1.445-.921a1.538,1.538,0,0,0-2.086.546,1.557,1.557,0,0,0,.548,2.084c.626.4,1.258.792,1.882,1.2.073.046.144.1.214.144-.132-.1-.132-.1,0,.012.029.029.058.061.088.093a.608.608,0,0,1-.2-.524.8.8,0,0,1,.217-.522q.263-.183.051-.051c.183-.068.217-.085.11-.054s-.071.022.134-.017c.232.049.251.049.061,0l.122.059a1.628,1.628,0,0,1-.227-.134c.249.146-.044-.054-.1-.107-.11-.112-.212-.232-.31-.353a5.981,5.981,0,0,0-1.552-1.511c-1.265-.756-2.949.792-2.086,2.084.175.261.341.526.492.8s-.037-.1.083.2c.012.049.024.1.039.146-.01-.134-.012-.146,0-.034s0,.1.029-.029c-.037.124-.032.127.017,0s.054-.122-.007,0l.119-.149c.029.044-.426.314.007.022-.249.168.295-.054.01.007s.351-.012.041-.012a.858.858,0,0,1,.524.163,1.236,1.236,0,0,1,.256.3c.017.183.02.183,0,0l0-.136c-.029-.678-.046-1.358-.071-2.035a1.523,1.523,0,0,0-2.837-.768c-.076.156-.161.3-.249.448-.076.127-.08.112.01,0-.054.066-.11.129-.168.193a3.681,3.681,0,0,1-.378.351c.112-.09.119-.085,0-.012-.076.044-.146.09-.222.132s-.154.078-.229.117c.122-.063.156-.054.007-.007-.166.049-.329.088-.5.129.119-.029.224-.017.039-.017-.2,0-.054-.027.044.017a.748.748,0,0,1,.465.529c.01.049-.019.346.012.2.037-.161-.076.122-.078.141-.039.161.1-.115.007-.019s.1-.066.129-.085a8.1,8.1,0,0,1,1.106-.531c.253-.107-.156.063.1-.041.1-.041.21-.085.314-.124.207-.083.417-.163.629-.239q.673-.245,1.355-.456A1.523,1.523,0,1,0,105.565,57" transform="translate(-86.389 34.319)" fill="#f5ca35"/>
    </g>
    <path id="패스_2535" data-name="패스 2535" d="M94.823,20.768c30.067.244,60.132.582,90.2.826a.967.967,0,0,0,0-1.933c-30.067-.241-60.132-.582-90.2-.826a.967.967,0,0,0,0,1.933" transform="translate(-5759.063 -750.177)" fill="#231815"/>
    <path id="패스_2536" data-name="패스 2536" d="M131.2,20.412q-.738,50.534.483,101.062a.967.967,0,0,0,1.933,0q-1.225-50.523-.483-101.062a.967.967,0,0,0-1.933,0" transform="translate(-5705.844 -749.248)" fill="#231815"/>
    <path id="패스_2537" data-name="패스 2537" d="M94.711,62.795c30.616.863,61.188,1.8,91.816.846,1.238-.037,1.245-1.969,0-1.93-30.628.953-61.2.015-91.816-.848a.967.967,0,0,0,0,1.933" transform="translate(-5759.224 -689.777)" fill="#231815"/>
    <path id="패스_2538" data-name="패스 2538" d="M96.533,60.8a5.919,5.919,0,0,0-3.3.258,1,1,0,0,0-.675,1.189q.508,2.405,1.014,4.809a.976.976,0,0,0,.931.709c20.463.417,40.925.916,61.392,1.024,10.629.056,21.262.049,31.89-.139,2.033-.037,6.371-.283,6.208-3.278-.122-2.232-4.355-3.692-6.115-3.083-1.167.4-.668,2.271.512,1.864.5-.175,2.959.2,3.1.96.368,1.952-2.839,1.582-3.707,1.6-2.354.061-4.713.061-7.07.083q-6.12.059-12.239.076-12.112.029-24.218-.119c-16.587-.193-33.17-.585-49.755-.921q.468.355.931.709-.5-2.405-1.011-4.811c-.227.4-.451.792-.675,1.189l2.276-.261c1.216.2,1.74-1.662.514-1.862" transform="translate(-5761.022 -690.031)" fill="#231815"/>
    <path id="패스_2539" data-name="패스 2539" d="M187.182,25.066a5.919,5.919,0,0,0,3.3-.258,1,1,0,0,0,.675-1.189q-.508-2.405-1.014-4.809a.976.976,0,0,0-.931-.709c-19.861-.409-39.706-1.265-59.567-1.628-10.4-.19-20.813-.261-31.218-.083-2.635.046-6.541.453-5.815,4.094.444,2.225,3.639,4.57,5.869,3.912a.966.966,0,0,0-.514-1.862,3.4,3.4,0,0,1-2.866-1.445c-1.411-3.22,1.911-2.732,3.327-2.766,2.342-.058,4.687-.054,7.026-.068q6.006-.037,12.015,0,11.673.073,23.346.407c16.132.431,32.261,1.038,48.4,1.37q-.468-.355-.931-.709.5,2.405,1.011,4.811c.227-.4.451-.792.675-1.189L187.7,23.2c-1.216-.2-1.74,1.662-.514,1.862" transform="translate(-5761.02 -753.839)" fill="#231815"/>
    <path id="패스_2540" data-name="패스 2540" d="M94.592,19.89q1.06,50.914-1.311,101.815c-.059,1.243,1.874,1.241,1.93,0q2.376-50.87,1.314-101.815a.967.967,0,0,0-1.933,0" transform="translate(-5759.941 -750)" fill="#231815"/>
    <path id="패스_2541" data-name="패스 2541" d="M93.4,51.4q49.035-.826,98.04,1.879c1.241.068,1.236-1.864,0-1.933q-48.973-2.7-98.04-1.879a.967.967,0,0,0,0,1.933" transform="translate(-5761.116 -706.426)" fill="#231815"/>
    <path id="패스_2542" data-name="패스 2542" d="M95.6,50.62c.373,9.027.836,18.055,1.1,27.084.037,1.241,1.969,1.245,1.933,0-.266-9.03-.726-18.057-1.1-27.084-.051-1.238-1.984-1.245-1.933,0" transform="translate(-5756.614 -705.834)" fill="#231815"/>
    <path id="패스_2543" data-name="패스 2543" d="M92.3,50.888c.373,9.027.836,18.055,1.1,27.084.037,1.241,1.969,1.245,1.933,0-.266-9.03-.726-18.057-1.1-27.084-.051-1.238-1.984-1.245-1.933,0" transform="translate(-5761.353 -705.449)" fill="#231815"/>
    <path id="패스_2544" data-name="패스 2544" d="M98.273,50.342a202.918,202.918,0,0,1,1.036,27.723c-.037,1.245,1.894,1.241,1.933,0a202.918,202.918,0,0,0-1.036-27.723c-.132-1.223-2.064-1.238-1.933,0" transform="translate(-5752.774 -706.222)" fill="#231815"/>
    <path id="패스_2545" data-name="패스 2545" d="M101.36,50.619q.691,13.852.451,27.728a.967.967,0,0,0,1.933,0q.241-13.87-.451-27.728c-.063-1.238-2-1.245-1.933,0" transform="translate(-5748.331 -705.836)" fill="#231815"/>
    <path id="패스_2546" data-name="패스 2546" d="M104.4,50.437q.428,13.753.853,27.508c.039,1.238,1.972,1.245,1.933,0q-.428-13.757-.853-27.508c-.039-1.241-1.972-1.245-1.933,0" transform="translate(-5743.964 -706.099)" fill="#231815"/>
    <path id="패스_2547" data-name="패스 2547" d="M107.457,50.165q.585,13.972-.024,27.954c-.054,1.243,1.879,1.241,1.933,0q.607-13.972.024-27.954c-.054-1.238-1.984-1.245-1.933,0" transform="translate(-5739.602 -706.488)" fill="#231815"/>
    <path id="패스_2548" data-name="패스 2548" d="M109.886,50.809A120.261,120.261,0,0,1,110.43,78.7c-.119,1.236,1.813,1.228,1.933,0a122.27,122.27,0,0,0-.614-28.408c-.168-1.226-2.03-.7-1.862.514" transform="translate(-5736.09 -705.969)" fill="#231815"/>
    <path id="패스_2549" data-name="패스 2549" d="M113.97,50.439q-.186,14.539-1.2,29.046c-.088,1.241,1.845,1.233,1.933,0q1.013-14.506,1.2-29.046a.967.967,0,0,0-1.933,0" transform="translate(-5731.936 -706.097)" fill="#231815"/>
    <path id="패스_2550" data-name="패스 2550" d="M116.152,50.53q.135,13.863.271,27.725a.967.967,0,0,0,1.933,0q-.135-13.859-.271-27.725a.967.967,0,0,0-1.933,0" transform="translate(-5727.069 -705.968)" fill="#231815"/>
    <path id="패스_2551" data-name="패스 2551" d="M119.605,50.8q.029,13.643.061,27.284a.966.966,0,0,0,1.93,0q-.029-13.64-.058-27.284a.967.967,0,0,0-1.933,0" transform="translate(-5722.107 -705.575)" fill="#231815"/>
    <path id="패스_2552" data-name="패스 2552" d="M122.425,50.709l1.06,27.959c.046,1.241,1.979,1.245,1.933,0l-1.06-27.959c-.049-1.238-1.979-1.245-1.933,0" transform="translate(-5718.055 -705.706)" fill="#231815"/>
    <path id="패스_2553" data-name="패스 2553" d="M125.2,51.078a190.208,190.208,0,0,1,1.733,26.794.967.967,0,0,0,1.933,0,193.84,193.84,0,0,0-1.8-27.309c-.166-1.226-2.028-.7-1.862.514" transform="translate(-5714.076 -705.583)" fill="#231815"/>
    <path id="패스_2554" data-name="패스 2554" d="M128.931,51.157a206.667,206.667,0,0,1,1.877,26.6.967.967,0,0,0,1.933,0,210.282,210.282,0,0,0-1.947-27.116c-.166-1.226-2.028-.7-1.862.514" transform="translate(-5708.719 -705.469)" fill="#231815"/>
    <path id="패스_2555" data-name="패스 2555" d="M133.144,51.349a74.308,74.308,0,0,1,.29,12.985c-.1,2.089-.219,4.17-.31,6.256-.044,1.046-.085,2.089-.1,3.134-.007.341.224,3.28.007,3.436-.985.736-.022,2.41.977,1.672,1.5-1.109.916-3.475.948-5.108.049-2.525.193-5.047.322-7.567a82.565,82.565,0,0,0-.2-14.808c-.156-1.216-2.091-1.233-1.933,0" transform="translate(-5703.407 -704.769)" fill="#231815"/>
    <path id="패스_2556" data-name="패스 2556" d="M190.581,21.885c-.212-1.6-.071-3.207-.283-4.809a.992.992,0,0,0-.965-.968c-18.228-.375-36.445-1.119-54.673-1.526q-13.409-.3-26.824-.263-4.043.015-8.089.063c-1.648.022-3.673-.224-5.208.507-2.391,1.133-2.262,3.826-.682,5.574.836.924,2.2-.446,1.367-1.367q-.632-2.877,1.372-2.688a14.127,14.127,0,0,1,1.955-.078c1.184-.029,2.374-.029,3.558-.039q3.144-.033,6.285-.041,5.9-.018,11.8.034,11.092.1,22.186.424c15.652.431,31.3,1.011,46.955,1.333l-.965-.965c.21,1.6.071,3.2.28,4.809.161,1.216,2.1,1.231,1.933,0" transform="translate(-5760.771 -756.675)" fill="#231815"/>
    <path id="패스_2557" data-name="패스 2557" d="M190.581,20.147c-.212-1.6-.071-3.207-.283-4.809a.992.992,0,0,0-.965-.968c-18.228-.375-36.445-1.119-54.673-1.526q-13.409-.3-26.824-.263-4.043.015-8.089.063c-1.648.022-3.673-.224-5.208.507-2.391,1.133-2.262,3.826-.682,5.574.836.924,2.2-.446,1.367-1.367q-.632-2.877,1.372-2.688a14.127,14.127,0,0,1,1.955-.078c1.184-.029,2.374-.029,3.558-.039q3.144-.033,6.285-.041,5.9-.018,11.8.034,11.092.1,22.186.424c15.652.431,31.3,1.011,46.955,1.333l-.965-.965c.21,1.6.071,3.2.28,4.809.161,1.216,2.1,1.231,1.933,0" transform="translate(-5760.771 -759.173)" fill="#231815"/>
  </g>
</svg>
