<svg xmlns="http://www.w3.org/2000/svg" width="102.025" height="126.312" viewBox="0 0 102.025 126.312">
  <g id="그룹_1810" data-name="그룹 1810" transform="translate(5894.001 402.123)">
    <path id="패스_2127" data-name="패스 2127" d="M2.526,162.489c30.067.244,60.132.582,90.2.826a.967.967,0,0,0,0-1.933c-30.067-.241-60.132-.582-90.2-.826a.967.967,0,0,0,0,1.933" transform="translate(-5891.71 -546.499)" fill="#231815"/>
    <path id="패스_2128" data-name="패스 2128" d="M38.9,162.134q-.738,50.53.483,101.062a.967.967,0,0,0,1.933,0q-1.225-50.523-.483-101.062a.967.967,0,0,0-1.933,0" transform="translate(-5838.492 -545.571)" fill="#231815"/>
    <path id="패스_2129" data-name="패스 2129" d="M2.414,204.516c30.616.863,61.188,1.8,91.816.846,1.238-.037,1.245-1.969,0-1.93-30.628.953-61.2.015-91.816-.848a.967.967,0,0,0,0,1.933" transform="translate(-5891.871 -486.099)" fill="#231815"/>
    <path id="패스_2130" data-name="패스 2130" d="M4.235,202.525a5.919,5.919,0,0,0-3.3.258,1,1,0,0,0-.675,1.189q.508,2.405,1.014,4.809a.976.976,0,0,0,.931.709c20.463.417,40.925.916,61.392,1.024,10.629.056,21.262.049,31.89-.139,2.033-.037,6.371-.283,6.207-3.278-.122-2.232-4.355-3.692-6.115-3.083-1.167.4-.668,2.271.512,1.864.5-.175,2.959.2,3.1.96.368,1.952-2.839,1.582-3.707,1.6-2.354.061-4.713.061-7.07.083q-6.12.059-12.239.076-12.112.029-24.218-.119c-16.587-.193-33.17-.585-49.755-.921l.931.709q-.5-2.406-1.014-4.811l-.673,1.189,2.276-.261c1.216.2,1.74-1.662.514-1.862" transform="translate(-5893.67 -486.355)" fill="#231815"/>
    <path id="패스_2131" data-name="패스 2131" d="M94.885,166.786a5.919,5.919,0,0,0,3.3-.258,1,1,0,0,0,.675-1.189q-.508-2.406-1.014-4.809a.976.976,0,0,0-.931-.709c-19.861-.409-39.706-1.265-59.567-1.628-10.4-.19-20.813-.261-31.218-.083-2.635.046-6.541.453-5.815,4.094.444,2.225,3.639,4.57,5.869,3.912a.966.966,0,0,0-.514-1.862,3.4,3.4,0,0,1-2.866-1.445c-1.411-3.219,1.911-2.732,3.327-2.766,2.342-.059,4.687-.054,7.026-.068q6.006-.037,12.015,0,11.673.073,23.346.407c16.132.431,32.261,1.038,48.4,1.37q-.468-.355-.931-.709.5,2.405,1.011,4.811c.227-.4.451-.792.675-1.189l-2.276.261c-1.216-.2-1.74,1.662-.514,1.862" transform="translate(-5893.667 -550.162)" fill="#231815"/>
    <path id="패스_2132" data-name="패스 2132" d="M2.294,161.611Q3.354,212.525.983,263.426c-.058,1.243,1.874,1.241,1.93,0q2.376-50.87,1.314-101.815a.967.967,0,0,0-1.933,0" transform="translate(-5892.589 -546.323)" fill="#231815"/>
    <path id="패스_2133" data-name="패스 2133" d="M1.1,193.122Q50.133,192.3,99.136,195c1.241.068,1.238-1.864,0-1.933q-48.969-2.7-98.038-1.879a.967.967,0,0,0,0,1.933" transform="translate(-5893.763 -502.75)" fill="#231815"/>
    <path id="패스_2134" data-name="패스 2134" d="M3.3,192.341c.373,9.027.836,18.055,1.1,27.084.037,1.241,1.969,1.245,1.933,0-.266-9.03-.726-18.057-1.1-27.084-.051-1.238-1.984-1.245-1.933,0" transform="translate(-5889.262 -502.157)" fill="#231815"/>
    <path id="패스_2135" data-name="패스 2135" d="M0,192.609c.373,9.027.836,18.055,1.1,27.084.037,1.241,1.969,1.245,1.933,0-.266-9.03-.726-18.057-1.1-27.084-.051-1.238-1.984-1.245-1.933,0" transform="translate(-5894 -501.771)" fill="#231815"/>
    <path id="패스_2136" data-name="패스 2136" d="M5.975,192.062a202.92,202.92,0,0,1,1.036,27.723c-.037,1.245,1.894,1.243,1.933,0a202.919,202.919,0,0,0-1.036-27.723c-.132-1.223-2.064-1.238-1.933,0" transform="translate(-5885.422 -502.546)" fill="#231815"/>
    <path id="패스_2137" data-name="패스 2137" d="M9.063,192.34q.691,13.852.451,27.728a.967.967,0,0,0,1.933,0Q11.688,206.2,11,192.34c-.063-1.238-2-1.245-1.933,0" transform="translate(-5880.977 -502.158)" fill="#231815"/>
    <path id="패스_2138" data-name="패스 2138" d="M12.1,192.158q.428,13.753.853,27.508c.039,1.238,1.972,1.245,1.933,0q-.428-13.757-.853-27.508c-.039-1.241-1.972-1.245-1.933,0" transform="translate(-5876.61 -502.422)" fill="#231815"/>
    <path id="패스_2139" data-name="패스 2139" d="M15.16,191.886q.585,13.972-.024,27.954c-.054,1.243,1.879,1.24,1.933,0q.607-13.972.024-27.954c-.054-1.238-1.984-1.245-1.933,0" transform="translate(-5872.249 -502.81)" fill="#231815"/>
    <path id="패스_2140" data-name="패스 2140" d="M17.588,192.529a120.262,120.262,0,0,1,.543,27.893c-.119,1.236,1.813,1.228,1.933,0a122.269,122.269,0,0,0-.614-28.408c-.168-1.226-2.03-.7-1.862.514" transform="translate(-5868.738 -502.293)" fill="#231815"/>
    <path id="패스_2141" data-name="패스 2141" d="M21.672,192.159q-.186,14.539-1.2,29.046c-.088,1.241,1.845,1.233,1.933,0q1.013-14.506,1.2-29.046a.967.967,0,0,0-1.933,0" transform="translate(-5864.584 -502.421)" fill="#231815"/>
    <path id="패스_2142" data-name="패스 2142" d="M23.854,192.249q.139,13.863.271,27.728a.967.967,0,0,0,1.933,0q-.132-13.863-.271-27.728a.967.967,0,0,0-1.933,0" transform="translate(-5859.718 -502.291)" fill="#231815"/>
    <path id="패스_2143" data-name="패스 2143" d="M27.308,192.523q.029,13.643.061,27.284a.966.966,0,0,0,1.93,0l-.058-27.284a.967.967,0,0,0-1.933,0" transform="translate(-5854.754 -501.898)" fill="#231815"/>
    <path id="패스_2144" data-name="패스 2144" d="M30.128,192.429l1.06,27.959c.046,1.241,1.979,1.245,1.933,0l-1.06-27.959c-.049-1.238-1.979-1.245-1.933,0" transform="translate(-5850.701 -502.03)" fill="#231815"/>
    <path id="패스_2145" data-name="패스 2145" d="M32.905,192.8a190.2,190.2,0,0,1,1.733,26.794.967.967,0,0,0,1.933,0,193.836,193.836,0,0,0-1.8-27.309c-.166-1.226-2.028-.7-1.862.514" transform="translate(-5846.725 -501.905)" fill="#231815"/>
    <path id="패스_2146" data-name="패스 2146" d="M36.633,192.878a206.659,206.659,0,0,1,1.877,26.6.966.966,0,0,0,1.93,0A209.844,209.844,0,0,0,38.5,192.364c-.166-1.226-2.028-.7-1.862.514" transform="translate(-5841.367 -501.791)" fill="#231815"/>
    <path id="패스_2147" data-name="패스 2147" d="M40.845,193.068a74.57,74.57,0,0,1,.292,12.988c-.1,2.086-.222,4.17-.312,6.256-.044,1.043-.083,2.086-.1,3.132-.007.341.224,3.283.01,3.439-.987.734-.024,2.41.975,1.669,1.5-1.109.916-3.475.948-5.108.049-2.525.193-5.045.322-7.565a82.587,82.587,0,0,0-.2-14.811c-.156-1.216-2.091-1.231-1.933,0" transform="translate(-5836.054 -501.092)" fill="#231815"/>
    <path id="패스_2148" data-name="패스 2148" d="M98.134,163.476c-.212-1.6-.071-3.207-.283-4.809a.992.992,0,0,0-.965-.968c-18.228-.375-36.445-1.119-54.673-1.526q-13.409-.3-26.824-.263-4.043.015-8.089.063c-1.648.022-3.673-.224-5.211.507-2.388,1.133-2.259,3.826-.68,5.574.836.924,2.2-.446,1.367-1.367Q2.145,157.811,4.15,158a14.129,14.129,0,0,1,1.955-.078c1.184-.029,2.374-.029,3.558-.039q3.144-.033,6.285-.041,5.9-.018,11.8.034,11.092.1,22.186.424c15.652.431,31.3,1.011,46.955,1.333l-.965-.965c.21,1.6.071,3.2.28,4.809.161,1.216,2.094,1.231,1.933,0" transform="translate(-5893.633 -553.184)" fill="#231815"/>
    <path id="패스_2149" data-name="패스 2149" d="M98.134,161.489c-.212-1.6-.071-3.207-.283-4.809a.992.992,0,0,0-.965-.968c-18.228-.375-36.445-1.119-54.673-1.526q-13.409-.3-26.824-.263-4.043.015-8.089.063c-1.648.022-3.673-.224-5.211.507-2.388,1.133-2.259,3.826-.68,5.574.836.924,2.2-.446,1.367-1.367q-.632-2.877,1.372-2.688a14.132,14.132,0,0,1,1.955-.078c1.184-.029,2.374-.029,3.558-.039q3.144-.033,6.285-.041,5.9-.018,11.8.034,11.092.1,22.186.424c15.652.431,31.3,1.011,46.955,1.333l-.965-.965c.21,1.6.071,3.2.28,4.809.161,1.216,2.094,1.231,1.933,0" transform="translate(-5893.633 -556.04)" fill="#231815"/>
  </g>
</svg>
