<svg xmlns="http://www.w3.org/2000/svg" xmlns:xlink="http://www.w3.org/1999/xlink" width="101.719" height="126.536" viewBox="0 0 101.719 126.536">
  <defs>
    <clipPath id="clip-path">
      <rect id="사각형_1845" data-name="사각형 1845" width="90.202" height="102.598" fill="none"/>
    </clipPath>
  </defs>
  <g id="그룹_1808" data-name="그룹 1808" transform="translate(5781.528 576.349)">
    <path id="패스_2036" data-name="패스 2036" d="M46.15,121.214c.373,9.027.836,18.055,1.1,27.084.037,1.241,1.969,1.245,1.933,0-.266-9.03-.726-18.057-1.1-27.084-.051-1.238-1.984-1.245-1.933,0" transform="translate(-5827.676 -604.378)" fill="#231815"/>
    <path id="패스_2037" data-name="패스 2037" d="M86.994,121.673a74.57,74.57,0,0,1,.292,12.988c-.1,2.086-.222,4.17-.312,6.256-.044,1.043-.083,2.086-.1,3.132-.007.341.224,3.28.01,3.439-.987.734-.024,2.41.975,1.669,1.5-1.111.916-3.475.948-5.108.049-2.525.193-5.045.322-7.565a82.584,82.584,0,0,0-.2-14.811c-.156-1.216-2.091-1.231-1.933,0" transform="translate(-5769.73 -603.699)" fill="#231815"/>
    <g id="그룹_1050" data-name="그룹 1050" transform="translate(-5776.713 -558.332)" clip-path="url(#clip-path)">
      <rect id="사각형_1844" data-name="사각형 1844" width="90.202" height="102.598" transform="translate(0 0.002)" fill="#5c87be"/>
      <path id="패스_2191" data-name="패스 2191" d="M117.662,126.391l-.992,2.374-1.211,2.223-1.894,1.743-1.884,1.894-2.676.458-2.432.8-2.357,1.014-2.432.865-2.476.78-2.649-.2-2.5.809-2.625-.463-2.542.746-2.591-.485-2.569-.076-2.6.375-2.579-.158-2.515-.648-2.7.414-2.376-1.3-2.7.037-2.106-1.867-2.822.107-2.164-1.516-2.288-1.277-1.735-1.986-1.119-2.291-1.228-2.364,1.077-2.444,1-2.476,2.549-1.019,2.074-1.428L63.486,117l2.769-.034,2.415-.8,2.488-.563,2.374-1.172,2.613.007,2.52-.619,2.549-.5,2.6-.085L86.4,112.9l2.583.617,2.62-.5,2.525.841,2.549.38,2.483.736,2.722-.363,2.53.641,2.264,1.421,2.232,1.289,2.462.782,2.3,1.2,1.708,1.947,1.34,2.113Z" transform="translate(-38.372 -56.659)" fill="#fff" fill-rule="evenodd"/>
      <path id="패스_2192" data-name="패스 2192" d="M64.753,120.06l-.134,2.552.271,2.547.753,2.52.034,2.574.341,2.549.28,2.561-.066,2.586.288,2.561,0,2.574.224,2.569.383,2.559.09,2.591.141,2.752,2.447-.188,2.262-.144,2.267-.046,2.12.046.066-2.337.712-2.418.353-2.459-.353-2.522.8-2.415-.141-2.51.67-2.432.046-2.491-.122-2.5.685-2.435-.1-2.513.144-2.5.292-2.369-2.34-.509-2.459-.3-2.525.378-2.44-.753-2.525.224Z" transform="translate(-24.418 -46.367)" fill="#fff" fill-rule="evenodd"/>
      <path id="패스_2193" data-name="패스 2193" d="M55.564,121.894c8.121,7.933,21.815,9.515,32.612,8.925,5.7-.312,11.908-.989,17.294-2.961,4.092-1.5,8.818-3.8,11.326-7.509.7-1.031-.975-2-1.669-.975-2.564,3.79-8.408,6.285-12.678,7.382a73.743,73.743,0,0,1-15.322,2.179c-9.966.4-22.7-1.089-30.194-8.408-.892-.868-2.259.5-1.367,1.367" transform="translate(-37.848 -47.979)" fill="#b2b3b3"/>
      <path id="패스_2194" data-name="패스 2194" d="M55.564,120.356c8.121,7.933,21.815,9.515,32.612,8.925,5.7-.312,11.908-.989,17.294-2.961,4.092-1.5,8.818-3.8,11.326-7.509.7-1.031-.975-2-1.669-.975-2.564,3.79-8.408,6.285-12.678,7.382A73.743,73.743,0,0,1,87.126,127.4c-9.966.4-22.7-1.089-30.194-8.408-.892-.868-2.259.5-1.367,1.367" transform="translate(-37.848 -50.19)" fill="#b2b3b3"/>
      <path id="패스_2195" data-name="패스 2195" d="M99.827,125.5c.485-4.762-5.016-6.895-8.735-8.174a11.5,11.5,0,0,0-5.6-5.486c-7.421-2.583-4.76,1.6-6.271-8.174-.012-2.037-1.47-1.945-1.9-3.471a2.006,2.006,0,0,1-.673-.224c-1.643.078-1.114,1.757-2.24,2.574-.473,2.691-.968,5.152-1.343,7.952-11.14.417-13.95,11.674-12.542,20.492.212,3.334-.634,9.035,1.791,11.421,7.024,6.6,32.936,6.327,30.348-7.389,2.915-3.1,8.282-4.051,7.165-9.52M95.8,127.96a4.779,4.779,0,0,1-3.134,2.352c-.01-2.737-.234-4.9-.224-7.5,1.635.134,4.138,2.666,3.358,5.15" transform="translate(-30.787 -75.244)" fill="#e7ebe6"/>
      <path id="패스_2196" data-name="패스 2196" d="M78.67,128.3c2.915-3.1,8.282-4.048,7.165-9.517.485-4.762-5.016-6.895-8.735-8.174a11.5,11.5,0,0,0-5.6-5.486c-.6-.207-1.106-.361-1.579-.49a16.792,16.792,0,0,1,1.75,7c.368,5.133-.288,18.691-.929,27.213C76,137.289,79.73,133.928,78.67,128.3M81.8,121.25A4.779,4.779,0,0,1,78.67,123.6c-.01-2.737-.234-4.9-.224-7.5,1.635.136,4.138,2.669,3.358,5.152" transform="translate(-16.795 -68.534)" fill="#c3cfd4"/>
      <path id="패스_2197" data-name="패스 2197" d="M66.361,102.3a3.433,3.433,0,0,0,3.461.232.8.8,0,0,0,.285-1.087.816.816,0,0,0-1.087-.285c-.037.017-.076.037-.112.051l.19-.08a2.6,2.6,0,0,1-.673.183c.071-.01.139-.019.21-.027a2.9,2.9,0,0,1-.7,0l.21.027a2.8,2.8,0,0,1-.673-.18l.19.08a2.823,2.823,0,0,1-.5-.283.794.794,0,0,0-1.087.285.817.817,0,0,0,.285,1.087" transform="translate(-22.472 -74.024)" fill="#231815"/>
      <path id="패스_2198" data-name="패스 2198" d="M65.562,105.859a8.66,8.66,0,0,0,6.554.239.816.816,0,0,0,.556-.977.8.8,0,0,0-.977-.556,7.055,7.055,0,0,1-5.33-.078.82.82,0,0,0-1.087.285.8.8,0,0,0,.285,1.087" transform="translate(-23.618 -68.88)" fill="#231815"/>
      <path id="패스_2199" data-name="패스 2199" d="M67.437,104.791c-4.7,1.64-6.532,6.434-6.9,11.043a69.422,69.422,0,0,0,0,8.808c.129,2.725-.017,6.061,1.133,8.606,1.923,4.26,7.706,5.71,11.906,6.1A37.1,37.1,0,0,0,90.99,136.6c.933-.383.524-1.92-.424-1.531a36.637,36.637,0,0,1-14.392,2.822c-4.177-.051-10.419-.809-12.815-4.818-1.228-2.057-1.048-5.142-1.182-7.472-.136-2.432-.2-4.874-.156-7.312.08-4.514.924-10.246,5.837-11.962.96-.336.548-1.872-.422-1.533" transform="translate(-30.487 -68.382)" fill="#231815"/>
      <path id="패스_2200" data-name="패스 2200" d="M66.818,110.992a1.287,1.287,0,1,1-1.533-.985,1.29,1.29,0,0,1,1.533.985" transform="translate(-24.915 -60.857)" fill="#231815"/>
      <path id="패스_2201" data-name="패스 2201" d="M70.736,111.22a1.287,1.287,0,1,1-1.533-.985,1.29,1.29,0,0,1,1.533.985" transform="translate(-19.285 -60.529)" fill="#231815"/>
      <path id="패스_2202" data-name="패스 2202" d="M67.045,112.236c.146-.076-.136.029-.032.017l.022-.007c.085-.017.063-.017-.066,0a.678.678,0,0,0,.2,0c.041,0,.288.029.139.01s.1.015.134.022a4.561,4.561,0,0,1,.777.222c-.239-.088-.032-.012.027.017s.112.061.168.1.1.061.141.093c.127.085-.122-.1-.044-.034.029.029.063.056.093.085.046.044.088.09.129.137s.056.1-.046-.061c.015.024.034.046.049.068.032.049.056.1.085.151.049.083-.073-.21-.032-.08l.032.1c.012.044.017.09.027.134-.066-.256-.012-.1-.01-.02,0,.051,0,.1,0,.156,0,.117.01-.1.017-.107-.01,0-.017.088-.02.1-.012.051-.027.1-.044.151-.046.156.093-.188.01-.02-.024.046-.051.088-.076.132s-.071.1.015-.015.012-.02-.012.007c-.068.071-.171.107.029-.01-.041.024-.085.049-.122.076-.076.049.188-.063.1-.041-.024,0-.051.017-.076.024a.636.636,0,0,0-.066.015c.19-.061.168-.017.068-.017a.465.465,0,0,0-.083,0c.144-.029.168.034.09.01-.032-.01-.066-.019-.1-.027-.1-.024.185.1.056.024a.949.949,0,0,0-.141-.085c.119.037.124.1.046.034-.027-.024-.051-.049-.076-.076s-.1-.129-.022-.015-.01-.017-.024-.041-.037-.061-.054-.093-.068-.149-.012-.022,0,0,0-.024c-.015-.046-.022-.1-.037-.144-.017-.066.017-.1,0,.054,0-.049-.01-.107-.01-.156a2.394,2.394,0,0,1,.01-.266c.012-.156,0,.054-.007.054l.032-.158a3.881,3.881,0,0,1,.173-.565.8.8,0,0,0-.556-.977.814.814,0,0,0-.977.556,2.824,2.824,0,0,0,.127,2.632,2.005,2.005,0,0,0,1.148.829,1.694,1.694,0,0,0,1.258-.188,2.07,2.07,0,0,0,.921-1.894,2.111,2.111,0,0,0-.387-1.1,2.8,2.8,0,0,0-.929-.819,4.142,4.142,0,0,0-1.177-.419,2.5,2.5,0,0,0-1.684.11.8.8,0,0,0-.285,1.087.814.814,0,0,0,1.087.285" transform="translate(-22.649 -59.873)" fill="#231815"/>
      <path id="패스_2203" data-name="패스 2203" d="M77.6,116.4c.127,0,.431.049-.08-.024-.612-.09.283.073.426.107.473.119.938.273,1.4.434.275.1.551.195.819.307-.366-.154.331.161.353.173.232.117.451.256.675.385.495.283-.09-.173.3.229,0,0,.519.568.256.266.261.3.056,0,.195.395.063.31.08.363.056.158l.015.283s-.085.819-.019.456a4.5,4.5,0,0,1-.232.814c.076-.2-.227.441-.283.541a11.224,11.224,0,0,1-1.911,2.442q-.567.592-1.177,1.136-.3.274-.621.534c.015-.012-.582.458-.349.283a19.623,19.623,0,0,1-5.674,2.986A2.561,2.561,0,0,0,70,131.392a2.533,2.533,0,0,0,3.083,1.75,25,25,0,0,0,7.811-4.216,17.35,17.35,0,0,0,5.654-7.078,6.919,6.919,0,0,0-3.159-8.591,17.056,17.056,0,0,0-3.938-1.56,6.7,6.7,0,0,0-1.85-.307,2.507,2.507,0,0,0,0,5.013" transform="translate(-16.81 -58.83)" fill="#e7ebe6"/>
      <path id="패스_2204" data-name="패스 2204" d="M70.63,129.884c-4.9-2.15-9.4-6.166-10.034-11.772a10.528,10.528,0,0,1,1.884-7.533c1.772-2.347,4.436-3.87,6.909-5.357,2.761-1.662.244-6-2.53-4.328-3.154,1.9-6.29,3.9-8.518,6.9a15.123,15.123,0,0,0-2.759,10.321c.685,7.348,5.922,13.2,12.517,16.1a2.587,2.587,0,0,0,3.429-.9,2.526,2.526,0,0,0-.9-3.429" transform="translate(-37.5 -74.453)" fill="#e7ebe6"/>
      <path id="패스_2205" data-name="패스 2205" d="M64.526,103.738a3.678,3.678,0,0,1,.024-.714c-.029.222-.061.444-.09.665a3.8,3.8,0,0,1,.224-.8c-.083.2-.168.4-.251.6a3.811,3.811,0,0,1,.419-.721c-.132.171-.263.339-.392.509.076-.1.151-.183.234-.271Q62.6,102.447,60.5,101.9c.017.09.032.18.044.273l-.088-.668a5.444,5.444,0,0,1-.007,1.379l.09-.665a12.514,12.514,0,0,0-.378,2.1,3.137,3.137,0,0,0,2.342,3,4.161,4.161,0,0,0,2.52-.256c.777-.3,1.545-.624,2.3-.972a2.48,2.48,0,0,0,1.15-1.5,2.581,2.581,0,0,0-.124-1.63,2.528,2.528,0,0,0-2.959-1.453,9.925,9.925,0,0,0-4.709,2.588,2.543,2.543,0,0,0-.734,1.772,2.417,2.417,0,0,0,.734,1.772c1.484,1.163,2.99,2.3,4.533,3.38a2.445,2.445,0,0,0,1.265.341A2.471,2.471,0,0,0,68,110.821a2.4,2.4,0,0,0,.773-1,2.323,2.323,0,0,0,.127-1.633,4.536,4.536,0,0,0-1.055-1.694,5.656,5.656,0,0,0-1.158-.834,13.027,13.027,0,0,1-1.645-.86l.507.392a2.326,2.326,0,0,1-.346-.329c.129.168.261.339.392.507a1.867,1.867,0,0,1-.21-.339c.085.2.168.4.253.6-.012-.024-.022-.051-.032-.076a2.742,2.742,0,0,0-1.153-1.5,2.51,2.51,0,0,0-3.429.9,2.431,2.431,0,0,0-.251,1.933,4.442,4.442,0,0,0,1.046,1.7,5.518,5.518,0,0,0,1.192.855,11.207,11.207,0,0,1,1.674.887c-.171-.129-.339-.261-.507-.39a2.327,2.327,0,0,1,.336.339c-.132-.168-.263-.336-.392-.507a2.246,2.246,0,0,1,.163.278c-.085-.2-.168-.4-.253-.6l.032.076,3.683-2.83q-1.751-1.232-3.444-2.535c.171.129.339.261.507.392l-.58-.453v3.544a7.834,7.834,0,0,1,.66-.578l-.507.392a7.862,7.862,0,0,1,1.626-.951c-.2.085-.4.171-.6.253a8.01,8.01,0,0,1,1.316-.414l-1.93-4.582c-.268.124-.539.244-.812.361l.6-.253a8.005,8.005,0,0,1-1.735.619c.222-.032.446-.061.668-.09a1.736,1.736,0,0,1-.3,0l.665.09a.755.755,0,0,1-.18-.046c.2.085.4.168.6.253a.622.622,0,0,1-.158-.1c.171.132.339.261.507.392-.022-.022-.044-.046-.068-.068.132.168.263.339.392.507a.615.615,0,0,1-.1-.178c.085.2.168.4.253.6-.01-.032-.019-.066-.027-.1l.09.665a1.377,1.377,0,0,1,0-.317l-.088.665c.037-.232.11-.451.168-.68a8.946,8.946,0,0,0,.217-1.345,7.634,7.634,0,0,0-.146-2.181,2.467,2.467,0,0,0-1.75-1.75,2.506,2.506,0,0,0-2.44.643,5.846,5.846,0,0,0-1.635,4.282,2.652,2.652,0,0,0,.734,1.772,2.507,2.507,0,0,0,4.28-1.772" transform="translate(-31.77 -77.029)" fill="#e7ebe6"/>
      <path id="패스_2206" data-name="패스 2206" d="M75.585,120.043a5.787,5.787,0,0,0-3.029-2.313c-1.465-.487-3.524-.314-4.358,1.163a2.845,2.845,0,0,0,.224,3.181,4.59,4.59,0,0,0,1.6,1.241c.444.236.89.473,1.333.707l.668.356c.1.049.2.1.295.156.59.314-.129.073-.414-.5l-.344-1.267.01.124.09-.67c.19-.373.236-.475.134-.307-.041.066-.085.132-.129.2-.076.117-.156.236-.234.351-.171.261-.341.519-.512.777a2.513,2.513,0,0,0,.9,3.432,6.212,6.212,0,0,0,.843.327,3.518,3.518,0,0,0,2.661-.5,5.085,5.085,0,0,0,1.282-1.331c.073-.1.146-.2.212-.3.107-.154.051-.083-.173.21q.457-.461-.714.412H74.6c-.887-.2-1.528-1.4-1.046-.685.078.117.158.224.241.334a10.578,10.578,0,0,0,.841,1.021,9.249,9.249,0,0,0,1.56,1.265,4.934,4.934,0,0,0,2.479.941,2.91,2.91,0,0,0,2.925-2.883,6.139,6.139,0,0,0-4.867-5.983,2.692,2.692,0,0,0-1.933.249,2.568,2.568,0,0,0-1.15,1.5,2.536,2.536,0,0,0,1.75,3.083,3.244,3.244,0,0,1,.478.115c.1.032.463.175.044,0-.392-.163-.11-.039-.022,0,.11.063.561.383.207.1s.122.127.207.212c.019.022.141.19.163.188-.037,0-.358-.512-.168-.217.088.141.168.283.251.424.168.3-.117-.212-.1-.263a1.559,1.559,0,0,0,.1.292,3.544,3.544,0,0,1,.11.541l-.088-.67a2.238,2.238,0,0,1,0,.478l.09-.665c.158-.278.319-.553.478-.829.368-.214.736-.431,1.106-.646-.039.012-.078.029-.119.039l.668-.088-.127,0,.665.09c-.249-.068-.175-.029.222.119-.083-.039-.163-.078-.246-.122q-.183-.091-.358-.2c-.117-.071-.229-.149-.344-.219-.212-.154-.151-.1.175.146-.071-.059-.141-.115-.21-.173a7.247,7.247,0,0,1-.585-.575c-.061-.068-.119-.139-.178-.21.251.327.3.388.144.178-.073-.11-.149-.229-.224-.339a3.1,3.1,0,0,0-1.75-1.384,2.891,2.891,0,0,0-2.705.707,5.531,5.531,0,0,0-.916,1.153c-.273.417.395-.378.024-.046.344-.239.4-.292.18-.158.4-.146.473-.2.222-.151l.665-.085-.127,0q.333.048.665.088c.119.059.239.119.358.18l.9,3.427a11.25,11.25,0,0,0,1.089-1.794,2.917,2.917,0,0,0-1.34-3.69c-.531-.3-1.087-.575-1.63-.863l-.887-.47a4.337,4.337,0,0,0-.446-.234.8.8,0,0,0-.1-.063,1.7,1.7,0,0,1,.792,1.038l.088.668.007-.1c-.115.424-.227.843-.341,1.267l-1.184.916-.665.088a2.9,2.9,0,0,1,.756.007c-.224-.029-.446-.061-.668-.09.175.029.336.076.507.119.246.088.166.054-.234-.107.078.039.154.083.229.124s.149.1.219.144c-.331-.266-.4-.312-.207-.144.441.5-.219-.363.027,0a2.7,2.7,0,0,0,1.5,1.153,2.51,2.51,0,0,0,2.83-3.685" transform="translate(-19.823 -50.067)" fill="#e7ebe6"/>
      <path id="패스_2207" data-name="패스 2207" d="M80.908,114.757c1.253.117,3.4.319,3.7,1.891.251,1.338-1.613,2.681-2.457,3.475a40.219,40.219,0,0,1-7.39,5.481l1.087.285c-.943-1.7-3.49-2.62-5.352-2.652a2.784,2.784,0,0,0-2.654,3.917,3.616,3.616,0,0,0,.838,1.226c.331.324.865.5,1.165.816.273.288-.027.731-.037,1.145a2.859,2.859,0,0,0,.307,1.321c1.085,2.164,3.663,2.142,5.662,1.462.965-.327.551-1.862-.422-1.531-1.177.4-3.661.848-3.943-1-.09-.6.373-1.094.214-1.716s-.707-.892-1.211-1.184a2.084,2.084,0,0,1-1.223-1.735c.024-.829.67-1.172,1.445-1.131,1.265.066,3.2.717,3.839,1.86a.8.8,0,0,0,1.087.285,37.524,37.524,0,0,0,9.478-7.509c1.072-1.233,1.628-2.817.619-4.282-1.087-1.572-2.988-1.852-4.755-2.018-1.019-.1-1.011,1.494,0,1.589" transform="translate(-20.113 -56.277)" fill="#231815"/>
      <path id="패스_2208" data-name="패스 2208" d="M69.254,104.364a5.756,5.756,0,0,1-.946-8.111l-1.248-.161c1.382,2.14,2.654,4.938,1.362,7.426l1.248-.161a5.334,5.334,0,0,1-1.86-5.659q-.662.175-1.328.349c1.319,1.2,1.121,3.239.972,4.848h1.589l-.007-4.112L67.475,99a41.94,41.94,0,0,0,1.409,4.655.813.813,0,0,0,.977.553.8.8,0,0,0,.556-.977,41.9,41.9,0,0,1-1.409-4.653.8.8,0,0,0-1.56.21l.007,4.112a.8.8,0,0,0,1.589,0c.19-2.057.219-4.462-1.438-5.971a.8.8,0,0,0-1.328.351,6.879,6.879,0,0,0,2.269,7.207.807.807,0,0,0,1.248-.161c1.574-3.029.361-6.363-1.362-9.03a.8.8,0,0,0-1.248-.161,7.276,7.276,0,0,0,1.267,10.607.8.8,0,0,0,1.087-.285.814.814,0,0,0-.285-1.087" transform="translate(-23.225 -82.535)" fill="#c6581a"/>
      <path id="패스_2209" data-name="패스 2209" d="M67.478,94.951A6.906,6.906,0,0,0,69.56,106.91c.965.346,1.379-1.187.422-1.533a5.326,5.326,0,0,1-1.379-9.3.8.8,0,0,0,0-1.124.812.812,0,0,0-1.124,0" transform="translate(-24.055 -82.779)" fill="#231815"/>
      <path id="패스_2210" data-name="패스 2210" d="M68.192,101.183c-.09-.144-.166-.292-.244-.441s.024.08-.034-.076c-.034-.09-.066-.18-.1-.273-.041-.139-.078-.278-.107-.419,0-.034-.046-.329-.027-.146-.007-.073-.015-.144-.02-.217a4.282,4.282,0,0,1,0-.468c0-.085.01-.168.017-.253.022-.232-.032.154.012-.073a4.251,4.251,0,0,1,.117-.492c.02-.068.041-.136.068-.2.015-.046.032-.09.051-.136-.034.08-.032.078,0-.007H66.559c.046.1.093.188.134.285-.056-.129.037.1.037.1.066.171.124.346.175.522s.1.353.132.534q.029.135.051.271l.02.117c-.012-.083-.01-.076,0,.022a7.165,7.165,0,0,1,.039,1.1c-.007.183-.022.366-.046.548.02-.141-.012.071-.017.1-.019.1-.039.2-.063.307a.795.795,0,0,0,1.533.422,7.855,7.855,0,0,0-.621-5.125.8.8,0,0,0-1.372,0,5.085,5.085,0,0,0,.261,4.811.795.795,0,1,0,1.372-.8" transform="translate(-22.322 -79.819)" fill="#f4ab16"/>
      <path id="패스_2211" data-name="패스 2211" d="M68.848,98.845c-1.816-.156-2.942,1.282-3.51,2.842a6.442,6.442,0,0,1-2.206,3.449,21.917,21.917,0,0,0-2.427,2,18.453,18.453,0,0,0-5.3,11.345c-.807,8.686,5.418,16.717,13.787,18.717.994.239,1.418-1.294.424-1.533-7.514-1.8-13.163-8.825-12.664-16.648a16.82,16.82,0,0,1,4.5-10.373c1.209-1.277,2.864-2.094,4-3.417,1.1-1.287,1.289-4.969,3.4-4.789,1.019.088,1.014-1.5,0-1.589" transform="translate(-37.759 -76.874)" fill="#231815"/>
      <path id="패스_2212" data-name="패스 2212" d="M65.544,104.438a3.027,3.027,0,0,0-1.689,1.711,1.776,1.776,0,0,0,.76,2,7.161,7.161,0,0,0,2.435.79,15.88,15.88,0,0,0,2.878.312,14.317,14.317,0,0,0,5.345-.9c1.267-.5,3.4-1.577,3.129-3.22-.163-1.007-1.7-.58-1.533.422.024-.193-.012-.2-.107-.015-.09.1-.183.2-.28.29a3.849,3.849,0,0,1-.636.485,6.749,6.749,0,0,1-1.477.678,13.192,13.192,0,0,1-3.624.663,13.685,13.685,0,0,1-3.726-.341c-.368-.088-1.336-.188-1.579-.517-.31-.417.636-.836.907-.98.9-.48.1-1.852-.8-1.372" transform="translate(-25.616 -68.963)" fill="#231815"/>
      <path id="패스_2213" data-name="패스 2213" d="M63.507,112.593l-.256,1.974a1.755,1.755,0,0,0,.024.885,1.1,1.1,0,0,0,.58.556c.595.28,1.214.517,1.818.773.283.119.612.229.858-.032a1.14,1.14,0,0,0,.2-.76q.073-1.163.146-2.33c.027-.409-.609-.407-.636,0q-.066,1.067-.132,2.133a2.34,2.34,0,0,0-.034.468.117.117,0,0,1-.017.058c-.015.029,0,.017.056-.039a2.47,2.47,0,0,0-.234-.093l-.987-.419a7.849,7.849,0,0,1-.855-.375c-.273-.161-.2-.434-.171-.707l.271-2.091a.32.32,0,0,0-.319-.317.324.324,0,0,0-.317.317" transform="translate(-26.448 -57.554)" fill="#266935"/>
      <path id="패스_2214" data-name="패스 2214" d="M63.43,113.528l2.14,1.089a.318.318,0,0,0,.319-.551q-1.068-.545-2.137-1.087a.325.325,0,0,0-.436.115.32.32,0,0,0,.115.434" transform="translate(-26.351 -56.6)" fill="#266935"/>
      <path id="패스_2215" data-name="패스 2215" d="M63.071,114.418c1.587.653,3.188,1.28,4.826,1.794.392.124.558-.49.171-.612-1.64-.517-3.239-1.143-4.828-1.8a.318.318,0,0,0-.168.614" transform="translate(-26.981 -55.382)" fill="#266935"/>
      <path id="패스_2216" data-name="패스 2216" d="M63.824,114.576v1.206a.318.318,0,1,0,.636,0v-1.206a.318.318,0,0,0-.636,0" transform="translate(-25.56 -54.704)" fill="#266935"/>
      <path id="패스_2217" data-name="패스 2217" d="M63.291,115.286l1.182.266a9.62,9.62,0,0,1,1.024.244,2.394,2.394,0,0,1,.344.149,1.748,1.748,0,0,1,.185.107c.024.017,0-.007.029.022l.034.034c-.022-.024.01.044,0,0a.638.638,0,0,1,.024.1c0-.041,0,.027,0,.039a.558.558,0,0,1,0,.09.475.475,0,0,1-.08.2.318.318,0,0,0,.451.448,1.082,1.082,0,0,0,.241-.98,1.066,1.066,0,0,0-.707-.68,5.8,5.8,0,0,0-1.143-.334c-.47-.1-.938-.21-1.409-.317-.4-.088-.568.524-.168.614" transform="translate(-26.653 -54.123)" fill="#266935"/>
      <path id="패스_2218" data-name="패스 2218" d="M63.228,115.751c1.041.236,2.04.624,3.081.86.4.093.568-.522.168-.612-1.041-.239-2.04-.624-3.081-.863-.4-.09-.568.524-.168.614" transform="translate(-26.744 -53.456)" fill="#266935"/>
      <path id="패스_2219" data-name="패스 2219" d="M63.28,115.242a.816.816,0,0,0-.336.933,1.43,1.43,0,0,0,.738.816,4,4,0,0,0,1.192.353c.431.1.858.214,1.3.283a.327.327,0,0,0,.39-.222.319.319,0,0,0-.222-.39c-.358-.059-.709-.146-1.063-.229-.171-.041-.344-.08-.517-.115a3.764,3.764,0,0,1-.492-.1,1.741,1.741,0,0,1-.385-.2,1.347,1.347,0,0,1-.256-.219.413.413,0,0,1-.083-.244.172.172,0,0,1,.017-.08c-.01.027.034-.037,0,0,.041-.039-.02,0,.039-.032.349-.212.029-.763-.322-.548" transform="translate(-26.874 -53.362)" fill="#266935"/>
      <path id="패스_2220" data-name="패스 2220" d="M65.595,113.85q1.349.519,2.7,1.041a.317.317,0,0,0,.39-.222.322.322,0,0,0-.222-.39q-1.345-.523-2.7-1.043a.32.32,0,0,0-.39.224.324.324,0,0,0,.222.39" transform="translate(-23.351 -56.196)" fill="#266935"/>
      <path id="패스_2221" data-name="패스 2221" d="M67.406,113.853a3.846,3.846,0,0,1-2.33,3.332.318.318,0,0,0-.112.434.325.325,0,0,0,.434.115,4.463,4.463,0,0,0,2.644-3.88c.015-.409-.621-.409-.636,0" transform="translate(-23.981 -55.729)" fill="#266935"/>
      <path id="패스_2222" data-name="패스 2222" d="M65.953,114.074a7.063,7.063,0,0,0,0,1.436,8,8,0,0,0,.322,1.345,3.751,3.751,0,0,0,1.4,2.223c.361.2.68-.351.322-.548a1.871,1.871,0,0,1-.682-.8,6.325,6.325,0,0,1-.468-1.165,7.307,7.307,0,0,1-.278-1.182,6.732,6.732,0,0,1,.02-1.311c.024-.409-.612-.407-.636,0" transform="translate(-22.557 -55.411)" fill="#266935"/>
      <path id="패스_2223" data-name="패스 2223" d="M65.6,115.635v1.879a.318.318,0,0,0,.636,0v-1.879a.318.318,0,0,0-.636,0" transform="translate(-23.004 -53.183)" fill="#266935"/>
      <path id="패스_2224" data-name="패스 2224" d="M64.828,116.628c1.55.353,3.083.773,4.633,1.128.4.09.568-.524.168-.614-1.55-.353-3.083-.773-4.633-1.128-.4-.09-.568.524-.168.614" transform="translate(-24.444 -52.194)" fill="#266935"/>
      <path id="패스_2225" data-name="패스 2225" d="M68.78,114.089a9.256,9.256,0,0,1-2.006,2.72c-.3.28.151.729.448.451a9.757,9.757,0,0,0,2.106-2.849.328.328,0,0,0-.115-.436.32.32,0,0,0-.434.115" transform="translate(-21.462 -55.172)" fill="#266935"/>
      <path id="패스_2226" data-name="패스 2226" d="M67.208,115.194q.768.914,1.538,1.825a.316.316,0,0,0,.448,0,.325.325,0,0,0,0-.448q-.768-.914-1.538-1.825a.316.316,0,0,0-.448,0,.325.325,0,0,0,0,.448" transform="translate(-20.826 -54.138)" fill="#266935"/>
      <path id="패스_2227" data-name="패스 2227" d="M68.459,114.349q-.026,2.08-.054,4.16a.318.318,0,0,0,.636,0q.026-2.08.054-4.16a.318.318,0,0,0-.636,0" transform="translate(-18.977 -55.016)" fill="#266935"/>
      <path id="패스_2228" data-name="패스 2228" d="M67.586,117.837c.027-.285.054-.568.078-.853.012-.132.017-.263.037-.395l.019-.088c-.015-.01-.049.022-.034.037a.754.754,0,0,0,.149.032c.063.017.127.034.188.049.136.037.271.073.407.107.258.071.519.139.78.207s.519.136.78.207c.156.041.363.068.453.219.154.258-.02.687-.132.943a.325.325,0,0,0,.115.434.318.318,0,0,0,.434-.115,2.3,2.3,0,0,0,.261-1.175,1.042,1.042,0,0,0-.848-.892c-.526-.144-1.055-.278-1.582-.417-.253-.068-.509-.144-.768-.2a.668.668,0,0,0-.7.175,1.406,1.406,0,0,0-.183.775l-.088.951a.318.318,0,0,0,.636,0" transform="translate(-21.07 -52.334)" fill="#266935"/>
      <path id="패스_2229" data-name="패스 2229" d="M67.2,117.179l3.21.6a.318.318,0,0,0,.168-.614q-1.6-.3-3.21-.6a.329.329,0,0,0-.39.224.318.318,0,0,0,.222.39" transform="translate(-21.047 -51.399)" fill="#266935"/>
    </g>
    <path id="패스_2230" data-name="패스 2230" d="M48.676,91.093c30.067.244,60.132.582,90.2.826a.967.967,0,0,0,0-1.933c-30.065-.241-60.13-.582-90.2-.826a.967.967,0,0,0,0,1.933" transform="translate(-5825.387 -649.107)" fill="#231815"/>
    <path id="패스_2231" data-name="패스 2231" d="M85.05,90.739q-.738,50.53.483,101.062a.967.967,0,0,0,1.933,0q-1.225-50.523-.483-101.062a.967.967,0,0,0-1.933,0" transform="translate(-5772.168 -648.178)" fill="#231815"/>
    <path id="패스_2232" data-name="패스 2232" d="M48.562,133.121c30.616.863,61.188,1.8,91.816.846,1.238-.037,1.245-1.969,0-1.93-30.628.953-61.2.015-91.816-.848a.967.967,0,0,0,0,1.933" transform="translate(-5825.548 -588.706)" fill="#231815"/>
    <path id="패스_2233" data-name="패스 2233" d="M50.384,131.13a5.919,5.919,0,0,0-3.3.258,1,1,0,0,0-.675,1.189q.508,2.406,1.014,4.809a.976.976,0,0,0,.931.709c20.463.417,40.925.916,61.392,1.024,10.629.056,21.262.049,31.89-.139,2.637-.046,6.544-.451,5.818-4.094-.58-2.9-3.685-3.273-5.956-2.169-1.119.546-.139,2.211.975,1.669q3.648,2.691,1.119,2.583a14.149,14.149,0,0,1-1.955.078c-1.189.032-2.384.032-3.573.046q-3.177.037-6.354.061-6.028.051-12.059.054-11.523.011-23.048-.139c-16.085-.2-32.166-.58-48.249-.9q.468.355.931.709-.5-2.406-1.014-4.811l-.673,1.189,2.276-.261c1.216.2,1.74-1.662.514-1.862" transform="translate(-5827.346 -588.962)" fill="#231815"/>
    <path id="패스_2234" data-name="패스 2234" d="M141.034,95.391a5.919,5.919,0,0,0,3.3-.258,1,1,0,0,0,.675-1.189q-.508-2.406-1.014-4.809a.976.976,0,0,0-.931-.709C123.208,88.016,103.363,87.16,83.5,86.8c-10.4-.19-20.813-.261-31.218-.083-2.635.046-6.541.453-5.815,4.094.444,2.225,3.639,4.57,5.869,3.912a.966.966,0,0,0-.514-1.862,3.4,3.4,0,0,1-2.866-1.445c-1.411-3.22,1.911-2.732,3.327-2.766,2.342-.058,4.687-.054,7.026-.068q6.006-.037,12.015,0,11.673.073,23.346.407c16.134.431,32.261,1.038,48.4,1.37q-.468-.355-.931-.709.5,2.405,1.014,4.811l.673-1.189-2.276.261c-1.216-.2-1.74,1.662-.514,1.862" transform="translate(-5827.343 -652.769)" fill="#231815"/>
    <path id="패스_2235" data-name="패스 2235" d="M48.443,90.215q1.06,50.914-1.311,101.815c-.059,1.243,1.874,1.241,1.93,0q2.376-50.87,1.314-101.815a.967.967,0,0,0-1.933,0" transform="translate(-5826.265 -648.931)" fill="#231815"/>
    <path id="패스_2236" data-name="패스 2236" d="M47.247,121.728q49.035-.826,98.038,1.879c1.241.068,1.238-1.864,0-1.933q-48.969-2.7-98.038-1.879a.967.967,0,0,0,0,1.933" transform="translate(-5827.438 -605.357)" fill="#231815"/>
    <path id="패스_2237" data-name="패스 2237" d="M49.447,120.946c.373,9.027.836,18.055,1.1,27.084.037,1.241,1.969,1.245,1.933,0-.266-9.03-.726-18.057-1.1-27.084-.051-1.238-1.984-1.245-1.933,0" transform="translate(-5822.938 -604.764)" fill="#231815"/>
    <path id="패스_2238" data-name="패스 2238" d="M52.124,120.667A202.919,202.919,0,0,1,53.16,148.39c-.037,1.245,1.894,1.243,1.933,0a202.919,202.919,0,0,0-1.036-27.723c-.132-1.223-2.064-1.238-1.933,0" transform="translate(-5819.098 -605.152)" fill="#231815"/>
    <path id="패스_2239" data-name="패스 2239" d="M55.212,120.945q.691,13.852.451,27.728a.967.967,0,0,0,1.933,0q.241-13.87-.451-27.728c-.063-1.238-2-1.245-1.933,0" transform="translate(-5814.653 -604.765)" fill="#231815"/>
    <path id="패스_2240" data-name="패스 2240" d="M58.249,120.762q.428,13.753.851,27.508c.041,1.238,1.974,1.245,1.935,0q-.428-13.757-.853-27.508c-.039-1.24-1.972-1.245-1.933,0" transform="translate(-5810.287 -605.03)" fill="#231815"/>
    <path id="패스_2241" data-name="패스 2241" d="M61.309,120.49q.585,13.972-.024,27.954c-.054,1.243,1.879,1.241,1.933,0q.607-13.972.024-27.954c-.054-1.238-1.984-1.245-1.933,0" transform="translate(-5805.925 -605.419)" fill="#231815"/>
    <path id="패스_2242" data-name="패스 2242" d="M63.737,121.134a120.262,120.262,0,0,1,.543,27.893c-.119,1.236,1.813,1.228,1.933,0A122.27,122.27,0,0,0,65.6,120.62c-.168-1.226-2.03-.7-1.862.514" transform="translate(-5802.414 -604.9)" fill="#231815"/>
    <path id="패스_2243" data-name="패스 2243" d="M67.821,120.764q-.186,14.539-1.2,29.046c-.088,1.241,1.845,1.233,1.933,0q1.013-14.506,1.2-29.046a.967.967,0,0,0-1.933,0" transform="translate(-5798.26 -605.028)" fill="#231815"/>
    <path id="패스_2244" data-name="패스 2244" d="M70,120.854l.271,27.728a.967.967,0,0,0,1.933,0l-.271-27.728a.967.967,0,0,0-1.933,0" transform="translate(-5793.394 -604.898)" fill="#231815"/>
    <path id="패스_2245" data-name="패스 2245" d="M73.456,121.127q.029,13.643.061,27.284a.966.966,0,0,0,1.93,0q-.029-13.64-.059-27.284a.967.967,0,0,0-1.933,0" transform="translate(-5788.431 -604.506)" fill="#231815"/>
    <path id="패스_2246" data-name="패스 2246" d="M76.277,121.034l1.06,27.959c.046,1.241,1.979,1.245,1.933,0l-1.06-27.959c-.049-1.238-1.979-1.245-1.933,0" transform="translate(-5784.377 -604.637)" fill="#231815"/>
    <path id="패스_2247" data-name="패스 2247" d="M79.054,121.4A190.205,190.205,0,0,1,80.787,148.2a.967.967,0,0,0,1.933,0,193.837,193.837,0,0,0-1.8-27.309c-.166-1.226-2.028-.7-1.862.514" transform="translate(-5780.4 -604.513)" fill="#231815"/>
    <path id="패스_2248" data-name="패스 2248" d="M82.782,121.482a206.659,206.659,0,0,1,1.877,26.6.966.966,0,0,0,1.93,0,209.844,209.844,0,0,0-1.945-27.116c-.166-1.226-2.028-.7-1.862.514" transform="translate(-5775.042 -604.4)" fill="#231815"/>
    <path id="패스_2249" data-name="패스 2249" d="M144.434,92.111c-.212-1.6-.071-3.21-.283-4.809a1,1,0,0,0-.968-.97c-18.225-.375-36.443-1.119-54.671-1.526q-13.409-.3-26.824-.261-4.043.015-8.091.061c-1.645.022-3.67-.222-5.211.507C46,86.25,46.131,88.941,47.71,90.691c.834.921,2.2-.446,1.367-1.367q-.632-2.877,1.372-2.691a13.726,13.726,0,0,1,1.952-.076c1.184-.032,2.376-.032,3.561-.039,2.094-.024,4.189-.034,6.285-.041q5.9-.022,11.8.034c7.4.063,14.794.219,22.188.422,15.649.434,31.3,1.014,46.952,1.333l-.963-.963c.21,1.6.071,3.2.28,4.809.161,1.216,2.094,1.228,1.933,0" transform="translate(-5827.094 -655.749)" fill="#231815"/>
    <path id="패스_2250" data-name="패스 2250" d="M144.434,90c-.212-1.6-.071-3.207-.283-4.809a1,1,0,0,0-.968-.968c-18.225-.375-36.443-1.119-54.671-1.526q-13.409-.3-26.824-.263-4.043.015-8.091.063c-1.645.022-3.67-.224-5.211.507-2.388,1.133-2.257,3.826-.678,5.574.834.924,2.2-.446,1.367-1.367q-.632-2.877,1.372-2.688a14.092,14.092,0,0,1,1.952-.078c1.184-.029,2.376-.029,3.561-.039q3.14-.033,6.285-.041,5.9-.018,11.8.034,11.1.1,22.188.424c15.649.431,31.3,1.011,46.952,1.333l-.963-.965c.21,1.6.071,3.2.28,4.809.161,1.216,2.094,1.231,1.933,0" transform="translate(-5827.094 -658.779)" fill="#231815"/>
  </g>
</svg>
