<svg xmlns="http://www.w3.org/2000/svg" width="101.72" height="126.536" viewBox="0 0 101.72 126.536">
  <g id="그룹_1809" data-name="그룹 1809" transform="translate(5669.055 576.349)">
    <path id="패스_2368" data-name="패스 2368" d="M94.823,91.093c30.067.244,60.132.582,90.2.826a.967.967,0,0,0,0-1.933c-30.067-.241-60.132-.582-90.2-.826a.967.967,0,0,0,0,1.933" transform="translate(-5759.063 -649.107)" fill="#231815"/>
    <path id="패스_2369" data-name="패스 2369" d="M131.2,90.739q-.738,50.53.483,101.062a.967.967,0,0,0,1.933,0q-1.225-50.523-.483-101.062a.967.967,0,0,0-1.933,0" transform="translate(-5705.844 -648.178)" fill="#231815"/>
    <path id="패스_2370" data-name="패스 2370" d="M94.711,133.121c30.616.863,61.188,1.8,91.816.846,1.238-.037,1.245-1.969,0-1.93-30.628.953-61.2.015-91.816-.848a.967.967,0,0,0,0,1.933" transform="translate(-5759.224 -588.706)" fill="#231815"/>
    <path id="패스_2371" data-name="패스 2371" d="M96.533,131.13a5.919,5.919,0,0,0-3.3.258,1,1,0,0,0-.675,1.189q.508,2.406,1.014,4.809a.976.976,0,0,0,.931.709c20.463.417,40.925.916,61.392,1.024,10.629.056,21.262.049,31.89-.139,2.637-.046,6.544-.451,5.818-4.094-.58-2.9-3.685-3.273-5.956-2.169-1.119.546-.139,2.211.975,1.669q3.648,2.691,1.119,2.583a14.149,14.149,0,0,1-1.955.078c-1.189.032-2.384.032-3.573.046q-3.177.037-6.354.061-6.028.051-12.059.054-11.523.011-23.048-.139c-16.085-.2-32.166-.58-48.249-.9q.468.355.931.709-.5-2.406-1.011-4.811c-.227.4-.451.792-.675,1.189l2.276-.261c1.216.2,1.74-1.662.514-1.862" transform="translate(-5761.022 -588.962)" fill="#231815"/>
    <path id="패스_2372" data-name="패스 2372" d="M187.182,95.391a5.919,5.919,0,0,0,3.3-.258,1,1,0,0,0,.675-1.189q-.508-2.406-1.014-4.809a.976.976,0,0,0-.931-.709c-19.861-.409-39.706-1.265-59.567-1.628-10.4-.19-20.813-.261-31.218-.083-2.635.046-6.541.453-5.815,4.094.444,2.225,3.639,4.57,5.869,3.912a.966.966,0,0,0-.514-1.862,3.4,3.4,0,0,1-2.866-1.445c-1.411-3.22,1.911-2.732,3.327-2.766,2.342-.058,4.687-.054,7.026-.068q6.006-.037,12.015,0,11.673.073,23.346.407c16.132.431,32.261,1.038,48.4,1.37q-.468-.355-.931-.709.5,2.405,1.011,4.811c.227-.4.451-.792.675-1.189l-2.276.261c-1.216-.2-1.74,1.662-.514,1.862" transform="translate(-5761.02 -652.769)" fill="#231815"/>
    <path id="패스_2373" data-name="패스 2373" d="M94.592,90.215q1.06,50.914-1.311,101.815c-.059,1.243,1.874,1.241,1.93,0q2.376-50.87,1.314-101.815a.967.967,0,0,0-1.933,0" transform="translate(-5759.941 -648.931)" fill="#231815"/>
    <path id="패스_2374" data-name="패스 2374" d="M93.4,121.728q49.035-.826,98.04,1.879c1.241.068,1.236-1.864,0-1.933q-48.973-2.7-98.04-1.879a.967.967,0,0,0,0,1.933" transform="translate(-5761.116 -605.357)" fill="#231815"/>
    <path id="패스_2375" data-name="패스 2375" d="M95.6,120.946c.373,9.027.836,18.055,1.1,27.084.037,1.241,1.969,1.245,1.933,0-.266-9.03-.726-18.057-1.1-27.084-.051-1.238-1.984-1.245-1.933,0" transform="translate(-5756.614 -604.764)" fill="#231815"/>
    <path id="패스_2376" data-name="패스 2376" d="M92.3,121.214c.373,9.027.836,18.055,1.1,27.084.037,1.241,1.969,1.245,1.933,0-.266-9.03-.726-18.057-1.1-27.084-.051-1.238-1.984-1.245-1.933,0" transform="translate(-5761.353 -604.378)" fill="#231815"/>
    <path id="패스_2377" data-name="패스 2377" d="M98.273,120.667a202.918,202.918,0,0,1,1.036,27.723c-.037,1.245,1.894,1.243,1.933,0a202.918,202.918,0,0,0-1.036-27.723c-.132-1.223-2.064-1.238-1.933,0" transform="translate(-5752.774 -605.152)" fill="#231815"/>
    <path id="패스_2378" data-name="패스 2378" d="M101.36,120.945q.691,13.852.451,27.728a.967.967,0,0,0,1.933,0q.241-13.87-.451-27.728c-.063-1.238-2-1.245-1.933,0" transform="translate(-5748.331 -604.765)" fill="#231815"/>
    <path id="패스_2379" data-name="패스 2379" d="M104.4,120.762q.428,13.753.853,27.508c.039,1.238,1.972,1.245,1.933,0q-.428-13.757-.853-27.508c-.039-1.24-1.972-1.245-1.933,0" transform="translate(-5743.964 -605.03)" fill="#231815"/>
    <path id="패스_2380" data-name="패스 2380" d="M107.457,120.49q.585,13.972-.024,27.954c-.054,1.243,1.879,1.241,1.933,0q.607-13.972.024-27.954c-.054-1.238-1.984-1.245-1.933,0" transform="translate(-5739.602 -605.419)" fill="#231815"/>
    <path id="패스_2381" data-name="패스 2381" d="M109.886,121.134a120.261,120.261,0,0,1,.543,27.893c-.119,1.236,1.813,1.228,1.933,0a122.27,122.27,0,0,0-.614-28.408c-.168-1.226-2.03-.7-1.862.514" transform="translate(-5736.09 -604.9)" fill="#231815"/>
    <path id="패스_2382" data-name="패스 2382" d="M113.97,120.764q-.186,14.539-1.2,29.046c-.088,1.241,1.845,1.233,1.933,0q1.013-14.506,1.2-29.046a.967.967,0,0,0-1.933,0" transform="translate(-5731.936 -605.028)" fill="#231815"/>
    <path id="패스_2383" data-name="패스 2383" d="M116.152,120.854l.271,27.728a.967.967,0,0,0,1.933,0q-.135-13.863-.271-27.728a.967.967,0,0,0-1.933,0" transform="translate(-5727.069 -604.898)" fill="#231815"/>
    <path id="패스_2384" data-name="패스 2384" d="M119.605,121.127q.029,13.643.061,27.284a.966.966,0,0,0,1.93,0q-.029-13.64-.058-27.284a.967.967,0,0,0-1.933,0" transform="translate(-5722.107 -604.506)" fill="#231815"/>
    <path id="패스_2385" data-name="패스 2385" d="M122.425,121.034l1.06,27.959c.046,1.241,1.979,1.245,1.933,0l-1.06-27.959c-.049-1.238-1.979-1.245-1.933,0" transform="translate(-5718.055 -604.637)" fill="#231815"/>
    <path id="패스_2386" data-name="패스 2386" d="M125.2,121.4a190.209,190.209,0,0,1,1.733,26.794.967.967,0,0,0,1.933,0,193.84,193.84,0,0,0-1.8-27.309c-.166-1.226-2.028-.7-1.862.514" transform="translate(-5714.076 -604.513)" fill="#231815"/>
    <path id="패스_2387" data-name="패스 2387" d="M128.931,121.482a206.667,206.667,0,0,1,1.877,26.6.967.967,0,0,0,1.933,0,210.282,210.282,0,0,0-1.947-27.116c-.166-1.226-2.028-.7-1.862.514" transform="translate(-5708.719 -604.4)" fill="#231815"/>
    <path id="패스_2388" data-name="패스 2388" d="M133.144,121.673a74.331,74.331,0,0,1,.29,12.988c-.1,2.086-.219,4.17-.31,6.256-.044,1.043-.085,2.086-.1,3.132-.007.341.224,3.28.007,3.439-.985.734-.022,2.41.977,1.669,1.5-1.111.916-3.475.948-5.108.049-2.525.193-5.045.322-7.565a82.589,82.589,0,0,0-.2-14.811c-.156-1.216-2.091-1.231-1.933,0" transform="translate(-5703.407 -603.699)" fill="#231815"/>
    <path id="패스_2389" data-name="패스 2389" d="M190.581,92.111c-.212-1.6-.071-3.21-.283-4.809a1,1,0,0,0-.965-.97c-18.228-.375-36.445-1.119-54.673-1.526q-13.409-.3-26.824-.261-4.043.015-8.089.061c-1.648.022-3.673-.222-5.208.507-2.391,1.136-2.262,3.826-.682,5.576.836.921,2.2-.446,1.367-1.367q-.632-2.877,1.372-2.691a13.76,13.76,0,0,1,1.955-.076c1.184-.032,2.374-.032,3.558-.039,2.1-.024,4.192-.034,6.285-.041q5.9-.022,11.8.034c7.394.063,14.791.219,22.186.422,15.652.434,31.3,1.014,46.955,1.333l-.965-.963c.21,1.6.071,3.2.28,4.809.161,1.216,2.1,1.228,1.933,0" transform="translate(-5760.771 -655.749)" fill="#231815"/>
    <path id="패스_2390" data-name="패스 2390" d="M190.581,90c-.212-1.6-.071-3.207-.283-4.809a.992.992,0,0,0-.965-.968c-18.228-.375-36.445-1.119-54.673-1.526q-13.409-.3-26.824-.263-4.043.015-8.089.063c-1.648.022-3.673-.224-5.208.507-2.391,1.133-2.262,3.826-.682,5.574.836.924,2.2-.446,1.367-1.367q-.632-2.877,1.372-2.688a14.127,14.127,0,0,1,1.955-.078c1.184-.029,2.374-.029,3.558-.039q3.144-.033,6.285-.041,5.9-.018,11.8.034,11.092.1,22.186.424c15.652.431,31.3,1.011,46.955,1.333l-.965-.965c.21,1.6.071,3.2.28,4.809.161,1.216,2.1,1.231,1.933,0" transform="translate(-5760.771 -658.779)" fill="#231815"/>
  </g>
</svg>
