<svg xmlns="http://www.w3.org/2000/svg" xmlns:xlink="http://www.w3.org/1999/xlink" width="101.72" height="126.536" viewBox="0 0 101.72 126.536">
  <defs>
    <clipPath id="clip-path">
      <rect id="사각형_1851" data-name="사각형 1851" width="90.205" height="102.598" fill="none"/>
    </clipPath>
  </defs>
  <g id="그룹_1809" data-name="그룹 1809" transform="translate(5669.055 576.349)">
    <g id="그룹_1058" data-name="그룹 1058" transform="translate(-5664.243 -558.332)" clip-path="url(#clip-path)">
      <rect id="사각형_1850" data-name="사각형 1850" width="90.202" height="102.598" transform="translate(0 0.002)" fill="#ff7266"/>
      <path id="패스_2345" data-name="패스 2345" d="M104.907,127.175c.526-.3,1.1-.617,1.706-.919.553-.273,1.253-.3,1.862-.57.57-.253,1.094-.663,1.708-.912.582-.234,1.165-.522,1.782-.748.592-.219,1.316-.1,1.935-.312.6-.2,1.1-.751,1.723-.943s1.328-.015,1.95-.19,1.109-.814,1.733-.977,1.3-.144,1.923-.29,1.228-.448,1.857-.578,1.287-.192,1.918-.3,1.314.01,1.947-.085,1.277-.234,1.911-.307c.651-.073,1.309.058,1.942.01.656-.051,1.282-.341,1.916-.361.66-.022,1.306.124,1.935.139.663.015,1.3.041,1.921.1.663.061,1.331-.061,1.938.051.024,0,.69.392,1.757.951.495.261.931.838,1.574,1.2.526.3,1.277.312,1.874.675.536.324.951.9,1.521,1.275.536.349,1.136.629,1.687,1.014.529.37,1.194.58,1.725.982s.972.894,1.479,1.319.8,1.077,1.279,1.526,1.043.816,1.487,1.294,1.068.836,1.462,1.348A16.737,16.737,0,0,1,155.5,133.2a12.109,12.109,0,0,1,.495,1.94c.241.626.88,1.272.975,1.913-.5.249-1.321.424-2.006.69-.558.217-1.248.214-1.911.439-.583.2-1.126.636-1.779.836-.6.183-1.289.136-1.94.319-.609.173-1.143.692-1.789.863-.617.163-1.228.412-1.874.573-.621.156-1.3.127-1.945.278-.624.149-1.231.407-1.869.551s-1.311.068-1.95.2-1.262.322-1.9.451-1.25.412-1.891.536-1.362-.166-2-.049-1.26.39-1.9.5-1.26.417-1.9.517-1.355-.158-1.991-.066c-.66.1-1.26.534-1.894.617-.665.085-1.326.088-1.959.158-.673.076-1.309.331-1.935.385-.678.061-1.34.029-1.957.063-.692.039-1.465.1-2.067.1a7.428,7.428,0,0,0-.256-1.981c-.19-.514-.341-1.136-.614-1.74-.239-.531-.916-.89-1.2-1.455-.275-.536-.271-1.238-.58-1.774s-.556-1.119-.887-1.626c-.346-.529-1-.824-1.365-1.287a16.619,16.619,0,0,0-1.024-1.55,4.98,4.98,0,0,0-1.56-.929,13.4,13.4,0,0,0-1.457-1.443c-.475-.395-1.194-.636-1.73-1.092s-.8-1.231-1.26-1.638a9.546,9.546,0,0,1-1.345-1.209c-.007-.08-.314-.122-.314-.122" transform="translate(-78.988 -46.905)" fill="#bad42e" fill-rule="evenodd"/>
      <path id="패스_2346" data-name="패스 2346" d="M118.228,146.826c-.409-.361-.2-.509-.263-1.05a6.885,6.885,0,0,0-.431-1.843c-.207-.529-.444-1.133-.738-1.757-.263-.553-.729-1.041-1.041-1.623-.3-.563-.29-1.319-.621-1.864-.341-.565-.814-1.046-1.17-1.55a16.22,16.22,0,0,0-1.15-1.565,4.547,4.547,0,0,0-1.613-1.043,7.321,7.321,0,0,0-1.314-1.37c-.439-.349-1.236-.385-1.752-.814-.475-.395-.721-1.1-1.184-1.509-.5-.446-.953-.894-1.343-1.3-.629-.648-.938-1.1-.948-1.411-.012-.368-.346-.366-.166-.685s.227-.258.546-.444c.534-.3,1.119-.612,1.747-.921.561-.278,1.148-.585,1.777-.863.58-.256,1.148-.619,1.779-.872.595-.239,1.37-.059,2-.292.607-.222,1.2-.495,1.84-.709.614-.21,1.189-.57,1.825-.768s1.3-.212,1.935-.395,1.2-.58,1.845-.746,1.284-.3,1.928-.451,1.284-.312,1.93-.446,1.262-.463,1.911-.58,1.331-.112,1.979-.207,1.36.163,2.011.09,1.314-.175,1.962-.224c.67-.049,1.321-.112,1.969-.132.678-.02,1.328-.056,1.977-.039.675.017,1.362-.353,2-.292.678.063,1.323.31,1.95.426a9.33,9.33,0,0,1,1.828.734c.487.249,1.07.548,1.706.9.519.285.892.941,1.482,1.289.529.312,1.248.378,1.816.736.529.334.838,1.041,1.387,1.411.524.356,1.265.424,1.794.812s1.009.807,1.518,1.214.965.865,1.448,1.3,1.133.7,1.589,1.158.9.965,1.321,1.45.819,1.041,1.189,1.56c.38.536.378,1.3.682,1.86.314.58.931,1.009,1.145,1.606a10.415,10.415,0,0,1,.078,1.972c.066.436.473.4.268.792s-.19.475-.585.675c-.509.256-1.221.319-1.911.587-.565.222-1.17.512-1.84.738-.592.2-1.267.263-1.93.468-.607.185-1.262.3-1.921.485-.619.175-1.187.6-1.842.775-.624.166-1.28.285-1.933.448-.631.158-1.233.49-1.884.646-.634.149-1.328.061-1.977.207s-1.328.076-1.977.214-1.3.239-1.945.37-1.214.7-1.862.824-1.34.068-1.989.185-1.284.385-1.933.495-1.362-.083-2.011.02-1.323.166-1.969.258c-.668.1-1.3.385-1.942.468-.675.088-1.338.149-1.979.222-.68.076-1.345.1-1.981.161-.69.061-1.345.183-1.969.217-.7.039-1.377-.046-1.986-.039-.548.151-.653.39-1.063.032m-5.871-14.482a6.26,6.26,0,0,1,1.56.965,15.335,15.335,0,0,1,1.15,1.435c.37.453.714.96,1.07,1.479.341.495.841.909,1.16,1.438s.288,1.248.575,1.782c.3.556.695,1.038.951,1.577.275.582.461,1.167.675,1.7.258.631.636,1.106.787,1.609.6-.022,1.228.219,1.908.168.612-.046,1.211-.573,1.877-.641.619-.063,1.3.236,1.957.156.621-.076,1.265-.141,1.916-.232.624-.088,1.272-.112,1.918-.21.629-.1,1.245-.327,1.886-.431.624-.1,1.236-.331,1.869-.444s1.26-.222,1.894-.341,1.258-.268,1.889-.392,1.241-.363,1.869-.495,1.358.171,1.984.034,1.255-.336,1.877-.478,1.223-.456,1.84-.6c.636-.154,1.306-.139,1.918-.295.641-.161,1.206-.553,1.813-.717.641-.175,1.267-.324,1.864-.5.643-.188,1.253-.395,1.838-.58.651-.207,1.192-.607,1.757-.809.66-.236,1.238-.307,1.765-.534a8.842,8.842,0,0,0-.409-1.874,14.318,14.318,0,0,0-1.072-1.652,19.048,19.048,0,0,0-1.25-1.509c-.424-.475-.907-.931-1.382-1.387s-1.216-.578-1.713-1-.892-.946-1.406-1.343-1.111-.685-1.635-1.055-1.075-.743-1.606-1.094c-.563-.37-.907-1.046-1.44-1.372-.585-.358-1.306-.417-1.835-.717-.621-.353-.994-1.038-1.5-1.306a10.892,10.892,0,0,0-1.889-.514c-.6-.107-1.2-.224-1.847-.28-.609-.054-1.233-.141-1.879-.154-.614-.012-1.236.236-1.879.261-.619.022-1.238.037-1.877.088-.619.051-1.241.085-1.874.161s-1.3-.249-1.928-.151-1.177.578-1.8.692-1.319-.166-1.938-.034-1.209.4-1.821.543-1.141.648-1.75.809-1.28.112-1.882.288-1.2.424-1.794.614-1.26.253-1.852.456-1.231.351-1.811.568c-.6.227-1.1.7-1.669.933-.6.246-1.2.448-1.75.7-.6.271-.938.5-1.472.765.446.392.738.8,1.3,1.28.534.453.946,1.077,1.435,1.489.712.595,1.411.96,1.665,1.163" transform="translate(-79.66 -47.679)" fill="#84c02d"/>
      <path id="패스_2347" data-name="패스 2347" d="M143.877,109.206a18.139,18.139,0,0,1,.6,1.821c.173.539.495,1.116.687,1.8.161.578.536,1.148.707,1.808.156.595.122,1.272.28,1.92.149.607.392,1.214.544,1.857.144.614.373,1.226.517,1.864.139.617-.115,1.331.022,1.962s.49,1.209.624,1.843.349,1.248.478,1.879.032,1.319.154,1.947.563,1.221.68,1.85c.119.646,0,1.328.107,1.95.115.656.078,1.319.178,1.935.11.668.166,1.314.253,1.923.1.68.334,1.3.4,1.889.085.717.4,1.343.434,1.9a7.261,7.261,0,0,1-.178,2.086c-.631.054-1.353-.01-1.991.029s-1.26.136-1.9.171-1.255.161-1.9.2-1.253.124-1.894.168c-.624.044-1.292-.344-1.933-.285s-1.258.21-1.9.285c-.624.073-1.221.431-1.864.529-.621.093-1.289-.044-1.933.076-.617.115-1.255.2-1.891.344-.612.136-1.267.166-1.9.334-.6.161-1.138.629-1.765.821-.6.185-1.3.122-1.918.336-.592.207-1.15.558-1.762.795-.585.227-1.189.446-1.791.7-.578.246-1.067.717-1.662.992-.57.263-1.3.234-1.881.526-.563.28-.987.855-1.565,1.163-.556.3-1.243.38-1.816.7-.546.312-1.128.595-1.691.931-.541.327-1.05.734-1.606,1.085-.534.339-.9.953-1.453,1.314-.59.39-1.228,0-1.889-.3a4.591,4.591,0,0,1-1.626-1,14.871,14.871,0,0,1-1.131-1.6c-.353-.5-.975-.892-1.333-1.5-.319-.543-.624-1.138-.943-1.75-.3-.565-.721-1.1-1.014-1.716-.28-.585-.2-1.35-.475-1.967-.263-.595-.758-1.1-1.014-1.721s-.458-1.233-.7-1.85-.183-1.345-.414-1.964-.873-1.1-1.094-1.721-.175-1.353-.385-1.977-.573-1.219-.773-1.84c-.21-.643-.353-1.294-.543-1.911-.2-.653-.539-1.248-.717-1.862-.193-.668.039-1.423-.127-2.033-.183-.68-.785-1.209-.929-1.8-.175-.721-.032-1.433-.141-1.994a16.227,16.227,0,0,1-.417-1.933,6.373,6.373,0,0,1,.665-1.8c.21-.585.129-1.338.5-1.894a11.557,11.557,0,0,1,1.206-1.54,16.531,16.531,0,0,1,1.5-1.231c.478-.39,1.08-.66,1.628-1.031.517-.349,1.016-.758,1.587-1.087.541-.312,1.136-.563,1.723-.858.563-.28,1.043-.775,1.643-1.038.578-.256,1.233-.368,1.84-.607.59-.229,1.228-.349,1.84-.563s1.165-.548,1.784-.738,1.253-.283,1.874-.456,1.255-.273,1.882-.427,1.2-.541,1.828-.678,1.3-.066,1.935-.183,1.277-.173,1.911-.273,1.3,0,1.933-.083,1.265-.285,1.9-.346,1.28-.214,1.916-.256c.653-.041,1.3.015,1.933,0,.66-.02,1.3-.01,1.938,0,.66.007,1.3.041,1.928.078.66.039,1.331-.214,1.95-.141.665.078,1.258.487,1.867.607a17.221,17.221,0,0,1,1.838.531,14.858,14.858,0,0,1,1.9.392,7.428,7.428,0,0,1,1.565,1.128,4.529,4.529,0,0,1,1.163,1.494c0,.01.012,0,.012,0" transform="translate(-90.8 -67.947)" fill="#bad42e" fill-rule="evenodd"/>
      <path id="패스_2348" data-name="패스 2348" d="M111.808,155.137c-.573,0-1.072-.587-1.657-.916a5.94,5.94,0,0,1-1.687-.946,14.009,14.009,0,0,1-1.311-1.453c-.356-.49-.383-1.255-.738-1.835-.324-.526-.992-.89-1.314-1.477-.3-.548-.5-1.18-.8-1.772-.28-.565-.4-1.223-.68-1.821-.266-.578-.782-1.058-1.041-1.657s-.041-1.375-.288-1.977-.626-1.128-.858-1.733-.753-1.1-.975-1.7-.18-1.316-.392-1.923-.714-1.133-.916-1.743-.314-1.272-.507-1.877c-.2-.629-.19-1.309-.37-1.911-.193-.639-.324-1.272-.492-1.872-.185-.651-.436-1.253-.592-1.85-.173-.663-.175-1.323-.31-1.9-.161-.7-.378-1.309-.478-1.86a7.581,7.581,0,0,1-.073-1.877,7.092,7.092,0,0,1,.307-1.842,8.062,8.062,0,0,1,.763-1.716,10.612,10.612,0,0,1,.831-1.75,14.463,14.463,0,0,1,1.275-1.47,19.5,19.5,0,0,1,1.457-1.3c.5-.375,1.067-.726,1.626-1.077.536-.336,1.167-.553,1.747-.868.556-.3,1.292-.271,1.884-.553.573-.273.965-.972,1.567-1.226s1.28-.253,1.889-.483,1.182-.509,1.8-.717,1.292-.19,1.913-.375,1.238-.346,1.862-.514,1.165-.678,1.791-.826,1.275-.258,1.9-.39c.609-.127,1.289.1,1.908-.007s1.221-.253,1.84-.346,1.189-.558,1.808-.636,1.294.3,1.916.246,1.241-.19,1.862-.229,1.245-.261,1.867-.28,1.265-.227,1.882-.222c.641.007,1.265.3,1.882.329.639.034,1.272-.017,1.882.046.639.068,1.294-.022,1.894.08.641.11,1.167.648,1.755.8a17.161,17.161,0,0,1,1.828.4,10.7,10.7,0,0,1,1.594.958c.565.334,1.36.336,1.784.756.453.451.478,1.219.746,1.774l.346-.168c.193.4.244,1.119.5,1.935.178.551.275,1.214.473,1.918.168.59.582,1.165.76,1.845.161.609.024,1.326.19,1.994.154.621.266,1.272.422,1.933.151.629.709,1.18.858,1.835.144.631-.161,1.375-.017,2.023s.568,1.226.7,1.874.085,1.336.217,1.986.19,1.319.314,1.964.639,1.238.758,1.881c.122.665-.151,1.387-.041,2.025.117.673.639,1.262.738,1.9.11.685.219,1.348.3,1.974.1.7.059,1.375.124,1.981.078.736.156,1.4.18,1.979a5.061,5.061,0,0,1-.461,1.906c-.107.419.414.692.085.972s-.475.175-.907.212c-.726.063-1.46.151-2.2.195s-1.484-.419-2.223-.378c-.641.034-1.284.146-1.94.185-.639.039-1.272.29-1.928.339-.636.049-1.3-.051-1.952.015s-1.255.412-1.916.5c-.636.085-1.311-.041-1.969.068-.631.107-1.292.156-1.945.29-.624.129-1.292.166-1.94.324-.619.154-1.214.487-1.855.673-.617.18-1.209.48-1.845.692-.607.2-1.26.317-1.889.551-.6.224-1.08.775-1.7,1.031-.59.246-1.2.461-1.808.738-.582.266-1.255.368-1.855.663-.573.283-1.2.495-1.791.807-.568.3-1.109.682-1.694,1.011-.558.317-1.148.607-1.723.951-.553.331-.938.953-1.506,1.311-.546.344-1.182.565-1.743.936a3.417,3.417,0,0,1-1.723.675m19.839-47.781c-.663,0-1.35-.434-2.047-.4-.663.027-1.323.4-2.016.461-.668.054-1.331.21-2.02.288-.668.076-1.394-.234-2.079-.134-.668.1-1.277.6-1.959.721-.665.117-1.353.139-2.028.28-.646.134-1.326.112-1.972.268s-1.211.587-1.847.763-1.416-.119-2.045.076-1.223.556-1.843.77-1.145.741-1.755.977c-.626.246-1.343.241-1.938.5-.617.273-1.082.829-1.657,1.121-.607.307-1.226.531-1.779.858-.59.349-1.26.531-1.782.9a17.288,17.288,0,0,0-1.591,1.2,11.679,11.679,0,0,0-1.309,1.5,8.186,8.186,0,0,0-1.17,1.628,5.518,5.518,0,0,0-.378,1.979,7.423,7.423,0,0,0,.122,1.913c.11.534.258,1.16.429,1.847.141.565.285,1.187.463,1.838.158.578.641,1.1.826,1.733.171.585.444,1.163.634,1.784.18.587.444,1.167.641,1.779.188.587.356,1.189.558,1.791s.278,1.228.49,1.828.083,1.314.3,1.908.89,1.021,1.116,1.611.232,1.277.468,1.86.553,1.153.8,1.728c.256.592.312,1.262.57,1.825.275.592.539,1.18.816,1.728.295.59.914.985,1.211,1.511.329.585.619,1.138.946,1.633.38.578.48,1.306.851,1.738a5.89,5.89,0,0,0,1.492,1.25c.522.295.726-.171.851-.251.548-.361,1.331-.331,1.864-.668.556-.351,1.055-.756,1.6-1.08.563-.339,1.019-.829,1.567-1.141.57-.327,1.038-.814,1.594-1.114.58-.312,1.28-.368,1.843-.653.587-.295,1.124-.665,1.694-.931.595-.278,1.111-.7,1.687-.953.6-.261,1.355-.117,1.94-.346.612-.241,1.15-.626,1.743-.834.619-.219,1.282-.251,1.881-.439.626-.2,1.106-.838,1.713-1,.634-.173,1.367.1,1.979-.046.639-.149,1.184-.658,1.8-.777.641-.124,1.314-.037,1.935-.134.646-.1,1.3-.1,1.923-.173.646-.08,1.255-.4,1.881-.458.651-.063,1.316.195,1.95.149s1.277-.044,1.906-.08,1.253-.49,1.882-.522c.558-.032,1.136.4,1.684.366s1.033-.339,1.574-.378a14.5,14.5,0,0,0,.029-1.9c-.063-.578-.071-1.238-.168-1.94-.085-.6-.57-1.184-.678-1.857-.1-.614.188-1.318.073-1.981-.107-.621-.634-1.189-.753-1.843-.112-.626-.244-1.262-.366-1.911-.119-.629-.127-1.287-.253-1.928s-.278-1.267-.409-1.906.1-1.355-.029-1.989-.612-1.206-.753-1.835c-.141-.646-.4-1.253-.541-1.874-.151-.653-.339-1.277-.487-1.891-.161-.66.168-1.416.012-2.02-.171-.668-.417-1.28-.58-1.862-.193-.692-.58-1.26-.756-1.808-.251-.78-.341-1.46-.541-1.874-.239-.495-.841-.763-1.387-1.155a6.8,6.8,0,0,0-1.477-1.038,13.155,13.155,0,0,0-1.713-.629c-.551-.139-1.138-.375-1.767-.475-.568-.093-1.2,0-1.823-.063-.583-.056-1.2.015-1.823-.012-.587-.027-1.194.2-1.818.2" transform="translate(-91.35 -68.8)" fill="#84c02d"/>
      <path id="패스_2349" data-name="패스 2349" d="M97.318,110.888c-.234.439-.007,1.25-.168,2.037-.117.563-.056,1.214-.134,1.93-.066.6-.066,1.233-.1,1.928-.037.614-.743,1.238-.758,1.921-.012.624.088,1.284.093,1.959,0,.631.3,1.282.319,1.95.017.636-.166,1.3-.134,1.964.032.639.444,1.267.487,1.93.041.639-.21,1.309-.156,1.964s.015,1.3.078,1.957-.019,1.311.056,1.964.378,1.267.461,1.921.322,1.272.417,1.92.044,1.316.146,1.962.66,1.214.775,1.86.173,1.294.3,1.935,0,1.34.132,1.981.151,1.316.3,1.955.4,1.26.565,1.894.275,1.294.451,1.921.79,1.143.98,1.762c.195.636.188,1.318.395,1.933s.258,1.306.485,1.908c.234.624.373,1.275.621,1.864.261.614.714,1.128.989,1.706.288.6.851,1.038,1.158,1.594.324.59.407,1.282.753,1.811.368.565.848,1,1.238,1.5a14.064,14.064,0,0,0,1.375,1.333c.49.47.668,1.333,1.189,1.674.919.4,1.063.061,2,.417s.98.236,1.916.59.824.653,1.762,1.007,1.1-.073,2.04.28.816.673,1.755,1.026.865.546,1.8.9.914.409,1.85.763,1.016.154,1.957.509,1.07.02,2.011.375.926.412,1.869.768.88.534,1.823.89a9.171,9.171,0,0,0,5.12.02c.921-.18.792.507,1.967.319.524-.083,1.128-.307,1.83-.424.568-.1,1.121-.587,1.784-.7.585-.1,1.262.136,1.906.022.6-.1,1.226-.154,1.862-.268.6-.112,1.253-.046,1.881-.166.607-.115,1.143-.658,1.767-.782.607-.119,1.3.141,1.916.015s1.189-.444,1.806-.575,1.238-.232,1.85-.37,1.16-.6,1.767-.741,1.348.178,1.95.027c.619-.156,1.116-.746,1.711-.907.624-.168,1.333.015,1.92-.158.629-.183,1.26-.307,1.833-.495.629-.207,1.194-.531,1.745-.741.641-.246,1.038-.9,1.548-1.153.656-.322,1.548-.107,1.945-.429a8.023,8.023,0,0,0,1.1-1.725,12.089,12.089,0,0,0,1.089-1.672c.251-.568.068-1.348.28-2,.195-.6.4-1.211.556-1.872.149-.621.08-1.287.19-1.95.1-.638.741-1.214.807-1.879.063-.648-.253-1.331-.229-2s.088-1.3.066-1.967.385-1.353.319-2.008-.634-1.026-.751-1.672a15.362,15.362,0,0,1-1.6.607c-.539.266-1.046.729-1.691.992-.57.234-1.214.39-1.857.619-.587.21-1.138.629-1.782.833-.6.2-1.4-.193-2.04,0-.612.18-1.06.977-1.7,1.153-.617.168-1.355-.068-2,.1-.624.161-1.2.556-1.835.712s-1.355-.124-1.991.022-1.133.868-1.772,1.007-1.267.312-1.906.444-1.316.1-1.955.229-1.323.054-1.959.173-1.267.358-1.9.473-1.306.146-1.94.251c-.656.11-1.245.558-1.877.656-.66.1-1.34,0-1.969.09-.665.1-1.333.034-1.957.117-.678.088-1.3.375-1.921.446-.685.078-1.35.015-1.955.071-.707.066-1.326.037-1.9.066-.188-.619-.707-1.08-.931-1.674s-.207-1.3-.47-1.877-.485-1.2-.785-1.757-.4-1.272-.734-1.813-.86-.992-1.226-1.511-.872-.96-1.27-1.46-.724-1.075-1.145-1.55-.855-.97-1.3-1.423-.907-.924-1.372-1.353-1.245-.534-1.73-.943-.712-1.17-1.211-1.555-.97-.88-1.484-1.245c-.531-.378-1.316-.375-1.84-.719-.551-.361-1-.843-1.535-1.165-.568-.346-1.106-.7-1.645-1-.587-.331-1.16-.626-1.7-.909-.6-.314-1.265-.419-1.8-.675-.643-.312-1.15-.736-1.657-.963-.777-.349-1.343-.617-1.711-.782-.132-.634-.543-1.194-.709-1.845-.158-.626.185-1.4,0-2.045-.18-.621-.563-1.2-.775-1.838-.2-.614-.334-1.275-.565-1.906-.224-.607-.736-1.116-.989-1.738-.241-.6-.127-1.367-.4-1.981-.258-.595-1.133-.921-1.418-1.528-.275-.585-.093-1.4-.392-2-.29-.582-.573-1.184-.887-1.779-.3-.573-.539-1.2-.865-1.789s-.807-1.058-1.148-1.638c-.329-.563-.812-1.038-1.163-1.611a.814.814,0,0,0-.258-.188" transform="translate(-91.571 -59.549)" fill="#84c02d" fill-rule="evenodd"/>
      <path id="패스_2350" data-name="패스 2350" d="M116.645,116.6c.083.7.039,1.382.1,2.023.063.695.146,1.357.195,2,.054.69.007,1.362.068,2.008.066.675.136,1.338.239,1.989s.388,1.27.556,1.925c.1.378.582.726,1.428,1.16.49.251,1.019.663,1.7.958.543.234,1.148.47,1.789.743.561.241,1.226.341,1.845.619.568.253,1.072.707,1.677.994.568.273,1.163.526,1.755.834.561.292,1.17.524,1.743.853.553.314,1.158.573,1.713.926.539.341,1.011.8,1.545,1.182s1.07.724,1.582,1.133,1.05.763,1.535,1.2.812,1.016,1.265,1.487.936.892,1.355,1.394.836,1.092,1.216,1.626a10.572,10.572,0,0,0-.154-1.972,11.546,11.546,0,0,0-.163-1.894,14.532,14.532,0,0,0-.79-1.73,17.926,17.926,0,0,0-.751-1.74c-.3-.541-.6-1.106-.955-1.64s-.809-.965-1.2-1.472-.678-1.072-1.1-1.557-.829-.958-1.267-1.418-1.019-.773-1.477-1.214-.782-1.021-1.255-1.443-1.043-.741-1.526-1.145-.933-.877-1.426-1.265-1-.812-1.5-1.182c-.524-.388-1.143-.614-1.65-.968-.539-.375-.968-.877-1.479-1.211-.558-.366-1.2-.546-1.713-.86-.587-.356-1.141-.673-1.65-.955-.636-.353-1.177-.69-1.657-.914-1.089-.509-1.657-.743-1.628-.485.022.041.039.015.039.015" transform="translate(-62.176 -51.516)" fill="#84c02d" fill-rule="evenodd"/>
      <path id="패스_2351" data-name="패스 2351" d="M116.588,117.025c.67-.217,1.216-.414,1.687-.519a12.01,12.01,0,0,1,1.743-.29,6.325,6.325,0,0,1,1.923.334,11.023,11.023,0,0,1,1.825.687,17.535,17.535,0,0,1,1.755.875c.539.327,1.011.795,1.562,1.189.519.37,1.121.658,1.643,1.08.5.4.982.851,1.482,1.292s1.043.795,1.521,1.25.958.9,1.418,1.367.9.955,1.345,1.435.836,1.021,1.262,1.513.929.948,1.338,1.45c.422.519.663,1.167,1.055,1.679.407.534.926.968,1.294,1.489.392.553.8,1.077,1.141,1.606.378.585.558,1.25.863,1.789.351.621.821,1.126,1.063,1.669a8.789,8.789,0,0,1,.582,1.882c.171.875-.034,1.492-.541,1.755a9.457,9.457,0,0,0-1.153.963,2.125,2.125,0,0,1-1.362.336,7.236,7.236,0,0,0-.3-1.774,14.866,14.866,0,0,0-.738-1.723c-.227-.548-.37-1.167-.675-1.75-.278-.531-.712-1-1.048-1.555-.314-.517-.612-1.065-.975-1.6-.346-.5-.629-1.072-1.014-1.584-.368-.495-.736-1.007-1.138-1.5s-.824-.936-1.241-1.416-.775-.987-1.206-1.453-.89-.885-1.333-1.336c-.419-.424-.829-.9-1.3-1.314-.456-.4-.936-.8-1.426-1.184s-.972-.763-1.472-1.128-1.094-.595-1.6-.938-1.06-.653-1.572-.977c-.536-.341-1.08-.634-1.594-.941-.553-.331-1.082-.651-1.589-.936-.587-.329-1.106-.678-1.6-.933-.656-.339-1.155-.765-1.587-.953-.019-.007-.029.161-.029.161" transform="translate(-62.2 -51.898)" fill="#84c02d" fill-rule="evenodd"/>
      <path id="패스_2352" data-name="패스 2352" d="M100.555,120.7a11.758,11.758,0,0,0,1.5-.624,3.921,3.921,0,0,1,1.479-.473,5.722,5.722,0,0,1,1.85.2,10.435,10.435,0,0,1,1.779.631,17.524,17.524,0,0,1,1.689.858c.514.319,1.033.687,1.565,1.07.495.361.912.855,1.414,1.265.478.39,1.08.658,1.56,1.087.463.414.855.924,1.316,1.367s.855.926,1.3,1.382.975.816,1.4,1.284.743,1.033,1.155,1.511.919.887,1.316,1.372.714,1.06,1.094,1.555c.392.512.782,1.011,1.145,1.516.378.526.792,1.011,1.133,1.523.363.543.626,1.126.941,1.645.351.573.7,1.1.98,1.633.322.609.541,1.2.76,1.73a10.4,10.4,0,0,1,.748,1.745,1.373,1.373,0,0,1-.648,1.6,4.872,4.872,0,0,1-1.767.534c-.656.058-1.372.1-1.916.1a7.35,7.35,0,0,0-.139-2.047,13.11,13.11,0,0,0-.756-1.874,19.95,19.95,0,0,0-.931-1.779c-.327-.551-.834-1.019-1.228-1.591-.368-.534-.607-1.192-1.028-1.743-.4-.517-.963-.926-1.4-1.455-.422-.5-.795-1.068-1.248-1.579-.441-.492-.972-.919-1.443-1.416s-.936-.95-1.416-1.435c-.446-.453-.9-.916-1.377-1.37s-.924-.907-1.411-1.34-.868-.992-1.362-1.409-1.016-.838-1.516-1.236c-.524-.417-1.05-.812-1.555-1.189-.543-.407-1.155-.678-1.66-1.028-.582-.4-1.055-.885-1.557-1.194a12.666,12.666,0,0,0-1.767-.8l0-.032" transform="translate(-85.249 -47.04)" fill="#84c02d" fill-rule="evenodd"/>
      <path id="패스_2353" data-name="패스 2353" d="M137.119,102.878a7.612,7.612,0,0,0,2.3,2.286c.1.675-.324.873-.724,1.214.719,1.05,3.317,1.479,4.375,2.332a21.772,21.772,0,0,1,5.03,5.837,52.379,52.379,0,0,1,1.928,32.992c-2.306,11.53-.8,10.453-12.737,14-5.693.972-13.509,4.906-16.5.046-5.2-5.574-10.507-11.1-13.775-18.186-3.729-8.228-8.138-20.226-.943-27.737a1.487,1.487,0,0,0-.946-1.021,5.647,5.647,0,0,1,.639-2.457c-.283-1.228.829-4.57,1.964-5.237.921-.539,0,0,5.7-1.75,5.418-1.655,11.516-2.6,16.622-4.55,5.184-1.45,5.286.507,7.073,2.228" transform="translate(-82.848 -74.989)" fill="#261614" fill-rule="evenodd"/>
      <path id="패스_2354" data-name="패스 2354" d="M137.275,101.766q-16.751,4.361-33.414,9.042a.966.966,0,0,0,.514,1.862q16.663-4.679,33.414-9.042a.966.966,0,0,0-.514-1.862" transform="translate(-81.469 -72.71)" fill="#5b4541"/>
      <path id="패스_2355" data-name="패스 2355" d="M128.378,99.836a234.825,234.825,0,0,1-23.214,6.159c-1.216.258-.7,2.12.514,1.864a234.839,234.839,0,0,0,23.214-6.161c1.18-.378.675-2.242-.514-1.862" transform="translate(-79.617 -75.506)" fill="#5b4541"/>
      <path id="패스_2356" data-name="패스 2356" d="M118.343,104.817c7.775,4.207,9.052,14.24,9.5,22.208.507,9.013-1.57,17.808-3.683,26.5-.295,1.209,1.567,1.723,1.862.514,2.381-9.793,4.538-19.588,3.539-29.721-.785-7.962-2.579-17.024-10.243-21.169-1.094-.592-2.069,1.075-.975,1.667" transform="translate(-60.367 -70.85)" fill="#5b4541"/>
      <path id="패스_2357" data-name="패스 2357" d="M118.784,128.457c.6.448-.509-.417.071.054.141.115.283.227.422.341q.461.38.9.78.808.724,1.56,1.511.823.863,1.577,1.791c.059.073.446.568.166.2s.1.136.154.212c.236.319.466.646.687.975a6.624,6.624,0,0,0,2.04,2.44,3.879,3.879,0,0,0,4.553-.755,6.143,6.143,0,0,0,.795-.753c-.1.136-.466.317-.122.119.178-.1.351-.2.529-.3.485-.271-.427.124-.073.024.161-.046.319-.11.483-.154a5.3,5.3,0,0,0,.6-.127c-.136.019-.271.039-.407.061.134-.012.271-.02.407-.022q-1.078-2.6-2.154-5.2-1.071.823-2.137,1.65c-.071.056-.636.448-.263.2s-.166.107-.239.154c-.241.151-.69.236-.051.071.193-.049,1.153.154.619-.02a3.071,3.071,0,0,0-3.746,2.128,3.117,3.117,0,0,0,2.128,3.748,5.179,5.179,0,0,0,4.662-1.048c1.124-.841,2.223-1.718,3.334-2.579a3.062,3.062,0,0,0-2.152-5.2,9.534,9.534,0,0,0-3.99,1,8.764,8.764,0,0,0-1.65,1.116,6.55,6.55,0,0,0-.536.47l-.271.28q-1.057.918,2.035-.439.669.391,1.343.785-.355-.3.175.273c-.076-.124-.151-.246-.229-.368-.117-.183-.236-.366-.356-.546q-.424-.629-.877-1.241c-.678-.9-1.375-1.789-2.13-2.627a33.172,33.172,0,0,0-4.779-4.275,3.062,3.062,0,0,0-2.347-.307,3.1,3.1,0,0,0-1.821,1.4,3.056,3.056,0,0,0-.307,2.347,3.555,3.555,0,0,0,1.4,1.821" transform="translate(-61.223 -42.449)" fill="#261614"/>
      <path id="패스_2358" data-name="패스 2358" d="M118.4,124.352a12.228,12.228,0,0,0-4.833,7.219,19.621,19.621,0,0,0-.5,4.618c0,.375.015.753.032,1.128a1.994,1.994,0,0,0,.019.436l1.075-1.935c.424-.168.519-.21.29-.122-.307.1-.609.183-.921.263-.441.11.061-.078.18-.02-.107.01-.212.017-.319.02q-1.353.022,1.959,1.238.208.768.417,1.538l0-.119-.417,1.538c.029-.041.056-.083.083-.124l-1.094,1.094c.054-.041.283-.144.3-.193-.049.134-.656.212-.071.044.1-.027.561-.112.09-.041-.507.073.122.022.2.024v-6.093a24.081,24.081,0,0,0-3.485.634,4.38,4.38,0,0,0-2.013,1.036,3.265,3.265,0,0,0-.663,3.544c1.206,2.856,5.011,2.442,7.414,1.611a3.048,3.048,0,0,0-1.621-5.876c-.275.1-.553.183-.838.253-.088.022-.965.183-.456.1s-.37.017-.465.02c-.146,0-.292,0-.439,0a2.444,2.444,0,0,1,2.111,1.794l-.307,2.347.051-.107-1.094,1.092q-.859.3-.278.117c.144-.041.29-.083.436-.119.222-.059.441-.112.665-.163s.444-.093.668-.134c.168-.032,1.194-.173.314-.061a3.329,3.329,0,0,0,2.154-.894,3.045,3.045,0,0,0-2.154-5.2,5.9,5.9,0,0,0-4.209,1.472,3.359,3.359,0,0,0,1.543,5.566A6.751,6.751,0,0,0,116,141.61c1.852-.651,3.2-1.86,3.2-3.96,0-1.019-.073-2.023,0-3.042a3.1,3.1,0,0,1,.066-.675c-.244.738-.015.136.024-.08a12.164,12.164,0,0,1,.37-1.494c.059-.18.127-.358.188-.539.122-.3.09-.236-.09.2q.077-.172.161-.344a9.411,9.411,0,0,1,.563-.989c.068-.107.139-.21.212-.312.154-.207.151-.2-.01.007s-.161.212,0,.015c.083-.1.168-.188.253-.28.129-.134.266-.268.4-.392.093-.085.188-.168.285-.246-.37.28-.427.324-.163.136a3.291,3.291,0,0,0,1.4-1.821,3.113,3.113,0,0,0-.307-2.349c-.829-1.287-2.778-2.079-4.168-1.092" transform="translate(-73.86 -40.835)" fill="#261614"/>
      <path id="패스_2359" data-name="패스 2359" d="M114.291,125.661a14.383,14.383,0,0,0-1.377,7.541.981.981,0,0,0,.968.965,1.036,1.036,0,0,1,.848.222c.312-.539.626-1.077.938-1.616a8.267,8.267,0,0,0-5.7.751c-1.626,1.019-1.6,2.912-1.358,4.6a.973.973,0,0,0,1.187.675.993.993,0,0,0,.675-1.189c-.132-.941-.251-2.1.746-2.569a6.652,6.652,0,0,1,3.934-.4c.865.161,1.733-.924.941-1.616a2.937,2.937,0,0,0-2.213-.785l.965.965a12.527,12.527,0,0,1,1.111-6.566c.531-1.116-1.133-2.1-1.667-.975" transform="translate(-73.834 -39.032)" fill="#5b4541"/>
      <path id="패스_2360" data-name="패스 2360" d="M119.877,125.177a19.213,19.213,0,0,1,2.883,2.886,4.951,4.951,0,0,0,1.2,1.367,2.387,2.387,0,0,0,2.057-.168,8.481,8.481,0,0,1,3.792-.814,2.027,2.027,0,0,1,2.013,2.018c-.09,1.241,1.843,1.236,1.93,0a3.857,3.857,0,0,0-3.263-3.856,6.923,6.923,0,0,0-2.932.119c-1.043.251-2.047.833-3.1,1h.514c0,.071-.012.078-.044.024-.083-.117-.168-.234-.253-.349-.134-.18-.273-.358-.412-.536-.29-.366-.59-.721-.9-1.068a19.882,19.882,0,0,0-2.113-1.989,1,1,0,0,0-1.367,0,.973.973,0,0,0,0,1.367" transform="translate(-57.878 -41.37)" fill="#5b4541"/>
      <path id="패스_2361" data-name="패스 2361" d="M102.947,116.324c3.8,2.03,6.424-1.382,9.744-2.581,2.362-.858,4.7.312,7.109.239a9.419,9.419,0,0,0,5.2-1.813c1.813-1.3,3.154-2.854,5.586-2.6,1.8.188,3.522.938,5.352.931a6.159,6.159,0,0,0,4.014-1.606c1.37-1.153,2.4-2.756,4.282-3.056,1.223-.193.7-2.055-.514-1.862-3.2.509-4.514,4.558-7.782,4.592-3.444.037-6.31-2.037-9.568.1-1.572,1.028-2.793,2.418-4.623,3.029-2.2.736-4.3-.022-6.51-.2a7.842,7.842,0,0,0-4.767,1.2c-1.913,1.116-4.2,3.222-6.549,1.969-1.1-.59-2.072,1.08-.975,1.667" transform="translate(-82.496 -69.501)" fill="#7c4521"/>
      <path id="패스_2362" data-name="패스 2362" d="M102.571,118.413c2.844,1.479,6.5-.224,8.954-1.767a8.719,8.719,0,0,1,3.9-1.7,19.975,19.975,0,0,1,4.009.495,9.491,9.491,0,0,0,5.7-1c2.184-1.177,3.644-3.475,6.363-3.361,1.994.085,3.86,1.033,5.876.965,4.021-.136,5.691-4.709,9.42-5.323,1.223-.2.7-2.067-.514-1.864-3.517.582-5.259,4.906-8.735,5.228-1.933.178-3.824-.731-5.737-.9a6.736,6.736,0,0,0-4.9,1.565c-2.047,1.557-3.765,2.951-6.5,2.854-2-.071-3.921-.875-5.947-.478-2.006.392-3.514,1.757-5.269,2.693-1.46.78-4.06,1.755-5.647.931-1.1-.575-2.079,1.092-.975,1.667" transform="translate(-83.042 -68.239)" fill="#7c4521"/>
      <path id="패스_2363" data-name="패스 2363" d="M123.387,111.834a22.922,22.922,0,0,0-6.3-2.571c-2.011-.468-4.448-.434-5.915,1.253-1.423,1.638-1.109,4.092-.595,6.037a11,11,0,0,0,2.981,5.35,2.957,2.957,0,0,0,2.968.76,2.224,2.224,0,0,0,1.5-2.544c-.234-1.153-2-.665-1.765.485.041.2-.37.38-.519.392a1.3,1.3,0,0,1-.821-.327,6.856,6.856,0,0,1-1.677-2.276,9.437,9.437,0,0,1-1.209-5.576c.349-2.023,2.727-2.186,4.345-1.84a20.736,20.736,0,0,1,6.083,2.437.915.915,0,0,0,.924-1.579" transform="translate(-71.458 -62.255)" fill="#7c4521"/>
      <path id="패스_2364" data-name="패스 2364" d="M120.939,112.352a19.493,19.493,0,0,0-5.274-2.154,7.494,7.494,0,0,0-2.915-.154,2.164,2.164,0,0,0-1.691,1.889,6.951,6.951,0,0,0,1.336,4.484,9.6,9.6,0,0,0,3.419,3.154,8.809,8.809,0,0,0,2.427.892,2.847,2.847,0,0,0,1.694-.02,1.466,1.466,0,0,0,.919-1.443,1,1,0,0,0-.965-.965.973.973,0,0,0-.968.965c0-.032.224-.366.251-.329-.017-.022-.093-.017-.1-.019a1.366,1.366,0,0,0-.322-.051,7.658,7.658,0,0,1-.836-.217,7.011,7.011,0,0,1-1.5-.7,7.468,7.468,0,0,1-2.352-2.245,6.211,6.211,0,0,1-1.111-2.92,1.622,1.622,0,0,1,.058-.495c.02-.051.1-.085.039-.059,0,0-.051.024-.01,0a.909.909,0,0,1,.4-.068,7.832,7.832,0,0,1,2.006.227,18.359,18.359,0,0,1,4.516,1.891c1.092.595,2.069-1.072.975-1.667" transform="translate(-70.202 -60.889)" fill="#7c4521"/>
      <path id="패스_2365" data-name="패스 2365" d="M116.957,116.864c-.129-.3-.039-.088-.017-.012.02.059.029.119.046.18.037.173-.02-.239-.01-.071,0,.061.007.124.007.183s-.015.127-.015.19c0-.268.027-.171.01-.073-.027.122-.078.239-.107.358.059-.239.066-.146.022-.056a1.5,1.5,0,0,1-.09.161c-.029.054-.073.1-.1.156.124-.214.1-.122.034-.049-.041.046-.085.09-.129.134-.024.02-.049.041-.068.059-.078.061-.051.044.083-.066-.093.049-.2.112-.28.166.156-.066.19-.078.1-.041l-.09.029c-.041.012-.09.027-.134.037-.246.054.195-.01.027,0-.063,0-.124,0-.188,0a1.349,1.349,0,0,1-.139,0c-.251-.015.19.041.024,0a2.383,2.383,0,0,1-.314-.08c-.234-.085.158.08.012.007-.056-.032-.11-.059-.166-.09a.794.794,0,0,1-.117-.076c-.2-.136.127.124.01.01-.076-.076-.146-.156-.227-.232.1.136.124.161.066.083l-.049-.076c-.032-.056-.063-.11-.093-.166a.97.97,0,0,0-1.321-.346.992.992,0,0,0-.346,1.323,3,3,0,0,0,2.822,1.567,2.855,2.855,0,0,0,1.718-.719,3.063,3.063,0,0,0,.868-1.428,2.867,2.867,0,0,0-.18-2.047.958.958,0,0,0-.575-.444.972.972,0,0,0-1.189.675,1.146,1.146,0,0,0,.1.746" transform="translate(-66.959 -53.049)" fill="#fff"/>
      <path id="패스_2366" data-name="패스 2366" d="M115.815,116.061a1.477,1.477,0,1,0,1.07-1.794,1.477,1.477,0,0,0-1.07,1.794" transform="translate(-63.377 -54.757)" fill="#fff"/>
      <path id="패스_2367" data-name="패스 2367" d="M111.226,117.223a1.476,1.476,0,1,0,1.067-1.794,1.476,1.476,0,0,0-1.067,1.794" transform="translate(-69.972 -53.087)" fill="#fff"/>
    </g>
    <path id="패스_2368" data-name="패스 2368" d="M94.823,91.093c30.067.244,60.132.582,90.2.826a.967.967,0,0,0,0-1.933c-30.067-.241-60.132-.582-90.2-.826a.967.967,0,0,0,0,1.933" transform="translate(-5759.063 -649.107)" fill="#231815"/>
    <path id="패스_2369" data-name="패스 2369" d="M131.2,90.739q-.738,50.53.483,101.062a.967.967,0,0,0,1.933,0q-1.225-50.523-.483-101.062a.967.967,0,0,0-1.933,0" transform="translate(-5705.844 -648.178)" fill="#231815"/>
    <path id="패스_2370" data-name="패스 2370" d="M94.711,133.121c30.616.863,61.188,1.8,91.816.846,1.238-.037,1.245-1.969,0-1.93-30.628.953-61.2.015-91.816-.848a.967.967,0,0,0,0,1.933" transform="translate(-5759.224 -588.706)" fill="#231815"/>
    <path id="패스_2371" data-name="패스 2371" d="M96.533,131.13a5.919,5.919,0,0,0-3.3.258,1,1,0,0,0-.675,1.189q.508,2.406,1.014,4.809a.976.976,0,0,0,.931.709c20.463.417,40.925.916,61.392,1.024,10.629.056,21.262.049,31.89-.139,2.637-.046,6.544-.451,5.818-4.094-.58-2.9-3.685-3.273-5.956-2.169-1.119.546-.139,2.211.975,1.669q3.648,2.691,1.119,2.583a14.149,14.149,0,0,1-1.955.078c-1.189.032-2.384.032-3.573.046q-3.177.037-6.354.061-6.028.051-12.059.054-11.523.011-23.048-.139c-16.085-.2-32.166-.58-48.249-.9q.468.355.931.709-.5-2.406-1.011-4.811c-.227.4-.451.792-.675,1.189l2.276-.261c1.216.2,1.74-1.662.514-1.862" transform="translate(-5761.022 -588.962)" fill="#231815"/>
    <path id="패스_2372" data-name="패스 2372" d="M187.182,95.391a5.919,5.919,0,0,0,3.3-.258,1,1,0,0,0,.675-1.189q-.508-2.406-1.014-4.809a.976.976,0,0,0-.931-.709c-19.861-.409-39.706-1.265-59.567-1.628-10.4-.19-20.813-.261-31.218-.083-2.635.046-6.541.453-5.815,4.094.444,2.225,3.639,4.57,5.869,3.912a.966.966,0,0,0-.514-1.862,3.4,3.4,0,0,1-2.866-1.445c-1.411-3.22,1.911-2.732,3.327-2.766,2.342-.058,4.687-.054,7.026-.068q6.006-.037,12.015,0,11.673.073,23.346.407c16.132.431,32.261,1.038,48.4,1.37q-.468-.355-.931-.709.5,2.405,1.011,4.811c.227-.4.451-.792.675-1.189l-2.276.261c-1.216-.2-1.74,1.662-.514,1.862" transform="translate(-5761.02 -652.769)" fill="#231815"/>
    <path id="패스_2373" data-name="패스 2373" d="M94.592,90.215q1.06,50.914-1.311,101.815c-.059,1.243,1.874,1.241,1.93,0q2.376-50.87,1.314-101.815a.967.967,0,0,0-1.933,0" transform="translate(-5759.941 -648.931)" fill="#231815"/>
    <path id="패스_2374" data-name="패스 2374" d="M93.4,121.728q49.035-.826,98.04,1.879c1.241.068,1.236-1.864,0-1.933q-48.973-2.7-98.04-1.879a.967.967,0,0,0,0,1.933" transform="translate(-5761.116 -605.357)" fill="#231815"/>
    <path id="패스_2375" data-name="패스 2375" d="M95.6,120.946c.373,9.027.836,18.055,1.1,27.084.037,1.241,1.969,1.245,1.933,0-.266-9.03-.726-18.057-1.1-27.084-.051-1.238-1.984-1.245-1.933,0" transform="translate(-5756.614 -604.764)" fill="#231815"/>
    <path id="패스_2376" data-name="패스 2376" d="M92.3,121.214c.373,9.027.836,18.055,1.1,27.084.037,1.241,1.969,1.245,1.933,0-.266-9.03-.726-18.057-1.1-27.084-.051-1.238-1.984-1.245-1.933,0" transform="translate(-5761.353 -604.378)" fill="#231815"/>
    <path id="패스_2377" data-name="패스 2377" d="M98.273,120.667a202.918,202.918,0,0,1,1.036,27.723c-.037,1.245,1.894,1.243,1.933,0a202.918,202.918,0,0,0-1.036-27.723c-.132-1.223-2.064-1.238-1.933,0" transform="translate(-5752.774 -605.152)" fill="#231815"/>
    <path id="패스_2378" data-name="패스 2378" d="M101.36,120.945q.691,13.852.451,27.728a.967.967,0,0,0,1.933,0q.241-13.87-.451-27.728c-.063-1.238-2-1.245-1.933,0" transform="translate(-5748.331 -604.765)" fill="#231815"/>
    <path id="패스_2379" data-name="패스 2379" d="M104.4,120.762q.428,13.753.853,27.508c.039,1.238,1.972,1.245,1.933,0q-.428-13.757-.853-27.508c-.039-1.24-1.972-1.245-1.933,0" transform="translate(-5743.964 -605.03)" fill="#231815"/>
    <path id="패스_2380" data-name="패스 2380" d="M107.457,120.49q.585,13.972-.024,27.954c-.054,1.243,1.879,1.241,1.933,0q.607-13.972.024-27.954c-.054-1.238-1.984-1.245-1.933,0" transform="translate(-5739.602 -605.419)" fill="#231815"/>
    <path id="패스_2381" data-name="패스 2381" d="M109.886,121.134a120.261,120.261,0,0,1,.543,27.893c-.119,1.236,1.813,1.228,1.933,0a122.27,122.27,0,0,0-.614-28.408c-.168-1.226-2.03-.7-1.862.514" transform="translate(-5736.09 -604.9)" fill="#231815"/>
    <path id="패스_2382" data-name="패스 2382" d="M113.97,120.764q-.186,14.539-1.2,29.046c-.088,1.241,1.845,1.233,1.933,0q1.013-14.506,1.2-29.046a.967.967,0,0,0-1.933,0" transform="translate(-5731.936 -605.028)" fill="#231815"/>
    <path id="패스_2383" data-name="패스 2383" d="M116.152,120.854l.271,27.728a.967.967,0,0,0,1.933,0q-.135-13.863-.271-27.728a.967.967,0,0,0-1.933,0" transform="translate(-5727.069 -604.898)" fill="#231815"/>
    <path id="패스_2384" data-name="패스 2384" d="M119.605,121.127q.029,13.643.061,27.284a.966.966,0,0,0,1.93,0q-.029-13.64-.058-27.284a.967.967,0,0,0-1.933,0" transform="translate(-5722.107 -604.506)" fill="#231815"/>
    <path id="패스_2385" data-name="패스 2385" d="M122.425,121.034l1.06,27.959c.046,1.241,1.979,1.245,1.933,0l-1.06-27.959c-.049-1.238-1.979-1.245-1.933,0" transform="translate(-5718.055 -604.637)" fill="#231815"/>
    <path id="패스_2386" data-name="패스 2386" d="M125.2,121.4a190.209,190.209,0,0,1,1.733,26.794.967.967,0,0,0,1.933,0,193.84,193.84,0,0,0-1.8-27.309c-.166-1.226-2.028-.7-1.862.514" transform="translate(-5714.076 -604.513)" fill="#231815"/>
    <path id="패스_2387" data-name="패스 2387" d="M128.931,121.482a206.667,206.667,0,0,1,1.877,26.6.967.967,0,0,0,1.933,0,210.282,210.282,0,0,0-1.947-27.116c-.166-1.226-2.028-.7-1.862.514" transform="translate(-5708.719 -604.4)" fill="#231815"/>
    <path id="패스_2388" data-name="패스 2388" d="M133.144,121.673a74.331,74.331,0,0,1,.29,12.988c-.1,2.086-.219,4.17-.31,6.256-.044,1.043-.085,2.086-.1,3.132-.007.341.224,3.28.007,3.439-.985.734-.022,2.41.977,1.669,1.5-1.111.916-3.475.948-5.108.049-2.525.193-5.045.322-7.565a82.589,82.589,0,0,0-.2-14.811c-.156-1.216-2.091-1.231-1.933,0" transform="translate(-5703.407 -603.699)" fill="#231815"/>
    <path id="패스_2389" data-name="패스 2389" d="M190.581,92.111c-.212-1.6-.071-3.21-.283-4.809a1,1,0,0,0-.965-.97c-18.228-.375-36.445-1.119-54.673-1.526q-13.409-.3-26.824-.261-4.043.015-8.089.061c-1.648.022-3.673-.222-5.208.507-2.391,1.136-2.262,3.826-.682,5.576.836.921,2.2-.446,1.367-1.367q-.632-2.877,1.372-2.691a13.76,13.76,0,0,1,1.955-.076c1.184-.032,2.374-.032,3.558-.039,2.1-.024,4.192-.034,6.285-.041q5.9-.022,11.8.034c7.394.063,14.791.219,22.186.422,15.652.434,31.3,1.014,46.955,1.333l-.965-.963c.21,1.6.071,3.2.28,4.809.161,1.216,2.1,1.228,1.933,0" transform="translate(-5760.771 -655.749)" fill="#231815"/>
    <path id="패스_2390" data-name="패스 2390" d="M190.581,90c-.212-1.6-.071-3.207-.283-4.809a.992.992,0,0,0-.965-.968c-18.228-.375-36.445-1.119-54.673-1.526q-13.409-.3-26.824-.263-4.043.015-8.089.063c-1.648.022-3.673-.224-5.208.507-2.391,1.133-2.262,3.826-.682,5.574.836.924,2.2-.446,1.367-1.367q-.632-2.877,1.372-2.688a14.127,14.127,0,0,1,1.955-.078c1.184-.029,2.374-.029,3.558-.039q3.144-.033,6.285-.041,5.9-.018,11.8.034,11.092.1,22.186.424c15.652.431,31.3,1.011,46.955,1.333l-.965-.965c.21,1.6.071,3.2.28,4.809.161,1.216,2.1,1.231,1.933,0" transform="translate(-5760.771 -658.779)" fill="#231815"/>
  </g>
</svg>
