<svg xmlns="http://www.w3.org/2000/svg" width="54.322" height="25.017" viewBox="0 0 54.322 25.017">
  <g id="그룹_1819" data-name="그룹 1819" transform="translate(6157.665 -341.897)">
    <path id="패스_2630" data-name="패스 2630" d="M102.867,150.934s-2.291-8.5,6.571-8.667,38.987-2.505,43.747,4.333,2.5,18.532-3.312,18.518-35.668-.161-40.425-1.009-8.13.619-6.58-13.175" transform="translate(-6259.146 200.806)" fill="#fff251"/>
    <path id="패스_2631" data-name="패스 2631" d="M152.33,159.115c.141-2.669.31-5.342.275-8.016-.024-1.891.344-5.571-1.019-7.143-.885-1.021-2.562-1.024-3.8-1.2-1.921-.275-3.851-.478-5.781-.636a269.7,269.7,0,0,0-27.038-.544q-2.833.051-5.664.134c-1.277.037-3.375-.312-4.421.619-1.236,1.1-1.472,3.936-1.789,5.43a43.755,43.755,0,0,0-.941,8.162c-.029,1.414-.4,3.729.851,4.779,1.089.912,3.261.573,4.575.617,4.389.144,8.784.18,13.175.18,10.175,0,20.353-.2,30.523-.514,1.241-.039,1.245-1.972,0-1.933-14.952.466-29.965.86-44.917.29-.963-.037-1.747.21-2.245-.765-.366-.714-.044-2.274-.017-3.1a41.308,41.308,0,0,1,1.05-8.069c.171-.726.383-2.9.948-3.412.468-.422,1.2-.292,1.782-.312q2.559-.08,5.121-.136c7.6-.171,15.223-.207,22.824.124a116.63,116.63,0,0,1,11.73.987c1.494.219,2.279.334,2.859,2a14.972,14.972,0,0,1,.258,4.007c.058,2.82-.119,5.64-.268,8.455-.063,1.243,1.867,1.238,1.933,0" transform="translate(-6259.738 200.42)" fill="#231815"/>
    <path id="패스_2632" data-name="패스 2632" d="M102.156,156.473c-.336,1.718.59,3.787,1.4,5.264,1.065,1.945,2.761,2.237,4.874,2.415,5.623.475,11.279.624,16.916.785q9.52.267,19.042.324c2.532.017,5.074.073,7.6.007,2.6-.066,3.288-1.723,3.88-4.126.9-3.666.3-7.638.383-11.372.071-3.249-2.191-5.576-4.816-7.3-1.041-.685-2.011.987-.975,1.67,1.652,1.085,3.7,2.886,3.892,4.957.168,1.791-.09,3.746-.024,5.559a23.208,23.208,0,0,1-.236,5.562c-.444,2.128-.782,3.117-2.908,3.124-5.547.022-11.094-.034-16.639-.129-5.978-.1-11.959-.253-17.933-.517-2.466-.107-4.935-.234-7.4-.414-1.757-.129-3.254-.088-4.112-1.752-.419-.816-1.282-2.554-1.089-3.541.239-1.216-1.623-1.735-1.862-.514" transform="translate(-6259.721 201.614)" fill="#231815"/>
    <path id="패스_2633" data-name="패스 2633" d="M121.864,149.651a6.414,6.414,0,0,0,.953,2.861c.241.456.492.9.729,1.355.122.236.241.473.351.712l.088.2c-.037-.088-.027-.068,0,.01.051.132.1.266.146.4a.966.966,0,1,0,1.862-.512,18.972,18.972,0,0,0-1.387-2.912c-.115-.212-.229-.422-.334-.639-.056-.107-.107-.219-.158-.327l-.066-.149c.034.076.046.117.007.017a4.649,4.649,0,0,1-.207-.622c-.01-.029-.08-.246-.056-.266-.015.012.012.239.007.027,0-.051,0-.1,0-.158a.966.966,0,0,0-1.933,0" transform="translate(-6231.295 210.783)" fill="#231815"/>
    <path id="패스_3774" data-name="패스 3774" d="M106.008,144.228c-.348,0-.7-.01-1.042-.017.088-.331.18-.66.26-.993.278-1.208-1.582-1.724-1.86-.514-.117.5-.256.986-.387,1.475l-2.505-.041c.1-.282.2-.562.3-.842a.974.974,0,0,0-.674-1.186.984.984,0,0,0-1.188.672c-.153.441-.307.881-.465,1.322-.575-.01-1.152-.022-1.729-.029a.965.965,0,0,0,0,1.928l1.052.02-.582,1.646c-.543-.022-1.086-.046-1.631-.046a.965.965,0,0,0,0,1.928c.319,0,.64.019.957.027-.187.538-.375,1.076-.57,1.614a.976.976,0,0,0,.674,1.188.987.987,0,0,0,1.188-.674l.726-2.052c.906.051,1.806.107,2.712.166-.17.526-.341,1.052-.506,1.58-.365,1.188,1.5,1.7,1.86.511.2-.66.419-1.317.633-1.974.757.037,1.517.063,2.276.066a.966.966,0,0,0,0-1.931c-.55,0-1.105-.027-1.658-.046.2-.628.4-1.259.587-1.892.526.01,1.047.02,1.575.027a.966.966,0,0,0,0-1.931m-4.158,3.7c-.884-.053-1.768-.107-2.656-.163l.6-1.709c.876.017,1.75.029,2.627.046-.187.609-.375,1.22-.575,1.826" transform="translate(-6237.414 204.413)" fill="#1a1311"/>
    <path id="패스_3775" data-name="패스 3775" d="M102.946,142.74v0l0,0,.017.029-.012-.022" transform="translate(-6225.478 205.444)" fill="#1a1311"/>
    <path id="패스_3776" data-name="패스 3776" d="M108.394,145.648a5.1,5.1,0,0,0-.268-1.889,2.381,2.381,0,0,0-.689-1.079,3.709,3.709,0,0,0-1.071-.589,4.737,4.737,0,0,0-1.974-.334,3.421,3.421,0,0,0-3.518,2.369,5,5,0,0,0-.034,2.651,3.173,3.173,0,0,0,1.617,1.836,5.208,5.208,0,0,0,3.287.431,7.327,7.327,0,0,1-3.15,3.6c-1.1.592-.122,2.259.974,1.665a9.7,9.7,0,0,0,4.816-8.1l0-.071c0-.139.027-.278.024-.416,0-.027-.017-.046-.017-.073m-2.006.667-.039.1c-.027.044-.066.124-.063.119-.034.056-.068.11-.1.163-.01.007-.119.134-.153.168l-.08.075-.066.049c-.093.061-.192.107-.285.161-.085.024-.163.046-.248.073a.6.6,0,0,0-.073.024s0,0-.032,0a1.965,1.965,0,0,1-.207.015,3.986,3.986,0,0,1-.45-.019l-.078-.01c-.085-.015-.173-.029-.258-.049-.163-.037-.324-.075-.48-.122a3.249,3.249,0,0,1-.358-.122l-.068-.034c-.068-.041-.139-.078-.2-.119-.027-.017-.187-.139-.09-.056.114.092-.088-.09-.085-.088-.039-.039-.075-.083-.117-.124.124.127-.032-.046-.051-.08s-.151-.336-.095-.173c-.027-.075-.046-.151-.068-.226,0-.037-.007-.039-.012-.039l0-.063a5.072,5.072,0,0,1,.044-.92l.012-.095c.017-.095.034-.19.058-.282.017-.075.041-.149.066-.224l.029-.088q-.044.1-.015.037c.01-.01.032-.051.056-.088,0,0-.01.012.039-.044.034-.034.071-.063.1-.1l.022-.024.019-.012a3.609,3.609,0,0,1,.351-.209c.027-.015.054-.027.083-.041,0,0,.124-.049.156-.058a2.94,2.94,0,0,1,.37-.095.64.64,0,0,1,.08-.01,2.43,2.43,0,0,1,.3,0,1.617,1.617,0,0,1,.519.01l.007,0c.056.01.117.019.18.032.124.027.243.056.368.09.107.032.212.066.319.1l.056.019a.721.721,0,0,1,.075.037c.088.046.168.095.258.144h0l.017.019-.007-.019,0,0,.01.022c.022.017.044.039.041.041s-.017,0-.027-.017a1.374,1.374,0,0,0,.068.134c.01.037.034.093.036.1.024.078.046.158.068.241.034.127.056.253.08.382l.015.058,0,.027c.01.1.015.2.017.3,0,.075,0,.151,0,.224,0,.029-.012.049-.012.078,0,.153-.049.3-.056.455-.01.046-.024.092-.037.139" transform="translate(-6228.73 204.031)" fill="#1a1311"/>
  </g>
</svg>
