<svg xmlns="http://www.w3.org/2000/svg" width="54.321" height="25.017" viewBox="0 0 54.321 25.017">
  <g id="그룹_1803" data-name="그룹 1803" transform="translate(6271.676 2.907)">
    <path id="패스_2567" data-name="패스 2567" d="M56.086,9.458S53.8.962,62.656.791s38.99-2.505,43.747,4.333,2.5,18.532-3.312,18.518-35.666-.161-40.423-1.009-8.133.619-6.583-13.175" transform="translate(-6326.378 -2.519)" fill="#64c5eb"/>
    <path id="패스_2568" data-name="패스 2568" d="M105.55,17.638c.141-2.669.31-5.342.275-8.016-.024-1.891.344-5.571-1.019-7.143-.885-1.021-2.561-1.024-3.8-1.2C99.081,1,97.151.8,95.221.641A269.707,269.707,0,0,0,68.183.1Q65.35.149,62.519.231C61.242.268,59.143-.08,58.1.851c-1.236,1.1-1.472,3.936-1.789,5.43a43.754,43.754,0,0,0-.941,8.162c-.029,1.414-.4,3.729.851,4.779,1.089.912,3.261.573,4.575.617,4.389.144,8.784.18,13.175.18,10.175,0,20.353-.2,30.523-.514,1.241-.039,1.245-1.972,0-1.933-14.952.465-29.965.86-44.917.29-.963-.037-1.747.21-2.245-.765-.366-.714-.044-2.274-.017-3.1a41.306,41.306,0,0,1,1.05-8.069c.171-.726.383-2.9.948-3.412.468-.422,1.2-.292,1.782-.312q2.559-.08,5.12-.136c7.6-.171,15.223-.207,22.824.124a116.63,116.63,0,0,1,11.73.987c1.494.219,2.279.334,2.859,2a14.974,14.974,0,0,1,.258,4.007c.058,2.82-.119,5.64-.268,8.455-.063,1.243,1.867,1.238,1.933,0" transform="translate(-6326.969 -2.907)" fill="#231815"/>
    <path id="패스_2569" data-name="패스 2569" d="M55.376,15c-.336,1.718.59,3.787,1.4,5.264,1.065,1.945,2.761,2.237,4.874,2.415,5.623.475,11.279.624,16.916.785q9.52.267,19.042.324c2.532.017,5.074.073,7.6.007,2.6-.066,3.288-1.723,3.88-4.126.9-3.666.3-7.638.383-11.372.071-3.249-2.191-5.576-4.816-7.3-1.041-.685-2.011.987-.975,1.669,1.652,1.085,3.7,2.886,3.892,4.957.168,1.791-.09,3.746-.024,5.559a23.206,23.206,0,0,1-.236,5.562c-.444,2.128-.782,3.117-2.908,3.124-5.547.022-11.094-.034-16.639-.129-5.978-.1-11.959-.253-17.933-.517-2.466-.107-4.935-.234-7.4-.414-1.757-.129-3.254-.088-4.112-1.752-.419-.816-1.282-2.554-1.089-3.541.239-1.216-1.623-1.735-1.862-.514" transform="translate(-6326.952 -1.713)" fill="#231815"/>
    <path id="패스_3770" data-name="패스 3770" d="M58.963,2.554c-.348,0-.694-.01-1.04-.017.085-.331.18-.66.258-.993.28-1.208-1.58-1.724-1.86-.514-.114.5-.253.986-.385,1.475l-2.505-.044c.1-.28.2-.56.3-.84A.974.974,0,0,0,53.055.436a.984.984,0,0,0-1.188.672q-.23.661-.465,1.322c-.575-.01-1.152-.022-1.729-.029a.965.965,0,0,0,0,1.928c.351,0,.7.012,1.052.019l-.582,1.646c-.543-.022-1.088-.046-1.634-.046a.965.965,0,0,0,0,1.928c.321,0,.64.019.959.027-.19.538-.377,1.076-.57,1.614a.976.976,0,0,0,.674,1.188.988.988,0,0,0,1.188-.674l.723-2.052q1.359.077,2.712.166c-.17.526-.341,1.052-.5,1.58-.365,1.188,1.5,1.7,1.86.511.2-.66.419-1.317.631-1.974.76.037,1.517.063,2.279.066a.966.966,0,0,0,0-1.931c-.553,0-1.105-.027-1.658-.046.2-.628.4-1.261.587-1.892q.785.015,1.573.027a.966.966,0,0,0,0-1.931m-4.156,3.7c-.886-.054-1.77-.107-2.656-.163l.6-1.709c.876.017,1.75.029,2.627.046-.187.609-.377,1.217-.575,1.826" transform="translate(-6304.901 1.17)" fill="#1a1311"/>
    <path id="패스_3771" data-name="패스 3771" d="M62.179,9.6l-5.159.029c.363-.265.73-.521,1.079-.8A9.717,9.717,0,0,0,61.05,5.587a4.328,4.328,0,0,0-.375-4.037,3.882,3.882,0,0,0-3.5-1.531A3.378,3.378,0,0,0,54.2,4.163a.965.965,0,0,0,1.86-.514,1.329,1.329,0,0,1,.677-1.5,1.868,1.868,0,0,1,1.692-.032,1.31,1.31,0,0,1,.475.307c.027.027.139.161.153.17.032.049.066.1.093.149a2.91,2.91,0,0,1,.292,1.67c.022-.166-.078.246-.1.295a2.647,2.647,0,0,1-.156.3,4.59,4.59,0,0,1-.633.818,17.8,17.8,0,0,1-1.529,1.407c-1.12.935-2.357,1.716-3.547,2.551a.972.972,0,0,0,.487,1.8l8.217-.044a.966.966,0,0,0,0-1.931" transform="translate(-6297.079 0.682)" fill="#1a1311"/>
  </g>
</svg>
