<svg id="그룹_1696" data-name="그룹 1696" xmlns="http://www.w3.org/2000/svg" xmlns:xlink="http://www.w3.org/1999/xlink" width="169.591" height="128.449" viewBox="0 0 169.591 128.449">
  <defs>
    <clipPath id="clip-path">
      <rect id="사각형_2438" data-name="사각형 2438" width="169.591" height="128.449" fill="none"/>
    </clipPath>
  </defs>
  <g id="그룹_1693" data-name="그룹 1693" transform="translate(0 0)">
    <g id="그룹_1690" data-name="그룹 1690" clip-path="url(#clip-path)">
      <path id="패스_6144" data-name="패스 6144" d="M36.608,73.894a.878.878,0,0,1,.1,1.054A30.782,30.782,0,0,1,17.7,88.31c-7.632,1.77-12.432,1-15.189-.026-.761-.284-1.351.724-.795,1.35a23.827,23.827,0,0,0,18.672,7.926c10.193-.13,15.251-2.645,17.457-4.256a.977.977,0,0,1,1.527.795c.5,6.187,4.543,25.188,22.154,31.4,23.113,7.015,37.663-8.056,41.775-14.28a.7.7,0,0,1,1.075-.145c3.826,3.467,22.073,20.662,40.86,8.74,15.64-9.924,10.393-33.653,3.655-41.316a1.082,1.082,0,0,1,.6-1.785c6.812-.947,22.971-9.82,18.334-27.715-5.243-20.233-25.195-20.5-30.2-19.09a.979.979,0,0,1-1.207-.78C135.257,23.9,129.253,1.5,111.361,1.5,93.6,1.5,89.967,14.016,89.341,17.1a.169.169,0,0,1-.317.058C87.389,14.32,79.09,2.893,67.489,11.135c-.05.035-8.914,6.471-3.97,21.208a.786.786,0,0,1-.966,1.052C57.548,31.386,44.7,27.8,35.358,38.979c-11.343,13.58-2.5,30.879,1.25,34.915" transform="translate(-0.279 -0.187)" fill="#fff"/>
      <path id="패스_6145" data-name="패스 6145" d="M36.608,73.894a.878.878,0,0,1,.1,1.054A30.782,30.782,0,0,1,17.7,88.31c-7.632,1.77-12.432,1-15.189-.026-.761-.284-1.351.724-.795,1.35a23.827,23.827,0,0,0,18.672,7.926c10.193-.13,15.251-2.645,17.457-4.256a.977.977,0,0,1,1.527.795c.5,6.187,4.543,25.188,22.154,31.4,23.113,7.015,37.663-8.056,41.775-14.28a.7.7,0,0,1,1.075-.145c3.826,3.467,22.073,20.662,40.86,8.74,15.64-9.924,10.393-33.653,3.655-41.316a1.082,1.082,0,0,1,.6-1.785c6.812-.947,22.971-9.82,18.334-27.715-5.243-20.233-25.195-20.5-30.2-19.09a.979.979,0,0,1-1.207-.78C135.257,23.9,129.253,1.5,111.361,1.5,93.6,1.5,89.967,14.016,89.341,17.1a.169.169,0,0,1-.317.058C87.389,14.32,79.09,2.893,67.489,11.135c-.05.035-8.914,6.471-3.97,21.208a.786.786,0,0,1-.966,1.052C57.548,31.386,44.7,27.8,35.358,38.979,24.016,52.559,32.858,69.859,36.608,73.894Z" transform="translate(-0.279 -0.187)" fill="none" stroke="#1a1311" stroke-linecap="round" stroke-miterlimit="10" stroke-width="3"/>
    </g>
  </g>
  <path id="패스_6475" data-name="패스 6475" d="M19.761,17.208A5.044,5.044,0,0,1,18.2,17a2.517,2.517,0,0,1-1.032-.616,2.58,2.58,0,0,1-.6-1.008,5.436,5.436,0,0,1-.248-1.384q-.016-.144-.016-.68T16.3,12.04q-.008-.736-.008-1.568T16.3,8.9q.008-.736.008-1.264t.016-.672a5.857,5.857,0,0,1,.24-1.408A2.432,2.432,0,0,1,18.185,3.9a4.93,4.93,0,0,1,1.576-.216,4.694,4.694,0,0,1,1.512.216,2.611,2.611,0,0,1,1.04.632,2.747,2.747,0,0,1,.624,1.032,5.185,5.185,0,0,1,.264,1.4q0,.144.008.68t.008,1.272q0,.736.008,1.568t0,1.568q-.008.736-.016,1.272t-.008.664a3.384,3.384,0,0,1-.832,2.416A3.583,3.583,0,0,1,19.761,17.208Zm0-2.176a1.658,1.658,0,0,0,.272-.024.5.5,0,0,0,.264-.136.936.936,0,0,0,.208-.312,1.634,1.634,0,0,0,.1-.568q0-.144.008-.7t.008-1.288V8.856q0-.752-.008-1.28T20.609,6.9a1.542,1.542,0,0,0-.08-.544.728.728,0,0,0-.208-.312.653.653,0,0,0-.28-.136,1.367,1.367,0,0,0-.28-.032,1.018,1.018,0,0,0-.272.04.633.633,0,0,0-.264.152.915.915,0,0,0-.208.328,1.694,1.694,0,0,0-.1.552q0,.144-.008.688t-.016,1.28q-.008.736-.008,1.568t.008,1.568q.008.736.008,1.272t.016.664a1.587,1.587,0,0,0,.08.568.852.852,0,0,0,.2.312.509.509,0,0,0,.272.136A1.9,1.9,0,0,0,19.761,15.032Zm7.84,2.336a1.827,1.827,0,0,1-.488-.064,1.025,1.025,0,0,1-.7-.656,1.946,1.946,0,0,1-.1-.688V5.032a1.3,1.3,0,0,1,.392-1.1,1.459,1.459,0,0,1,.9-.3,1.827,1.827,0,0,1,.488.064.989.989,0,0,1,.408.224,1.179,1.179,0,0,1,.288.432,1.77,1.77,0,0,1,.112.672V15.96a1.82,1.82,0,0,1-.112.688,1.179,1.179,0,0,1-.288.432.989.989,0,0,1-.408.224A1.827,1.827,0,0,1,27.6,17.368Zm8.528-6.048a2.3,2.3,0,0,1-.64-.072.815.815,0,0,1-.368-.208.663.663,0,0,1-.168-.312,1.813,1.813,0,0,1-.04-.4,1.584,1.584,0,0,1,.04-.352.663.663,0,0,1,.168-.312.941.941,0,0,1,.368-.224,1.9,1.9,0,0,1,.64-.088h3.136V7.96a1.7,1.7,0,0,1,.1-.648.893.893,0,0,1,.288-.384,1.048,1.048,0,0,1,.416-.184,2.5,2.5,0,0,1,.976,0,.931.931,0,0,1,.7.568,1.589,1.589,0,0,1,.112.648V9.352h5.9a1.9,1.9,0,0,1,.64.088.941.941,0,0,1,.368.224.663.663,0,0,1,.168.312,1.584,1.584,0,0,1,.04.352,1.813,1.813,0,0,1-.04.4.663.663,0,0,1-.168.312.815.815,0,0,1-.368.208,2.3,2.3,0,0,1-.64.072Zm2.256,6.24a3.586,3.586,0,0,1-1.28-.232,2.3,2.3,0,0,1-.848-.568,2.141,2.141,0,0,1-.464-.816,3.386,3.386,0,0,1-.144-1.008,3.87,3.87,0,0,1,.128-1.016,2.021,2.021,0,0,1,.44-.824,2.144,2.144,0,0,1,.848-.56,3.991,3.991,0,0,1,1.352-.224h6.848a3.771,3.771,0,0,1,1.352.208,2.005,2.005,0,0,1,1.288,1.4,3.87,3.87,0,0,1,.128,1.016,3.386,3.386,0,0,1-.144,1.008,2.09,2.09,0,0,1-.472.816,2.393,2.393,0,0,1-.848.568,3.517,3.517,0,0,1-1.272.232Zm6.192-1.936a1.64,1.64,0,0,0,.672-.152q.208-.12.208-.536t-.208-.536a1.64,1.64,0,0,0-.672-.152H39.1a1.64,1.64,0,0,0-.672.152q-.208.12-.208.536t.208.536a1.64,1.64,0,0,0,.672.152ZM45.729,8.68a1.336,1.336,0,0,1-.68-.328.789.789,0,0,1-.184-.744q.08-.432.112-.688a5.306,5.306,0,0,0,.032-.64V5.848H37.457a3.112,3.112,0,0,1-.736-.072,1.1,1.1,0,0,1-.448-.208.67.67,0,0,1-.216-.328A1.542,1.542,0,0,1,36,4.808a1.284,1.284,0,0,1,.056-.376.721.721,0,0,1,.216-.328,1.1,1.1,0,0,1,.448-.224,2.814,2.814,0,0,1,.736-.08h8.976a2.026,2.026,0,0,1,.672.088.851.851,0,0,1,.368.24.73.73,0,0,1,.16.376,3.653,3.653,0,0,1,.032.512v.8a9.192,9.192,0,0,1-.08,1.2A4.511,4.511,0,0,1,47.313,8.1a.814.814,0,0,1-.288.392,1.119,1.119,0,0,1-.416.184,1.862,1.862,0,0,1-.456.04A3.277,3.277,0,0,1,45.729,8.68Zm5.648,8.864a2.243,2.243,0,0,1-.7-.088.911.911,0,0,1-.392-.24.678.678,0,0,1-.168-.352,2.794,2.794,0,0,1-.032-.44V13.688a1.3,1.3,0,0,1,.392-1.1,1.459,1.459,0,0,1,.9-.3,1.827,1.827,0,0,1,.488.064.989.989,0,0,1,.408.224,1.179,1.179,0,0,1,.288.432,1.77,1.77,0,0,1,.112.672v1.648h8.016a2.369,2.369,0,0,1,.736.1,1.187,1.187,0,0,1,.448.248.764.764,0,0,1,.216.352,1.45,1.45,0,0,1,.056.392,1.629,1.629,0,0,1-.056.44.764.764,0,0,1-.216.352,1.113,1.113,0,0,1-.448.24,2.57,2.57,0,0,1-.736.088Zm2.832-5.984a1.211,1.211,0,0,1-.448.208,1.187,1.187,0,0,1-.432.016,1.348,1.348,0,0,1-.4-.128,2.01,2.01,0,0,1-.336-.208.938.938,0,0,1-.408-.728,1.248,1.248,0,0,1,.28-.888q.272-.336.5-.632a4.294,4.294,0,0,0,.376-.584,3.131,3.131,0,0,0,.24-.592,2.412,2.412,0,0,0,.088-.672V6.04H50.9a2.57,2.57,0,0,1-.736-.088,1.113,1.113,0,0,1-.448-.24A.764.764,0,0,1,49.5,5.36a1.629,1.629,0,0,1-.056-.44,1.45,1.45,0,0,1,.056-.392.764.764,0,0,1,.216-.352,1.187,1.187,0,0,1,.448-.248,2.369,2.369,0,0,1,.736-.1h4.144a2.026,2.026,0,0,1,.672.088.851.851,0,0,1,.368.24.73.73,0,0,1,.16.376,3.653,3.653,0,0,1,.032.512V7.08a6.608,6.608,0,0,1-.1,1.064,5.819,5.819,0,0,1-.336,1.192,6.025,6.025,0,0,1-.64,1.192A4.432,4.432,0,0,1,54.209,11.56Zm6.048,1.28a1.827,1.827,0,0,1-.488-.064,1.025,1.025,0,0,1-.7-.656,1.946,1.946,0,0,1-.1-.688v-6.4a1.3,1.3,0,0,1,.392-1.1,1.459,1.459,0,0,1,.9-.3,1.827,1.827,0,0,1,.488.064.989.989,0,0,1,.408.224,1.179,1.179,0,0,1,.288.432,1.77,1.77,0,0,1,.112.672V6.92h1.376a2.2,2.2,0,0,1,.736.1,1.2,1.2,0,0,1,.448.264.816.816,0,0,1,.216.36,1.45,1.45,0,0,1,.056.392,1.718,1.718,0,0,1-.056.448.762.762,0,0,1-.216.36,1.187,1.187,0,0,1-.448.248,2.369,2.369,0,0,1-.736.1H61.553v2.24a1.82,1.82,0,0,1-.112.688,1.179,1.179,0,0,1-.288.432.989.989,0,0,1-.408.224A1.827,1.827,0,0,1,60.257,12.84ZM68.5,9.48a4.4,4.4,0,0,1-2.44-.544,2.008,2.008,0,0,1-.744-1.76V6.3a2.209,2.209,0,0,1,.824-1.856,3.9,3.9,0,0,1,2.424-.64h5.632a3.9,3.9,0,0,1,2.424.64A2.209,2.209,0,0,1,77.441,6.3v.88a2.017,2.017,0,0,1-.736,1.76,4.352,4.352,0,0,1-2.432.544Zm-1.728,8.048a2.243,2.243,0,0,1-.7-.088.911.911,0,0,1-.392-.24.679.679,0,0,1-.168-.352,2.794,2.794,0,0,1-.032-.44v-1.92a1.3,1.3,0,0,1,.392-1.1,1.459,1.459,0,0,1,.9-.3,1.827,1.827,0,0,1,.488.064.989.989,0,0,1,.408.224,1.179,1.179,0,0,1,.288.432,1.77,1.77,0,0,1,.112.672v.992h7.984a1.758,1.758,0,0,1,.64.1.959.959,0,0,1,.368.24.715.715,0,0,1,.168.328,1.625,1.625,0,0,1,.04.344,1.843,1.843,0,0,1-.04.392.715.715,0,0,1-.168.328.892.892,0,0,1-.368.232,1.9,1.9,0,0,1-.64.088Zm-1.2-4.992a2.081,2.081,0,0,1-.64-.08.832.832,0,0,1-.368-.224.717.717,0,0,1-.168-.336,2.04,2.04,0,0,1-.04-.416,1.692,1.692,0,0,1,.04-.36.715.715,0,0,1,.168-.328.959.959,0,0,1,.368-.24,1.758,1.758,0,0,1,.64-.1H77.2a1.758,1.758,0,0,1,.64.1.959.959,0,0,1,.368.24.715.715,0,0,1,.168.328,1.692,1.692,0,0,1,.04.36,2.04,2.04,0,0,1-.04.416.717.717,0,0,1-.168.336.832.832,0,0,1-.368.224,2.081,2.081,0,0,1-.64.08Zm7.68-5.088q.352,0,.648-.008a2.006,2.006,0,0,0,.512-.072.755.755,0,0,0,.344-.2.551.551,0,0,0,.128-.392V6.5a.607.607,0,0,0-.12-.4.631.631,0,0,0-.344-.2,2.5,2.5,0,0,0-.536-.064q-.312-.008-.68-.008H69.553q-.368,0-.68.008a2.5,2.5,0,0,0-.536.064.631.631,0,0,0-.344.2.607.607,0,0,0-.12.4v.272A.551.551,0,0,0,68,7.168a.755.755,0,0,0,.344.2,2.006,2.006,0,0,0,.512.072q.3.008.648.008Zm-57.7,30.92a1.827,1.827,0,0,1-.488-.064,1.025,1.025,0,0,1-.7-.656,1.946,1.946,0,0,1-.1-.688V34.912H9.985a2.369,2.369,0,0,1-.736-.1,1.187,1.187,0,0,1-.448-.248.764.764,0,0,1-.216-.352,1.45,1.45,0,0,1-.056-.392,1.629,1.629,0,0,1,.056-.44.764.764,0,0,1,.216-.352,1.113,1.113,0,0,1,.448-.24,2.57,2.57,0,0,1,.736-.088H21.1a2.57,2.57,0,0,1,.736.088,1.113,1.113,0,0,1,.448.24.764.764,0,0,1,.216.352,1.629,1.629,0,0,1,.056.44,1.45,1.45,0,0,1-.056.392.764.764,0,0,1-.216.352,1.187,1.187,0,0,1-.448.248,2.369,2.369,0,0,1-.736.1H16.849V36.96a1.82,1.82,0,0,1-.112.688,1.179,1.179,0,0,1-.288.432.989.989,0,0,1-.408.224A1.827,1.827,0,0,1,15.553,38.368Zm-4.7-7.1a1.738,1.738,0,0,1-.672-.1.837.837,0,0,1-.36-.272.869.869,0,0,1-.152-.384,3,3,0,0,1-.032-.44V26.192a1.3,1.3,0,0,1,.392-1.1,1.459,1.459,0,0,1,.9-.3h9.232a1.827,1.827,0,0,1,.488.064.989.989,0,0,1,.408.224,1.179,1.179,0,0,1,.288.432,1.77,1.77,0,0,1,.112.672v3.872a3,3,0,0,1-.032.44.869.869,0,0,1-.152.384.833.833,0,0,1-.368.272,1.749,1.749,0,0,1-.664.1Zm8.016-2.208V27.008h-6.64v2.048Zm6.688,9.552a2.41,2.41,0,0,1-.48-.016,1.149,1.149,0,0,1-.432-.144,1.046,1.046,0,0,1-.328-.3,1.181,1.181,0,0,1-.184-.512,1.1,1.1,0,0,1,.224-.936,1.476,1.476,0,0,1,.928-.408,10.7,10.7,0,0,0,1.36-.248,4.792,4.792,0,0,0,1.208-.472,2.843,2.843,0,0,0,.872-.744,1.756,1.756,0,0,0,.352-1.048v-.208a.78.78,0,0,1,.416-.72,1.853,1.853,0,0,1,1.824,0,.78.78,0,0,1,.416.72v.224a1.548,1.548,0,0,0,.344.992,3,3,0,0,0,.88.736,5.505,5.505,0,0,0,1.208.5,8.577,8.577,0,0,0,1.344.272,1.476,1.476,0,0,1,.928.408,1.1,1.1,0,0,1,.224.936,1.181,1.181,0,0,1-.184.512,1.046,1.046,0,0,1-.328.3,1.149,1.149,0,0,1-.432.144,2.41,2.41,0,0,1-.48.016,8.1,8.1,0,0,1-2.576-.648,8.4,8.4,0,0,1-2.144-1.32,6.763,6.763,0,0,1-1.032.72,10.133,10.133,0,0,1-1.232.6,9.524,9.524,0,0,1-1.336.432A8.186,8.186,0,0,1,25.553,38.608Zm1.424-6.3a3.585,3.585,0,0,1-2.752-.936,4.092,4.092,0,0,1-.864-2.856,4.124,4.124,0,0,1,.864-2.864,3.567,3.567,0,0,1,2.752-.944,3.567,3.567,0,0,1,2.752.944,4.124,4.124,0,0,1,.864,2.864,4.036,4.036,0,0,1-.872,2.912A3.727,3.727,0,0,1,26.977,32.3Zm0-2.112a.793.793,0,0,0,.824-.44,4.27,4.27,0,0,0,0-2.48.992.992,0,0,0-1.648,0,4.27,4.27,0,0,0,0,2.48A.793.793,0,0,0,26.977,30.192ZM34.865,33.2a1.827,1.827,0,0,1-.488-.064,1.025,1.025,0,0,1-.7-.656,1.946,1.946,0,0,1-.1-.688V29.648H32.545a2.4,2.4,0,0,1-.72-.088.994.994,0,0,1-.424-.248.782.782,0,0,1-.2-.36,1.885,1.885,0,0,1-.048-.44,1.676,1.676,0,0,1,.048-.392.782.782,0,0,1,.2-.36,1.06,1.06,0,0,1,.424-.256,2.215,2.215,0,0,1,.72-.1h1.024V26.032a1.3,1.3,0,0,1,.392-1.1,1.459,1.459,0,0,1,.9-.3,1.827,1.827,0,0,1,.488.064.989.989,0,0,1,.408.224,1.179,1.179,0,0,1,.288.432,1.77,1.77,0,0,1,.112.672v5.76a1.82,1.82,0,0,1-.112.688,1.179,1.179,0,0,1-.288.432.989.989,0,0,1-.408.224A1.827,1.827,0,0,1,34.865,33.2Zm5.52,5.488a2.243,2.243,0,0,1-.7-.088.872.872,0,0,1-.392-.248.729.729,0,0,1-.168-.368,2.838,2.838,0,0,1-.032-.432V35.344a1.221,1.221,0,0,1,.04-.312.568.568,0,0,1,.168-.272.917.917,0,0,1,.368-.192,2.3,2.3,0,0,1,.64-.072h7.984v-.56H40.161a1.207,1.207,0,0,1-.9-.248.93.93,0,0,1-.224-.648.943.943,0,0,1,.224-.6,1.116,1.116,0,0,1,.9-.28h9.52a1.845,1.845,0,0,1,.624.088,1,1,0,0,1,.368.216.614.614,0,0,1,.168.288,1.315,1.315,0,0,1,.04.32v2.32a.822.822,0,0,1-.224.608,1.49,1.49,0,0,1-.992.224H41.681V36.9h8.1a3.112,3.112,0,0,1,.736.072,1.256,1.256,0,0,1,.448.192.6.6,0,0,1,.216.28,1.059,1.059,0,0,1,.056.352,1.241,1.241,0,0,1-.056.392.551.551,0,0,1-.216.28,1.175,1.175,0,0,1-.448.168,3.972,3.972,0,0,1-.736.056ZM39.009,31.5a1.333,1.333,0,0,1-.808-.192.849.849,0,0,1,0-1.2,1.19,1.19,0,0,1,.808-.224H50.961a1.19,1.19,0,0,1,.808.224.849.849,0,0,1,0,1.2,1.333,1.333,0,0,1-.808.192Zm2.928-2.3a6.7,6.7,0,0,1-1.424-.128,2.66,2.66,0,0,1-.936-.376,1.4,1.4,0,0,1-.512-.6,2,2,0,0,1-.152-.8v-.432a1.8,1.8,0,0,1,.752-1.48A3.8,3.8,0,0,1,42,24.8h5.792a4.225,4.225,0,0,1,2.424.576,1.746,1.746,0,0,1,.824,1.488V27.3a2,2,0,0,1-.152.8,1.421,1.421,0,0,1-.5.6,2.574,2.574,0,0,1-.928.376,6.7,6.7,0,0,1-1.424.128ZM47.1,27.456a5.023,5.023,0,0,0,1.048-.08q.344-.08.344-.336v-.08q0-.272-.344-.344a5.926,5.926,0,0,0-1.1-.072H42.9a5.926,5.926,0,0,0-1.1.072q-.344.072-.344.344v.08q0,.256.344.336a5.023,5.023,0,0,0,1.048.08ZM67.873,38.368a1.827,1.827,0,0,1-.488-.064,1.025,1.025,0,0,1-.7-.656,1.946,1.946,0,0,1-.1-.688V26.032a1.3,1.3,0,0,1,.392-1.1,1.459,1.459,0,0,1,.9-.3,1.827,1.827,0,0,1,.488.064.989.989,0,0,1,.408.224,1.179,1.179,0,0,1,.288.432,1.77,1.77,0,0,1,.112.672v4.144h.912a2.369,2.369,0,0,1,.736.1,1.187,1.187,0,0,1,.448.248.764.764,0,0,1,.216.352,1.45,1.45,0,0,1,.056.392,1.629,1.629,0,0,1-.056.44.764.764,0,0,1-.216.352,1.113,1.113,0,0,1-.448.24,2.57,2.57,0,0,1-.736.088h-.912V36.96a1.82,1.82,0,0,1-.112.688,1.179,1.179,0,0,1-.288.432.989.989,0,0,1-.408.224A1.827,1.827,0,0,1,67.873,38.368ZM61.041,38.3a4.966,4.966,0,0,1-1.552-.208,2.456,2.456,0,0,1-1.016-.616,2.551,2.551,0,0,1-.584-1.008,5.7,5.7,0,0,1-.24-1.384V33.472a6.155,6.155,0,0,1,.232-1.408,2.538,2.538,0,0,1,.576-1.024,2.482,2.482,0,0,1,1.016-.632,4.854,4.854,0,0,1,1.568-.216,4.62,4.62,0,0,1,1.5.216,2.548,2.548,0,0,1,1.024.632,2.718,2.718,0,0,1,.608,1.032,5.409,5.409,0,0,1,.256,1.4v1.616a3.45,3.45,0,0,1-.808,2.416A3.494,3.494,0,0,1,61.041,38.3Zm0-2.128a1.518,1.518,0,0,0,.264-.024.461.461,0,0,0,.248-.136.918.918,0,0,0,.192-.312,1.8,1.8,0,0,0,.1-.568V33.36a1.7,1.7,0,0,0-.072-.544.71.71,0,0,0-.192-.312.6.6,0,0,0-.264-.136,1.256,1.256,0,0,0-.272-.032.934.934,0,0,0-.264.04.581.581,0,0,0-.248.152.9.9,0,0,0-.192.328,1.871,1.871,0,0,0-.1.552v1.728a1.749,1.749,0,0,0,.072.568.834.834,0,0,0,.184.312.465.465,0,0,0,.256.136A1.749,1.749,0,0,0,61.041,36.176ZM58.3,29.536a2.57,2.57,0,0,1-.736-.088,1.177,1.177,0,0,1-.448-.232.717.717,0,0,1-.216-.336,1.366,1.366,0,0,1-.056-.384,1.542,1.542,0,0,1,.056-.432.717.717,0,0,1,.216-.336,1.1,1.1,0,0,1,.448-.224,2.814,2.814,0,0,1,.736-.08h5.248a2.814,2.814,0,0,1,.736.08,1.1,1.1,0,0,1,.448.224.717.717,0,0,1,.216.336,1.542,1.542,0,0,1,.056.432,1.366,1.366,0,0,1-.056.384.717.717,0,0,1-.216.336,1.177,1.177,0,0,1-.448.232,2.57,2.57,0,0,1-.736.088Zm1.008-2.96a2.57,2.57,0,0,1-.736-.088,1.177,1.177,0,0,1-.448-.232.717.717,0,0,1-.216-.336,1.366,1.366,0,0,1-.056-.384,1.542,1.542,0,0,1,.056-.432.717.717,0,0,1,.216-.336,1.1,1.1,0,0,1,.448-.224,2.814,2.814,0,0,1,.736-.08h3.232a2.814,2.814,0,0,1,.736.08,1.1,1.1,0,0,1,.448.224.717.717,0,0,1,.216.336,1.542,1.542,0,0,1,.056.432,1.366,1.366,0,0,1-.056.384.717.717,0,0,1-.216.336,1.177,1.177,0,0,1-.448.232,2.57,2.57,0,0,1-.736.088Zm14.816,2.912a2.243,2.243,0,0,1-.7-.088.911.911,0,0,1-.392-.24.679.679,0,0,1-.168-.352,2.794,2.794,0,0,1-.032-.44V26.032a1.3,1.3,0,0,1,.392-1.1,1.459,1.459,0,0,1,.9-.3,1.827,1.827,0,0,1,.488.064.989.989,0,0,1,.408.224,1.179,1.179,0,0,1,.288.432,1.77,1.77,0,0,1,.112.672V27.44h7.984a1.758,1.758,0,0,1,.64.1.959.959,0,0,1,.368.24.715.715,0,0,1,.168.328,1.625,1.625,0,0,1,.04.344,1.843,1.843,0,0,1-.04.392.715.715,0,0,1-.168.328.892.892,0,0,1-.368.232,1.9,1.9,0,0,1-.64.088Zm0,9.04a2.243,2.243,0,0,1-.7-.088.911.911,0,0,1-.392-.24.679.679,0,0,1-.168-.352,2.794,2.794,0,0,1-.032-.44V35.344a1.3,1.3,0,0,1,.392-1.1,1.459,1.459,0,0,1,.9-.3,1.827,1.827,0,0,1,.488.064.989.989,0,0,1,.408.224,1.179,1.179,0,0,1,.288.432,1.77,1.77,0,0,1,.112.672V36.48h7.984a1.758,1.758,0,0,1,.64.1.959.959,0,0,1,.368.24.715.715,0,0,1,.168.328,1.624,1.624,0,0,1,.04.344,1.843,1.843,0,0,1-.04.392.715.715,0,0,1-.168.328.892.892,0,0,1-.368.232,1.9,1.9,0,0,1-.64.088Zm-1.2-5.552a2.081,2.081,0,0,1-.64-.08.875.875,0,0,1-.368-.216.664.664,0,0,1-.168-.32,1.924,1.924,0,0,1-.04-.408,1.584,1.584,0,0,1,.04-.352.715.715,0,0,1,.168-.32.892.892,0,0,1,.368-.232,1.9,1.9,0,0,1,.64-.088H84.561a1.9,1.9,0,0,1,.64.088.892.892,0,0,1,.368.232.715.715,0,0,1,.168.32,1.584,1.584,0,0,1,.04.352,1.924,1.924,0,0,1-.04.408.664.664,0,0,1-.168.32.875.875,0,0,1-.368.216,2.081,2.081,0,0,1-.64.08ZM14.761,53.32a2.3,2.3,0,0,1-.64-.072.815.815,0,0,1-.368-.208.663.663,0,0,1-.168-.312,1.813,1.813,0,0,1-.04-.4,1.584,1.584,0,0,1,.04-.352.663.663,0,0,1,.168-.312.941.941,0,0,1,.368-.224,1.9,1.9,0,0,1,.64-.088H17.9V49.96a1.7,1.7,0,0,1,.1-.648.893.893,0,0,1,.288-.384,1.048,1.048,0,0,1,.416-.184,2.5,2.5,0,0,1,.976,0,.931.931,0,0,1,.7.568,1.589,1.589,0,0,1,.112.648v1.392h5.9a1.9,1.9,0,0,1,.64.088.941.941,0,0,1,.368.224.663.663,0,0,1,.168.312,1.584,1.584,0,0,1,.04.352,1.813,1.813,0,0,1-.04.4.663.663,0,0,1-.168.312.815.815,0,0,1-.368.208,2.3,2.3,0,0,1-.64.072Zm2.256,6.24a3.586,3.586,0,0,1-1.28-.232,2.3,2.3,0,0,1-.848-.568,2.14,2.14,0,0,1-.464-.816,3.386,3.386,0,0,1-.144-1.008,3.87,3.87,0,0,1,.128-1.016,2.021,2.021,0,0,1,.44-.824,2.144,2.144,0,0,1,.848-.56,3.991,3.991,0,0,1,1.352-.224H23.9a3.771,3.771,0,0,1,1.352.208,2.005,2.005,0,0,1,1.288,1.4,3.87,3.87,0,0,1,.128,1.016,3.386,3.386,0,0,1-.144,1.008,2.09,2.09,0,0,1-.472.816,2.393,2.393,0,0,1-.848.568,3.517,3.517,0,0,1-1.272.232Zm6.192-1.936a1.64,1.64,0,0,0,.672-.152q.208-.12.208-.536t-.208-.536a1.64,1.64,0,0,0-.672-.152H17.737a1.64,1.64,0,0,0-.672.152q-.208.12-.208.536t.208.536a1.64,1.64,0,0,0,.672.152Zm1.152-6.944a1.336,1.336,0,0,1-.68-.328.789.789,0,0,1-.184-.744q.08-.432.112-.688a5.306,5.306,0,0,0,.032-.64v-.432H16.089a3.112,3.112,0,0,1-.736-.072,1.1,1.1,0,0,1-.448-.208.67.67,0,0,1-.216-.328,1.542,1.542,0,0,1-.056-.432,1.284,1.284,0,0,1,.056-.376A.721.721,0,0,1,14.9,46.1a1.1,1.1,0,0,1,.448-.224,2.814,2.814,0,0,1,.736-.08h8.976a2.026,2.026,0,0,1,.672.088.851.851,0,0,1,.368.24.73.73,0,0,1,.16.376,3.653,3.653,0,0,1,.032.512v.8a9.192,9.192,0,0,1-.08,1.2,4.511,4.511,0,0,1-.272,1.088.814.814,0,0,1-.288.392,1.119,1.119,0,0,1-.416.184,1.862,1.862,0,0,1-.456.04A3.278,3.278,0,0,1,24.361,50.68Zm5.648,8.864a2.243,2.243,0,0,1-.7-.088.911.911,0,0,1-.392-.24.678.678,0,0,1-.168-.352,2.794,2.794,0,0,1-.032-.44V55.688a1.3,1.3,0,0,1,.392-1.1,1.459,1.459,0,0,1,.9-.3,1.827,1.827,0,0,1,.488.064.989.989,0,0,1,.408.224,1.179,1.179,0,0,1,.288.432,1.77,1.77,0,0,1,.112.672v1.648h8.016a2.369,2.369,0,0,1,.736.1,1.187,1.187,0,0,1,.448.248.764.764,0,0,1,.216.352,1.45,1.45,0,0,1,.056.392,1.629,1.629,0,0,1-.056.44.764.764,0,0,1-.216.352,1.113,1.113,0,0,1-.448.24,2.57,2.57,0,0,1-.736.088Zm2.832-5.984a1.211,1.211,0,0,1-.448.208,1.187,1.187,0,0,1-.432.016,1.348,1.348,0,0,1-.4-.128,2.01,2.01,0,0,1-.336-.208.938.938,0,0,1-.408-.728,1.248,1.248,0,0,1,.28-.888q.272-.336.5-.632a4.294,4.294,0,0,0,.376-.584,3.132,3.132,0,0,0,.24-.592,2.412,2.412,0,0,0,.088-.672V48.04H29.529a2.57,2.57,0,0,1-.736-.088,1.113,1.113,0,0,1-.448-.24.764.764,0,0,1-.216-.352,1.629,1.629,0,0,1-.056-.44,1.45,1.45,0,0,1,.056-.392.764.764,0,0,1,.216-.352,1.187,1.187,0,0,1,.448-.248,2.369,2.369,0,0,1,.736-.1h4.144a2.026,2.026,0,0,1,.672.088.851.851,0,0,1,.368.24.73.73,0,0,1,.16.376,3.653,3.653,0,0,1,.032.512V49.08a6.608,6.608,0,0,1-.1,1.064,5.819,5.819,0,0,1-.336,1.192,6.025,6.025,0,0,1-.64,1.192A4.432,4.432,0,0,1,32.841,53.56Zm6.048,1.28a1.827,1.827,0,0,1-.488-.064,1.025,1.025,0,0,1-.7-.656,1.946,1.946,0,0,1-.1-.688v-6.4a1.3,1.3,0,0,1,.392-1.1,1.459,1.459,0,0,1,.9-.3,1.827,1.827,0,0,1,.488.064.989.989,0,0,1,.408.224,1.179,1.179,0,0,1,.288.432,1.77,1.77,0,0,1,.112.672V48.92h1.376a2.2,2.2,0,0,1,.736.1,1.2,1.2,0,0,1,.448.264.816.816,0,0,1,.216.36,1.45,1.45,0,0,1,.056.392,1.718,1.718,0,0,1-.056.448.762.762,0,0,1-.216.36,1.187,1.187,0,0,1-.448.248,2.369,2.369,0,0,1-.736.1H40.185v2.24a1.82,1.82,0,0,1-.112.688,1.179,1.179,0,0,1-.288.432.989.989,0,0,1-.408.224A1.827,1.827,0,0,1,38.889,54.84Zm6.272,4.688a2.453,2.453,0,0,1-.7-.08.943.943,0,0,1-.392-.216A.59.59,0,0,1,43.9,58.9a2.643,2.643,0,0,1-.032-.432V56.088a1.315,1.315,0,0,1,.04-.32.614.614,0,0,1,.168-.288.861.861,0,0,1,.368-.2,2.3,2.3,0,0,1,.64-.072h8.24v-.656H45.033a2.572,2.572,0,0,1-.64-.064.851.851,0,0,1-.368-.184.567.567,0,0,1-.168-.288,1.626,1.626,0,0,1-.04-.376,1.517,1.517,0,0,1,.04-.336.614.614,0,0,1,.168-.3,1,1,0,0,1,.368-.216,1.9,1.9,0,0,1,.64-.088H54.7a1.845,1.845,0,0,1,.624.088A1.091,1.091,0,0,1,55.7,53a.588.588,0,0,1,.176.3,1.413,1.413,0,0,1,.04.328v2.432a1.221,1.221,0,0,1-.048.352.553.553,0,0,1-.184.272.986.986,0,0,1-.368.176,2.394,2.394,0,0,1-.616.064h-8.24v.7h8.528a1.449,1.449,0,0,1,1.04.272,1.063,1.063,0,0,1,0,1.384,1.55,1.55,0,0,1-1.04.248Zm1.568-7.616a7.945,7.945,0,0,1-1.624-.144,2.639,2.639,0,0,1-1.12-.5,2.1,2.1,0,0,1-.656-.944,5.233,5.233,0,0,1,0-2.976,2.152,2.152,0,0,1,.656-.952,2.583,2.583,0,0,1,1.12-.5,9.184,9.184,0,0,1,3.24,0,2.587,2.587,0,0,1,1.128.5,2.152,2.152,0,0,1,.656.952,4.388,4.388,0,0,1,.216,1.488,4.692,4.692,0,0,1-.216,1.56,1.989,1.989,0,0,1-.656.936,2.552,2.552,0,0,1-1.128.456A9.522,9.522,0,0,1,46.729,51.912Zm0-1.9q.64,0,.824-.248a2.392,2.392,0,0,0,0-1.84q-.184-.248-.824-.248t-.824.248a2.392,2.392,0,0,0,0,1.84Q46.089,50.008,46.729,50.008Zm7.888,2.208a1.827,1.827,0,0,1-.488-.064,1.025,1.025,0,0,1-.7-.656,1.946,1.946,0,0,1-.1-.688V47.032a1.3,1.3,0,0,1,.392-1.1,1.459,1.459,0,0,1,.9-.3,1.827,1.827,0,0,1,.488.064.989.989,0,0,1,.408.224,1.179,1.179,0,0,1,.288.432,1.77,1.77,0,0,1,.112.672v3.776a1.82,1.82,0,0,1-.112.688,1.179,1.179,0,0,1-.288.432.989.989,0,0,1-.408.224A1.827,1.827,0,0,1,54.617,52.216Zm14.432,7.152a1.656,1.656,0,0,1-.472-.064.936.936,0,0,1-.384-.224,1.081,1.081,0,0,1-.264-.432,2.1,2.1,0,0,1-.1-.688V47.032a1.383,1.383,0,0,1,.352-1.1,1.3,1.3,0,0,1,.864-.3,1.656,1.656,0,0,1,.472.064.936.936,0,0,1,.384.224,1.081,1.081,0,0,1,.264.432,2.037,2.037,0,0,1,.1.672v3.84h.848a2.369,2.369,0,0,1,.736.1,1.187,1.187,0,0,1,.448.248.764.764,0,0,1,.216.352,1.45,1.45,0,0,1,.056.392,1.629,1.629,0,0,1-.056.44.764.764,0,0,1-.216.352,1.113,1.113,0,0,1-.448.24,2.57,2.57,0,0,1-.736.088h-.848v4.88a2.1,2.1,0,0,1-.1.688,1.081,1.081,0,0,1-.264.432.936.936,0,0,1-.384.224A1.656,1.656,0,0,1,69.049,59.368ZM59.641,58.7a.948.948,0,0,1-.76.136,1.266,1.266,0,0,1-.7-.36.889.889,0,0,1-.272-.776,1.875,1.875,0,0,1,.336-.888,8.9,8.9,0,0,0,.632-1.1,6.357,6.357,0,0,0,.392-1.04,5.938,5.938,0,0,0,.192-1.08q.048-.56.048-1.232V48.04H58.7a1.28,1.28,0,0,1-1.04-.328,1.248,1.248,0,0,1-.256-.792,1.45,1.45,0,0,1,.056-.392.83.83,0,0,1,.2-.352,1.047,1.047,0,0,1,.4-.248,1.839,1.839,0,0,1,.64-.1h2.032a2.026,2.026,0,0,1,.672.088.851.851,0,0,1,.368.24.73.73,0,0,1,.16.376,3.654,3.654,0,0,1,.032.512v5.9a9.2,9.2,0,0,1-.112,1.256,10.315,10.315,0,0,1-.376,1.616,8.053,8.053,0,0,1-.712,1.616A3.932,3.932,0,0,1,59.641,58.7Zm4.672.368a.78.78,0,0,1-.36.136,1.437,1.437,0,0,1-.4-.008,1.316,1.316,0,0,1-.7-.352.889.889,0,0,1-.272-.776,1.875,1.875,0,0,1,.336-.888,6.941,6.941,0,0,0,.616-1.12,6.087,6.087,0,0,0,.352-1.1,7.191,7.191,0,0,0,.152-1.136q.032-.584.032-1.256V48.04h-.5a1.845,1.845,0,0,1-.624-.088.916.916,0,0,1-.376-.24.735.735,0,0,1-.176-.352,2.247,2.247,0,0,1-.04-.44,2,2,0,0,1,.04-.392.735.735,0,0,1,.176-.352.985.985,0,0,1,.376-.248,1.7,1.7,0,0,1,.624-.1h1.712a2.026,2.026,0,0,1,.672.088.851.851,0,0,1,.368.24.73.73,0,0,1,.16.376,3.653,3.653,0,0,1,.032.512V53.16q0,.32-.032.792t-.112,1.016a9.864,9.864,0,0,1-.24,1.136,8.289,8.289,0,0,1-.4,1.144,5.123,5.123,0,0,1-.592,1.024A3.351,3.351,0,0,1,64.313,59.064ZM80.521,48.872a2.892,2.892,0,0,0-.464-1.6,3.193,3.193,0,0,0-1.416-1.152,5.707,5.707,0,0,0-2.36-.432,5.789,5.789,0,0,0-2.312.408,3.725,3.725,0,0,0-1.432,1.016.83.83,0,0,0-.208.528.946.946,0,0,0,.448.752,1.154,1.154,0,0,0,.72.208,1.657,1.657,0,0,0,1.12-.4q.064-.064.264-.256a1.583,1.583,0,0,1,.528-.32,2.233,2.233,0,0,1,.808-.128,1.93,1.93,0,0,1,1.344.368,1.416,1.416,0,0,1,.384,1.072,1.87,1.87,0,0,1-.392,1.168,4.383,4.383,0,0,1-1.064.96,3.754,3.754,0,0,0-1.352,1.24,3.489,3.489,0,0,0-.424,1.832q0,1.024,1.3,1.024a1.247,1.247,0,0,0,.912-.288.887.887,0,0,0,.288-.64,5.283,5.283,0,0,1,.048-.816,1.174,1.174,0,0,1,.232-.528,2.636,2.636,0,0,1,.568-.512,14.262,14.262,0,0,0,1.288-1.048,4.3,4.3,0,0,0,.84-1.088A2.81,2.81,0,0,0,80.521,48.872ZM74.409,57.3a1.211,1.211,0,0,0,.448,1,1.756,1.756,0,0,0,1.136.36,1.789,1.789,0,0,0,1.144-.36,1.2,1.2,0,0,0,.456-1,1.225,1.225,0,0,0-.456-1.008,1.763,1.763,0,0,0-1.144-.368,1.731,1.731,0,0,0-1.136.368A1.234,1.234,0,0,0,74.409,57.3Z" transform="translate(49.771 40.944)"/>
</svg>
