<svg id="그룹_1694" data-name="그룹 1694" xmlns="http://www.w3.org/2000/svg" xmlns:xlink="http://www.w3.org/1999/xlink" width="169.591" height="128.449" viewBox="0 0 169.591 128.449">
  <defs>
    <clipPath id="clip-path">
      <rect id="사각형_2438" data-name="사각형 2438" width="169.591" height="128.449" fill="none"/>
    </clipPath>
  </defs>
  <g id="그룹_1691" data-name="그룹 1691" transform="translate(0 0)">
    <g id="그룹_1690" data-name="그룹 1690" clip-path="url(#clip-path)">
      <path id="패스_6144" data-name="패스 6144" d="M36.608,73.894a.878.878,0,0,1,.1,1.054A30.782,30.782,0,0,1,17.7,88.31c-7.632,1.77-12.432,1-15.189-.026-.761-.284-1.351.724-.795,1.35a23.827,23.827,0,0,0,18.672,7.926c10.193-.13,15.251-2.645,17.457-4.256a.977.977,0,0,1,1.527.795c.5,6.187,4.543,25.188,22.154,31.4,23.113,7.015,37.663-8.056,41.775-14.28a.7.7,0,0,1,1.075-.145c3.826,3.467,22.073,20.662,40.86,8.74,15.64-9.924,10.393-33.653,3.655-41.316a1.082,1.082,0,0,1,.6-1.785c6.812-.947,22.971-9.82,18.334-27.715-5.243-20.233-25.195-20.5-30.2-19.09a.979.979,0,0,1-1.207-.78C135.257,23.9,129.253,1.5,111.361,1.5,93.6,1.5,89.967,14.016,89.341,17.1a.169.169,0,0,1-.317.058C87.389,14.32,79.09,2.893,67.489,11.135c-.05.035-8.914,6.471-3.97,21.208a.786.786,0,0,1-.966,1.052C57.548,31.386,44.7,27.8,35.358,38.979c-11.343,13.58-2.5,30.879,1.25,34.915" transform="translate(-0.279 -0.187)" fill="#fff"/>
      <path id="패스_6145" data-name="패스 6145" d="M36.608,73.894a.878.878,0,0,1,.1,1.054A30.782,30.782,0,0,1,17.7,88.31c-7.632,1.77-12.432,1-15.189-.026-.761-.284-1.351.724-.795,1.35a23.827,23.827,0,0,0,18.672,7.926c10.193-.13,15.251-2.645,17.457-4.256a.977.977,0,0,1,1.527.795c.5,6.187,4.543,25.188,22.154,31.4,23.113,7.015,37.663-8.056,41.775-14.28a.7.7,0,0,1,1.075-.145c3.826,3.467,22.073,20.662,40.86,8.74,15.64-9.924,10.393-33.653,3.655-41.316a1.082,1.082,0,0,1,.6-1.785c6.812-.947,22.971-9.82,18.334-27.715-5.243-20.233-25.195-20.5-30.2-19.09a.979.979,0,0,1-1.207-.78C135.257,23.9,129.253,1.5,111.361,1.5,93.6,1.5,89.967,14.016,89.341,17.1a.169.169,0,0,1-.317.058C87.389,14.32,79.09,2.893,67.489,11.135c-.05.035-8.914,6.471-3.97,21.208a.786.786,0,0,1-.966,1.052C57.548,31.386,44.7,27.8,35.358,38.979,24.016,52.559,32.858,69.859,36.608,73.894Z" transform="translate(-0.279 -0.187)" fill="none" stroke="#1a1311" stroke-linecap="round" stroke-miterlimit="10" stroke-width="3"/>
    </g>
  </g>
  <path id="패스_6474" data-name="패스 6474" d="M29.889,11.768a6.516,6.516,0,0,1-1.392-.48,10.52,10.52,0,0,1-1.288-.728,9.019,9.019,0,0,1-1.144-.9,9.664,9.664,0,0,1-.944-1,10.932,10.932,0,0,1-.96.968,11.484,11.484,0,0,1-1.1.872,8.921,8.921,0,0,1-1.184.7,6.8,6.8,0,0,1-1.2.456,2.649,2.649,0,0,1-.488.088,1.883,1.883,0,0,1-.52-.024,1.4,1.4,0,0,1-.512-.24,1.013,1.013,0,0,1-.352-.544,1.111,1.111,0,0,1,.1-.984,1.732,1.732,0,0,1,.864-.632,10.316,10.316,0,0,0,1.408-.656,8.03,8.03,0,0,0,1.3-.888,4.836,4.836,0,0,0,.944-1.056,2.134,2.134,0,0,0,.368-1.176V5.112a1.665,1.665,0,0,1,.12-.672,1.159,1.159,0,0,1,.312-.432,1.112,1.112,0,0,1,.44-.224,2.016,2.016,0,0,1,1.008,0,1.112,1.112,0,0,1,.44.224,1.159,1.159,0,0,1,.312.432,1.665,1.665,0,0,1,.12.672v.464a2.5,2.5,0,0,0,.312,1.192,4.322,4.322,0,0,0,.84,1.088,6.4,6.4,0,0,0,1.2.9,6.135,6.135,0,0,0,1.392.6,1.783,1.783,0,0,1,.92.56,1.1,1.1,0,0,1,.184.976,1.086,1.086,0,0,1-.736.832,1.416,1.416,0,0,1-.368.08A1.172,1.172,0,0,1,29.889,11.768ZM19.5,17.176a2.369,2.369,0,0,1-.736-.1,1.187,1.187,0,0,1-.448-.248.764.764,0,0,1-.216-.352,1.45,1.45,0,0,1-.056-.392,1.629,1.629,0,0,1,.056-.44.764.764,0,0,1,.216-.352,1.113,1.113,0,0,1,.448-.24,2.57,2.57,0,0,1,.736-.088h4.272V12.376a1.3,1.3,0,0,1,.392-1.1,1.459,1.459,0,0,1,.9-.3,1.827,1.827,0,0,1,.488.064.989.989,0,0,1,.408.224,1.179,1.179,0,0,1,.288.432,1.77,1.77,0,0,1,.112.672v2.592h4.256a2.57,2.57,0,0,1,.736.088,1.113,1.113,0,0,1,.448.24.764.764,0,0,1,.216.352,1.629,1.629,0,0,1,.056.44,1.45,1.45,0,0,1-.056.392.764.764,0,0,1-.216.352,1.187,1.187,0,0,1-.448.248,2.369,2.369,0,0,1-.736.1Zm16.432.384a3.155,3.155,0,0,1-1.28-.264,2.376,2.376,0,0,1-.848-.64,2.476,2.476,0,0,1-.464-.9A3.855,3.855,0,0,1,33.2,14.7a4.4,4.4,0,0,1,.128-1.072,2.418,2.418,0,0,1,.44-.912,2.113,2.113,0,0,1,.848-.632,3.6,3.6,0,0,1,1.352-.248h6.848a3.317,3.317,0,0,1,1.352.24,2.215,2.215,0,0,1,.848.632,2.343,2.343,0,0,1,.44.912,4.5,4.5,0,0,1,.128,1.08,3.855,3.855,0,0,1-.144,1.064,2.412,2.412,0,0,1-.472.9,2.474,2.474,0,0,1-.848.64,3.1,3.1,0,0,1-1.272.264Zm6.192-2.176a1.757,1.757,0,0,0,.672-.144q.208-.112.208-.544,0-.448-.208-.56a1.757,1.757,0,0,0-.672-.144H36.657a1.757,1.757,0,0,0-.672.144q-.208.112-.208.56,0,.432.208.544a1.757,1.757,0,0,0,.672.144Zm-8.288-4.352a1.321,1.321,0,0,1-.56-.1.978.978,0,0,1-.48-.432,1.014,1.014,0,0,1-.152-.936,1.855,1.855,0,0,1,.68-.792q.528-.384.9-.68a4.064,4.064,0,0,0,.632-.608,2.439,2.439,0,0,0,.4-.7,2.387,2.387,0,0,0,.16-.752H34.369a2.57,2.57,0,0,1-.736-.088,1.113,1.113,0,0,1-.448-.24.768.768,0,0,1-.216-.344,1.366,1.366,0,0,1-.056-.384,1.629,1.629,0,0,1,.056-.44.715.715,0,0,1,.216-.344,1.1,1.1,0,0,1,.448-.224,2.814,2.814,0,0,1,.736-.08h4.752a2.814,2.814,0,0,1,.736.08A1.1,1.1,0,0,1,40.3,4.2a.715.715,0,0,1,.216.344,1.629,1.629,0,0,1,.056.44,1.366,1.366,0,0,1-.056.384.768.768,0,0,1-.216.344,1.113,1.113,0,0,1-.448.24,2.57,2.57,0,0,1-.736.088h-.976a2.893,2.893,0,0,0,.16.72,2.359,2.359,0,0,0,.384.656,3.827,3.827,0,0,0,.616.576q.376.288.92.672a1.855,1.855,0,0,1,.68.792,1.014,1.014,0,0,1-.152.936,1.187,1.187,0,0,1-.424.408,1.244,1.244,0,0,1-.536.152,1.8,1.8,0,0,1-.368-.04.954.954,0,0,1-.368-.168,14.312,14.312,0,0,1-1.12-.928,9.1,9.1,0,0,1-1.024-1.1,8.515,8.515,0,0,1-.968,1.136,5.7,5.7,0,0,1-1.144.88,2.091,2.091,0,0,1-.456.208A2.053,2.053,0,0,1,33.841,11.032Zm9.856.256a1.827,1.827,0,0,1-.488-.064,1.025,1.025,0,0,1-.7-.656,1.946,1.946,0,0,1-.1-.688V5.032a1.3,1.3,0,0,1,.392-1.1,1.459,1.459,0,0,1,.9-.3,1.827,1.827,0,0,1,.488.064.989.989,0,0,1,.408.224,1.179,1.179,0,0,1,.288.432,1.77,1.77,0,0,1,.112.672V6.216h1.136a2.2,2.2,0,0,1,.736.1,1.2,1.2,0,0,1,.448.264.816.816,0,0,1,.216.36,1.45,1.45,0,0,1,.056.392,1.718,1.718,0,0,1-.056.448.762.762,0,0,1-.216.36,1.187,1.187,0,0,1-.448.248,2.369,2.369,0,0,1-.736.1H44.993V9.88a1.82,1.82,0,0,1-.112.688,1.179,1.179,0,0,1-.288.432.989.989,0,0,1-.408.224A1.827,1.827,0,0,1,43.7,11.288Zm6.192,6.256a2.243,2.243,0,0,1-.7-.088.911.911,0,0,1-.392-.24.678.678,0,0,1-.168-.352,2.794,2.794,0,0,1-.032-.44V14.312a1.556,1.556,0,0,1,.312-1,1.4,1.4,0,0,1,1.144-.392h3.136v-.832h-4.5a2.3,2.3,0,0,1-.64-.072.861.861,0,0,1-.368-.2.614.614,0,0,1-.168-.3,1.813,1.813,0,0,1-.04-.4,1.48,1.48,0,0,1,.04-.344.663.663,0,0,1,.168-.3.941.941,0,0,1,.368-.224,1.9,1.9,0,0,1,.64-.088H60.321a1.9,1.9,0,0,1,.64.088.941.941,0,0,1,.368.224.663.663,0,0,1,.168.3,1.48,1.48,0,0,1,.04.344,1.813,1.813,0,0,1-.04.4.614.614,0,0,1-.168.3.861.861,0,0,1-.368.2,2.3,2.3,0,0,1-.64.072H55.777v.832h3.344a2.243,2.243,0,0,1,.7.088.911.911,0,0,1,.392.24.678.678,0,0,1,.168.352,2.794,2.794,0,0,1,.032.44v2.112a1.261,1.261,0,0,1-.416,1.1,1.749,1.749,0,0,1-1.04.3Zm7.936-1.936v-.752h-6.64v.752Zm-8-6.24a2.814,2.814,0,0,1-.736-.08,1.17,1.17,0,0,1-.448-.216.673.673,0,0,1-.216-.32,1.284,1.284,0,0,1-.056-.376,1.458,1.458,0,0,1,.056-.424.673.673,0,0,1,.216-.32,1.1,1.1,0,0,1,.448-.208,3.112,3.112,0,0,1,.736-.072h.688V5.832H49.9a2.814,2.814,0,0,1-.736-.08,1.17,1.17,0,0,1-.448-.216.673.673,0,0,1-.216-.32,1.284,1.284,0,0,1-.056-.376,1.458,1.458,0,0,1,.056-.424.673.673,0,0,1,.216-.32,1.1,1.1,0,0,1,.448-.208,3.112,3.112,0,0,1,.736-.072h9.2a3.112,3.112,0,0,1,.736.072,1.1,1.1,0,0,1,.448.208.673.673,0,0,1,.216.32,1.458,1.458,0,0,1,.056.424,1.284,1.284,0,0,1-.056.376.673.673,0,0,1-.216.32,1.17,1.17,0,0,1-.448.216,2.814,2.814,0,0,1-.736.08H58.5v1.52h.688a3.112,3.112,0,0,1,.736.072,1.1,1.1,0,0,1,.448.208.673.673,0,0,1,.216.32,1.458,1.458,0,0,1,.056.424,1.284,1.284,0,0,1-.056.376.673.673,0,0,1-.216.32,1.17,1.17,0,0,1-.448.216,2.814,2.814,0,0,1-.736.08ZM55.9,7.352V5.832H53.1v1.52ZM71.377,17.368a1.461,1.461,0,0,1-.432-.064.823.823,0,0,1-.36-.224,1.2,1.2,0,0,1-.248-.432,2.1,2.1,0,0,1-.1-.688V10.92h-1.68V12.9q0,.416-.008.7t-.008.384a5.821,5.821,0,0,1-.176,1.392,2.26,2.26,0,0,1-.52.976,2.214,2.214,0,0,1-.936.576,5.406,5.406,0,0,1-2.856,0,2.061,2.061,0,0,1-.912-.584,2.425,2.425,0,0,1-.5-.984,6.935,6.935,0,0,1-.208-1.376q-.016-.144-.016-.68t-.008-1.272Q62.4,11.3,62.4,10.472T62.409,8.9q.008-.736.008-1.264t.016-.672a7.6,7.6,0,0,1,.2-1.4,2.417,2.417,0,0,1,.5-1,2.087,2.087,0,0,1,.912-.6,4.426,4.426,0,0,1,1.448-.2,4.178,4.178,0,0,1,1.392.2,2.117,2.117,0,0,1,.912.608,2.669,2.669,0,0,1,.528,1.008,6.309,6.309,0,0,1,.224,1.384q0,.128.008.6t.008,1.144h1.68V5.032a1.4,1.4,0,0,1,.344-1.1,1.179,1.179,0,0,1,.792-.3,1.158,1.158,0,0,1,.776.3,1.4,1.4,0,0,1,.344,1.1V15.96a2.1,2.1,0,0,1-.1.688,1.2,1.2,0,0,1-.248.432.823.823,0,0,1-.36.224A1.408,1.408,0,0,1,71.377,17.368Zm-5.888-2.3a1.144,1.144,0,0,0,.24-.024.317.317,0,0,0,.192-.136,1.009,1.009,0,0,0,.136-.312,2.65,2.65,0,0,0,.072-.568q.016-.16.016-.7V8.84q0-.752-.008-1.288t-.008-.68a3.175,3.175,0,0,0-.064-.544.741.741,0,0,0-.136-.312.409.409,0,0,0-.2-.136.87.87,0,0,0-.24-.032.708.708,0,0,0-.24.04.4.4,0,0,0-.192.152,1.009,1.009,0,0,0-.136.328,2.786,2.786,0,0,0-.072.552q-.016.144-.016.7t-.008,1.3q-.008.744,0,1.584t.008,1.576v1.28q0,.544.016.672a2.575,2.575,0,0,0,.048.568.9.9,0,0,0,.128.312.319.319,0,0,0,.2.136A1.349,1.349,0,0,0,65.489,15.064Zm9.312,2.3a1.461,1.461,0,0,1-.432-.064.823.823,0,0,1-.36-.224,1.2,1.2,0,0,1-.248-.432,2.1,2.1,0,0,1-.1-.688V5.032a1.4,1.4,0,0,1,.344-1.1,1.179,1.179,0,0,1,.792-.3,1.158,1.158,0,0,1,.776.3,1.4,1.4,0,0,1,.344,1.1V15.96a2.1,2.1,0,0,1-.1.688,1.2,1.2,0,0,1-.248.432.823.823,0,0,1-.36.224A1.408,1.408,0,0,1,74.8,17.368ZM27.617,38.544a2.243,2.243,0,0,1-.7-.088.911.911,0,0,1-.392-.24.678.678,0,0,1-.168-.352,2.794,2.794,0,0,1-.032-.44v-2.16a1.3,1.3,0,0,1,.392-1.1,1.459,1.459,0,0,1,.9-.3,1.827,1.827,0,0,1,.488.064.989.989,0,0,1,.408.224,1.179,1.179,0,0,1,.288.432,1.77,1.77,0,0,1,.112.672v1.072h8.576a2.369,2.369,0,0,1,.736.1,1.187,1.187,0,0,1,.448.248.764.764,0,0,1,.216.352,1.45,1.45,0,0,1,.056.392,1.629,1.629,0,0,1-.056.44.764.764,0,0,1-.216.352,1.113,1.113,0,0,1-.448.24,2.57,2.57,0,0,1-.736.088Zm2.464-7.456V29.312h-1.7v1.776Zm-2.912,2.048a2.243,2.243,0,0,1-.7-.088.911.911,0,0,1-.392-.24.678.678,0,0,1-.168-.352,2.794,2.794,0,0,1-.032-.44V26.192a1.383,1.383,0,0,1,.352-1.1,1.3,1.3,0,0,1,.864-.3,1.827,1.827,0,0,1,.488.064.989.989,0,0,1,.408.224,1.179,1.179,0,0,1,.288.432,1.77,1.77,0,0,1,.112.672v1.072h1.7V26.192a1.3,1.3,0,0,1,.392-1.1,1.459,1.459,0,0,1,.9-.3,1.656,1.656,0,0,1,.472.064.936.936,0,0,1,.384.224,1.081,1.081,0,0,1,.264.432,2.037,2.037,0,0,1,.1.672v5.824a2.794,2.794,0,0,1-.032.44.678.678,0,0,1-.168.352.911.911,0,0,1-.392.24,2.243,2.243,0,0,1-.7.088Zm9.92.992a1.827,1.827,0,0,1-.488-.064,1.025,1.025,0,0,1-.7-.656,1.946,1.946,0,0,1-.1-.688V30.064H34.609a2.4,2.4,0,0,1-.72-.088.994.994,0,0,1-.424-.248.782.782,0,0,1-.2-.36,1.885,1.885,0,0,1-.048-.44,1.676,1.676,0,0,1,.048-.392.782.782,0,0,1,.2-.36,1.06,1.06,0,0,1,.424-.256,2.215,2.215,0,0,1,.72-.1h1.184V26.032a1.3,1.3,0,0,1,.392-1.1,1.459,1.459,0,0,1,.9-.3,1.827,1.827,0,0,1,.488.064.989.989,0,0,1,.408.224,1.179,1.179,0,0,1,.288.432,1.77,1.77,0,0,1,.112.672V32.72a1.82,1.82,0,0,1-.112.688,1.179,1.179,0,0,1-.288.432.989.989,0,0,1-.408.224A1.827,1.827,0,0,1,37.089,34.128Zm4.5,4.048a2.369,2.369,0,0,1-.736-.1,1.187,1.187,0,0,1-.448-.248.764.764,0,0,1-.216-.352,1.45,1.45,0,0,1-.056-.392,1.629,1.629,0,0,1,.056-.44A.764.764,0,0,1,40.4,36.3a1.113,1.113,0,0,1,.448-.24,2.57,2.57,0,0,1,.736-.088h4.272V34.88h-.912a4.637,4.637,0,0,1-2.544-.592,1.858,1.858,0,0,1-.848-1.632v-.48a2.277,2.277,0,0,1,.24-1.088,1.9,1.9,0,0,1,.7-.728,3.325,3.325,0,0,1,1.088-.408,7.252,7.252,0,0,1,1.432-.128h4.256a7.283,7.283,0,0,1,1.424.128,3.327,3.327,0,0,1,1.1.408,1.9,1.9,0,0,1,.7.728,2.277,2.277,0,0,1,.24,1.088v.48a1.88,1.88,0,0,1-.84,1.608,4.447,4.447,0,0,1-2.536.616h-.9v1.088H52.7a2.57,2.57,0,0,1,.736.088,1.113,1.113,0,0,1,.448.24.764.764,0,0,1,.216.352,1.629,1.629,0,0,1,.056.44,1.45,1.45,0,0,1-.056.392.764.764,0,0,1-.216.352,1.187,1.187,0,0,1-.448.248,2.369,2.369,0,0,1-.736.1Zm7.2-5.136A3.406,3.406,0,0,0,49.8,32.9a.472.472,0,0,0,.328-.488v-.08a.484.484,0,0,0-.328-.5,3.381,3.381,0,0,0-1.064-.12h-3.2a3.381,3.381,0,0,0-1.064.12.484.484,0,0,0-.328.5v.08a.472.472,0,0,0,.328.488,3.406,3.406,0,0,0,1.016.136Zm-6.432-3.9a2.814,2.814,0,0,1-.736-.08,1.1,1.1,0,0,1-.448-.224.721.721,0,0,1-.216-.328,1.284,1.284,0,0,1-.056-.376,1.542,1.542,0,0,1,.056-.432.67.67,0,0,1,.216-.328,1.1,1.1,0,0,1,.448-.208,3.113,3.113,0,0,1,.736-.072h9.536a3.112,3.112,0,0,1,.736.072,1.1,1.1,0,0,1,.448.208.67.67,0,0,1,.216.328,1.542,1.542,0,0,1,.056.432,1.284,1.284,0,0,1-.056.376.721.721,0,0,1-.216.328,1.1,1.1,0,0,1-.448.224,2.814,2.814,0,0,1-.736.08Zm1.488-2.72a1.087,1.087,0,0,1-.448-.08.685.685,0,0,1-.272-.208.8.8,0,0,1-.136-.288,1.315,1.315,0,0,1-.04-.32,1.224,1.224,0,0,1,.168-.656q.168-.272.728-.272h6.24q.56,0,.728.272a1.224,1.224,0,0,1,.168.656,1.315,1.315,0,0,1-.04.32.8.8,0,0,1-.136.288.685.685,0,0,1-.272.208,1.087,1.087,0,0,1-.448.08ZM56.913,38.544a2.243,2.243,0,0,1-.7-.088.911.911,0,0,1-.392-.24.678.678,0,0,1-.168-.352,2.794,2.794,0,0,1-.032-.44V35.072a1.3,1.3,0,0,1,.392-1.1,1.459,1.459,0,0,1,.9-.3,1.827,1.827,0,0,1,.488.064.989.989,0,0,1,.408.224,1.179,1.179,0,0,1,.288.432,1.77,1.77,0,0,1,.112.672v1.264h7.92a2.369,2.369,0,0,1,.736.1,1.187,1.187,0,0,1,.448.248.764.764,0,0,1,.216.352,1.45,1.45,0,0,1,.056.392,1.628,1.628,0,0,1-.056.44.764.764,0,0,1-.216.352,1.113,1.113,0,0,1-.448.24,2.57,2.57,0,0,1-.736.088Zm-.288-5.856a2.243,2.243,0,0,1-.7-.088.911.911,0,0,1-.392-.24.678.678,0,0,1-.168-.352,2.794,2.794,0,0,1-.032-.44v-5.52a1.089,1.089,0,0,1,.384-.984,1.968,1.968,0,0,1,1.072-.248h3.968a2.243,2.243,0,0,1,.7.088.911.911,0,0,1,.392.24.678.678,0,0,1,.168.352,2.794,2.794,0,0,1,.032.44V31.3a1.826,1.826,0,0,1-.1.664,1.031,1.031,0,0,1-.3.424,1.2,1.2,0,0,1-.448.232,2.063,2.063,0,0,1-.56.072Zm2.832-2.128V26.944H57.921V30.56Zm6.32,3.28a1.827,1.827,0,0,1-.488-.064,1.024,1.024,0,0,1-.7-.656,1.946,1.946,0,0,1-.1-.688v-6.4a1.3,1.3,0,0,1,.392-1.1,1.459,1.459,0,0,1,.9-.3,1.827,1.827,0,0,1,.488.064.989.989,0,0,1,.408.224,1.179,1.179,0,0,1,.288.432,1.77,1.77,0,0,1,.112.672V28.08h1.168a2.369,2.369,0,0,1,.736.1,1.187,1.187,0,0,1,.448.248.764.764,0,0,1,.216.352,1.45,1.45,0,0,1,.056.392,1.629,1.629,0,0,1-.056.44.764.764,0,0,1-.216.352,1.113,1.113,0,0,1-.448.24,2.57,2.57,0,0,1-.736.088H67.073v2.144a1.82,1.82,0,0,1-.112.688,1.179,1.179,0,0,1-.288.432.989.989,0,0,1-.408.224A1.827,1.827,0,0,1,65.777,33.84Zm-49.8,25.848a2.243,2.243,0,0,1-.7-.088.911.911,0,0,1-.392-.24.678.678,0,0,1-.168-.352,2.684,2.684,0,0,1-.032-.424V54.616a1.221,1.221,0,0,1,.04-.312.617.617,0,0,1,.168-.28.927.927,0,0,1,.368-.208,2.016,2.016,0,0,1,.624-.08h3.408v-.688H14.6a1.378,1.378,0,0,1-.808-.184.83.83,0,0,1,0-1.184,1.221,1.221,0,0,1,.808-.216H26.553a1.221,1.221,0,0,1,.808.216.83.83,0,0,1,0,1.184,1.378,1.378,0,0,1-.808.184H21.881v.688H25.4a1.235,1.235,0,0,1,.9.24.872.872,0,0,1,0,1.168,1.371,1.371,0,0,1-.9.208H17.273v.528h7.84a2.028,2.028,0,0,1,1.088.192.674.674,0,0,1,.256.576,1.027,1.027,0,0,1-.056.368.467.467,0,0,1-.2.232,1.114,1.114,0,0,1-.408.128,4.7,4.7,0,0,1-.68.04h-7.84v.544h8.064a3.258,3.258,0,0,1,.72.064,1.166,1.166,0,0,1,.424.176.521.521,0,0,1,.2.272,1.221,1.221,0,0,1,.048.352,1.347,1.347,0,0,1-.048.384.521.521,0,0,1-.2.272,1.008,1.008,0,0,1-.424.16,4.313,4.313,0,0,1-.72.048ZM23.865,49.24v-.624H17.273v.624Zm-7.9,1.648a2.243,2.243,0,0,1-.7-.088.911.911,0,0,1-.392-.24.678.678,0,0,1-.168-.352,2.794,2.794,0,0,1-.032-.44V47.032a1.635,1.635,0,0,1,.1-.64.93.93,0,0,1,.28-.376.9.9,0,0,1,.4-.176,2.731,2.731,0,0,1,.48-.04,3.013,3.013,0,0,1,.5.04,1.03,1.03,0,0,1,.432.176.931.931,0,0,1,.3.376,1.531,1.531,0,0,1,.112.64v.016h6.592v-.016a1.531,1.531,0,0,1,.112-.64.931.931,0,0,1,.3-.376,1.03,1.03,0,0,1,.432-.176,3.013,3.013,0,0,1,.5-.04,2.731,2.731,0,0,1,.48.04.9.9,0,0,1,.4.176.93.93,0,0,1,.28.376,1.635,1.635,0,0,1,.1.64v2.736a2.794,2.794,0,0,1-.032.44.678.678,0,0,1-.168.352.911.911,0,0,1-.392.24,2.243,2.243,0,0,1-.7.088Zm16.368,8.32A4.966,4.966,0,0,1,30.777,59a2.456,2.456,0,0,1-1.016-.616,2.551,2.551,0,0,1-.584-1.008,5.7,5.7,0,0,1-.24-1.384q-.016-.144-.016-.68t-.008-1.272Q28.9,53.3,28.9,52.472t.008-1.568q.008-.736.008-1.264t.016-.672a6.155,6.155,0,0,1,.232-1.408,2.538,2.538,0,0,1,.576-1.024,2.482,2.482,0,0,1,1.016-.632,4.854,4.854,0,0,1,1.568-.216,4.62,4.62,0,0,1,1.5.216,2.548,2.548,0,0,1,1.024.632,2.718,2.718,0,0,1,.608,1.032,5.41,5.41,0,0,1,.256,1.4q0,.144.008.68t.008,1.272q0,.736.008,1.568t0,1.568q-.008.736-.016,1.272t-.008.664a3.45,3.45,0,0,1-.808,2.416A3.494,3.494,0,0,1,32.329,59.208Zm0-2.176a1.518,1.518,0,0,0,.264-.024.461.461,0,0,0,.248-.136.918.918,0,0,0,.192-.312,1.8,1.8,0,0,0,.1-.568q0-.144.008-.7t.008-1.288V50.856q0-.752-.008-1.28t-.008-.672a1.7,1.7,0,0,0-.072-.544.71.71,0,0,0-.192-.312.6.6,0,0,0-.264-.136,1.256,1.256,0,0,0-.272-.032.934.934,0,0,0-.264.04.581.581,0,0,0-.248.152.9.9,0,0,0-.192.328,1.871,1.871,0,0,0-.1.552q-.016.144-.016.688T31.5,50.92q-.008.736-.008,1.568t.008,1.568q.008.736.008,1.272t.016.664a1.749,1.749,0,0,0,.072.568.834.834,0,0,0,.184.312.464.464,0,0,0,.256.136A1.749,1.749,0,0,0,32.329,57.032Zm7.888,2.336a1.827,1.827,0,0,1-.488-.064,1.025,1.025,0,0,1-.7-.656,1.946,1.946,0,0,1-.1-.688V53.016h-1.3a2.4,2.4,0,0,1-.72-.088,1.043,1.043,0,0,1-.424-.24.732.732,0,0,1-.2-.352,1.885,1.885,0,0,1-.048-.44,1.676,1.676,0,0,1,.048-.392.732.732,0,0,1,.2-.352A1.115,1.115,0,0,1,36.9,50.9a2.215,2.215,0,0,1,.72-.1h1.3V47.032a1.3,1.3,0,0,1,.392-1.1,1.459,1.459,0,0,1,.9-.3,1.827,1.827,0,0,1,.488.064.989.989,0,0,1,.408.224,1.179,1.179,0,0,1,.288.432,1.77,1.77,0,0,1,.112.672V57.96a1.82,1.82,0,0,1-.112.688,1.179,1.179,0,0,1-.288.432.989.989,0,0,1-.408.224A1.827,1.827,0,0,1,40.217,59.368ZM46.761,52.9a3.9,3.9,0,0,1-2.76-.84,3.64,3.64,0,0,1-.888-2.744,3.715,3.715,0,0,1,.88-2.768,3.873,3.873,0,0,1,2.768-.848,3.873,3.873,0,0,1,2.768.848,3.715,3.715,0,0,1,.88,2.768,5.729,5.729,0,0,1-.216,1.7,2.507,2.507,0,0,1-.672,1.112,2.586,2.586,0,0,1-1.144.6A6.57,6.57,0,0,1,46.761,52.9Zm-1.184,6.4a.971.971,0,0,1-.792.232,1.711,1.711,0,0,1-.632-.312,1.1,1.1,0,0,1-.3-.328,1.029,1.029,0,0,1-.144-.424,1.122,1.122,0,0,1,.048-.456.916.916,0,0,1,.264-.408q.272-.256.528-.52a5.455,5.455,0,0,0,.464-.544,2.487,2.487,0,0,0,.328-.592,1.879,1.879,0,0,0,.12-.68v-.48a1.676,1.676,0,0,1,.048-.392.909.909,0,0,1,.176-.36.936.936,0,0,1,.368-.264,1.537,1.537,0,0,1,.608-.1,1.414,1.414,0,0,1,1.1.352,1.135,1.135,0,0,1,.312.768v.48a2.031,2.031,0,0,0,.424,1.272,8.955,8.955,0,0,0,.968,1.064.916.916,0,0,1,.264.408,1.122,1.122,0,0,1,.048.456,1.029,1.029,0,0,1-.144.424,1.1,1.1,0,0,1-.3.328,1.705,1.705,0,0,1-.64.312.983.983,0,0,1-.8-.232,3.812,3.812,0,0,1-.6-.608q-.328-.4-.552-.7-.24.3-.568.7A3.812,3.812,0,0,1,45.577,59.3Zm6.3,0a.971.971,0,0,1-.792.232,1.711,1.711,0,0,1-.632-.312,1.1,1.1,0,0,1-.3-.328,1.029,1.029,0,0,1-.144-.424,1.122,1.122,0,0,1,.048-.456.916.916,0,0,1,.264-.408q.272-.256.528-.52a5.455,5.455,0,0,0,.464-.544,2.487,2.487,0,0,0,.328-.592,1.879,1.879,0,0,0,.12-.68v-.48a1.676,1.676,0,0,1,.048-.392.909.909,0,0,1,.176-.36.936.936,0,0,1,.368-.264,1.537,1.537,0,0,1,.608-.1,1.414,1.414,0,0,1,1.1.352,1.135,1.135,0,0,1,.312.768v.48a2.031,2.031,0,0,0,.424,1.272,8.955,8.955,0,0,0,.968,1.064.916.916,0,0,1,.264.408,1.122,1.122,0,0,1,.048.456,1.029,1.029,0,0,1-.144.424,1.1,1.1,0,0,1-.3.328,1.705,1.705,0,0,1-.64.312.983.983,0,0,1-.8-.232,3.812,3.812,0,0,1-.6-.608q-.328-.4-.552-.7-.24.3-.568.7A3.812,3.812,0,0,1,51.881,59.3Zm-5.12-8.512a.9.9,0,0,0,.84-.336,2.355,2.355,0,0,0,.2-1.136,2.406,2.406,0,0,0-.2-1.144,1.2,1.2,0,0,0-1.68,0,2.406,2.406,0,0,0-.2,1.144,2.355,2.355,0,0,0,.2,1.136A.9.9,0,0,0,46.761,50.792Zm7.872,2.544a1.827,1.827,0,0,1-.488-.064,1.025,1.025,0,0,1-.7-.656,1.946,1.946,0,0,1-.1-.688v-4.9a1.3,1.3,0,0,1,.392-1.1,1.459,1.459,0,0,1,.9-.3,1.827,1.827,0,0,1,.488.064.989.989,0,0,1,.408.224,1.179,1.179,0,0,1,.288.432,1.77,1.77,0,0,1,.112.672v4.9a1.82,1.82,0,0,1-.112.688,1.179,1.179,0,0,1-.288.432.989.989,0,0,1-.408.224A1.827,1.827,0,0,1,54.633,53.336Zm11.552,6.032a1.461,1.461,0,0,1-.432-.064.823.823,0,0,1-.36-.224,1.2,1.2,0,0,1-.248-.432,2.1,2.1,0,0,1-.1-.688V52.888h-1.68a2.4,2.4,0,0,1-.72-.088,1.043,1.043,0,0,1-.424-.24.732.732,0,0,1-.2-.352,1.885,1.885,0,0,1-.048-.44,1.676,1.676,0,0,1,.048-.392.732.732,0,0,1,.2-.352,1.115,1.115,0,0,1,.424-.248,2.215,2.215,0,0,1,.72-.1h1.68V47.032a1.4,1.4,0,0,1,.344-1.1,1.179,1.179,0,0,1,.792-.3,1.158,1.158,0,0,1,.776.3,1.4,1.4,0,0,1,.344,1.1V57.96a2.1,2.1,0,0,1-.1.688,1.2,1.2,0,0,1-.248.432.823.823,0,0,1-.36.224A1.408,1.408,0,0,1,66.185,59.368Zm-6.64-.4a2.243,2.243,0,0,1-.7-.088.911.911,0,0,1-.392-.24.678.678,0,0,1-.168-.352,2.794,2.794,0,0,1-.032-.44V47.192a1.383,1.383,0,0,1,.352-1.1,1.3,1.3,0,0,1,.864-.3,1.656,1.656,0,0,1,.472.064.936.936,0,0,1,.384.224,1.081,1.081,0,0,1,.264.432,2.037,2.037,0,0,1,.1.672V56.76h1.536a2.369,2.369,0,0,1,.736.1,1.187,1.187,0,0,1,.448.248.764.764,0,0,1,.216.352,1.45,1.45,0,0,1,.056.392,1.629,1.629,0,0,1-.056.44.764.764,0,0,1-.216.352,1.113,1.113,0,0,1-.448.24,2.57,2.57,0,0,1-.736.088Zm10.352.4a1.461,1.461,0,0,1-.432-.064.823.823,0,0,1-.36-.224,1.2,1.2,0,0,1-.248-.432,2.1,2.1,0,0,1-.1-.688V47.032a1.4,1.4,0,0,1,.344-1.1,1.179,1.179,0,0,1,.792-.3,1.158,1.158,0,0,1,.776.3,1.4,1.4,0,0,1,.344,1.1V57.96a2.1,2.1,0,0,1-.1.688,1.2,1.2,0,0,1-.248.432.823.823,0,0,1-.36.224A1.408,1.408,0,0,1,69.9,59.368Zm10.624-10.5a2.892,2.892,0,0,0-.464-1.6,3.193,3.193,0,0,0-1.416-1.152,5.707,5.707,0,0,0-2.36-.432,5.789,5.789,0,0,0-2.312.408,3.725,3.725,0,0,0-1.432,1.016.83.83,0,0,0-.208.528.946.946,0,0,0,.448.752,1.154,1.154,0,0,0,.72.208,1.657,1.657,0,0,0,1.12-.4q.064-.064.264-.256a1.583,1.583,0,0,1,.528-.32,2.233,2.233,0,0,1,.808-.128,1.93,1.93,0,0,1,1.344.368,1.416,1.416,0,0,1,.384,1.072,1.87,1.87,0,0,1-.392,1.168,4.383,4.383,0,0,1-1.064.96,3.754,3.754,0,0,0-1.352,1.24,3.489,3.489,0,0,0-.424,1.832q0,1.024,1.3,1.024a1.247,1.247,0,0,0,.912-.288.887.887,0,0,0,.288-.64,5.283,5.283,0,0,1,.048-.816,1.174,1.174,0,0,1,.232-.528,2.636,2.636,0,0,1,.568-.512,14.262,14.262,0,0,0,1.288-1.048,4.3,4.3,0,0,0,.84-1.088A2.81,2.81,0,0,0,80.521,48.872ZM74.409,57.3a1.211,1.211,0,0,0,.448,1,1.756,1.756,0,0,0,1.136.36,1.789,1.789,0,0,0,1.144-.36,1.2,1.2,0,0,0,.456-1,1.225,1.225,0,0,0-.456-1.008,1.763,1.763,0,0,0-1.144-.368,1.731,1.731,0,0,0-1.136.368A1.234,1.234,0,0,0,74.409,57.3Z" transform="translate(50.771 39.944)"/>
</svg>
