<svg xmlns="http://www.w3.org/2000/svg" xmlns:xlink="http://www.w3.org/1999/xlink" width="43.071" height="41.292" viewBox="0 0 43.071 41.292">
  <defs>
    <clipPath id="clip-path">
      <rect id="사각형_1932" data-name="사각형 1932" width="43.071" height="41.292" fill="none"/>
    </clipPath>
  </defs>
  <g id="그룹_1189" data-name="그룹 1189" style="isolation: isolate">
    <g id="그룹_1184" data-name="그룹 1184" transform="translate(0 0)" clip-path="url(#clip-path)">
      <path id="패스_3361" data-name="패스 3361" d="M17.55,36.849c9.656.093,11.9-.255,21.555-.161.749.007,3.122.005,3.122.005s-.1-3.02-.093-3.583c.073-7.551-.346-13.007-.346-21.3,0-.394-.026-.858-.355-1.076a1.206,1.206,0,0,0-.694-.129l-2.409.038H3.992l-2.409-.038a1.206,1.206,0,0,0-.694.129,1.219,1.219,0,0,0-.355,1.076C.607,19.363.459,23.5.532,31.05c.007.564.142,5.363.142,5.363s1.633.114,2.381.114c4.637,0,11.213.322,14.494.322" transform="translate(0.182 3.764)" fill="#dcdddd"/>
      <path id="패스_3362" data-name="패스 3362" d="M17.731,37.724c8.223.073,16.452-.15,24.677-.156a.672.672,0,0,0,.664-.664c-.129-3.929-.079-7.86-.179-11.791-.066-2.588-.153-5.176-.2-7.765q-.041-2-.051-4c0-.831.209-2.047-.434-2.722-1-1.047-3.638-.428-5.149-.428H5.936c-1.457,0-3.864-.466-5.042.114-.7.346-.786,1-.843,1.715-.126,1.589.023,3.256.02,4.852C.07,19.687.04,22.5.032,25.311c-.011,3.775.053,7.542.16,11.314a.679.679,0,0,0,.664.663c5.584.379,11.278.419,16.875.436a.664.664,0,0,0,0-1.328c-5.6-.016-11.291-.056-16.875-.435l.663.664c-.21-7.459-.088-14.913-.125-22.374,0-.58-.268-1.743-.015-2.229.37-.713.878-.533,1.589-.522.438.007.875.016,1.313.019.4,0,.8,0,1.206,0H11.2c9.085,0,18.173.06,27.258,0,.493,0,2.035-.29,2.463-.038.862.507.405,3.786.42,4.675.043,2.715.13,5.431.2,8.146.115,4.2.064,8.4.2,12.6l.664-.664c-8.225.005-16.454.229-24.677.156a.664.664,0,0,0,0,1.328" transform="translate(0 3.553)" fill="#1a1311"/>
      <path id="패스_3363" data-name="패스 3363" d="M23.366,10.076s7.757-3.348,12.606-2.905c1.417,0,.978,26.456.978,26.456s-12.421-.526-16.9,3.505c0,0-8.005-5.843-16.66-3.531l.08-25.875,1.694-.595L20.755,10.9Z" transform="translate(1.204 2.53)" fill="#fff"/>
      <path id="패스_3364" data-name="패스 3364" d="M20.864,9.978a37.878,37.878,0,0,1,8.447-1.791,6.641,6.641,0,0,1,2.16-.176c.664.249.459,1.226.491,1.9.077,1.65.125,3.3.153,4.954.111,6.31-.061,12.622-.042,18.932l.84-.64c-6.023-1.1-12.049.69-17.322,3.572-.749.411-.081,1.557.669,1.146,4.936-2.7,10.648-4.474,16.3-3.439a.672.672,0,0,0,.84-.64c-.023-7.475.225-14.954-.051-22.428-.042-1.138.278-3.108-.389-4.106-.592-.889-2-.546-2.854-.473A40.638,40.638,0,0,0,20.511,8.7c-.806.272-.461,1.554.352,1.28" transform="translate(5.418 2.364)" fill="#1a1311"/>
      <path id="패스_3365" data-name="패스 3365" d="M19.169,24.443c2.638-1.573,5.78-1.7,8.77-1.8.851-.028.855-1.356,0-1.328-3.226.11-6.595.282-9.439,1.978a.664.664,0,0,0,.669,1.146" transform="translate(6.454 7.567)" fill="#1a1311"/>
      <path id="패스_3366" data-name="패스 3366" d="M18.816,19.653A23.972,23.972,0,0,1,27.639,18a.664.664,0,0,0,0-1.328,25.016,25.016,0,0,0-9.175,1.7c-.787.308-.446,1.591.352,1.28" transform="translate(6.396 5.918)" fill="#1a1311"/>
      <path id="패스_3367" data-name="패스 3367" d="M19.609,14.224a18.434,18.434,0,0,1,7.8-.844.668.668,0,0,0,.664-.664.679.679,0,0,0-.664-.664,19.431,19.431,0,0,0-8.152.892c-.808.268-.462,1.55.352,1.28" transform="translate(6.673 4.24)" fill="#1a1311"/>
      <path id="패스_3368" data-name="패스 3368" d="M14.778,8.757A37.473,37.473,0,0,0,6.31,6.815c-.9-.089-2.447-.488-3.072.447-.661.992-.344,2.976-.381,4.106-.247,7.466.114,14.935.093,22.4a.674.674,0,0,0,.84.641c5.626-1.031,11.244.78,16.149,3.463.749.411,1.42-.736.669-1.146-5.242-2.867-11.175-4.7-17.17-3.6q.419.321.84.64c.016-6.3-.236-12.607-.169-18.91.018-1.554.053-3.107.118-4.658.023-.553-.123-1.836.3-2.116s1.545.034,2.027.084a35.833,35.833,0,0,1,7.868,1.869c.809.276,1.157-1.005.352-1.28" transform="translate(0.984 2.362)" fill="#1a1311"/>
      <path id="패스_3369" data-name="패스 3369" d="M16.551,32.954c-.238-4.473.091-8.939-.095-13.413-.035-.851-1.362-.855-1.327,0,.184,4.474-.145,8.94.093,13.413.046.85,1.374.855,1.328,0" transform="translate(5.371 6.709)" fill="#1a1311"/>
      <path id="패스_3370" data-name="패스 3370" d="M15.414,23.3C12.57,21.6,9.2,21.428,5.975,21.318c-.855-.028-.854,1.3,0,1.328,2.989.1,6.131.222,8.77,1.8a.664.664,0,0,0,.669-1.146" transform="translate(1.894 7.567)" fill="#1a1311"/>
      <path id="패스_3371" data-name="패스 3371" d="M15.415,18.373a25,25,0,0,0-9.176-1.7.664.664,0,0,0,0,1.327,23.981,23.981,0,0,1,8.824,1.654c.8.31,1.141-.973.352-1.28" transform="translate(1.987 5.918)" fill="#1a1311"/>
      <path id="패스_3372" data-name="패스 3372" d="M14.019,12.945a17.855,17.855,0,0,0-7.807-.892.683.683,0,0,0-.664.664.669.669,0,0,0,.664.664,16.913,16.913,0,0,1,7.455.844c.809.279,1.156-1,.352-1.28" transform="translate(1.97 4.24)" fill="#1a1311"/>
      <path id="패스_3373" data-name="패스 3373" d="M11.06,1.395V16.988H22.1a1.011,1.011,0,0,0,.985-1.035V1.381c-3.7.07-8.687.1-12.023.014" transform="translate(3.926 0.49)" fill="#e65649"/>
      <path id="패스_3374" data-name="패스 3374" d="M23.083,2.562V5.1A4.949,4.949,0,0,0,18.134.149H14.98a3.92,3.92,0,0,0-3.92,3.92V2.574c3.336.079,8.324.054,12.023-.012" transform="translate(3.926 0.052)" fill="#e65649"/>
      <path id="패스_3375" data-name="패스 3375" d="M13.589,16.16c.1,0,6.181-.2,6.03,0s-1.673,4.217-3.18,4.217S13.589,16.16,13.589,16.16Z" transform="translate(4.824 5.704)" fill="#e65649"/>
      <path id="패스_3376" data-name="패스 3376" d="M.969,17.834A38.611,38.611,0,0,0,6.56,26.72.67.67,0,0,0,7.6,26.586q1.309-1.866,2.615-3.733a47.035,47.035,0,0,0,3.1-4.428c.408-.756.126-1.923.093-2.751Q13.274,12.336,13.14,9C13.079,7.467,13,5.935,12.954,4.4a8.552,8.552,0,0,0-.359-2.818C12.123.358,11.209.079,9.985.032,8.125-.041,6.258.026,4.4.091,3.22.133,1.465-.169.653.914c-1,1.335-.573,3.638-.5,5.234q.112,2.563.236,5.127.087,1.8.178,3.61a7.7,7.7,0,0,0,.285,2.848c.679,1.363,3.1.882,4.3.882,2.233,0,4.466.005,6.7,0a.664.664,0,0,0,0-1.328q-2.49.006-4.978,0H4.316c-.633,0-1.943.262-2.322-.416a5.128,5.128,0,0,1-.077-1.5q-.037-.717-.072-1.438-.067-1.329-.13-2.658-.1-2.114-.2-4.228a20.008,20.008,0,0,1-.041-4.66c.2-.989.886-.9,1.734-.925.806-.03,1.611-.06,2.417-.084a26.728,26.728,0,0,1,4.7-.005c1.644.256,1.278,2.621,1.333,3.992l.207,5.121q.112,2.782.225,5.565c.02.5-.007,1.033.062,1.531a2.486,2.486,0,0,1,.014.348c0-.444.164-.3-.07-.077a11.546,11.546,0,0,0-1.217,1.736l-1.959,2.8L6.455,25.916,7.5,25.782a36.333,36.333,0,0,1-5.249-8.3c-.322-.779-1.607-.438-1.28.352" transform="matrix(1, 0.017, -0.017, 1, 14.406, -0.117)" fill="#1a1311"/>
      <path id="패스_3377" data-name="패스 3377" d="M13.75,16.838c1.756-.126,3.528,0,5.287,0a.665.665,0,0,0,0-1.328c-1.758,0-3.531-.125-5.287,0a.674.674,0,0,0-.651.664.663.663,0,0,0,.651.664" transform="translate(4.749 5.772)" fill="#1a1311"/>
      <path id="패스_3378" data-name="패스 3378" d="M2.063,16.852C1.81,11.453,1.852,6.016,1.332.635,1.249-.208-.079-.216,0,.635c.52,5.381.478,10.818.732,16.217.041.851,1.37.855,1.328,0" transform="translate(20.401 0.584) rotate(3)" fill="#1a1311"/>
    </g>
  </g>
</svg>
