<svg xmlns="http://www.w3.org/2000/svg" xmlns:xlink="http://www.w3.org/1999/xlink" width="102.025" height="126.312" viewBox="0 0 102.025 126.312">
  <defs>
    <clipPath id="clip-path">
      <rect id="사각형_1839" data-name="사각형 1839" width="90.205" height="102.6" fill="none"/>
    </clipPath>
  </defs>
  <g id="그룹_1810" data-name="그룹 1810" transform="translate(5894.001 402.123)">
    <g id="그룹_1042" data-name="그룹 1042" transform="translate(-5889.187 -384.33)" clip-path="url(#clip-path)">
      <rect id="사각형_1838" data-name="사각형 1838" width="90.202" height="102.598" transform="translate(0 0.002)" fill="#aecf30"/>
      <path id="패스_2107" data-name="패스 2107" d="M17.373,174.96a7.008,7.008,0,0,0-2.549,1.06c-.829.57-1.66,1.694-.663,2.564a2.386,2.386,0,0,0,2.4.1A3.133,3.133,0,0,0,18.27,176.8a.968.968,0,0,0-.444-1.089c-1.231-.712-3.256-.283-3.617,1.267a1.357,1.357,0,0,0,1.238,1.733c.829,0,1.5-.775,2.086-1.267.709-.587,1.3-1.063,1.15-2.076-.124-.838-.273-1.669-.356-2.515a33.411,33.411,0,0,1-.083-5.454l-1.455.834q1.075.468,2.152.933a4.715,4.715,0,0,1,1.621.924,2.2,2.2,0,0,1-.132,2.7.966.966,0,1,0,1.667.975,4.179,4.179,0,0,0,.271-4.484,4.36,4.36,0,0,0-1.894-1.535c-.89-.419-1.806-.792-2.71-1.184a.982.982,0,0,0-1.453.836,33.581,33.581,0,0,0,.1,5.557q.069.68.166,1.36c.01.083.258,1.382.219,1.4.127-.244.117-.288-.029-.129l-.149.124c-.2.166-.4.329-.595.492-.149.124-.3.249-.446.37l-.3.249c.093-.037.063-.039-.085,0H15.7l.01,0c.117.115.232.232.346.346a.407.407,0,0,1,0,.329c-.007-.046.024-.08.1-.1a.982.982,0,0,0,.154-.073.612.612,0,0,1,.543.059q-.219-.545-.444-1.089c-.139.385-.873.929-1.172.7.115.117.229.232.346.346-.022-.039-.044-.08-.068-.119.044.161.088.324.132.487-.09.168-.088.2.007.09.1-.073.2-.141.3-.2a5.315,5.315,0,0,1,.629-.353,5.6,5.6,0,0,1,1.309-.414c1.216-.246.7-2.111-.514-1.862" transform="translate(14.883 -153.686)" fill="#231815"/>
      <path id="패스_2108" data-name="패스 2108" d="M9.183,183.054a2.446,2.446,0,0,0-3.432.833.977.977,0,0,0,.578,1.418,4.1,4.1,0,0,0,3.953-.931.972.972,0,0,0-.427-1.613A3.872,3.872,0,0,0,6.2,183.783a.981.981,0,0,0,.427,1.616,3.065,3.065,0,0,0,3.829-1.526.977.977,0,0,0-.834-1.453c-1.18.073-2.847.38-3.6,1.4a4.877,4.877,0,0,0-.6,2.086q-.216,1.181-.422,2.367-.812,4.665-1.484,9.354a.974.974,0,0,0,1.613.938,27.567,27.567,0,0,0,5.06-5.35c1.206-1.672,2.864-4.377.514-5.91-1.043-.682-2.013.989-.975,1.667.656.426-.041,1.509-.314,1.947a23.413,23.413,0,0,1-1.64,2.3A26.715,26.715,0,0,1,3.753,197.2l1.616.938q.574-3.988,1.245-7.96.329-1.952.685-3.9c.1-.509.039-1.2.529-1.455a4.486,4.486,0,0,1,1.789-.473L8.784,182.9a1.2,1.2,0,0,1-1.65.636q.216.808.427,1.616a1.874,1.874,0,0,1,1.782-.526q-.212-.808-.427-1.613a2.107,2.107,0,0,1-2.072.434l.578,1.418a.506.506,0,0,1,.787-.141c1.036.695,2-.977.975-1.667" transform="translate(0.207 -130.75)" fill="#231815"/>
      <path id="패스_2109" data-name="패스 2109" d="M35.387,180.894a6.926,6.926,0,0,0-2.181,1.343.973.973,0,0,0,.426,1.613,3.121,3.121,0,0,0,3.843-2.42c.08-.536-.239-1.314-.931-1.223a3.838,3.838,0,0,0-2.866,1.772.971.971,0,0,0,.834,1.453,2.773,2.773,0,0,0,2.327-1.7,7.658,7.658,0,0,0,.324-3.334q-.091-3.707-.183-7.411l-1.221.931c.982.288,1.952.617,2.9.994.288.115.858.227,1.06.463-.146-.171-.034.422-.027.5l.051.7q.238,3.133.473,6.264L41.675,180l-.624-.358a.983.983,0,0,0-1.172.151c-.707.855-1.533,2.705-.39,3.57a1.486,1.486,0,0,0,1.662.022c.563-.358.658-.941,1-1.457a.976.976,0,0,0-1.092-1.418c-1.041.356-2.827,1.591-1.869,2.876a1.275,1.275,0,0,0,1.706.28,1.7,1.7,0,0,0,.614-.692c.08-.158.122-.68.168-.734a.97.97,0,0,0-1.172-1.516l-.617.3c-1.116.548-.139,2.215.975,1.669l.617-.3q-.585-.76-1.17-1.516a1.962,1.962,0,0,0-.444.773.982.982,0,0,0-.068.331c.022.185-.015.027.1.007h.514l-.115-.029.424.249c-.029-.029-.061-.059-.093-.088.083.141.166.283.249.427l-.044-.141v.514c.041-.263.514-.468.738-.546-.363-.473-.729-.946-1.092-1.418a3.448,3.448,0,0,0-.3.609l-.073.168c-.1.217.083.251.568.1.083.141.166.283.249.426a1.256,1.256,0,0,1,.322-1.1c-.39.049-.78.1-1.17.151.207.119.414.236.624.356a.973.973,0,0,0,1.453-.834c-.188-2.474-.322-4.955-.561-7.424a2.128,2.128,0,0,0-.573-1.47,4.763,4.763,0,0,0-1.435-.734,33.09,33.09,0,0,0-3.312-1.158.972.972,0,0,0-1.221.931q.073,3,.146,6c.024.948.08,1.9.063,2.854-.007.478-.066,1.594-.748,1.665l.834,1.453a1.754,1.754,0,0,1,1.2-.814l-.931-1.223a1.2,1.2,0,0,1-1.467,1.072l.424,1.613a4.46,4.46,0,0,1,1.331-.846.994.994,0,0,0,.675-1.187.975.975,0,0,0-1.189-.675" transform="translate(42.503 -148.575)" fill="#231815"/>
      <path id="패스_2110" data-name="패스 2110" d="M28.768,195.426c.334-2.983-.378-5.857-3.151-7.441-1.143-.656-2.413-1.072-3.588-1.667-.327-.166-.651-.341-.963-.534,0,0-.748-.526-.414-.261a6.351,6.351,0,0,1-.578-.539,4.374,4.374,0,0,1-.317-.353c.134.158.141.151.027-.019-.078-.132-.275-.634-.154-.261,0,0-.212-.933-.144-.487-.09-.6-.078-1.223-.139-1.828a7.826,7.826,0,0,0-1.728-4.521,10.584,10.584,0,0,0-2.99-2.215c-.217-.119-.436-.236-.648-.37-.022-.012-.741-.541-.37-.222-.024-.02-.734-.587-.312-.253l-.146-.251c.122.288.134.258.037-.09a3.047,3.047,0,1,0-5.876,1.618c.6,2.856,3.149,4.121,5.406,5.51.434.268,0-.051.2.154.139.141.378.509.173.168.173.3.21.38.112.224s-.078-.073.039.249c.039.495.022.027.044.329a13.527,13.527,0,0,0,.731,4.265c1.087,2.63,3.419,4.282,5.935,5.42.561.251,1.126.487,1.682.746.307.141.607.3.909.448.894.441-.1.039.1-.071.049.083.1.166.149.249-.1-.239-.11-.256-.046-.051.11.268.034-.312.041.222a14.853,14.853,0,0,1-.1,1.833c-.183,1.638,1.531,3.046,3.046,3.046a3.117,3.117,0,0,0,3.046-3.046" transform="translate(5.586 -145.89)" fill="#2e1d1b"/>
      <path id="패스_2111" data-name="패스 2111" d="M16.4,178.331c.5-.741,1.026-1.474,1.511-2.228a3.614,3.614,0,0,0,.463-2.929,3.4,3.4,0,0,0-.914-1.526,4.76,4.76,0,0,0-.692-.514,3.553,3.553,0,0,0-1.626-.422,2.945,2.945,0,0,0-2.63,1.509,7.062,7.062,0,0,1-.812,1.372l.475-.617a7.06,7.06,0,0,1-1.119,1.138l.617-.478a.625.625,0,0,1-.2.122c.514-.139,1.026-.275,1.538-.414l-.115.012c.271.037.541.073.812.107l-.1-.029.729.307-.083-.056.617.475a1.337,1.337,0,0,1-.149-.161l.478.617a3.42,3.42,0,0,1-.407-.7l.307.726c-.312-.746-.526-1.513-.892-2.242a4.8,4.8,0,0,0-2.052-2.113,3.276,3.276,0,0,0-1.942-.363,2.885,2.885,0,0,0-1.75.838,3.167,3.167,0,0,0-.478,3.692c.188.356.358.719.517,1.089l-.307-.729a13,13,0,0,1,.77,2.42l-.11-.812.007.127c.037-.271.071-.539.107-.809-.01.039-.019.08-.027.119l.307-.726c-.019.027-.039.056-.056.085l.475-.617-.076.068.617-.475a2.013,2.013,0,0,1-.268.141l.726-.307a1.828,1.828,0,0,1-.378.1c.268-.034.539-.071.809-.107a3.076,3.076,0,0,1-.7-.017c.268.037.539.071.809.107-.692-.1-1.365-.253-2.062-.341a4.257,4.257,0,0,0-2.011.207A3.053,3.053,0,0,0,5.01,176.1a2.992,2.992,0,0,0,.782,2.966,10.368,10.368,0,0,0,3.383,1.869,8.715,8.715,0,0,0,3.227.385,3.256,3.256,0,0,0,2.154-.892,3.048,3.048,0,0,0,0-4.309,3.013,3.013,0,0,0-2.154-.892,6.683,6.683,0,0,1-1.343-.034c.271.037.541.073.809.107a6.78,6.78,0,0,1-1.645-.451l.726.307a6.636,6.636,0,0,1-1.367-.8l.617.478c-.034-.024-.066-.051-.1-.076q-.673,2.544-1.343,5.091a2.321,2.321,0,0,1,.385-.112l-.809.11a3.14,3.14,0,0,1,.814.012c-.271-.034-.541-.071-.812-.107a19.8,19.8,0,0,0,2.42.373,4.058,4.058,0,0,0,3.909-2.281,5.234,5.234,0,0,0-.256-3.773,20.062,20.062,0,0,0-1.16-2.693l-4.168,4.168a2.184,2.184,0,0,1,.283.163l-.617-.475a2.273,2.273,0,0,1,.385.38c-.158-.2-.319-.409-.478-.617a3.7,3.7,0,0,1,.388.682l-.307-.729c.314.748.529,1.523.894,2.252a3.593,3.593,0,0,0,4.553,1.972,5.923,5.923,0,0,0,2.189-1.745,9.625,9.625,0,0,0,1.4-2.133l-2.63,1.509.088.007-1.538-.417.078.037c-.207-.158-.412-.317-.617-.475l.063.058c-.158-.2-.317-.409-.475-.617.017.027.034.051.049.078l-.307-.729c.012.029.022.058.032.088-.037-.268-.073-.539-.11-.809a.416.416,0,0,1,0,.2c.034-.271.071-.539.107-.809-.01.034-.022.068-.034.1l.307-.729a9.569,9.569,0,0,1-.78,1.194l-.865,1.272a3.045,3.045,0,0,0,1.094,4.168,3.055,3.055,0,0,0,2.347.307,3.375,3.375,0,0,0,1.821-1.4" transform="translate(2.236 -148.748)" fill="#2e1d1b"/>
      <path id="패스_2112" data-name="패스 2112" d="M30.537,194.577l.061-.3c-.122.215-.132.227-.029.039.088-.331-.18.151.054-.1.1-.112.526-.424.2-.21a4.949,4.949,0,0,1,.541-.312c-.356.175.144-.041.288-.083a6,6,0,0,1,.746-.168c.451-.066.948-.073,1.423-.1,2.579-.122,5.135-.366,7.241-2.008a7.125,7.125,0,0,0,2.152-2.878c.09-.21.188-.414.285-.619.122-.251-.139.019.183-.268-.249.219-.051.015.112-.034-.409.119.107-.029.263-.071.054-.015.619-.141.358-.1-.31.054.453-.034.529-.037.551-.022,1.1,0,1.655,0a11.36,11.36,0,0,0,4-.539,3.126,3.126,0,0,0,2.128-3.748,3.072,3.072,0,0,0-3.746-2.128c-2.1.768-4.672-.007-6.98.8a6.774,6.774,0,0,0-3.5,2.6,10.77,10.77,0,0,0-.751,1.523c.012-.022-.417.863-.222.5l-.224.227c.161-.107.154-.1-.02.01a4.682,4.682,0,0,1-2.44.614,26.629,26.629,0,0,0-4.465.444c-2.632.6-5.157,2.566-5.722,5.308a3.122,3.122,0,0,0,2.128,3.748,3.078,3.078,0,0,0,3.748-2.128" transform="translate(30.522 -133.106)" fill="#2e1d1b"/>
      <path id="패스_2113" data-name="패스 2113" d="M40.2,184.546a2.94,2.94,0,0,1-.151-.575c.037.268.073.539.11.809a3.151,3.151,0,0,1-.007-.695c-.037.271-.073.539-.107.809a3.1,3.1,0,0,1,.2-.768l-.307.726a3.119,3.119,0,0,1,.346-.6c-.158.2-.317.409-.475.617a2.994,2.994,0,0,1,.414-.429l-5.2-2.152c-.073.629-.144,1.258-.217,1.889a4.953,4.953,0,0,0,.09,2.2,3.614,3.614,0,0,0,4.367,2.4,13.669,13.669,0,0,0,1.994-.941l-.726.307a4.774,4.774,0,0,1,1.085-.3l-.812.11a4.784,4.784,0,0,1,1.238-.007l-.809-.107a4.725,4.725,0,0,1,.875.214l-.729-5.569c-.107.054-.214.1-.324.151l.729-.307c-1.021.417-2.135.517-3.159.924a3.981,3.981,0,0,0-2.125,1.582,3.3,3.3,0,0,0-.071,3.329,6.4,6.4,0,0,0,2.047,1.821c-.2-.158-.409-.317-.617-.475a5.337,5.337,0,0,1,.894.907c-.158-.2-.317-.409-.475-.617a5.291,5.291,0,0,1,.587,1.009l1.821-4.475-.119.022c.271-.037.539-.073.809-.107a2.226,2.226,0,0,1-.361,0l.812.107a2.935,2.935,0,0,1-.592-.168l.729.307a13.536,13.536,0,0,1-2.8-1.7c.2.158.409.317.617.475-.319-.249-.629-.507-.929-.78a3.216,3.216,0,0,0-2.154-.892,3.113,3.113,0,0,0-2.154.892,3.048,3.048,0,0,0,0,4.309,19.129,19.129,0,0,0,2.944,2.213,12.741,12.741,0,0,0,1.284.69,6.976,6.976,0,0,0,1.314.507,4.881,4.881,0,0,0,2.22,0,2.89,2.89,0,0,0,1.974-1.765,2.286,2.286,0,0,0,.261-1.175,3.012,3.012,0,0,0-.414-1.535,7.46,7.46,0,0,0-1.409-2.033,10.967,10.967,0,0,0-1.952-1.494l.617.475a.562.562,0,0,1-.132-.132l.475.617-.037-.08q.208.771.414,1.538l-.007-.088c-.037.271-.073.541-.11.809.01-.029.017-.058.024-.088l-.307.726c.019-.024.037-.051.054-.076l-.475.617.073-.063c-.2.158-.409.317-.617.475a1.126,1.126,0,0,1,.178-.1l-.729.307a12.642,12.642,0,0,1,1.842-.531,11.068,11.068,0,0,0,2.423-.872,2.978,2.978,0,0,0,1.455-3.037,3.105,3.105,0,0,0-2.184-2.532,7.59,7.59,0,0,0-3.787-.2,7.176,7.176,0,0,0-1.755.6c-.373.166-.7.4-1.072.57l.729-.307a1.53,1.53,0,0,1-.292.08l.809-.11c-.032,0-.063,0-.1,0l.809.11a.478.478,0,0,1-.18-.044l.729.307c-.029-.017-.058-.032-.085-.049.2.158.409.317.617.475a.437.437,0,0,1-.119-.122l.475.617-.041-.073.307.726a1.127,1.127,0,0,1-.068-.251l.11.809a7.361,7.361,0,0,1,.117-1.4c.061-.539.122-1.08.185-1.618l-.11-.812-.307-.726a3.034,3.034,0,0,0-1.457-1.248,2.9,2.9,0,0,0-1.579-.207,3.228,3.228,0,0,0-1.747.838,5.563,5.563,0,0,0-1.677,2.749,5.643,5.643,0,0,0,.083,3.283,3.287,3.287,0,0,0,1.4,1.821,3.045,3.045,0,0,0,4.168-1.094,3,3,0,0,0,.307-2.347" transform="translate(43.559 -135.281)" fill="#2e1d1b"/>
      <path id="패스_2114" data-name="패스 2114" d="M10.65,236.612a1.935,1.935,0,0,1-1.579-1.925c.1-10.336,2.047-66.34,31.759-61,29.858,5.364,6.9,58.417,2.652,67.658a1.935,1.935,0,0,1-2.123,1.087Z" transform="translate(8.223 -143.816)" fill="#2e1d1b" fill-rule="evenodd"/>
      <path id="패스_2115" data-name="패스 2115" d="M29.154,173.719a22.665,22.665,0,0,0-7.853-.8,3.051,3.051,0,0,0-.809,5.983,34.547,34.547,0,0,0,12.432,2.145,3.052,3.052,0,0,0,.809-5.986,68.252,68.252,0,0,0-8.92-2.137,3.3,3.3,0,0,0-2.347.307,3.113,3.113,0,0,0-1.4,1.821c-.334,1.475.448,3.463,2.128,3.748a68.364,68.364,0,0,1,8.922,2.137q.406-2.99.809-5.983c-1.007.01-2.013-.02-3.017-.1-.431-.034-.86-.083-1.289-.132-.341-.044-.285-.034.168.024-.141-.022-.285-.041-.427-.066-.212-.032-.427-.068-.639-.107a31.99,31.99,0,0,1-5.61-1.545q-.4,2.994-.809,5.986a20.092,20.092,0,0,1,3.446.017c.144.012.285.027.429.044.341.041.285.034-.168-.024a2.872,2.872,0,0,1,.848.146c.565.11,1.124.249,1.677.4a3.048,3.048,0,1,0,1.621-5.876" transform="translate(21.457 -144.517)" fill="#c5826c"/>
      <path id="패스_2116" data-name="패스 2116" d="M21.883,190.493c1.752-4.236,5.993-5.162,13.4-2.3s3.339,17.916-6.349,15.115-8.808-8.579-7.056-12.815" transform="translate(25.05 -124.819)" fill="#2e1d1b" fill-rule="evenodd"/>
      <path id="패스_2117" data-name="패스 2117" d="M25.09,191.505c2.023-1.86,5.028-3.078,7.7-1.906a5.017,5.017,0,0,1,2.588,2.44,7.316,7.316,0,0,1,.029,4.523,6.312,6.312,0,0,1-1.745,3.495,5.212,5.212,0,0,1-3.393,1.124c-2.2.041-4.782-.414-5.764-2.627a6.815,6.815,0,0,1-.253-4.45,4.753,4.753,0,0,1,2.025-3.378c1.094-.592.119-2.262-.975-1.669a6.1,6.1,0,0,0-2.744,3.873,9.448,9.448,0,0,0-.178,5.408,6.282,6.282,0,0,0,2.306,3.419,9.127,9.127,0,0,0,4.57,1.326,8.31,8.31,0,0,0,4.706-.882A6.9,6.9,0,0,0,37,198.1a11.766,11.766,0,0,0,.524-5.649,6.492,6.492,0,0,0-2.844-4.009c-3.546-2.366-8.035-.987-10.96,1.7-.916.843.453,2.208,1.367,1.367" transform="translate(26.895 -123.84)" fill="#c5826c"/>
      <path id="패스_2118" data-name="패스 2118" d="M13.052,179.551c-2.518,5.566-.585,11.338,1.579,16.665,2.2,5.4,5.043,12.527.641,17.65-.807.938.553,2.31,1.367,1.365,3.739-4.35,3.237-10.29,1.47-15.383-2.1-6.039-6.322-12.832-3.39-19.322.509-1.124-1.155-2.108-1.667-.975" transform="translate(12.234 -135.592)" fill="#c5826c"/>
      <path id="패스_2119" data-name="패스 2119" d="M11.21,184.056a22.435,22.435,0,0,0,1.3,8.53,39.023,39.023,0,0,1,2.237,7.826,22.245,22.245,0,0,1-3.7,15.123c-.7,1.033.975,2,1.667.975a24.026,24.026,0,0,0,4.073-14.94c-.4-6.086-3.963-11.321-3.648-17.513.061-1.243-1.869-1.238-1.933,0" transform="translate(10.83 -129.734)" fill="#c5826c"/>
      <path id="패스_2120" data-name="패스 2120" d="M19.342,182.662a2.452,2.452,0,0,0,.773,2.505,2.359,2.359,0,0,0,1.455.565,2.468,2.468,0,0,0,1.336-.37,2.506,2.506,0,0,0,1.038-1.316.968.968,0,0,0-1.867-.512.855.855,0,0,1-.037.1c.032-.078.066-.154.1-.232a1.541,1.541,0,0,1-.166.28c.051-.063.1-.129.151-.195a1.44,1.44,0,0,1-.258.258c.068-.051.134-.1.2-.151a1.786,1.786,0,0,1-.378.222c.076-.034.154-.066.229-.1a1.8,1.8,0,0,1-.385.1l.256-.034a1.489,1.489,0,0,1-.361,0c.085.01.168.022.253.034a1.438,1.438,0,0,1-.314-.088l.229.1a1.59,1.59,0,0,1-.31-.183c.066.049.129.1.195.151a1.708,1.708,0,0,1-.256-.258l.151.195a1.813,1.813,0,0,1-.2-.346c.034.076.066.154.1.229a1.508,1.508,0,0,1-.107-.385c.012.085.024.173.034.258a1.394,1.394,0,0,1,0-.363c-.015.085-.024.171-.034.256a1.64,1.64,0,0,1,.044-.212.966.966,0,1,0-1.862-.514" transform="translate(22.86 -131.408)" fill="#fff"/>
      <path id="패스_2121" data-name="패스 2121" d="M17.491,181.543a1.89,1.89,0,0,0,.558,1.265,2.078,2.078,0,0,0,1.058.563,2.419,2.419,0,0,0,1.309-.11,4.232,4.232,0,0,0,1.148-.69.963.963,0,0,0,.283-.682.965.965,0,0,0-.968-.965l-.256.034a.982.982,0,0,0-.427.249.63.63,0,0,1-.063.049c.066-.049.132-.1.2-.151a2.951,2.951,0,0,1-.621.375c.076-.032.154-.063.229-.1a1.838,1.838,0,0,1-.456.129c.085-.012.171-.024.256-.034a1.578,1.578,0,0,1-.339,0l.256.034a1.279,1.279,0,0,1-.3-.08c.078.034.154.066.232.1a1.329,1.329,0,0,1-.268-.151l.2.151a1.081,1.081,0,0,1-.193-.188c.051.066.1.132.151.2a.968.968,0,0,1-.119-.2c.032.078.066.154.1.232a.881.881,0,0,1-.061-.222c.01.085.022.171.034.256l0-.066a1.02,1.02,0,0,0-.283-.682.968.968,0,0,0-1.367,0,.961.961,0,0,0-.283.682" transform="translate(20.322 -133.396)" fill="#fff"/>
      <path id="패스_2122" data-name="패스 2122" d="M21.765,182.99a2.253,2.253,0,0,0,3.107.865,1.019,1.019,0,0,0,.444-.578,1,1,0,0,0-.1-.746.966.966,0,0,0-1.321-.346,1.431,1.431,0,0,1-.158.085c.076-.034.154-.066.229-.1a1.236,1.236,0,0,1-.3.08l.256-.034a1.274,1.274,0,0,1-.334,0c.085.012.171.024.256.034a1.5,1.5,0,0,1-.368-.1c.078.032.154.066.232.1a1.331,1.331,0,0,1-.29-.171l.195.151a1.236,1.236,0,0,1-.2-.2c.051.066.1.129.151.195a1.308,1.308,0,0,1-.129-.21.965.965,0,0,0-.575-.444.966.966,0,0,0-1.189.675c-.012.085-.022.171-.034.256a.95.95,0,0,0,.132.487" transform="translate(26.277 -132.014)" fill="#fff"/>
      <path id="패스_2123" data-name="패스 2123" d="M22.164,192.529a9.188,9.188,0,0,1,6.68-4.265A10.464,10.464,0,0,1,37.277,191c.909.848,2.279-.514,1.367-1.365a12.409,12.409,0,0,0-10.051-3.266,11.139,11.139,0,0,0-8.1,5.189c-.675,1.05,1,2.018,1.667.975" transform="translate(24.418 -125.228)" fill="#c5826c"/>
      <path id="패스_2124" data-name="패스 2124" d="M23.105,174.606a.465.465,0,0,1-.044-.054c.049.066.1.129.151.195a.753.753,0,0,1-.085-.141c.032.076.063.154.1.229a.669.669,0,0,1-.054-.18c.01.085.022.171.034.256a.965.965,0,0,1,0-.222c-.012.085-.024.171-.034.256a1.027,1.027,0,0,1,.068-.253c-.034.078-.066.154-.1.231a1.3,1.3,0,0,1,.173-.3c-.051.063-.1.129-.151.195a1.543,1.543,0,0,1,.253-.251l-.2.151a1.383,1.383,0,0,1,.278-.163l-.232.1a1.206,1.206,0,0,1,.3-.085l-.256.034a1.1,1.1,0,0,1,.253,0l-.258-.037a1.638,1.638,0,0,1,.4.11l-.232-.1a2.047,2.047,0,0,1,.395.227l-.2-.149a2.661,2.661,0,0,1,.48.485L24,174.95a4.009,4.009,0,0,1,.475.831c-.032-.076-.063-.154-.1-.229a1.627,1.627,0,0,1,.11.356c-.01-.085-.022-.171-.034-.256a.863.863,0,0,1,0,.224c.012-.085.022-.171.034-.258a.7.7,0,0,1-.039.127l.1-.229a.428.428,0,0,1-.044.071c.051-.063.1-.129.151-.195a.626.626,0,0,1-.1.107l.195-.151a.889.889,0,0,1-.134.073c.078-.032.154-.066.232-.1a1.073,1.073,0,0,1-.232.059c.085-.01.173-.022.258-.034a2.489,2.489,0,0,1-.6-.01l.256.034a2.521,2.521,0,0,1-.609-.158c.078.032.154.063.232.1a2.081,2.081,0,0,1-.385-.222c.066.049.132.1.2.151a1.455,1.455,0,0,1-.246-.244c.051.066.1.132.151.2a1.494,1.494,0,0,1-.163-.283l.1.229a1.4,1.4,0,0,1-.088-.314c.012.085.024.173.034.258a1.419,1.419,0,0,1,0-.322c-.012.085-.022.173-.034.258a1.1,1.1,0,0,1,.073-.266c-.032.078-.066.154-.1.232a1.081,1.081,0,0,1,.1-.171l-.151.195a.844.844,0,0,1,.146-.149c-.066.051-.129.1-.195.151a1.292,1.292,0,0,1,.139-.08l-.232.1a.957.957,0,0,1,.217-.061c-.085.012-.171.024-.256.034a1.144,1.144,0,0,1,.258,0c-.085-.012-.173-.024-.258-.034a.947.947,0,0,1,.217.056c-.078-.032-.154-.063-.232-.1a.972.972,0,0,1,.163.093l-.195-.151a.706.706,0,0,1,.129.127c-.051-.066-.1-.132-.151-.195a.876.876,0,0,1,.076.132c-.034-.076-.066-.154-.1-.229.01.029.019.059.027.09a.975.975,0,0,0,1.187.675.985.985,0,0,0,.675-1.187,1.681,1.681,0,0,0-1.572-1.214,1.731,1.731,0,0,0-1.645.907,2.145,2.145,0,0,0,.093,2.091,2.613,2.613,0,0,0,1.64,1.126,2.48,2.48,0,0,0,2.052-.253A1.436,1.436,0,0,0,26.4,175.7a2.99,2.99,0,0,0-.336-1.087,3.771,3.771,0,0,0-.985-1.292,3,3,0,0,0-.948-.541,2.222,2.222,0,0,0-1.072-.073,2.253,2.253,0,0,0-1.526,1.119,2,2,0,0,0-.263.992,1.8,1.8,0,0,0,.473,1.158.975.975,0,0,0,1.367,0,.992.992,0,0,0,0-1.367" transform="translate(25.748 -144.756)" fill="#231815"/>
      <path id="패스_2125" data-name="패스 2125" d="M26.257,173.285c-1.2-.124-2.4-.256-3.6-.375a5.058,5.058,0,0,0-3.112.429,2.819,2.819,0,0,0-1.392,2.252,3.781,3.781,0,0,0,1.114,2.379,6.309,6.309,0,0,0,2.781,1.353,32.623,32.623,0,0,0,3.319.946,34.959,34.959,0,0,0,7.1.873.967.967,0,0,0,0-1.933,32.711,32.711,0,0,1-10.831-2.081,2.514,2.514,0,0,1-.938-.456,2.714,2.714,0,0,1-.522-.79c-.21-.49.2-.868.675-1.011a6.346,6.346,0,0,1,2.415.037l3,.312a.974.974,0,0,0,.965-.968.985.985,0,0,0-.965-.965" transform="translate(21.272 -144.498)" fill="#231815"/>
      <path id="패스_2126" data-name="패스 2126" d="M32.4,173.511c-17.163,6.5-20.324,26.987-22.651,42.88a56.054,56.054,0,0,0-.629,14.389c.334,2.959.553,6,3.656,7.1,4.445,1.572,9.8,1.889,14.46,2.532,5.035.7,10.09,1.2,15.159,1.545,1.243.085,1.236-1.847,0-1.933a211.32,211.32,0,0,1-25.449-3.254c-2.34-.446-4.311-.541-5.367-2.9-.8-1.786-.709-4.5-.756-6.458a72.571,72.571,0,0,1,1.228-13.324c2.335-14.348,5.337-32.826,20.862-38.71,1.15-.436.651-2.3-.514-1.862" transform="translate(7.958 -143.646)" fill="#231815"/>
    </g>
    <path id="패스_2127" data-name="패스 2127" d="M2.526,162.489c30.067.244,60.132.582,90.2.826a.967.967,0,0,0,0-1.933c-30.067-.241-60.132-.582-90.2-.826a.967.967,0,0,0,0,1.933" transform="translate(-5891.71 -546.499)" fill="#231815"/>
    <path id="패스_2128" data-name="패스 2128" d="M38.9,162.134q-.738,50.53.483,101.062a.967.967,0,0,0,1.933,0q-1.225-50.523-.483-101.062a.967.967,0,0,0-1.933,0" transform="translate(-5838.492 -545.571)" fill="#231815"/>
    <path id="패스_2129" data-name="패스 2129" d="M2.414,204.516c30.616.863,61.188,1.8,91.816.846,1.238-.037,1.245-1.969,0-1.93-30.628.953-61.2.015-91.816-.848a.967.967,0,0,0,0,1.933" transform="translate(-5891.871 -486.099)" fill="#231815"/>
    <path id="패스_2130" data-name="패스 2130" d="M4.235,202.525a5.919,5.919,0,0,0-3.3.258,1,1,0,0,0-.675,1.189q.508,2.405,1.014,4.809a.976.976,0,0,0,.931.709c20.463.417,40.925.916,61.392,1.024,10.629.056,21.262.049,31.89-.139,2.033-.037,6.371-.283,6.207-3.278-.122-2.232-4.355-3.692-6.115-3.083-1.167.4-.668,2.271.512,1.864.5-.175,2.959.2,3.1.96.368,1.952-2.839,1.582-3.707,1.6-2.354.061-4.713.061-7.07.083q-6.12.059-12.239.076-12.112.029-24.218-.119c-16.587-.193-33.17-.585-49.755-.921l.931.709q-.5-2.406-1.014-4.811l-.673,1.189,2.276-.261c1.216.2,1.74-1.662.514-1.862" transform="translate(-5893.67 -486.355)" fill="#231815"/>
    <path id="패스_2131" data-name="패스 2131" d="M94.885,166.786a5.919,5.919,0,0,0,3.3-.258,1,1,0,0,0,.675-1.189q-.508-2.406-1.014-4.809a.976.976,0,0,0-.931-.709c-19.861-.409-39.706-1.265-59.567-1.628-10.4-.19-20.813-.261-31.218-.083-2.635.046-6.541.453-5.815,4.094.444,2.225,3.639,4.57,5.869,3.912a.966.966,0,0,0-.514-1.862,3.4,3.4,0,0,1-2.866-1.445c-1.411-3.219,1.911-2.732,3.327-2.766,2.342-.059,4.687-.054,7.026-.068q6.006-.037,12.015,0,11.673.073,23.346.407c16.132.431,32.261,1.038,48.4,1.37q-.468-.355-.931-.709.5,2.405,1.011,4.811c.227-.4.451-.792.675-1.189l-2.276.261c-1.216-.2-1.74,1.662-.514,1.862" transform="translate(-5893.667 -550.162)" fill="#231815"/>
    <path id="패스_2132" data-name="패스 2132" d="M2.294,161.611Q3.354,212.525.983,263.426c-.058,1.243,1.874,1.241,1.93,0q2.376-50.87,1.314-101.815a.967.967,0,0,0-1.933,0" transform="translate(-5892.589 -546.323)" fill="#231815"/>
    <path id="패스_2133" data-name="패스 2133" d="M1.1,193.122Q50.133,192.3,99.136,195c1.241.068,1.238-1.864,0-1.933q-48.969-2.7-98.038-1.879a.967.967,0,0,0,0,1.933" transform="translate(-5893.763 -502.75)" fill="#231815"/>
    <path id="패스_2134" data-name="패스 2134" d="M3.3,192.341c.373,9.027.836,18.055,1.1,27.084.037,1.241,1.969,1.245,1.933,0-.266-9.03-.726-18.057-1.1-27.084-.051-1.238-1.984-1.245-1.933,0" transform="translate(-5889.262 -502.157)" fill="#231815"/>
    <path id="패스_2135" data-name="패스 2135" d="M0,192.609c.373,9.027.836,18.055,1.1,27.084.037,1.241,1.969,1.245,1.933,0-.266-9.03-.726-18.057-1.1-27.084-.051-1.238-1.984-1.245-1.933,0" transform="translate(-5894 -501.771)" fill="#231815"/>
    <path id="패스_2136" data-name="패스 2136" d="M5.975,192.062a202.92,202.92,0,0,1,1.036,27.723c-.037,1.245,1.894,1.243,1.933,0a202.919,202.919,0,0,0-1.036-27.723c-.132-1.223-2.064-1.238-1.933,0" transform="translate(-5885.422 -502.546)" fill="#231815"/>
    <path id="패스_2137" data-name="패스 2137" d="M9.063,192.34q.691,13.852.451,27.728a.967.967,0,0,0,1.933,0Q11.688,206.2,11,192.34c-.063-1.238-2-1.245-1.933,0" transform="translate(-5880.977 -502.158)" fill="#231815"/>
    <path id="패스_2138" data-name="패스 2138" d="M12.1,192.158q.428,13.753.853,27.508c.039,1.238,1.972,1.245,1.933,0q-.428-13.757-.853-27.508c-.039-1.241-1.972-1.245-1.933,0" transform="translate(-5876.61 -502.422)" fill="#231815"/>
    <path id="패스_2139" data-name="패스 2139" d="M15.16,191.886q.585,13.972-.024,27.954c-.054,1.243,1.879,1.24,1.933,0q.607-13.972.024-27.954c-.054-1.238-1.984-1.245-1.933,0" transform="translate(-5872.249 -502.81)" fill="#231815"/>
    <path id="패스_2140" data-name="패스 2140" d="M17.588,192.529a120.262,120.262,0,0,1,.543,27.893c-.119,1.236,1.813,1.228,1.933,0a122.269,122.269,0,0,0-.614-28.408c-.168-1.226-2.03-.7-1.862.514" transform="translate(-5868.738 -502.293)" fill="#231815"/>
    <path id="패스_2141" data-name="패스 2141" d="M21.672,192.159q-.186,14.539-1.2,29.046c-.088,1.241,1.845,1.233,1.933,0q1.013-14.506,1.2-29.046a.967.967,0,0,0-1.933,0" transform="translate(-5864.584 -502.421)" fill="#231815"/>
    <path id="패스_2142" data-name="패스 2142" d="M23.854,192.249q.139,13.863.271,27.728a.967.967,0,0,0,1.933,0q-.132-13.863-.271-27.728a.967.967,0,0,0-1.933,0" transform="translate(-5859.718 -502.291)" fill="#231815"/>
    <path id="패스_2143" data-name="패스 2143" d="M27.308,192.523q.029,13.643.061,27.284a.966.966,0,0,0,1.93,0l-.058-27.284a.967.967,0,0,0-1.933,0" transform="translate(-5854.754 -501.898)" fill="#231815"/>
    <path id="패스_2144" data-name="패스 2144" d="M30.128,192.429l1.06,27.959c.046,1.241,1.979,1.245,1.933,0l-1.06-27.959c-.049-1.238-1.979-1.245-1.933,0" transform="translate(-5850.701 -502.03)" fill="#231815"/>
    <path id="패스_2145" data-name="패스 2145" d="M32.905,192.8a190.2,190.2,0,0,1,1.733,26.794.967.967,0,0,0,1.933,0,193.836,193.836,0,0,0-1.8-27.309c-.166-1.226-2.028-.7-1.862.514" transform="translate(-5846.725 -501.905)" fill="#231815"/>
    <path id="패스_2146" data-name="패스 2146" d="M36.633,192.878a206.659,206.659,0,0,1,1.877,26.6.966.966,0,0,0,1.93,0A209.844,209.844,0,0,0,38.5,192.364c-.166-1.226-2.028-.7-1.862.514" transform="translate(-5841.367 -501.791)" fill="#231815"/>
    <path id="패스_2147" data-name="패스 2147" d="M40.845,193.068a74.57,74.57,0,0,1,.292,12.988c-.1,2.086-.222,4.17-.312,6.256-.044,1.043-.083,2.086-.1,3.132-.007.341.224,3.283.01,3.439-.987.734-.024,2.41.975,1.669,1.5-1.109.916-3.475.948-5.108.049-2.525.193-5.045.322-7.565a82.587,82.587,0,0,0-.2-14.811c-.156-1.216-2.091-1.231-1.933,0" transform="translate(-5836.054 -501.092)" fill="#231815"/>
    <path id="패스_2148" data-name="패스 2148" d="M98.134,163.476c-.212-1.6-.071-3.207-.283-4.809a.992.992,0,0,0-.965-.968c-18.228-.375-36.445-1.119-54.673-1.526q-13.409-.3-26.824-.263-4.043.015-8.089.063c-1.648.022-3.673-.224-5.211.507-2.388,1.133-2.259,3.826-.68,5.574.836.924,2.2-.446,1.367-1.367Q2.145,157.811,4.15,158a14.129,14.129,0,0,1,1.955-.078c1.184-.029,2.374-.029,3.558-.039q3.144-.033,6.285-.041,5.9-.018,11.8.034,11.092.1,22.186.424c15.652.431,31.3,1.011,46.955,1.333l-.965-.965c.21,1.6.071,3.2.28,4.809.161,1.216,2.094,1.231,1.933,0" transform="translate(-5893.633 -553.184)" fill="#231815"/>
    <path id="패스_2149" data-name="패스 2149" d="M98.134,161.489c-.212-1.6-.071-3.207-.283-4.809a.992.992,0,0,0-.965-.968c-18.228-.375-36.445-1.119-54.673-1.526q-13.409-.3-26.824-.263-4.043.015-8.089.063c-1.648.022-3.673-.224-5.211.507-2.388,1.133-2.259,3.826-.68,5.574.836.924,2.2-.446,1.367-1.367q-.632-2.877,1.372-2.688a14.132,14.132,0,0,1,1.955-.078c1.184-.029,2.374-.029,3.558-.039q3.144-.033,6.285-.041,5.9-.018,11.8.034,11.092.1,22.186.424c15.652.431,31.3,1.011,46.955,1.333l-.965-.965c.21,1.6.071,3.2.28,4.809.161,1.216,2.094,1.231,1.933,0" transform="translate(-5893.633 -556.04)" fill="#231815"/>
  </g>
</svg>
