<svg xmlns="http://www.w3.org/2000/svg" width="101.899" height="125.382" viewBox="0 0 101.899 125.382">
  <g id="그룹_1806" data-name="그룹 1806" transform="translate(5781.528 746.598)">
    <path id="패스_2421" data-name="패스 2421" d="M48.676,20.768c30.067.244,60.132.582,90.2.826a.967.967,0,0,0,0-1.933c-30.065-.241-60.13-.582-90.2-.826a.967.967,0,0,0,0,1.933" transform="translate(-5825.387 -750.177)" fill="#231815"/>
    <path id="패스_2422" data-name="패스 2422" d="M85.05,20.412q-.738,50.534.483,101.062a.967.967,0,0,0,1.933,0q-1.225-50.523-.483-101.062a.967.967,0,0,0-1.933,0" transform="translate(-5772.168 -749.248)" fill="#231815"/>
    <path id="패스_2423" data-name="패스 2423" d="M48.562,62.795c30.616.863,61.188,1.8,91.816.846,1.238-.037,1.245-1.969,0-1.93-30.628.953-61.2.015-91.816-.848a.967.967,0,0,0,0,1.933" transform="translate(-5825.548 -689.777)" fill="#231815"/>
    <path id="패스_2424" data-name="패스 2424" d="M50.384,60.8a5.919,5.919,0,0,0-3.3.258,1,1,0,0,0-.675,1.189q.508,2.405,1.014,4.809a.976.976,0,0,0,.931.709c20.292.412,40.584.909,60.881,1.021q15.6.084,31.2-.122c2.037-.024,7.221.3,7.287-3.007.044-2.252-4.275-3.9-5.993-3.368-1.184.37-.68,2.235.512,1.864.78-.244,4.341.865,2.1,2.423-.553.388-3.188.149-3.9.158q-3.221.04-6.441.071-6.372.059-12.742.073-11.823.018-23.645-.127c-16.419-.195-32.836-.585-49.253-.916q.468.355.931.709-.5-2.405-1.014-4.811l-.673,1.189,2.276-.261c1.216.2,1.74-1.662.514-1.862" transform="translate(-5827.346 -690.031)" fill="#231815"/>
    <path id="패스_2425" data-name="패스 2425" d="M141.034,25.066a5.919,5.919,0,0,0,3.3-.258,1,1,0,0,0,.675-1.189q-.508-2.405-1.014-4.809a.976.976,0,0,0-.931-.709c-19.861-.409-39.706-1.265-59.567-1.628-10.4-.19-20.813-.261-31.218-.083-2.635.046-6.541.453-5.815,4.094.444,2.225,3.639,4.57,5.869,3.912a.966.966,0,0,0-.514-1.862,3.4,3.4,0,0,1-2.866-1.445c-1.411-3.22,1.911-2.732,3.327-2.766,2.342-.058,4.687-.054,7.026-.068q6.006-.037,12.015,0,11.673.073,23.346.407c16.134.431,32.261,1.038,48.4,1.37q-.468-.355-.931-.709.5,2.405,1.014,4.811l.673-1.189-2.276.261c-1.216-.2-1.74,1.662-.514,1.862" transform="translate(-5827.343 -753.839)" fill="#231815"/>
    <path id="패스_2426" data-name="패스 2426" d="M48.443,19.89Q49.5,70.8,47.132,121.705c-.059,1.243,1.874,1.241,1.93,0q2.376-50.87,1.314-101.815a.967.967,0,0,0-1.933,0" transform="translate(-5826.265 -750)" fill="#231815"/>
    <path id="패스_2427" data-name="패스 2427" d="M47.247,51.4q49.035-.826,98.038,1.879c1.241.068,1.238-1.864,0-1.933q-48.969-2.7-98.038-1.879a.967.967,0,0,0,0,1.933" transform="translate(-5827.438 -706.426)" fill="#231815"/>
    <path id="패스_2428" data-name="패스 2428" d="M49.447,50.62c.373,9.027.836,18.055,1.1,27.084.037,1.241,1.969,1.245,1.933,0-.266-9.03-.726-18.057-1.1-27.084-.051-1.238-1.984-1.245-1.933,0" transform="translate(-5822.938 -705.834)" fill="#231815"/>
    <path id="패스_2429" data-name="패스 2429" d="M46.15,50.888c.373,9.027.836,18.055,1.1,27.084.037,1.241,1.969,1.245,1.933,0-.266-9.03-.726-18.057-1.1-27.084-.051-1.238-1.984-1.245-1.933,0" transform="translate(-5827.676 -705.449)" fill="#231815"/>
    <path id="패스_2430" data-name="패스 2430" d="M52.124,50.342A202.919,202.919,0,0,1,53.16,78.065c-.037,1.245,1.894,1.241,1.933,0a202.919,202.919,0,0,0-1.036-27.723c-.132-1.223-2.064-1.238-1.933,0" transform="translate(-5819.098 -706.222)" fill="#231815"/>
    <path id="패스_2431" data-name="패스 2431" d="M55.212,50.619q.691,13.852.451,27.728a.967.967,0,0,0,1.933,0q.241-13.87-.451-27.728c-.063-1.238-2-1.245-1.933,0" transform="translate(-5814.653 -705.836)" fill="#231815"/>
    <path id="패스_2432" data-name="패스 2432" d="M58.249,50.437q.428,13.753.851,27.508c.041,1.238,1.974,1.245,1.935,0q-.428-13.757-.853-27.508c-.039-1.241-1.972-1.245-1.933,0" transform="translate(-5810.287 -706.099)" fill="#231815"/>
    <path id="패스_2433" data-name="패스 2433" d="M61.309,50.165q.585,13.972-.024,27.954c-.054,1.243,1.879,1.241,1.933,0q.607-13.972.024-27.954c-.054-1.238-1.984-1.245-1.933,0" transform="translate(-5805.925 -706.488)" fill="#231815"/>
    <path id="패스_2434" data-name="패스 2434" d="M63.737,50.809A120.262,120.262,0,0,1,64.281,78.7c-.119,1.236,1.813,1.228,1.933,0A122.271,122.271,0,0,0,65.6,50.295c-.168-1.226-2.03-.7-1.862.514" transform="translate(-5802.414 -705.969)" fill="#231815"/>
    <path id="패스_2435" data-name="패스 2435" d="M67.413,50.439c-.11,9.454.136,18.915-.509,28.354-.085,1.241,1.845,1.236,1.93,0,.648-9.439.4-18.9.512-28.354a.967.967,0,0,0-1.933,0" transform="translate(-5797.852 -706.097)" fill="#231815"/>
    <path id="패스_2436" data-name="패스 2436" d="M70,50.53q.135,13.863.271,27.725a.967.967,0,0,0,1.933,0L71.936,50.53a.967.967,0,0,0-1.933,0" transform="translate(-5793.394 -705.968)" fill="#231815"/>
    <path id="패스_2437" data-name="패스 2437" d="M73.456,50.8q.029,13.643.061,27.284a.966.966,0,0,0,1.93,0q-.029-13.64-.059-27.284a.967.967,0,0,0-1.933,0" transform="translate(-5788.431 -705.575)" fill="#231815"/>
    <path id="패스_2438" data-name="패스 2438" d="M76.277,50.709l1.06,27.959c.046,1.241,1.979,1.245,1.933,0L78.21,50.709c-.049-1.238-1.979-1.245-1.933,0" transform="translate(-5784.377 -705.706)" fill="#231815"/>
    <path id="패스_2439" data-name="패스 2439" d="M79.054,51.078a190.2,190.2,0,0,1,1.733,26.794.967.967,0,0,0,1.933,0,193.836,193.836,0,0,0-1.8-27.309c-.166-1.226-2.028-.7-1.862.514" transform="translate(-5780.4 -705.583)" fill="#231815"/>
    <path id="패스_2440" data-name="패스 2440" d="M82.782,51.157a206.658,206.658,0,0,1,1.877,26.6.966.966,0,0,0,1.93,0,209.845,209.845,0,0,0-1.945-27.116c-.166-1.226-2.028-.7-1.862.514" transform="translate(-5775.042 -705.469)" fill="#231815"/>
    <path id="패스_2441" data-name="패스 2441" d="M86.994,51.349a74.547,74.547,0,0,1,.292,12.985c-.1,2.089-.222,4.17-.312,6.256-.044,1.046-.083,2.089-.1,3.134-.007.341.224,3.28.01,3.436-.987.736-.024,2.41.975,1.672,1.5-1.109.916-3.475.948-5.108.049-2.525.193-5.047.322-7.567a82.56,82.56,0,0,0-.2-14.808c-.156-1.216-2.091-1.233-1.933,0" transform="translate(-5769.73 -704.769)" fill="#231815"/>
    <path id="패스_2442" data-name="패스 2442" d="M144.434,21.885c-.212-1.6-.071-3.207-.283-4.809a1,1,0,0,0-.968-.968c-18.225-.375-36.443-1.119-54.671-1.526q-13.409-.3-26.824-.263-4.043.015-8.091.063c-1.645.022-3.67-.224-5.211.507-2.388,1.133-2.257,3.826-.678,5.574.834.924,2.2-.446,1.367-1.367q-.632-2.877,1.372-2.688a14.092,14.092,0,0,1,1.952-.078c1.184-.029,2.376-.029,3.561-.039q3.14-.033,6.285-.041,5.9-.018,11.8.034,11.1.1,22.188.424c15.649.431,31.3,1.011,46.952,1.333l-.963-.965c.21,1.6.071,3.2.28,4.809.161,1.216,2.094,1.231,1.933,0" transform="translate(-5827.094 -756.675)" fill="#231815"/>
    <path id="패스_2443" data-name="패스 2443" d="M144.434,20.147c-.212-1.6-.071-3.207-.283-4.809a1,1,0,0,0-.968-.968c-18.225-.375-36.443-1.119-54.671-1.526q-13.409-.3-26.824-.263-4.043.015-8.091.063c-1.645.022-3.67-.224-5.211.507-2.388,1.133-2.257,3.826-.678,5.574.834.924,2.2-.446,1.367-1.367q-.632-2.877,1.372-2.688a14.092,14.092,0,0,1,1.952-.078c1.184-.029,2.376-.029,3.561-.039q3.14-.033,6.285-.041,5.9-.018,11.8.034,11.1.1,22.188.424c15.649.431,31.3,1.011,46.952,1.333l-.963-.965c.21,1.6.071,3.2.28,4.809.161,1.216,2.094,1.231,1.933,0" transform="translate(-5827.094 -759.173)" fill="#231815"/>
  </g>
</svg>
