<svg xmlns="http://www.w3.org/2000/svg" width="54.321" height="25.017" viewBox="0 0 54.321 25.017">
  <g id="그룹_1818" data-name="그룹 1818" transform="translate(6271.676 -341.897)">
    <path id="패스_2621" data-name="패스 2621" d="M56.086,150.934s-2.289-8.5,6.571-8.667,38.99-2.505,43.747,4.333,2.5,18.532-3.312,18.518-35.666-.161-40.423-1.009-8.133.619-6.583-13.175" transform="translate(-6326.378 200.806)" fill="#8c4729"/>
    <path id="패스_2622" data-name="패스 2622" d="M105.55,159.115c.141-2.669.31-5.342.275-8.016-.024-1.891.344-5.571-1.019-7.143-.885-1.021-2.561-1.024-3.8-1.2-1.92-.275-3.851-.478-5.781-.636a269.7,269.7,0,0,0-27.038-.544q-2.833.051-5.664.134c-1.277.037-3.375-.312-4.421.619-1.236,1.1-1.472,3.936-1.789,5.43a43.754,43.754,0,0,0-.941,8.162c-.029,1.414-.4,3.729.851,4.779,1.089.912,3.261.573,4.575.617,4.389.144,8.784.18,13.175.18,10.175,0,20.353-.2,30.523-.514,1.241-.039,1.245-1.972,0-1.933-14.952.466-29.965.86-44.917.29-.963-.037-1.747.21-2.245-.765-.366-.714-.044-2.274-.017-3.1a41.305,41.305,0,0,1,1.05-8.069c.171-.726.383-2.9.948-3.412.468-.422,1.2-.292,1.782-.312q2.559-.08,5.12-.136c7.6-.171,15.223-.207,22.824.124a116.63,116.63,0,0,1,11.73.987c1.494.219,2.279.334,2.859,2a14.974,14.974,0,0,1,.258,4.007c.058,2.82-.119,5.64-.268,8.455-.063,1.243,1.867,1.238,1.933,0" transform="translate(-6326.969 200.42)" fill="#231815"/>
    <path id="패스_2623" data-name="패스 2623" d="M55.376,156.473c-.336,1.718.59,3.787,1.4,5.264,1.065,1.945,2.761,2.237,4.874,2.415,5.623.475,11.279.624,16.916.785q9.52.267,19.042.324c2.532.017,5.074.073,7.6.007,2.6-.066,3.288-1.723,3.88-4.126.9-3.666.3-7.638.383-11.372.071-3.249-2.191-5.576-4.816-7.3-1.041-.685-2.011.987-.975,1.67,1.652,1.085,3.7,2.886,3.892,4.957.168,1.791-.09,3.746-.024,5.559a23.206,23.206,0,0,1-.236,5.562c-.444,2.128-.782,3.117-2.908,3.124-5.547.022-11.094-.034-16.639-.129-5.978-.1-11.959-.253-17.933-.517-2.466-.107-4.935-.234-7.4-.414-1.757-.129-3.254-.088-4.112-1.752-.419-.816-1.282-2.554-1.089-3.541.239-1.216-1.623-1.735-1.862-.514" transform="translate(-6326.952 201.614)" fill="#231815"/>
    <path id="패스_2624" data-name="패스 2624" d="M75.083,149.651a6.444,6.444,0,0,0,.953,2.861c.241.456.492.9.729,1.355.122.236.241.473.351.712l.088.2c-.037-.088-.027-.068,0,.01.051.132.1.266.146.4a.966.966,0,1,0,1.862-.512,18.97,18.97,0,0,0-1.387-2.912c-.115-.212-.227-.422-.334-.639-.056-.107-.107-.219-.158-.327l-.066-.149c.034.076.046.117.007.017a5.022,5.022,0,0,1-.207-.622c-.007-.029-.078-.246-.056-.266-.015.012.015.239.007.027,0-.051,0-.1,0-.158a.966.966,0,0,0-1.933,0" transform="translate(-6298.528 210.783)" fill="#231815"/>
    <path id="패스_3768" data-name="패스 3768" d="M59.456,144.012,58.483,144c.08-.312.17-.618.241-.93a1.016,1.016,0,1,0-1.96-.54c-.11.482-.246.957-.375,1.434-.8-.012-1.595-.024-2.391-.039.09-.26.183-.519.273-.777a1.017,1.017,0,1,0-1.96-.541l-.453,1.281-1.692-.029a1.017,1.017,0,0,0,0,2.033l.979.017q-.27.774-.545,1.544c-.531-.019-1.064-.046-1.6-.046a1.017,1.017,0,0,0,0,2.033c.3,0,.592.02.889.027l-.548,1.548a1.017,1.017,0,1,0,1.96.54c.236-.669.475-1.341.711-2.011q1.3.073,2.607.161c-.166.5-.329,1.008-.484,1.517-.387,1.254,1.575,1.789,1.96.54.2-.648.409-1.293.618-1.938.745.037,1.492.063,2.24.066a1.017,1.017,0,0,0,0-2.033c-.531,0-1.059-.027-1.587-.046.192-.594.372-1.19.553-1.787l1.536.024a1.017,1.017,0,0,0,0-2.033m-4.192,3.7c-.85-.054-1.7-.1-2.549-.156q.285-.807.57-1.609l2.522.041c-.178.575-.358,1.152-.543,1.724" transform="translate(-6304.265 204.08)" fill="#fff"/>
    <path id="패스_3769" data-name="패스 3769" d="M61.5,147.178l-.056-.037a2.718,2.718,0,0,0,.45-.842,4.046,4.046,0,0,0,.041-2.06,3.6,3.6,0,0,0-1.1-1.76,3.393,3.393,0,0,0-2.14-.993,3.928,3.928,0,0,0-2.245.609,3.367,3.367,0,0,0-1.548,3.642,2.728,2.728,0,0,0,.811,1.285,4.341,4.341,0,0,0-1.41,1.064,3.023,3.023,0,0,0-.716,2.844A4.114,4.114,0,0,0,55.35,153a7.465,7.465,0,0,0,4.937.928,3.385,3.385,0,0,0,2.25-1.524,3.808,3.808,0,0,0,.706-2.909,4.4,4.4,0,0,0-1.738-2.315m-2.8-3.659h0a.367.367,0,0,1,.068.015c.046.01.088.027.134.037.1.063.207.119.307.183l.017.012c.037.032.075.063.11.095a3.442,3.442,0,0,1,.27.263c.037.039.073.078.11.119l.041.054.037.051c.034.056.063.112.095.168l.017.029.027.088c.032.1.051.207.073.312,0,.049.007.1.01.151,0,.117,0,.231-.012.348a.908.908,0,0,1-.034.166c-.022.095-.056.19-.083.285a1.021,1.021,0,0,0-.068.122c0,.01.007,0,0,0l-.015.019a.558.558,0,0,1-.1.061c-.088.017-.18.044-.268.066-.049,0-.1.007-.146.01-.136,0-.275,0-.411,0s-.28-.017-.419-.032l-.012,0c-.058-.015-.122-.022-.183-.034a5.824,5.824,0,0,1-.755-.219l0,0c-.049-.029-.1-.049-.151-.078s-.095-.056-.144-.085l-.073-.058-.041-.041c-.029-.027-.054-.056-.08-.085a1.828,1.828,0,0,0-.11-.19,1.458,1.458,0,0,1-.046-.146s-.015-.051-.024-.095c0-.024,0-.051,0-.078,0-.051,0-.1,0-.151l0-.015,0-.01c.032-.112.056-.224.095-.334l.037-.083.029-.056c.019-.037.146-.207.178-.275l0,0,.153-.153,0,0a1.387,1.387,0,0,1,.144-.093c.1-.061.2-.117.3-.17.017-.01,0,0,.015-.007.056-.022.112-.041.17-.058.1-.032.2-.058.309-.08l.068-.01.073,0c.093,0,.185,0,.28,0m2.237,7.606a1.393,1.393,0,0,1-1.061.82,6.146,6.146,0,0,1-1.57-.041,5.83,5.83,0,0,1-1.534-.436,2.541,2.541,0,0,1-1.12-.913.907.907,0,0,1,.163-1.115,2.989,2.989,0,0,1,.3-.3c.01-.01.149-.117.049-.041.058-.044.119-.085.18-.124a4.612,4.612,0,0,1,.431-.239,1.475,1.475,0,0,1,.27-.114,8.991,8.991,0,0,1,1.694-.4,2.326,2.326,0,0,1,1.339.436,3.627,3.627,0,0,1,1.079,1.074,1.473,1.473,0,0,1-.224,1.4" transform="translate(-6296.443 203.647)" fill="#fff"/>
  </g>
</svg>
