<svg xmlns="http://www.w3.org/2000/svg" width="54.322" height="25.017" viewBox="0 0 54.322 25.017">
  <g id="그룹_1813" data-name="그룹 1813" transform="translate(6157.665 2.907)">
    <path id="패스_2576" data-name="패스 2576" d="M102.867,9.458s-2.291-8.5,6.571-8.667,38.987-2.505,43.747,4.333,2.5,18.532-3.312,18.518-35.668-.161-40.425-1.009-8.13.619-6.58-13.175" transform="translate(-6259.146 -2.519)" fill="#ef8026"/>
    <path id="패스_2577" data-name="패스 2577" d="M152.33,17.638c.141-2.669.31-5.342.275-8.016-.024-1.891.344-5.571-1.019-7.143-.885-1.021-2.562-1.024-3.8-1.2C145.861,1,143.931.8,142,.641A269.707,269.707,0,0,0,114.963.1Q112.13.149,109.3.231c-1.277.037-3.375-.312-4.421.619-1.236,1.1-1.472,3.936-1.789,5.43a43.755,43.755,0,0,0-.941,8.162c-.029,1.414-.4,3.729.851,4.779,1.089.912,3.261.573,4.575.617,4.389.144,8.784.18,13.175.18,10.175,0,20.353-.2,30.523-.514,1.241-.039,1.245-1.972,0-1.933-14.952.465-29.965.86-44.917.29-.963-.037-1.747.21-2.245-.765-.366-.714-.044-2.274-.017-3.1a41.308,41.308,0,0,1,1.05-8.069c.171-.726.383-2.9.948-3.412.468-.422,1.2-.292,1.782-.312q2.559-.08,5.121-.136c7.6-.171,15.223-.207,22.824.124a116.63,116.63,0,0,1,11.73.987c1.494.219,2.279.334,2.859,2a14.972,14.972,0,0,1,.258,4.007c.058,2.82-.119,5.64-.268,8.455-.063,1.243,1.867,1.238,1.933,0" transform="translate(-6259.738 -2.907)" fill="#231815"/>
    <path id="패스_2578" data-name="패스 2578" d="M102.156,15c-.336,1.718.59,3.787,1.4,5.264,1.065,1.945,2.761,2.237,4.874,2.415,5.623.475,11.279.624,16.916.785q9.52.267,19.042.324c2.532.017,5.074.073,7.6.007,2.6-.066,3.288-1.723,3.88-4.126.9-3.666.3-7.638.383-11.372.071-3.249-2.191-5.576-4.816-7.3-1.041-.685-2.011.987-.975,1.669,1.652,1.085,3.7,2.886,3.892,4.957.168,1.791-.09,3.746-.024,5.559a23.208,23.208,0,0,1-.236,5.562c-.444,2.128-.782,3.117-2.908,3.124-5.547.022-11.094-.034-16.639-.129-5.978-.1-11.959-.253-17.933-.517-2.466-.107-4.935-.234-7.4-.414-1.757-.129-3.254-.088-4.112-1.752-.419-.816-1.282-2.554-1.089-3.541.239-1.216-1.623-1.735-1.862-.514" transform="translate(-6259.721 -1.713)" fill="#231815"/>
    <path id="패스_2579" data-name="패스 2579" d="M121.864,8.177a6.424,6.424,0,0,0,.953,2.861c.241.453.492.9.729,1.353.122.236.241.473.351.714.029.068.059.134.088.2-.037-.088-.027-.066,0,.01q.077.2.146.4A.966.966,0,1,0,126,13.2a18.865,18.865,0,0,0-1.387-2.912c-.115-.212-.229-.424-.334-.639-.056-.11-.107-.219-.158-.329l-.066-.146c.034.073.046.117.007.017a4.648,4.648,0,0,1-.207-.621c-.01-.032-.08-.249-.056-.268-.015.015.012.239.007.029,0-.051,0-.1,0-.158a.966.966,0,0,0-1.933,0" transform="translate(-6231.295 7.456)" fill="#231815"/>
    <path id="패스_3760" data-name="패스 3760" d="M106.045,2.71l-.974-.015c.08-.312.17-.618.241-.93a1.017,1.017,0,1,0-1.96-.54c-.11.482-.246.957-.375,1.434q-1.194-.018-2.393-.039c.093-.261.185-.519.275-.777a1.028,1.028,0,0,0-.708-1.251A1.037,1.037,0,0,0,98.9,1.3l-.453,1.281c-.562-.007-1.127-.019-1.692-.027a1.017,1.017,0,0,0,0,2.033l.979.015q-.27.774-.545,1.544c-.531-.019-1.064-.044-1.6-.046a1.017,1.017,0,0,0,0,2.033c.3,0,.592.019.889.027l-.548,1.548a1.017,1.017,0,0,0,1.96.543c.236-.672.475-1.341.711-2.013q1.3.073,2.607.161c-.166.5-.329,1.01-.484,1.517-.387,1.254,1.575,1.789,1.96.54.2-.648.409-1.293.618-1.938.745.037,1.492.066,2.24.066a1.017,1.017,0,0,0,0-2.033c-.531,0-1.059-.027-1.587-.046.19-.594.373-1.191.553-1.787l1.536.024a1.017,1.017,0,0,0,0-2.033m-4.192,3.7c-.85-.054-1.7-.1-2.549-.156l.57-1.609,2.522.041q-.267.865-.543,1.724" transform="translate(-6237.429 1.37)" fill="#fff"/>
    <path id="패스_3761" data-name="패스 3761" d="M103.78,11.131a5.025,5.025,0,0,0,3.864-1.371,3.181,3.181,0,0,0,.4-4,3.809,3.809,0,0,0-.85-.84c.041-.041.09-.066.127-.107a2.625,2.625,0,0,0,.436-2.98,3.349,3.349,0,0,0-2.739-1.47,3,3,0,0,0-2.68,1.673,1.046,1.046,0,0,0,.365,1.39,1.024,1.024,0,0,0,1.39-.363,1.053,1.053,0,0,1,.375-.484.858.858,0,0,1,.55-.183,1.565,1.565,0,0,1,.876.355c.024.022.063.066.092.095a.511.511,0,0,1-.041.424,1.114,1.114,0,0,1-.285.321,4.208,4.208,0,0,1-1.775.533c-1.117.19-.872,2.113.27,2a2.379,2.379,0,0,1,2.211.772,1.194,1.194,0,0,1-.351,1.614,3.244,3.244,0,0,1-2.172.592,2.142,2.142,0,0,1-1.726-.735A1.043,1.043,0,0,0,100.725,8a1.027,1.027,0,0,0-.363,1.393,4.139,4.139,0,0,0,3.418,1.738" transform="translate(-6229.382 1.205)" fill="#fff"/>
  </g>
</svg>
