<svg xmlns="http://www.w3.org/2000/svg" xmlns:xlink="http://www.w3.org/1999/xlink" width="102.026" height="126.312" viewBox="0 0 102.026 126.312">
  <defs>
    <clipPath id="clip-path">
      <rect id="사각형_1842" data-name="사각형 1842" width="90.205" height="102.6" fill="none"/>
    </clipPath>
  </defs>
  <g id="그룹_1813" data-name="그룹 1813" transform="translate(5669.055 402.123)">
    <g id="그룹_1046" data-name="그룹 1046" transform="translate(-5664.243 -384.33)" clip-path="url(#clip-path)">
      <rect id="사각형_1841" data-name="사각형 1841" width="90.202" height="102.598" transform="translate(0 0.002)" fill="#fff251"/>
      <path id="패스_2150" data-name="패스 2150" d="M98.286,190.677c0-7.28,14.874-15.971,31.566-15.508,20.3.565,37.272,4.616,37.491,15.508.19,9.4-7.275,34-21.515,40.362-3.344,1.5-8.569,1.652-11.91,1.684-4.821.044-9.113.107-13.785-2.374-11.94-6.332-21.847-21.618-21.847-39.672" transform="translate(-88.503 -141.193)" fill="#4c4348"/>
      <path id="패스_2151" data-name="패스 2151" d="M106.592,185.814s-13.227,3.687-8.952,9.242c5.223,6.79,14.138,4.16,14.138,4.16l-3.38-4.16s-10.073-.8-6.066-3.812c5-3.768,6.31-1.674,6.31-1.674Z" transform="translate(-90.653 -125.869)" fill="#4c4348"/>
      <path id="패스_2152" data-name="패스 2152" d="M126.917,185.814s13.227,3.687,8.952,9.242c-5.223,6.79-14.138,4.16-14.138,4.16l3.38-4.16s10.073-.8,6.066-3.812c-5-3.768-6.31-1.674-6.31-1.674Z" transform="translate(-54.809 -125.869)" fill="#4c4348"/>
      <path id="패스_2153" data-name="패스 2153" d="M135.754,175.109a62.12,62.12,0,0,0-12.839.151c-4.45.378-8.966.851-13.18,2.408-3.266,1.209-9.083,3.3-10.4,6.868s-.178,6.612,3.266,8.091c10.831,4.653,23.943,4.692,35.488,4.051a97.105,97.105,0,0,0,18.481-2.481c3.322-.841,9.666-2.281,9.332-6.948-.31-4.321-6.78-7.316-10.139-8.725-6.322-2.654-13.227-3.232-20.009-3.415a.967.967,0,0,0,0,1.933c6.1.166,12.291.631,18.062,2.773a24.542,24.542,0,0,1,8.328,4.826c1.818,1.733,2.286,4.141-.2,5.684a15.147,15.147,0,0,1-3.673,1.4c-11.511,3.449-24.606,3.88-36.531,2.951a63.908,63.908,0,0,1-17.782-3.588c-4.1-1.57-3.924-5.518-.69-7.955a28.4,28.4,0,0,1,7.477-3.778,50.768,50.768,0,0,1,13-2.232,59.9,59.9,0,0,1,12.005-.083c1.231.154,1.219-1.779,0-1.933" transform="translate(-87.761 -141.656)" fill="#756e71"/>
      <path id="패스_2154" data-name="패스 2154" d="M101.007,189.505c19.519,3.48,40.357,6.612,58.875-2.52,1.114-.548.136-2.215-.977-1.667-17.994,8.874-38.434,5.7-57.383,2.325-1.216-.217-1.738,1.643-.514,1.862" transform="translate(-85.595 -126.739)" fill="#756e71"/>
      <path id="패스_2155" data-name="패스 2155" d="M102.433,192.829a155.517,155.517,0,0,0,26.843,3.444c8.3.353,16.709-.573,24.043-4.745a.966.966,0,0,0-.975-1.667c-7.341,4.175-15.776,4.869-24.062,4.433a155.787,155.787,0,0,1-25.334-3.327c-1.211-.268-1.73,1.594-.514,1.862" transform="translate(-83.54 -120.247)" fill="#756e71"/>
      <path id="패스_2156" data-name="패스 2156" d="M120.4,189.731c-.124.541-.758.5-1.192.322-.37-.156-.682-.434-1.05-.6a2.243,2.243,0,0,0-1.421-.156,12.071,12.071,0,0,1-2.357.7,1.428,1.428,0,0,1-1.353-.656,1,1,0,0,0-1.187-.675.973.973,0,0,0-.675,1.189,3.2,3.2,0,0,0,2.332,1.984,4.484,4.484,0,0,0,1.8-.02,11.623,11.623,0,0,0,1.643-.578c.453-.158.692.144,1.08.366a3.592,3.592,0,0,0,1.782.5,2.516,2.516,0,0,0,2.459-1.864c.278-1.211-1.584-1.728-1.862-.514" transform="translate(-70.07 -121.821)" fill="#fff"/>
      <path id="패스_2157" data-name="패스 2157" d="M112.107,188.646a1.565,1.565,0,1,1-1.565-1.565,1.565,1.565,0,0,1,1.565,1.565" transform="translate(-73.137 -124.048)" fill="#fff"/>
      <path id="패스_2158" data-name="패스 2158" d="M119.146,188.646a1.565,1.565,0,1,1-1.565-1.565,1.565,1.565,0,0,1,1.565,1.565" transform="translate(-63.021 -124.048)" fill="#fff"/>
      <path id="패스_2159" data-name="패스 2159" d="M110.606,197.688a33.755,33.755,0,0,0-4.224,15.883,6.1,6.1,0,0,0,3.746,5.569,5.811,5.811,0,0,0,3.156.414,5.608,5.608,0,0,0,3.5-1.674l.241-.292a6.546,6.546,0,0,0,1.784-4.309,6.1,6.1,0,0,0-6.093-6.093,5.963,5.963,0,0,0-4.309,1.786c-.08.1-.161.193-.241.29q5.2,2.153,10.4,4.309a28.214,28.214,0,0,1,.249-3.393L118.6,211.8a27.718,27.718,0,0,1,1.855-6.766l-.614,1.455a28.57,28.57,0,0,1,1.289-2.649,6.364,6.364,0,0,0,.614-4.7,6.093,6.093,0,0,0-11.135-1.455" transform="translate(-76.868 -113.162)" fill="#4c4348"/>
      <path id="패스_2160" data-name="패스 2160" d="M113.44,202.556a54.074,54.074,0,0,1,3.112,12.008c-.071-.541-.144-1.08-.217-1.621q.289,2.168.412,4.348a6.251,6.251,0,0,0,3.017,5.262,6.144,6.144,0,0,0,6.151,0,9.942,9.942,0,0,1,1.114-.563l-1.455.614a9.769,9.769,0,0,1,2.162-.578c-.541.073-1.08.146-1.621.217a10.533,10.533,0,0,1,2.493,0c-.539-.073-1.08-.146-1.618-.217a10.445,10.445,0,0,1,2.41.641l-1.455-.614a9.847,9.847,0,0,1,1.945,1.109l-1.233-.953a10.059,10.059,0,0,1,1.106,1.007,6.144,6.144,0,0,0,8.615,0,6.216,6.216,0,0,0,0-8.615,15.407,15.407,0,0,0-18.615-2.566l9.169,5.259a59.009,59.009,0,0,0-3.743-17.974,6.6,6.6,0,0,0-2.8-3.641,6.093,6.093,0,0,0-8.338,2.186,5.944,5.944,0,0,0-.614,4.694" transform="translate(-67.099 -112.898)" fill="#4c4348"/>
      <path id="패스_2161" data-name="패스 2161" d="M119.088,201.819a74,74,0,0,0-12.751,2.055,6.1,6.1,0,0,0-4.255,7.5,6.178,6.178,0,0,0,2.8,3.641,6.451,6.451,0,0,0,4.7.614,64.868,64.868,0,0,1,7.314-1.438l-1.618.219q1.9-.256,3.814-.4a6.5,6.5,0,0,0,4.309-1.784,6.1,6.1,0,0,0,0-8.618,6.013,6.013,0,0,0-4.309-1.784" transform="translate(-83.366 -102.884)" fill="#4c4348"/>
    </g>
    <path id="패스_2162" data-name="패스 2162" d="M94.823,162.489c30.067.244,60.132.582,90.2.826a.967.967,0,0,0,0-1.933c-30.067-.241-60.132-.582-90.2-.826a.967.967,0,0,0,0,1.933" transform="translate(-5759.063 -546.499)" fill="#231815"/>
    <path id="패스_2163" data-name="패스 2163" d="M131.2,162.134q-.738,50.53.483,101.062a.967.967,0,0,0,1.933,0q-1.225-50.523-.483-101.062a.967.967,0,0,0-1.933,0" transform="translate(-5705.844 -545.571)" fill="#231815"/>
    <path id="패스_2164" data-name="패스 2164" d="M94.711,204.516c30.616.863,61.188,1.8,91.816.846,1.238-.037,1.245-1.969,0-1.93-30.628.953-61.2.015-91.816-.848a.967.967,0,0,0,0,1.933" transform="translate(-5759.224 -486.099)" fill="#231815"/>
    <path id="패스_2165" data-name="패스 2165" d="M96.533,202.525a5.919,5.919,0,0,0-3.3.258,1,1,0,0,0-.675,1.189q.508,2.405,1.014,4.809a.976.976,0,0,0,.931.709c20.463.417,40.925.916,61.392,1.024,10.629.056,21.262.049,31.89-.139,2.033-.037,6.371-.283,6.208-3.278-.122-2.232-4.355-3.692-6.115-3.083-1.167.4-.668,2.271.512,1.864.5-.175,2.959.2,3.1.96.368,1.952-2.839,1.582-3.707,1.6-2.354.061-4.713.061-7.07.083q-6.12.059-12.239.076-12.112.029-24.218-.119c-16.587-.193-33.17-.585-49.755-.921q.468.355.931.709-.5-2.406-1.011-4.811c-.227.4-.451.792-.675,1.189l2.276-.261c1.216.2,1.74-1.662.514-1.862" transform="translate(-5761.022 -486.355)" fill="#231815"/>
    <path id="패스_2166" data-name="패스 2166" d="M187.182,166.786a5.919,5.919,0,0,0,3.3-.258,1,1,0,0,0,.675-1.189q-.508-2.406-1.014-4.809a.976.976,0,0,0-.931-.709c-19.861-.409-39.706-1.265-59.567-1.628-10.4-.19-20.813-.261-31.218-.083-2.635.046-6.541.453-5.815,4.094.444,2.225,3.639,4.57,5.869,3.912a.966.966,0,0,0-.514-1.862,3.4,3.4,0,0,1-2.866-1.445c-1.411-3.219,1.911-2.732,3.327-2.766,2.342-.059,4.687-.054,7.026-.068q6.006-.037,12.015,0,11.673.073,23.346.407c16.132.431,32.261,1.038,48.4,1.37q-.468-.355-.931-.709.5,2.405,1.011,4.811c.227-.4.451-.792.675-1.189l-2.276.261c-1.216-.2-1.74,1.662-.514,1.862" transform="translate(-5761.02 -550.162)" fill="#231815"/>
    <path id="패스_2167" data-name="패스 2167" d="M94.592,161.611q1.06,50.914-1.311,101.815c-.059,1.243,1.874,1.241,1.93,0q2.376-50.87,1.314-101.815a.967.967,0,0,0-1.933,0" transform="translate(-5759.941 -546.323)" fill="#231815"/>
    <path id="패스_2168" data-name="패스 2168" d="M93.4,193.122q49.035-.826,98.04,1.879c1.241.068,1.236-1.864,0-1.933q-48.973-2.7-98.04-1.879a.967.967,0,0,0,0,1.933" transform="translate(-5761.116 -502.75)" fill="#231815"/>
    <path id="패스_2169" data-name="패스 2169" d="M95.6,192.341c.373,9.027.836,18.055,1.1,27.084.037,1.241,1.969,1.245,1.933,0-.266-9.03-.726-18.057-1.1-27.084-.051-1.238-1.984-1.245-1.933,0" transform="translate(-5756.614 -502.157)" fill="#231815"/>
    <path id="패스_2170" data-name="패스 2170" d="M92.3,192.609c.373,9.027.836,18.055,1.1,27.084.037,1.241,1.969,1.245,1.933,0-.266-9.03-.726-18.057-1.1-27.084-.051-1.238-1.984-1.245-1.933,0" transform="translate(-5761.353 -501.771)" fill="#231815"/>
    <path id="패스_2171" data-name="패스 2171" d="M98.273,192.062a202.918,202.918,0,0,1,1.036,27.723c-.037,1.245,1.894,1.243,1.933,0a202.918,202.918,0,0,0-1.036-27.723c-.132-1.223-2.064-1.238-1.933,0" transform="translate(-5752.774 -502.546)" fill="#231815"/>
    <path id="패스_2172" data-name="패스 2172" d="M101.36,192.34q.691,13.852.451,27.728a.967.967,0,0,0,1.933,0q.241-13.87-.451-27.728c-.063-1.238-2-1.245-1.933,0" transform="translate(-5748.331 -502.158)" fill="#231815"/>
    <path id="패스_2173" data-name="패스 2173" d="M104.4,192.158q.428,13.753.853,27.508c.039,1.238,1.972,1.245,1.933,0q-.428-13.757-.853-27.508c-.039-1.241-1.972-1.245-1.933,0" transform="translate(-5743.964 -502.422)" fill="#231815"/>
    <path id="패스_2174" data-name="패스 2174" d="M107.457,191.886q.585,13.972-.024,27.954c-.054,1.243,1.879,1.24,1.933,0q.607-13.972.024-27.954c-.054-1.238-1.984-1.245-1.933,0" transform="translate(-5739.602 -502.81)" fill="#231815"/>
    <path id="패스_2175" data-name="패스 2175" d="M109.886,192.529a120.261,120.261,0,0,1,.543,27.893c-.119,1.236,1.813,1.228,1.933,0a122.269,122.269,0,0,0-.614-28.408c-.168-1.226-2.03-.7-1.862.514" transform="translate(-5736.09 -502.293)" fill="#231815"/>
    <path id="패스_2176" data-name="패스 2176" d="M113.97,192.159q-.186,14.539-1.2,29.046c-.088,1.241,1.845,1.233,1.933,0q1.013-14.506,1.2-29.046a.967.967,0,0,0-1.933,0" transform="translate(-5731.936 -502.421)" fill="#231815"/>
    <path id="패스_2177" data-name="패스 2177" d="M116.152,192.249q.135,13.863.271,27.728a.967.967,0,0,0,1.933,0q-.135-13.863-.271-27.728a.967.967,0,0,0-1.933,0" transform="translate(-5727.069 -502.291)" fill="#231815"/>
    <path id="패스_2178" data-name="패스 2178" d="M119.605,192.523q.029,13.643.061,27.284a.966.966,0,0,0,1.93,0q-.029-13.64-.058-27.284a.967.967,0,0,0-1.933,0" transform="translate(-5722.107 -501.898)" fill="#231815"/>
    <path id="패스_2179" data-name="패스 2179" d="M122.425,192.429l1.06,27.959c.046,1.241,1.979,1.245,1.933,0l-1.06-27.959c-.049-1.238-1.979-1.245-1.933,0" transform="translate(-5718.055 -502.03)" fill="#231815"/>
    <path id="패스_2180" data-name="패스 2180" d="M125.2,192.8a190.208,190.208,0,0,1,1.733,26.794.967.967,0,0,0,1.933,0,193.841,193.841,0,0,0-1.8-27.309c-.166-1.226-2.028-.7-1.862.514" transform="translate(-5714.076 -501.905)" fill="#231815"/>
    <path id="패스_2181" data-name="패스 2181" d="M128.931,192.878a206.666,206.666,0,0,1,1.877,26.6.967.967,0,0,0,1.933,0,210.283,210.283,0,0,0-1.947-27.116c-.166-1.226-2.028-.7-1.862.514" transform="translate(-5708.719 -501.791)" fill="#231815"/>
    <path id="패스_2182" data-name="패스 2182" d="M133.144,193.068a74.331,74.331,0,0,1,.29,12.988c-.1,2.086-.219,4.17-.31,6.256-.044,1.043-.085,2.086-.1,3.132-.007.341.224,3.283.007,3.439-.985.734-.022,2.41.977,1.669,1.5-1.109.916-3.475.948-5.108.049-2.525.193-5.045.322-7.565a82.589,82.589,0,0,0-.2-14.811c-.156-1.216-2.091-1.231-1.933,0" transform="translate(-5703.407 -501.092)" fill="#231815"/>
    <path id="패스_2183" data-name="패스 2183" d="M190.581,163.476c-.212-1.6-.071-3.207-.283-4.809a.992.992,0,0,0-.965-.968c-18.228-.375-36.445-1.119-54.673-1.526q-13.409-.3-26.824-.263-4.043.015-8.089.063c-1.648.022-3.673-.224-5.208.507-2.391,1.133-2.262,3.826-.682,5.574.836.924,2.2-.446,1.367-1.367Q94.592,157.811,96.6,158a14.129,14.129,0,0,1,1.955-.078c1.184-.029,2.374-.029,3.558-.039q3.144-.033,6.285-.041,5.9-.018,11.8.034,11.092.1,22.186.424c15.652.431,31.3,1.011,46.955,1.333l-.965-.965c.21,1.6.071,3.2.28,4.809.161,1.216,2.1,1.231,1.933,0" transform="translate(-5760.771 -553.184)" fill="#231815"/>
    <path id="패스_2184" data-name="패스 2184" d="M190.581,161.489c-.212-1.6-.071-3.207-.283-4.809a.992.992,0,0,0-.965-.968c-18.228-.375-36.445-1.119-54.673-1.526q-13.409-.3-26.824-.263-4.043.015-8.089.063c-1.648.022-3.673-.224-5.208.507-2.391,1.133-2.262,3.826-.682,5.574.836.924,2.2-.446,1.367-1.367q-.632-2.877,1.372-2.688a14.131,14.131,0,0,1,1.955-.078c1.184-.029,2.374-.029,3.558-.039q3.144-.033,6.285-.041,5.9-.018,11.8.034,11.092.1,22.186.424c15.652.431,31.3,1.011,46.955,1.333l-.965-.965c.21,1.6.071,3.2.28,4.809.161,1.216,2.1,1.231,1.933,0" transform="translate(-5760.771 -556.04)" fill="#231815"/>
    <path id="패스_2185" data-name="패스 2185" d="M131.1,197.821c.046.051.2.183.214.249-.017-.127-.419-.6-.132-.136.061.1.227.463.032,0s-.039-.034-.017.08c-.034-.268-.071-.539-.107-.809a1.2,1.2,0,0,1,.007.295c.037-.268.073-.539.11-.809q-.1.453.166-.3a1.539,1.539,0,0,1,.524-.573,1.44,1.44,0,0,1,.7-.366,1.3,1.3,0,0,1-.256.054l.809-.107a2.5,2.5,0,0,1-.4,0l.812.107a1.577,1.577,0,0,0-.266-.059q.731.347.417.173c-.122-.076-.08-.039.122.1.39.307.088.037,0-.032-.219-.178.39.629.132.161-.107-.195-.212-.385-.312-.585-.234-.466.163.556.088.21-.027-.129-.063-.244-.083-.378l.11.812v-.146c-.037.268-.073.539-.11.809-.2.324-.409.646-.612.97q-2.6-1.078-5.2-2.154a1.961,1.961,0,0,1-.015.292c.037-.268.073-.539.11-.809-.024.144-.073.273-.1.414q.329-.72.154-.4a2.105,2.105,0,0,1-.115.185c-.022-.085.536-.624.141-.217-.107.11-.224.21-.339.312-.266.241.6-.422.18-.149-.129.085-.258.171-.392.251-.09.054-.392.163-.424.239l.39-.156a1.756,1.756,0,0,1-.348.1l.809-.11a1.046,1.046,0,0,1-.349,0c.271.037.541.073.812.107a2.246,2.246,0,0,1,1.219.968c.071.171.144.339.214.509a1.4,1.4,0,0,1-.051-.244l.11.812a2.2,2.2,0,0,1,0-.38l-.11.809a1.482,1.482,0,0,1,.051-.251q-.377.808-.144.346l.085-.139c.18-.256.119-.183-.18.224a7.907,7.907,0,0,0,.76-.88,3.327,3.327,0,0,0,.892-2.154A3.046,3.046,0,0,0,126,192.9c-.239.219-.487.426-.736.636-.419.353.388-.273.078-.063-.134.093-.263.19-.4.283-.232.158-.466.312-.709.453a1.543,1.543,0,0,1-.38.2c.136-.061.271-.122.407-.18a2.221,2.221,0,0,1-.334.078l.812-.11a2.455,2.455,0,0,1-.463,0c.271.037.541.071.809.107-.227-.056-.2-.034.071.068a1.39,1.39,0,0,1,.595.4l.29.37c.178.5.239.59.178.28l.11.809a1.4,1.4,0,0,1,.01-.319l-.11.812a1.742,1.742,0,0,1,.078-.314q-.318.7-.068.273c-.458.734-.076.144.127-.044.361-.336.741-.651,1.126-.96.607-.485-.4.283.1-.073.195-.139.385-.283.585-.414a4.045,4.045,0,0,0,.6-.341q-.706.278-.249.129a2.419,2.419,0,0,1,.351-.071l-.812.11a3.931,3.931,0,0,1,.738,0l-.809-.11a9.111,9.111,0,0,1,1.46.356c.232.073.463.144.69.224.115.039.229.08.341.122q.453.179-.227-.1a2.7,2.7,0,0,0,.631.348c.451.249-.612-.495-.007.024.385.334-.446-.643-.01.01q.212.424-.124-.3a2.178,2.178,0,0,1,.073.3,3.062,3.062,0,0,0,3.746,2.128,3.118,3.118,0,0,0,2.128-3.746c-.461-2.313-2.457-3.707-4.5-4.511a12.261,12.261,0,0,0-2.3-.692,6.557,6.557,0,0,0-4.112.478,12.333,12.333,0,0,0-2.354,1.63,11.943,11.943,0,0,0-1.86,1.665,4.863,4.863,0,0,0-1.192,4.348,4.179,4.179,0,0,0,3.025,2.966c2.647.661,5.089-1.3,6.917-2.959L126,192.9c-.451.578-.958,1.092-1.389,1.689a4.569,4.569,0,0,0-.8,2.1,4.04,4.04,0,0,0,3.332,4.672,6.36,6.36,0,0,0,4.789-1.85,5.463,5.463,0,0,0,2.011-4.131,3.051,3.051,0,0,0-1.874-2.783,3,3,0,0,0-3.327.629,3.989,3.989,0,0,0-.933,3.636,7.452,7.452,0,0,0,.775,1.842,5.136,5.136,0,0,0,4.233,2.781,4.2,4.2,0,0,0,4.246-3.037c.461-1.908-.419-3.553-1.648-4.943a3.066,3.066,0,0,0-4.309,0,3.119,3.119,0,0,0,0,4.309" transform="translate(-5721.205 -505.689)" fill="#4c4348"/>
    <path id="패스_2186" data-name="패스 2186" d="M97.431,193.538c-1.209,1.365-2.094,2.988-1.66,4.869a4.18,4.18,0,0,0,4.258,3.11,5.15,5.15,0,0,0,4.192-2.708,7.282,7.282,0,0,0,.8-1.84,4.513,4.513,0,0,0,.041-1.994,3.883,3.883,0,0,0-.955-1.718,3.062,3.062,0,0,0-5.2,2.154,5.429,5.429,0,0,0,1.952,4.082c1.367,1.138,3,2.147,4.848,1.9a4.026,4.026,0,0,0,3.385-4.267,4.834,4.834,0,0,0-.809-2.442c-.436-.626-.972-1.158-1.438-1.755q-2.157,2.153-4.309,4.309c1.562,1.421,3.454,2.954,5.647,3.09a4.266,4.266,0,0,0,3.839-2.011A4.533,4.533,0,0,0,112,193.87a7.792,7.792,0,0,0-1.955-2.15,21.409,21.409,0,0,0-2.447-1.85,6.008,6.008,0,0,0-3.373-.929,11.131,11.131,0,0,0-2.886.619c-2.3.751-4.677,2.179-5.191,4.75a3.048,3.048,0,0,0,5.876,1.621,2.1,2.1,0,0,1,.073-.3q-.336.724-.124.3c.434-.653-.4.322-.01-.01.6-.519-.458.222-.007-.024a2.754,2.754,0,0,0,.631-.349q-.68.278-.229.1c.115-.041.227-.083.341-.122.229-.08.461-.151.692-.224a8.856,8.856,0,0,1,1.46-.356l-.809.11a4.15,4.15,0,0,1,.738,0c-.271-.034-.541-.071-.812-.107a2.42,2.42,0,0,1,.351.068c.3.1.219.058-.249-.127a4.282,4.282,0,0,0,.6.341c.2.129.39.275.585.414.5.356-.512-.412.1.073.385.307.765.624,1.126.96.2.185.585.777.127.044.166.283.144.19-.068-.273a1.572,1.572,0,0,1,.076.312c-.037-.268-.071-.539-.107-.809a1.555,1.555,0,0,1,.01.319l.11-.809c-.049.229-.024.21.078-.063a1.524,1.524,0,0,1,.39-.587l.37-.3q.753-.278.295-.168c.268-.037.539-.073.809-.107a2.445,2.445,0,0,1-.463,0c.271.037.541.071.809.107-.112-.02-.59-.193-.129.015.483.212,0-.01-.1-.068-.271-.151-.529-.324-.785-.5-.107-.073-.21-.149-.317-.222-.541-.378.37.312.076.063-.275-.229-.548-.453-.812-.695a3.1,3.1,0,0,0-4.309,0,3.06,3.06,0,0,0-.892,2.154,3.575,3.575,0,0,0,.892,2.154,4.514,4.514,0,0,0,.758.877q-.424-.574-.224-.29c.046.066.09.137.132.207q.234.461-.144-.346a1.751,1.751,0,0,1,.049.251l-.107-.812a2.476,2.476,0,0,1,0,.38l.11-.809c-.061.375-.2.295.163-.266a2.261,2.261,0,0,1,1.219-.968c.271-.037.541-.073.812-.107a1.047,1.047,0,0,1-.349,0l.809.11a1.2,1.2,0,0,1-.261-.066c-.219-.073-.119-.032.3.127a3.114,3.114,0,0,0-.424-.239c-.112-.066-.222-.137-.329-.207-.541-.361.344.31.115.1-.1-.088-.195-.168-.285-.258-.054-.054-.1-.107-.156-.166-.156-.175-.073-.068.246.329-.027-.041-.054-.083-.08-.122q-.223-.413.119.341c-.015-.134-.08-.278-.1-.414l.11.809a1.96,1.96,0,0,1-.015-.292q-2.6,1.075-5.2,2.154c-.2-.324-.407-.648-.612-.97l-.11-.812v.149l.11-.812c-.015.1-.041.2-.058.3-.1.526.244-.492.1-.21-.115.222-.227.441-.349.66-.224.4.18-.236.188-.219a1.692,1.692,0,0,1-.227.232c.119-.1.236-.188.356-.28-.193.1-.154.093.122-.037.492-.212.112-.068-.027-.044l.809-.11a2.018,2.018,0,0,1-.4,0l.809.11a1.357,1.357,0,0,1-.258-.056,1.49,1.49,0,0,1,.7.366,1.567,1.567,0,0,1,.524.575q.26.749.166.3l.11.809a1.2,1.2,0,0,1,.007-.295l-.11.809c0-.024.068-.3.073-.3.041.017-.387.758-.056.214.056-.093.3-.419,0-.037-.327.419.024-.012.08-.073a3.047,3.047,0,1,0-4.309-4.309" transform="translate(-5756.521 -505.713)" fill="#4c4348"/>
    <path id="패스_2187" data-name="패스 2187" d="M97.4,196.2a10.26,10.26,0,0,1,1.528-3.6c.972-1.226,2.53-1.523,4-1.75,2.727-.424,6.546-.112,7.772,2.861a1,1,0,0,0,1.189.675.972.972,0,0,0,.673-1.189c-1.587-3.851-5.827-4.8-9.6-4.289-1.862.251-3.841.651-5.179,2.084a11.139,11.139,0,0,0-2.237,4.694.966.966,0,0,0,1.862.514" transform="translate(-5756.752 -505.93)" fill="#231815"/>
    <path id="패스_2188" data-name="패스 2188" d="M122.257,194.864a7.206,7.206,0,0,1,6.059-3.977,11.343,11.343,0,0,1,4.363.982,3.161,3.161,0,0,1,1.7,1.133,14.592,14.592,0,0,0,1.265,1.794c.848.914,2.211-.456,1.365-1.365-.573-.619-.892-1.423-1.453-2.057a5.32,5.32,0,0,0-2.235-1.321,12.491,12.491,0,0,0-5.213-1.087,9.154,9.154,0,0,0-7.514,4.923c-.556,1.109,1.109,2.089,1.667.975" transform="translate(-5720.852 -505.693)" fill="#231815"/>
    <path id="패스_2189" data-name="패스 2189" d="M99.341,179.611c-3.156,8.347-.061,17.075,3.307,24.818.495,1.138,2.159.156,1.669-.975-3.171-7.287-6.081-15.479-3.115-23.329.441-1.165-1.426-1.667-1.862-.514" transform="translate(-5753.119 -520.052)" fill="#231815"/>
    <path id="패스_2190" data-name="패스 2190" d="M102,194.485a22.81,22.81,0,0,0,11.815,11.228.975.975,0,0,0,1.189-.675.992.992,0,0,0-.675-1.189,20.881,20.881,0,0,1-10.663-10.339.973.973,0,0,0-1.321-.346.989.989,0,0,0-.346,1.321" transform="translate(-5747.581 -499.816)" fill="#231815"/>
  </g>
</svg>
