<svg xmlns="http://www.w3.org/2000/svg" xmlns:xlink="http://www.w3.org/1999/xlink" width="38.946" height="44.649" viewBox="0 0 38.946 44.649">
  <defs>
    <clipPath id="clip-path">
      <rect id="사각형_1933" data-name="사각형 1933" width="38.946" height="44.649" fill="none"/>
    </clipPath>
  </defs>
  <g id="그룹_1188" data-name="그룹 1188" style="isolation: isolate">
    <path id="패스_3379" data-name="패스 3379" d="M7.431,37.74l8.852,1.935.5-28.424-.441.085L7.431,9.988Z" transform="translate(2.935 3.944)" fill="#dcdddd"/>
    <path id="패스_3380" data-name="패스 3380" d="M14.277,11.407l-.5,28.424.059.013,9.82-2.06V9.6l-.025-.007Z" transform="translate(5.441 3.788)" fill="#fff"/>
    <path id="패스_3381" data-name="패스 3381" d="M.5,11.349V39.7l9.008-2.091.66.144V10l-.3-.045Z" transform="translate(0.198 3.931)" fill="#fff"/>
    <g id="그룹_1187" data-name="그룹 1187" transform="translate(0 0)">
      <g id="그룹_1186" data-name="그룹 1186" clip-path="url(#clip-path)">
        <path id="패스_3382" data-name="패스 3382" d="M30.449,34.306l.071-20.8a2.282,2.282,0,0,0-1.809-2.242L20.859,9.6V37.781l.146-.029,7.523,1.628c2.59.618,1.921-2.41,1.921-5.073" transform="translate(8.237 3.79)" fill="#dcdddd"/>
        <path id="패스_3383" data-name="패스 3383" d="M1.216,32.71l8.54-2.06c.872-.211.5-1.555-.371-1.345l-8.54,2.06c-.872.211-.5,1.555.371,1.345" transform="translate(0.137 11.563)" fill="#1a1311"/>
        <path id="패스_3384" data-name="패스 3384" d="M9.666,38.613A59.216,59.216,0,0,0,19.4,40.969a7.545,7.545,0,0,0,3.645-.875,37.523,37.523,0,0,1,4.365-1.356c3.4-.836,7.386,1.169,10.619,2.257a.7.7,0,0,0,.883-.672q0-14.088.006-28.176a.711.711,0,0,0-.512-.672l-5.242-1.364c-1.834-.478-3.464-1.221-5.313-.742-2.046.529-4.123.992-6.21,1.334-2.574.421-4.957-.259-7.477-.763a27.587,27.587,0,0,0-3.572-.764,6.9,6.9,0,0,0-2.066.367,45.491,45.491,0,0,1-7.779,1.4c-.893.054-.9,1.449,0,1.395A40.48,40.48,0,0,0,7.09,11.276a11.5,11.5,0,0,1,4.224-.522c1.039.156,2.091.453,3.125.66,2.048.409,4.162,1.07,6.266.834a52.024,52.024,0,0,0,6.129-1.193c1.1-.261,1.809-.681,2.858-.407l3.1.808q2.622.682,5.242,1.366-.255-.337-.512-.674,0,14.088-.006,28.176l.883-.672q-2-.674-4.015-1.308c-1.638-.516-3.641-1.416-5.372-1.346-2.953.119-5.546,1.868-8.337,2.533-1.654.393-3.883-.469-5.5-.866-1.724-.424-3.433-.905-5.137-1.395a.7.7,0,0,0-.371,1.345" transform="translate(0.029 3.621)" fill="#1a1311"/>
        <path id="패스_3385" data-name="패스 3385" d="M0,11.144c.393,9.435.345,18.881.47,28.321a.7.7,0,0,0,1.394,0c-.124-9.439-.075-18.886-.47-28.321-.036-.894-1.433-.9-1.394,0" transform="translate(0 4.135)" fill="#1a1311"/>
        <path id="패스_3386" data-name="패스 3386" d="M7,10.029q-.04,13.981-.067,27.962a.7.7,0,0,0,1.395,0q.04-13.981.067-27.962a.7.7,0,0,0-1.395,0" transform="translate(2.737 3.694)" fill="#1a1311"/>
        <path id="패스_3387" data-name="패스 3387" d="M13.735,13.25l-.067,25.386a.7.7,0,0,0,1.395,0q.033-12.692.067-25.386a.7.7,0,0,0-1.395,0" transform="translate(5.397 4.966)" fill="#1a1311"/>
        <path id="패스_3388" data-name="패스 3388" d="M20.279,10.258c-.021,8.976.245,17.951.225,26.927a.7.7,0,0,0,1.395,0c.021-8.976-.246-17.951-.225-26.927a.7.7,0,0,0-1.395,0" transform="translate(8.008 3.784)" fill="#1a1311"/>
        <path id="패스_3389" data-name="패스 3389" d="M21.423,15.667c.937-1.573,2.833-4.211,2.833-7.442A7.672,7.672,0,0,0,16.431.716,7.672,7.672,0,0,0,8.607,8.225c0,3.046,2.06,6,2.89,7.375l4.934,7.912Z" transform="translate(3.399 0.282)" fill="#e65649"/>
        <path id="패스_3390" data-name="패스 3390" d="M18.318,5.525,18.3,5.48a3.211,3.211,0,0,0-2.847-1.615,3.838,3.838,0,0,0-2.936,1.367,3.591,3.591,0,0,0,.5,4.939,2.618,2.618,0,0,0,1.907.7,3.833,3.833,0,0,0,3.224-1.857,4.079,4.079,0,0,0,.172-3.489" transform="translate(4.641 1.526)" fill="#fff"/>
        <path id="패스_3391" data-name="패스 3391" d="M19.169,5.536A3.86,3.86,0,0,0,15.2,3.4a4.385,4.385,0,0,0-3.772,3.021,4.372,4.372,0,0,0,1.222,4.359,3.966,3.966,0,0,0,4.927.2,4.555,4.555,0,0,0,1.593-5.44.7.7,0,0,0-.841-.477.689.689,0,0,0-.477.84,3.29,3.29,0,0,1-.582,3.578,2.825,2.825,0,0,1-3.366.568,3.018,3.018,0,0,1-1.26-2.8,2.9,2.9,0,0,1,2.091-2.371,2.971,2.971,0,0,1,1.924.066,2.667,2.667,0,0,1,.737.416,1.849,1.849,0,0,1,.333.343c.025.036.049.081.073.12s.045.078.064.119L17.851,5.9a.706.706,0,0,0,.841.478.69.69,0,0,0,.477-.841" transform="translate(4.448 1.333)" fill="#1a1311"/>
        <path id="패스_3392" data-name="패스 3392" d="M16.785,0a8.39,8.39,0,0,0-6.638,2.588C8.485,4.56,8.131,7.256,8.279,9.747a15.731,15.731,0,0,0,2.758,7.574,45.472,45.472,0,0,0,4.889,6.8c.594.651,1.558-.318.965-.965a38.453,38.453,0,0,1-4.038-5.5c-1.279-2.03-2.622-4.028-3.039-6.436-.391-2.249-.375-4.956.826-6.968,1.265-2.122,3.78-2.94,6.146-2.875a.684.684,0,0,0,0-1.367" transform="translate(3.257 0)" fill="#1a1311"/>
        <path id="패스_3393" data-name="패스 3393" d="M14.053,1.37c2.3-.063,4.773.7,6.057,2.733s1.322,4.812.915,7.11a17.783,17.783,0,0,1-2.932,6.267,39.3,39.3,0,0,1-4.146,5.673c-.593.649.371,1.617.965.967A44.752,44.752,0,0,0,19.7,17.491a16.074,16.074,0,0,0,2.862-7.743A10.153,10.153,0,0,0,20.8,2.723,8.318,8.318,0,0,0,14.053,0a.684.684,0,0,0,0,1.367" transform="translate(5.289 -0.001)" fill="#1a1311"/>
        <path id="패스_3394" data-name="패스 3394" d="M2.782,26.241q1.624,1.421,3.1,3a.609.609,0,0,0,.855,0,.617.617,0,0,0,0-.855q-1.477-1.573-3.1-3a.6.6,0,1,0-.855.855" transform="translate(1.03 9.956)"/>
        <path id="패스_3395" data-name="패스 3395" d="M5.874,25.316q-1.63,1.477-3.166,3.056a.6.6,0,1,0,.855.855Q5.1,27.649,6.729,26.171a.609.609,0,0,0,0-.855.618.618,0,0,0-.855,0" transform="translate(1 9.929)"/>
        <path id="패스_3396" data-name="패스 3396" d="M32.336,16.026c-.048,2.825-.868,4.929-3.841,5.573-3.384.733-7.171-.038-10.582-.242-5.018-.3-13.5-.511-13.682,6.48a.656.656,0,0,0,1.31,0c.112-4.259,4.407-5.131,7.85-5.259,3.648-.136,7.28.358,10.919.515,2.481.107,5.4.141,7.408-1.57,1.595-1.36,1.9-3.516,1.928-5.5a.656.656,0,0,0-1.31,0" transform="translate(0.852 4.747)" fill="#1a1311"/>
      </g>
    </g>
  </g>
</svg>
