<svg xmlns="http://www.w3.org/2000/svg" width="101.652" height="125.383" viewBox="0 0 101.652 125.383">
  <g id="그룹_1805" data-name="그룹 1805" transform="translate(6304.97 736.259)">
    <path id="패스_2469" data-name="패스 2469" d="M2.526,20.768c30.067.244,60.132.582,90.2.826a.967.967,0,0,0,0-1.933c-30.067-.241-60.132-.582-90.2-.826a.967.967,0,0,0,0,1.933" transform="translate(-6302.679 -739.838)" fill="#231815"/>
    <path id="패스_2470" data-name="패스 2470" d="M38.9,20.412q-.738,50.534.483,101.062a.967.967,0,0,0,1.933,0q-1.225-50.523-.483-101.062a.967.967,0,0,0-1.933,0" transform="translate(-6249.461 -738.909)" fill="#231815"/>
    <path id="패스_2471" data-name="패스 2471" d="M2.414,62.795c30.616.863,61.188,1.8,91.816.846,1.238-.037,1.245-1.969,0-1.93-30.628.953-61.2.015-91.816-.848a.967.967,0,0,0,0,1.933" transform="translate(-6302.839 -679.438)" fill="#231815"/>
    <path id="패스_2472" data-name="패스 2472" d="M4.235,60.8a5.919,5.919,0,0,0-3.3.258,1,1,0,0,0-.675,1.189q.508,2.405,1.014,4.809a.976.976,0,0,0,.931.709c20.121.409,40.243.9,60.369,1.019q15.263.088,30.523-.1c2.052-.027,7.755.712,8.213-2.564.314-2.257-3.921-4.331-5.73-3.829a.967.967,0,0,0,.512,1.864c.483-.134,3.424,1.206,3.254,1.76-.317,1.021-3.151.787-3.858.8-2.354.061-4.713.061-7.07.083q-6.12.059-12.239.076-12.112.029-24.218-.119c-16.587-.193-33.17-.585-49.755-.921q.468.355.931.709-.5-2.405-1.014-4.811l-.673,1.189,2.276-.261c1.216.2,1.74-1.662.514-1.862" transform="translate(-6304.639 -679.693)" fill="#231815"/>
    <path id="패스_2473" data-name="패스 2473" d="M94.885,25.066a5.919,5.919,0,0,0,3.3-.258,1,1,0,0,0,.675-1.189q-.508-2.405-1.014-4.809a.976.976,0,0,0-.931-.709c-19.861-.409-39.706-1.265-59.567-1.628-10.4-.19-20.813-.261-31.218-.083C3.5,16.436-.406,16.843.32,20.484c.444,2.225,3.639,4.57,5.869,3.912a.966.966,0,0,0-.514-1.862,3.4,3.4,0,0,1-2.866-1.445c-1.411-3.22,1.911-2.732,3.327-2.766,2.342-.058,4.687-.054,7.026-.068q6.006-.037,12.015,0,11.673.073,23.346.407c16.132.431,32.261,1.038,48.4,1.37q-.468-.355-.931-.709.5,2.405,1.011,4.811c.227-.4.451-.792.675-1.189L95.4,23.2c-1.216-.2-1.74,1.662-.514,1.862" transform="translate(-6304.636 -743.5)" fill="#231815"/>
    <path id="패스_2474" data-name="패스 2474" d="M98.134,21.885c-.212-1.6-.071-3.207-.283-4.809a.992.992,0,0,0-.965-.968c-18.228-.375-36.445-1.119-54.673-1.526q-13.409-.3-26.824-.263-4.043.015-8.089.063c-1.648.022-3.673-.224-5.211.507C-.3,16.024-.169,18.717,1.41,20.464c.836.924,2.2-.446,1.367-1.367Q2.145,16.22,4.15,16.409A14.127,14.127,0,0,1,6.1,16.331c1.184-.029,2.374-.029,3.558-.039q3.144-.033,6.285-.041,5.9-.018,11.8.034,11.092.1,22.186.424c15.652.431,31.3,1.011,46.955,1.333l-.965-.965c.21,1.6.071,3.2.28,4.809.161,1.216,2.094,1.231,1.933,0" transform="translate(-6304.602 -746.337)" fill="#231815"/>
    <path id="패스_2475" data-name="패스 2475" d="M2.294,19.89Q3.354,70.8.983,121.705c-.058,1.243,1.874,1.241,1.93,0Q5.289,70.835,4.227,19.89a.967.967,0,0,0-1.933,0" transform="translate(-6303.558 -739.662)" fill="#231815"/>
    <path id="패스_2476" data-name="패스 2476" d="M1.1,51.4q49.035-.826,98.038,1.879c1.241.068,1.238-1.864,0-1.933Q50.167,48.647,1.1,49.47a.967.967,0,0,0,0,1.933" transform="translate(-6304.731 -696.088)" fill="#231815"/>
    <path id="패스_2477" data-name="패스 2477" d="M3.3,50.62c.373,9.027.836,18.055,1.1,27.084.037,1.241,1.969,1.245,1.933,0-.266-9.03-.726-18.057-1.1-27.084-.051-1.238-1.984-1.245-1.933,0" transform="translate(-6300.231 -695.496)" fill="#231815"/>
    <path id="패스_2478" data-name="패스 2478" d="M0,50.888c.373,9.027.836,18.055,1.1,27.084.037,1.241,1.969,1.245,1.933,0-.266-9.03-.726-18.057-1.1-27.084-.051-1.238-1.984-1.245-1.933,0" transform="translate(-6304.969 -695.111)" fill="#231815"/>
    <path id="패스_2479" data-name="패스 2479" d="M5.975,50.342A202.919,202.919,0,0,1,7.011,78.065c-.037,1.245,1.894,1.241,1.933,0A202.919,202.919,0,0,0,7.907,50.342c-.132-1.223-2.064-1.238-1.933,0" transform="translate(-6296.391 -695.883)" fill="#231815"/>
    <path id="패스_2480" data-name="패스 2480" d="M9.063,50.619q.691,13.852.451,27.728a.967.967,0,0,0,1.933,0q.241-13.87-.451-27.728c-.063-1.238-2-1.245-1.933,0" transform="translate(-6291.946 -695.497)" fill="#231815"/>
    <path id="패스_2481" data-name="패스 2481" d="M12.1,50.437q.428,13.753.853,27.508c.039,1.238,1.972,1.245,1.933,0q-.428-13.757-.853-27.508c-.039-1.241-1.972-1.245-1.933,0" transform="translate(-6287.579 -695.761)" fill="#231815"/>
    <path id="패스_2482" data-name="패스 2482" d="M15.16,50.165q.585,13.972-.024,27.954c-.054,1.243,1.879,1.241,1.933,0q.607-13.972.024-27.954c-.054-1.238-1.984-1.245-1.933,0" transform="translate(-6283.218 -696.15)" fill="#231815"/>
    <path id="패스_2483" data-name="패스 2483" d="M17.588,50.809A120.262,120.262,0,0,1,18.132,78.7c-.119,1.236,1.813,1.228,1.933,0a122.269,122.269,0,0,0-.614-28.408c-.168-1.226-2.03-.7-1.862.514" transform="translate(-6279.707 -695.631)" fill="#231815"/>
    <path id="패스_2484" data-name="패스 2484" d="M21.672,50.439q-.186,14.539-1.2,29.046c-.088,1.241,1.845,1.233,1.933,0q1.013-14.506,1.2-29.046a.967.967,0,0,0-1.933,0" transform="translate(-6275.553 -695.758)" fill="#231815"/>
    <path id="패스_2485" data-name="패스 2485" d="M23.854,50.53q.139,13.863.271,27.725a.967.967,0,0,0,1.933,0Q25.926,64.4,25.787,50.53a.967.967,0,0,0-1.933,0" transform="translate(-6270.687 -695.63)" fill="#231815"/>
    <path id="패스_2486" data-name="패스 2486" d="M27.308,50.8q.029,13.643.061,27.284a.966.966,0,0,0,1.93,0L29.241,50.8a.967.967,0,0,0-1.933,0" transform="translate(-6265.723 -695.237)" fill="#231815"/>
    <path id="패스_2487" data-name="패스 2487" d="M30.128,50.709l1.06,27.959c.046,1.241,1.979,1.245,1.933,0l-1.06-27.959c-.049-1.238-1.979-1.245-1.933,0" transform="translate(-6261.67 -695.368)" fill="#231815"/>
    <path id="패스_2488" data-name="패스 2488" d="M32.905,51.078a190.2,190.2,0,0,1,1.733,26.794.967.967,0,0,0,1.933,0,193.835,193.835,0,0,0-1.8-27.309c-.166-1.226-2.028-.7-1.862.514" transform="translate(-6257.693 -695.244)" fill="#231815"/>
    <path id="패스_2489" data-name="패스 2489" d="M36.633,51.157a206.66,206.66,0,0,1,1.877,26.6.966.966,0,0,0,1.93,0A209.843,209.843,0,0,0,38.5,50.643c-.166-1.226-2.028-.7-1.862.514" transform="translate(-6252.335 -695.13)" fill="#231815"/>
    <path id="패스_2490" data-name="패스 2490" d="M40.257,51.349A95.922,95.922,0,0,1,40.9,64.334c-.012,2.086-.054,4.17-.08,6.256q-.022,1.568-.027,3.134c0,.344.261,3.273.039,3.436-.987.736-.027,2.41.975,1.672,1.5-1.111.914-3.475.919-5.108,0-2.525.058-5.043.088-7.567a104.712,104.712,0,0,0-.629-14.808c-.158-1.216-2.094-1.233-1.933,0" transform="translate(-6247.126 -694.43)" fill="#231815"/>
    <path id="패스_2491" data-name="패스 2491" d="M98.134,20.147c-.212-1.6-.071-3.207-.283-4.809a.992.992,0,0,0-.965-.968C78.659,14,60.441,13.252,42.213,12.845q-13.409-.3-26.824-.263-4.043.015-8.089.063c-1.648.022-3.673-.224-5.211.507C-.3,14.286-.169,16.979,1.41,18.726c.836.924,2.2-.446,1.367-1.367q-.632-2.877,1.372-2.688A14.127,14.127,0,0,1,6.1,14.593c1.184-.029,2.374-.029,3.558-.039q3.144-.033,6.285-.041,5.9-.018,11.8.034,11.092.1,22.186.424c15.652.431,31.3,1.011,46.955,1.333l-.965-.965c.21,1.6.071,3.2.28,4.809.161,1.216,2.094,1.231,1.933,0" transform="translate(-6304.602 -748.834)" fill="#231815"/>
  </g>
</svg>
