<svg id="그룹_991" data-name="그룹 991" xmlns="http://www.w3.org/2000/svg" xmlns:xlink="http://www.w3.org/1999/xlink" width="80.106" height="114.511" viewBox="0 0 80.106 114.511">
  <defs>
    <clipPath id="clip-path">
      <rect id="사각형_1624" data-name="사각형 1624" width="80.106" height="114.511" fill="none"/>
    </clipPath>
  </defs>
  <rect id="사각형_1618" data-name="사각형 1618" width="78.76" height="113.166" transform="translate(0.673 0.672)" fill="#fff"/>
  <path id="패스_1232" data-name="패스 1232" d="M1.346,1.346H78.76V113.165H1.346ZM0,114.511H80.106V0H0Z" transform="translate(0 0)" fill="#040000"/>
  <g id="그룹_875" data-name="그룹 875">
    <g id="그룹_874" data-name="그룹 874" clip-path="url(#clip-path)">
      <path id="패스_1233" data-name="패스 1233" d="M12.811,8.607a2.833,2.833,0,0,1,.94.123,1.193,1.193,0,0,1,.514.335,1.025,1.025,0,0,1,.224.526,5.128,5.128,0,0,1,.045.715V18.45c0,.3-.023.671-.068,1.119s-.112.936-.2,1.465a15.814,15.814,0,0,1-.369,1.634,13.693,13.693,0,0,1-.57,1.633,8.838,8.838,0,0,1-.783,1.465,4.67,4.67,0,0,1-1.029,1.119,1.7,1.7,0,0,1-.637.291,1.628,1.628,0,0,1-.627.011,1.78,1.78,0,0,1-.559-.2,2.015,2.015,0,0,1-.436-.324,1.072,1.072,0,0,1-.314-.5,1.8,1.8,0,0,1-.067-.637,2.588,2.588,0,0,1,.145-.682,2.67,2.67,0,0,1,.325-.637,9.111,9.111,0,0,0,1.442-3.121,15.151,15.151,0,0,0,.37-3.457V11.694H8.024a3.6,3.6,0,0,1-1.03-.123,1.544,1.544,0,0,1-.626-.335,1.065,1.065,0,0,1-.3-.493,2.232,2.232,0,0,1-.079-.615,1.99,1.99,0,0,1,.079-.548,1.063,1.063,0,0,1,.3-.492,1.646,1.646,0,0,1,.626-.347,3.316,3.316,0,0,1,1.03-.135Zm3.87,1.678a1.96,1.96,0,0,1,.481-1.533,1.646,1.646,0,0,1,1.107-.414,1.623,1.623,0,0,1,1.086.414,1.965,1.965,0,0,1,.481,1.533V15.43h1.879V10.285A1.963,1.963,0,0,1,22.2,8.752,1.65,1.65,0,0,1,23.3,8.338a1.618,1.618,0,0,1,1.085.414,1.96,1.96,0,0,1,.481,1.533v15.28a2.917,2.917,0,0,1-.135.962,1.683,1.683,0,0,1-.347.6,1.16,1.16,0,0,1-.5.314,1.981,1.981,0,0,1-.582.089,2.056,2.056,0,0,1-.6-.089,1.16,1.16,0,0,1-.5-.314,1.673,1.673,0,0,1-.346-.6,2.935,2.935,0,0,1-.135-.962V18.517H19.836v7.047a2.935,2.935,0,0,1-.135.962,1.683,1.683,0,0,1-.346.6,1.164,1.164,0,0,1-.5.314,1.989,1.989,0,0,1-.582.089,2.051,2.051,0,0,1-.6-.089,1.156,1.156,0,0,1-.5-.314,1.684,1.684,0,0,1-.347-.6,2.936,2.936,0,0,1-.134-.962Z" transform="translate(-1.957 -2.726)" fill="#040000"/>
      <path id="패스_1234" data-name="패스 1234" d="M50.7,27.8a4.415,4.415,0,0,1-1.79-.369,3.339,3.339,0,0,1-1.186-.9,3.468,3.468,0,0,1-.648-1.253,5.376,5.376,0,0,1-.2-1.487,6.165,6.165,0,0,1,.178-1.5,3.4,3.4,0,0,1,.615-1.275,2.959,2.959,0,0,1,1.186-.884,5.048,5.048,0,0,1,1.891-.347h9.575a4.643,4.643,0,0,1,1.891.336,3.11,3.11,0,0,1,1.186.884,3.287,3.287,0,0,1,.615,1.275,6.3,6.3,0,0,1,.179,1.51,5.376,5.376,0,0,1-.2,1.487,3.37,3.37,0,0,1-.66,1.253,3.464,3.464,0,0,1-1.186.9,4.327,4.327,0,0,1-1.778.369Zm-.29-16.689H53v-.6a1.818,1.818,0,0,1,.549-1.533,2.041,2.041,0,0,1,1.264-.415,2.3,2.3,0,0,1,.66.09,1.3,1.3,0,0,1,.537.313,1.52,1.52,0,0,1,.37.6,2.863,2.863,0,0,1,.134.94V16.84a3.933,3.933,0,0,1-.045.615.945.945,0,0,1-.235.492,1.275,1.275,0,0,1-.548.336,3.135,3.135,0,0,1-.985.123h-6a3.135,3.135,0,0,1-.985-.123,1.271,1.271,0,0,1-.548-.336.939.939,0,0,1-.235-.492,3.856,3.856,0,0,1-.044-.615V10.509a1.933,1.933,0,0,1,.492-1.533,1.814,1.814,0,0,1,1.208-.415,2.543,2.543,0,0,1,.682.09,1.382,1.382,0,0,1,.571.313,1.656,1.656,0,0,1,.4.6,2.474,2.474,0,0,1,.157.94ZM53,13.976H50.407v1.566H53Zm6.354,10.784a2.481,2.481,0,0,0,.939-.2q.291-.158.291-.761c0-.417-.1-.679-.291-.783a2.468,2.468,0,0,0-.939-.2H51.7a2.469,2.469,0,0,0-.94.2c-.194.1-.291.366-.291.783s.1.656.291.761a2.481,2.481,0,0,0,.94.2Zm.38-14.475a1.818,1.818,0,0,1,.548-1.533,2.041,2.041,0,0,1,1.264-.414,2.571,2.571,0,0,1,.682.09,1.386,1.386,0,0,1,.571.314,1.645,1.645,0,0,1,.4.6,2.477,2.477,0,0,1,.157.94V11.94h1.634a3.315,3.315,0,0,1,1.029.135,1.664,1.664,0,0,1,.626.347,1.077,1.077,0,0,1,.3.493,2.04,2.04,0,0,1,.078.548,2.294,2.294,0,0,1-.078.615,1.072,1.072,0,0,1-.3.492,1.552,1.552,0,0,1-.626.336,3.6,3.6,0,0,1-1.029.123H63.36v2.035a2.547,2.547,0,0,1-.157.962,1.639,1.639,0,0,1-.4.6,1.386,1.386,0,0,1-.571.314,2.644,2.644,0,0,1-1.364,0,1.434,1.434,0,0,1-.985-.917,2.724,2.724,0,0,1-.145-.962Z" transform="translate(-15.324 -2.726)" fill="#040000"/>
      <path id="패스_1235" data-name="패스 1235" d="M85.562,12.28a1.125,1.125,0,0,1,.392-.951,2.976,2.976,0,0,1,1.644-.3h7.338a2.981,2.981,0,0,1,1.645.3,1.127,1.127,0,0,1,.392.951.994.994,0,0,1-.392.85,3.077,3.077,0,0,1-1.645.291H87.6a3.073,3.073,0,0,1-1.644-.291.993.993,0,0,1-.392-.85m.9,5.078a3.861,3.861,0,0,1,.291-1.6,2.366,2.366,0,0,1,.872-1.018,4.062,4.062,0,0,1,1.488-.549,13.915,13.915,0,0,1,4.306,0,4.065,4.065,0,0,1,1.5.549,2.367,2.367,0,0,1,.873,1.018,3.861,3.861,0,0,1,.291,1.6A3.985,3.985,0,0,1,95.787,19a2.222,2.222,0,0,1-.873,1,3.92,3.92,0,0,1-1.5.492,15.02,15.02,0,0,1-2.148.135,12.867,12.867,0,0,1-2.159-.157,3.921,3.921,0,0,1-1.488-.537,2.375,2.375,0,0,1-.872-1.006,3.717,3.717,0,0,1-.291-1.566m4.251,10.313a7.062,7.062,0,0,1-1.79-.235,3.064,3.064,0,0,1-1.186-.6,2.249,2.249,0,0,1-.649-.962,3.991,3.991,0,0,1-.2-1.332,4.352,4.352,0,0,1,.179-1.319,2.132,2.132,0,0,1,.615-.951,2.763,2.763,0,0,1,1.186-.582,8.545,8.545,0,0,1,1.891-.213h9.531a7.447,7.447,0,0,1,1.89.2,2.945,2.945,0,0,1,1.186.582,2.049,2.049,0,0,1,.615.951,4.443,4.443,0,0,1,.179,1.331,2.921,2.921,0,0,1-.862,2.294,4.678,4.678,0,0,1-2.964.839ZM86.971,9.147a1.064,1.064,0,0,1,.392-.928,3.179,3.179,0,0,1,1.645-.28h4.518a3.179,3.179,0,0,1,1.645.28,1.064,1.064,0,0,1,.392.928,1.024,1.024,0,0,1-.392.862,2.98,2.98,0,0,1-1.645.3H89.008a2.98,2.98,0,0,1-1.645-.3,1.025,1.025,0,0,1-.392-.862m2.976,8.211a.936.936,0,0,0,.246.693,2.487,2.487,0,0,0,2.159,0,1.139,1.139,0,0,0,0-1.387,2.493,2.493,0,0,0-2.159,0,.939.939,0,0,0-.246.694M99.322,25.1a3.129,3.129,0,0,0,.939-.1.432.432,0,0,0,.291-.459.394.394,0,0,0-.291-.435,3.971,3.971,0,0,0-.939-.079H91.715a3.963,3.963,0,0,0-.939.079.393.393,0,0,0-.291.435.431.431,0,0,0,.291.459,3.123,3.123,0,0,0,.939.1Zm-.09-6.421a4.375,4.375,0,0,1-1.029-.1,1.522,1.522,0,0,1-.627-.291.937.937,0,0,1-.3-.448,2.047,2.047,0,0,1-.078-.592,1.808,1.808,0,0,1,.078-.526.94.94,0,0,1,.3-.448,1.634,1.634,0,0,1,.627-.3,3.953,3.953,0,0,1,1.029-.112h1.118V14.472H99.232a4.375,4.375,0,0,1-1.029-.1,1.522,1.522,0,0,1-.627-.291.937.937,0,0,1-.3-.448,2.047,2.047,0,0,1-.078-.592,1.808,1.808,0,0,1,.078-.526.94.94,0,0,1,.3-.448,1.634,1.634,0,0,1,.627-.3,3.953,3.953,0,0,1,1.029-.112h1.118v-1.5a1.818,1.818,0,0,1,.549-1.533,2.041,2.041,0,0,1,1.264-.414,2.578,2.578,0,0,1,.682.09,1.39,1.39,0,0,1,.57.313,1.647,1.647,0,0,1,.4.6,2.463,2.463,0,0,1,.157.94v8.524a2.528,2.528,0,0,1-.157.962,1.642,1.642,0,0,1-.4.6,1.383,1.383,0,0,1-.57.313,2.646,2.646,0,0,1-1.365,0,1.431,1.431,0,0,1-.984-.917,2.7,2.7,0,0,1-.146-.962Z" transform="translate(-27.973 -2.596)" fill="#040000"/>
      <path id="패스_1236" data-name="패스 1236" d="M6.752,62.847a2.293,2.293,0,0,1,.078-.615,1.072,1.072,0,0,1,.3-.492,1.568,1.568,0,0,1,.627-.336,3.589,3.589,0,0,1,1.029-.123H24.337a3.589,3.589,0,0,1,1.029.123,1.559,1.559,0,0,1,.627.336,1.066,1.066,0,0,1,.3.492,2.293,2.293,0,0,1,.078.615,2.036,2.036,0,0,1-.078.548,1.063,1.063,0,0,1-.3.492,1.654,1.654,0,0,1-.627.347,3.311,3.311,0,0,1-1.029.134H18.386v2.864a2.546,2.546,0,0,1-.157.962,1.664,1.664,0,0,1-.4.6,1.393,1.393,0,0,1-.571.313,2.646,2.646,0,0,1-1.365,0,1.43,1.43,0,0,1-.984-.917,2.722,2.722,0,0,1-.145-.962V64.368H8.788a3.311,3.311,0,0,1-1.029-.134,1.664,1.664,0,0,1-.627-.347,1.068,1.068,0,0,1-.3-.492,2.036,2.036,0,0,1-.078-.548m8.077-11.231a2.145,2.145,0,0,1,.156-.9A1.342,1.342,0,0,1,15.4,50.2a1.36,1.36,0,0,1,.593-.246,4.33,4.33,0,0,1,1.387,0,1.367,1.367,0,0,1,.593.246,1.353,1.353,0,0,1,.414.526,2.155,2.155,0,0,1,.157.9V52.2A2.68,2.68,0,0,0,19,53.73a4.475,4.475,0,0,0,1.208,1.2,8.654,8.654,0,0,0,1.7.9,12.824,12.824,0,0,0,1.936.6,2.177,2.177,0,0,1,1.3.761,1.626,1.626,0,0,1,.246,1.387,1.517,1.517,0,0,1-1.029,1.164,1.964,1.964,0,0,1-.514.112,1.648,1.648,0,0,1-.537-.044,13.541,13.541,0,0,1-3.86-1.432,12.414,12.414,0,0,1-2.83-2.148,13.049,13.049,0,0,1-2.763,2.07,12.727,12.727,0,0,1-3.435,1.354c-.209.045-.435.082-.682.112a2.372,2.372,0,0,1-.728-.022A1.949,1.949,0,0,1,8.3,59.4a1.419,1.419,0,0,1-.493-.761,1.663,1.663,0,0,1,.123-1.409,2.009,2.009,0,0,1,1.22-.85q.962-.291,1.98-.66a9.938,9.938,0,0,0,1.835-.872A5.164,5.164,0,0,0,14.3,53.686a2.361,2.361,0,0,0,.526-1.51Z" transform="translate(-2.207 -16.312)" fill="#040000"/>
      <path id="패스_1237" data-name="패스 1237" d="M46.387,51.938a2.27,2.27,0,0,1,.078-.615,1,1,0,0,1,.3-.481,1.545,1.545,0,0,1,.626-.313,3.931,3.931,0,0,1,1.029-.112h6.645a3.934,3.934,0,0,1,1.029.112,1.553,1.553,0,0,1,.627.313,1.011,1.011,0,0,1,.3.481,2.3,2.3,0,0,1,.078.615,1.924,1.924,0,0,1-.078.537,1.086,1.086,0,0,1-.3.481,1.551,1.551,0,0,1-.627.335,3.6,3.6,0,0,1-1.029.123H53.7a4.081,4.081,0,0,0,.246,1.074,3.177,3.177,0,0,0,.515.851,5.354,5.354,0,0,0,.861.8q.526.4,1.287.94a2.6,2.6,0,0,1,.951,1.107A1.419,1.419,0,0,1,57.35,59.5a1.662,1.662,0,0,1-.593.571,1.731,1.731,0,0,1-.749.212,2.5,2.5,0,0,1-.515-.056,1.318,1.318,0,0,1-.514-.235,19.478,19.478,0,0,1-1.566-1.3,12.655,12.655,0,0,1-1.432-1.543,11.951,11.951,0,0,1-1.354,1.588,7.979,7.979,0,0,1-1.6,1.23,2.971,2.971,0,0,1-1.342.425,1.848,1.848,0,0,1-.783-.135,1.362,1.362,0,0,1-.672-.6,1.418,1.418,0,0,1-.213-1.309,2.594,2.594,0,0,1,.951-1.107q.738-.537,1.264-.951a5.526,5.526,0,0,0,.872-.839,3.388,3.388,0,0,0,.537-.907,4.29,4.29,0,0,0,.257-1.129H48.423a3.592,3.592,0,0,1-1.029-.123,1.544,1.544,0,0,1-.626-.335,1.07,1.07,0,0,1-.3-.481,1.9,1.9,0,0,1-.078-.537m4.228,17.585a4.415,4.415,0,0,1-1.79-.369,3.328,3.328,0,0,1-1.186-.9,3.457,3.457,0,0,1-.648-1.253,5.351,5.351,0,0,1-.2-1.487,6.165,6.165,0,0,1,.179-1.5,3.381,3.381,0,0,1,.615-1.275,2.95,2.95,0,0,1,1.186-.884,5.045,5.045,0,0,1,1.891-.347h9.575a4.645,4.645,0,0,1,1.891.336,3.115,3.115,0,0,1,1.186.884,3.3,3.3,0,0,1,.615,1.275,6.338,6.338,0,0,1,.178,1.51,5.376,5.376,0,0,1-.2,1.487,3.389,3.389,0,0,1-.66,1.253,3.47,3.47,0,0,1-1.186.9,4.332,4.332,0,0,1-1.778.369Zm8.658-3.042a2.485,2.485,0,0,0,.94-.2c.193-.105.291-.358.291-.761s-.1-.679-.291-.783a2.472,2.472,0,0,0-.94-.2H51.622a2.461,2.461,0,0,0-.939.2c-.194.1-.291.366-.291.783s.1.656.291.761a2.474,2.474,0,0,0,.939.2Zm.38-14.475a1.82,1.82,0,0,1,.547-1.533,2.041,2.041,0,0,1,1.265-.414,2.574,2.574,0,0,1,.682.09,1.391,1.391,0,0,1,.571.314,1.652,1.652,0,0,1,.4.6,2.463,2.463,0,0,1,.158.94v1.655h1.588a3.075,3.075,0,0,1,1.029.146,1.686,1.686,0,0,1,.627.369,1.142,1.142,0,0,1,.3.5,2.025,2.025,0,0,1,.079.549,2.387,2.387,0,0,1-.079.626,1.063,1.063,0,0,1-.3.5,1.658,1.658,0,0,1-.627.347,3.312,3.312,0,0,1-1.029.135H63.279v1.946a2.533,2.533,0,0,1-.158.962,1.646,1.646,0,0,1-.4.6,1.391,1.391,0,0,1-.571.314,2.646,2.646,0,0,1-1.365,0,1.431,1.431,0,0,1-.984-.917,2.708,2.708,0,0,1-.145-.962Z" transform="translate(-15.018 -16.366)" fill="#040000"/>
      <path id="패스_1238" data-name="패스 1238" d="M85.862,67.7a2.29,2.29,0,0,1,.078-.615,1.074,1.074,0,0,1,.3-.493,1.555,1.555,0,0,1,.627-.335,3.586,3.586,0,0,1,1.029-.123h3.781V60.993a1.819,1.819,0,0,1,.549-1.533,2.044,2.044,0,0,1,1.264-.414,2.569,2.569,0,0,1,.682.09,1.39,1.39,0,0,1,.571.314,1.662,1.662,0,0,1,.4.6,2.493,2.493,0,0,1,.156.94v5.146h8.143a3.589,3.589,0,0,1,1.029.123,1.555,1.555,0,0,1,.627.335,1.074,1.074,0,0,1,.3.493,2.29,2.29,0,0,1,.078.615,2.04,2.04,0,0,1-.078.548,1.072,1.072,0,0,1-.3.492,1.659,1.659,0,0,1-.627.347,3.311,3.311,0,0,1-1.029.134H87.9a3.308,3.308,0,0,1-1.029-.134,1.659,1.659,0,0,1-.627-.347,1.072,1.072,0,0,1-.3-.492,2.039,2.039,0,0,1-.078-.548m16.175-16.914a2.848,2.848,0,0,1,.94.123,1.184,1.184,0,0,1,.514.336,1.018,1.018,0,0,1,.224.525,5.147,5.147,0,0,1,.045.716v2.461q0,1.073-.034,2.069a17.371,17.371,0,0,1-.157,1.857,9.87,9.87,0,0,1-.358,1.6,4.237,4.237,0,0,1-.66,1.3,1.417,1.417,0,0,1-.515.459,1.977,1.977,0,0,1-.6.19,1.906,1.906,0,0,1-.616-.011,2.351,2.351,0,0,1-.548-.168,1.679,1.679,0,0,1-.794-.7,1.362,1.362,0,0,1-.033-1.13q.222-.76.357-1.409a9.684,9.684,0,0,0,.179-1.253q.044-.6.056-1.23t.011-1.364V53.878H89.4a3.6,3.6,0,0,1-1.03-.123,1.544,1.544,0,0,1-.626-.335,1.061,1.061,0,0,1-.3-.493,2.237,2.237,0,0,1-.079-.615,1.993,1.993,0,0,1,.079-.548,1.063,1.063,0,0,1,.3-.492,1.655,1.655,0,0,1,.626-.347,3.3,3.3,0,0,1,1.03-.135Z" transform="translate(-28.071 -16.605)" fill="#040000"/>
      <path id="패스_1239" data-name="패스 1239" d="M8.177,95A1.962,1.962,0,0,1,6.7,94.577,1.548,1.548,0,0,1,6.32,93.5a1.682,1.682,0,0,1,.09-.536,1.129,1.129,0,0,1,.3-.47,1.547,1.547,0,0,1,.571-.324,2.78,2.78,0,0,1,.9-.123h6.2a2.832,2.832,0,0,1,.94.123,1.2,1.2,0,0,1,.515.335,1.03,1.03,0,0,1,.223.526,5.136,5.136,0,0,1,.044.715V95.9a5.795,5.795,0,0,1-2.17,4.5,2.174,2.174,0,0,1-1.164.515,1.66,1.66,0,0,1-1.275-.381,1.735,1.735,0,0,1-.7-1.118,1.592,1.592,0,0,1,.458-1.3l.425-.47a2.938,2.938,0,0,0,.357-.493,2.658,2.658,0,0,0,.258-.615,3.226,3.226,0,0,0,.1-.884V95Zm3.266,12.618v.917H23.367a2.023,2.023,0,0,1,1.454.38,1.486,1.486,0,0,1,0,1.936,2.167,2.167,0,0,1-1.454.347H9.631a3.417,3.417,0,0,1-.984-.112,1.309,1.309,0,0,1-.549-.3.832.832,0,0,1-.235-.458,3.725,3.725,0,0,1-.045-.6v-3.356a1.891,1.891,0,0,1,.056-.448.864.864,0,0,1,.236-.4,1.2,1.2,0,0,1,.515-.279,3.2,3.2,0,0,1,.895-.1H21.041v-.917H9.452a3.583,3.583,0,0,1-.895-.09,1.184,1.184,0,0,1-.515-.257.8.8,0,0,1-.235-.4,2.255,2.255,0,0,1-.056-.526,2.1,2.1,0,0,1,.056-.469.863.863,0,0,1,.235-.425,1.4,1.4,0,0,1,.515-.3,2.677,2.677,0,0,1,.895-.123H22.964a2.6,2.6,0,0,1,.873.123,1.54,1.54,0,0,1,.526.3.83.83,0,0,1,.246.414,2.026,2.026,0,0,1,.056.458v3.491a1.7,1.7,0,0,1-.067.492.77.77,0,0,1-.257.38,1.388,1.388,0,0,1-.514.246,3.372,3.372,0,0,1-.862.09Zm9.6-13.893a1.818,1.818,0,0,1,.548-1.533,2.041,2.041,0,0,1,1.264-.414,2.57,2.57,0,0,1,.682.09,1.387,1.387,0,0,1,.571.314,1.645,1.645,0,0,1,.4.6,2.477,2.477,0,0,1,.157.94v5.257a2.541,2.541,0,0,1-.157.962,1.636,1.636,0,0,1-.4.6,1.387,1.387,0,0,1-.571.314,2.663,2.663,0,0,1-1.364,0,1.433,1.433,0,0,1-.985-.918,2.717,2.717,0,0,1-.145-.962Z" transform="translate(-2.066 -30.006)" fill="#040000"/>
      <path id="패스_1240" data-name="패스 1240" d="M51.1,107.329h3.691a3.311,3.311,0,0,1,1.029.135,1.65,1.65,0,0,1,.626.347,1.066,1.066,0,0,1,.3.492,2.019,2.019,0,0,1,.079.549,2.27,2.27,0,0,1-.079.615,1.07,1.07,0,0,1-.3.492,1.556,1.556,0,0,1-.626.336,3.619,3.619,0,0,1-1.029.122h-5.5a3.15,3.15,0,0,1-.984-.122,1.28,1.28,0,0,1-.549-.336.943.943,0,0,1-.234-.492,3.859,3.859,0,0,1-.045-.615v-7.5a4.293,4.293,0,0,1,.045-.637,1.154,1.154,0,0,1,.234-.548,1.289,1.289,0,0,1,.549-.392,2.683,2.683,0,0,1,.984-.145h3.244v-4.5h-3A3.339,3.339,0,0,1,48.5,95a1.656,1.656,0,0,1-.626-.347,1.059,1.059,0,0,1-.3-.492,1.989,1.989,0,0,1-.079-.548A2.237,2.237,0,0,1,47.572,93a1.065,1.065,0,0,1,.3-.493,1.56,1.56,0,0,1,.626-.335,3.6,3.6,0,0,1,1.03-.123h4.81a2.692,2.692,0,0,1,.985.145,1.3,1.3,0,0,1,.549.392,1.175,1.175,0,0,1,.234.548,4.378,4.378,0,0,1,.045.637v7.182a1.587,1.587,0,0,1-.549,1.354,2.45,2.45,0,0,1-1.51.414h-3Zm8.971-13.6a1.818,1.818,0,0,1,.548-1.533,2.041,2.041,0,0,1,1.264-.414,2.579,2.579,0,0,1,.683.09,1.391,1.391,0,0,1,.571.314,1.652,1.652,0,0,1,.4.6,2.464,2.464,0,0,1,.157.94v5.548H65.1a3.309,3.309,0,0,1,1.029.135,1.659,1.659,0,0,1,.626.347,1.074,1.074,0,0,1,.3.492,2.043,2.043,0,0,1,.078.548,2.286,2.286,0,0,1-.078.615,1.07,1.07,0,0,1-.3.493,1.539,1.539,0,0,1-.626.335,3.565,3.565,0,0,1-1.029.123H63.691v6.645a2.539,2.539,0,0,1-.157.962,1.658,1.658,0,0,1-.4.6,1.4,1.4,0,0,1-.571.314,2.666,2.666,0,0,1-1.365,0,1.431,1.431,0,0,1-.984-.917,2.712,2.712,0,0,1-.146-.962Z" transform="translate(-15.52 -30.006)" fill="#040000"/>
      <path id="패스_1241" data-name="패스 1241" d="M46.719,135.336a2.138,2.138,0,0,1,.078-.6.93.93,0,0,1,.3-.459,1.64,1.64,0,0,1,.626-.3,3.93,3.93,0,0,1,1.029-.112H55.4a3.933,3.933,0,0,1,1.029.112,1.649,1.649,0,0,1,.627.3.942.942,0,0,1,.3.459,2.163,2.163,0,0,1,.078.6,1.808,1.808,0,0,1-.078.526,1.016,1.016,0,0,1-.3.458,1.639,1.639,0,0,1-.627.324,3.6,3.6,0,0,1-1.029.123H54.035a4.253,4.253,0,0,0,.246,1.085,3.121,3.121,0,0,0,.515.862,5.326,5.326,0,0,0,.861.8q.526.4,1.287.94a2.6,2.6,0,0,1,.951,1.108,1.418,1.418,0,0,1-.213,1.308,1.656,1.656,0,0,1-.593.571,1.741,1.741,0,0,1-.749.213,2.542,2.542,0,0,1-.515-.056,1.327,1.327,0,0,1-.514-.235,18.463,18.463,0,0,1-1.566-1.309,14.366,14.366,0,0,1-1.432-1.533,11.908,11.908,0,0,1-1.354,1.588,7.954,7.954,0,0,1-1.6,1.23,2.912,2.912,0,0,1-.637.291,2.862,2.862,0,0,1-.7.134,1.847,1.847,0,0,1-.783-.134,1.366,1.366,0,0,1-.672-.6,1.416,1.416,0,0,1-.213-1.308,2.6,2.6,0,0,1,.951-1.108q.738-.537,1.264-.962a5.947,5.947,0,0,0,.872-.85,3.405,3.405,0,0,0,.537-.906,4.3,4.3,0,0,0,.257-1.13H48.755a3.592,3.592,0,0,1-1.029-.123,1.631,1.631,0,0,1-.626-.324,1,1,0,0,1-.3-.458,1.786,1.786,0,0,1-.078-.526m2.192,17.629a3.13,3.13,0,0,1-.984-.123,1.269,1.269,0,0,1-.548-.335.951.951,0,0,1-.236-.492,3.943,3.943,0,0,1-.044-.615v-5.123a1.935,1.935,0,0,1,.492-1.533,1.813,1.813,0,0,1,1.208-.414,2.08,2.08,0,0,1,1.208.37,1.7,1.7,0,0,1,.6,1.376H60.12a2.189,2.189,0,0,1,.179-.828,1.439,1.439,0,0,1,.414-.537,1.644,1.644,0,0,1,.571-.291,2.359,2.359,0,0,1,.649-.09,2.328,2.328,0,0,1,.66.09,1.31,1.31,0,0,1,.537.313,1.518,1.518,0,0,1,.369.6,2.829,2.829,0,0,1,.135.94V151.4a3.942,3.942,0,0,1-.044.615.956.956,0,0,1-.236.492,1.28,1.28,0,0,1-.549.335,3.125,3.125,0,0,1-.983.123Zm11.209-4.027H50.612V150.1H60.12Zm-.134-13.49a1.82,1.82,0,0,1,.547-1.533A2.041,2.041,0,0,1,61.8,133.5a2.574,2.574,0,0,1,.682.09,1.391,1.391,0,0,1,.571.314,1.652,1.652,0,0,1,.4.6,2.463,2.463,0,0,1,.157.94v1.5h1.633a3.077,3.077,0,0,1,1.029.145,1.683,1.683,0,0,1,.627.37,1.144,1.144,0,0,1,.3.5,2.048,2.048,0,0,1,.078.549,2.412,2.412,0,0,1-.078.626,1.07,1.07,0,0,1-.3.5,1.665,1.665,0,0,1-.627.347,3.334,3.334,0,0,1-1.029.134H63.611v1.722a2.533,2.533,0,0,1-.157.962,1.646,1.646,0,0,1-.4.6,1.382,1.382,0,0,1-.571.313,2.627,2.627,0,0,1-1.365,0,1.428,1.428,0,0,1-.984-.917,2.708,2.708,0,0,1-.145-.962Z" transform="translate(-15.127 -43.646)" fill="#040000"/>
      <path id="패스_1242" data-name="패스 1242" d="M91.878,133.568a6.553,6.553,0,0,1,2.115.3,3.645,3.645,0,0,1,1.454.884,3.852,3.852,0,0,1,.873,1.442,7.28,7.28,0,0,1,.369,1.958q0,.2.011.951t.011,1.778q0,1.03.011,2.192t0,2.193q-.011,1.029-.023,1.778t-.011.929a4.73,4.73,0,0,1-1.164,3.378,5.01,5.01,0,0,1-3.647,1.119,7.05,7.05,0,0,1-2.181-.291,3.513,3.513,0,0,1-1.443-.862,3.607,3.607,0,0,1-.839-1.409,7.584,7.584,0,0,1-.347-1.935c-.015-.134-.022-.451-.022-.951s0-1.092-.011-1.778-.011-1.417-.011-2.193,0-1.506.011-2.192.011-1.275.011-1.767.007-.806.022-.94a8.17,8.17,0,0,1,.336-1.969,3.4,3.4,0,0,1,2.271-2.315,6.872,6.872,0,0,1,2.2-.3m1.186,4.5a2.169,2.169,0,0,0-.112-.761,1.021,1.021,0,0,0-.291-.436.921.921,0,0,0-.392-.19,1.926,1.926,0,0,0-.392-.044,1.427,1.427,0,0,0-.38.056.881.881,0,0,0-.37.213,1.272,1.272,0,0,0-.291.458,2.362,2.362,0,0,0-.145.772q0,.2-.011.962t-.022,1.79q-.011,1.03-.011,2.192t.011,2.193q.01,1.029.011,1.778t.023.929a2.2,2.2,0,0,0,.112.794,1.184,1.184,0,0,0,.279.436.714.714,0,0,0,.38.19,2.661,2.661,0,0,0,.413.033,2.338,2.338,0,0,0,.381-.033.715.715,0,0,0,.37-.19,1.309,1.309,0,0,0,.29-.436,2.3,2.3,0,0,0,.145-.794q0-.2.011-.962t.011-1.8v-4.407q0-1.041-.011-1.79c-.007-.5-.011-.817-.011-.951m7.964-2.618a1.818,1.818,0,0,1,.548-1.533,2.041,2.041,0,0,1,1.264-.414,2.579,2.579,0,0,1,.683.09,1.384,1.384,0,0,1,.57.314,1.645,1.645,0,0,1,.4.6,2.464,2.464,0,0,1,.157.94v15.28a2.539,2.539,0,0,1-.157.962,1.651,1.651,0,0,1-.4.6,1.392,1.392,0,0,1-.57.314,2.666,2.666,0,0,1-1.365,0,1.431,1.431,0,0,1-.984-.917,2.712,2.712,0,0,1-.146-.962Z" transform="translate(-28.451 -43.646)" fill="#040000"/>
      <rect id="사각형_1619" data-name="사각형 1619" width="1.346" height="113.165" transform="translate(26.926 0.673)" fill="#040000"/>
      <rect id="사각형_1620" data-name="사각형 1620" width="1.346" height="113.165" transform="translate(53.853 0.673)" fill="#040000"/>
      <rect id="사각형_1621" data-name="사각형 1621" width="78.684" height="1.346" transform="translate(0.748 29.501)" fill="#040000"/>
      <rect id="사각형_1622" data-name="사각형 1622" width="78.684" height="1.346" transform="translate(0.748 56.583)" fill="#040000"/>
      <rect id="사각형_1623" data-name="사각형 1623" width="78.684" height="1.346" transform="translate(0.748 83.664)" fill="#040000"/>
      <path id="패스_1243" data-name="패스 1243" d="M25.89,152.9c.808.029,2.027.281,2.045,1.116h-.047c-.86,1.16-2.51,1.278-3.95,1.673a2.5,2.5,0,0,1-1.347,1.347.9.9,0,0,1,.047.6c-1.26,1.137-4.905.96-6.134.233a1.232,1.232,0,0,1-.511-.976c-.077-.148-.419-.269-.557-.372-.285-.215-.391-.768-.7-.93-.991-.4-3.606-.75-3.811-2a3.3,3.3,0,0,1,2.23-.93,12.938,12.938,0,0,1-1.441-2.695c-.181-.437-.221-1.114-.557-1.394-.585-.434-1.417-.133-1.394-1.208.454-1.019,1.688-.99,2.509-1.487.753-.712,1.648-1.131,2.416-1.813a19.251,19.251,0,0,1,3.95-1.022V143c-.24-.214-.266-.4-.233-.79A4.767,4.767,0,0,0,19.477,141c.472.243,1.5.958,1.3,1.58a2.2,2.2,0,0,0-.325.511,17.764,17.764,0,0,0,2.323.511,13.615,13.615,0,0,1,4.136,2.51c.839.291,1.771.237,2.23,1.115.016.186.031.372.047.558a1.967,1.967,0,0,1-1.162.7,14.986,14.986,0,0,1-2.185,4.228.662.662,0,0,1,.047.186" transform="translate(-5.249 -47.946)" fill="#231815" fill-rule="evenodd"/>
      <path id="패스_1244" data-name="패스 1244" d="M97.179,89.85a2.136,2.136,0,0,1,.554.092c.662.153,1.536-.208,1.57.554a.819.819,0,0,0-.184.554c4.255.488,5.354,4.54,4.247,8.264-1.23,3.458-2.515,6.9-2.216,10.618-.981,1.188-7.261,1.647-7.2-.646.724-3.888-2.008-7.259-2.77-11.079-.817-3.746.778-6.626,4.57-7.156a.665.665,0,0,0,.046-.184,1.321,1.321,0,0,1-.184-.693c.472-.363,1.144-.151,1.57-.323" transform="translate(-29.741 -29.375)" fill="#231815" fill-rule="evenodd"/>
    </g>
  </g>
</svg>
