<svg xmlns="http://www.w3.org/2000/svg" width="54.324" height="25.017" viewBox="0 0 54.324 25.017">
  <g id="그룹_1814" data-name="그룹 1814" transform="translate(6386.742 -167.493)">
    <path id="패스_2585" data-name="패스 2585" d="M8.874,79.374s-2.291-8.5,6.571-8.667S54.432,68.2,59.192,75.041s2.5,18.532-3.312,18.518S20.212,93.4,15.454,92.549s-8.13.619-6.58-13.175" transform="translate(-6394.23 97.962)" fill="#b67cb2"/>
    <path id="패스_2586" data-name="패스 2586" d="M58.337,87.555c.141-2.669.31-5.342.275-8.016-.024-1.891.344-5.571-1.019-7.143-.885-1.021-2.561-1.024-3.8-1.2-1.92-.275-3.851-.478-5.781-.636a269.7,269.7,0,0,0-27.038-.543q-2.833.051-5.664.134c-1.277.037-3.375-.312-4.421.619C9.649,71.872,9.413,74.7,9.1,76.2a43.754,43.754,0,0,0-.941,8.162c-.029,1.414-.4,3.729.851,4.779,1.089.911,3.261.573,4.575.617,4.389.144,8.784.18,13.175.18,10.175,0,20.353-.2,30.523-.514,1.241-.039,1.245-1.972,0-1.933-14.952.466-29.965.86-44.917.29-.963-.037-1.747.21-2.245-.765-.366-.714-.044-2.274-.017-3.1a41.307,41.307,0,0,1,1.05-8.069c.171-.726.383-2.9.948-3.412.468-.422,1.2-.292,1.782-.312q2.559-.08,5.121-.136c7.6-.171,15.223-.207,22.824.124a116.63,116.63,0,0,1,11.73.987c1.494.219,2.279.334,2.859,2a14.973,14.973,0,0,1,.258,4.007c.058,2.82-.119,5.64-.268,8.455-.063,1.243,1.867,1.238,1.933,0" transform="translate(-6394.822 97.576)" fill="#231815"/>
    <path id="패스_2587" data-name="패스 2587" d="M8.164,84.913c-.336,1.718.59,3.787,1.4,5.264,1.065,1.945,2.761,2.237,4.874,2.415,5.623.475,11.279.624,16.916.785q9.52.267,19.042.324c2.532.017,5.074.073,7.6.007,2.6-.066,3.288-1.723,3.88-4.126.9-3.666.3-7.638.383-11.372.071-3.249-2.191-5.576-4.816-7.3-1.041-.685-2.011.987-.975,1.669,1.652,1.085,3.7,2.886,3.892,4.957.168,1.791-.09,3.746-.024,5.559a23.205,23.205,0,0,1-.236,5.562c-.444,2.128-.782,3.117-2.908,3.124-5.547.022-11.094-.034-16.639-.129-5.978-.1-11.959-.253-17.933-.517-2.466-.107-4.935-.234-7.4-.414-1.757-.129-3.254-.088-4.112-1.752-.419-.816-1.282-2.554-1.089-3.541.239-1.216-1.623-1.735-1.862-.514" transform="translate(-6394.804 98.77)" fill="#231815"/>
    <path id="패스_2588" data-name="패스 2588" d="M27.871,78.093a6.454,6.454,0,0,0,.953,2.861c.241.453.492.9.729,1.353.122.236.241.473.351.714.029.068.058.134.088.2-.037-.088-.027-.066,0,.01q.077.2.146.4A.966.966,0,1,0,32,83.121a18.864,18.864,0,0,0-1.387-2.912c-.115-.212-.227-.424-.334-.639-.056-.11-.107-.219-.158-.329l-.066-.146c.034.073.046.117.007.017a5.023,5.023,0,0,1-.207-.621c-.007-.032-.078-.249-.056-.268-.015.015.015.239.007.029,0-.051,0-.1,0-.158a.966.966,0,0,0-1.933,0" transform="translate(-6366.38 107.937)" fill="#231815"/>
    <path id="패스_3762" data-name="패스 3762" d="M12.472,72.427l-.974-.015c.078-.312.17-.618.241-.93a1.016,1.016,0,1,0-1.96-.54c-.112.482-.246.957-.375,1.434q-1.194-.018-2.393-.039c.093-.26.185-.519.275-.777a1.016,1.016,0,1,0-1.96-.54L4.874,72.3l-1.692-.029a1.017,1.017,0,0,0,0,2.033l.979.017q-.27.774-.545,1.544c-.531-.019-1.064-.046-1.6-.046a1.017,1.017,0,0,0,0,2.033c.3,0,.592.019.889.027l-.548,1.548a1.016,1.016,0,1,0,1.96.54c.236-.67.475-1.341.711-2.011q1.3.073,2.605.161c-.163.5-.326,1.008-.482,1.517-.387,1.254,1.575,1.789,1.96.54q.3-.971.618-1.938c.745.037,1.49.063,2.24.066a1.017,1.017,0,0,0,0-2.033c-.531,0-1.059-.027-1.587-.046.19-.594.372-1.19.553-1.787l1.536.024a1.017,1.017,0,0,0,0-2.033m-4.192,3.7c-.85-.054-1.7-.1-2.549-.156q.285-.807.57-1.609l2.522.041c-.18.575-.358,1.152-.543,1.724" transform="translate(-6371.667 101.385)" fill="#fff"/>
    <path id="패스_3763" data-name="패스 3763" d="M16.976,75.2,14.142,75.2c.312-1.2.626-2.391.857-3.6a1.031,1.031,0,0,0-1.492-1.149,11.426,11.426,0,0,0-1.39.942c-.747.54-1.485,1.091-2.22,1.646q-1.512,1.136-3.009,2.286a1.065,1.065,0,0,0-.467,1.149,1.038,1.038,0,0,0,.981.745l4.085.01c-.3,1.035-.6,2.069-.915,3.1-.382,1.254,1.58,1.789,1.96.54q.551-1.811,1.074-3.635l2.169,0,1.2,0a1.017,1.017,0,0,0,0-2.033m-6.581-.017c.178-.131.351-.268.528-.4.492-.372.991-.738,1.492-1.105-.127.5-.226,1.01-.358,1.509-.555,0-1.108,0-1.663,0" transform="translate(-6363.998 101.557)" fill="#fff"/>
  </g>
</svg>
