<svg xmlns="http://www.w3.org/2000/svg" width="54.322" height="25.017" viewBox="0 0 54.322 25.017">
  <g id="그룹_1816" data-name="그룹 1816" transform="translate(6157.665 -167.493)">
    <path id="패스_2603" data-name="패스 2603" d="M102.867,79.374s-2.291-8.5,6.571-8.667,38.987-2.505,43.747,4.333,2.5,18.532-3.312,18.518S114.2,93.4,109.447,92.549s-8.13.619-6.58-13.175" transform="translate(-6259.146 97.962)" fill="#ff7266"/>
    <path id="패스_2604" data-name="패스 2604" d="M152.33,87.555c.141-2.669.31-5.342.275-8.016-.024-1.891.344-5.571-1.019-7.143-.885-1.021-2.562-1.024-3.8-1.2-1.921-.275-3.851-.478-5.781-.636a269.7,269.7,0,0,0-27.038-.543q-2.833.051-5.664.134c-1.277.037-3.375-.312-4.421.619-1.236,1.1-1.472,3.936-1.789,5.43a43.755,43.755,0,0,0-.941,8.162c-.029,1.414-.4,3.729.851,4.779,1.089.911,3.261.573,4.575.617,4.389.144,8.784.18,13.175.18,10.175,0,20.353-.2,30.523-.514,1.241-.039,1.245-1.972,0-1.933-14.952.466-29.965.86-44.917.29-.963-.037-1.747.21-2.245-.765-.366-.714-.044-2.274-.017-3.1a41.308,41.308,0,0,1,1.05-8.069c.171-.726.383-2.9.948-3.412.468-.422,1.2-.292,1.782-.312q2.559-.08,5.121-.136c7.6-.171,15.223-.207,22.824.124a116.63,116.63,0,0,1,11.73.987c1.494.219,2.279.334,2.859,2a14.972,14.972,0,0,1,.258,4.007c.058,2.82-.119,5.64-.268,8.455-.063,1.243,1.867,1.238,1.933,0" transform="translate(-6259.738 97.576)" fill="#231815"/>
    <path id="패스_2605" data-name="패스 2605" d="M102.156,84.913c-.336,1.718.59,3.787,1.4,5.264,1.065,1.945,2.761,2.237,4.874,2.415,5.623.475,11.279.624,16.916.785q9.52.267,19.042.324c2.532.017,5.074.073,7.6.007,2.6-.066,3.288-1.723,3.88-4.126.9-3.666.3-7.638.383-11.372.071-3.249-2.191-5.576-4.816-7.3-1.041-.685-2.011.987-.975,1.669,1.652,1.085,3.7,2.886,3.892,4.957.168,1.791-.09,3.746-.024,5.559a23.208,23.208,0,0,1-.236,5.562c-.444,2.128-.782,3.117-2.908,3.124-5.547.022-11.094-.034-16.639-.129-5.978-.1-11.959-.253-17.933-.517-2.466-.107-4.935-.234-7.4-.414-1.757-.129-3.254-.088-4.112-1.752-.419-.816-1.282-2.554-1.089-3.541.239-1.216-1.623-1.735-1.862-.514" transform="translate(-6259.721 98.77)" fill="#231815"/>
    <path id="패스_2606" data-name="패스 2606" d="M121.864,78.093a6.424,6.424,0,0,0,.953,2.861c.241.453.492.9.729,1.353.122.236.241.473.351.714.029.068.059.134.088.2-.037-.088-.027-.066,0,.01q.077.2.146.4A.966.966,0,1,0,126,83.121a18.866,18.866,0,0,0-1.387-2.912c-.115-.212-.229-.424-.334-.639-.056-.11-.107-.219-.158-.329l-.066-.146c.034.073.046.117.007.017a4.649,4.649,0,0,1-.207-.621c-.01-.032-.08-.249-.056-.268-.015.015.012.239.007.029,0-.051,0-.1,0-.158a.966.966,0,0,0-1.933,0" transform="translate(-6231.295 107.937)" fill="#231815"/>
    <path id="패스_3766" data-name="패스 3766" d="M105.827,72.46c-.324,0-.65-.01-.974-.017.078-.309.17-.616.241-.928a1.017,1.017,0,1,0-1.96-.54c-.11.482-.246.957-.375,1.434q-1.194-.022-2.393-.039l.275-.779a1.026,1.026,0,0,0-.708-1.249,1.037,1.037,0,0,0-1.251.711l-.453,1.281L96.537,72.3a1.017,1.017,0,0,0,0,2.033l.979.017c-.18.514-.363,1.03-.545,1.544-.531-.019-1.064-.046-1.6-.046a1.017,1.017,0,0,0,0,2.033c.3,0,.592.019.889.027l-.548,1.548a1.016,1.016,0,1,0,1.96.54c.236-.67.475-1.341.711-2.011q1.3.073,2.607.161c-.166.5-.329,1.008-.484,1.517-.387,1.254,1.575,1.789,1.96.54.2-.648.409-1.293.618-1.938.745.037,1.49.063,2.24.066a1.017,1.017,0,0,0,0-2.033c-.531,0-1.059-.027-1.587-.046.19-.594.372-1.19.553-1.787l1.536.024a1.017,1.017,0,0,0,0-2.033m-4.192,3.7c-.85-.054-1.7-.1-2.549-.156q.285-.807.57-1.609l2.522.041c-.178.575-.358,1.152-.543,1.724" transform="translate(-6237.742 101.432)" fill="#fff"/>
    <path id="패스_3767" data-name="패스 3767" d="M107.073,72.562c.862.752,2.13-.5,1.261-1.261a3.943,3.943,0,0,0-3.345-.959,5.14,5.14,0,0,0-2.895,1.548,7.633,7.633,0,0,0-1.86,6.352,3.065,3.065,0,0,0,.618,1.6,4.152,4.152,0,0,0,1.368,1.027,5.461,5.461,0,0,0,3.374.48,3.4,3.4,0,0,0,2.719-2.152,3.7,3.7,0,0,0-.463-3.124,4.993,4.993,0,0,0-3.138-2.089,5.1,5.1,0,0,0-2.03.127,5,5,0,0,1,.292-.509c.913-1.251,2.778-2.184,4.1-1.037m-4.122,3.318a3.825,3.825,0,0,1,1.239-.173,2.967,2.967,0,0,1,1.862.969,1.988,1.988,0,0,1,.6,1.8c-.1.667-.725.945-1.317,1.1a3.545,3.545,0,0,1-2.23-.256,3.371,3.371,0,0,1-.764-.5,1.377,1.377,0,0,1-.368-.913,6.441,6.441,0,0,1,.015-1.634,3.107,3.107,0,0,1,.964-.392" transform="translate(-6229.48 101.513)" fill="#fff"/>
  </g>
</svg>
