<svg id="그룹_1695" data-name="그룹 1695" xmlns="http://www.w3.org/2000/svg" xmlns:xlink="http://www.w3.org/1999/xlink" width="182.313" height="128.449" viewBox="0 0 182.313 128.449">
  <defs>
    <clipPath id="clip-path">
      <rect id="사각형_2438" data-name="사각형 2438" width="182.313" height="128.449" fill="none"/>
    </clipPath>
  </defs>
  <g id="그룹_1692" data-name="그룹 1692" transform="translate(0 0)">
    <g id="그룹_1690" data-name="그룹 1690" transform="translate(0)" clip-path="url(#clip-path)">
      <path id="패스_6144" data-name="패스 6144" d="M143.445,73.894a.831.831,0,0,0-.108,1.054A32.933,32.933,0,0,0,163.769,88.31c8.2,1.77,13.365,1,16.328-.026a.821.821,0,0,1,.854,1.35c-3.165,3.32-9.538,8.051-20.073,7.926-10.957-.13-16.4-2.645-18.766-4.256a1.058,1.058,0,0,0-1.642.795c-.534,6.187-4.883,25.188-23.816,31.4-24.847,7.015-40.488-8.056-44.909-14.28a.787.787,0,0,0-1.156-.145c-4.113,3.467-23.728,20.662-43.925,8.74C9.852,109.892,15.492,86.163,22.735,78.5a1.062,1.062,0,0,0-.641-1.785C14.771,75.768-2.6,66.894,2.385,49,8.021,28.767,29.47,28.5,34.854,29.91a1.055,1.055,0,0,0,1.3-.78C37.4,23.9,43.851,1.5,63.084,1.5c19.091,0,23,12.516,23.673,15.6a.186.186,0,0,0,.34.058c1.758-2.839,10.68-14.266,23.15-6.025.053.035,9.583,6.471,4.268,21.208a.813.813,0,0,0,1.039,1.052c5.381-2.009,19.2-5.592,29.234,5.584,12.194,13.58,2.688,30.879-1.343,34.915" transform="translate(-0.187 -0.187)" fill="#fff"/>
      <path id="패스_6145" data-name="패스 6145" d="M143.445,73.894a.831.831,0,0,0-.108,1.054A32.933,32.933,0,0,0,163.769,88.31c8.2,1.77,13.365,1,16.328-.026a.821.821,0,0,1,.854,1.35c-3.165,3.32-9.538,8.051-20.073,7.926-10.957-.13-16.4-2.645-18.766-4.256a1.058,1.058,0,0,0-1.642.795c-.534,6.187-4.883,25.188-23.816,31.4-24.847,7.015-40.488-8.056-44.909-14.28a.787.787,0,0,0-1.156-.145c-4.113,3.467-23.728,20.662-43.925,8.74C9.852,109.892,15.492,86.163,22.735,78.5a1.062,1.062,0,0,0-.641-1.785C14.771,75.768-2.6,66.894,2.385,49,8.021,28.767,29.47,28.5,34.854,29.91a1.055,1.055,0,0,0,1.3-.78C37.4,23.9,43.851,1.5,63.084,1.5c19.091,0,23,12.516,23.673,15.6a.186.186,0,0,0,.34.058c1.758-2.839,10.68-14.266,23.15-6.025.053.035,9.583,6.471,4.268,21.208a.813.813,0,0,0,1.039,1.052c5.381-2.009,19.2-5.592,29.234,5.584C156.982,52.559,147.476,69.859,143.445,73.894Z" transform="translate(-0.187 -0.187)" fill="none" stroke="#1a1311" stroke-linecap="round" stroke-miterlimit="10" stroke-width="3"/>
    </g>
  </g>
  <path id="패스_6473" data-name="패스 6473" d="M38.185,11.768a6.516,6.516,0,0,1-1.392-.48,10.52,10.52,0,0,1-1.288-.728,9.019,9.019,0,0,1-1.144-.9,9.664,9.664,0,0,1-.944-1,10.931,10.931,0,0,1-.96.968,11.484,11.484,0,0,1-1.1.872,8.921,8.921,0,0,1-1.184.7,6.8,6.8,0,0,1-1.2.456,2.649,2.649,0,0,1-.488.088,1.883,1.883,0,0,1-.52-.024,1.4,1.4,0,0,1-.512-.24,1.013,1.013,0,0,1-.352-.544,1.111,1.111,0,0,1,.1-.984,1.732,1.732,0,0,1,.864-.632,10.316,10.316,0,0,0,1.408-.656,8.03,8.03,0,0,0,1.3-.888,4.836,4.836,0,0,0,.944-1.056,2.134,2.134,0,0,0,.368-1.176V5.112a1.665,1.665,0,0,1,.12-.672,1.159,1.159,0,0,1,.312-.432,1.112,1.112,0,0,1,.44-.224,2.017,2.017,0,0,1,1.008,0,1.112,1.112,0,0,1,.44.224,1.159,1.159,0,0,1,.312.432,1.665,1.665,0,0,1,.12.672v.464a2.5,2.5,0,0,0,.312,1.192,4.321,4.321,0,0,0,.84,1.088,6.4,6.4,0,0,0,1.2.9,6.135,6.135,0,0,0,1.392.6,1.783,1.783,0,0,1,.92.56,1.1,1.1,0,0,1,.184.976,1.086,1.086,0,0,1-.736.832,1.416,1.416,0,0,1-.368.08A1.172,1.172,0,0,1,38.185,11.768ZM27.8,17.176a2.369,2.369,0,0,1-.736-.1,1.187,1.187,0,0,1-.448-.248.764.764,0,0,1-.216-.352,1.45,1.45,0,0,1-.056-.392,1.629,1.629,0,0,1,.056-.44.764.764,0,0,1,.216-.352,1.113,1.113,0,0,1,.448-.24,2.57,2.57,0,0,1,.736-.088h4.272V12.376a1.3,1.3,0,0,1,.392-1.1,1.459,1.459,0,0,1,.9-.3,1.827,1.827,0,0,1,.488.064.989.989,0,0,1,.408.224,1.179,1.179,0,0,1,.288.432,1.77,1.77,0,0,1,.112.672v2.592h4.256a2.57,2.57,0,0,1,.736.088,1.113,1.113,0,0,1,.448.24.764.764,0,0,1,.216.352,1.629,1.629,0,0,1,.056.44,1.45,1.45,0,0,1-.056.392.764.764,0,0,1-.216.352,1.187,1.187,0,0,1-.448.248,2.369,2.369,0,0,1-.736.1Zm16.432.384a3.155,3.155,0,0,1-1.28-.264,2.376,2.376,0,0,1-.848-.64,2.476,2.476,0,0,1-.464-.9A3.855,3.855,0,0,1,41.5,14.7a4.4,4.4,0,0,1,.128-1.072,2.418,2.418,0,0,1,.44-.912,2.113,2.113,0,0,1,.848-.632,3.6,3.6,0,0,1,1.352-.248h6.848a3.317,3.317,0,0,1,1.352.24,2.215,2.215,0,0,1,.848.632,2.343,2.343,0,0,1,.44.912,4.5,4.5,0,0,1,.128,1.08,3.855,3.855,0,0,1-.144,1.064,2.412,2.412,0,0,1-.472.9,2.474,2.474,0,0,1-.848.64,3.1,3.1,0,0,1-1.272.264Zm6.192-2.176a1.757,1.757,0,0,0,.672-.144q.208-.112.208-.544,0-.448-.208-.56a1.757,1.757,0,0,0-.672-.144H44.953a1.757,1.757,0,0,0-.672.144q-.208.112-.208.56,0,.432.208.544a1.757,1.757,0,0,0,.672.144Zm-8.288-4.352a1.321,1.321,0,0,1-.56-.1.978.978,0,0,1-.48-.432,1.014,1.014,0,0,1-.152-.936,1.855,1.855,0,0,1,.68-.792q.528-.384.9-.68a4.064,4.064,0,0,0,.632-.608,2.439,2.439,0,0,0,.4-.7,2.387,2.387,0,0,0,.16-.752H42.665a2.57,2.57,0,0,1-.736-.088,1.113,1.113,0,0,1-.448-.24.768.768,0,0,1-.216-.344,1.366,1.366,0,0,1-.056-.384,1.629,1.629,0,0,1,.056-.44.715.715,0,0,1,.216-.344,1.1,1.1,0,0,1,.448-.224,2.814,2.814,0,0,1,.736-.08h4.752a2.814,2.814,0,0,1,.736.08A1.1,1.1,0,0,1,48.6,4.2a.715.715,0,0,1,.216.344,1.629,1.629,0,0,1,.056.44,1.366,1.366,0,0,1-.056.384.768.768,0,0,1-.216.344,1.113,1.113,0,0,1-.448.24,2.57,2.57,0,0,1-.736.088h-.976a2.893,2.893,0,0,0,.16.72,2.359,2.359,0,0,0,.384.656,3.827,3.827,0,0,0,.616.576q.376.288.92.672a1.855,1.855,0,0,1,.68.792,1.014,1.014,0,0,1-.152.936,1.187,1.187,0,0,1-.424.408,1.244,1.244,0,0,1-.536.152,1.8,1.8,0,0,1-.368-.04.954.954,0,0,1-.368-.168,14.312,14.312,0,0,1-1.12-.928,9.1,9.1,0,0,1-1.024-1.1,8.515,8.515,0,0,1-.968,1.136,5.7,5.7,0,0,1-1.144.88,2.091,2.091,0,0,1-.456.208A2.053,2.053,0,0,1,42.137,11.032Zm9.856.256a1.827,1.827,0,0,1-.488-.064,1.025,1.025,0,0,1-.7-.656,1.946,1.946,0,0,1-.1-.688V5.032a1.3,1.3,0,0,1,.392-1.1,1.459,1.459,0,0,1,.9-.3,1.827,1.827,0,0,1,.488.064.989.989,0,0,1,.408.224,1.179,1.179,0,0,1,.288.432,1.77,1.77,0,0,1,.112.672V6.216h1.136a2.2,2.2,0,0,1,.736.1,1.2,1.2,0,0,1,.448.264.816.816,0,0,1,.216.36,1.45,1.45,0,0,1,.056.392,1.718,1.718,0,0,1-.056.448.762.762,0,0,1-.216.36,1.187,1.187,0,0,1-.448.248,2.369,2.369,0,0,1-.736.1H53.289V9.88a1.82,1.82,0,0,1-.112.688,1.179,1.179,0,0,1-.288.432.989.989,0,0,1-.408.224A1.827,1.827,0,0,1,51.993,11.288Zm6.192,6.256a2.243,2.243,0,0,1-.7-.088.911.911,0,0,1-.392-.24.678.678,0,0,1-.168-.352,2.794,2.794,0,0,1-.032-.44V14.312a1.556,1.556,0,0,1,.312-1,1.4,1.4,0,0,1,1.144-.392h3.136v-.832h-4.5a2.3,2.3,0,0,1-.64-.072.861.861,0,0,1-.368-.2.614.614,0,0,1-.168-.3,1.813,1.813,0,0,1-.04-.4,1.48,1.48,0,0,1,.04-.344.663.663,0,0,1,.168-.3.941.941,0,0,1,.368-.224,1.9,1.9,0,0,1,.64-.088H68.617a1.9,1.9,0,0,1,.64.088.941.941,0,0,1,.368.224.663.663,0,0,1,.168.3,1.48,1.48,0,0,1,.04.344,1.813,1.813,0,0,1-.04.4.614.614,0,0,1-.168.3.861.861,0,0,1-.368.2,2.3,2.3,0,0,1-.64.072H64.073v.832h3.344a2.243,2.243,0,0,1,.7.088.911.911,0,0,1,.392.24.678.678,0,0,1,.168.352,2.794,2.794,0,0,1,.032.44v2.112a1.261,1.261,0,0,1-.416,1.1,1.749,1.749,0,0,1-1.04.3Zm7.936-1.936v-.752h-6.64v.752Zm-8-6.24a2.814,2.814,0,0,1-.736-.08,1.17,1.17,0,0,1-.448-.216.673.673,0,0,1-.216-.32,1.284,1.284,0,0,1-.056-.376,1.458,1.458,0,0,1,.056-.424.673.673,0,0,1,.216-.32,1.1,1.1,0,0,1,.448-.208,3.112,3.112,0,0,1,.736-.072h.688V5.832H58.2a2.814,2.814,0,0,1-.736-.08,1.17,1.17,0,0,1-.448-.216.673.673,0,0,1-.216-.32,1.284,1.284,0,0,1-.056-.376,1.458,1.458,0,0,1,.056-.424.673.673,0,0,1,.216-.32,1.1,1.1,0,0,1,.448-.208,3.112,3.112,0,0,1,.736-.072h9.2a3.112,3.112,0,0,1,.736.072,1.1,1.1,0,0,1,.448.208.673.673,0,0,1,.216.32,1.459,1.459,0,0,1,.056.424,1.284,1.284,0,0,1-.056.376.673.673,0,0,1-.216.32,1.17,1.17,0,0,1-.448.216,2.814,2.814,0,0,1-.736.08h-.608v1.52h.688a3.112,3.112,0,0,1,.736.072,1.1,1.1,0,0,1,.448.208.673.673,0,0,1,.216.32,1.459,1.459,0,0,1,.056.424,1.285,1.285,0,0,1-.056.376.673.673,0,0,1-.216.32,1.17,1.17,0,0,1-.448.216,2.814,2.814,0,0,1-.736.08ZM64.2,7.352V5.832H61.4v1.52Zm8.72,10.336a2.243,2.243,0,0,1-.7-.088.872.872,0,0,1-.392-.248.729.729,0,0,1-.168-.368,2.839,2.839,0,0,1-.032-.432V14.344a1.221,1.221,0,0,1,.04-.312.568.568,0,0,1,.168-.272.917.917,0,0,1,.368-.192,2.3,2.3,0,0,1,.64-.072h7.984v-.56H72.7a1.207,1.207,0,0,1-.9-.248.93.93,0,0,1-.224-.648.943.943,0,0,1,.224-.6,1.116,1.116,0,0,1,.9-.28h9.52a1.845,1.845,0,0,1,.624.088,1,1,0,0,1,.368.216.614.614,0,0,1,.168.288,1.315,1.315,0,0,1,.04.32v2.32a.822.822,0,0,1-.224.608,1.49,1.49,0,0,1-.992.224H74.217V15.9h8.1a3.112,3.112,0,0,1,.736.072,1.256,1.256,0,0,1,.448.192.6.6,0,0,1,.216.28,1.059,1.059,0,0,1,.056.352,1.241,1.241,0,0,1-.056.392.551.551,0,0,1-.216.28,1.175,1.175,0,0,1-.448.168,3.972,3.972,0,0,1-.736.056ZM71.545,10.5a1.333,1.333,0,0,1-.808-.192.849.849,0,0,1,0-1.2,1.19,1.19,0,0,1,.808-.224H83.5a1.19,1.19,0,0,1,.808.224.849.849,0,0,1,0,1.2,1.333,1.333,0,0,1-.808.192Zm2.928-2.3a6.7,6.7,0,0,1-1.424-.128,2.66,2.66,0,0,1-.936-.376,1.4,1.4,0,0,1-.512-.6,2,2,0,0,1-.152-.8V5.864a1.8,1.8,0,0,1,.752-1.48A3.8,3.8,0,0,1,74.537,3.8h5.792a4.225,4.225,0,0,1,2.424.576,1.746,1.746,0,0,1,.824,1.488V6.3a2,2,0,0,1-.152.8,1.421,1.421,0,0,1-.5.6,2.574,2.574,0,0,1-.928.376,6.7,6.7,0,0,1-1.424.128Zm5.168-1.744a5.023,5.023,0,0,0,1.048-.08q.344-.08.344-.336V5.96q0-.272-.344-.344a5.926,5.926,0,0,0-1.1-.072h-4.16a5.926,5.926,0,0,0-1.1.072q-.344.072-.344.344v.08q0,.256.344.336a5.023,5.023,0,0,0,1.048.08Zm11.2,10.72a2.369,2.369,0,0,1-.736-.1,1.187,1.187,0,0,1-.448-.248.764.764,0,0,1-.216-.352,1.45,1.45,0,0,1-.056-.392,1.629,1.629,0,0,1,.056-.44.764.764,0,0,1,.216-.352,1.113,1.113,0,0,1,.448-.24,2.57,2.57,0,0,1,.736-.088h.784v-2.48a2.607,2.607,0,0,1-.968-.376,2.151,2.151,0,0,1-.632-.648,2.941,2.941,0,0,1-.36-.9,6.709,6.709,0,0,1-.152-1.176q-.016-.208-.024-.536t-.008-.68q0-.352.008-.672t.024-.528a7.285,7.285,0,0,1,.208-1.408,2.415,2.415,0,0,1,.536-1.024,2.362,2.362,0,0,1,.984-.632,4.706,4.706,0,0,1,1.552-.216,4.475,4.475,0,0,1,1.488.216,2.362,2.362,0,0,1,.984.632,2.722,2.722,0,0,1,.568,1.032,5.93,5.93,0,0,1,.24,1.4q.016.192.016.528v1.36q0,.32-.016.528a4.3,4.3,0,0,1-.48,2.064,2.27,2.27,0,0,1-1.536,1.024v2.5h1.008a2.57,2.57,0,0,1,.736.088,1.113,1.113,0,0,1,.448.24.764.764,0,0,1,.216.352,1.629,1.629,0,0,1,.056.44,1.45,1.45,0,0,1-.056.392.764.764,0,0,1-.216.352,1.187,1.187,0,0,1-.448.248,2.369,2.369,0,0,1-.736.1Zm1.952-6.752a1.658,1.658,0,0,0,.272-.024.5.5,0,0,0,.264-.136.936.936,0,0,0,.208-.312,1.634,1.634,0,0,0,.1-.568q.016-.224.016-.56V7.448q0-.336-.016-.544a1.542,1.542,0,0,0-.08-.544.728.728,0,0,0-.208-.312.653.653,0,0,0-.28-.136,1.367,1.367,0,0,0-.28-.032,1.018,1.018,0,0,0-.272.04.633.633,0,0,0-.264.152.915.915,0,0,0-.208.328,1.694,1.694,0,0,0-.1.552q-.016.224-.024.552t-.008.68q0,.352.008.672t.024.528a1.587,1.587,0,0,0,.08.568.852.852,0,0,0,.2.312.509.509,0,0,0,.272.136A1.9,1.9,0,0,0,92.793,10.424Zm5.568,6.944a1.656,1.656,0,0,1-.472-.064.936.936,0,0,1-.384-.224,1.081,1.081,0,0,1-.264-.432,2.1,2.1,0,0,1-.1-.688V5.032a1.383,1.383,0,0,1,.352-1.1,1.3,1.3,0,0,1,.864-.3,1.656,1.656,0,0,1,.472.064.936.936,0,0,1,.384.224,1.081,1.081,0,0,1,.264.432,2.037,2.037,0,0,1,.1.672v4h1.2v-4a1.383,1.383,0,0,1,.352-1.1,1.3,1.3,0,0,1,.864-.3,1.656,1.656,0,0,1,.472.064.936.936,0,0,1,.384.224,1.081,1.081,0,0,1,.264.432,2.037,2.037,0,0,1,.1.672V15.96a2.1,2.1,0,0,1-.1.688,1.081,1.081,0,0,1-.264.432.936.936,0,0,1-.384.224,1.773,1.773,0,0,1-.944,0,.936.936,0,0,1-.384-.224,1.081,1.081,0,0,1-.264-.432,2.1,2.1,0,0,1-.1-.688V11.3h-1.2V15.96a2.1,2.1,0,0,1-.1.688,1.081,1.081,0,0,1-.264.432.936.936,0,0,1-.384.224A1.656,1.656,0,0,1,98.361,17.368ZM31.417,38.544a1.459,1.459,0,0,1-.9-.3,1.3,1.3,0,0,1-.392-1.1V35.44h-8.9a2.369,2.369,0,0,1-.736-.1,1.187,1.187,0,0,1-.448-.248.764.764,0,0,1-.216-.352,1.45,1.45,0,0,1-.056-.392,1.629,1.629,0,0,1,.056-.44.764.764,0,0,1,.216-.352,1.113,1.113,0,0,1,.448-.24,2.57,2.57,0,0,1,.736-.088H31.417a2.243,2.243,0,0,1,.7.088.911.911,0,0,1,.392.24.678.678,0,0,1,.168.352,2.794,2.794,0,0,1,.032.44v2.8a1.77,1.77,0,0,1-.112.672,1.179,1.179,0,0,1-.288.432.989.989,0,0,1-.408.224A1.827,1.827,0,0,1,31.417,38.544ZM21.769,30.16V28.768h-.864V30.16Zm-1.84,1.984a1.508,1.508,0,0,1-.584-.088.643.643,0,0,1-.3-.24.762.762,0,0,1-.112-.352q-.016-.2-.016-.44V26.032a2.3,2.3,0,0,1,.072-.64.877.877,0,0,1,.208-.376.634.634,0,0,1,.312-.176,1.732,1.732,0,0,1,.384-.04,1.842,1.842,0,0,1,.392.04.635.635,0,0,1,.32.176.945.945,0,0,1,.216.376,2.081,2.081,0,0,1,.08.64v1.024h.864V26.032a2.081,2.081,0,0,1,.08-.64.945.945,0,0,1,.216-.376.635.635,0,0,1,.32-.176,1.941,1.941,0,0,1,.784,0,.635.635,0,0,1,.32.176.877.877,0,0,1,.208.376,2.3,2.3,0,0,1,.072.64v1.024h.88V26.032a2.081,2.081,0,0,1,.08-.64.945.945,0,0,1,.216-.376.635.635,0,0,1,.32-.176,1.941,1.941,0,0,1,.784,0,.635.635,0,0,1,.32.176.877.877,0,0,1,.208.376,2.3,2.3,0,0,1,.072.64v4.992a2.794,2.794,0,0,1-.032.44.853.853,0,0,1-.136.352.688.688,0,0,1-.32.24,1.638,1.638,0,0,1-.6.088Zm4.72-1.984V28.768h-.88V30.16Zm4.112,2.384a.99.99,0,0,1-.744-.288,1.64,1.64,0,0,1-.28-1.12V25.888a2.388,2.388,0,0,1,.072-.648.818.818,0,0,1,.208-.376.727.727,0,0,1,.32-.176,1.9,1.9,0,0,1,.848,0,.727.727,0,0,1,.32.176.818.818,0,0,1,.208.376,2.388,2.388,0,0,1,.072.648v1.376h.944V25.9a2.388,2.388,0,0,1,.072-.648.818.818,0,0,1,.208-.376.727.727,0,0,1,.32-.176,1.9,1.9,0,0,1,.848,0,.727.727,0,0,1,.32.176.818.818,0,0,1,.208.376,2.388,2.388,0,0,1,.072.648v5.232a1.64,1.64,0,0,1-.28,1.12,1.105,1.105,0,0,1-1.488,0,1.64,1.64,0,0,1-.28-1.12V29.472h-.944v1.664a1.64,1.64,0,0,1-.28,1.12A.99.99,0,0,1,28.761,32.544Zm17.536,6a1.459,1.459,0,0,1-.9-.3,1.3,1.3,0,0,1-.392-1.1V35.44h-8.9a2.369,2.369,0,0,1-.736-.1,1.187,1.187,0,0,1-.448-.248.764.764,0,0,1-.216-.352,1.45,1.45,0,0,1-.056-.392,1.629,1.629,0,0,1,.056-.44.764.764,0,0,1,.216-.352,1.113,1.113,0,0,1,.448-.24,2.57,2.57,0,0,1,.736-.088H46.3a2.243,2.243,0,0,1,.7.088.911.911,0,0,1,.392.24.678.678,0,0,1,.168.352,2.794,2.794,0,0,1,.032.44v2.8a1.77,1.77,0,0,1-.112.672,1.179,1.179,0,0,1-.288.432.989.989,0,0,1-.408.224A1.827,1.827,0,0,1,46.3,38.544ZM36.649,30.16V28.768h-.864V30.16Zm-1.84,1.984a1.508,1.508,0,0,1-.584-.088.643.643,0,0,1-.3-.24.762.762,0,0,1-.112-.352q-.016-.2-.016-.44V26.032a2.3,2.3,0,0,1,.072-.64.877.877,0,0,1,.208-.376.634.634,0,0,1,.312-.176,1.732,1.732,0,0,1,.384-.04,1.842,1.842,0,0,1,.392.04.635.635,0,0,1,.32.176.945.945,0,0,1,.216.376,2.081,2.081,0,0,1,.08.64v1.024h.864V26.032a2.081,2.081,0,0,1,.08-.64.945.945,0,0,1,.216-.376.635.635,0,0,1,.32-.176,1.941,1.941,0,0,1,.784,0,.635.635,0,0,1,.32.176.877.877,0,0,1,.208.376,2.3,2.3,0,0,1,.072.64v1.024h.88V26.032a2.081,2.081,0,0,1,.08-.64.945.945,0,0,1,.216-.376.635.635,0,0,1,.32-.176,1.941,1.941,0,0,1,.784,0,.635.635,0,0,1,.32.176.877.877,0,0,1,.208.376,2.3,2.3,0,0,1,.072.64v4.992a2.794,2.794,0,0,1-.032.44.853.853,0,0,1-.136.352.688.688,0,0,1-.32.24,1.638,1.638,0,0,1-.6.088Zm4.72-1.984V28.768h-.88V30.16Zm4.112,2.384a.99.99,0,0,1-.744-.288,1.64,1.64,0,0,1-.28-1.12V25.888a2.388,2.388,0,0,1,.072-.648.818.818,0,0,1,.208-.376.727.727,0,0,1,.32-.176,1.9,1.9,0,0,1,.848,0,.727.727,0,0,1,.32.176.818.818,0,0,1,.208.376,2.388,2.388,0,0,1,.072.648v1.376h.944V25.9a2.388,2.388,0,0,1,.072-.648.818.818,0,0,1,.208-.376.727.727,0,0,1,.32-.176,1.9,1.9,0,0,1,.848,0,.727.727,0,0,1,.32.176.818.818,0,0,1,.208.376,2.388,2.388,0,0,1,.072.648v5.232a1.64,1.64,0,0,1-.28,1.12,1.105,1.105,0,0,1-1.488,0,1.64,1.64,0,0,1-.28-1.12V29.472h-.944v1.664a1.64,1.64,0,0,1-.28,1.12A.99.99,0,0,1,43.641,32.544Zm15.808,5.824a1.827,1.827,0,0,1-.488-.064,1.025,1.025,0,0,1-.7-.656,1.946,1.946,0,0,1-.1-.688V26.032a1.3,1.3,0,0,1,.392-1.1,1.459,1.459,0,0,1,.9-.3,1.827,1.827,0,0,1,.488.064.989.989,0,0,1,.408.224,1.179,1.179,0,0,1,.288.432,1.77,1.77,0,0,1,.112.672v4.144h.912a2.369,2.369,0,0,1,.736.1,1.187,1.187,0,0,1,.448.248.764.764,0,0,1,.216.352,1.45,1.45,0,0,1,.056.392,1.629,1.629,0,0,1-.056.44.764.764,0,0,1-.216.352,1.113,1.113,0,0,1-.448.24,2.57,2.57,0,0,1-.736.088h-.912V36.96a1.82,1.82,0,0,1-.112.688,1.179,1.179,0,0,1-.288.432.989.989,0,0,1-.408.224A1.827,1.827,0,0,1,59.449,38.368ZM52.617,38.3a4.966,4.966,0,0,1-1.552-.208,2.456,2.456,0,0,1-1.016-.616,2.551,2.551,0,0,1-.584-1.008,5.7,5.7,0,0,1-.24-1.384V33.472a6.155,6.155,0,0,1,.232-1.408,2.538,2.538,0,0,1,.576-1.024,2.482,2.482,0,0,1,1.016-.632,4.854,4.854,0,0,1,1.568-.216,4.62,4.62,0,0,1,1.5.216,2.548,2.548,0,0,1,1.024.632,2.718,2.718,0,0,1,.608,1.032,5.409,5.409,0,0,1,.256,1.4v1.616A3.45,3.45,0,0,1,55.2,37.5,3.494,3.494,0,0,1,52.617,38.3Zm0-2.128a1.518,1.518,0,0,0,.264-.024.461.461,0,0,0,.248-.136.918.918,0,0,0,.192-.312,1.8,1.8,0,0,0,.1-.568V33.36a1.7,1.7,0,0,0-.072-.544.71.71,0,0,0-.192-.312.6.6,0,0,0-.264-.136,1.256,1.256,0,0,0-.272-.032.934.934,0,0,0-.264.04.581.581,0,0,0-.248.152.9.9,0,0,0-.192.328,1.871,1.871,0,0,0-.1.552v1.728a1.749,1.749,0,0,0,.072.568.834.834,0,0,0,.184.312.465.465,0,0,0,.256.136A1.749,1.749,0,0,0,52.617,36.176Zm-2.736-6.64a2.57,2.57,0,0,1-.736-.088,1.177,1.177,0,0,1-.448-.232.717.717,0,0,1-.216-.336,1.366,1.366,0,0,1-.056-.384,1.542,1.542,0,0,1,.056-.432.717.717,0,0,1,.216-.336,1.1,1.1,0,0,1,.448-.224,2.814,2.814,0,0,1,.736-.08h5.248a2.814,2.814,0,0,1,.736.08,1.1,1.1,0,0,1,.448.224.717.717,0,0,1,.216.336,1.542,1.542,0,0,1,.056.432,1.366,1.366,0,0,1-.056.384.717.717,0,0,1-.216.336,1.177,1.177,0,0,1-.448.232,2.57,2.57,0,0,1-.736.088Zm1.008-2.96a2.57,2.57,0,0,1-.736-.088,1.177,1.177,0,0,1-.448-.232.717.717,0,0,1-.216-.336,1.366,1.366,0,0,1-.056-.384,1.542,1.542,0,0,1,.056-.432.717.717,0,0,1,.216-.336,1.1,1.1,0,0,1,.448-.224,2.814,2.814,0,0,1,.736-.08h3.232a2.814,2.814,0,0,1,.736.08,1.1,1.1,0,0,1,.448.224.717.717,0,0,1,.216.336,1.542,1.542,0,0,1,.056.432,1.366,1.366,0,0,1-.056.384.717.717,0,0,1-.216.336,1.177,1.177,0,0,1-.448.232,2.57,2.57,0,0,1-.736.088ZM71.817,38.368a1.461,1.461,0,0,1-.432-.064.823.823,0,0,1-.36-.224,1.2,1.2,0,0,1-.248-.432,2.1,2.1,0,0,1-.1-.688V31.92H68.937a10.247,10.247,0,0,1-.112,1.3,12.492,12.492,0,0,1-.36,1.7,9.617,9.617,0,0,1-.656,1.7,3.517,3.517,0,0,1-1.032,1.28,1.205,1.205,0,0,1-.456.208,1.155,1.155,0,0,1-.448.008,1.281,1.281,0,0,1-.4-.144,1.439,1.439,0,0,1-.312-.232.767.767,0,0,1-.224-.36,1.29,1.29,0,0,1-.048-.456,1.818,1.818,0,0,1,.1-.488,1.931,1.931,0,0,1,.232-.456,6.516,6.516,0,0,0,1.032-2.232,10.846,10.846,0,0,0,.264-2.472V27.04h-2.24a2.57,2.57,0,0,1-.736-.088,1.113,1.113,0,0,1-.448-.24.764.764,0,0,1-.216-.352,1.629,1.629,0,0,1-.056-.44,1.45,1.45,0,0,1,.056-.392.764.764,0,0,1,.216-.352,1.187,1.187,0,0,1,.448-.248,2.369,2.369,0,0,1,.736-.1h3.424a2.026,2.026,0,0,1,.672.088.851.851,0,0,1,.368.24.73.73,0,0,1,.16.376,3.654,3.654,0,0,1,.032.512v3.664h1.744v-3.68a1.4,1.4,0,0,1,.344-1.1,1.179,1.179,0,0,1,.792-.3,1.158,1.158,0,0,1,.776.3,1.4,1.4,0,0,1,.344,1.1V36.96a2.1,2.1,0,0,1-.1.688,1.2,1.2,0,0,1-.248.432.823.823,0,0,1-.36.224A1.408,1.408,0,0,1,71.817,38.368Zm3.392,0a1.461,1.461,0,0,1-.432-.064.823.823,0,0,1-.36-.224,1.2,1.2,0,0,1-.248-.432,2.1,2.1,0,0,1-.1-.688V26.032a1.4,1.4,0,0,1,.344-1.1,1.179,1.179,0,0,1,.792-.3,1.158,1.158,0,0,1,.776.3,1.4,1.4,0,0,1,.344,1.1V36.96a2.1,2.1,0,0,1-.1.688,1.2,1.2,0,0,1-.248.432.823.823,0,0,1-.36.224A1.408,1.408,0,0,1,75.209,38.368Zm8.336-7.216a2.3,2.3,0,0,1-.64-.072.917.917,0,0,1-.368-.192.569.569,0,0,1-.168-.3,1.813,1.813,0,0,1-.04-.4,1.48,1.48,0,0,1,.04-.344.663.663,0,0,1,.168-.3.875.875,0,0,1,.368-.216,2.081,2.081,0,0,1,.64-.08h4.528v-.736H84.745a2.453,2.453,0,0,1-.7-.08.894.894,0,0,1-.392-.224.636.636,0,0,1-.168-.344,2.794,2.794,0,0,1-.032-.44V26a1.3,1.3,0,0,1,.392-1.1,1.459,1.459,0,0,1,.9-.3,1.827,1.827,0,0,1,.488.064.989.989,0,0,1,.408.224,1.179,1.179,0,0,1,.288.432,1.77,1.77,0,0,1,.112.672v.608h7.984a2.081,2.081,0,0,1,.64.08.927.927,0,0,1,.368.208.614.614,0,0,1,.168.3,1.414,1.414,0,0,1,.04.328,1.732,1.732,0,0,1-.04.384.663.663,0,0,1-.168.312.875.875,0,0,1-.368.216,2.081,2.081,0,0,1-.64.08h-3.36v.736h4.512a2.081,2.081,0,0,1,.64.08.875.875,0,0,1,.368.216.663.663,0,0,1,.168.3,1.48,1.48,0,0,1,.04.344,1.813,1.813,0,0,1-.04.4.569.569,0,0,1-.168.3.917.917,0,0,1-.368.192,2.3,2.3,0,0,1-.64.072ZM86.7,38.576a3.44,3.44,0,0,1-1.064-.184,2.434,2.434,0,0,1-.8-.456,1.991,1.991,0,0,1-.5-.672,1.935,1.935,0,0,1-.176-.816,2.609,2.609,0,0,1,.048-.512,2.3,2.3,0,0,1-.608-.064.78.78,0,0,1-.344-.184.593.593,0,0,1-.16-.28,1.525,1.525,0,0,1-.04-.368,1.315,1.315,0,0,1,.04-.32.567.567,0,0,1,.168-.28.917.917,0,0,1,.368-.192,2.3,2.3,0,0,1,.64-.072H94.457a2.3,2.3,0,0,1,.64.072.917.917,0,0,1,.368.192.567.567,0,0,1,.168.28,1.315,1.315,0,0,1,.04.32,1.525,1.525,0,0,1-.04.368.567.567,0,0,1-.168.28.851.851,0,0,1-.368.184,2.491,2.491,0,0,1-.624.064,1.762,1.762,0,0,1,.064.512,1.935,1.935,0,0,1-.176.816,1.991,1.991,0,0,1-.5.672,2.434,2.434,0,0,1-.8.456,3.44,3.44,0,0,1-1.064.184q-.72.016-1.368.024t-1.28.008q-.632,0-1.28-.008T86.7,38.576Zm.7-1.7q.64.016,1.088.024t.856.008q.408,0,.848-.008t1.1-.024a.916.916,0,0,0,.576-.12.47.47,0,0,0,.128-.36.644.644,0,0,0-.056-.288.392.392,0,0,0-.232-.176H86.953a.325.325,0,0,0-.216.176.871.871,0,0,0-.04.288.47.47,0,0,0,.128.36A.916.916,0,0,0,87.4,36.88Zm-1.824-3.312a2.377,2.377,0,0,1-.624-.064.72.72,0,0,1-.336-.184.565.565,0,0,1-.144-.28,1.8,1.8,0,0,1-.032-.352,1.03,1.03,0,0,1,.048-.312.657.657,0,0,1,.184-.28,1,1,0,0,1,.384-.208,2.162,2.162,0,0,1,.648-.08h7.408a1.925,1.925,0,0,1,.624.08.789.789,0,0,1,.336.208.551.551,0,0,1,.136.28,2,2,0,0,1,.024.312,1.451,1.451,0,0,1-.04.352.567.567,0,0,1-.168.28.851.851,0,0,1-.368.184,2.572,2.572,0,0,1-.64.064Zm15.536,4.64A4.966,4.966,0,0,1,99.561,38a2.456,2.456,0,0,1-1.016-.616,2.551,2.551,0,0,1-.584-1.008,5.7,5.7,0,0,1-.24-1.384q-.016-.144-.016-.68T97.7,33.04q-.008-.736-.008-1.568T97.7,29.9q.008-.736.008-1.264t.016-.672a6.155,6.155,0,0,1,.232-1.408,2.539,2.539,0,0,1,.576-1.024,2.481,2.481,0,0,1,1.016-.632,4.854,4.854,0,0,1,1.568-.216,4.621,4.621,0,0,1,1.5.216,2.548,2.548,0,0,1,1.024.632,2.718,2.718,0,0,1,.608,1.032,5.409,5.409,0,0,1,.256,1.4q0,.144.008.68t.008,1.272q0,.736.008,1.568t0,1.568q-.008.736-.016,1.272t-.008.664a3.45,3.45,0,0,1-.808,2.416A3.494,3.494,0,0,1,101.113,38.208Zm0-2.176a1.518,1.518,0,0,0,.264-.024.461.461,0,0,0,.248-.136.918.918,0,0,0,.192-.312,1.8,1.8,0,0,0,.1-.568q0-.144.008-.7t.008-1.288V29.856q0-.752-.008-1.28t-.008-.672a1.7,1.7,0,0,0-.072-.544.71.71,0,0,0-.192-.312.6.6,0,0,0-.264-.136,1.256,1.256,0,0,0-.272-.032.934.934,0,0,0-.264.04.581.581,0,0,0-.248.152.9.9,0,0,0-.192.328,1.87,1.87,0,0,0-.1.552q-.016.144-.016.688t-.008,1.28q-.008.736-.008,1.568t.008,1.568q.008.736.008,1.272t.016.664a1.749,1.749,0,0,0,.072.568.834.834,0,0,0,.184.312.464.464,0,0,0,.256.136A1.749,1.749,0,0,0,101.113,36.032Zm6.72,2.336a1.827,1.827,0,0,1-.488-.064,1.025,1.025,0,0,1-.7-.656,1.946,1.946,0,0,1-.1-.688V26.032a1.3,1.3,0,0,1,.392-1.1,1.459,1.459,0,0,1,.9-.3,1.827,1.827,0,0,1,.488.064.989.989,0,0,1,.408.224,1.179,1.179,0,0,1,.288.432,1.77,1.77,0,0,1,.112.672v3.84h1.008a2.369,2.369,0,0,1,.736.1,1.187,1.187,0,0,1,.448.248.764.764,0,0,1,.216.352,1.45,1.45,0,0,1,.056.392,1.629,1.629,0,0,1-.056.44.764.764,0,0,1-.216.352,1.113,1.113,0,0,1-.448.24,2.57,2.57,0,0,1-.736.088h-1.008v4.88a1.82,1.82,0,0,1-.112.688,1.179,1.179,0,0,1-.288.432.989.989,0,0,1-.408.224A1.827,1.827,0,0,1,107.833,38.368Zm-69.432,21a1.827,1.827,0,0,1-.488-.064,1.025,1.025,0,0,1-.7-.656,1.946,1.946,0,0,1-.1-.688V55.912H32.833a2.369,2.369,0,0,1-.736-.1,1.187,1.187,0,0,1-.448-.248.764.764,0,0,1-.216-.352,1.45,1.45,0,0,1-.056-.392,1.629,1.629,0,0,1,.056-.44.764.764,0,0,1,.216-.352,1.113,1.113,0,0,1,.448-.24,2.57,2.57,0,0,1,.736-.088h11.12a2.57,2.57,0,0,1,.736.088,1.113,1.113,0,0,1,.448.24.764.764,0,0,1,.216.352,1.629,1.629,0,0,1,.056.44,1.45,1.45,0,0,1-.056.392.764.764,0,0,1-.216.352,1.187,1.187,0,0,1-.448.248,2.369,2.369,0,0,1-.736.1H39.7V57.96a1.82,1.82,0,0,1-.112.688,1.179,1.179,0,0,1-.288.432.989.989,0,0,1-.408.224A1.827,1.827,0,0,1,38.4,59.368Zm-4.576-7.184a2.068,2.068,0,0,1-.7-.1.894.894,0,0,1-.392-.264.781.781,0,0,1-.168-.384,3.112,3.112,0,0,1-.032-.456V47.192a1.3,1.3,0,0,1,.392-1.1,1.459,1.459,0,0,1,.9-.3H42.9a1.758,1.758,0,0,1,.64.1.874.874,0,0,1,.368.256.828.828,0,0,1,.168.36,2.075,2.075,0,0,1,.04.408,1.8,1.8,0,0,1-.04.368.828.828,0,0,1-.168.352,1,1,0,0,1-.368.272,1.531,1.531,0,0,1-.64.112H35.121V49.96h7.936a1.531,1.531,0,0,1,.64.112,1,1,0,0,1,.368.272.829.829,0,0,1,.168.36,1.854,1.854,0,0,1,.04.36,2.075,2.075,0,0,1-.04.408.829.829,0,0,1-.168.36.874.874,0,0,1-.368.256,1.758,1.758,0,0,1-.64.1Zm16,.752a3.817,3.817,0,0,1-2.744-.848,3.711,3.711,0,0,1-.872-2.752,3.638,3.638,0,1,1,7.232,0,5.811,5.811,0,0,1-.216,1.7,2.522,2.522,0,0,1-.656,1.112,2.576,2.576,0,0,1-1.128.6A6.3,6.3,0,0,1,49.825,52.936ZM48.977,59.3a.971.971,0,0,1-.792.232,1.711,1.711,0,0,1-.632-.312,1.1,1.1,0,0,1-.3-.328,1.029,1.029,0,0,1-.144-.424,1.122,1.122,0,0,1,.048-.456.916.916,0,0,1,.264-.408q.272-.256.528-.52a5.455,5.455,0,0,0,.464-.544,2.487,2.487,0,0,0,.328-.592,1.879,1.879,0,0,0,.12-.68v-.48a1.676,1.676,0,0,1,.048-.392.909.909,0,0,1,.176-.36.936.936,0,0,1,.368-.264,1.537,1.537,0,0,1,.608-.1,1.414,1.414,0,0,1,1.1.352,1.135,1.135,0,0,1,.312.768v.48a2.031,2.031,0,0,0,.424,1.272,8.955,8.955,0,0,0,.968,1.064.916.916,0,0,1,.264.408,1.122,1.122,0,0,1,.048.456,1.029,1.029,0,0,1-.144.424,1.1,1.1,0,0,1-.3.328,1.705,1.705,0,0,1-.64.312.983.983,0,0,1-.8-.232,3.812,3.812,0,0,1-.6-.608q-.328-.4-.552-.7-.24.3-.568.7A3.812,3.812,0,0,1,48.977,59.3Zm6.3,0a.971.971,0,0,1-.792.232,1.711,1.711,0,0,1-.632-.312,1.1,1.1,0,0,1-.3-.328,1.029,1.029,0,0,1-.144-.424,1.122,1.122,0,0,1,.048-.456.916.916,0,0,1,.264-.408q.272-.256.528-.52a5.455,5.455,0,0,0,.464-.544,2.487,2.487,0,0,0,.328-.592,1.879,1.879,0,0,0,.12-.68v-.48a1.676,1.676,0,0,1,.048-.392.909.909,0,0,1,.176-.36.936.936,0,0,1,.368-.264,1.537,1.537,0,0,1,.608-.1,1.414,1.414,0,0,1,1.1.352,1.135,1.135,0,0,1,.312.768v.48a2.031,2.031,0,0,0,.424,1.272,8.955,8.955,0,0,0,.968,1.064.916.916,0,0,1,.264.408,1.122,1.122,0,0,1,.048.456,1.029,1.029,0,0,1-.144.424,1.1,1.1,0,0,1-.3.328,1.705,1.705,0,0,1-.64.312.983.983,0,0,1-.8-.232A3.812,3.812,0,0,1,57,58.7q-.328-.4-.552-.7-.24.3-.568.7A3.812,3.812,0,0,1,55.281,59.3Zm-5.456-8.48q.64,0,.824-.344a2.589,2.589,0,0,0,.184-1.144,2.645,2.645,0,0,0-.184-1.152q-.184-.352-.824-.352T49,48.184a2.645,2.645,0,0,0-.184,1.152A2.589,2.589,0,0,0,49,50.48Q49.185,50.824,49.825,50.824Zm7.888,2.256a1.827,1.827,0,0,1-.488-.064,1.025,1.025,0,0,1-.7-.656,1.946,1.946,0,0,1-.1-.688v-1.2h-1.04a2.4,2.4,0,0,1-.72-.088.994.994,0,0,1-.424-.248.782.782,0,0,1-.2-.36,1.885,1.885,0,0,1-.048-.44,1.676,1.676,0,0,1,.048-.392.782.782,0,0,1,.2-.36,1.06,1.06,0,0,1,.424-.256,2.215,2.215,0,0,1,.72-.1h1.04v-1.2a1.3,1.3,0,0,1,.392-1.1,1.459,1.459,0,0,1,.9-.3,1.827,1.827,0,0,1,.488.064.989.989,0,0,1,.408.224,1.179,1.179,0,0,1,.288.432,1.77,1.77,0,0,1,.112.672v4.64a1.82,1.82,0,0,1-.112.688,1.179,1.179,0,0,1-.288.432.989.989,0,0,1-.408.224A1.827,1.827,0,0,1,57.713,53.08Zm5.52,6.608a2.243,2.243,0,0,1-.7-.088.872.872,0,0,1-.392-.248.729.729,0,0,1-.168-.368,2.838,2.838,0,0,1-.032-.432V56.344a1.221,1.221,0,0,1,.04-.312.568.568,0,0,1,.168-.272.917.917,0,0,1,.368-.192,2.3,2.3,0,0,1,.64-.072h7.984v-.56H63.009a1.207,1.207,0,0,1-.9-.248.93.93,0,0,1-.224-.648.943.943,0,0,1,.224-.6,1.116,1.116,0,0,1,.9-.28h9.52a1.845,1.845,0,0,1,.624.088,1,1,0,0,1,.368.216.614.614,0,0,1,.168.288,1.315,1.315,0,0,1,.04.32v2.32a.822.822,0,0,1-.224.608,1.49,1.49,0,0,1-.992.224H64.529V57.9h8.1a3.112,3.112,0,0,1,.736.072,1.256,1.256,0,0,1,.448.192.6.6,0,0,1,.216.28,1.059,1.059,0,0,1,.056.352,1.241,1.241,0,0,1-.056.392.551.551,0,0,1-.216.28,1.175,1.175,0,0,1-.448.168,3.972,3.972,0,0,1-.736.056ZM61.857,52.5a1.333,1.333,0,0,1-.808-.192.849.849,0,0,1,0-1.2,1.19,1.19,0,0,1,.808-.224H73.809a1.19,1.19,0,0,1,.808.224.849.849,0,0,1,0,1.2,1.333,1.333,0,0,1-.808.192Zm2.928-2.3a6.7,6.7,0,0,1-1.424-.128,2.66,2.66,0,0,1-.936-.376,1.4,1.4,0,0,1-.512-.6,2,2,0,0,1-.152-.8v-.432a1.8,1.8,0,0,1,.752-1.48,3.8,3.8,0,0,1,2.336-.584h5.792a4.225,4.225,0,0,1,2.424.576,1.746,1.746,0,0,1,.824,1.488V48.3a2,2,0,0,1-.152.8,1.421,1.421,0,0,1-.5.6,2.574,2.574,0,0,1-.928.376,6.7,6.7,0,0,1-1.424.128Zm5.168-1.744A5.023,5.023,0,0,0,71,48.376q.344-.08.344-.336v-.08q0-.272-.344-.344a5.926,5.926,0,0,0-1.1-.072h-4.16a5.926,5.926,0,0,0-1.1.072q-.344.072-.344.344v.08q0,.256.344.336a5.023,5.023,0,0,0,1.048.08ZM86.865,59.368a1.656,1.656,0,0,1-.472-.064.936.936,0,0,1-.384-.224,1.081,1.081,0,0,1-.264-.432,2.1,2.1,0,0,1-.1-.688V47.032a1.383,1.383,0,0,1,.352-1.1,1.3,1.3,0,0,1,.864-.3,1.656,1.656,0,0,1,.472.064.936.936,0,0,1,.384.224,1.081,1.081,0,0,1,.264.432,2.037,2.037,0,0,1,.1.672v3.84h.848a2.369,2.369,0,0,1,.736.1,1.187,1.187,0,0,1,.448.248.764.764,0,0,1,.216.352,1.45,1.45,0,0,1,.056.392,1.629,1.629,0,0,1-.056.44.764.764,0,0,1-.216.352,1.113,1.113,0,0,1-.448.24,2.57,2.57,0,0,1-.736.088h-.848v4.88a2.1,2.1,0,0,1-.1.688,1.081,1.081,0,0,1-.264.432.936.936,0,0,1-.384.224A1.656,1.656,0,0,1,86.865,59.368ZM77.457,58.7a.948.948,0,0,1-.76.136,1.266,1.266,0,0,1-.7-.36.889.889,0,0,1-.272-.776,1.875,1.875,0,0,1,.336-.888,8.9,8.9,0,0,0,.632-1.1,6.357,6.357,0,0,0,.392-1.04,5.938,5.938,0,0,0,.192-1.08q.048-.56.048-1.232V48.04h-.816a1.28,1.28,0,0,1-1.04-.328,1.248,1.248,0,0,1-.256-.792,1.45,1.45,0,0,1,.056-.392.83.83,0,0,1,.2-.352,1.047,1.047,0,0,1,.4-.248,1.839,1.839,0,0,1,.64-.1h2.032a2.026,2.026,0,0,1,.672.088.851.851,0,0,1,.368.24.73.73,0,0,1,.16.376,3.653,3.653,0,0,1,.032.512v5.9a9.2,9.2,0,0,1-.112,1.256,10.315,10.315,0,0,1-.376,1.616,8.054,8.054,0,0,1-.712,1.616A3.932,3.932,0,0,1,77.457,58.7Zm4.672.368a.78.78,0,0,1-.36.136,1.437,1.437,0,0,1-.4-.008,1.316,1.316,0,0,1-.7-.352.889.889,0,0,1-.272-.776,1.875,1.875,0,0,1,.336-.888,6.94,6.94,0,0,0,.616-1.12,6.087,6.087,0,0,0,.352-1.1,7.192,7.192,0,0,0,.152-1.136q.032-.584.032-1.256V48.04h-.5a1.845,1.845,0,0,1-.624-.088.916.916,0,0,1-.376-.24.735.735,0,0,1-.176-.352,2.248,2.248,0,0,1-.04-.44,2,2,0,0,1,.04-.392.735.735,0,0,1,.176-.352.985.985,0,0,1,.376-.248,1.7,1.7,0,0,1,.624-.1h1.712a2.026,2.026,0,0,1,.672.088.851.851,0,0,1,.368.24.73.73,0,0,1,.16.376,3.654,3.654,0,0,1,.032.512V53.16q0,.32-.032.792t-.112,1.016a9.864,9.864,0,0,1-.24,1.136,8.289,8.289,0,0,1-.4,1.144,5.123,5.123,0,0,1-.592,1.024A3.351,3.351,0,0,1,82.129,59.064ZM98.337,48.872a2.892,2.892,0,0,0-.464-1.6,3.193,3.193,0,0,0-1.416-1.152,5.707,5.707,0,0,0-2.36-.432,5.789,5.789,0,0,0-2.312.408,3.725,3.725,0,0,0-1.432,1.016.83.83,0,0,0-.208.528.946.946,0,0,0,.448.752,1.154,1.154,0,0,0,.72.208,1.657,1.657,0,0,0,1.12-.4q.064-.064.264-.256a1.583,1.583,0,0,1,.528-.32,2.233,2.233,0,0,1,.808-.128,1.93,1.93,0,0,1,1.344.368,1.416,1.416,0,0,1,.384,1.072,1.87,1.87,0,0,1-.392,1.168,4.383,4.383,0,0,1-1.064.96,3.754,3.754,0,0,0-1.352,1.24,3.489,3.489,0,0,0-.424,1.832q0,1.024,1.3,1.024a1.247,1.247,0,0,0,.912-.288.887.887,0,0,0,.288-.64,5.283,5.283,0,0,1,.048-.816,1.174,1.174,0,0,1,.232-.528,2.636,2.636,0,0,1,.568-.512,14.262,14.262,0,0,0,1.288-1.048A4.3,4.3,0,0,0,98,50.24,2.81,2.81,0,0,0,98.337,48.872ZM92.225,57.3a1.211,1.211,0,0,0,.448,1,1.756,1.756,0,0,0,1.136.36,1.789,1.789,0,0,0,1.144-.36,1.2,1.2,0,0,0,.456-1,1.225,1.225,0,0,0-.456-1.008,1.763,1.763,0,0,0-1.144-.368,1.731,1.731,0,0,0-1.136.368A1.234,1.234,0,0,0,92.225,57.3Z" transform="translate(13.749 38.944)"/>
</svg>
