<svg xmlns="http://www.w3.org/2000/svg" xmlns:xlink="http://www.w3.org/1999/xlink" width="102.025" height="126.312" viewBox="0 0 102.025 126.312">
  <defs>
    <clipPath id="clip-path">
      <rect id="사각형_1836" data-name="사각형 1836" width="90.202" height="102.6" fill="none"/>
    </clipPath>
  </defs>
  <g id="그룹_1812" data-name="그룹 1812" transform="translate(5781.528 402.123)">
    <g id="그룹_1811" data-name="그룹 1811">
      <g id="그룹_1038" data-name="그룹 1038" transform="translate(-5776.713 -384.33)" clip-path="url(#clip-path)">
        <path id="패스_2038" data-name="패스 2038" d="M138.734,263.817H47.84l.692-102.6h90.2Z" transform="translate(-48.533 -161.217)" fill="#8c4729"/>
        <path id="패스_2039" data-name="패스 2039" d="M62.315,169.786a54.388,54.388,0,0,1,3.471,21.925c-.059,1.243,1.874,1.241,1.933,0a55.871,55.871,0,0,0-3.541-22.439c-.434-1.15-2.3-.651-1.862.514" transform="translate(-27.825 -150.579)" fill="#34ac37"/>
        <path id="패스_2040" data-name="패스 2040" d="M66.486,166.132a107.543,107.543,0,0,1-1.921,20.916c-.234,1.214,1.628,1.735,1.864.514a110.547,110.547,0,0,0,1.989-21.43.967.967,0,0,0-1.933,0" transform="translate(-24.523 -155.496)" fill="#34ac37"/>
        <path id="패스_2041" data-name="패스 2041" d="M74.016,167.495a56.636,56.636,0,0,1-8.272,22.9c-.663,1.055,1.007,2.025,1.669.975a58.852,58.852,0,0,0,8.535-23.879c.158-1.231-1.777-1.219-1.933,0" transform="translate(-23.02 -153.517)" fill="#34ac37"/>
        <path id="패스_2042" data-name="패스 2042" d="M76.888,171.189q-5.03,8.386-10.058,16.773a.966.966,0,0,0,1.667.975l10.058-16.773a.966.966,0,0,0-1.667-.975" transform="translate(-21.447 -147.551)" fill="#34ac37"/>
        <path id="패스_2043" data-name="패스 2043" d="M67.027,170.38a1.844,1.844,0,0,1-.327-1.319,2.14,2.14,0,0,1,.161-.6,1.67,1.67,0,0,1,.193-.324.155.155,0,0,1,.08-.1c.129-.117.122-.122-.022-.01H66.6c-.28-.056-.117-.193-.1.012a.973.973,0,0,1,.046.117,1.191,1.191,0,0,1,.061.548,1.3,1.3,0,0,1-.409.819l1.365,1.367a2.941,2.941,0,0,1,1.2-.843,2.867,2.867,0,0,1,.563-.1c-.012,0,.1.012.088.029s-.093-.168-.071-.158c.149.058-.427.456-.565.5-.614.188-1.258.214-1.857.456a.982.982,0,0,0-.426,1.616,2.466,2.466,0,0,1,.763,1.309.532.532,0,0,1-.134.441.543.543,0,0,1-.144.017c-1.072-.18-.76-1.789-.612-2.571a.977.977,0,0,0-.561-1.141.955.955,0,0,0-1.2.395,1.9,1.9,0,0,1-2.464.919c-.061-.029-.283-.166-.249-.141-.066-.049-.129-.161-.2-.188-.132-.054.034-.078-.039,0a.2.2,0,0,1-.049.193c-.08.144-.083.175-.015.1-.049,0,.273-.144.156-.09a2.679,2.679,0,0,1,.431-.119,3.315,3.315,0,0,1,2.337.375.966.966,0,0,0,.975-1.667,5.108,5.108,0,0,1-.977-.809,3.849,3.849,0,0,1-.419-.517,3.919,3.919,0,0,0-.256-.422c-.012-.061-.022-.076-.022-.039-.012.154-.141.234-.38.239-.585.341-.412.1-.258.349.1.175.241.331.344.509a4.31,4.31,0,0,1,.485,1.306c.261,1.214,2.123.7,1.862-.514a5.991,5.991,0,0,0-1.15-2.447c-.609-.782-1.867-1.331-2.566-.31a2.112,2.112,0,0,0,.361,2.427,7.2,7.2,0,0,0,2,1.894c.324-.556.651-1.111.975-1.667a5.292,5.292,0,0,0-4.265-.448,2.087,2.087,0,0,0-1.448,1.345,1.921,1.921,0,0,0,.746,1.872,3.8,3.8,0,0,0,5.747-1.167c-.59-.249-1.177-.495-1.765-.743a5.39,5.39,0,0,0,.151,3.514,2.777,2.777,0,0,0,2.408,1.5,2.2,2.2,0,0,0,2.1-2.059,3.984,3.984,0,0,0-1.309-3.007l-.426,1.616c.929-.375,1.984-.3,2.815-.924a2.227,2.227,0,0,0,.909-2.483,2.11,2.11,0,0,0-2.469-1.16,4.536,4.536,0,0,0-2.491,1.45.966.966,0,0,0,1.365,1.367,3.248,3.248,0,0,0,.924-2.881c-.168-1.036-1.087-2.393-2.286-1.691a3.457,3.457,0,0,0-1.421,2.62,3.843,3.843,0,0,0,.88,2.813.975.975,0,0,0,1.367,0,.989.989,0,0,0,0-1.367" transform="translate(-31.437 -154.171)" fill="#fff"/>
        <path id="패스_2044" data-name="패스 2044" d="M70.747,166.97a1.843,1.843,0,0,1-.327-1.319,2.224,2.224,0,0,1,.161-.6,1.672,1.672,0,0,1,.193-.324.152.152,0,0,1,.083-.1c.127-.117.119-.122-.024-.01H70.32c-.28-.056-.117-.193-.1.012a.973.973,0,0,1,.046.117,1.191,1.191,0,0,1,.061.548,1.3,1.3,0,0,1-.409.819q.68.684,1.365,1.367a2.956,2.956,0,0,1,1.2-.843,2.865,2.865,0,0,1,.563-.1c-.012,0,.1.012.088.029s-.093-.168-.071-.158c.149.059-.427.456-.565.5-.614.188-1.258.214-1.857.456a.982.982,0,0,0-.426,1.616,2.466,2.466,0,0,1,.763,1.309.292.292,0,0,1-.275.458c-1.075-.18-.763-1.789-.614-2.571a.977.977,0,0,0-.561-1.141.955.955,0,0,0-1.2.395,1.9,1.9,0,0,1-2.462.919c-.063-.029-.285-.166-.251-.141-.066-.049-.129-.161-.2-.188-.132-.054.034-.078-.039,0a.2.2,0,0,1-.049.193c-.08.144-.083.176-.015.1-.049,0,.273-.144.156-.09a2.762,2.762,0,0,1,.431-.119,3.315,3.315,0,0,1,2.337.375.966.966,0,0,0,.975-1.667,5.108,5.108,0,0,1-.977-.809,4.043,4.043,0,0,1-.419-.517,3.924,3.924,0,0,0-.256-.422c-.012-.061-.02-.076-.022-.039-.012.154-.141.234-.38.239-.585.341-.412.1-.258.348.1.175.241.331.344.509a4.309,4.309,0,0,1,.485,1.306c.261,1.214,2.123.7,1.862-.514a6.022,6.022,0,0,0-1.15-2.447c-.609-.782-1.867-1.331-2.566-.309a2.108,2.108,0,0,0,.363,2.427,7.157,7.157,0,0,0,2,1.894c.324-.556.651-1.111.975-1.667a5.287,5.287,0,0,0-4.263-.448A2.086,2.086,0,0,0,63.5,167.7a1.921,1.921,0,0,0,.746,1.872,3.8,3.8,0,0,0,5.747-1.167c-.59-.249-1.177-.495-1.765-.743a5.39,5.39,0,0,0,.151,3.514,2.778,2.778,0,0,0,2.41,1.5,2.2,2.2,0,0,0,2.1-2.059,3.984,3.984,0,0,0-1.309-3.007q-.212.808-.426,1.616c.929-.375,1.986-.3,2.817-.924a2.226,2.226,0,0,0,.907-2.483,2.11,2.11,0,0,0-2.469-1.16,4.536,4.536,0,0,0-2.491,1.45.966.966,0,0,0,1.365,1.367,3.25,3.25,0,0,0,.926-2.881c-.168-1.036-1.089-2.393-2.288-1.691a3.457,3.457,0,0,0-1.421,2.62,3.853,3.853,0,0,0,.88,2.813.975.975,0,0,0,1.367,0,.989.989,0,0,0,0-1.367" transform="translate(-26.09 -159.071)" fill="#fff"/>
        <path id="패스_2045" data-name="패스 2045" d="M74.9,168.56a1.843,1.843,0,0,1-.327-1.319,2.225,2.225,0,0,1,.161-.6,1.674,1.674,0,0,1,.193-.324.152.152,0,0,1,.083-.1c.127-.117.119-.122-.024-.01h-.512c-.28-.056-.117-.192-.1.012a.974.974,0,0,1,.046.117,1.191,1.191,0,0,1,.061.548,1.3,1.3,0,0,1-.409.819q.68.684,1.365,1.367a2.957,2.957,0,0,1,1.2-.843,2.87,2.87,0,0,1,.563-.1c-.012,0,.1.012.088.029s-.093-.168-.071-.158c.149.058-.427.456-.565.5-.614.188-1.258.214-1.857.456a.982.982,0,0,0-.427,1.616,2.466,2.466,0,0,1,.763,1.309.292.292,0,0,1-.275.458c-1.075-.18-.763-1.789-.614-2.571a.977.977,0,0,0-.561-1.141.955.955,0,0,0-1.2.395,1.9,1.9,0,0,1-2.462.919c-.063-.029-.285-.166-.251-.141-.066-.049-.129-.161-.2-.188-.132-.054.034-.078-.039,0a.2.2,0,0,1-.049.193c-.08.144-.083.175-.015.1-.049,0,.273-.144.156-.09a2.756,2.756,0,0,1,.431-.119,3.316,3.316,0,0,1,2.337.375.966.966,0,0,0,.975-1.667,5.106,5.106,0,0,1-.977-.809,4.049,4.049,0,0,1-.419-.517,3.913,3.913,0,0,0-.256-.422c-.012-.061-.019-.076-.022-.039-.012.154-.141.234-.38.239-.585.341-.412.1-.258.349.1.175.241.331.344.509a4.31,4.31,0,0,1,.485,1.306c.261,1.214,2.123.7,1.862-.514a6.022,6.022,0,0,0-1.15-2.447c-.609-.782-1.867-1.331-2.566-.31a2.108,2.108,0,0,0,.363,2.427,7.157,7.157,0,0,0,2,1.894c.324-.556.651-1.111.975-1.667a5.287,5.287,0,0,0-4.263-.448,2.086,2.086,0,0,0-1.45,1.345,1.921,1.921,0,0,0,.746,1.872,3.8,3.8,0,0,0,5.747-1.167c-.59-.249-1.177-.495-1.765-.743a5.39,5.39,0,0,0,.151,3.514,2.778,2.778,0,0,0,2.41,1.5,2.2,2.2,0,0,0,2.1-2.059,3.985,3.985,0,0,0-1.309-3.007l-.427,1.616c.929-.375,1.986-.3,2.817-.924a2.226,2.226,0,0,0,.907-2.483,2.11,2.11,0,0,0-2.469-1.16,4.536,4.536,0,0,0-2.491,1.45.966.966,0,0,0,1.365,1.367,3.25,3.25,0,0,0,.926-2.881c-.168-1.036-1.089-2.393-2.289-1.691a3.457,3.457,0,0,0-1.421,2.62,3.853,3.853,0,0,0,.88,2.813.975.975,0,0,0,1.367,0,.989.989,0,0,0,0-1.367" transform="translate(-20.119 -156.786)" fill="#fff"/>
        <path id="패스_2046" data-name="패스 2046" d="M76.582,172a1.843,1.843,0,0,1-.327-1.319,2.225,2.225,0,0,1,.161-.6,1.793,1.793,0,0,1,.19-.324.163.163,0,0,1,.085-.1c.127-.117.119-.122-.024-.01h-.512c-.28-.056-.117-.193-.1.012a.976.976,0,0,1,.046.117,1.191,1.191,0,0,1,.061.548,1.3,1.3,0,0,1-.409.819q.68.684,1.365,1.367a2.957,2.957,0,0,1,1.2-.843,2.869,2.869,0,0,1,.563-.1c-.012,0,.1.012.088.029s-.093-.168-.071-.158c.149.058-.427.456-.565.5-.614.188-1.258.214-1.857.456a.982.982,0,0,0-.426,1.616,2.466,2.466,0,0,1,.763,1.309.292.292,0,0,1-.275.458c-1.075-.18-.763-1.789-.614-2.571a.977.977,0,0,0-.561-1.141.959.959,0,0,0-1.206.395,1.892,1.892,0,0,1-2.459.919c-.063-.029-.285-.166-.253-.141-.063-.049-.127-.161-.195-.188-.132-.054.034-.078-.039,0a.2.2,0,0,1-.049.193c-.08.144-.083.175-.015.1-.049,0,.273-.144.156-.09a2.752,2.752,0,0,1,.431-.119,3.315,3.315,0,0,1,2.337.375.966.966,0,0,0,.975-1.667,5.108,5.108,0,0,1-.977-.809,4.046,4.046,0,0,1-.419-.517,3.921,3.921,0,0,0-.256-.422c-.012-.061-.019-.076-.022-.039-.012.154-.141.234-.38.239-.585.341-.412.1-.258.349.1.175.241.331.344.509a4.31,4.31,0,0,1,.485,1.306c.261,1.214,2.123.7,1.862-.514a6.022,6.022,0,0,0-1.15-2.447c-.612-.782-1.867-1.331-2.566-.31a2.109,2.109,0,0,0,.363,2.427,7.156,7.156,0,0,0,2,1.894c.324-.556.651-1.111.975-1.667a5.287,5.287,0,0,0-4.263-.448,2.086,2.086,0,0,0-1.45,1.345,1.921,1.921,0,0,0,.746,1.872,3.8,3.8,0,0,0,5.747-1.167c-.59-.249-1.177-.495-1.764-.743a5.39,5.39,0,0,0,.151,3.514,2.778,2.778,0,0,0,2.41,1.5,2.2,2.2,0,0,0,2.1-2.059,3.985,3.985,0,0,0-1.309-3.007q-.212.808-.427,1.616c.929-.375,1.986-.3,2.815-.924a2.223,2.223,0,0,0,.909-2.483,2.11,2.11,0,0,0-2.469-1.16,4.536,4.536,0,0,0-2.491,1.45.966.966,0,0,0,1.365,1.367,3.25,3.25,0,0,0,.926-2.881c-.168-1.036-1.089-2.393-2.289-1.691a3.457,3.457,0,0,0-1.421,2.62,3.853,3.853,0,0,0,.88,2.812.975.975,0,0,0,1.367,0,.989.989,0,0,0,0-1.367" transform="translate(-17.704 -151.838)" fill="#fff"/>
        <path id="패스_2047" data-name="패스 2047" d="M79.276,173.7c3.7.168,20.716-.088,20.541,2.2-.09,1.691-3,5.313-.726,6.334,19.9,7.628-.392,36.6-4.37,56.043-.1.512-1.041.49-1.06.982-1.119,5.045-17.492,4.848-24.625.994a1.167,1.167,0,0,1-.563-.89c-.429-3.156-2.159-5.805-6-15.4-2.15-5.423-9.091-23.036-6.573-31.537,1.35-4.558,3.046-7.762,7.7-9.683.921-.424,2.184-.485,2.9-1.253a1.685,1.685,0,0,0-.058-1.93,18.166,18.166,0,0,1-1.126-4.57c-.019-.522.492-.66.914-.8,3.5-1.206,9.208.446,12.944-.483Z" transform="translate(-37.734 -143.284)" fill="#e2e1e1" fill-rule="evenodd"/>
        <path id="패스_2048" data-name="패스 2048" d="M60.59,201.746c1.323,2.154,3.651,3.127,6.017,3.709a31.1,31.1,0,0,0,7.587.89c4.548-.034,9.59-1.065,12.839-4.489.855-.9-.509-2.271-1.367-1.367-2.808,2.964-7.163,3.839-11.092,3.919a28.836,28.836,0,0,1-6.549-.612c-2.12-.446-4.558-1.055-5.769-3.025-.648-1.058-2.32-.088-1.667.975" transform="translate(-30.422 -105.205)" fill="#231815"/>
        <path id="패스_2049" data-name="패스 2049" d="M63.336,179.207a27.738,27.738,0,0,0-4.47.363,7.737,7.737,0,0,0-3.995,1.913,4.366,4.366,0,0,0-.675,5.442,7.876,7.876,0,0,0,4.094,2.959,21.839,21.839,0,0,0,4.016.933,3.32,3.32,0,0,0,2.349-.307,3.049,3.049,0,0,0,1.092-4.17,2.97,2.97,0,0,0-1.821-1.4,20.317,20.317,0,0,1-4.333-1.058l.726.307a5.965,5.965,0,0,1-1.241-.695c.2.158.412.317.617.478a3.591,3.591,0,0,1-.617-.6c.158.207.319.412.478.617a2.192,2.192,0,0,1-.256-.429l.307.726a1.576,1.576,0,0,1-.1-.368c.034.271.071.541.107.812a1.512,1.512,0,0,1,0-.3c-.037.271-.071.539-.107.809a1.357,1.357,0,0,1,.083-.29l-.307.729a1.838,1.838,0,0,1,.2-.324l-.478.617a2.489,2.489,0,0,1,.363-.353c-.207.158-.412.317-.617.478a4.308,4.308,0,0,1,.933-.529l-.729.307a8.377,8.377,0,0,1,2.008-.509l-.812.11a27.611,27.611,0,0,1,3.173-.178,3.177,3.177,0,0,0,2.154-.892,3.047,3.047,0,0,0-2.154-5.2" transform="translate(-40.348 -135.365)" fill="#e2e1e1"/>
        <path id="패스_2050" data-name="패스 2050" d="M76.935,185.969c.639.058,1.275.122,1.911.207l-.812-.11a11.328,11.328,0,0,1,2.834.7l-.729-.307a5.113,5.113,0,0,1,1.092.626l-.617-.475a2.938,2.938,0,0,1,.446.441c-.158-.2-.319-.409-.478-.617a1.889,1.889,0,0,1,.2.346l-.307-.729a1.4,1.4,0,0,1,.083.295l-.11-.812a1.35,1.35,0,0,1,0,.3c.037-.268.073-.539.11-.809a1.584,1.584,0,0,1-.1.363l.307-.729a2.206,2.206,0,0,1-.21.349c.158-.207.317-.412.475-.617a3.222,3.222,0,0,1-.522.509l.617-.478a5.112,5.112,0,0,1-1.009.575l.726-.307a11.734,11.734,0,0,1-2.959.712c.271-.034.541-.071.812-.107-.656.085-1.314.146-1.972.207a3.275,3.275,0,0,0-2.154.892,3.1,3.1,0,0,0-.892,2.154,3.063,3.063,0,0,0,.892,2.154,2.97,2.97,0,0,0,2.154.892c2.881-.263,6.183-.495,8.381-2.635a4.427,4.427,0,0,0,.831-5.464,7.206,7.206,0,0,0-4.1-2.844,23.451,23.451,0,0,0-4.9-.775,3.06,3.06,0,0,0-2.154.892,3.048,3.048,0,0,0,0,4.309,3.438,3.438,0,0,0,2.154.892" transform="translate(-11.4 -134.413)" fill="#e2e1e1"/>
        <path id="패스_2051" data-name="패스 2051" d="M61.737,179.39a171.118,171.118,0,0,0,28.79.887c1.95-.1,1.962-3.151,0-3.046a171.113,171.113,0,0,1-28.79-.887c-1.945-.224-1.928,2.825,0,3.046" transform="translate(-30.646 -139.496)" fill="#b9cbde"/>
        <path id="패스_2052" data-name="패스 2052" d="M64.278,177.655l-6.015,5.922a1.523,1.523,0,0,0,2.154,2.154l6.015-5.922a1.523,1.523,0,0,0-2.154-2.154" transform="translate(-34.183 -138.219)" fill="#b9cbde"/>
        <path id="패스_2053" data-name="패스 2053" d="M64.89,177.888a26.891,26.891,0,0,0-3.756,5.925,1.649,1.649,0,0,0-.154,1.172,1.525,1.525,0,0,0,2.786.366,24.8,24.8,0,0,1,1.545-2.883q.424-.684.894-1.338c.076-.11.158-.217.239-.327.037-.054.076-.107.119-.161.027-.037.171-.222.034-.046s0-.01.034-.044c.039-.054.083-.1.124-.158l.285-.351a1.633,1.633,0,0,0,.448-1.077,1.524,1.524,0,0,0-2.6-1.077" transform="translate(-29.72 -137.894)" fill="#b9cbde"/>
        <path id="패스_2054" data-name="패스 2054" d="M57.417,182.581a163.235,163.235,0,0,0,24.572,3.21c7.182.378,15.011.885,21.52-2.708,1.718-.948.183-3.58-1.538-2.632-6.2,3.419-14.043,2.644-20.852,2.245a158.13,158.13,0,0,1-22.892-3.051c-1.913-.4-2.73,2.54-.809,2.937" transform="translate(-36.343 -134.79)" fill="#b9cbde"/>
        <path id="패스_2055" data-name="패스 2055" d="M65.242,178.335a24.209,24.209,0,0,0-1.37,6.054,1.532,1.532,0,0,0,.446,1.077,1.549,1.549,0,0,0,1.077.446,1.566,1.566,0,0,0,1.523-1.523c.015-.141.029-.28.046-.422.012-.1.015-.436,0-.015a6.16,6.16,0,0,1,.112-.731c.078-.451.171-.9.275-1.348a22.722,22.722,0,0,1,.829-2.73,1.53,1.53,0,0,0-1.063-1.874,1.566,1.566,0,0,0-1.874,1.065" transform="translate(-25.497 -138.212)" fill="#b9cbde"/>
        <path id="패스_2056" data-name="패스 2056" d="M65.626,179.359q.753,3.338,1.509,6.678a1.536,1.536,0,0,0,1.874,1.065,1.558,1.558,0,0,0,1.065-1.874q-.757-3.338-1.511-6.678a1.534,1.534,0,0,0-1.872-1.065,1.558,1.558,0,0,0-1.065,1.874" transform="translate(-23.032 -137.927)" fill="#b9cbde"/>
        <path id="패스_2057" data-name="패스 2057" d="M67.123,179.565a64.349,64.349,0,0,0,3.466,7.146,1.536,1.536,0,0,0,2.084.546,1.552,1.552,0,0,0,.546-2.084q-.914-1.612-1.733-3.28-.395-.8-.765-1.621c-.122-.273-.244-.546-.363-.819-.068-.158-.139-.312-.2-.47.136.339-.071-.168-.1-.227a1.683,1.683,0,0,0-.7-.911,1.563,1.563,0,0,0-1.172-.154,1.539,1.539,0,0,0-1.065,1.874" transform="translate(-20.939 -137.622)" fill="#b9cbde"/>
        <path id="패스_2058" data-name="패스 2058" d="M69.051,179.99a48.049,48.049,0,0,0,3.31,5.491,1.633,1.633,0,0,0,.911.7,1.524,1.524,0,0,0,1.721-2.237,47.716,47.716,0,0,1-3.312-5.491,1.534,1.534,0,0,0-2.084-.546,1.559,1.559,0,0,0-.546,2.084" transform="translate(-18.326 -137.532)" fill="#b9cbde"/>
        <path id="패스_2059" data-name="패스 2059" d="M71,180.359q2.665,2.917,5.564,5.613a1.539,1.539,0,0,0,2.393-.31c.1-.207.19-.414.288-.624a1.647,1.647,0,0,0,.154-1.172,1.562,1.562,0,0,0-.7-.911,1.543,1.543,0,0,0-2.084.548c-.1.207-.193.414-.29.622l2.393-.307q-2.9-2.691-5.564-5.613a1.535,1.535,0,0,0-2.154,0,1.556,1.556,0,0,0,0,2.154" transform="translate(-15.876 -137.44)" fill="#b9cbde"/>
        <path id="패스_2060" data-name="패스 2060" d="M72.862,179.906a46.326,46.326,0,0,1,5.016,5.218,1.534,1.534,0,0,0,1.077.446,1.523,1.523,0,0,0,1.523-1.523,1.734,1.734,0,0,0-.446-1.077,46.328,46.328,0,0,0-5.016-5.218,1.523,1.523,0,1,0-2.154,2.154" transform="translate(-13.202 -138.084)" fill="#b9cbde"/>
        <path id="패스_2061" data-name="패스 2061" d="M66.291,176.9c-3.573,1.328-7.141,2.715-10.075,5.218a1.528,1.528,0,0,0,0,2.154,1.56,1.56,0,0,0,2.152,0c.163-.139.329-.278.5-.409-.139.11.283-.21.331-.244q.519-.373,1.067-.707a24.027,24.027,0,0,1,2.259-1.221c.851-.4,1.35-.612,2.159-.933s1.611-.619,2.418-.921a1.523,1.523,0,1,0-.809-2.937" transform="translate(-37.133 -138.784)" fill="#b9cbde"/>
        <path id="패스_2062" data-name="패스 2062" d="M55.426,182.176c2.3,3.268,7,3.919,10.668,4.606A97.445,97.445,0,0,0,81.316,188.2c9.125.253,18.869.478,26.931-4.453,1.669-1.024.141-3.658-1.538-2.632-7.068,4.324-15.513,4.246-23.528,4.082a120.029,120.029,0,0,1-12.554-.768,58.535,58.535,0,0,1-6.895-1.265c-1.877-.468-4.487-.836-5.676-2.522-1.119-1.591-3.763-.071-2.63,1.538" transform="translate(-38.027 -134.276)" fill="#b9cbde"/>
        <path id="패스_2063" data-name="패스 2063" d="M75,190.863a4.553,4.553,0,0,1,1.73-2.413H75.2c.041.022.083.044.124.063l-.546-.546q-.022-.932-.11-.439l-.1.419-.2.836q-.194.837-.392,1.677c-.28,1.2,1.08,2.508,2.237,1.718a18.091,18.091,0,0,1,2.106-1.245c.288-.144.58-.28.877-.4a2.825,2.825,0,0,0,.6-.224c.283-.224-.112.619-.536-.373-.071-.256-.139-.512-.207-.768.224-.383.224-.441,0-.18-.1.058-.19.119-.283.183-.288.18-.582.349-.887.5a7.94,7.94,0,0,1-1.789.607,12.876,12.876,0,0,1-3.907.054c-2.542-.217-6.088-.458-7.692,2a1.537,1.537,0,0,0,1.316,2.293q2.479.044,4.96-.017c1.957-.049,1.967-3.078,0-3.046a23.045,23.045,0,0,0-5.905.863,1.535,1.535,0,0,0,0,2.937l2.289.58a8.928,8.928,0,0,0,2.135.431c1.66-.007,2.527-1.786,3.4-2.949a1.531,1.531,0,0,0-.546-2.084,1.559,1.559,0,0,0-2.084.546l-.887,1.18-.219.292c-.139.156-.01.154.388-.01-.007.019-.617-.151-.663-.163l-3-.76v2.937a19.723,19.723,0,0,1,5.1-.753v-3.046q-2.479.062-4.96.017.658,1.144,1.314,2.291c.353-.541,1.708-.607,2.279-.629a24.844,24.844,0,0,1,3.039.158,13.025,13.025,0,0,0,6.517-.887,6.789,6.789,0,0,0,2.544-1.7,2.148,2.148,0,0,0-.509-3.344c-1.067-.561-2.215-.044-3.222.388a18.261,18.261,0,0,0-3.093,1.7l2.237,1.721c.227-.977.478-1.95.685-2.932a2.108,2.108,0,0,0-.868-2.518,1.535,1.535,0,0,0-1.538,0,7.92,7.92,0,0,0-3.129,4.233c-.582,1.877,2.359,2.678,2.937.809" transform="translate(-25.627 -126.158)" fill="#b9cbde"/>
        <path id="패스_2064" data-name="패스 2064" d="M69.006,189.076c-.261.185-.522.368-.78.553a1.522,1.522,0,0,0-.546.546,1.684,1.684,0,0,0-.154,1.175,1.513,1.513,0,0,0,.39.673l.037.034c.054.046.122.1.168.132s.11.09.168.129l.039.022a3.665,3.665,0,0,0,.4.173,1.5,1.5,0,0,0,.285.044,1.2,1.2,0,0,0,.3.029,2.759,2.759,0,0,0,.487-.068,2.59,2.59,0,0,0,.448-.185.565.565,0,0,0,.076-.046,2.241,2.241,0,0,0,.375-.3,2.048,2.048,0,0,0,.28-.38,3.489,3.489,0,0,0,.168-.395l0-.027a1.013,1.013,0,0,0,.029-.21.53.53,0,0,0,.027-.212,3.5,3.5,0,0,0-.058-.446l-.012-.039a3.936,3.936,0,0,0-.166-.392.2.2,0,0,0-.029-.049,1.991,1.991,0,0,0-.665-.656,2.806,2.806,0,0,0-.439-.19.458.458,0,0,0-.088-.024,2.03,2.03,0,0,0-1,.007,1.794,1.794,0,0,0-.451.193l-.02.015c-.1.076-.222.166-.319.249l-.041.041a1.146,1.146,0,0,0-.314.49,1.377,1.377,0,0,0,0,1.175,1.146,1.146,0,0,0,.314.49l.31.239a1.512,1.512,0,0,0,.768.207c.134-.02.271-.037.4-.054a1.541,1.541,0,0,0,.673-.392.267.267,0,0,1,.054-.051c-.1.078-.207.158-.31.236a.332.332,0,0,1,.071-.039l-.366.154a.433.433,0,0,1,.093-.024l-.4.054a.594.594,0,0,1,.115,0c-.134-.02-.268-.037-.4-.054a.478.478,0,0,1,.119.032l-.363-.154a.671.671,0,0,1,.1.058c-.1-.078-.2-.158-.307-.239a.605.605,0,0,1,.068.068l-.239-.307a.265.265,0,0,1,.044.076c-.051-.122-.1-.244-.154-.363a.285.285,0,0,1,.022.078c-.017-.136-.037-.271-.054-.4l0,.024c.017-.136.034-.271.054-.4l-.017.056.154-.363a.425.425,0,0,1-.044.071c.08-.1.158-.2.239-.307a.388.388,0,0,1-.071.071l.307-.239a.375.375,0,0,1-.1.056l.366-.154a.472.472,0,0,1-.124.034c.134-.017.271-.034.4-.054a.652.652,0,0,1-.119,0c.136.017.271.034.4.054a.4.4,0,0,1-.1-.029l.366.154a.27.27,0,0,1-.073-.041l.307.239a.436.436,0,0,1-.049-.046l-.307,2.391.78-.553a1.464,1.464,0,0,0,.726-1.516,1.108,1.108,0,0,0-.18-.568c-.078-.1-.158-.2-.239-.307a1.524,1.524,0,0,0-.67-.392l-.407-.054a1.494,1.494,0,0,0-.768.207" transform="translate(-20.321 -121.479)" fill="#b9cbde"/>
        <path id="패스_2065" data-name="패스 2065" d="M86.348,191.182c3.734.266,3.724,4.908,1.743,7.073-2.454,2.681-6.568,2.678-9.844,1.862a17.635,17.635,0,0,1-4.913-2.059,31.14,31.14,0,0,0-4.136-2.43,8.668,8.668,0,0,0-4.662-.49c-1.262.171-3.6.819-4.555-.441-1.167-1.543-3.814-.027-2.63,1.538a5.652,5.652,0,0,0,4.991,2.22c1.17-.041,2.313-.373,3.483-.407a6.492,6.492,0,0,1,3.714,1.184c4.129,2.518,8.279,4.731,13.307,4.375,4.2-.295,8.447-2.639,9.522-6.985a6.822,6.822,0,0,0-6.02-8.486c-1.957-.139-1.947,2.908,0,3.046" transform="translate(-35.292 -122.539)" fill="#b9cbde"/>
        <path id="패스_2066" data-name="패스 2066" d="M56.916,190.332a53.775,53.775,0,0,0,6.8,5.956,1.527,1.527,0,0,0,2.084-.546,1.567,1.567,0,0,0-.546-2.084c-.144-.107-.288-.212-.429-.319-.078-.061-.156-.119-.236-.18-.134-.1-.071-.049.027.022-.288-.207-.561-.441-.836-.665q-.834-.673-1.633-1.379-1.6-1.415-3.081-2.959a1.523,1.523,0,0,0-2.154,2.154" transform="translate(-36.112 -123.105)" fill="#b9cbde"/>
        <path id="패스_2067" data-name="패스 2067" d="M59.939,190.532q4.449,3.758,9.164,7.187a1.53,1.53,0,0,0,2.084-.548,1.565,1.565,0,0,0-.546-2.084c-2.973-2.164-5.7-4.3-8.547-6.71a1.523,1.523,0,1,0-2.154,2.154" transform="translate(-31.777 -122.81)" fill="#b9cbde"/>
        <path id="패스_2068" data-name="패스 2068" d="M65.359,193.384a49.052,49.052,0,0,0,6.13,3.629,1.524,1.524,0,0,0,1.538-2.632,48.857,48.857,0,0,1-6.129-3.626,1.53,1.53,0,0,0-2.084.546,1.562,1.562,0,0,0,.546,2.084" transform="translate(-24.422 -119.077)" fill="#b9cbde"/>
        <path id="패스_2069" data-name="패스 2069" d="M60.865,195.287a23.222,23.222,0,0,0,9.966,4.579,1.524,1.524,0,0,0,.809-2.939,21.8,21.8,0,0,1-2.459-.6q-.6-.19-1.2-.412c-.2-.076-.395-.151-.59-.234.2.085-.241-.1-.29-.127a21.681,21.681,0,0,1-2.176-1.133q-.541-.325-1.067-.682c-.173-.117-.346-.239-.517-.363-.046-.034-.478-.356-.324-.239a1.565,1.565,0,0,0-2.154,0,1.537,1.537,0,0,0,0,2.154" transform="translate(-30.449 -115.972)" fill="#b9cbde"/>
        <path id="패스_2070" data-name="패스 2070" d="M62.045,198.264A13.966,13.966,0,0,0,72.1,200.633a1.527,1.527,0,0,0,1.065-1.874,1.574,1.574,0,0,0-1.874-1.065c.314-.041-.268.022-.324.027-.195.015-.39.024-.585.032-.341.01-.685,0-1.026-.015-.195-.01-.39-.027-.585-.046-.1-.01-.193-.02-.29-.034.163.022.154.02-.032-.007-.361-.068-.719-.134-1.075-.227s-.707-.195-1.053-.317c-.185-.066-.368-.134-.548-.207.261.1-.19-.088-.241-.112a12.486,12.486,0,0,1-1.952-1.153,1.528,1.528,0,0,0-2.084.546,1.564,1.564,0,0,0,.546,2.084" transform="translate(-29.187 -112.069)" fill="#b9cbde"/>
        <path id="패스_2071" data-name="패스 2071" d="M67.746,196.038q-.245,1.411-.487,2.825a1.715,1.715,0,0,0,.154,1.175,1.552,1.552,0,0,0,.911.7,1.528,1.528,0,0,0,1.172-.154,1.5,1.5,0,0,0,.7-.909q.241-1.415.485-2.827a1.169,1.169,0,0,0,.029-.607,1.126,1.126,0,0,0-.183-.565,1.52,1.52,0,0,0-2.084-.548,1.491,1.491,0,0,0-.7.911" transform="translate(-20.704 -112.777)" fill="#b9cbde"/>
        <path id="패스_2072" data-name="패스 2072" d="M69.528,196.123a5.174,5.174,0,0,1-.039.777c.02-.136.037-.271.054-.4a4.963,4.963,0,0,1-.349,1.277c.051-.122.1-.244.154-.363a5.006,5.006,0,0,1-.29.57,1.581,1.581,0,0,0-.154,1.175,1.524,1.524,0,0,0,1.874,1.063,1.6,1.6,0,0,0,.912-.7,6.432,6.432,0,0,0,.885-3.395,1.586,1.586,0,0,0-.446-1.077,1.523,1.523,0,0,0-2.6,1.077" transform="translate(-18.333 -113.244)" fill="#b9cbde"/>
        <path id="패스_2073" data-name="패스 2073" d="M70.9,194.531c-.076.378-.149.753-.227,1.131a1.674,1.674,0,0,0,.154,1.172,1.186,1.186,0,0,0,.392.429,1.137,1.137,0,0,0,.517.271l.4.056a1.53,1.53,0,0,0,.77-.21l.307-.236a1.518,1.518,0,0,0,.392-.673c.076-.378.154-.753.227-1.131a1.169,1.169,0,0,0,.029-.607,1.1,1.1,0,0,0-.183-.565,1.127,1.127,0,0,0-.392-.429,1.164,1.164,0,0,0-.517-.273c-.136-.017-.271-.034-.4-.054a1.552,1.552,0,0,0-.77.207c-.1.08-.2.161-.3.239a1.5,1.5,0,0,0-.395.673" transform="translate(-15.796 -114.95)" fill="#b9cbde"/>
        <path id="패스_2074" data-name="패스 2074" d="M64.144,199.842a24.653,24.653,0,0,0,1.881,5.35,1.534,1.534,0,0,0,2.086.546,1.563,1.563,0,0,0,.546-2.084c-.175-.361-.341-.729-.5-1.1l.154.366a23.17,23.17,0,0,1-1.233-3.887,1.535,1.535,0,0,0-1.872-1.065,1.559,1.559,0,0,0-1.065,1.874" transform="translate(-25.161 -108.489)" fill="#b9cbde"/>
        <path id="패스_2075" data-name="패스 2075" d="M61.516,199.82a20.165,20.165,0,0,0,2.43,5.194,1.523,1.523,0,1,0,2.63-1.538,18.993,18.993,0,0,1-1.628-3.042c.051.119.1.241.154.363-.246-.585-.461-1.182-.648-1.786a1.523,1.523,0,1,0-2.937.809" transform="translate(-28.965 -108.526)" fill="#b9cbde"/>
        <path id="패스_2076" data-name="패스 2076" d="M72.544,196.792a13.041,13.041,0,0,0-2.956,6.312,1.654,1.654,0,0,0,.154,1.175,1.523,1.523,0,0,0,2.783-.363,11.454,11.454,0,0,1,.331-1.484c.071-.244.151-.485.239-.721.044-.119.09-.236.136-.356q.1-.227-.044.1c.027-.058.051-.117.078-.175a11.577,11.577,0,0,1,.719-1.338c.134-.214.275-.426.424-.631.039-.051.076-.1.115-.154.1-.129.076-.1-.066.083.078-.034.185-.229.241-.295a1.631,1.631,0,0,0,.446-1.077,1.523,1.523,0,0,0-2.6-1.077" transform="translate(-17.334 -110.725)" fill="#b9cbde"/>
        <path id="패스_2077" data-name="패스 2077" d="M65.222,186.818a2.844,2.844,0,0,0,.444,2.118,2.722,2.722,0,0,0,3.824.782,2.849,2.849,0,0,0,1.231-1.728.966.966,0,0,0-1.862-.514,1.7,1.7,0,0,1-.044.168l-.022.071c-.037.093-.022.061.041-.1-.054.08-.093.176-.144.256-.1.154.144-.161.032-.037-.039.041-.076.085-.117.127s-.085.078-.127.117c-.127.112.19-.129.037-.032-.083.054-.168.1-.256.149-.156.085.236-.085.027-.012-.054.02-.11.037-.166.051s-.1.015-.144.032c.214-.076.178-.019.061-.012-.049,0-.1,0-.146,0s-.261-.027-.068,0,0,0-.044-.017a.473.473,0,0,1-.166-.054c.046.02.093.039.139.061l-.09-.044c-.044-.024-.088-.049-.132-.076s-.08-.061-.122-.085c.234.132.093.071.022,0-.041-.039-.083-.08-.122-.124-.054-.063-.11-.195.027.037-.051-.088-.112-.166-.158-.256l-.044-.093c.058.149.076.185.049.117s-.039-.112-.054-.168-.022-.1-.034-.146c-.044-.178.01.244.007.059,0-.049,0-.1,0-.149,0-.08.039-.322-.012.007a1.057,1.057,0,0,0-.1-.746.965.965,0,0,0-1.765.232" transform="translate(-23.61 -125.431)" fill="#231815"/>
        <path id="패스_2078" data-name="패스 2078" d="M63.719,185.943a1.567,1.567,0,0,1,.007-.3c-.012.088-.022.173-.034.258a1.794,1.794,0,0,1,.1-.373c-.032.078-.063.156-.1.232a1.84,1.84,0,0,1,.217-.373l-.151.195a1.8,1.8,0,0,1,.3-.307c-.066.051-.132.1-.195.151a1.749,1.749,0,0,1,.368-.219c-.078.032-.154.063-.232.1a1.525,1.525,0,0,1,.37-.1c-.085.012-.171.024-.256.034a1.471,1.471,0,0,1,.344,0l-.256-.034a1.649,1.649,0,0,1,.373.1c-.078-.032-.154-.066-.232-.1a1.723,1.723,0,0,1,.373.214l-.2-.151a1.9,1.9,0,0,1,.307.3c-.049-.063-.1-.129-.149-.2a1.769,1.769,0,0,1,.219.37l-.1-.232a1.613,1.613,0,0,1,.112.412c-.01-.085-.022-.171-.034-.256a1.522,1.522,0,0,1,.007.258.972.972,0,0,0,.965.965.987.987,0,0,0,.968-.965,2.594,2.594,0,0,0-1.613-2.44,2.436,2.436,0,0,0-2.815.736,2.536,2.536,0,0,0-.607,1.728,1.043,1.043,0,0,0,.283.682.967.967,0,0,0,1.65-.682" transform="translate(-28.495 -129.484)" fill="#231815"/>
        <path id="패스_2079" data-name="패스 2079" d="M70.362,186.588a2.4,2.4,0,0,1,.146-.256c.1-.156-.156.173-.032.039.034-.037.066-.073.1-.107s.073-.068.11-.1c.124-.115-.19.124-.039.029.078-.046.151-.1.234-.139.185-.093-.146.051-.051.017.046-.017.093-.034.139-.049.088-.027.18-.034.266-.063-.258.083-.161.02-.061.015.049,0,.1,0,.146,0s.1.01.146.01c-.275-.007-.151-.022-.061,0,.049.01.1.024.146.039l.049.017c.1.034.066.022-.088-.041.073.054.168.088.246.137.173.115-.1-.093-.032-.029.032.029.066.056.1.085a1.158,1.158,0,0,1,.11.11l.066.076c-.029-.037-.059-.076-.088-.115a1.076,1.076,0,0,1,.166.261c.037.068.08.219-.01-.046.017.049.037.1.051.146s.029.1.041.146c.019.1-.01.214,0-.054,0,.1.012.2.007.307a.972.972,0,0,0,.965.965.985.985,0,0,0,.965-.965,2.851,2.851,0,0,0-5.4-1.4,1.027,1.027,0,0,0-.1.743.966.966,0,0,0,1.765.232" transform="translate(-18.747 -128.41)" fill="#231815"/>
        <path id="패스_2080" data-name="패스 2080" d="M60.466,176.232a27.762,27.762,0,0,1,8.228-.692q3.934.055,7.865.236,8.017.377,15.993,1.287c1.233.141,1.223-1.791,0-1.93q-8.288-.94-16.622-1.316c-5.177-.229-10.938-.914-15.978.553a.966.966,0,0,0,.514,1.862" transform="translate(-32.102 -143.63)" fill="#231815"/>
        <path id="패스_2081" data-name="패스 2081" d="M55.354,180.408a3.6,3.6,0,0,0-.429,3.336,3.7,3.7,0,0,0,2.5,2.237.966.966,0,1,0,.512-1.862c-.1-.024-.193-.056-.29-.09-.124-.041.032,0,.063.029a1.013,1.013,0,0,0-.136-.068,2.278,2.278,0,0,1-.234-.139c-.015-.01-.175-.132-.049-.032s-.019-.017-.044-.039q-.1-.091-.2-.19c-.034-.037-.066-.076-.1-.115-.115-.127.085.127.022.027-.049-.076-.1-.151-.146-.229-.024-.044-.049-.09-.071-.134-.041-.09-.015-.149.012.037a2.256,2.256,0,0,0-.088-.275c-.012-.054-.024-.107-.034-.161-.032-.129.007.015,0,.063.007-.1-.019-.219-.019-.324,0-.044,0-.088,0-.132,0-.02.029-.227,0-.066s0-.032.012-.066c.01-.054.024-.1.037-.158.019-.076.1-.2.09-.28.007.071-.08.173-.007.022.024-.049.049-.1.076-.144a2.909,2.909,0,0,1,.178-.273.968.968,0,0,0-.346-1.321.993.993,0,0,0-1.321.346" transform="translate(-38.681 -134.316)" fill="#231815"/>
        <path id="패스_2082" data-name="패스 2082" d="M64.748,174.878q.175,1.685.349,3.368a3.552,3.552,0,0,1,.017,1.477,2.292,2.292,0,0,1-1.063,1.041,51.666,51.666,0,0,0-5.021,3.444c-2.812,2.374-4.7,6.144-3.122,9.746.5,1.136,2.162.154,1.667-.975-1.645-3.758,2.154-7.112,4.916-8.922,1.358-.892,3.38-1.718,4.231-3.173a4.46,4.46,0,0,0,.29-2.805q-.168-1.6-.331-3.2c-.127-1.223-2.062-1.238-1.933,0" transform="translate(-37.759 -142.912)" fill="#231815"/>
        <path id="패스_2083" data-name="패스 2083" d="M54.935,184.24c.071,7.248,2.5,13.948,5.089,20.626,2.557,6.6,4.648,13.375,7.909,19.685.57,1.1,2.237.129,1.667-.975-3.183-6.161-5.218-12.778-7.714-19.224-2.52-6.51-4.95-13.039-5.018-20.112a.967.967,0,0,0-1.933,0" transform="translate(-38.335 -129.472)" fill="#231815"/>
      </g>
      <path id="패스_2084" data-name="패스 2084" d="M48.676,162.489c30.067.244,60.132.582,90.2.826a.967.967,0,0,0,0-1.933c-30.065-.241-60.13-.582-90.2-.826a.967.967,0,0,0,0,1.933" transform="translate(-5825.387 -546.499)" fill="#231815"/>
      <path id="패스_2085" data-name="패스 2085" d="M85.05,162.134q-.738,50.53.483,101.062a.967.967,0,0,0,1.933,0q-1.225-50.523-.483-101.062a.967.967,0,0,0-1.933,0" transform="translate(-5772.168 -545.571)" fill="#231815"/>
      <path id="패스_2086" data-name="패스 2086" d="M48.562,204.516c30.616.863,61.188,1.8,91.816.846,1.238-.037,1.245-1.969,0-1.93-30.628.953-61.2.015-91.816-.848a.967.967,0,0,0,0,1.933" transform="translate(-5825.548 -486.099)" fill="#231815"/>
      <path id="패스_2087" data-name="패스 2087" d="M50.384,202.525a5.919,5.919,0,0,0-3.3.258,1,1,0,0,0-.675,1.189q.508,2.405,1.014,4.809a.976.976,0,0,0,.931.709c20.463.417,40.925.916,61.392,1.024,10.629.056,21.262.049,31.89-.139,2.033-.037,6.371-.283,6.208-3.278-.122-2.232-4.355-3.692-6.115-3.083-1.167.4-.668,2.271.512,1.864.5-.175,2.959.2,3.1.96.368,1.952-2.839,1.582-3.707,1.6-2.354.061-4.713.061-7.07.083q-6.12.059-12.239.076-12.112.029-24.218-.119c-16.587-.193-33.17-.585-49.755-.921l.931.709q-.5-2.406-1.014-4.811l-.673,1.189,2.276-.261c1.216.2,1.74-1.662.514-1.862" transform="translate(-5827.346 -486.355)" fill="#231815"/>
      <path id="패스_2088" data-name="패스 2088" d="M141.034,166.786a5.919,5.919,0,0,0,3.3-.258,1,1,0,0,0,.675-1.189q-.508-2.406-1.014-4.809a.976.976,0,0,0-.931-.709c-19.861-.409-39.706-1.265-59.567-1.628-10.4-.19-20.813-.261-31.218-.083-2.635.046-6.541.453-5.815,4.094.444,2.225,3.639,4.57,5.869,3.912a.966.966,0,0,0-.514-1.862,3.4,3.4,0,0,1-2.866-1.445c-1.411-3.219,1.911-2.732,3.327-2.766,2.342-.059,4.687-.054,7.026-.068q6.006-.037,12.015,0,11.673.073,23.346.407c16.134.431,32.261,1.038,48.4,1.37q-.468-.355-.931-.709.5,2.405,1.014,4.811l.673-1.189-2.276.261c-1.216-.2-1.74,1.662-.514,1.862" transform="translate(-5827.343 -550.162)" fill="#231815"/>
      <path id="패스_2089" data-name="패스 2089" d="M48.443,161.611q1.06,50.914-1.311,101.815c-.059,1.243,1.874,1.241,1.93,0q2.376-50.87,1.314-101.815a.967.967,0,0,0-1.933,0" transform="translate(-5826.265 -546.323)" fill="#231815"/>
      <path id="패스_2090" data-name="패스 2090" d="M47.247,193.122Q96.282,192.3,145.285,195c1.241.068,1.238-1.864,0-1.933q-48.969-2.7-98.038-1.879a.967.967,0,0,0,0,1.933" transform="translate(-5827.438 -502.75)" fill="#231815"/>
      <path id="패스_2091" data-name="패스 2091" d="M49.447,192.341c.373,9.027.836,18.055,1.1,27.084.037,1.241,1.969,1.245,1.933,0-.266-9.03-.726-18.057-1.1-27.084-.051-1.238-1.984-1.245-1.933,0" transform="translate(-5822.938 -502.157)" fill="#231815"/>
      <path id="패스_2092" data-name="패스 2092" d="M46.15,192.609c.373,9.027.836,18.055,1.1,27.084.037,1.241,1.969,1.245,1.933,0-.266-9.03-.726-18.057-1.1-27.084-.051-1.238-1.984-1.245-1.933,0" transform="translate(-5827.676 -501.771)" fill="#231815"/>
      <path id="패스_2093" data-name="패스 2093" d="M52.124,192.062a202.919,202.919,0,0,1,1.036,27.723c-.037,1.245,1.894,1.243,1.933,0a202.919,202.919,0,0,0-1.036-27.723c-.132-1.223-2.064-1.238-1.933,0" transform="translate(-5819.098 -502.546)" fill="#231815"/>
      <path id="패스_2094" data-name="패스 2094" d="M55.212,192.34q.691,13.852.451,27.728a.967.967,0,0,0,1.933,0q.241-13.87-.451-27.728c-.063-1.238-2-1.245-1.933,0" transform="translate(-5814.653 -502.158)" fill="#231815"/>
      <path id="패스_2095" data-name="패스 2095" d="M58.249,192.158q.428,13.753.851,27.508c.041,1.238,1.974,1.245,1.935,0q-.428-13.757-.853-27.508c-.039-1.241-1.972-1.245-1.933,0" transform="translate(-5810.287 -502.422)" fill="#231815"/>
      <path id="패스_2096" data-name="패스 2096" d="M61.309,191.886q.585,13.972-.024,27.954c-.054,1.243,1.879,1.24,1.933,0q.607-13.972.024-27.954c-.054-1.238-1.984-1.245-1.933,0" transform="translate(-5805.925 -502.81)" fill="#231815"/>
      <path id="패스_2097" data-name="패스 2097" d="M63.737,192.529a120.262,120.262,0,0,1,.543,27.893c-.119,1.236,1.813,1.228,1.933,0a122.27,122.27,0,0,0-.614-28.408c-.168-1.226-2.03-.7-1.862.514" transform="translate(-5802.414 -502.293)" fill="#231815"/>
      <path id="패스_2098" data-name="패스 2098" d="M67.821,192.159q-.186,14.539-1.2,29.046c-.088,1.241,1.845,1.233,1.933,0q1.013-14.506,1.2-29.046a.967.967,0,0,0-1.933,0" transform="translate(-5798.26 -502.421)" fill="#231815"/>
      <path id="패스_2099" data-name="패스 2099" d="M70,192.249q.135,13.863.271,27.728a.967.967,0,0,0,1.933,0q-.135-13.863-.271-27.728a.967.967,0,0,0-1.933,0" transform="translate(-5793.394 -502.291)" fill="#231815"/>
      <path id="패스_2100" data-name="패스 2100" d="M73.456,192.523q.029,13.643.061,27.284a.966.966,0,0,0,1.93,0q-.029-13.64-.059-27.284a.967.967,0,0,0-1.933,0" transform="translate(-5788.431 -501.898)" fill="#231815"/>
      <path id="패스_2101" data-name="패스 2101" d="M76.277,192.429l1.06,27.959c.046,1.241,1.979,1.245,1.933,0l-1.06-27.959c-.049-1.238-1.979-1.245-1.933,0" transform="translate(-5784.377 -502.03)" fill="#231815"/>
      <path id="패스_2102" data-name="패스 2102" d="M79.054,192.8a190.2,190.2,0,0,1,1.733,26.794.967.967,0,0,0,1.933,0,193.837,193.837,0,0,0-1.8-27.309c-.166-1.226-2.028-.7-1.862.514" transform="translate(-5780.4 -501.905)" fill="#231815"/>
      <path id="패스_2103" data-name="패스 2103" d="M82.782,192.878a206.658,206.658,0,0,1,1.877,26.6.966.966,0,0,0,1.93,0,209.845,209.845,0,0,0-1.945-27.116c-.166-1.226-2.028-.7-1.862.514" transform="translate(-5775.042 -501.791)" fill="#231815"/>
      <path id="패스_2104" data-name="패스 2104" d="M86.994,193.068a74.57,74.57,0,0,1,.292,12.988c-.1,2.086-.222,4.17-.312,6.256-.044,1.043-.083,2.086-.1,3.132-.007.341.224,3.283.01,3.439-.987.734-.024,2.41.975,1.669,1.5-1.109.916-3.475.948-5.108.049-2.525.193-5.045.322-7.565a82.584,82.584,0,0,0-.2-14.811c-.156-1.216-2.091-1.231-1.933,0" transform="translate(-5769.73 -501.092)" fill="#231815"/>
      <path id="패스_2105" data-name="패스 2105" d="M144.434,163.476c-.212-1.6-.071-3.207-.283-4.809a1,1,0,0,0-.968-.968c-18.225-.375-36.443-1.119-54.671-1.526q-13.409-.3-26.824-.263-4.043.015-8.091.063c-1.645.022-3.67-.224-5.211.507-2.388,1.133-2.257,3.826-.678,5.574.834.924,2.2-.446,1.367-1.367q-.632-2.877,1.372-2.688a14.094,14.094,0,0,1,1.952-.078c1.184-.029,2.376-.029,3.561-.039q3.14-.033,6.285-.041,5.9-.018,11.8.034,11.1.1,22.188.424c15.649.431,31.3,1.011,46.952,1.333l-.963-.965c.21,1.6.071,3.2.28,4.809.161,1.216,2.094,1.231,1.933,0" transform="translate(-5827.094 -553.184)" fill="#231815"/>
      <path id="패스_2106" data-name="패스 2106" d="M144.434,161.489c-.212-1.6-.071-3.207-.283-4.809a.994.994,0,0,0-.968-.968c-18.225-.375-36.443-1.119-54.671-1.526q-13.409-.3-26.824-.263-4.043.015-8.091.063c-1.645.022-3.67-.224-5.211.507-2.388,1.133-2.257,3.826-.678,5.574.834.924,2.2-.446,1.367-1.367q-.632-2.877,1.372-2.688a14.1,14.1,0,0,1,1.952-.078c1.184-.029,2.376-.029,3.561-.039q3.14-.033,6.285-.041,5.9-.018,11.8.034,11.1.1,22.188.424c15.649.431,31.3,1.011,46.952,1.333l-.963-.965c.21,1.6.071,3.2.28,4.809.161,1.216,2.094,1.231,1.933,0" transform="translate(-5827.094 -556.04)" fill="#231815"/>
    </g>
  </g>
</svg>
