<svg xmlns="http://www.w3.org/2000/svg" xmlns:xlink="http://www.w3.org/1999/xlink" width="101.899" height="125.382" viewBox="0 0 101.899 125.382">
  <defs>
    <clipPath id="clip-path">
      <rect id="사각형_1854" data-name="사각형 1854" width="90.202" height="102.6" fill="none"/>
    </clipPath>
  </defs>
  <g id="그룹_1806" data-name="그룹 1806" transform="translate(5781.528 746.598)">
    <g id="그룹_1063" data-name="그룹 1063" transform="translate(-5776.713 -729.728)">
      <g id="그룹_1062" data-name="그룹 1062" clip-path="url(#clip-path)">
        <rect id="사각형_1853" data-name="사각형 1853" width="90.202" height="102.598" transform="translate(0 0.002)" fill="#64c5eb"/>
        <path id="패스_2391" data-name="패스 2391" d="M77.154,49.535c.88-.446.38.729,1.131,1.65.363.448.865.909,1.355,1.445.424.463.929.9,1.421,1.377.475.453.982.882,1.5,1.292a13.938,13.938,0,0,0,1.591,1.184,7.93,7.93,0,0,0,1.835.724,4.64,4.64,0,0,0,1.957.351,3.89,3.89,0,0,0,1.811-.882c.514-.431.972-.873,1.384-1.289a15.887,15.887,0,0,0,1.184-1.467,12.6,12.6,0,0,0,.96-1.6,12.983,12.983,0,0,0,.955-1.638c.407-1.1.656-.919.4-1.808-.239-.851-.429-.7-.777-1.589a6.723,6.723,0,0,1-.419-1.721,1.662,1.662,0,0,1,.473-1.638,1.15,1.15,0,0,1,1.516.132c.6.478.127,1.289.958,1.167,1.1-.161.7-.894,1.63-1.333a1.558,1.558,0,0,1,1.928.456c.707.7.714,1.284.373,1.835-.507.814-1.418,2.432-1.733,1.406-.329-1.077,1.187-.595,2.24-.558a1.639,1.639,0,0,1,1.594,1.17,1.344,1.344,0,0,1-.407,1.838c-.787.621-1.292-.012-1.908.907-.5.741.824.346,1.284,1.1a1.893,1.893,0,0,1,.034,1.694,1.734,1.734,0,0,1-1.648,1.082c-1.048.115-1.094-.424-2.157-.171-.987.236-.388.746-1.119,1.735-.351.475-.865.948-1.348,1.523-.409.492-.846,1.016-1.336,1.528-.461.478-.9,1.009-1.416,1.462a16.668,16.668,0,0,1-1.669,1.167,12.093,12.093,0,0,1-1.691,1.138,7.956,7.956,0,0,1-1.96.587,5.635,5.635,0,0,1-2.006-.188,5.509,5.509,0,0,1-1.959-.536c-.556-.339-.992-.826-1.492-1.175-.536-.375-1.038-.748-1.511-1.126-.514-.409-1.106-.685-1.55-1.085-.495-.446-.912-.929-1.321-1.353-.478-.492-.868-1-1.238-1.44-.463-.551-.756-1.119-1.063-1.55-.68-.96-1.316-.612-.982-1.474.324-.838.465-.743,1.011-1.455s.695-.621,1.133-1.409c.451-.812.241-1.065,1.043-1.472" transform="translate(-11.116 15.282)" fill="#373e3d" fill-rule="evenodd"/>
        <path id="패스_2392" data-name="패스 2392" d="M57.181,42.989c-.7-.653-.307-.658.049-1.73a4.7,4.7,0,0,1,1.014-1.574,6.581,6.581,0,0,1,1.418-1.238,11.949,11.949,0,0,1,1.747-.734c.536-.219,1.007-.8,1.679-.989.568-.158,1.245-.076,1.92-.2.582-.112,1.2-.263,1.869-.349.6-.078,1.228-.29,1.9-.344.609-.049,1.265.271,1.938.244,1.063-.01,1.06-.246,2.12-.246s1.065.085,2.128.085,1.126.322,2.113-.073c.853-.339.115-.756.21-1.774A6.747,6.747,0,0,1,77.6,32.3c.214-.573.271-1.316.736-1.721a3.356,3.356,0,0,1,1.789-.675,6.8,6.8,0,0,1,2.106.19,2.548,2.548,0,0,1,1.75,1,4.207,4.207,0,0,1,.756,1.947,14.089,14.089,0,0,1-.115,1.765c0,1.011-.734,1.228-.156,1.879.665.753.965-.3,2.184-.166.58.061,1.243.292,1.984.388.629.083,1.277.331,1.974.439.648.1,1.336.09,2.006.217s1.309.353,1.957.5c.675.158,1.365.219,1.986.409a15.739,15.739,0,0,1,1.8.9c.7.307,1.5.327,1.938.7a1.913,1.913,0,0,1,.634,1.908c-.1.424-.714.619-1.6.9a14.158,14.158,0,0,1-1.852.4c-.578.1-1.2.193-1.891.268-.6.066-1.206.478-1.881.529-.614.044-1.272-.168-1.938-.134-.621.032-1.258.239-1.916.261-.629.02-1.277-.227-1.935-.214-.629.01-1.267.239-1.918.244-.634,0-1.277-.212-1.928-.212s-1.28.019-1.928.012-1.282-.022-1.925-.032-1.3.3-1.942.288-1.292-.256-1.935-.275-1.3-.044-1.945-.066-1.3.01-1.933-.015c-.653-.024-1.3.088-1.938.061-.658-.027-1.3-.129-1.93-.156-.66-.029-1.3-.134-1.928-.163-.665-.032-1.319.139-1.935.1-.678-.034-1.3-.468-1.908-.5-.7-.039-1.345-.054-1.938-.09-.736-.044-1.377-.136-1.92-.173-1.209-.076-1.1.614-1.794-.034" transform="translate(-35.668 -4.577)" fill="#373e3d"/>
        <path id="패스_2393" data-name="패스 2393" d="M60.688,34.756a2.791,2.791,0,0,0-1.925-.078,2.519,2.519,0,0,0-1.6,1,4.866,4.866,0,0,0-.746,1.786,9.324,9.324,0,0,0-.431,1.93c-.032.595.027,1.262.066,2.006.034.646-.073,1.3-.068,1.967.007.646-.039,1.294-.049,1.952s.158,1.306.146,1.964-.037,1.309-.041,1.964-.151,1.316-.136,1.972.263,1.3.307,1.957.022,1.314.1,1.964.368,1.262.5,1.9.022,1.343.217,1.972a18.8,18.8,0,0,0,.829,1.794,16.819,16.819,0,0,0,.663,1.874,17.623,17.623,0,0,0,1.063,1.684c.378.512,1.1.768,1.555,1.262.431.47.641,1.2,1.148,1.65.475.422,1.192.59,1.74,1a14.8,14.8,0,0,0,1.7.955,17.576,17.576,0,0,0,1.733.9c.595.249,1.094.8,1.733,1.007.617.195,1.338.068,1.986.227.631.154,1.209.6,1.864.721s1.294.258,1.952.346,1.314.168,1.972.229,1.331-.078,1.989-.041,1.323-.107,1.979-.09,1.321.173,1.977.171,1.338.1,1.994.083,1.326-.2,1.972-.234c.675-.034,1.343.051,1.981,0,.678-.049,1.314-.358,1.945-.417.687-.063,1.333-.2,1.952-.268.709-.078,1.414.214,2.016.136.743-.1,1.348-.561,1.9-.643,1.219-.188,1.1.368,1.969-.076.9-.458.7-.417,1.521-1.355.38-.436.568-1.167,1.024-1.777.378-.5,1-.9,1.392-1.5.349-.543.614-1.182.946-1.8.307-.578.317-1.316.59-1.955A20.378,20.378,0,0,0,105.1,61.1a19.441,19.441,0,0,0,.473-1.974,18.734,18.734,0,0,0,.183-2.023,16.939,16.939,0,0,0-.027-2.016c-.022-.646-.017-1.3-.02-1.942s.195-1.3.207-1.95.032-1.306.049-1.947c.017-.658.139-1.306.156-1.942.015-.663-.21-1.314-.2-1.945.007-.663.241-1.311.227-1.933-.017-.678-.107-1.328-.163-1.942a15.347,15.347,0,0,0-.426-1.891,7.886,7.886,0,0,0-.646-1.782,4.1,4.1,0,0,0-1.085-1.492,3.609,3.609,0,0,0-1.655-.831,13.4,13.4,0,0,0-1.94-.388c-.578-.046-1.255.132-1.986.093-.609-.034-1.265-.1-1.964-.124-.626-.024-1.282-.083-1.969-.1-.634-.019-1.3.073-1.974.056-.639-.015-1.289-.424-1.96-.439-.646-.012-1.309.232-1.977.222-.651-.01-1.309-.076-1.974-.085s-1.309.078-1.969.071-1.316.115-1.977.11-1.326-.129-1.986-.132-1.331-.054-1.991-.056-1.336-.124-1.994-.124-1.331-.154-1.981-.154c-.673,0-1.336.212-1.984.212-.675,0-1.338-.1-1.979-.1-.682,0-1.343.09-1.977.1-.695,0-1.358-.156-1.981-.154-.714,0-1.379.154-1.986.158-.756,0-1.421.044-1.979.046-1.238.012-1,.29-1.95.061" transform="translate(-36.941 1.974)" fill="#373e3d"/>
        <path id="패스_2394" data-name="패스 2394" d="M69.112,38.186c-.775-.58-.963-.09-1.93-.09s-.97.012-1.94.012-.97.166-1.942.166-1.223.573-2.02.017c-.965-.673.239-1.3.253-2.447.01-.994-.085-1.906-.7-2a14.91,14.91,0,0,0-1.9-.38c-.58-.049-1.248.022-1.93-.015-.636-.034-1.3-.022-1.935-.029-.685-.007-1.338.068-1.925.107a6.653,6.653,0,0,0-1.913.2c-.273.136-.509.846-.678,1.838-.093.548-.007,1.221-.073,1.952-.054.6-.175,1.243-.212,1.93-.037.621-.015,1.275-.037,1.945-.022.639-.124,1.287-.136,1.947s.078,1.3.073,1.952-.127,1.316-.127,1.957c0,.673.046,1.331.054,1.959.01.687.1,1.34.107,1.95.017.724-.124,1.384-.1,1.95a14.268,14.268,0,0,0,.268,1.93c.2,2.091.171,1.231,1.3,1.911.709.429-.1.911.266,1.613A1.5,1.5,0,0,0,53.3,59.4a15.59,15.59,0,0,1,1.872-.066c.548.032,1.17.246,1.855.29.59.039,1.233-.107,1.879-.063.612.044,1.233.2,1.86.249s1.265.051,1.879.1c.653.049,1.287.049,1.877.093.695.051,1.326.161,1.867.2,1.131.085,1.779,1.089,1.891.168s-.414-.853-.673-1.738-.027-.953-.285-1.84.068-1.138-.629-1.745c-.668-.582-.9.019-1.779-.088s-.875-.139-1.752-.244-.863-.271-1.745-.378-.885-.115-1.767-.222-.907.046-1.791-.058-1.094.322-1.691-.341c-.668-.746-.232-.924-.334-1.92s.015-1.007-.088-2-.058-1-.161-1.994-.341-.968-.444-1.959.049-1.014-.054-2.011-.193-.989-.295-1.989-.1-1-.207-2.006-.785-1.228-.232-2.069c.422-.636.853-.034,1.618-.034s1.033-.49,1.56.063c.629.656-.039.946.061,1.85s.283.887.383,1.794-.524,1.177.18,1.757c.785.648.965.173,1.984.19s1.021-.161,2.037-.144,1.024-.024,2.047-.007,1.024.066,2.047.083,1.026.168,2.052.185,1.323.678,2.03-.068c.621-.656-.058-.885-.271-1.762s-.541-.824-.578-1.73c-.039-.955.329-1.216-.4-1.757" transform="translate(-45.369 0.514)" fill="#373e3d"/>
        <path id="패스_2395" data-name="패스 2395" d="M75.46,38.122c.775-.58,1.033.154,2,.154s.97-.071,1.938-.071.972.046,1.945.046,1.184.57,1.981.015c.965-.673-.134-1.25-.146-2.393-.012-.994.01-1.94.626-2.033.341-.054,1.046-.054,1.92-.129.58-.049,1.231-.183,1.913-.219.636-.032,1.3.039,1.935.032.685-.01,1.348-.156,1.935-.115a4.685,4.685,0,0,1,1.811.534,2.262,2.262,0,0,1,.848,1.645c.093.548.01,1.226.076,1.957.056.6.166,1.245.2,1.933.034.624.115,1.275.139,1.945.022.639-.1,1.294-.09,1.952s.044,1.3.049,1.952-.039,1.316-.041,1.957c0,.673-.037,1.328-.044,1.959-.007.687.136,1.345.124,1.952-.015.724-.132,1.379-.151,1.942-.032.943-.08,1.626-.112,1.94-.2,2.091-.214,1.221-1.34,1.9-.709.429-.019.855-.38,1.555a1.25,1.25,0,0,1-1.262.726c-.314,0-.98.136-1.864.188-.548.032-1.182.083-1.867.127-.59.039-1.209.2-1.857.246-.612.044-1.245,0-1.874.041s-1.262.073-1.877.119c-.653.046-1.277.2-1.864.249-.695.051-1.348-.141-1.891-.1-1.128.085-1.747,1.187-1.86.266s.38-.855.639-1.738.136-.921.395-1.808-.08-1.07.614-1.677c.668-.58.807-.151,1.687-.256s.885-.063,1.762-.168.868-.227,1.75-.331.9-.012,1.782-.119.887-.09,1.774-.2,1.211.417,1.808-.249c.668-.746-.044-1.046.061-2.042s.154-.989.256-1.984.054-1,.156-1.994.134-.989.239-1.981.2-.987.3-1.986.175-.99.278-1.989.117-1,.219-2,.66-1.187.107-2.028c-.422-.639-.782.115-1.545.115s-1.085-.736-1.613-.183c-.629.658.088.994-.015,1.9s-.163.9-.263,1.806.378,1.126-.327,1.706c-.787.648-.933.127-1.952.144s-1.019.044-2.035.061-1.024.029-2.045.046-1.024.049-2.047.066-1.028.044-2.055.061-1.348.67-2.055-.076c-.621-.656.2-.877.414-1.757A5.481,5.481,0,0,0,75,39.969c.017-1-.268-1.306.458-1.847" transform="translate(-10.887 0.485)" fill="#373e3d"/>
        <path id="패스_2396" data-name="패스 2396" d="M67.968,49.811c.229.963-.88.2-1.952.721-.519.251-1.055.685-1.691,1.036-.548.3-1.109.665-1.682,1.036-.553.353-1.08.756-1.6,1.163a14.214,14.214,0,0,0-1.465,1.321,8.747,8.747,0,0,0-1.37,1.455,4.523,4.523,0,0,0-.473,1.928,3.592,3.592,0,0,0,.492,1.852c.3.6.5,1.2.809,1.7a16.4,16.4,0,0,0,1.092,1.526,14.092,14.092,0,0,0,1.241,1.394,10.494,10.494,0,0,0,1.492,1.16c.975.653.687.907,1.611.87a12.18,12.18,0,0,0,1.74-.258,6.9,6.9,0,0,1,1.767-.19,1.658,1.658,0,0,1,1.433.931,1.182,1.182,0,0,1-.395,1.489c-.6.47-1.338-.236-1.414.6-.1,1.109.707.9.916,1.9a1.667,1.667,0,0,1-.785,1.921,1.6,1.6,0,0,1-2.069-.117c-.675-.682-.646-.921-.914-1.959-.2-.78.363.746.383,1.577a3.318,3.318,0,0,1-.409,1.572,1.09,1.09,0,0,1-1.431.541,2.966,2.966,0,0,1-1.462-1.362c-.636-.914.295-1.355-.565-1.877-.765-.466-.6.834-1.445,1.1a1.993,1.993,0,0,1-1.745-.261,1.916,1.916,0,0,1-.629-1.979c.134-1.048.556-.96.556-2.052,0-1.016-.431-.595-1.223-1.538-.38-.451-.736-1.043-1.184-1.645-.383-.514-.97-.938-1.353-1.533-.358-.561-.568-1.233-.887-1.843a17.075,17.075,0,0,1-.865-1.843,11.8,11.8,0,0,1-.514-1.959,7.787,7.787,0,0,1-.236-2.013,5.816,5.816,0,0,1,.417-2,5.885,5.885,0,0,1,1.2-1.674c.461-.461,1.024-.782,1.479-1.184.49-.436.877-.953,1.355-1.326.517-.407,1.106-.663,1.6-1,.548-.375,1.041-.77,1.548-1.07.592-.351,1.1-.756,1.613-1.011a17.388,17.388,0,0,1,1.784-.624c1.094-.441,1-1.206,1.767-.68.738.512.5.768,1.07,1.465s.453.819,1.128,1.414c.714.626,1.058.456,1.267,1.331" transform="translate(-42.943 17.764)" fill="#373e3d" fill-rule="evenodd"/>
        <path id="패스_2397" data-name="패스 2397" d="M70.175,43.876c0,.054,0,.11,0,.163,0,.188.049-.246,0-.017-.012.054-.027.1-.041.156l-.027.078q-.055.143.037-.08c-.063.078-.1.2-.158.285s-.149.149.022-.022c-.037.039-.071.083-.107.122a1.294,1.294,0,0,1-.117.115c-.027.024-.054.049-.083.071.037-.027.073-.056.11-.085a2.74,2.74,0,0,0-.3.183c-.193.1.124-.039.032-.012-.061.019-.119.041-.18.056a1.516,1.516,0,0,0-.158.032c.049,0,.1-.012.149-.02l-.11.007c-.054,0-.107,0-.163,0-.193,0,.232.054.044.007a1.936,1.936,0,0,0-.312-.088c.146.066.173.076.08.034a.512.512,0,0,1-.073-.037c-.046-.024-.1-.051-.141-.08s-.183-.144-.059-.032-.046-.044-.068-.066c-.039-.037-.078-.076-.115-.115-.051-.056-.136-.2.012.027a2.888,2.888,0,0,1-.175-.273c-.017-.032-.032-.066-.046-.1l.054.132a.943.943,0,0,0-.051-.154c-.019-.061-.029-.122-.044-.183-.015-.078-.01-.037.015.122,0-.037-.007-.073-.01-.11a.965.965,0,1,0-1.93,0,2.928,2.928,0,0,0,5.854-.115.966.966,0,0,0-1.933,0" transform="translate(-22.07 14.151)" fill="#fff"/>
        <path id="패스_2398" data-name="패스 2398" d="M68.76,41.79a1.564,1.564,0,1,0,1.789-1.3,1.565,1.565,0,0,0-1.789,1.3" transform="translate(-18.494 10.644)" fill="#fff"/>
        <path id="패스_2399" data-name="패스 2399" d="M64.022,42.343a1.564,1.564,0,1,0,1.789-1.3,1.565,1.565,0,0,0-1.789,1.3" transform="translate(-25.303 11.438)" fill="#fff"/>
        <path id="패스_2400" data-name="패스 2400" d="M119.82,61.375l-.909,2.347-1.552,1.886-1.4,2.235-2.52.812-1.974,1.777-2.3,1.255-2.5.7-2.554.466-2.5.714-2.561.4-2.552.553-2.613-.08-2.61-.395L88.7,74.58l-2.571-.673-2.554-.288-2.588.132-2.659.417-2.4-1.3-2.681.173-2.518-.668-2.332-1.2-2.437-.848L63.577,69.3l-1.816-1.908-2.035-1.513L57.8,64.032l-.273-2.657,1.026-2.318,1.326-2.064,1.543-2.108,2.323-1.167,2.016-1.782,2.764-.063,2.379-.948,2.352-1.177,2.666.151,2.444-.992,2.642.329,2.54-.4L86.136,49,88.7,47.841l2.591.366,2.544.756,2.657-.709,2.435,1.316,2.579.154,2.657-.039,2.4,1.06,2.61.368,2.03,1.845,2.23,1.189,2.445.9,1.872,1.765,1.5,2.074Z" transform="translate(-34.605 21.239)" fill="#f4e93d" fill-rule="evenodd"/>
        <path id="패스_2401" data-name="패스 2401" d="M58.083,54.25l.295,2.705-.214,2.676.251,2.649.127,2.659.073,2.649.117,2.661.417,2.654-.107,2.683.2,2.654,3.722.166.019-2.8-.2-2.63-.227-2.635.212-2.635-.241-2.637.041-2.649-.115-2.649-.166-2.669-1.964-1.582Z" transform="translate(-33.811 30.45)" fill="#f4e93d" fill-rule="evenodd"/>
        <path id="패스_2402" data-name="패스 2402" d="M63.942,54.2l.024,2.851.368,2.649.1,2.657.017,2.664.28,2.639.154,2.661.063,2.669.046,2.676.073,2.813,3.68-.2L68.57,75.7l.253-2.644-.09-2.639-.158-2.622L68.56,65.15l-.2-2.642-.175-2.649.078-2.693-2.176-1.311Z" transform="translate(-25.391 30.373)" fill="#f4e93d" fill-rule="evenodd"/>
        <path id="패스_2403" data-name="패스 2403" d="M84.867,54.244l-.088,2.732.024,2.666-.236,2.649-.322,2.652.09,2.657L84.1,70.256,84,72.922l-.163,2.671-.015,2.825-3.765-.1,0-2.691.041-2.635.366-2.63-.232-2.637.21-2.637.156-2.642.093-2.652L80.627,57.1l2.259-1.184Z" transform="translate(-2.242 30.44)" fill="#f4e93d" fill-rule="evenodd"/>
        <path id="패스_2404" data-name="패스 2404" d="M79.526,54.319l-.161,2.54.141,2.671-.353,2.644.11,2.671-.256,2.642.032,2.669-.39,2.654.078,2.681-.1,2.864-3.848-.08.1-2.756-.063-2.637.263-2.635.078-2.627.3-2.632L75.1,62.327l.193-2.649.139-2.671L77.5,55.569Z" transform="translate(-9.817 30.548)" fill="#f4e93d" fill-rule="evenodd"/>
        <path id="패스_2405" data-name="패스 2405" d="M58.053,56.854c8.121,7.933,21.815,9.515,32.612,8.925,5.7-.312,11.908-.989,17.294-2.961,4.092-1.5,8.818-3.8,11.326-7.509.7-1.033-.975-2-1.669-.975-2.564,3.79-8.408,6.285-12.678,7.38a73.58,73.58,0,0,1-15.323,2.179c-9.966.4-22.7-1.087-30.194-8.408-.892-.868-2.259.5-1.367,1.37" transform="translate(-34.271 29.943)" fill="#373e3d"/>
        <path id="패스_2406" data-name="패스 2406" d="M58.053,55.316c8.121,7.933,21.815,9.515,32.612,8.925,5.7-.312,11.908-.99,17.294-2.961,4.092-1.5,8.818-3.8,11.326-7.509.7-1.031-.975-2-1.669-.975-2.564,3.79-8.408,6.285-12.678,7.382a73.744,73.744,0,0,1-15.323,2.179c-9.966.4-22.7-1.089-30.194-8.408-.892-.868-2.259.5-1.367,1.367" transform="translate(-34.271 27.733)" fill="#373e3d"/>
        <path id="패스_2407" data-name="패스 2407" d="M61.316,68.618q-.267-5.878.032-11.772c.061-1.243-1.869-1.238-1.933,0q-.3,5.886-.032,11.772c.056,1.238,1.989,1.245,1.933,0" transform="translate(-32.123 32.844)" fill="#373e3d"/>
        <path id="패스_2408" data-name="패스 2408" d="M67.444,68.027q-.106-4.577-.214-9.156a.967.967,0,0,0-1.933,0q.11,4.577.214,9.156a.967.967,0,0,0,1.933,0" transform="translate(-23.444 35.75)" fill="#373e3d"/>
        <path id="패스_2409" data-name="패스 2409" d="M78.033,68.279l.731-9.966a.974.974,0,0,0-.965-.968.986.986,0,0,0-.968.968L76.1,68.279a.966.966,0,0,0,1.933,0" transform="translate(-7.92 34.899)" fill="#373e3d"/>
        <path id="패스_2410" data-name="패스 2410" d="M81.591,56.188q0,7.447,0,14.891a.967.967,0,0,0,1.933,0q0-7.447,0-14.891a.967.967,0,0,0-1.933,0" transform="translate(-0.026 31.894)" fill="#373e3d"/>
        <path id="패스_2411" data-name="패스 2411" d="M83.356,48.527,81.148,47.3l-2.53-.658L76,46.721l-2.639-.166-2.579.582L68.73,48.473l-.1,2.262-2.186.912-1.906,1.572.1,2.364,1.64,1.7,2.432.487,2.505-.658,1.394,1.674,2.23.451,2.3-.046,2.245-.539L81.57,58.2l.968-2.3.921-2.386.368-2.535ZM67.178,55.414l-.061-1.8,1.794-.695.88,2.581Z" transform="translate(-24.53 19.39)" fill="#fff" fill-rule="evenodd"/>
        <path id="패스_2412" data-name="패스 2412" d="M78.809,48.829,76,50.082l-3.156.166-3.159-.156-2.844-1.262L69.68,47.5l3.168-.288L76,47.605Z" transform="translate(-21.218 20.336)" fill="#855224" fill-rule="evenodd"/>
        <path id="패스_2413" data-name="패스 2413" d="M50.952,35.238a35.926,35.926,0,0,1,10.287-.117c-.256-.334-.509-.668-.765-1a24.68,24.68,0,0,0-.224,4.872c.019.383.346.851.792.792a17.7,17.7,0,0,1,3.173-.139c1.019.046,1.016-1.538,0-1.584a17.7,17.7,0,0,0-3.173.139l.792.792A22.454,22.454,0,0,1,62,34.541a.813.813,0,0,0-.763-1,37.366,37.366,0,0,0-10.709.173c-1,.161-.578,1.687.422,1.528" transform="translate(-45.49 0.242)" fill="#cfd4e2"/>
        <path id="패스_2414" data-name="패스 2414" d="M76.159,39.338l2.5-.015a6.565,6.565,0,0,0,2.13-.122c1.236-.448,1.16-2.342,1.345-3.414.027-.149.1-.534.107-.536.2-.134.831-.041,1.077-.051.821-.032,1.64-.063,2.464-.1l5.072-.2c1.016-.041,1.021-1.626,0-1.584l-4.784.19q-1.232.048-2.464.1a5.441,5.441,0,0,0-2.074.224c-1.128.539-1.055,2.315-1.236,3.366-.061.349,0,.468-.317.536a5.909,5.909,0,0,1-1.175.007l-2.642.015a.793.793,0,0,0,0,1.584" transform="translate(-8.932 0.366)" fill="#cfd4e2"/>
        <path id="패스_2415" data-name="패스 2415" d="M66.605,30c-1.145-.132-1.672,1.338-1.223,2.206.5.972,1.735,1.007,2.683,1.036a10.3,10.3,0,0,0,3.151-.28,2.194,2.194,0,0,0,1.406-.86.954.954,0,0,0-.765-1.474.792.792,0,0,0,0,1.584l.049,0c-.132-.034-.266-.071-.4-.107-.032-.027-.066-.054-.1-.08-.068-.115-.134-.232-.2-.349a.415.415,0,0,1,.029-.334c.024-.049.029-.054,0-.015-.066.1.093-.115.1-.1a3.493,3.493,0,0,1-.356.141,5.473,5.473,0,0,1-.948.224,12.312,12.312,0,0,1-1.867.061c-.3-.01-.607-.012-.909-.041-.039,0-.122-.022-.037,0-.083-.015-.161-.037-.241-.056-.037-.007-.115-.037-.034,0,0,0-.175-.1-.124-.061.071.049-.1-.08-.1-.1s.127.2.078.115.015-.093,0,0c.044-.193-.051.11-.012,0,.032-.093.029-.093-.015-.007.022-.046.107-.11.029-.061a1.125,1.125,0,0,1-.2.129c.136-.054-.163-.007.007.012A.8.8,0,0,0,67.4,30.8.812.812,0,0,0,66.605,30" transform="translate(-23.55 -4.407)" fill="#cfd4e2"/>
        <path id="패스_2416" data-name="패스 2416" d="M65.218,31.545q-.124,1.506-.246,3.015a.8.8,0,0,0,.792.792.81.81,0,0,0,.792-.792l.246-3.015a.8.8,0,0,0-.795-.792.811.811,0,0,0-.79.792" transform="translate(-23.913 -3.32)" fill="#cfd4e2"/>
        <path id="패스_2417" data-name="패스 2417" d="M65.475,33.78a29.086,29.086,0,0,0,8.031.636.819.819,0,0,0,.794-.792.8.8,0,0,0-.794-.792,27.546,27.546,0,0,1-7.609-.58.813.813,0,0,0-.972.553.8.8,0,0,0,.551.975" transform="translate(-24.016 -1.188)" fill="#cfd4e2"/>
        <path id="패스_2418" data-name="패스 2418" d="M61.864,32.374c-1.9.721-4.233,2.893-1.821,4.657,1.277.936,3.207,1.114,4.706,1.421,2,.409,4.014.717,6.039.933a61.247,61.247,0,0,0,12.4.058c3.588-.349,7.214-.97,10.2-3.12.821-.59.032-1.964-.8-1.367-4.482,3.227-10.909,3.261-16.219,3.181a60.178,60.178,0,0,1-8.752-.763c-1.428-.234-2.851-.517-4.26-.853a10.036,10.036,0,0,1-1.6-.412q-1.269-.2-.531-1.7a4.811,4.811,0,0,1,1.06-.5c.943-.358.534-1.891-.422-1.528" transform="translate(-32.474 -1.07)" fill="#cfd4e2"/>
        <path id="패스_2419" data-name="패스 2419" d="M56.622,34.722c-.629,4.638,6.207,5.788,9.522,6.451a65.514,65.514,0,0,0,14.6,1.145A53.7,53.7,0,0,0,94.076,40.5c2.683-.775,5.959-1.93,7.436-4.5a.792.792,0,0,0-1.367-.8c-1.258,2.184-4.229,3.117-6.49,3.77a49.728,49.728,0,0,1-11.172,1.694,69.541,69.541,0,0,1-11.959-.388c-2.379-.29-12.883-1.384-12.374-5.135.134-1-1.392-1.428-1.528-.422" transform="translate(-35.969 1.56)" fill="#cfd4e2"/>
        <path id="패스_2420" data-name="패스 2420" d="M58.531,34.436c-2.427,2.479-3.046,6.032-3.28,9.373A31.333,31.333,0,0,0,56.4,54.494a32.109,32.109,0,0,0,11.91,17.141c.824.6,1.616-.773.8-1.367A30.6,30.6,0,0,1,56.769,45.4c.046-3.341.431-7.336,2.883-9.839.714-.729-.407-1.85-1.121-1.121" transform="translate(-37.983 1.634)" fill="#cfd4e2"/>
      </g>
    </g>
    <path id="패스_2421" data-name="패스 2421" d="M48.676,20.768c30.067.244,60.132.582,90.2.826a.967.967,0,0,0,0-1.933c-30.065-.241-60.13-.582-90.2-.826a.967.967,0,0,0,0,1.933" transform="translate(-5825.387 -750.177)" fill="#231815"/>
    <path id="패스_2422" data-name="패스 2422" d="M85.05,20.412q-.738,50.534.483,101.062a.967.967,0,0,0,1.933,0q-1.225-50.523-.483-101.062a.967.967,0,0,0-1.933,0" transform="translate(-5772.168 -749.248)" fill="#231815"/>
    <path id="패스_2423" data-name="패스 2423" d="M48.562,62.795c30.616.863,61.188,1.8,91.816.846,1.238-.037,1.245-1.969,0-1.93-30.628.953-61.2.015-91.816-.848a.967.967,0,0,0,0,1.933" transform="translate(-5825.548 -689.777)" fill="#231815"/>
    <path id="패스_2424" data-name="패스 2424" d="M50.384,60.8a5.919,5.919,0,0,0-3.3.258,1,1,0,0,0-.675,1.189q.508,2.405,1.014,4.809a.976.976,0,0,0,.931.709c20.292.412,40.584.909,60.881,1.021q15.6.084,31.2-.122c2.037-.024,7.221.3,7.287-3.007.044-2.252-4.275-3.9-5.993-3.368-1.184.37-.68,2.235.512,1.864.78-.244,4.341.865,2.1,2.423-.553.388-3.188.149-3.9.158q-3.221.04-6.441.071-6.372.059-12.742.073-11.823.018-23.645-.127c-16.419-.195-32.836-.585-49.253-.916q.468.355.931.709-.5-2.405-1.014-4.811l-.673,1.189,2.276-.261c1.216.2,1.74-1.662.514-1.862" transform="translate(-5827.346 -690.031)" fill="#231815"/>
    <path id="패스_2425" data-name="패스 2425" d="M141.034,25.066a5.919,5.919,0,0,0,3.3-.258,1,1,0,0,0,.675-1.189q-.508-2.405-1.014-4.809a.976.976,0,0,0-.931-.709c-19.861-.409-39.706-1.265-59.567-1.628-10.4-.19-20.813-.261-31.218-.083-2.635.046-6.541.453-5.815,4.094.444,2.225,3.639,4.57,5.869,3.912a.966.966,0,0,0-.514-1.862,3.4,3.4,0,0,1-2.866-1.445c-1.411-3.22,1.911-2.732,3.327-2.766,2.342-.058,4.687-.054,7.026-.068q6.006-.037,12.015,0,11.673.073,23.346.407c16.134.431,32.261,1.038,48.4,1.37q-.468-.355-.931-.709.5,2.405,1.014,4.811l.673-1.189-2.276.261c-1.216-.2-1.74,1.662-.514,1.862" transform="translate(-5827.343 -753.839)" fill="#231815"/>
    <path id="패스_2426" data-name="패스 2426" d="M48.443,19.89Q49.5,70.8,47.132,121.705c-.059,1.243,1.874,1.241,1.93,0q2.376-50.87,1.314-101.815a.967.967,0,0,0-1.933,0" transform="translate(-5826.265 -750)" fill="#231815"/>
    <path id="패스_2427" data-name="패스 2427" d="M47.247,51.4q49.035-.826,98.038,1.879c1.241.068,1.238-1.864,0-1.933q-48.969-2.7-98.038-1.879a.967.967,0,0,0,0,1.933" transform="translate(-5827.438 -706.426)" fill="#231815"/>
    <path id="패스_2428" data-name="패스 2428" d="M49.447,50.62c.373,9.027.836,18.055,1.1,27.084.037,1.241,1.969,1.245,1.933,0-.266-9.03-.726-18.057-1.1-27.084-.051-1.238-1.984-1.245-1.933,0" transform="translate(-5822.938 -705.834)" fill="#231815"/>
    <path id="패스_2429" data-name="패스 2429" d="M46.15,50.888c.373,9.027.836,18.055,1.1,27.084.037,1.241,1.969,1.245,1.933,0-.266-9.03-.726-18.057-1.1-27.084-.051-1.238-1.984-1.245-1.933,0" transform="translate(-5827.676 -705.449)" fill="#231815"/>
    <path id="패스_2430" data-name="패스 2430" d="M52.124,50.342A202.919,202.919,0,0,1,53.16,78.065c-.037,1.245,1.894,1.241,1.933,0a202.919,202.919,0,0,0-1.036-27.723c-.132-1.223-2.064-1.238-1.933,0" transform="translate(-5819.098 -706.222)" fill="#231815"/>
    <path id="패스_2431" data-name="패스 2431" d="M55.212,50.619q.691,13.852.451,27.728a.967.967,0,0,0,1.933,0q.241-13.87-.451-27.728c-.063-1.238-2-1.245-1.933,0" transform="translate(-5814.653 -705.836)" fill="#231815"/>
    <path id="패스_2432" data-name="패스 2432" d="M58.249,50.437q.428,13.753.851,27.508c.041,1.238,1.974,1.245,1.935,0q-.428-13.757-.853-27.508c-.039-1.241-1.972-1.245-1.933,0" transform="translate(-5810.287 -706.099)" fill="#231815"/>
    <path id="패스_2433" data-name="패스 2433" d="M61.309,50.165q.585,13.972-.024,27.954c-.054,1.243,1.879,1.241,1.933,0q.607-13.972.024-27.954c-.054-1.238-1.984-1.245-1.933,0" transform="translate(-5805.925 -706.488)" fill="#231815"/>
    <path id="패스_2434" data-name="패스 2434" d="M63.737,50.809A120.262,120.262,0,0,1,64.281,78.7c-.119,1.236,1.813,1.228,1.933,0A122.271,122.271,0,0,0,65.6,50.295c-.168-1.226-2.03-.7-1.862.514" transform="translate(-5802.414 -705.969)" fill="#231815"/>
    <path id="패스_2435" data-name="패스 2435" d="M67.413,50.439c-.11,9.454.136,18.915-.509,28.354-.085,1.241,1.845,1.236,1.93,0,.648-9.439.4-18.9.512-28.354a.967.967,0,0,0-1.933,0" transform="translate(-5797.852 -706.097)" fill="#231815"/>
    <path id="패스_2436" data-name="패스 2436" d="M70,50.53q.135,13.863.271,27.725a.967.967,0,0,0,1.933,0L71.936,50.53a.967.967,0,0,0-1.933,0" transform="translate(-5793.394 -705.968)" fill="#231815"/>
    <path id="패스_2437" data-name="패스 2437" d="M73.456,50.8q.029,13.643.061,27.284a.966.966,0,0,0,1.93,0q-.029-13.64-.059-27.284a.967.967,0,0,0-1.933,0" transform="translate(-5788.431 -705.575)" fill="#231815"/>
    <path id="패스_2438" data-name="패스 2438" d="M76.277,50.709l1.06,27.959c.046,1.241,1.979,1.245,1.933,0L78.21,50.709c-.049-1.238-1.979-1.245-1.933,0" transform="translate(-5784.377 -705.706)" fill="#231815"/>
    <path id="패스_2439" data-name="패스 2439" d="M79.054,51.078a190.2,190.2,0,0,1,1.733,26.794.967.967,0,0,0,1.933,0,193.836,193.836,0,0,0-1.8-27.309c-.166-1.226-2.028-.7-1.862.514" transform="translate(-5780.4 -705.583)" fill="#231815"/>
    <path id="패스_2440" data-name="패스 2440" d="M82.782,51.157a206.658,206.658,0,0,1,1.877,26.6.966.966,0,0,0,1.93,0,209.845,209.845,0,0,0-1.945-27.116c-.166-1.226-2.028-.7-1.862.514" transform="translate(-5775.042 -705.469)" fill="#231815"/>
    <path id="패스_2441" data-name="패스 2441" d="M86.994,51.349a74.547,74.547,0,0,1,.292,12.985c-.1,2.089-.222,4.17-.312,6.256-.044,1.046-.083,2.089-.1,3.134-.007.341.224,3.28.01,3.436-.987.736-.024,2.41.975,1.672,1.5-1.109.916-3.475.948-5.108.049-2.525.193-5.047.322-7.567a82.56,82.56,0,0,0-.2-14.808c-.156-1.216-2.091-1.233-1.933,0" transform="translate(-5769.73 -704.769)" fill="#231815"/>
    <path id="패스_2442" data-name="패스 2442" d="M144.434,21.885c-.212-1.6-.071-3.207-.283-4.809a1,1,0,0,0-.968-.968c-18.225-.375-36.443-1.119-54.671-1.526q-13.409-.3-26.824-.263-4.043.015-8.091.063c-1.645.022-3.67-.224-5.211.507-2.388,1.133-2.257,3.826-.678,5.574.834.924,2.2-.446,1.367-1.367q-.632-2.877,1.372-2.688a14.092,14.092,0,0,1,1.952-.078c1.184-.029,2.376-.029,3.561-.039q3.14-.033,6.285-.041,5.9-.018,11.8.034,11.1.1,22.188.424c15.649.431,31.3,1.011,46.952,1.333l-.963-.965c.21,1.6.071,3.2.28,4.809.161,1.216,2.094,1.231,1.933,0" transform="translate(-5827.094 -756.675)" fill="#231815"/>
    <path id="패스_2443" data-name="패스 2443" d="M144.434,20.147c-.212-1.6-.071-3.207-.283-4.809a1,1,0,0,0-.968-.968c-18.225-.375-36.443-1.119-54.671-1.526q-13.409-.3-26.824-.263-4.043.015-8.091.063c-1.645.022-3.67-.224-5.211.507-2.388,1.133-2.257,3.826-.678,5.574.834.924,2.2-.446,1.367-1.367q-.632-2.877,1.372-2.688a14.092,14.092,0,0,1,1.952-.078c1.184-.029,2.376-.029,3.561-.039q3.14-.033,6.285-.041,5.9-.018,11.8.034,11.1.1,22.188.424c15.649.431,31.3,1.011,46.952,1.333l-.963-.965c.21,1.6.071,3.2.28,4.809.161,1.216,2.094,1.231,1.933,0" transform="translate(-5827.094 -759.173)" fill="#231815"/>
  </g>
</svg>
