<svg xmlns="http://www.w3.org/2000/svg" xmlns:xlink="http://www.w3.org/1999/xlink" width="101.719" height="126.536" viewBox="0 0 101.719 126.536">
  <defs>
    <clipPath id="clip-path">
      <rect id="사각형_1848" data-name="사각형 1848" width="90.205" height="102.598" fill="none"/>
    </clipPath>
  </defs>
  <g id="그룹_1807" data-name="그룹 1807" transform="translate(5894.001 576.349)">
    <g id="그룹_1806" data-name="그룹 1806">
      <g id="그룹_1054" data-name="그룹 1054" transform="translate(-5889.187 -558.332)" clip-path="url(#clip-path)">
        <rect id="사각형_1847" data-name="사각형 1847" width="90.202" height="102.598" transform="translate(0 0.002)" fill="#b67cb2"/>
        <path id="패스_2251" data-name="패스 2251" d="M79.994,129.81l.046,1.589-.809,1.479L78,134.068l-1.545.763L75.2,136.094l-1.64.57-1.365,1.265-1.8.139-1.535.921-1.672.49-1.855-.28L63.8,140.266l-1.852-.478-1.667.48-1.621.89-1.833-.6-1.723,0-1.63,1.046-1.723.253-1.8-.977L48.236,141l-1.708.831-1.747-.487-1.752.419-1.738-.322-1.755.653-1.7-1.109-1.791.985-1.655-1.3-1.762.314-1.74-.015L29.2,140.51l-1.767.156-1.623-.812-1.7-.258-1.889.656-1.465-1.382-1.662-.395-1.589-.658-1.835.122-1.745-.268-1.365-1.223-1.511-.785-1.8-.322L7.9,134.21l-1.582-.929-.478-1.821-.292-1.65,0-1.8.994-1.513,1.323-1.185L9.2,124.142l1.916-.11,1.336-1.182,1.838-.024,1.618-.519,1.626-.509,1.689-.288,1.382-1.6,1.669-.461,1.877.621,1.718-.132,1.687-.324,1.579-1.267,1.74.032,1.684-.568,1.808.848,1.73-.063,1.674-1.111,1.765.553,1.728-.653,1.765,1.167,1.743-.67,1.755-.5,1.7,1.177,1.747-.2,1.747-.107,1.718.3,1.648.885,1.762-.219,1.825-.575,1.538,1.377,1.784-.232,1.76,0,1.618.663,1.872-.373,1.582.8,1.479,1.053,1.752.219,1.628.595,1.726.429,1.326,1.214,1.521.887.641,1.784,1.57.977Z" transform="translate(3.157 -50.218)" fill="#62c3d9"/>
        <path id="패스_2252" data-name="패스 2252" d="M66.857,129.809a79.327,79.327,0,0,0-4.85-23.694c-2.23-6.1-9.188-11.5-20.116-7.124-6.069,2.425-10.794,11.116-13.8,18.367a20.284,20.284,0,0,0-12.878,5.552c-9.99,9.9-10.382,18.518-10.382,18.518L75.9,161.58s8.255-19.943-9.039-31.771" transform="translate(2.132 -78.931)" fill="#f5b314" fill-rule="evenodd"/>
        <path id="패스_2253" data-name="패스 2253" d="M10.241,140.692s15.571-54.517,41.12-43,8.654,59.216,6.456,69.518L51.4,165.57s6.961-25.934,6.583-40.284C57.656,112.913,46.4,97.327,37.764,104.56c-16.083,13.456-23,47.086-23,47.086l-6.493-1.794Z" transform="translate(7.075 -80.813)" fill="#f08d24" fill-rule="evenodd"/>
        <path id="패스_2254" data-name="패스 2254" d="M13.508,116.814c.234.022.465.044.7.071l.3.037s.31.041.141.017c.431.059.86.129,1.289.207q1.283.234,2.544.578A.966.966,0,1,0,19,115.861a32.219,32.219,0,0,0-5.489-.98.969.969,0,0,0-.965.968.989.989,0,0,0,.965.965" transform="translate(13.211 -53.813)" fill="#f08d24"/>
        <path id="패스_2255" data-name="패스 2255" d="M17.662,117.6a44.929,44.929,0,0,1,7.923,2.1.976.976,0,0,0,1.189-.675.987.987,0,0,0-.675-1.189,45.189,45.189,0,0,0-7.923-2.1.994.994,0,0,0-1.189.673.976.976,0,0,0,.675,1.189" transform="translate(19.556 -52.61)" fill="#f08d24"/>
        <path id="패스_2256" data-name="패스 2256" d="M15.615,115.237a18.362,18.362,0,0,1,6.768,1.772.991.991,0,0,0,1.321-.346.976.976,0,0,0-.346-1.321,20.838,20.838,0,0,0-7.743-2.037.966.966,0,0,0,0,1.933" transform="translate(16.241 -56.079)" fill="#f08d24"/>
        <path id="패스_2257" data-name="패스 2257" d="M15.092,113.409c.834.041,1.665.11,2.493.21.1.01.195.022.292.034l.146.02c-.1-.012-.083-.01.034,0,.195.029.388.056.582.088.419.066.838.141,1.255.222a.967.967,0,1,0,.514-1.864,38.267,38.267,0,0,0-5.318-.646.973.973,0,0,0-.965.968.987.987,0,0,0,.965.965" transform="translate(15.488 -58.704)" fill="#f08d24"/>
        <path id="패스_2258" data-name="패스 2258" d="M19,114.371l4.908,1.1a.966.966,0,0,0,.514-1.862l-4.908-1.1A.966.966,0,1,0,19,114.371" transform="translate(21.479 -57.256)" fill="#f08d24"/>
        <path id="패스_2259" data-name="패스 2259" d="M21.046,116.462a34.817,34.817,0,0,1,8.135,1.445.966.966,0,0,0,.512-1.862,36.958,36.958,0,0,0-8.647-1.516.966.966,0,0,0,0,1.933" transform="translate(24.046 -54.317)" fill="#f08d24"/>
        <path id="패스_2260" data-name="패스 2260" d="M23.6,115.2q3.082.947,6.234,1.626a.966.966,0,1,0,.514-1.862q-3.151-.68-6.234-1.626a.977.977,0,0,0-1.189.673A.987.987,0,0,0,23.6,115.2" transform="translate(28.089 -56.075)" fill="#f08d24"/>
        <path id="패스_2261" data-name="패스 2261" d="M23.387,118.438a23.562,23.562,0,0,1,4.584,1.272.971.971,0,0,0,1.189-.675.993.993,0,0,0-.675-1.189,23.554,23.554,0,0,0-4.584-1.27.991.991,0,0,0-1.189.673.976.976,0,0,0,.675,1.189" transform="translate(27.792 -51.401)" fill="#f08d24"/>
        <path id="패스_2262" data-name="패스 2262" d="M26.462,117.61a42.673,42.673,0,0,0,5.237,1.567.967.967,0,1,0,.514-1.864,42.662,42.662,0,0,1-5.237-1.565.972.972,0,0,0-1.189.673.992.992,0,0,0,.675,1.189" transform="translate(32.206 -52.628)" fill="#f08d24"/>
        <path id="패스_2263" data-name="패스 2263" d="M27.026,114.318c.395.007.79.029,1.182.063.212.019.424.044.634.068-.2-.024.09.012.1.015l.314.051a16.869,16.869,0,0,1,2.345.573.974.974,0,0,0,1.189-.675.992.992,0,0,0-.675-1.189,18.059,18.059,0,0,0-5.094-.838.966.966,0,0,0,0,1.933" transform="translate(32.639 -57.398)" fill="#f08d24"/>
        <path id="패스_2264" data-name="패스 2264" d="M22.158,113.119a28.314,28.314,0,0,1,5.952,1.509.973.973,0,0,0,1.189-.675,1,1,0,0,0-.675-1.189,28.348,28.348,0,0,0-5.952-1.506.993.993,0,0,0-1.189.673.978.978,0,0,0,.675,1.189" transform="translate(26.028 -59.038)" fill="#f08d24"/>
        <path id="패스_2265" data-name="패스 2265" d="M16.793,111.725A39.16,39.16,0,0,1,23.7,113.77a.972.972,0,0,0,1.187-.675.986.986,0,0,0-.675-1.187,38.929,38.929,0,0,0-6.9-2.045.99.99,0,0,0-1.189.673.978.978,0,0,0,.675,1.189" transform="translate(18.307 -61.054)" fill="#f08d24"/>
        <path id="패스_2266" data-name="패스 2266" d="M13.79,110.821q1.685.5,3.368,1a.966.966,0,1,0,.514-1.862q-1.685-.5-3.368-1a.977.977,0,0,0-1.189.673.987.987,0,0,0,.675,1.189" transform="translate(13.996 -62.372)" fill="#f08d24"/>
        <path id="패스_2267" data-name="패스 2267" d="M12.358,114.914l.124.017c-.085-.012-.171-.024-.256-.034q1.561.212,3.1.541a.966.966,0,1,0,.514-1.862c-1.153-.249-2.315-.439-3.485-.595a.967.967,0,0,0-.682,1.65,1.143,1.143,0,0,0,.682.283" transform="translate(11.558 -56.546)" fill="#f08d24"/>
        <path id="패스_2268" data-name="패스 2268" d="M15.337,118.8a12.251,12.251,0,0,1,1.3.039l.278.029.185.022c-.1-.015-.1-.012.019,0,.2.034.4.066.6.107a11.575,11.575,0,0,1,1.214.327c.207.066.412.141.614.219.007,0,.28.117.115.041.115.051.227.1.339.156a.992.992,0,0,0,1.323-.346.977.977,0,0,0-.349-1.321,12.627,12.627,0,0,0-5.64-1.211.966.966,0,0,0,0,1.933" transform="translate(15.84 -50.964)" fill="#f08d24"/>
        <path id="패스_2269" data-name="패스 2269" d="M20.9,119.943l7.185,1.747a.966.966,0,1,0,.514-1.862l-7.185-1.747a.966.966,0,1,0-.514,1.862" transform="translate(24.202 -49.253)" fill="#f08d24"/>
        <path id="패스_2270" data-name="패스 2270" d="M26.216,120.828q2.841.9,5.679,1.808a.978.978,0,0,0,1.189-.675.991.991,0,0,0-.675-1.189l-5.679-1.806a.973.973,0,0,0-1.189.673.987.987,0,0,0,.675,1.189" transform="translate(31.854 -47.993)" fill="#f08d24"/>
        <path id="패스_2271" data-name="패스 2271" d="M17.374,117.942a63.41,63.41,0,0,0-6.951-2.725.966.966,0,1,0-.512,1.862,60.071,60.071,0,0,1,6.488,2.53.99.99,0,0,0,1.321-.346.973.973,0,0,0-.346-1.321" transform="translate(8.411 -53.384)" fill="#f08d24"/>
        <path id="패스_2272" data-name="패스 2272" d="M15.585,108.8l5.064,1.467a.966.966,0,1,0,.512-1.862q-2.53-.735-5.062-1.467a.977.977,0,0,0-1.189.673.987.987,0,0,0,.675,1.189" transform="translate(16.576 -65.27)" fill="#f08d24"/>
        <path id="패스_2273" data-name="패스 2273" d="M20.106,110.11l5.861,1.691a.967.967,0,0,0,.514-1.864l-5.861-1.689a.975.975,0,0,0-1.189.673.986.986,0,0,0,.675,1.189" transform="translate(23.073 -63.392)" fill="#f08d24"/>
        <path id="패스_2274" data-name="패스 2274" d="M24.908,111.6q3.36,1.192,6.817,2.069a.966.966,0,1,0,.514-1.862q-3.455-.877-6.817-2.069a.976.976,0,0,0-1.189.673.988.988,0,0,0,.675,1.189" transform="translate(29.963 -61.264)" fill="#f08d24"/>
        <path id="패스_2275" data-name="패스 2275" d="M27.02,110.248q3.7,1.115,7.409,2.232a.968.968,0,0,0,.514-1.864l-7.409-2.23a.966.966,0,0,0-.514,1.862" transform="translate(33.047 -63.211)" fill="#f08d24"/>
        <path id="패스_2276" data-name="패스 2276" d="M23.4,108.791q1.283.409,2.535.909l.268.11.178.073c-.083-.034-.071-.029.034.017.207.088.412.178.617.271.409.183.816.378,1.219.575a.966.966,0,1,0,.975-1.667,37.653,37.653,0,0,0-5.311-2.15.974.974,0,0,0-1.189.673.987.987,0,0,0,.675,1.189" transform="translate(27.811 -65.293)" fill="#f08d24"/>
        <path id="패스_2277" data-name="패스 2277" d="M18.091,107.884q2.892,1.027,5.783,2.052a.971.971,0,0,0,1.189-.673.993.993,0,0,0-.675-1.189q-2.892-1.027-5.783-2.052a.971.971,0,0,0-1.189.673.993.993,0,0,0,.675,1.189" transform="translate(20.176 -66.603)" fill="#f08d24"/>
        <path id="패스_2278" data-name="패스 2278" d="M15.869,105.78a39.132,39.132,0,0,0,6.5,2.03.989.989,0,0,0,1.189-.675.976.976,0,0,0-.675-1.187,39.366,39.366,0,0,1-6.5-2.03.972.972,0,0,0-1.189.673.992.992,0,0,0,.675,1.189" transform="translate(16.971 -69.64)" fill="#f08d24"/>
        <path id="패스_2279" data-name="패스 2279" d="M20.994,107q2.4.665,4.8,1.328a.966.966,0,0,0,.512-1.862q-2.4-.665-4.8-1.328A.966.966,0,1,0,20.994,107" transform="translate(24.35 -67.855)" fill="#f08d24"/>
        <path id="패스_2280" data-name="패스 2280" d="M26.186,108.209l4.448,1.128a.966.966,0,1,0,.514-1.862q-2.226-.567-4.448-1.128a.966.966,0,1,0-.514,1.862" transform="translate(31.812 -66.117)" fill="#f08d24"/>
        <path id="패스_2281" data-name="패스 2281" d="M30.045,120.821a10.676,10.676,0,0,1,1.082.09l-.256-.037a10.526,10.526,0,0,1,2.347.609.973.973,0,0,0,.746-.1.966.966,0,0,0-.232-1.765,11.231,11.231,0,0,0-3.687-.734.974.974,0,0,0-.965.968.985.985,0,0,0,.965.965" transform="translate(36.978 -48.052)" fill="#f08d24"/>
        <path id="패스_2282" data-name="패스 2282" d="M31.294,122.406q1.985.3,3.936.768a.966.966,0,1,0,.512-1.862q-1.949-.472-3.934-.768a1.044,1.044,0,0,0-.746.1.989.989,0,0,0-.444.575.978.978,0,0,0,.675,1.189" transform="translate(39.157 -45.708)" fill="#f08d24"/>
        <path id="패스_2283" data-name="패스 2283" d="M33.031,121.337l2.832.921a.972.972,0,0,0,1.189-.673.988.988,0,0,0-.675-1.189l-2.834-.921a.97.97,0,0,0-1.187.673.991.991,0,0,0,.675,1.189" transform="translate(41.649 -47.264)" fill="#f08d24"/>
        <path id="패스_2284" data-name="패스 2284" d="M31.513,119.39a25.543,25.543,0,0,0,3.692,1.326.967.967,0,1,0,.514-1.864q-.874-.234-1.726-.534c-.278-.1-.553-.2-.829-.312-.141-.056-.29-.1-.427-.173.239.119.037.015-.01,0l-.241-.1a1.039,1.039,0,0,0-.743-.1.966.966,0,0,0-.232,1.765" transform="translate(39.808 -49.913)" fill="#f08d24"/>
        <path id="패스_2285" data-name="패스 2285" d="M30.448,117.677a30.277,30.277,0,0,0,2.89,1.009.976.976,0,0,0,1.187-.675.988.988,0,0,0-.675-1.189,29.555,29.555,0,0,1-2.888-1.007.964.964,0,0,0-.746.1.964.964,0,0,0-.346,1.321,1.139,1.139,0,0,0,.578.444" transform="translate(37.931 -52.526)" fill="#f08d24"/>
        <path id="패스_2286" data-name="패스 2286" d="M33.3,118.5c.665.188,1.331.373,2,.561a1.014,1.014,0,0,0,.743-.1.968.968,0,0,0,.346-1.323,1.014,1.014,0,0,0-.578-.444l-2-.558a.968.968,0,0,0-1.189.673.982.982,0,0,0,.1.746,1,1,0,0,0,.578.444" transform="translate(42.024 -51.335)" fill="#f08d24"/>
        <path id="패스_2287" data-name="패스 2287" d="M30.939,116.3l5.021,1.726a.972.972,0,0,0,1.189-.675.989.989,0,0,0-.675-1.187l-5.021-1.726a.973.973,0,0,0-1.189.673.991.991,0,0,0,.675,1.189" transform="translate(38.64 -54.513)" fill="#f08d24"/>
        <path id="패스_2288" data-name="패스 2288" d="M31.234,114.739a14.194,14.194,0,0,1,2.576.8c-.078-.032-.154-.063-.232-.1.119.051.236.1.353.156a1.044,1.044,0,0,0,.746.1.967.967,0,0,0,.673-1.187.939.939,0,0,0-.444-.578,15.2,15.2,0,0,0-3.159-1.048,1.02,1.02,0,0,0-.746.1.965.965,0,0,0,.232,1.765" transform="translate(39.069 -56.732)" fill="#f08d24"/>
        <path id="패스_2289" data-name="패스 2289" d="M6.326,115.873l3.09,1.28a.968.968,0,0,0,.743-.1.988.988,0,0,0,.446-.578.976.976,0,0,0-.1-.743,1.143,1.143,0,0,0-.578-.446q-1.546-.64-3.09-1.277a.964.964,0,0,0-.746.1.964.964,0,0,0-.346,1.321,1.152,1.152,0,0,0,.578.444" transform="translate(3.264 -55.119)" fill="#f08d24"/>
        <path id="패스_2290" data-name="패스 2290" d="M29.538,123.244q1.459.263,2.888.641a.967.967,0,1,0,.514-1.864c-.953-.251-1.918-.466-2.888-.639a1.032,1.032,0,0,0-.746.1.965.965,0,0,0,.232,1.765" transform="translate(36.633 -44.506)" fill="#f08d24"/>
        <path id="패스_2291" data-name="패스 2291" d="M32.286,123.834a18.415,18.415,0,0,1,3.553.892.969.969,0,0,0,1.187-.673.991.991,0,0,0-.673-1.189,18.418,18.418,0,0,0-3.553-.892,1.044,1.044,0,0,0-.746.1.964.964,0,0,0-.346,1.321.941.941,0,0,0,.578.444" transform="translate(40.573 -43.656)" fill="#f08d24"/>
        <path id="패스_2292" data-name="패스 2292" d="M7.841,115.365a26.381,26.381,0,0,0,5.3,1.116.966.966,0,0,0,.965-.968.99.99,0,0,0-.965-.963l-.331-.039c-.037,0-.356-.049-.171-.022-.19-.027-.38-.054-.568-.085-.427-.068-.848-.151-1.27-.239q-1.239-.274-2.444-.663a.968.968,0,0,0-1.189.673.991.991,0,0,0,.675,1.189" transform="translate(5.446 -55.849)" fill="#f08d24"/>
        <path id="패스_2293" data-name="패스 2293" d="M7.321,113.506l4.168,1.416a.97.97,0,0,0,1.187-.675A.987.987,0,0,0,12,113.06l-4.165-1.416a.973.973,0,0,0-1.189.673.992.992,0,0,0,.675,1.189" transform="translate(4.697 -58.521)" fill="#f08d24"/>
        <path id="패스_2294" data-name="패스 2294" d="M9.492,111.729l3.6.79a.966.966,0,1,0,.514-1.862l-3.6-.79a.966.966,0,1,0-.514,1.862" transform="translate(7.822 -61.053)" fill="#f08d24"/>
        <path id="패스_2295" data-name="패스 2295" d="M9.651,110.433a15.716,15.716,0,0,1,4.745.929.971.971,0,0,0,1.189-.673.994.994,0,0,0-.675-1.189,18.089,18.089,0,0,0-5.259-1,.974.974,0,0,0-.965.968.985.985,0,0,0,.965.965" transform="translate(7.668 -62.981)" fill="#f08d24"/>
        <path id="패스_2296" data-name="패스 2296" d="M10.981,109q1.345.581,2.693,1.165a1.065,1.065,0,0,0,.743.1.965.965,0,0,0,.675-1.187.932.932,0,0,0-.444-.578l-2.693-1.163a1.052,1.052,0,0,0-.743-.1.965.965,0,0,0-.675,1.187.932.932,0,0,0,.444.578" transform="translate(10.278 -64.84)" fill="#f08d24"/>
        <path id="패스_2297" data-name="패스 2297" d="M19.736,104.275a16.959,16.959,0,0,1,3.612.948.975.975,0,0,0,.746-.1.966.966,0,0,0-.232-1.765,16.961,16.961,0,0,0-3.612-.948,1.044,1.044,0,0,0-.746.1.964.964,0,0,0-.346,1.321.941.941,0,0,0,.578.444" transform="translate(22.536 -71.765)" fill="#f08d24"/>
        <path id="패스_2298" data-name="패스 2298" d="M23.055,105.277l4.66.541a.969.969,0,0,0,.965-.968,1,1,0,0,0-.965-.965l-4.66-.541a.968.968,0,0,0-.965.968.994.994,0,0,0,.965.965" transform="translate(26.932 -70.396)" fill="#f08d24"/>
        <path id="패스_2299" data-name="패스 2299" d="M27.23,105.686q2.7.943,5.406,1.884a.973.973,0,0,0,1.187-.675.987.987,0,0,0-.675-1.187q-2.7-.947-5.4-1.884a.97.97,0,0,0-1.189.673.991.991,0,0,0,.675,1.189" transform="translate(33.31 -69.762)" fill="#f08d24"/>
        <path id="패스_2300" data-name="패스 2300" d="M24.9,103.252a48.149,48.149,0,0,1,5.35,2.081.966.966,0,0,0,.975-1.667,52.287,52.287,0,0,0-5.81-2.276.974.974,0,0,0-1.189.673.989.989,0,0,0,.675,1.189" transform="translate(29.966 -73.255)" fill="#f08d24"/>
        <path id="패스_2301" data-name="패스 2301" d="M21.642,102.652l3.848,1.375a.971.971,0,0,0,1.187-.675A.988.988,0,0,0,26,102.165l-3.846-1.375a.971.971,0,0,0-1.189.673.994.994,0,0,0,.675,1.189" transform="translate(25.279 -74.123)" fill="#f08d24"/>
        <path id="패스_2302" data-name="패스 2302" d="M18.465,102.221a15.792,15.792,0,0,0,3.644,1.406.966.966,0,1,0,.512-1.862,14.567,14.567,0,0,1-1.716-.536c-.139-.054-.275-.11-.412-.163-.068-.029-.039-.017.085.034-.039-.015-.078-.032-.115-.049-.068-.029-.136-.061-.2-.09-.278-.129-.551-.263-.821-.407a.966.966,0,1,0-.975,1.667" transform="translate(21.053 -74.576)" fill="#f08d24"/>
        <path id="패스_2303" data-name="패스 2303" d="M19.953,100.425a37.44,37.44,0,0,1,5.971,2.208.989.989,0,0,0,1.321-.346.979.979,0,0,0-.346-1.323,40.419,40.419,0,0,0-6.432-2.4.966.966,0,1,0-.514,1.862" transform="translate(22.854 -77.309)" fill="#f08d24"/>
        <path id="패스_2304" data-name="패스 2304" d="M21.987,105.9c-8.252,4.965-15.515,12.254-17.728,21.913-.278,1.211,1.584,1.728,1.862.514,2.106-9.183,9-16.039,16.841-20.76a.966.966,0,0,0-.975-1.667" transform="translate(1.266 -66.921)" fill="#f08d24"/>
        <path id="패스_2305" data-name="패스 2305" d="M31.788,113.354c6.359,7.4,6.836,17.65,4.977,26.809-.246,1.214,1.616,1.733,1.864.514,2.006-9.9,1.37-20.721-5.474-28.69-.812-.943-2.174.429-1.367,1.367" transform="translate(40.518 -58.425)" fill="#f08d24"/>
        <path id="패스_2306" data-name="패스 2306" d="M48.37,96.323a22.636,22.636,0,0,0-16.746,4.165c-4.533,3.556-8.018,8.623-10.95,13.519-6.551,10.938-11.148,23.075-12.388,35.812a.926.926,0,0,0,.478.834,31.76,31.76,0,0,0,4.809,1.687.966.966,0,0,0,.512-1.862c-1.35-.353-3.446-.619-3.722-2.081-.263-1.411.475-3.492.748-4.928a75.086,75.086,0,0,1,2.084-8.32,91.33,91.33,0,0,1,7.031-16.456,65.347,65.347,0,0,1,9.812-14.1c4.326-4.533,11.428-7.623,17.818-6.4,1.216.234,1.735-1.628.514-1.862" transform="translate(7.091 -80.898)" fill="#231815"/>
        <path id="패스_2307" data-name="패스 2307" d="M28.542,103.718c5.793,7.224,5.118,17.574,4.26,26.261a83.625,83.625,0,0,1-7.048,26.568.985.985,0,0,0,.346,1.321,22.05,22.05,0,0,0,5.8,2.108c1.214.256,1.733-1.606.514-1.864a20.192,20.192,0,0,1-5.342-1.911c.117.439.232.88.349,1.321a86.726,86.726,0,0,0,7.407-28.564c.795-9.054,1.067-19.139-4.921-26.607-.78-.968-2.137.407-1.367,1.367" transform="translate(32.036 -72.293)" fill="#231815"/>
        <path id="패스_2308" data-name="패스 2308" d="M12.435,108.527l5.584,2.169a.971.971,0,0,0,1.189-.675.994.994,0,0,0-.675-1.189q-2.793-1.082-5.584-2.167a.968.968,0,0,0-1.189.673,1,1,0,0,0,.675,1.189" transform="translate(12.046 -65.686)" fill="#231815"/>
        <path id="패스_2309" data-name="패스 2309" d="M11.124,110.576q2.983,1.265,5.964,2.532a1,1,0,0,0,1.321-.349.977.977,0,0,0-.346-1.321l-5.964-2.53a.991.991,0,0,0-1.321.346.975.975,0,0,0,.346,1.321" transform="translate(10.506 -62.551)" fill="#231815"/>
        <path id="패스_2310" data-name="패스 2310" d="M10.664,112.366l6.073,2.527a.966.966,0,0,0,1.187-.675,1,1,0,0,0-.675-1.189L11.178,110.5a.97.97,0,0,0-1.189.673,1,1,0,0,0,.675,1.189" transform="translate(9.499 -60.174)" fill="#231815"/>
        <path id="패스_2311" data-name="패스 2311" d="M10.282,114.289q2.873.852,5.744,1.713l-.578-1.418c-.012.02-.022.041-.032.061.115-.115.229-.232.346-.346l-.063.032.487-.132-.068-.007a.966.966,0,0,0-.965.965.992.992,0,0,0,.965.965,1.05,1.05,0,0,0,1-.563.979.979,0,0,0-.578-1.418q-2.87-.863-5.742-1.713a.977.977,0,0,0-1.189.673.987.987,0,0,0,.675,1.189" transform="translate(8.955 -57.388)" fill="#231815"/>
        <path id="패스_2312" data-name="패스 2312" d="M9.4,116.8q2.822.731,5.647,1.46a.966.966,0,1,0,.514-1.862q-2.822-.731-5.647-1.46A.966.966,0,1,0,9.4,116.8" transform="translate(7.689 -53.778)" fill="#231815"/>
        <path id="패스_2313" data-name="패스 2313" d="M29.477,113.651q2.475.578,4.887,1.377a.973.973,0,0,0,1.189-.675.991.991,0,0,0-.678-1.187q-2.413-.8-4.884-1.377a.966.966,0,1,0-.514,1.862" transform="translate(36.541 -58.293)" fill="#231815"/>
        <path id="패스_2314" data-name="패스 2314" d="M29.362,115.632a40.063,40.063,0,0,1,4.745,1.418.972.972,0,0,0,1.189-.673.992.992,0,0,0-.675-1.189,39.749,39.749,0,0,0-4.745-1.418.966.966,0,1,0-.514,1.862" transform="translate(36.378 -55.446)" fill="#231815"/>
        <path id="패스_2315" data-name="패스 2315" d="M29.086,117.56a39.371,39.371,0,0,1,4.509,1.4.969.969,0,0,0,1.187-.675.989.989,0,0,0-.673-1.187,39.525,39.525,0,0,0-4.509-1.4.966.966,0,1,0-.514,1.862" transform="translate(35.982 -52.677)" fill="#231815"/>
        <path id="패스_2316" data-name="패스 2316" d="M28.494,119.545q2.435.629,4.9,1.145a.966.966,0,0,0,.514-1.862q-2.464-.515-4.9-1.145a.966.966,0,1,0-.514,1.862" transform="translate(35.129 -49.827)" fill="#231815"/>
        <path id="패스_2317" data-name="패스 2317" d="M28.269,121.646a31.657,31.657,0,0,0,4.928,1.479.966.966,0,1,0,.514-1.862,31.5,31.5,0,0,1-4.928-1.479.97.97,0,0,0-1.189.673,1,1,0,0,0,.675,1.189" transform="translate(34.802 -46.832)" fill="#231815"/>
        <path id="패스_2318" data-name="패스 2318" d="M27.656,123.919l4.662,1.36a.977.977,0,0,0,1.189-.675.989.989,0,0,0-.675-1.189q-2.332-.676-4.662-1.357a.966.966,0,1,0-.514,1.862" transform="translate(33.924 -43.546)" fill="#231815"/>
        <path id="패스_2319" data-name="패스 2319" d="M24.514,107.719c1.258-.414,2.559-.687,3.817-1.1a.967.967,0,0,0-.514-1.864c-1.258.414-2.559.687-3.817,1.1a.966.966,0,1,0,.514,1.862" transform="translate(28.65 -68.422)" fill="#231815"/>
        <path id="패스_2320" data-name="패스 2320" d="M19.316,104.836a26.619,26.619,0,0,0,2.057,2.676.967.967,0,0,0,.682.283.982.982,0,0,0,.682-.283.965.965,0,0,0,.283-.682c-.01-.085-.022-.173-.034-.258a.983.983,0,0,0-.249-.427c-.378-.468-.775-.921-1.145-1.4l.151.195c-.268-.349-.526-.707-.76-1.082a1.006,1.006,0,0,0-.575-.444.966.966,0,0,0-1.092,1.418" transform="translate(22.757 -70.333)" fill="#231815"/>
        <path id="패스_2321" data-name="패스 2321" d="M22.006,109.63q1.013-.983,1.964-2.028H22.6a8.379,8.379,0,0,1,.651.631q.143.154.278.314l.132.161c.127.151-.107-.149.041.054a8.815,8.815,0,0,1,.907,1.523.97.97,0,0,0,1.321.349,1,1,0,0,0,.349-1.323,9.476,9.476,0,0,0-2.31-3.073.98.98,0,0,0-1.367,0q-.95,1.042-1.964,2.025a.967.967,0,0,0,1.367,1.367" transform="translate(24.447 -66.633)" fill="#231815"/>
      </g>
      <path id="패스_2322" data-name="패스 2322" d="M2.526,91.093c30.067.244,60.132.582,90.2.826a.967.967,0,0,0,0-1.933c-30.067-.241-60.132-.582-90.2-.826a.967.967,0,0,0,0,1.933" transform="translate(-5891.71 -649.107)" fill="#231815"/>
      <path id="패스_2323" data-name="패스 2323" d="M38.9,90.739q-.738,50.53.483,101.062a.967.967,0,0,0,1.933,0q-1.225-50.523-.483-101.062a.967.967,0,0,0-1.933,0" transform="translate(-5838.492 -648.178)" fill="#231815"/>
      <path id="패스_2324" data-name="패스 2324" d="M2.414,133.121c30.616.863,61.188,1.8,91.816.846,1.238-.037,1.245-1.969,0-1.93-30.628.953-61.2.015-91.816-.848a.967.967,0,0,0,0,1.933" transform="translate(-5891.871 -588.706)" fill="#231815"/>
      <path id="패스_2325" data-name="패스 2325" d="M4.235,131.13a5.919,5.919,0,0,0-3.3.258,1,1,0,0,0-.675,1.189q.508,2.406,1.014,4.809a.976.976,0,0,0,.931.709c20.463.417,40.925.916,61.392,1.024,10.629.056,21.262.049,31.89-.139,2.637-.046,6.544-.451,5.818-4.094-.58-2.9-3.685-3.273-5.956-2.169-1.119.546-.139,2.211.975,1.669q3.648,2.691,1.119,2.583a14.149,14.149,0,0,1-1.955.078c-1.189.032-2.384.032-3.573.046q-3.177.037-6.354.061-6.028.051-12.059.054-11.523.011-23.048-.139c-16.085-.2-32.166-.58-48.249-.9q.468.355.931.709l-1.014-4.811-.673,1.189,2.276-.261c1.216.2,1.74-1.662.514-1.862" transform="translate(-5893.67 -588.962)" fill="#231815"/>
      <path id="패스_2326" data-name="패스 2326" d="M94.885,95.391a5.919,5.919,0,0,0,3.3-.258,1,1,0,0,0,.675-1.189q-.508-2.406-1.014-4.809a.976.976,0,0,0-.931-.709C77.059,88.016,57.214,87.16,37.353,86.8c-10.4-.19-20.813-.261-31.218-.083C3.5,86.761-.406,87.168.32,90.809c.444,2.225,3.639,4.57,5.869,3.912a.966.966,0,0,0-.514-1.862,3.4,3.4,0,0,1-2.866-1.445c-1.411-3.22,1.911-2.732,3.327-2.766,2.342-.058,4.687-.054,7.026-.068q6.006-.037,12.015,0,11.673.073,23.346.407c16.132.431,32.261,1.038,48.4,1.37q-.468-.355-.931-.709.5,2.405,1.011,4.811c.227-.4.451-.792.675-1.189l-2.276.261c-1.216-.2-1.74,1.662-.514,1.862" transform="translate(-5893.667 -652.769)" fill="#231815"/>
      <path id="패스_2327" data-name="패스 2327" d="M2.294,90.215Q3.354,141.129.983,192.03c-.058,1.243,1.874,1.241,1.93,0Q5.289,141.16,4.227,90.215a.967.967,0,0,0-1.933,0" transform="translate(-5892.589 -648.931)" fill="#231815"/>
      <path id="패스_2328" data-name="패스 2328" d="M1.1,121.728q49.035-.826,98.038,1.879c1.241.068,1.238-1.864,0-1.933q-48.969-2.7-98.038-1.879a.967.967,0,0,0,0,1.933" transform="translate(-5893.763 -605.357)" fill="#231815"/>
      <path id="패스_2329" data-name="패스 2329" d="M3.3,120.946c.373,9.027.836,18.055,1.1,27.084.037,1.241,1.969,1.245,1.933,0-.266-9.03-.726-18.057-1.1-27.084-.051-1.238-1.984-1.245-1.933,0" transform="translate(-5889.262 -604.764)" fill="#231815"/>
      <path id="패스_2330" data-name="패스 2330" d="M0,121.214c.373,9.027.836,18.055,1.1,27.084.037,1.241,1.969,1.245,1.933,0-.266-9.03-.726-18.057-1.1-27.084-.051-1.238-1.984-1.245-1.933,0" transform="translate(-5894 -604.378)" fill="#231815"/>
      <path id="패스_2331" data-name="패스 2331" d="M5.975,120.667A202.919,202.919,0,0,1,7.011,148.39c-.037,1.245,1.894,1.243,1.933,0a202.919,202.919,0,0,0-1.036-27.723c-.132-1.223-2.064-1.238-1.933,0" transform="translate(-5885.422 -605.152)" fill="#231815"/>
      <path id="패스_2332" data-name="패스 2332" d="M9.063,120.945q.691,13.852.451,27.728a.967.967,0,0,0,1.933,0q.241-13.87-.451-27.728c-.063-1.238-2-1.245-1.933,0" transform="translate(-5880.977 -604.765)" fill="#231815"/>
      <path id="패스_2333" data-name="패스 2333" d="M12.1,120.762q.428,13.753.853,27.508c.039,1.238,1.972,1.245,1.933,0q-.428-13.757-.853-27.508c-.039-1.24-1.972-1.245-1.933,0" transform="translate(-5876.61 -605.03)" fill="#231815"/>
      <path id="패스_2334" data-name="패스 2334" d="M15.16,120.49q.585,13.972-.024,27.954c-.054,1.243,1.879,1.241,1.933,0q.607-13.972.024-27.954c-.054-1.238-1.984-1.245-1.933,0" transform="translate(-5872.249 -605.419)" fill="#231815"/>
      <path id="패스_2335" data-name="패스 2335" d="M17.588,121.134a120.262,120.262,0,0,1,.543,27.893c-.119,1.236,1.813,1.228,1.933,0a122.269,122.269,0,0,0-.614-28.408c-.168-1.226-2.03-.7-1.862.514" transform="translate(-5868.738 -604.9)" fill="#231815"/>
      <path id="패스_2336" data-name="패스 2336" d="M21.672,120.764q-.186,14.539-1.2,29.046c-.088,1.241,1.845,1.233,1.933,0q1.013-14.506,1.2-29.046a.967.967,0,0,0-1.933,0" transform="translate(-5864.584 -605.028)" fill="#231815"/>
      <path id="패스_2337" data-name="패스 2337" d="M23.854,120.854q.139,13.863.271,27.728a.967.967,0,0,0,1.933,0q-.132-13.863-.271-27.728a.967.967,0,0,0-1.933,0" transform="translate(-5859.718 -604.898)" fill="#231815"/>
      <path id="패스_2338" data-name="패스 2338" d="M27.308,121.127q.029,13.643.061,27.284a.966.966,0,0,0,1.93,0l-.058-27.284a.967.967,0,0,0-1.933,0" transform="translate(-5854.754 -604.506)" fill="#231815"/>
      <path id="패스_2339" data-name="패스 2339" d="M30.128,121.034l1.06,27.959c.046,1.241,1.979,1.245,1.933,0l-1.06-27.959c-.049-1.238-1.979-1.245-1.933,0" transform="translate(-5850.701 -604.637)" fill="#231815"/>
      <path id="패스_2340" data-name="패스 2340" d="M32.905,121.4A190.205,190.205,0,0,1,34.638,148.2a.967.967,0,0,0,1.933,0,193.836,193.836,0,0,0-1.8-27.309c-.166-1.226-2.028-.7-1.862.514" transform="translate(-5846.725 -604.513)" fill="#231815"/>
      <path id="패스_2341" data-name="패스 2341" d="M36.633,121.482a206.66,206.66,0,0,1,1.877,26.6.966.966,0,0,0,1.93,0A209.843,209.843,0,0,0,38.5,120.968c-.166-1.226-2.028-.7-1.862.514" transform="translate(-5841.367 -604.4)" fill="#231815"/>
      <path id="패스_2342" data-name="패스 2342" d="M40.845,121.673a74.57,74.57,0,0,1,.292,12.988c-.1,2.086-.222,4.17-.312,6.256-.044,1.043-.083,2.086-.1,3.132-.007.341.224,3.28.01,3.439-.987.734-.024,2.41.975,1.669,1.5-1.111.916-3.475.948-5.108.049-2.525.193-5.045.322-7.565a82.586,82.586,0,0,0-.2-14.811c-.156-1.216-2.091-1.231-1.933,0" transform="translate(-5836.054 -603.699)" fill="#231815"/>
      <path id="패스_2343" data-name="패스 2343" d="M98.134,92.111c-.212-1.6-.071-3.21-.283-4.809a1,1,0,0,0-.965-.97c-18.228-.375-36.445-1.119-54.673-1.526q-13.409-.3-26.824-.261-4.043.015-8.089.061c-1.648.022-3.673-.222-5.211.507C-.3,86.25-.169,88.941,1.41,90.691c.836.921,2.2-.446,1.367-1.367q-.632-2.877,1.372-2.691A13.76,13.76,0,0,1,6.1,86.557c1.184-.032,2.374-.032,3.558-.039,2.1-.024,4.192-.034,6.285-.041q5.9-.022,11.8.034c7.394.063,14.791.219,22.186.422,15.652.434,31.3,1.014,46.955,1.333l-.965-.963c.21,1.6.071,3.2.28,4.809.161,1.216,2.094,1.228,1.933,0" transform="translate(-5893.633 -655.749)" fill="#231815"/>
      <path id="패스_2344" data-name="패스 2344" d="M98.134,90c-.212-1.6-.071-3.207-.283-4.809a.992.992,0,0,0-.965-.968c-18.228-.375-36.445-1.119-54.673-1.526Q28.8,82.4,15.39,82.437q-4.043.015-8.089.063c-1.648.022-3.673-.224-5.211.507C-.3,84.141-.169,86.834,1.41,88.581c.836.924,2.2-.446,1.367-1.367q-.632-2.877,1.372-2.688A14.127,14.127,0,0,1,6.1,84.448c1.184-.029,2.374-.029,3.558-.039q3.144-.033,6.285-.041,5.9-.018,11.8.034,11.092.1,22.186.424c15.652.431,31.3,1.011,46.955,1.333l-.965-.965c.21,1.6.071,3.2.28,4.809.161,1.216,2.094,1.231,1.933,0" transform="translate(-5893.633 -658.779)" fill="#231815"/>
    </g>
  </g>
</svg>
