<svg xmlns="http://www.w3.org/2000/svg" width="101.719" height="126.536" viewBox="0 0 101.719 126.536">
  <g id="그룹_1808" data-name="그룹 1808" transform="translate(5781.528 576.349)">
    <path id="패스_2036" data-name="패스 2036" d="M46.15,121.214c.373,9.027.836,18.055,1.1,27.084.037,1.241,1.969,1.245,1.933,0-.266-9.03-.726-18.057-1.1-27.084-.051-1.238-1.984-1.245-1.933,0" transform="translate(-5827.676 -604.378)" fill="#231815"/>
    <path id="패스_2037" data-name="패스 2037" d="M86.994,121.673a74.57,74.57,0,0,1,.292,12.988c-.1,2.086-.222,4.17-.312,6.256-.044,1.043-.083,2.086-.1,3.132-.007.341.224,3.28.01,3.439-.987.734-.024,2.41.975,1.669,1.5-1.111.916-3.475.948-5.108.049-2.525.193-5.045.322-7.565a82.584,82.584,0,0,0-.2-14.811c-.156-1.216-2.091-1.231-1.933,0" transform="translate(-5769.73 -603.699)" fill="#231815"/>
    <path id="패스_2230" data-name="패스 2230" d="M48.676,91.093c30.067.244,60.132.582,90.2.826a.967.967,0,0,0,0-1.933c-30.065-.241-60.13-.582-90.2-.826a.967.967,0,0,0,0,1.933" transform="translate(-5825.387 -649.107)" fill="#231815"/>
    <path id="패스_2231" data-name="패스 2231" d="M85.05,90.739q-.738,50.53.483,101.062a.967.967,0,0,0,1.933,0q-1.225-50.523-.483-101.062a.967.967,0,0,0-1.933,0" transform="translate(-5772.168 -648.178)" fill="#231815"/>
    <path id="패스_2232" data-name="패스 2232" d="M48.562,133.121c30.616.863,61.188,1.8,91.816.846,1.238-.037,1.245-1.969,0-1.93-30.628.953-61.2.015-91.816-.848a.967.967,0,0,0,0,1.933" transform="translate(-5825.548 -588.706)" fill="#231815"/>
    <path id="패스_2233" data-name="패스 2233" d="M50.384,131.13a5.919,5.919,0,0,0-3.3.258,1,1,0,0,0-.675,1.189q.508,2.406,1.014,4.809a.976.976,0,0,0,.931.709c20.463.417,40.925.916,61.392,1.024,10.629.056,21.262.049,31.89-.139,2.637-.046,6.544-.451,5.818-4.094-.58-2.9-3.685-3.273-5.956-2.169-1.119.546-.139,2.211.975,1.669q3.648,2.691,1.119,2.583a14.149,14.149,0,0,1-1.955.078c-1.189.032-2.384.032-3.573.046q-3.177.037-6.354.061-6.028.051-12.059.054-11.523.011-23.048-.139c-16.085-.2-32.166-.58-48.249-.9q.468.355.931.709-.5-2.406-1.014-4.811l-.673,1.189,2.276-.261c1.216.2,1.74-1.662.514-1.862" transform="translate(-5827.346 -588.962)" fill="#231815"/>
    <path id="패스_2234" data-name="패스 2234" d="M141.034,95.391a5.919,5.919,0,0,0,3.3-.258,1,1,0,0,0,.675-1.189q-.508-2.406-1.014-4.809a.976.976,0,0,0-.931-.709C123.208,88.016,103.363,87.16,83.5,86.8c-10.4-.19-20.813-.261-31.218-.083-2.635.046-6.541.453-5.815,4.094.444,2.225,3.639,4.57,5.869,3.912a.966.966,0,0,0-.514-1.862,3.4,3.4,0,0,1-2.866-1.445c-1.411-3.22,1.911-2.732,3.327-2.766,2.342-.058,4.687-.054,7.026-.068q6.006-.037,12.015,0,11.673.073,23.346.407c16.134.431,32.261,1.038,48.4,1.37q-.468-.355-.931-.709.5,2.405,1.014,4.811l.673-1.189-2.276.261c-1.216-.2-1.74,1.662-.514,1.862" transform="translate(-5827.343 -652.769)" fill="#231815"/>
    <path id="패스_2235" data-name="패스 2235" d="M48.443,90.215q1.06,50.914-1.311,101.815c-.059,1.243,1.874,1.241,1.93,0q2.376-50.87,1.314-101.815a.967.967,0,0,0-1.933,0" transform="translate(-5826.265 -648.931)" fill="#231815"/>
    <path id="패스_2236" data-name="패스 2236" d="M47.247,121.728q49.035-.826,98.038,1.879c1.241.068,1.238-1.864,0-1.933q-48.969-2.7-98.038-1.879a.967.967,0,0,0,0,1.933" transform="translate(-5827.438 -605.357)" fill="#231815"/>
    <path id="패스_2237" data-name="패스 2237" d="M49.447,120.946c.373,9.027.836,18.055,1.1,27.084.037,1.241,1.969,1.245,1.933,0-.266-9.03-.726-18.057-1.1-27.084-.051-1.238-1.984-1.245-1.933,0" transform="translate(-5822.938 -604.764)" fill="#231815"/>
    <path id="패스_2238" data-name="패스 2238" d="M52.124,120.667A202.919,202.919,0,0,1,53.16,148.39c-.037,1.245,1.894,1.243,1.933,0a202.919,202.919,0,0,0-1.036-27.723c-.132-1.223-2.064-1.238-1.933,0" transform="translate(-5819.098 -605.152)" fill="#231815"/>
    <path id="패스_2239" data-name="패스 2239" d="M55.212,120.945q.691,13.852.451,27.728a.967.967,0,0,0,1.933,0q.241-13.87-.451-27.728c-.063-1.238-2-1.245-1.933,0" transform="translate(-5814.653 -604.765)" fill="#231815"/>
    <path id="패스_2240" data-name="패스 2240" d="M58.249,120.762q.428,13.753.851,27.508c.041,1.238,1.974,1.245,1.935,0q-.428-13.757-.853-27.508c-.039-1.24-1.972-1.245-1.933,0" transform="translate(-5810.287 -605.03)" fill="#231815"/>
    <path id="패스_2241" data-name="패스 2241" d="M61.309,120.49q.585,13.972-.024,27.954c-.054,1.243,1.879,1.241,1.933,0q.607-13.972.024-27.954c-.054-1.238-1.984-1.245-1.933,0" transform="translate(-5805.925 -605.419)" fill="#231815"/>
    <path id="패스_2242" data-name="패스 2242" d="M63.737,121.134a120.262,120.262,0,0,1,.543,27.893c-.119,1.236,1.813,1.228,1.933,0A122.27,122.27,0,0,0,65.6,120.62c-.168-1.226-2.03-.7-1.862.514" transform="translate(-5802.414 -604.9)" fill="#231815"/>
    <path id="패스_2243" data-name="패스 2243" d="M67.821,120.764q-.186,14.539-1.2,29.046c-.088,1.241,1.845,1.233,1.933,0q1.013-14.506,1.2-29.046a.967.967,0,0,0-1.933,0" transform="translate(-5798.26 -605.028)" fill="#231815"/>
    <path id="패스_2244" data-name="패스 2244" d="M70,120.854l.271,27.728a.967.967,0,0,0,1.933,0l-.271-27.728a.967.967,0,0,0-1.933,0" transform="translate(-5793.394 -604.898)" fill="#231815"/>
    <path id="패스_2245" data-name="패스 2245" d="M73.456,121.127q.029,13.643.061,27.284a.966.966,0,0,0,1.93,0q-.029-13.64-.059-27.284a.967.967,0,0,0-1.933,0" transform="translate(-5788.431 -604.506)" fill="#231815"/>
    <path id="패스_2246" data-name="패스 2246" d="M76.277,121.034l1.06,27.959c.046,1.241,1.979,1.245,1.933,0l-1.06-27.959c-.049-1.238-1.979-1.245-1.933,0" transform="translate(-5784.377 -604.637)" fill="#231815"/>
    <path id="패스_2247" data-name="패스 2247" d="M79.054,121.4A190.205,190.205,0,0,1,80.787,148.2a.967.967,0,0,0,1.933,0,193.837,193.837,0,0,0-1.8-27.309c-.166-1.226-2.028-.7-1.862.514" transform="translate(-5780.4 -604.513)" fill="#231815"/>
    <path id="패스_2248" data-name="패스 2248" d="M82.782,121.482a206.659,206.659,0,0,1,1.877,26.6.966.966,0,0,0,1.93,0,209.844,209.844,0,0,0-1.945-27.116c-.166-1.226-2.028-.7-1.862.514" transform="translate(-5775.042 -604.4)" fill="#231815"/>
    <path id="패스_2249" data-name="패스 2249" d="M144.434,92.111c-.212-1.6-.071-3.21-.283-4.809a1,1,0,0,0-.968-.97c-18.225-.375-36.443-1.119-54.671-1.526q-13.409-.3-26.824-.261-4.043.015-8.091.061c-1.645.022-3.67-.222-5.211.507C46,86.25,46.131,88.941,47.71,90.691c.834.921,2.2-.446,1.367-1.367q-.632-2.877,1.372-2.691a13.726,13.726,0,0,1,1.952-.076c1.184-.032,2.376-.032,3.561-.039,2.094-.024,4.189-.034,6.285-.041q5.9-.022,11.8.034c7.4.063,14.794.219,22.188.422,15.649.434,31.3,1.014,46.952,1.333l-.963-.963c.21,1.6.071,3.2.28,4.809.161,1.216,2.094,1.228,1.933,0" transform="translate(-5827.094 -655.749)" fill="#231815"/>
    <path id="패스_2250" data-name="패스 2250" d="M144.434,90c-.212-1.6-.071-3.207-.283-4.809a1,1,0,0,0-.968-.968c-18.225-.375-36.443-1.119-54.671-1.526q-13.409-.3-26.824-.263-4.043.015-8.091.063c-1.645.022-3.67-.224-5.211.507-2.388,1.133-2.257,3.826-.678,5.574.834.924,2.2-.446,1.367-1.367q-.632-2.877,1.372-2.688a14.092,14.092,0,0,1,1.952-.078c1.184-.029,2.376-.029,3.561-.039q3.14-.033,6.285-.041,5.9-.018,11.8.034,11.1.1,22.188.424c15.649.431,31.3,1.011,46.952,1.333l-.963-.965c.21,1.6.071,3.2.28,4.809.161,1.216,2.094,1.231,1.933,0" transform="translate(-5827.094 -658.779)" fill="#231815"/>
  </g>
</svg>
