<svg xmlns="http://www.w3.org/2000/svg" xmlns:xlink="http://www.w3.org/1999/xlink" width="144" height="153" viewBox="0 0 144 153">
  <defs>
    <clipPath id="clip-path">
      <rect id="사각형_2491" data-name="사각형 2491" width="144" height="153" transform="translate(249 4581)" fill="none" stroke="#707070" stroke-width="1"/>
    </clipPath>
    <clipPath id="clip-path-2">
      <rect id="사각형_2014" data-name="사각형 2014" width="154.973" height="162.812" fill="#fff"/>
    </clipPath>
    <clipPath id="clip-path-3">
      <rect id="사각형_2013" data-name="사각형 2013" width="160.509" height="160.641" fill="none"/>
    </clipPath>
  </defs>
  <g id="마스크_그룹_63" data-name="마스크 그룹 63" transform="translate(-249 -4581)" clip-path="url(#clip-path)">
    <g id="마스크_그룹_40" data-name="마스크 그룹 40" transform="translate(240.027 4571.106)" clip-path="url(#clip-path-2)">
      <g id="그룹_1493" data-name="그룹 1493" transform="translate(19.758 24.156)">
        <g id="그룹_1492" data-name="그룹 1492" transform="translate(0 0)" clip-path="url(#clip-path-3)">
          <path id="패스_4718" data-name="패스 4718" d="M17.073,15.9A13.11,13.11,0,0,0,12.3,17.886c-1.55,1.067-3.1,3.169-1.24,4.8,1.194,1.035,3.159.757,4.491.178a5.86,5.86,0,0,0,3.2-3.51,1.811,1.811,0,0,0-.83-2.038c-2.3-1.331-6.091-.529-6.766,2.371a2.538,2.538,0,0,0,2.316,3.241c1.55,0,2.8-1.45,3.9-2.371,1.327-1.1,2.43-1.988,2.152-3.884-.233-1.568-.511-3.123-.666-4.7a62.5,62.5,0,0,1-.155-10.2L15.983,3.32q2.011.875,4.026,1.746a8.82,8.82,0,0,1,3.032,1.728c1.327,1.445.748,3.611-.246,5.056a1.806,1.806,0,1,0,3.118,1.824,7.818,7.818,0,0,0,.506-8.389,8.156,8.156,0,0,0-3.542-2.872C21.213,1.628,19.5.931,17.807.2A1.837,1.837,0,0,0,15.09,1.761a62.816,62.816,0,0,0,.178,10.395q.13,1.272.31,2.544c.018.155.483,2.585.41,2.617.237-.456.219-.538-.055-.242-.1.078-.187.155-.278.233-.369.31-.743.615-1.112.921-.278.233-.556.465-.834.693-.187.155-.369.31-.556.465.173-.068.119-.073-.16-.009h.957l.018,0c.219.214.433.433.647.647a.761.761,0,0,1,0,.615c-.014-.087.046-.15.178-.187a1.834,1.834,0,0,0,.287-.137,1.145,1.145,0,0,1,1.017.109q-.41-1.019-.83-2.038c-.26.72-1.632,1.737-2.193,1.308.214.219.429.433.647.647-.041-.073-.082-.15-.128-.223.082.3.164.606.246.912-.169.315-.164.369.014.169.182-.137.369-.264.556-.383a9.945,9.945,0,0,1,1.176-.661,10.482,10.482,0,0,1,2.448-.775c2.275-.46,1.313-3.948-.962-3.483" transform="translate(31.707 4.953)" fill="#231815"/>
          <path id="패스_4719" data-name="패스 4719" d="M10.644,17.148a4.575,4.575,0,0,0-6.419,1.559,1.828,1.828,0,0,0,1.08,2.653A7.66,7.66,0,0,0,12.7,19.619a1.818,1.818,0,0,0-.8-3.018,7.244,7.244,0,0,0-6.848,1.91,1.835,1.835,0,0,0,.8,3.023,5.733,5.733,0,0,0,7.162-2.854c.524-1.144-.068-2.808-1.559-2.717-2.207.137-5.325.711-6.743,2.617-.812,1.09-.884,2.6-1.122,3.9q-.4,2.209-.789,4.427Q1.284,35.635.026,44.406a1.822,1.822,0,0,0,3.018,1.755,51.567,51.567,0,0,0,9.465-10.007c2.257-3.127,5.357-8.188.962-11.056-1.951-1.277-3.766,1.851-1.824,3.118,1.226.8-.078,2.822-.588,3.643a43.8,43.8,0,0,1-3.068,4.3,49.972,49.972,0,0,1-7.5,7.449c1.008.584,2.015,1.172,3.023,1.755q1.074-7.461,2.33-14.89.615-3.652,1.281-7.294c.178-.953.073-2.252.989-2.722a8.392,8.392,0,0,1,3.346-.884q-.78-1.354-1.559-2.717a2.236,2.236,0,0,1-3.086,1.19q.4,1.511.8,3.023a3.505,3.505,0,0,1,3.333-.985l-.8-3.018a3.942,3.942,0,0,1-3.875.812l1.08,2.653a.947.947,0,0,1,1.473-.264c1.938,1.3,3.748-1.828,1.824-3.118" transform="translate(0.001 56.801)" fill="#231815"/>
          <path id="패스_4720" data-name="패스 4720" d="M34.039,23.906a12.956,12.956,0,0,0-4.08,2.512,1.82,1.82,0,0,0,.8,3.018,5.838,5.838,0,0,0,7.19-4.527c.15-1-.447-2.457-1.742-2.289a7.18,7.18,0,0,0-5.361,3.314A1.816,1.816,0,0,0,32.4,28.652a5.187,5.187,0,0,0,4.354-3.187c.862-1.951.661-4.153.606-6.237q-.171-6.934-.342-13.864c-.761.579-1.523,1.163-2.284,1.742,1.837.538,3.652,1.153,5.43,1.86.538.214,1.6.424,1.983.866-.274-.319-.064.789-.05.944l.1,1.3q.444,5.861.884,11.717L45.8,22.237c-.392-.223-.78-.447-1.167-.67a1.84,1.84,0,0,0-2.193.283c-1.322,1.6-2.868,5.061-.729,6.679a2.78,2.78,0,0,0,3.109.041c1.053-.67,1.231-1.76,1.869-2.726a1.826,1.826,0,0,0-2.042-2.653c-1.947.666-5.288,2.977-3.5,5.38a2.384,2.384,0,0,0,3.191.524A3.182,3.182,0,0,0,45.491,27.8c.15-.3.228-1.272.315-1.372a1.815,1.815,0,0,0-2.193-2.836l-1.153.565c-2.088,1.026-.26,4.144,1.824,3.123.383-.191.77-.378,1.153-.57-.729-.944-1.459-1.892-2.188-2.836a3.669,3.669,0,0,0-.83,1.445,1.837,1.837,0,0,0-.128.62c.041.346-.027.05.187.014h.962l-.214-.055.793.465c-.055-.055-.114-.109-.173-.164.155.264.31.529.465.8l-.082-.264v.962c.077-.492.962-.875,1.381-1.021-.679-.884-1.363-1.769-2.042-2.653a6.451,6.451,0,0,0-.561,1.14l-.137.315c-.2.406.155.47,1.062.191.155.264.31.529.465.8a2.35,2.35,0,0,1,.6-2.056c-.729.1-1.459.187-2.188.283.388.223.775.442,1.167.666A1.821,1.821,0,0,0,46.695,23.8c-.351-4.627-.6-9.268-1.049-13.887a3.981,3.981,0,0,0-1.071-2.749,8.911,8.911,0,0,0-2.685-1.372,61.9,61.9,0,0,0-6.2-2.166A1.817,1.817,0,0,0,33.41,5.365q.137,5.608.274,11.224c.046,1.773.15,3.561.119,5.339-.014.894-.123,2.982-1.4,3.114.52.907,1.039,1.81,1.559,2.717A3.282,3.282,0,0,1,36.2,26.236l-1.742-2.289a2.248,2.248,0,0,1-2.745,2.006l.793,3.018A8.342,8.342,0,0,1,35,27.389a1.859,1.859,0,0,0,1.263-2.22,1.823,1.823,0,0,0-2.225-1.263" transform="translate(73.419 -1.29)" fill="#231815"/>
          <path id="패스_4721" data-name="패스 4721" d="M44.021,49.463c.625-5.58-.707-10.955-5.895-13.919-2.138-1.226-4.513-2.006-6.711-3.118-.611-.31-1.217-.638-1.8-1,.009,0-1.4-.985-.775-.488a11.875,11.875,0,0,1-1.08-1.008,8.17,8.17,0,0,1-.593-.661c.251.3.264.283.05-.036-.146-.246-.515-1.185-.287-.488,0,0-.4-1.746-.269-.912-.169-1.126-.146-2.289-.26-3.424a14.664,14.664,0,0,0-3.232-8.457,19.784,19.784,0,0,0-5.594-4.14c-.406-.228-.816-.447-1.213-.693-.041-.023-1.386-1.012-.693-.419-.046-.036-1.372-1.094-.584-.474l-.274-.465c.228.538.251.483.068-.173-.638-3.009-4.176-4.76-7.012-3.98a5.809,5.809,0,0,0-3.98,7.012C5.014,17.964,9.778,20.331,14,22.929c.812.5-.009-.1.369.287.26.264.707.953.324.315.324.57.392.711.21.419s-.146-.137.073.465c.073.925.041.05.082.615.2,2.717.315,5.43,1.368,7.978,2.033,4.919,6.4,8.01,11.1,10.139,1.049.47,2.106.912,3.146,1.4.574.264,1.135.561,1.7.839,1.673.825-.178.073.178-.132.091.155.187.31.278.465-.178-.447-.205-.479-.087-.1.205.5.064-.584.077.415a27.781,27.781,0,0,1-.2,3.428c-.342,3.064,2.863,5.7,5.7,5.7,3.365,0,5.357-2.626,5.7-5.7" transform="translate(13.322 19.308)" fill="#2e1d1b"/>
          <path id="패스_4722" data-name="패스 4722" d="M22.917,19.216c.939-1.386,1.919-2.758,2.827-4.167a6.761,6.761,0,0,0,.866-5.48A6.352,6.352,0,0,0,24.9,6.716a8.908,8.908,0,0,0-1.295-.962,6.648,6.648,0,0,0-3.041-.789,5.509,5.509,0,0,0-4.919,2.822,13.208,13.208,0,0,1-1.518,2.567c.3-.383.593-.766.889-1.153a13.2,13.2,0,0,1-2.093,2.129l1.153-.894a1.17,1.17,0,0,1-.383.228c.962-.26,1.919-.515,2.877-.775-.068,0-.141.014-.214.023.506.068,1.012.137,1.518.2l-.178-.055,1.363.574-.155-.1,1.153.889a2.5,2.5,0,0,1-.278-.3l.894,1.153a6.4,6.4,0,0,1-.761-1.313c.191.451.383.907.574,1.359-.584-1.4-.985-2.831-1.669-4.194A8.986,8.986,0,0,0,14.98,4.167a6.128,6.128,0,0,0-3.634-.679A5.4,5.4,0,0,0,8.073,5.056a5.925,5.925,0,0,0-.894,6.907c.351.666.67,1.345.967,2.038-.191-.456-.383-.907-.574-1.363a24.325,24.325,0,0,1,1.441,4.527l-.205-1.518.014.237c.068-.506.132-1.008.2-1.514-.018.073-.036.15-.05.223.191-.451.383-.907.574-1.359-.036.05-.073.1-.1.16.3-.388.593-.77.889-1.153l-.141.128,1.153-.889a3.771,3.771,0,0,1-.5.264L12.2,11.17a3.415,3.415,0,0,1-.707.178c.5-.064,1.008-.132,1.514-.2a5.753,5.753,0,0,1-1.313-.032c.5.068,1.008.132,1.514.2-1.295-.191-2.553-.474-3.857-.638a7.964,7.964,0,0,0-3.761.388,5.712,5.712,0,0,0-3.98,3.98c-.492,1.783-.078,4.331,1.463,5.548A19.392,19.392,0,0,0,9.4,24.09a16.3,16.3,0,0,0,6.036.72,6.091,6.091,0,0,0,4.03-1.669,5.7,5.7,0,0,0,0-8.06,5.637,5.637,0,0,0-4.03-1.669,12.505,12.505,0,0,1-2.512-.064c.506.068,1.012.137,1.514.2a12.681,12.681,0,0,1-3.077-.843l1.359.574a12.412,12.412,0,0,1-2.558-1.5c.383.3.766.6,1.153.894-.064-.046-.123-.1-.182-.141q-1.258,4.76-2.512,9.524a4.349,4.349,0,0,1,.72-.21l-1.514.205a5.876,5.876,0,0,1,1.523.023c-.506-.064-1.012-.132-1.518-.2a37.056,37.056,0,0,0,4.527.7A7.592,7.592,0,0,0,19.671,18.3c.98-2.316.305-4.782-.479-7.057a37.531,37.531,0,0,0-2.17-5.038l-7.8,7.8a4.078,4.078,0,0,1,.529.305c-.383-.3-.77-.593-1.153-.889a4.252,4.252,0,0,1,.72.711c-.3-.383-.6-.766-.894-1.153a6.923,6.923,0,0,1,.725,1.277c-.191-.456-.383-.907-.574-1.363.588,1.4.989,2.849,1.673,4.213,1.582,3.146,5.074,5.138,8.516,3.688a11.08,11.08,0,0,0,4.094-3.264,18.006,18.006,0,0,0,2.621-3.989q-2.455,1.409-4.919,2.822l.164.014-2.877-.78.146.068c-.388-.3-.77-.593-1.153-.889l.119.109c-.3-.383-.593-.766-.889-1.153.032.05.064.1.091.146-.191-.456-.383-.907-.574-1.363.023.055.041.109.059.164-.068-.5-.137-1.008-.205-1.514a.778.778,0,0,1,0,.369c.064-.506.132-1.008.2-1.514-.018.064-.041.128-.064.191.191-.456.383-.907.574-1.363a17.891,17.891,0,0,1-1.459,2.234q-.814,1.19-1.618,2.38a5.7,5.7,0,0,0,2.047,7.8,5.716,5.716,0,0,0,4.39.574,6.314,6.314,0,0,0,3.406-2.617" transform="translate(5.025 12.229)" fill="#2e1d1b"/>
          <path id="패스_4723" data-name="패스 4723" d="M32.223,40.131c.036-.187.077-.369.114-.556-.228.4-.246.424-.055.073.164-.62-.337.283.1-.2.191-.21.985-.793.383-.392a9.259,9.259,0,0,1,1.012-.584c-.666.328.269-.078.538-.155a11.41,11.41,0,0,1,1.4-.315c.843-.123,1.773-.137,2.662-.182,4.823-.228,9.606-.684,13.545-3.757a13.329,13.329,0,0,0,4.026-5.384c.169-.392.351-.775.533-1.158.228-.47-.26.036.342-.5-.465.41-.1.027.21-.064-.766.223.2-.055.492-.132.1-.027,1.158-.264.67-.182-.579.1.848-.064.989-.068,1.03-.041,2.065,0,3.1.009a21.251,21.251,0,0,0,7.477-1.008c2.89-1.058,4.846-3.866,3.98-7.012-.766-2.781-4.1-5.042-7.007-3.98-3.925,1.436-8.74-.014-13.057,1.5a12.673,12.673,0,0,0-6.542,4.869,20.148,20.148,0,0,0-1.4,2.849c.023-.041-.78,1.614-.415.939-.141.141-.283.283-.419.424.3-.2.287-.2-.036.018a8.758,8.758,0,0,1-4.564,1.149,49.814,49.814,0,0,0-8.352.83c-4.924,1.131-9.647,4.8-10.7,9.93a5.839,5.839,0,0,0,3.98,7.012c2.822.775,6.387-.953,7.012-3.98" transform="translate(75.073 50.965)" fill="#2e1d1b"/>
          <path id="패스_4724" data-name="패스 4724" d="M42.41,22.684a5.5,5.5,0,0,1-.283-1.076c.068.5.137,1.008.205,1.514a5.9,5.9,0,0,1-.014-1.3c-.068.506-.137,1.008-.2,1.514A5.805,5.805,0,0,1,42.5,21.9l-.574,1.359a5.832,5.832,0,0,1,.647-1.122c-.3.383-.593.766-.889,1.153a5.605,5.605,0,0,1,.775-.8q-4.862-2.011-9.724-4.026c-.137,1.176-.269,2.352-.406,3.533a9.266,9.266,0,0,0,.169,4.108,6.76,6.76,0,0,0,8.17,4.486,25.569,25.569,0,0,0,3.729-1.76l-1.359.574a8.931,8.931,0,0,1,2.029-.561l-1.518.205a8.951,8.951,0,0,1,2.316-.014c-.506-.068-1.008-.132-1.514-.2a8.845,8.845,0,0,1,1.637.4L44.621,18.818c-.2.1-.4.2-.606.283l1.363-.574c-1.91.78-3.994.967-5.908,1.728a7.447,7.447,0,0,0-3.975,2.959,6.163,6.163,0,0,0-.132,6.228c.916,1.632,2.425,2.33,3.83,3.406-.383-.3-.766-.593-1.153-.889a9.982,9.982,0,0,1,1.673,1.7L38.822,32.5a9.9,9.9,0,0,1,1.1,1.887l3.406-8.37-.223.041c.506-.068,1.008-.137,1.514-.2a4.171,4.171,0,0,1-.675,0c.506.068,1.012.137,1.518.2a5.488,5.488,0,0,1-1.108-.315l1.363.574a25.127,25.127,0,0,1-5.234-3.173l1.153.889c-.6-.465-1.176-.948-1.737-1.459a6.016,6.016,0,0,0-4.03-1.669,5.823,5.823,0,0,0-4.03,1.669,5.7,5.7,0,0,0,0,8.06,35.789,35.789,0,0,0,5.507,4.14,23.846,23.846,0,0,0,2.4,1.29,13.044,13.044,0,0,0,2.457.948,9.128,9.128,0,0,0,4.153,0,5.405,5.405,0,0,0,3.693-3.3,4.276,4.276,0,0,0,.488-2.2,5.635,5.635,0,0,0-.775-2.872,13.957,13.957,0,0,0-2.635-3.8,20.515,20.515,0,0,0-3.652-2.795c.383.3.77.593,1.153.889a1.052,1.052,0,0,1-.246-.246c.3.383.593.77.889,1.153l-.068-.15q.39,1.443.775,2.877l-.014-.164c-.068.506-.137,1.012-.205,1.514.018-.055.032-.109.046-.164l-.574,1.359c.036-.046.068-.1.1-.141-.3.383-.593.77-.889,1.153L44.58,30l-1.153.889a2.11,2.11,0,0,1,.333-.178l-1.363.574a23.65,23.65,0,0,1,3.447-.994,20.707,20.707,0,0,0,4.532-1.632A5.571,5.571,0,0,0,53.1,22.98a5.809,5.809,0,0,0-4.085-4.737,14.2,14.2,0,0,0-7.085-.374,13.423,13.423,0,0,0-3.282,1.117c-.7.31-1.313.752-2.006,1.067L38,19.479a2.863,2.863,0,0,1-.547.15l1.514-.205c-.059,0-.119,0-.178,0l1.514.205a.894.894,0,0,1-.337-.082c.451.191.907.383,1.363.574-.055-.032-.109-.059-.16-.091.383.3.766.593,1.153.889A.817.817,0,0,1,42.1,20.7l.889,1.153-.078-.137.574,1.359a2.108,2.108,0,0,1-.128-.47l.205,1.514a13.771,13.771,0,0,1,.219-2.626c.114-1.008.228-2.02.346-3.027l-.205-1.518c-.191-.451-.383-.907-.574-1.359a5.676,5.676,0,0,0-2.726-2.334,5.422,5.422,0,0,0-2.954-.388A6.038,6.038,0,0,0,34.4,14.432a10.405,10.405,0,0,0-3.137,5.143,10.556,10.556,0,0,0,.155,6.141,6.148,6.148,0,0,0,2.621,3.406,5.7,5.7,0,0,0,7.8-2.047,5.6,5.6,0,0,0,.574-4.39" transform="translate(107.358 45.581)" fill="#2e1d1b"/>
          <path id="패스_4725" data-name="패스 4725" d="M8.532,125.25a3.619,3.619,0,0,1-2.954-3.6c.2-19.335,3.83-124.1,59.408-114.112,55.852,10.034,12.9,109.275,4.96,126.563a3.619,3.619,0,0,1-3.971,2.033Z" transform="translate(19.852 24.443)" fill="#2e1d1b" fill-rule="evenodd"/>
          <path id="패스_4726" data-name="패스 4726" d="M35.129,8.027a42.4,42.4,0,0,0-14.689-1.5,5.757,5.757,0,0,0-5.6,4.937c-.4,2.959,1.39,5.247,4.085,6.255a64.625,64.625,0,0,0,23.256,4.012,5.709,5.709,0,0,0,1.514-11.2,127.662,127.662,0,0,0-16.686-4,6.174,6.174,0,0,0-4.39.574A5.823,5.823,0,0,0,20,10.511c-.625,2.758.839,6.478,3.98,7.012a127.9,127.9,0,0,1,16.691,4q.759-5.594,1.514-11.192c-1.883.018-3.766-.036-5.644-.191-.807-.064-1.609-.155-2.412-.246-.638-.082-.533-.064.315.046-.264-.041-.533-.078-.8-.119-.4-.064-.8-.132-1.194-.205a59.848,59.848,0,0,1-10.495-2.89q-.752,5.6-1.514,11.2a37.582,37.582,0,0,1,6.446.032c.269.023.533.05.8.082.638.078.533.064-.315-.046a5.371,5.371,0,0,1,1.587.274c1.058.205,2.1.465,3.137.757a5.769,5.769,0,0,0,7.012-3.98,5.809,5.809,0,0,0-3.98-7.012" transform="translate(52.623 22.708)" fill="#c5826c"/>
          <path id="패스_4727" data-name="패스 4727" d="M19.35,27.472c3.278-7.924,11.211-9.656,25.075-4.3s6.246,33.513-11.876,28.275S16.072,35.4,19.35,27.472" transform="translate(61.518 71.488)" fill="#2e1d1b" fill-rule="evenodd"/>
          <path id="패스_4728" data-name="패스 4728" d="M24.233,28.772c3.784-3.479,9.405-5.758,14.406-3.565a9.385,9.385,0,0,1,4.842,4.564c1.185,2.621.656,5.758.055,8.462C43,40.63,42.168,43.1,40.271,44.77a9.749,9.749,0,0,1-6.346,2.1c-4.121.078-8.945-.775-10.782-4.915a12.749,12.749,0,0,1-.474-8.325c.561-2.453,1.454-5.051,3.789-6.319,2.047-1.108.223-4.231-1.824-3.123-2.767,1.5-4.29,4.313-5.133,7.244a17.673,17.673,0,0,0-.333,10.116,11.751,11.751,0,0,0,4.313,6.4c2.43,1.723,5.64,2.257,8.548,2.48a15.544,15.544,0,0,0,8.8-1.65A12.9,12.9,0,0,0,46.517,41.1a22.01,22.01,0,0,0,.98-10.568,12.144,12.144,0,0,0-5.32-7.5c-6.633-4.427-15.031-1.846-20.5,3.178-1.714,1.577.848,4.13,2.558,2.558" transform="translate(66.091 73.913)" fill="#c5826c"/>
          <path id="패스_4729" data-name="패스 4729" d="M10.6,13.53C5.886,23.942,9.5,34.738,13.55,44.7c4.108,10.1,9.433,23.433,1.2,33.016-1.509,1.755,1.035,4.322,2.558,2.553C24.3,72.136,23.361,61.025,20.055,51.5c-3.921-11.3-11.826-24-6.342-36.144.953-2.1-2.161-3.944-3.118-1.824" transform="translate(29.784 44.81)" fill="#c5826c"/>
          <path id="패스_4730" data-name="패스 4730" d="M8,18.407a41.967,41.967,0,0,0,2.439,15.957C12.094,39.2,13.995,43.9,14.624,49A41.612,41.612,0,0,1,7.7,77.291c-1.3,1.933,1.824,3.743,3.118,1.824A44.943,44.943,0,0,0,18.44,51.168c-.748-11.384-7.413-21.177-6.825-32.761.114-2.325-3.5-2.316-3.615,0" transform="translate(26.307 59.318)" fill="#c5826c"/>
          <path id="패스_4731" data-name="패스 4731" d="M15.924,16.814a4.58,4.58,0,0,0,1.45,4.687A4.4,4.4,0,0,0,20.1,22.558a4.616,4.616,0,0,0,2.5-.693A4.7,4.7,0,0,0,24.532,19.4a1.808,1.808,0,0,0-3.488-.957,1.643,1.643,0,0,1-.073.191c.059-.146.123-.287.182-.433a2.441,2.441,0,0,1-.31.524c.1-.119.187-.242.283-.365a2.825,2.825,0,0,1-.479.483c.128-.1.246-.187.369-.283a3.426,3.426,0,0,1-.7.415c.137-.064.287-.123.429-.182a3.334,3.334,0,0,1-.725.191c.16-.023.319-.041.479-.064a2.747,2.747,0,0,1-.67,0c.16.018.315.041.474.064a2.62,2.62,0,0,1-.588-.164c.146.064.287.123.429.182a3.149,3.149,0,0,1-.584-.342c.128.091.242.187.365.283a3.166,3.166,0,0,1-.474-.483l.283.365a2.971,2.971,0,0,1-.378-.647c.064.141.123.287.178.429a2.811,2.811,0,0,1-.2-.72c.018.16.046.319.064.483a2.823,2.823,0,0,1-.009-.679c-.023.16-.041.319-.064.479a3.088,3.088,0,0,1,.087-.4,1.809,1.809,0,0,0-3.488-.962" transform="translate(56.094 55.17)" fill="#fff"/>
          <path id="패스_4732" data-name="패스 4732" d="M14,15.925a3.536,3.536,0,0,0,1.044,2.366,3.886,3.886,0,0,0,1.979,1.053,4.524,4.524,0,0,0,2.448-.205,7.919,7.919,0,0,0,2.147-1.29,1.8,1.8,0,0,0,.529-1.277,1.806,1.806,0,0,0-1.81-1.805c-.16.018-.319.041-.479.064a1.838,1.838,0,0,0-.8.465,1.167,1.167,0,0,1-.119.091c.123-.091.246-.187.369-.283a5.719,5.719,0,0,1-1.163.7c.141-.059.287-.119.429-.182a3.441,3.441,0,0,1-.853.242c.16-.023.319-.046.479-.064a2.947,2.947,0,0,1-.634,0c.16.023.319.041.479.064a2.394,2.394,0,0,1-.556-.15c.146.064.287.123.433.182a2.48,2.48,0,0,1-.5-.283c.123.1.246.187.369.283a2.022,2.022,0,0,1-.36-.351c.1.123.187.246.283.369a2.043,2.043,0,0,1-.223-.369l.182.433a1.649,1.649,0,0,1-.114-.415c.018.16.041.319.064.479l-.009-.123a1.907,1.907,0,0,0-.529-1.277,1.811,1.811,0,0,0-2.558,0A1.8,1.8,0,0,0,14,15.925" transform="translate(49.814 50.247)" fill="#fff"/>
          <path id="패스_4733" data-name="패스 4733" d="M18.386,17.794A4.213,4.213,0,0,0,24.2,19.413a1.907,1.907,0,0,0,.83-1.08,1.864,1.864,0,0,0-.182-1.4,1.806,1.806,0,0,0-2.471-.647,2.663,2.663,0,0,1-.3.16c.141-.064.287-.123.429-.182a2.313,2.313,0,0,1-.561.15c.16-.023.319-.041.479-.064a2.388,2.388,0,0,1-.625,0c.16.023.319.046.479.064a2.614,2.614,0,0,1-.688-.187c.146.059.287.123.433.182a2.494,2.494,0,0,1-.543-.319l.365.283A2.313,2.313,0,0,1,21.464,16c.1.123.191.242.283.365a2.445,2.445,0,0,1-.242-.392,1.805,1.805,0,0,0-1.076-.83A1.808,1.808,0,0,0,18.2,16.4l-.064.479a1.778,1.778,0,0,0,.246.912" transform="translate(64.56 53.671)" fill="#fff"/>
          <path id="패스_4734" data-name="패스 4734" d="M20.259,31.527a17.188,17.188,0,0,1,12.5-7.978A19.574,19.574,0,0,1,48.53,28.659c1.7,1.587,4.263-.962,2.558-2.553A23.213,23.213,0,0,0,32.286,20,20.836,20.836,0,0,0,17.141,29.7c-1.263,1.965,1.865,3.775,3.118,1.824" transform="translate(59.956 70.474)" fill="#c5826c"/>
          <path id="패스_4735" data-name="패스 4735" d="M21.215,9.831a.873.873,0,0,1-.082-.1c.091.123.187.242.283.365a1.406,1.406,0,0,1-.16-.264c.059.141.119.287.182.429a1.25,1.25,0,0,1-.1-.337c.018.16.041.319.064.479a1.8,1.8,0,0,1,0-.415c-.023.16-.046.319-.064.479a1.922,1.922,0,0,1,.128-.474c-.064.146-.123.287-.182.433a2.428,2.428,0,0,1,.324-.556c-.1.119-.187.242-.283.365a2.888,2.888,0,0,1,.474-.47c-.123.1-.246.187-.369.283a2.591,2.591,0,0,1,.52-.305c-.146.059-.292.119-.433.182a2.256,2.256,0,0,1,.57-.16l-.479.064a2.062,2.062,0,0,1,.474,0l-.483-.068a3.065,3.065,0,0,1,.752.205c-.146-.064-.287-.123-.433-.182a3.828,3.828,0,0,1,.739.424c-.123-.091-.246-.187-.369-.278a4.977,4.977,0,0,1,.9.907l-.283-.365a7.5,7.5,0,0,1,.889,1.555c-.059-.141-.119-.287-.182-.429a3.045,3.045,0,0,1,.205.666c-.018-.16-.041-.319-.064-.479a1.615,1.615,0,0,1,0,.419c.023-.16.041-.319.064-.483a1.305,1.305,0,0,1-.073.237l.182-.429a.8.8,0,0,1-.082.132c.1-.119.191-.242.283-.365a1.168,1.168,0,0,1-.2.2l.365-.283a1.664,1.664,0,0,1-.251.137c.146-.059.287-.123.433-.182a2.011,2.011,0,0,1-.433.109c.16-.018.324-.041.483-.064A4.655,4.655,0,0,1,23.4,11.2c.16.023.319.041.479.064a4.717,4.717,0,0,1-1.14-.3c.146.059.287.119.433.182a3.889,3.889,0,0,1-.72-.415c.123.091.246.187.369.283a2.724,2.724,0,0,1-.46-.456c.1.123.191.246.283.369a2.792,2.792,0,0,1-.305-.529l.182.429a2.619,2.619,0,0,1-.164-.588c.023.16.046.324.064.483a2.654,2.654,0,0,1,0-.6c-.023.16-.041.324-.064.483a2.117,2.117,0,0,1,.137-.5c-.059.146-.123.287-.182.433a2.017,2.017,0,0,1,.187-.319l-.283.365a1.579,1.579,0,0,1,.274-.278c-.123.1-.242.191-.365.283a2.414,2.414,0,0,1,.26-.15c-.146.064-.287.123-.433.182a1.79,1.79,0,0,1,.406-.114c-.16.023-.319.046-.479.064a2.141,2.141,0,0,1,.483,0c-.16-.023-.324-.046-.483-.064a1.771,1.771,0,0,1,.406.1c-.146-.059-.287-.119-.433-.182a1.823,1.823,0,0,1,.305.173l-.365-.283a1.321,1.321,0,0,1,.242.237c-.1-.123-.187-.246-.283-.365a1.641,1.641,0,0,1,.141.246c-.064-.141-.123-.287-.182-.429.018.055.036.109.05.169a1.823,1.823,0,0,0,2.22,1.263,1.842,1.842,0,0,0,1.263-2.22A3.145,3.145,0,0,0,22.3,6.954a3.238,3.238,0,0,0-3.077,1.7,4.013,4.013,0,0,0,.173,3.912,4.888,4.888,0,0,0,3.068,2.106,4.638,4.638,0,0,0,3.839-.474,2.685,2.685,0,0,0,1.071-2.321A5.593,5.593,0,0,0,26.74,9.84,7.054,7.054,0,0,0,24.9,7.424a5.62,5.62,0,0,0-1.773-1.012,4.157,4.157,0,0,0-2.006-.137,4.214,4.214,0,0,0-2.854,2.093,3.742,3.742,0,0,0-.492,1.856,3.36,3.36,0,0,0,.884,2.166,1.825,1.825,0,0,0,2.558,0,1.855,1.855,0,0,0,0-2.558" transform="translate(63.25 22.116)" fill="#231815"/>
          <path id="패스_4736" data-name="패스 4736" d="M29.822,7.2c-2.248-.233-4.491-.479-6.738-.7a9.463,9.463,0,0,0-5.822.8,5.273,5.273,0,0,0-2.6,4.213,7.073,7.073,0,0,0,2.083,4.45c1.29,1.436,3.433,1.928,5.2,2.53a61,61,0,0,0,6.209,1.769A65.393,65.393,0,0,0,41.429,21.9c2.325.046,2.325-3.565,0-3.615a61.189,61.189,0,0,1-20.26-3.893,4.7,4.7,0,0,1-1.755-.853,5.076,5.076,0,0,1-.976-1.477c-.392-.916.383-1.623,1.263-1.892a11.871,11.871,0,0,1,4.518.068l5.6.584a1.819,1.819,0,0,0,1.805-1.81A1.843,1.843,0,0,0,29.822,7.2" transform="translate(52.167 22.756)" fill="#231815"/>
          <path id="패스_4737" data-name="패스 4737" d="M49.38,7.11C17.276,19.278,11.363,57.592,7.009,87.321c-1.3,8.9-2.188,17.935-1.176,26.916.625,5.535,1.035,11.224,6.839,13.276,8.316,2.941,18.332,3.533,27.049,4.737,9.419,1.3,18.874,2.248,28.357,2.89,2.325.16,2.311-3.456,0-3.615a395.285,395.285,0,0,1-47.605-6.086c-4.377-.834-8.065-1.012-10.039-5.43-1.491-3.342-1.327-8.411-1.413-12.081-.2-8.366.957-16.686,2.3-24.924C15.685,56.165,21.3,21.6,50.342,10.593c2.152-.816,1.217-4.308-.962-3.483" transform="translate(19.196 24.86)" fill="#231815"/>
        </g>
      </g>
    </g>
  </g>
</svg>
