<svg id="그룹_1082" data-name="그룹 1082" xmlns="http://www.w3.org/2000/svg" xmlns:xlink="http://www.w3.org/1999/xlink" width="130.642" height="155.731" viewBox="0 0 130.642 155.731">
  <defs>
    <clipPath id="clip-path">
      <rect id="사각형_1865" data-name="사각형 1865" width="130.642" height="155.731" fill="none"/>
    </clipPath>
  </defs>
  <g id="그룹_862" data-name="그룹 862" transform="translate(0 0)">
    <g id="그룹_1083" data-name="그룹 1083" transform="translate(0)">
      <g id="그룹_860" data-name="그룹 860" transform="translate(0 0)">
        <g id="그룹_1084" data-name="그룹 1084">
          <g id="그룹_1082-2" data-name="그룹 1082" clip-path="url(#clip-path)">
            <path id="패스_2711" data-name="패스 2711" d="M85.06,35.632c-.82-.471-1.664-1.022-2.61-1.493-.858-.425-1.873-.619-2.822-1.041-.889-.4-1.774-.862-2.731-1.246-.908-.368-1.74-1-2.7-1.352-.923-.342-1.922-.539-2.887-.866-.934-.319-1.819-.858-2.788-1.159-.946-.3-2.021-.2-2.989-.479s-1.971-.353-2.944-.608-1.884-.718-2.864-.946-1.968-.4-2.951-.6-2.009-.175-3-.349-1.937-.585-2.925-.733c-1.007-.148-1.941-.794-2.929-.9-1.014-.118-2.036-.148-3.024-.224-1.022-.08-2.04-.156-3.024-.186-1.029-.034-2.044.486-3.024.509-1.033.027-2.032-.061-3,.027-1.033.1-2.1-.213-3.05-.038a24.446,24.446,0,0,1-2.712,1.66c-.771.406-1.774.737-2.777,1.3-.82.463-1.74.946-2.67,1.508-.836.505-1.63,1.189-2.518,1.77-.836.539-1.405,1.523-2.264,2.12-.828.581-2.078.615-2.9,1.242s-1.413,1.527-2.2,2.188-1.375,1.546-2.12,2.245S10.891,39.157,10.2,39.9c-.707.763-1.523,1.451-2.135,2.249C7.43,42.982,7.3,44.141,6.792,45a18.332,18.332,0,0,0-1.383,2.7,13.832,13.832,0,0,0-.953,2.879,28.358,28.358,0,0,0,2.727,1.3c.866.338,1.774.839,2.811,1.185.908.308,1.937.448,2.955.76.934.285,1.857.76,2.872,1.045.95.266,2.047.11,3.054.376.961.255,1.816,1.01,2.822,1.261.969.243,1.971.433,2.974.669.972.232,1.975.391,2.967.615s2.021.217,3.02.429,2,.346,3,.547,2.013.315,3.012.505,1.956.627,2.955.805,1.975.585,2.97.756c1.01.175,2.055.125,3.046.281,1.022.163,2.032.3,3.027.444,1.026.148,2.055.163,3.043.292,1.037.137,2.017.555,3,.665,1.045.118,2.1-.209,3.084-.122,1.056.095,2.074.019,3.035.072,1.079.065,2.2.608,3.13.615a13.271,13.271,0,0,1,.691-2.913c.292-.8.471-1.774.9-2.72.372-.824.623-1.785,1.075-2.667.429-.836,1.535-1.329,2.017-2.165s.82-1.736,1.337-2.522c.543-.828.988-1.679,1.546-2.4a20.094,20.094,0,0,1,1.994-2.044,8.006,8.006,0,0,1,2.192-1.675c.038-.019,1.029-.976,2.393-2.116.745-.615,1.519-1.4,2.355-2.108s1.728-1.36,2.45-1.99a13.3,13.3,0,0,0,2.173-2.04c-.03,0-.023-.087-.023-.087" transform="translate(12.47 65.621)" fill="#f4da82" fill-rule="evenodd"/>
            <path id="패스_2712" data-name="패스 2712" d="M22.027,15.509c-.3.619-.467,1.633-.858,2.864-.27.839-.444,1.827-.744,2.894-.255.9-1.162,1.7-1.432,2.731-.239.923-.133,1.99-.38,3-.232.946-.817,1.838-1.052,2.841-.224.957.137,2.074-.091,3.069-.217.961-.634,1.892-.851,2.875s-.676,1.9-.885,2.891.2,2.1,0,3.081-1.162,1.831-1.356,2.815c-.194,1-.376,2-.555,2.978-.186,1.01.2,2.1.03,3.073-.179,1.022-.707,1.956-.862,2.921-.167,1.041-.452,2.025-.593,2.974-.152,1.06-.353,2.059-.46,2.978-.133,1.117.217,2.169.16,3.031a8.837,8.837,0,0,0,.114,2.716c.984.084,1.808.665,2.8.729.98.061,1.96.243,2.959.3.976.053,1.99-.406,2.989-.353.976.057,1.975-.053,2.974.015.972.068,1.926.6,2.925.688.98.087,1.937.437,2.944.558.972.114,1.964.137,2.967.289.969.144,2.059-.323,3.058-.137.961.179,1.88.684,2.875.908.95.213,1.907.486,2.891.748.946.251,1.9.52,2.879.817.934.289,1.96.387,2.925.722.923.319,1.88.642,2.834,1.01.908.353,1.687,1.09,2.629,1.489.9.384,1.975.422,2.9.851.885.41,1.721.991,2.632,1.447.877.437,1.527,1.345,2.427,1.823.866.463,1.854.733,2.743,1.238.851.482,1.618,1.143,2.492,1.671.847.505,1.827.817,2.693,1.364.836.528,1.614,1.162,2.469,1.728a3.158,3.158,0,0,0,3.1.065A8.783,8.783,0,0,0,76.638,81.2,19.577,19.577,0,0,0,78.689,78.9c.555-.786.912-1.781,1.466-2.724.5-.847,1.36-1.554,1.857-2.5.463-.885.733-1.911,1.189-2.868.433-.908.912-1.823,1.337-2.784.41-.931.669-1.941,1.067-2.906.391-.938.6-1.96.98-2.921s1.067-1.793,1.428-2.761.467-2.036.813-3c.349-.984.642-1.975.972-2.948.334-.991,1.1-1.831,1.413-2.8.323-1,.657-1.983.953-2.948.311-1.018.752-1.971,1.029-2.932.3-1.037-.16-2.245.1-3.195.285-1.06.737-2.006.961-2.929.27-1.121.52-2.116.691-2.989a27.553,27.553,0,0,0,.684-3.02,10.055,10.055,0,0,0-.615-2.974,12.6,12.6,0,0,0-1.455-2.644A16.991,16.991,0,0,0,91.7,24.686,23.989,23.989,0,0,0,89.545,22.6c-.748-.612-1.44-1.394-2.294-1.971-.8-.543-1.949-.6-2.837-1.117-.847-.486-1.713-.965-2.629-1.421-.877-.437-1.736-.95-2.667-1.36-.9-.4-1.816-.794-2.762-1.162-.919-.361-1.9-.57-2.853-.9-.934-.323-1.77-.984-2.735-1.284-.946-.3-2-.281-2.967-.547s-1.9-.642-2.875-.881-1.96-.406-2.94-.615-1.968-.387-2.951-.57-1.922-.7-2.91-.855-2.055.156-3.043.03c-1-.129-1.987-.323-2.978-.418-1.01-.1-1.99-.418-2.982-.482-1.014-.065-2.021-.19-3.008-.22-1.029-.03-2.044.042-3.035.053-1.026.015-2.036.1-3.012.16-1.029.057-2.006.387-2.967.5-1.037.122-2.047.137-2.993.319a27.7,27.7,0,0,0-2.868.881,20.529,20.529,0,0,0-2.86.858,12.594,12.594,0,0,0-2.655,1.436,6.891,6.891,0,0,0-1.405,2.613l-.292-.133" transform="translate(33.324 24.672)" fill="#e9d07a" fill-rule="evenodd"/>
            <path id="패스_2713" data-name="패스 2713" d="M119.708,15.105c.365.684,1.356,1.405,1.607,2.636a29.007,29.007,0,0,1,.672,3c.1.934-.9,2.032-.843,3.115.053.957.16,1.952.182,3.012.023.976.444,1.979.437,3.031-.008.984-.528,1.987-.558,3.027-.03.991.885,2.044.836,3.081-.049,1-.558,1.99-.627,3.024-.065,1,.505,2.055.418,3.081-.08,1-.6,1.975-.7,3-.1,1-.7,1.96-.813,2.978-.114,1-.213,2.009-.346,3.027-.129,1,.03,2.051-.118,3.065s-.7,1.949-.858,2.959-.368,1.994-.547,3,.349,2.139.156,3.138-.691,1.952-.9,2.951-.391,2.017-.619,3.012-.243,2.059-.494,3.046c-.255,1-.752,1.933-1.026,2.91-.277,1-.16,2.1-.456,3.073-.3.991-1.542,1.664-1.865,2.621-.33.98-.209,2.1-.562,3.039-.365.969-.38,2.063-.767,2.986-.4.957-1.291,1.679-1.721,2.579-.448.942-1,1.793-1.478,2.663-.505.919-1,1.785-1.535,2.61-.577.881-.779,1.99-1.39,2.754a22.354,22.354,0,0,1-2.173,2.158c-.764.733-1.823.813-2.636,1.345-1.432.627-1.09,1.459-2.553,2.009s-1.7-.076-3.157.475-1.17,1.322-2.629,1.873-1.546.338-3.008.893-1.4.722-2.86,1.276-1.721-.137-3.179.418-1.542.33-3,.881-1.409.7-2.875,1.254-1.329.923-2.8,1.478-1.671.027-3.145.581-1.261,1.109-2.735,1.668a14.151,14.151,0,0,1-2.758.281,13.262,13.262,0,0,1-2.689.125c-.912-.038-1.9.433-2.792.213-1.436-.281-1.067-.076-2.9-.368-.817-.129-1.808-.171-2.9-.349-.885-.148-1.74-.984-2.773-1.159-.912-.16-2,.41-3.008.232-.927-.163-1.85-.566-2.841-.744-.938-.175-1.8-.915-2.777-1.1-.942-.179-2.066.46-3.039.266-.946-.186-1.687-1.447-2.651-1.645s-1.9-.418-2.86-.623-1.99-.076-2.944-.289-2.025.008-2.97-.216c-.965-.228-1.983-.22-2.921-.456-.969-.243-1.671-1.428-2.6-1.679-.972-.262-1.975-.311-2.891-.581-.976-.289-2.161.179-3.054-.114-.98-.327-1.751-1.136-2.606-1.466-1-.384-2.078-.433-2.872-.82A11.552,11.552,0,0,1,9.863,101.5a9.778,9.778,0,0,1-2.218-2.188A24.033,24.033,0,0,1,6.6,96.378c-.4-.885-.482-1.922-.817-2.948-.3-.934-1.508-1.664-1.755-2.693C3.8,89.768,3.7,88.7,3.527,87.671c-.163-1-.243-2.047-.346-3.084-.1-1.01-.038-2.066-.072-3.1-.034-1.022-.049-2.066-.019-3.1s.038-2.078.141-3.1.372-2.382.555-3.388a24.328,24.328,0,0,0,2.773,2c.839.414,1.945.429,2.948.839.893.361,1.58,1.424,2.583,1.785.915.327,2.025.251,3.024.57.938.3,1.751,1.132,2.75,1.428.95.281,2.158-.228,3.153.046.965.266,1.964.437,2.963.7.972.247,2.013.239,3.008.482.972.236,1.706,1.531,2.7,1.759s2.1-.1,3.092.118,1.88.915,2.875,1.124,2.085-.027,3.081.171,1.945.707,2.94.893,2.142-.365,3.134-.186c1.01.179,2,.4,2.989.566,1.018.171,2.021.33,3,.486,1.029.16,2.032.3,3.016.444,1.037.148,2.009.52,2.982.65,1.052.137,2.04.471,3,.581,1.071.122,2.051.558,2.993.642,1.1.1,1.952-.456,2.853-.41.292-.965.262-1.865.612-2.792.357-.946,1.014-1.785,1.424-2.686.418-.919.631-1.96,1.1-2.834s1.379-1.542,1.9-2.385,1.2-1.618,1.77-2.427,1.356-1.481,1.975-2.256c.627-.79.794-1.956,1.455-2.7s1.838-1.029,2.53-1.732c.707-.718,1.421-1.4,2.146-2.066.745-.684,1.2-1.675,1.952-2.309.775-.653,1.9-.847,2.674-1.451.805-.619,1.432-1.44,2.23-2.009.832-.589,1.326-1.652,2.146-2.188.855-.562,1.812-.942,2.644-1.447.885-.536,1.732-1.09,2.572-1.561.915-.513,1.9-.82,2.743-1.261.942-.49,2-.6,2.826-1,1-.486,1.7-1.36,2.488-1.713,1.212-.543,2.18-.737,2.754-1,.205-.984.357-1.975.612-2.989.247-.976,1.041-1.819,1.333-2.822.285-.965.049-2.112.38-3.107.319-.957.786-1.888,1.147-2.868.349-.946.566-1.971.957-2.94.38-.934.866-1.85,1.288-2.807.406-.923,1.132-1.721,1.58-2.667.429-.912.456-2.044.923-2.974.456-.908,1.576-1.485,2.066-2.408.475-.9.608-1.987,1.117-2.9.494-.885,1.28-1.622,1.808-2.526.513-.877.194-2.093.741-2.986.053-.2.171.33.171.33" transform="translate(8.602 41.223)" fill="#e6bf61" fill-rule="evenodd"/>
            <path id="패스_2714" data-name="패스 2714" d="M41.084,20.49c-.129,1.094-.46,2.112-.547,3.107-.095,1.086-.163,2.123-.239,3.122-.084,1.075.118,2.131.019,3.141-.1,1.048-.3,2.066-.463,3.084s-.547,1.987-.809,3.008c-.148.589-.8,1.326-2.116,2-.764.391-1.675.87-2.735,1.329-.847.365-1.914.441-2.91.87-.877.372-1.785.824-2.754,1.254-.885.4-1.709,1.014-2.651,1.466-.889.422-1.774.9-2.693,1.379-.877.456-1.751.95-2.644,1.462-.862.49-1.842.817-2.7,1.364-.843.536-1.584,1.238-2.416,1.831-.817.577-1.622,1.178-2.42,1.816-.782.623-1.709,1.094-2.465,1.781-.741.669-1.3,1.55-2,2.283s-1.516,1.345-2.169,2.127c-.638.771-1.212,1.652-1.808,2.484a15.568,15.568,0,0,1-.11-3,18.093,18.093,0,0,1,.566-2.921,22.358,22.358,0,0,1,1.132-2.743A27.68,27.68,0,0,1,7.6,48.166c.467-.847.718-1.85,1.276-2.682.539-.809,1.337-1.451,1.949-2.245.6-.771.991-1.725,1.645-2.477s1.542-1.261,2.226-1.979,1.185-1.6,1.9-2.29,1.588-1.2,2.321-1.854,1.531-1.257,2.287-1.888,1.4-1.432,2.165-2.036c.794-.619,1.535-1.284,2.317-1.861.813-.6,1.785-.95,2.575-1.5.839-.585,1.664-1.124,2.461-1.649.87-.57,1.671-1.155,2.473-1.645.915-.558,1.637-1.307,2.431-1.747.991-.547,2.021-.737,2.769-1.086,1.7-.794,2.648-1.147,2.6-.748.008.046.095.011.095.011" transform="translate(12.338 56.847)" fill="#e6bf61" fill-rule="evenodd"/>
            <path id="패스_2715" data-name="패스 2715" d="M44.59,21.159a23.483,23.483,0,0,0-2.693-.574,21.78,21.78,0,0,0-2.689-.528,9.966,9.966,0,0,0-2.97.562,17.071,17.071,0,0,0-2.86,1,29.075,29.075,0,0,0-2.648,1.5c-.836.509-1.789.915-2.648,1.531-.809.577-1.6,1.223-2.416,1.88-.779.631-1.607,1.235-2.385,1.922-.756.669-1.383,1.5-2.127,2.211-.737.7-1.664,1.216-2.382,1.949s-1.3,1.588-1.987,2.34-1.364,1.531-2.028,2.3-1.421,1.493-2.059,2.279c-.657.805-1.2,1.679-1.816,2.477-.634.836-1.322,1.6-1.9,2.412-.612.862-1.067,1.789-1.6,2.613-.585.912-1.25,1.713-1.728,2.556-.543.969-.965,1.911-1.341,2.758a14.736,14.736,0,0,0-1.083,2.86c-.266,1.364-.015,2.5.771,2.906a15.3,15.3,0,0,1,2.006,1.17,3.69,3.69,0,0,0,2.18.858,11.671,11.671,0,0,1,.163-2.97,22.856,22.856,0,0,1,1.094-2.731c.353-.851.718-1.766,1.193-2.674.433-.828.87-1.709,1.394-2.572.494-.805,1.128-1.565,1.69-2.393.539-.786.972-1.687,1.573-2.484.574-.767,1.333-1.424,1.96-2.2.6-.752,1.337-1.409,1.987-2.158.634-.733,1.113-1.622,1.781-2.347.665-.71,1.478-1.288,2.169-1.99.653-.661,1.413-1.246,2.15-1.9.71-.623,1.386-1.307,2.15-1.911.745-.593,1.4-1.329,2.177-1.9s1.69-.953,2.48-1.489c.809-.547,1.649-1.022,2.446-1.531.836-.532,1.6-1.117,2.4-1.6.866-.517,1.675-1.037,2.469-1.481.915-.513,1.812-.893,2.587-1.291,1.018-.528,1.9-.931,2.572-1.223.023-.011-.038-.156-.038-.156" transform="translate(8.759 56.114)" fill="#f7e29b" fill-rule="evenodd"/>
            <path id="패스_2716" data-name="패스 2716" d="M60.094,25.249a17.081,17.081,0,0,1-2.313-1.014,7.184,7.184,0,0,0-2.344-.874,9.744,9.744,0,0,0-2.887.6,16.329,16.329,0,0,0-2.758,1,25.952,25.952,0,0,0-2.632,1.329c-.805.494-1.5,1.216-2.325,1.816-.771.562-1.607,1.083-2.389,1.725-.745.608-1.516,1.219-2.264,1.888-.722.646-1.345,1.417-2.063,2.108-.7.68-1.55,1.223-2.241,1.937s-1.326,1.451-1.99,2.18-1.219,1.554-1.861,2.3-1.4,1.405-2.017,2.165c-.631.775-1.109,1.652-1.7,2.427-.612.794-1.337,1.485-1.9,2.272-.589.82-1.109,1.664-1.641,2.458-.57.851-1.147,1.652-1.637,2.458-.543.9-1.086,1.736-1.523,2.56-.5.946-1.029,1.8-1.371,2.629a13.226,13.226,0,0,0-.813,2.849c-.22,1.314.106,2.256.862,2.648a8.01,8.01,0,0,0,2.83.756c1.022.091,2.192.11,3.039.11a11.744,11.744,0,0,1,.4-3.164,19.39,19.39,0,0,1,1.026-2.948c.414-.893,1.022-1.747,1.576-2.686.509-.858,1.079-1.728,1.694-2.621.574-.828,1.208-1.656,1.865-2.511.619-.805,1.056-1.8,1.744-2.625.657-.782,1.337-1.584,2.047-2.382.684-.767,1.428-1.519,2.158-2.294.71-.752,1.424-1.527,2.173-2.283.7-.707,1.424-1.421,2.169-2.123.729-.691,1.633-1.212,2.393-1.888s1.462-1.417,2.23-2.066c.79-.661,1.618-1.257,2.4-1.88.817-.65,1.538-1.386,2.325-1.971.847-.638,1.69-1.216,2.48-1.759.9-.627,1.892-.984,2.678-1.466,1.014-.619,1.747-1.39,2.48-1.709.042-.023.11.061.11.061" transform="translate(54.157 65.361)" fill="#f7e29b" fill-rule="evenodd"/>
            <path id="패스_2717" data-name="패스 2717" d="M49.747,3.707a11.828,11.828,0,0,1,2.83,1A19.24,19.24,0,0,0,55.551,6.1c.969.311,1.99.76,3.058,1.113,1.048.349,2.089.634,3.054,1.048,1.105.471,2.328.524,3.077,1.109,1.014.786,1.854,1.964,1.66,3.016-.688.441-2.04,1.816-1.907,2.42.961.342,1.888.57,2.75.961.931.418,1.447,1.538,2.264,2.009A24.751,24.751,0,0,1,72,19.243c.813.6,2.025.7,2.7,1.364.718.707.771,1.949,1.337,2.72a18.52,18.52,0,0,1,1.842,2.268,18.479,18.479,0,0,1,1.257,2.663,20.565,20.565,0,0,1,.285,2.932c.156.953.889,1.869.923,2.86.034.961-.688,1.93-.76,2.921-.065.961-.171,1.907-.33,2.891-.152.946.2,2.009-.03,2.978-.22.934-.676,1.835-.965,2.784-.277.919-.213,1.987-.547,2.917-.327.908-1.364,1.561-1.74,2.473-.368.9-.125,2.074-.536,2.97s-.779,1.808-1.216,2.689-1.44,1.462-1.907,2.332-.361,2.051-.851,2.906c-.539.843-1.4,1.493-1.941,2.332S68.34,65.861,67.8,66.7s-.919,1.785-1.455,2.629-.919,1.785-1.447,2.632-.889,1.8-1.413,2.648-1.812,1.238-2.325,2.1-.376,2.1-.877,2.963-1.394,1.5-1.884,2.378-1.31,1.561-1.785,2.442-.638,1.926-1.094,2.815-.406,2.028-.839,2.925-1.162,1.656-1.573,2.564-.707,1.865-1.094,2.788-1.14,1.69-1.5,2.625-.042,2.1-.372,3.046-.615,1.88-.912,2.834-1.094,1.747-1.356,2.716-.338,1.968-.562,2.94-1.147,1.8-1.337,2.788.2,2.074.053,3.065c-.657.505-1.728.406-2.849.71-.866.232-1.694,1.109-2.769,1.231-.927.1-1.949-.4-2.993-.372-.953.019-1.93.091-2.955.046-.969-.046-1.937-.216-2.944-.319-.98-.1-2.032.3-3.024.148s-1.975-.323-2.951-.524-2.013-.239-2.97-.49c-.98-.258-1.861-.843-2.792-1.155-.969-.319-2.078-.27-2.974-.646a27.763,27.763,0,0,1-2.541-1.679,19.262,19.262,0,0,1-2.465-1.706c-.843-.65-1.96-1.029-2.534-1.766-.646-.824-.179-2.139-.406-3.069a4.838,4.838,0,0,1-.034-2.655c.41-.934-.22-2.218.106-3.16.334-.957,1.554-1.633,1.808-2.6s-.38-2.15-.194-3.134.957-1.88,1.079-2.875.555-1.987.615-2.993-.619-2.04-.612-3.046-.266-1.987-.3-3,.593-2.036.517-3.043-.494-1.971-.6-2.974-.471-1.96-.6-2.959.224-2.051.08-3.05-.4-1.968-.555-2.963-.562-1.945-.718-2.936.463-2.112.308-3.1S9.008,59.6,8.86,58.6s-.8-1.918-.934-2.917.228-2.059.114-3.058-.7-1.956-.79-2.955.8-2.074.745-3.077-.6-1.979-.612-2.986,0-2.009.027-3.012c.015-1.022.52-2.006.547-2.986.03-1.022-.965-2.059-.915-3.035.053-1.018.148-2.021.224-2.993.08-1.018.555-1.979.669-2.944.118-1.018.2-2.021.357-2.974.175-1.014.585-1.949.817-2.887a29.181,29.181,0,0,1,1.143-2.754,22.283,22.283,0,0,1,1.242-2.644,17.271,17.271,0,0,1,1.337-2.587,13.913,13.913,0,0,1,2.032-2.063,13.6,13.6,0,0,1,2.131-2.021,15.884,15.884,0,0,1,2.541-1.69c.893-.308,2.059.209,3.084.019a24.308,24.308,0,0,1,2.872-.775c.946-.061,1.956-.566,3-.543.953.023,2,.953,3.039,1.048.22-.346,0-.657.217-1.208-.471-.862-.1-2.7.141-3.924a7.341,7.341,0,0,1,2.849-.908c.9-.049,1.933.448,3.008.467.972.015,1.99.046,3.008.091s2.07-.494,3.039-.441c1.086.061,2.1.133,3,.171,1.356.057,2.385.775,2.948.688" transform="translate(19.697 7.632)" fill="#9fca9e" fill-rule="evenodd"/>
            <path id="패스_2718" data-name="패스 2718" d="M27.593,103.049c.148-1,.095-2.013.281-2.993s.232-2.009.46-2.982.855-1.857,1.117-2.818.517-1.933.813-2.887.832-1.827,1.159-2.769.137-2.085.5-3.016,1.432-1.576,1.819-2.5.353-2.021.764-2.932,1.348-1.569,1.785-2.469.129-2.165.585-3.054,1.337-1.557,1.812-2.439,1.01-1.721,1.5-2.594.634-1.933,1.136-2.8,1.55-1.4,2.066-2.256.991-1.728,1.512-2.583.657-1.941,1.189-2.784.836-1.835,1.371-2.678,1.151-1.637,1.69-2.48,1.007-1.732,1.546-2.572,1.048-1.69,1.588-2.534c.505-.881,1.531-1.459,2.006-2.347s1-1.778,1.447-2.678.661-1.945,1.079-2.856c.425-.931,1.033-1.778,1.413-2.7.387-.95.532-1.987.866-2.932.342-.965.779-1.9,1.056-2.853.289-.988.615-1.96.828-2.936.22-1,.612-1.987.745-2.974.133-1.018.034-2.074.068-3.069a25.159,25.159,0,0,0-.353-3.035,22.428,22.428,0,0,0-.194-3.046,20.274,20.274,0,0,0-.851-2.948,20.012,20.012,0,0,0-1.7-2.553A20.244,20.244,0,0,0,56.8,9.632a22.079,22.079,0,0,0-1.949-2.427,9.137,9.137,0,0,1-.281,3,19.043,19.043,0,0,1-.691,2.837c-.285.9.122,2.127-.277,3.081-.376.9-1.6,1.44-2.051,2.347-.441.885-.505,1.975-1,2.841s-1.341,1.531-1.869,2.351c-.475.741-.672,1.8-1.238,2.75-.475.794-.934,1.683-1.462,2.606-.471.824-1.47,1.409-1.975,2.321-.467.839-.562,1.93-1.056,2.834-.46.851-1.094,1.645-1.573,2.545-.46.858-.934,1.74-1.405,2.64-.456.866-.471,1.983-.934,2.883-.452.877-1.318,1.554-1.778,2.454-.444.877-.672,1.873-1.121,2.765s-1.041,1.7-1.485,2.594-.707,1.876-1.147,2.773-1.4,1.546-1.831,2.446-.224,2.12-.657,3.02-.665,1.907-1.09,2.807c-.429.915-1.155,1.683-1.573,2.583-.425.919-1.1,1.713-1.5,2.613-.422.923-.961,1.781-1.36,2.678-.414.931-.213,2.112-.6,3.012-.41.942-1.265,1.664-1.645,2.564-.4.95-.893,1.838-1.257,2.735-.391.965-.277,2.089-.619,2.986-.38.98-.919,1.838-1.235,2.72-.361,1.014-1.14,1.812-1.405,2.674-.281.915-.084,1.964-.357,2.856-.281.919-.931,1.709-1.2,2.6q-.427,1.385-.832,2.712c-.285.927.015,2.013-.255,2.894-.289.931-.915,1.732-1.185,2.6-.289.942-.406,1.892-.672,2.75-.292.95-.357,1.592-.615,2.431,1,.1,1.683.387,2.636.429,1.014.042,1.99-.274,2.929-.3,1.029-.027,2.032.349,2.944.243a18.873,18.873,0,0,0,2.864-.634,7.585,7.585,0,0,0,2.61-1.208" transform="translate(38.09 20.163)" fill="#88b988"/>
            <path id="패스_2719" data-name="패스 2719" d="M11.04,15.758c-.646-1.261.133-1.162.581-2.727a12.938,12.938,0,0,1,1.109-2.579A8.7,8.7,0,0,1,14.22,8.039a7.237,7.237,0,0,1,2.4-1.63A23.787,23.787,0,0,1,19.549,5.9c.915-.175,1.9-.372,2.913-.5.972-.122,1.96-.315,2.944-.4,1.014-.084,2.036.148,2.974.095,1.086-.057,2.1-.011,2.967-.038,1.766-.057,1.584.311,2.955-.2,1.436-.532,1.1-.729,2.587-1.66a25.568,25.568,0,0,1,2.67-1.436A14.844,14.844,0,0,1,42.306.389,5.405,5.405,0,0,1,45.333.64,7.041,7.041,0,0,1,47.9,2.2a17.912,17.912,0,0,1,1.85,2.412,25.578,25.578,0,0,1,1.352,2.7c.836,1.523.444,1.535,1.493,2.61s1.189.38,2.773,1.227c.79.422,1.584,1.113,2.518,1.7.832.52,1.861.855,2.678,1.481a21.346,21.346,0,0,1,2.313,2.028,10.708,10.708,0,0,1,1.569,2.613,4.931,4.931,0,0,1,.714,2.822,29.912,29.912,0,0,1-.346,3.422c-.475,2.184.365,2.283-1.105,3.1-1.318.737-1.064.179-2.982-.015-.847-.087-1.831-.376-2.982-.513-.9-.106-1.876-.433-2.951-.577-.934-.125-1.952-.114-3-.273-.95-.141-1.933-.372-2.967-.543-.957-.156-2.006-.015-3.031-.2-.969-.175-1.975-.3-2.986-.5-.972-.19-1.93-.532-2.932-.745-.972-.205-1.975-.357-2.974-.581-.976-.224-1.983-.361-2.982-.608-.972-.236-1.956-.475-2.944-.733-.972-.258-1.842-.9-2.818-1.174s-1.941-.524-2.917-.82c-.961-.3-1.88-.745-2.841-1.064s-2.078-.205-3.027-.547-1.857-.836-2.807-1.2-1.781-1-2.712-1.39-1.892-.661-2.811-1.083" transform="translate(30.208 0.77)" fill="#9fca9e" fill-rule="evenodd"/>
            <path id="패스_2720" data-name="패스 2720" d="M24.653,21.249c-.357,1.5,1,.289,2.678,1.094.809.387,1.781.813,2.769,1.36.858.471,1.6,1.261,2.5,1.838.858.555,1.652,1.212,2.461,1.85a23.715,23.715,0,0,1,2.572,1.766,12.34,12.34,0,0,1,1.641,2.64,6.623,6.623,0,0,1,.847,2.875,5.626,5.626,0,0,1-.3,3.039,28.52,28.52,0,0,1-1.626,2.461,28.389,28.389,0,0,1-1.554,2.484A19.688,19.688,0,0,1,34.548,44.7,20.107,20.107,0,0,1,32.4,46.748c-1.519,1.018-1.193,1.01-2.632.953-1.375-.053-1.2-.361-2.67-.566a10.647,10.647,0,0,0-2.769.33c-1.037.144-1.816.391-2.142,1.25a1.718,1.718,0,0,0,.513,2.241c.938.733,2.385-.368,2.5.934.156,1.728-1.58,1.394-1.907,2.955A2.727,2.727,0,0,0,24.7,57.836a2.082,2.082,0,0,0,2.906-.433c1.052-1.064,1.364-1.128,1.785-2.746.315-1.216-.292,1.155-.323,2.45a4.8,4.8,0,0,0,.437,2.363,1.406,1.406,0,0,0,2.009.691,4.893,4.893,0,0,0,2.518-1.785c.991-1.421-.684-2.328.657-3.145,1.189-.722.969,1.508,2.287,1.93a3.16,3.16,0,0,0,2.659-.638A2.888,2.888,0,0,0,40.8,53.559c-.205-1.63-.976-1.485-.976-3.187,0-1.584.688-.927,1.922-2.4.593-.7,1.383-1.451,2.082-2.389.6-.8,1.029-1.8,1.622-2.724.562-.874,1.39-1.633,1.888-2.579a26.64,26.64,0,0,0,.953-3.058,18.166,18.166,0,0,0,.866-3.016,11.947,11.947,0,0,0,.357-3.115,8.672,8.672,0,0,0-.828-3,8.609,8.609,0,0,0-1.679-2.651c-.718-.718-1.383-1.451-2.093-2.082-.76-.676-1.63-1.17-2.374-1.751-.805-.631-1.512-1.322-2.279-1.846-.858-.589-1.8-.927-2.587-1.394-.923-.547-1.812-.953-2.613-1.356-1.007-.5-1.838-1.022-2.6-1.329-1.7-.684-1.481-1.781-2.667-.961-1.151.8-.763,1.166-1.645,2.253a18.888,18.888,0,0,1-1.857,2.116c-.98.988-1.31.8-1.637,2.161" transform="translate(61.543 40.374)" fill="#9fca9e" fill-rule="evenodd"/>
            <path id="패스_2721" data-name="패스 2721" d="M35.873,32.559c-.832-1.3-.972.566-2.712,1.208-.843.315-1.9.463-2.982.8-.938.289-1.907.691-2.94.934-1,.232-2.021.475-3.039.615a21.516,21.516,0,0,1-3.1-.038,13.154,13.154,0,0,1-3.092-.087,6.731,6.731,0,0,1-2.606-1.576A5.63,5.63,0,0,1,13.4,32.1c-.349-.984-.505-1.971-.729-2.86a27.888,27.888,0,0,1-.676-2.864,21.282,21.282,0,0,1-.144-2.932,15.37,15.37,0,0,1,.429-2.929c.327-1.8-.243-1.747.8-2.743,1-.953,1.2-.505,2.366-1.424a10.73,10.73,0,0,0,1.85-2.089,2.587,2.587,0,0,0,.638-2.579,1.958,1.958,0,0,0-2.161-1.223c-1.181.167-1.352,2.063-2.37,1.238-1.352-1.086-.065-1.983-.961-3.3a2.677,2.677,0,0,0-3.027-1.3A2.285,2.285,0,0,0,7.623,9.628c.038,1.5-.152,4.326,1.075,3.191,1.291-1.193-.95-1.873-2.389-2.655a2.851,2.851,0,0,0-3.225.441,2.246,2.246,0,0,0-.961,2.9c.566,1.459,1.77.972,1.869,2.693.08,1.39-1.314-.209-2.53.448A2.984,2.984,0,0,0,.041,18.9a2.754,2.754,0,0,0,1.39,2.765c1.318.984,1.626.482,2.849,1.664,1.143,1.1.346,1.094.543,3,.095.915.057,2,.251,3.153.163.984.2,2.074.452,3.149.239,1.01.707,1.99,1.045,3.008a26.673,26.673,0,0,0,1.007,3.027A18.027,18.027,0,0,0,9.39,41.292a11.848,11.848,0,0,0,2.146,2.268,8.646,8.646,0,0,0,2.632,1.675,8.643,8.643,0,0,0,3.1.4c1.014-.015,2,.095,2.948.023,1.014-.08,1.987-.228,2.921-.357,1.014-.141,1.952-.425,2.868-.612,1.014-.209,2.04-.141,2.925-.384,1.026-.281,1.93-.7,2.773-1,1.064-.376,1.918-.889,2.674-1.227,1.683-.752,2.549.22,2.784-1.208.228-1.379-.429-1.409-.6-2.8a16.529,16.529,0,0,1-.281-2.8c0-1.409.346-1.538-.41-2.72" transform="translate(0 19.568)" fill="#9fca9e" fill-rule="evenodd"/>
            <path id="패스_2722" data-name="패스 2722" d="M17.174,14.023a2.441,2.441,0,1,1-2.439-2.439,2.437,2.437,0,0,1,2.439,2.439" transform="translate(34.402 32.418)" fill="#231815"/>
            <path id="패스_2723" data-name="패스 2723" d="M21.764,15.307a2.439,2.439,0,1,1-2.439-2.439,2.437,2.437,0,0,1,2.439,2.439" transform="translate(47.258 36.011)" fill="#231815"/>
            <path id="패스_2724" data-name="패스 2724" d="M13.375,15.265a4.515,4.515,0,0,0,6.909,4.725,4.649,4.649,0,0,0,2.006-2.8,1.507,1.507,0,0,0-2.906-.8c-.019.095-.042.186-.068.277l-.042.118c-.057.148-.038.1.061-.133a3.808,3.808,0,0,0-.243.422c-.152.236.243-.281.011-.015-.065.072-.129.141-.2.205a1.267,1.267,0,0,0-.182.163c.186-.141.236-.179.141-.11a.94.94,0,0,1-.1.072,5.02,5.02,0,0,1-.463.262c-.106.049-.049.023.171-.072l-.152.057-.236.068a1.671,1.671,0,0,0-.239.049c.266-.034.319-.042.16-.027l-.122.008c-.095,0-.19,0-.285,0-.277,0,.365.076.076.015-.156-.034-.319-.118-.471-.137q.348.154.137.057l-.11-.057c-.084-.046-.163-.091-.243-.144a.939.939,0,0,1-.1-.072c-.095-.068-.046-.03.144.11a1.862,1.862,0,0,0-.182-.163,2.043,2.043,0,0,1-.2-.209c-.232-.266.156.254.008.015-.087-.141-.171-.277-.247-.422-.137-.258.106.315.019.061-.034-.106-.068-.205-.1-.311-.019-.08-.034-.16-.049-.239-.065-.289.011.372.011.076,0-.08,0-.16,0-.243,0-.122.068-.509-.015,0a1.628,1.628,0,0,0-.152-1.162,1.541,1.541,0,0,0-.9-.691,1.525,1.525,0,0,0-1.854,1.052" transform="translate(37.232 39.672)" fill="#231815"/>
            <path id="패스_2725" data-name="패스 2725" d="M19.875,4.306C11.724,7.755,8.328,17.509,6.987,25.585,5.054,37.224,9.392,47.1,11.45,58.4a102.7,102.7,0,0,1,1.493,23.98,101.018,101.018,0,0,1-1.326,11.756c-.433,2.511-1.721,5.618-1.333,8.224.657,4.429,7.479,6.617,10.913,8.049a59.516,59.516,0,0,0,19.927,4.406c1.933.1,1.93-2.906,0-3.008a55.986,55.986,0,0,1-18.935-4.251c-3.51-1.478-8.41-2.955-8.7-7.479-.163-2.579,1.2-5.994,1.573-8.6a106.279,106.279,0,0,0-.71-33.879c-1.774-9.739-5.91-18.822-4.782-28.884.9-8,3.7-18.373,11.825-21.815,1.778-.752.247-3.346-1.519-2.6" transform="translate(18.197 11.674)" fill="#231815"/>
            <path id="패스_2726" data-name="패스 2726" d="M25.963,19.674c-.623-.634.038-1.5.646-1.819a4.521,4.521,0,0,1,2.921-.11,20.258,20.258,0,0,1,5.7,2.18c3.267,1.8,7.175,4.323,8.554,7.962,2.917,7.7-3.221,14.947-7.927,20.307-1.273,1.451.847,3.593,2.131,2.135,3.5-4,7.168-8.2,8.725-13.386,1.436-4.79.9-10.2-2.522-14.013a27.1,27.1,0,0,0-14.123-8.148c-2.256-.422-4.911-.3-6.416,1.675a4.041,4.041,0,0,0,.179,5.348c1.36,1.379,3.491-.745,2.131-2.131" transform="translate(63.613 40.81)" fill="#231815"/>
            <path id="패스_2727" data-name="패스 2727" d="M20.7,5.734a6.72,6.72,0,0,1,.422-.612c-.076.1-.156.2-.236.3A7.057,7.057,0,0,1,22.1,4.214c-.1.076-.205.156-.3.236a6.861,6.861,0,0,1,1.265-.779l-2.264-1.3c-.008.068-.011.141-.023.209.019-.133.038-.266.053-.4a2.974,2.974,0,0,1-.2.726c.049-.118.1-.239.148-.361a3.073,3.073,0,0,1-.4.691c.08-.1.16-.205.236-.308a3.107,3.107,0,0,1-.532.539c.1-.08.205-.16.308-.236a3.283,3.283,0,0,1-.65.384c.118-.053.239-.1.357-.152l-.076.03c-.122.049-.239.1-.361.152a1.149,1.149,0,0,0-.422.387,1.513,1.513,0,0,0-.323.912,1.741,1.741,0,0,0,.9,1.542,1.816,1.816,0,0,0,.912.228,2.073,2.073,0,0,0,.456-.072,1.789,1.789,0,0,0,.718-.422,1.516,1.516,0,0,0,.441-1.067A1.547,1.547,0,0,0,21.9,4.093a1.522,1.522,0,0,0-1.067-.441c-.133.019-.266.038-.4.053a1.51,1.51,0,0,0-.665.387l-.023.019.3-.236-.027.015c.118-.049.239-.1.361-.152a.163.163,0,0,1-.061.019c.137-.019.27-.034.4-.053a.163.163,0,0,1-.061,0c.133.019.266.038.4.053a.457.457,0,0,1-.091-.023l.361.152-.053-.03c.1.08.2.156.3.236a.261.261,0,0,1-.065-.065c.076.1.156.2.236.3a.149.149,0,0,1-.03-.053c.049.122.1.239.152.361l-.008-.03c.019.133.034.266.053.4l0-.061q-.553.729-1.105,1.451a4.31,4.31,0,0,0,1.09-.566,5.338,5.338,0,0,0,.615-.517,5.845,5.845,0,0,0,.494-.608,4.415,4.415,0,0,0,.79-2.336,1.505,1.505,0,0,0-2.264-1.3A8.251,8.251,0,0,0,18.1,4.214a1.5,1.5,0,0,0,1.7,2.211,1.6,1.6,0,0,0,.9-.691" transform="translate(50.074 2.429)" fill="#231815"/>
            <path id="패스_2728" data-name="패스 2728" d="M22.933,5.111c-.141-.676-.311-1.356-.414-2.04.019.133.034.266.053.4a1.23,1.23,0,0,1-.008-.289c-.019.133-.038.266-.053.4a.685.685,0,0,1,.038-.152c-.049.122-.1.239-.152.361a.431.431,0,0,1,.061-.1c-.08.1-.16.2-.235.3l.053-.057c-.1.08-.205.16-.308.236a.716.716,0,0,1,.091-.053l-.361.152a.583.583,0,0,1,.133-.038c-.133.019-.266.038-.4.053a.572.572,0,0,1,.141.008l-.4-.057a.858.858,0,0,1,.141.042l-.357-.152a.981.981,0,0,1,.16.095c-.1-.08-.205-.156-.3-.236a1.455,1.455,0,0,1,.106.11c-.08-.1-.156-.2-.236-.3a1.154,1.154,0,0,1,.114.2c-.049-.122-.1-.239-.152-.361a4,4,0,0,1,.205.969c.057.357.122.714.171,1.071-.019-.133-.038-.266-.053-.4a1.248,1.248,0,0,1,0,.266c.019-.133.038-.266.053-.4a.672.672,0,0,1-.03.125c.049-.122.1-.239.152-.361a.311.311,0,0,1-.046.076l.236-.3-.038.042.3-.236a.333.333,0,0,1-.08.046c.122-.049.239-.1.361-.152A.371.371,0,0,1,21.8,4.4c.133-.019.266-.034.4-.053h-.061c.133.019.266.034.4.053a.315.315,0,0,1-.08-.023c.118.053.239.1.357.152L22.766,4.5c.1.076.205.156.308.236l-.019-.019c.076.1.156.2.236.3l-.03-.046c.053.118.1.239.152.357L23.4,5.3a1.561,1.561,0,0,0-.691-.9,1.505,1.505,0,0,0-2.059.539A1.569,1.569,0,0,0,20.5,6.106,1.743,1.743,0,0,0,22.61,7.3a1.821,1.821,0,0,0,.839-.475,1.871,1.871,0,0,0,.509-1.086,2.955,2.955,0,0,0-.042-.912c-.023-.16-.049-.323-.076-.482-.046-.311-.095-.619-.144-.931a2.92,2.92,0,0,0-.361-1.064,2.194,2.194,0,0,0-1.341-1.01,1.97,1.97,0,0,0-1.9.524,1.953,1.953,0,0,0-.479.877,2.147,2.147,0,0,0-.053.729c.1.82.3,1.633.471,2.442a1.52,1.52,0,0,0,.691.9,1.561,1.561,0,0,0,1.159.152,1.518,1.518,0,0,0,.9-.7,1.652,1.652,0,0,0,.152-1.159" transform="translate(54.704 3.584)" fill="#231815"/>
            <path id="패스_2729" data-name="패스 2729" d="M13.554,15.565C13.539,12.4,15.9,10,18.751,8.96c3.195-1.166,6.488-.691,9.8-.87a20.964,20.964,0,0,0,8.155-2.435c2.648-1.291,5.276-2.739,8.311-2.636,1.937.065,1.933-2.948,0-3.012-3.4-.114-6.393,1.356-9.363,2.818a24.53,24.53,0,0,1-4.646,1.892,23.837,23.837,0,0,1-6.131.376c-6.427-.023-14.37,2.8-14.336,10.472a1.507,1.507,0,0,0,3.012,0" transform="translate(29.502 0.001)" fill="#231815"/>
            <path id="패스_2730" data-name="패스 2730" d="M17.953,1.477c-1.812-.011-3.734.182-4.923,1.717A3.288,3.288,0,0,0,13,7.335C14.022,8.611,15.7,9.067,17.19,9.519q3.6,1.1,7.255,1.971a126.009,126.009,0,0,0,29.085,3.4,1.505,1.505,0,0,0,0-3.008,122.57,122.57,0,0,1-20.922-1.778q-5-.877-9.918-2.161c-1.694-.441-3.384-.915-5.06-1.44A6.59,6.59,0,0,1,15.9,5.872c-1.5-1.132,1.333-1.39,2.055-1.383a1.507,1.507,0,0,0,0-3.012" transform="translate(34.375 4.133)" fill="#231815"/>
            <path id="패스_2731" data-name="패스 2731" d="M11.087,4.54c-1.945,3.521,1.679,5.5,4.5,6.454a131.878,131.878,0,0,0,14.294,3.92,138.874,138.874,0,0,0,28.971,3.1,1.505,1.505,0,0,0,0-3.008A134.964,134.964,0,0,1,35.39,12.938q-5.584-1-11.065-2.461c-1.345-.361-11.471-2.906-10.64-4.418.938-1.7-1.66-3.217-2.6-1.519" transform="translate(29.488 10.628)" fill="#231815"/>
            <path id="패스_2732" data-name="패스 2732" d="M22.683,13.416a7.1,7.1,0,0,1,3.122-1.93c1-.292,2.454-.558,3.388.057,1.037.688.087,1.47-.566,2.032-1.048.9-2.287,1.569-3.411,2.37-2.1,1.5-4.288,3.734-4.14,6.526.133,2.549,2.241,5.113,4.984,4.676a2.575,2.575,0,0,0,1.987-3.738c-.9-1.728-2.986-1.664-4.353-.6a1.52,1.52,0,0,0,0,2.131,1.546,1.546,0,0,0,2.131,0c-.129.1-.232.072-.357-.034-.315-.281.209-.714.19-.733,0,0-.277.015-.319.008a1.058,1.058,0,0,1-.456-.205,2.162,2.162,0,0,1-.8-1.819c.148-2.055,2.332-3.426,3.874-4.437,1.842-1.208,4.581-2.765,4.737-5.242.175-2.743-2.541-4.262-4.942-4.288a10.055,10.055,0,0,0-7.2,3.092c-1.345,1.394.782,3.529,2.131,2.131" transform="translate(56.314 22.928)" fill="#231815"/>
            <path id="패스_2733" data-name="패스 2733" d="M22.139,9.72C20.566,7.775,18.53,5.8,15.818,6.066a4.384,4.384,0,0,0-3.031,1.489,4.658,4.658,0,0,0-.729,4.178c.6,2.393,2.617,4.577,2.287,7.172a2.626,2.626,0,0,1-1.679,2.226,5.306,5.306,0,0,1-1.333.266c.1.008.053-.008-.129-.046a.634.634,0,0,1,.4.79c-.068.2-.65.672-.779.217v-.8c-.008.068-.019.137-.027.209.129-.224.258-.444.387-.665l.057-.042.76-.205-.152,0,.76.205-.118-.091a1.513,1.513,0,0,0-2.059.543,1.542,1.542,0,0,0,.539,2.059,1.8,1.8,0,0,0,2.241-.209,2.021,2.021,0,0,0,.251-2.465,2.689,2.689,0,0,0-4.042-.71,2.382,2.382,0,0,0,.319,3.776,4.385,4.385,0,0,0,3.753.061,5.9,5.9,0,0,0,3.833-6.45,13.94,13.94,0,0,0-1.4-4.285c-.452-.961-1.341-2.336-1.018-3.449.247-.839,1.345-.908,2.074-.669,1.284.422,2.211,1.675,3.024,2.686a1.52,1.52,0,0,0,2.131,0,1.542,1.542,0,0,0,0-2.131" transform="translate(24.176 16.907)" fill="#231815"/>
            <path id="패스_2734" data-name="패스 2734" d="M4.7,10.943c-.456-.98,1.341-1.257,1.162-.163a1.529,1.529,0,0,0,2.211,1.7c.494-.224,2.241-1.109,2.674-.27.4.782-1.185,1.892-1.6,2.249A9.667,9.667,0,0,0,6.1,18.832c-1.189,3.514-.779,7.886.239,11.392,1.018,3.529,3.164,6.784,6.636,8.254a8.7,8.7,0,0,0,9.42-1.322c1.428-1.314-.707-3.441-2.127-2.127-2.617,2.42-6.822,1.09-8.892-1.379C8.987,30.794,8.367,26.6,8.466,22.988A8.608,8.608,0,0,1,10,17.784c1.166-1.447,2.9-2.215,3.544-4.08a3.518,3.518,0,0,0-1.523-4.3c-1.8-1.014-3.749-.3-5.47.475q1.105.855,2.211,1.7c.4-2.427-1.519-5.063-4.2-4.516a3.784,3.784,0,0,0-2.465,5.4c.813,1.755,3.411.228,2.6-1.519" transform="translate(4.81 19.567)" fill="#231815"/>
          </g>
        </g>
      </g>
    </g>
  </g>
</svg>
