<svg xmlns="http://www.w3.org/2000/svg" xmlns:xlink="http://www.w3.org/1999/xlink" width="144" height="153" viewBox="0 0 144 153">
  <defs>
    <clipPath id="clip-path">
      <rect id="사각형_2490" data-name="사각형 2490" width="144" height="153" transform="translate(-13445 1855)" fill="#fff" stroke="#707070" stroke-width="1"/>
    </clipPath>
    <clipPath id="clip-path-2">
      <rect id="사각형_1882" data-name="사각형 1882" width="112.068" height="178.962" transform="translate(0 0)" fill="#fff"/>
    </clipPath>
    <clipPath id="clip-path-3">
      <rect id="사각형_1881" data-name="사각형 1881" width="87.388" height="215.994" fill="none"/>
    </clipPath>
  </defs>
  <g id="마스크_그룹_62" data-name="마스크 그룹 62" transform="translate(13445 -1855)" clip-path="url(#clip-path)">
    <g id="그룹_1238" data-name="그룹 1238" transform="translate(-13705.833 -1764.926)">
      <g id="마스크_그룹_12" data-name="마스크 그룹 12" transform="translate(276.833 3593.926)" clip-path="url(#clip-path-2)">
        <g id="그룹_1129" data-name="그룹 1129" transform="translate(17.637 40.147)">
          <g id="그룹_1128" data-name="그룹 1128" transform="translate(0 0)">
            <g id="그룹_1127" data-name="그룹 1127" clip-path="url(#clip-path-3)">
              <path id="패스_2961" data-name="패스 2961" d="M35.83,11.628s2.459-7.68,9.525-2.459,7.066,11.984,4.606,18.436-3.687,10.444-2.151,15.359,3.635,17.818-4.171,16.9-7.81-4.915-7.81-4.915-2.151,5.224-9.216,3.687-9.83-6.764-8.293-12.9,2.247-12.595-.413-17.51-9.629-19.664,0-25.193,17.923,8.6,17.923,8.6" transform="translate(-12.33 4.743)" fill="#fabd1f"/>
              <path id="패스_2962" data-name="패스 2962" d="M22.91,2.247c.123,33.319-2.337,66.656-.614,99.968.417,8.089.409,16.9,2.2,24.821.941,4.163,6.113,8.52.666,12.081-3.14,2.05-8.252.949-9.1-3.062-.822-3.9,2.928-6.906,6.5-6.061,2.913.688,1.682,5.172-1.235,4.483,2.348.554-.35-2.378-.74-3.434a28.014,28.014,0,0,1-1.046-6.243q-1.027-8.55-1.581-17.156c-.781-11.772-.979-23.571-.912-35.365.138-23.347,1.291-46.68,1.206-70.031-.011-2.991,4.64-3,4.651,0" transform="translate(0.426 0.001)" fill="#fabd1f"/>
              <path id="패스_2963" data-name="패스 2963" d="M30.709,37.107l-.525-7.058c-.082-1.1-.16-2.2-.242-3.293-.048-.625-.093-1.254-.141-1.879l-.071-.941q-.151-1.473.353,1.031l1.667,1.667c.175.134,1.7.264.614.171-.435-.033-.871-.063-1.31-.082-.729-.026-1.459-.022-2.188-.022q-2.746,0-5.5,0l-10.753.011Q14.863,25.007,17.1,23.3c-.089.618-.182,1.235-.264,1.853.115-.859-.115.923-.134,1.083q-.218,1.858-.387,3.724c-.115,1.243-.208,2.485-.286,3.732a19.082,19.082,0,0,0-.1,3.568c-.212-.781-.42-1.563-.633-2.344A3.137,3.137,0,0,0,13.088,33.5c-.413-.052-.413-.074,0-.067a8.053,8.053,0,0,1,1.2-.06c.8-.045,1.6-.089,2.4-.138q2.511-.151,5.023-.339t5.019-.413c.8-.071,1.592-.141,2.389-.22a9.143,9.143,0,0,0,1.194-.115c-.882.2-1.5.286-2.028,1.306-.067.179-.13.361-.193.539.108-.435.138-.465.082-.082-.242.6.089-.216-.026-.454.082.577.082.692,0,.346-.078-.249-.06-.234.052.041.167.614-.2-.286-.26-.428.335.4.387.469.164.223a4.17,4.17,0,0,0-.406-.406c.428.443.242.167-.156-.067-.372-.223-.722-.361-.115-.127-.305-.115-.614-.216-.93-.305s-.636-.156-.956-.223c-1.165-.238.837,0-.5-.041-.759-.026-1.507-.045-2.266,0s-1.514.119-2.27.2c-1.485.175.9-.145-.573.082-.149.022-.3.041-.45.063-.506.108-.435.06.212-.141l1.671-1.671c.182-.659.212-.733.089-.231-.052.249-.1.495-.153.744s-.1.495-.153.74c.048-.662.089-.737.127-.223-.212-.781-.424-1.566-.636-2.348-.874-1.819-4.242-1.589-2.072-1.559.316,0,.629.007.941.007.863,0,1.723-.015,2.586-.037Q24.544,28.03,27,27.82a4.677,4.677,0,0,1,4.651,4.651A4.767,4.767,0,0,1,27,37.122a60.1,60.1,0,0,1-9.22.294,5.981,5.981,0,0,1-5.194-3.029c-1.023-1.916-.636-4.078-.123-6.08a5.853,5.853,0,0,1,4.528-4.454A41.637,41.637,0,0,1,22.3,23.2a17.867,17.867,0,0,1,9.581,1.749,10.426,10.426,0,0,1,5.555,8.513,8.369,8.369,0,0,1-1.224,4.818c-1.325,2.121-3.375,2.891-5.741,3.155-3.073.339-6.165.573-9.25.8q-2.271.167-4.547.305a21.358,21.358,0,0,1-5.447.03,5.809,5.809,0,0,1-4.647-5.685,45.473,45.473,0,0,1,.257-4.826c.279-3.762.737-7.5,1.295-11.233.3-1.983,2.623-3.412,4.483-3.412L22.654,17.4a92.955,92.955,0,0,1,9.927.127c2.72.29,5.276,1.187,6.15,4.108a25.962,25.962,0,0,1,.528,5.358q.38,5.056.752,10.113a4.674,4.674,0,0,1-4.651,4.651,4.764,4.764,0,0,1-4.651-4.651" transform="translate(22.906 47.153)" fill="#fff"/>
              <path id="패스_2964" data-name="패스 2964" d="M44.552,32.111q-12.284-.24-24.568-.484l4.018-7c1.41,2.411,8.215,1.883,10.589,1.942,2.631.067,8.424.807,10.187-1.816q2.629,3.416,5.254,6.831a69.552,69.552,0,0,1-17.379.8q.619-4.571,1.235-9.138c6.612,1.235,5.525,8.982,5.127,13.912-.29,3.62-.592,7.24-.871,10.864-.093,1.217-.562,3.144-.242,4.4.458,1.779,1.109,1.685,2.467,2.794,3.948,3.226,4.61,8.7.513,12.211-4.573,3.933-10.652,1.663-14.072-2.549a4.833,4.833,0,0,1,0-6.578,16.809,16.809,0,0,1,7.3-5.075c3.71-1.5,6.143,2.686,5.719,5.722A158.826,158.826,0,0,0,38.416,83.39h-9.3q.38-5.28.759-10.563c.439-6.1,8.55-5.842,9.3,0,.659,5.12,1.864,11.523.387,16.587-1.246,4.26-5.711,6.772-9.856,4.692-9.469-4.755-.662-22.823,2.675-29.141,2.82-5.339,10.6-.647,8.033,4.7a44.465,44.465,0,0,0-2.954,7.88,17.976,17.976,0,0,0-.752,4.134c-.022.8.633,2.5.495,3.006.588.7.216,1.064-1.109,1.094q-2.171,1.691-1.406-1.157c-.446-1.194-.138-3.111-.238-4.372a80.526,80.526,0,0,0-1.488-10.02h8.971q-.982,6.9-1.968,13.808c-.294,2.046-.186,5.008-.986,6.9q.407,2.7-1.049,1.179.926.7,1.819,1.432c5.2,5.644-.793,15.348-3.631,20.765-1.764,3.364-7.8,2.846-8.5-1.112-1.09-6.165-4.986-23.593,6.615-22.123,12.714,1.615.149,20.036,3.68,26.041,2.184,3.706,4.521,7.523.659,11.251-2.9,2.8-7.627,2.727-10.857.554-7.992-5.376-1.1-17,7.449-12.941a4.5,4.5,0,0,1,2.3,4.015c-.636,6.969-1.105,13.949-1.365,20.94-.019.584-.041,1.168-.06,1.749q.435,3.745-1.611-.32a50.5,50.5,0,0,0,5.3.807A28.543,28.543,0,0,0,49.9,141.667q.614,4.565,1.235,9.134C40,150.764,27.8,149.343,17.126,153.082v-8.971a66.347,66.347,0,0,0,24.516.763c1.116-.186,2.229-.4,3.337-.64q3.951-1.764,1.648,4.342c-.726.309-4.093-.766-4.77-.852a88.076,88.076,0,0,0-12.044-.651A84.131,84.131,0,0,0,17.32,148.1q-1.272.206-2.545.458-2.807.949-.063-3.572c.912-.67,6.005.361,7.252.4a171.632,171.632,0,0,0,25.379-1.105c5.935-.688,5.886,8.617,0,9.3a172.02,172.02,0,0,1-22.655,1.172c-5.175-.089-13.945.938-17.647-3.676-3.3-4.119-1.362-9.51,3.479-11.1,6.158-2.017,13.748-2.2,20.159-2.218,5.957-.015,14.161-.272,19.664,2.322,4.134,1.95,6.4,7.14,2.612,10.764s-11.914,3.605-16.818,3.94a77.63,77.63,0,0,1-21.483-1.715c-4.807-1.027-4.018-7.564,0-8.971,11.5-4.026,24.5-2.653,36.481-2.612,5.332.019,6.2,7.56,1.235,9.138a36.561,36.561,0,0,1-14.287,1.726c-3.564-.316-8.405-.685-10.5-4.067-1.957-3.166-.766-8.245-.6-11.728.268-5.533.673-11.054,1.176-16.572q1.155,2.009,2.307,4.015,4.091-4.627,1.388-1.816-.77,1.752-1.414.458c-.755-.357-1.47-1.875-1.827-2.634a10.792,10.792,0,0,1-.666-6.277c.335-2.456.9-4.889,1.369-7.326.19-1.008,1.6-7.419,1.622-7.4l3.289,1.362q1.518-2.048,1.12.32c.067,1.083.156,2.158.26,3.237.231,2.281.573,4.536.971,6.794l-8.5-1.112a67.127,67.127,0,0,0,2.943-6.236c.346-.863,1.734-3.263,1.473-4.275.253.986-2.3-1.738-2.489-2.125a7.972,7.972,0,0,1-.58-4.446c.651-8.256,2.359-16.583,3.527-24.784.655-4.573,8.085-4.3,8.971,0,1.291,6.266,2.631,13.3,2.039,19.72-.476,5.2-5.138,8.364-10.083,6.262-11.311-4.818-5.246-20.988-1.507-28.768l8.033,4.7a49.567,49.567,0,0,0-3.04,6.775c-.737,2.1-.945,5.726-2.035,7.579q.017,1.808-2.385,1.373-2.629,1.864-2.232-.223c-.476-.9-.041-3.01-.093-4.123-.13-2.75-.4-5.484-.755-8.215h9.3q-.38,5.285-.759,10.563c-.424,5.912-9.2,6.054-9.3,0a174.172,174.172,0,0,1,1.749-26.916q2.857,2.863,5.719,5.722a7.876,7.876,0,0,0-3.2,2.683V58.3c1.042,1.28,2.392,4.312-.022,3.4a7.011,7.011,0,0,1-2.534-2.378,12.04,12.04,0,0,1-2.221-7.56c-.007-3.341.476-6.753.744-10.079q.218-2.718.435-5.432c.071-.9.145-1.812.216-2.716q-.647-2.813,1.414-1.321c-5.1-.952-4-9.581,1.235-9.134a59.845,59.845,0,0,0,14.905-.469c3.628-.6,7.739,3.133,5.254,6.831-4.152,6.184-11.359,6.6-18.22,6.426-6.5-.167-14.927-.246-18.622-6.548a4.691,4.691,0,0,1,4.015-7q12.284.24,24.568.484c5.979.119,6,9.421,0,9.3" transform="translate(11.657 60.74)" fill="#fabd1f"/>
              <path id="패스_2965" data-name="패스 2965" d="M11.925,27.317a8.788,8.788,0,0,0,1.444-12.382l1.9-.246c-2.11,3.267-4.052,7.538-2.08,11.337l-1.9-.246a8.143,8.143,0,0,0,2.839-8.639q1.01.268,2.028.532c-2.013,1.834-1.712,4.945-1.485,7.4H12.245l.011-6.277,2.385.324a64.027,64.027,0,0,1-2.151,7.107A1.241,1.241,0,0,1,11,27.071a1.226,1.226,0,0,1-.848-1.492,63.968,63.968,0,0,0,2.151-7.1,1.218,1.218,0,0,1,2.381.32l-.011,6.277a1.214,1.214,0,0,1-2.426,0c-.29-3.14-.335-6.813,2.2-9.116a1.227,1.227,0,0,1,2.028.536A10.5,10.5,0,0,1,13,27.5a1.233,1.233,0,0,1-1.9-.246c-2.4-4.625-.551-9.715,2.08-13.785a1.225,1.225,0,0,1,1.9-.246,11.108,11.108,0,0,1-1.935,16.193,1.219,1.219,0,0,1-1.659-.435,1.242,1.242,0,0,1,.435-1.659" transform="translate(32.504 34.987)" fill="#ba4211"/>
              <path id="패스_2966" data-name="패스 2966" d="M14.058,13.036a10.758,10.758,0,0,1,3.821,10.2,10.788,10.788,0,0,1-7,8.059c-1.473.528-2.106-1.812-.644-2.34a8.341,8.341,0,0,0,5.3-6.362,8.417,8.417,0,0,0-3.2-7.84,1.222,1.222,0,0,1,0-1.715,1.239,1.239,0,0,1,1.715,0" transform="translate(34.348 34.527)" fill="#1a1311"/>
              <path id="패스_2967" data-name="패스 2967" d="M11.439,21.466c.138-.22.253-.446.372-.673.13-.249-.037.123.052-.115.052-.138.1-.275.145-.417.063-.212.119-.424.164-.64.007-.052.071-.5.041-.223.011-.112.022-.22.03-.331a6.538,6.538,0,0,0,.007-.714c0-.13-.015-.257-.026-.387-.033-.353.048.234-.019-.112a6.49,6.49,0,0,0-.179-.752c-.03-.1-.063-.208-.1-.313-.022-.071-.048-.138-.078-.208.052.123.048.119-.007-.011h2.095c-.071.141-.141.286-.2.435.086-.2-.056.149-.056.153-.1.26-.19.528-.268.8s-.145.54-.2.815q-.045.207-.078.413l-.03.179c.019-.127.015-.115,0,.033a10.939,10.939,0,0,0-.06,1.674c.011.279.033.558.071.837-.03-.216.019.1.026.153.03.156.06.313.1.469a1.214,1.214,0,0,1-2.34.644,11.991,11.991,0,0,1,.949-7.825,1.219,1.219,0,0,1,2.095,0,7.763,7.763,0,0,1-.4,7.345,1.213,1.213,0,0,1-2.095-1.224" transform="translate(33.232 40.131)" fill="#f79a00"/>
              <path id="패스_2968" data-name="패스 2968" d="M11.719,19.45a2.308,2.308,0,0,1,.871.811,2.627,2.627,0,0,1,.249.54,2.467,2.467,0,0,1,.1.618l-.045.32a.919.919,0,0,1-.216.413.62.62,0,0,1-.22.22.919.919,0,0,1-.413.216.743.743,0,0,1-.13.033c-.145.022-.294.045-.439.056a2.552,2.552,0,0,1-.584-.06,2.392,2.392,0,0,1-.532-.193,2.041,2.041,0,0,1-.454-.32,1.1,1.1,0,0,1-.093-.093,2.891,2.891,0,0,1-.257-.339,2.111,2.111,0,0,1-.171-.387.709.709,0,0,1-.037-.126,2.552,2.552,0,0,1-.052-.417,2.437,2.437,0,0,1,.048-.435,2.014,2.014,0,0,1,.186-.506,1.886,1.886,0,0,1,.309-.435.584.584,0,0,1,.089-.078,2.007,2.007,0,0,1,.335-.249,1.909,1.909,0,0,1,.8-.22,2.347,2.347,0,0,1,.532.052,1.066,1.066,0,0,1,.1.026,3,3,0,0,1,.376.16,1.967,1.967,0,0,1,.417.305,2.228,2.228,0,0,1,.324.4.9.9,0,0,1,.112.193,2.257,2.257,0,0,1,.249,1.008,3.052,3.052,0,0,1-.048.413l-.022.112a2.648,2.648,0,0,1-.153.368.678.678,0,0,1-.056.1,2.519,2.519,0,0,1-.246.32,1.775,1.775,0,0,1-.2.167,1.661,1.661,0,0,1-.208.153,2.681,2.681,0,0,1-.383.16,1.63,1.63,0,0,1-.517.078.48.48,0,0,1-.1,0,2.707,2.707,0,0,1-.424-.06,2.283,2.283,0,0,1-.487-.19.8.8,0,0,1-.193-.119,2.309,2.309,0,0,1-.4-.339,1.94,1.94,0,0,1-.294-.42,2.648,2.648,0,0,1-.153-.368,2.667,2.667,0,0,1-.063-.42,1.612,1.612,0,0,1,.056-.532,1.738,1.738,0,0,1,.089-.231,1.828,1.828,0,0,1,.1-.231,2.615,2.615,0,0,1,.234-.3l.067-.071a1.873,1.873,0,0,1,.391-.283,2.216,2.216,0,0,1,.458-.182,3.549,3.549,0,0,1,.406-.056.916.916,0,0,1,.1-.007,2.844,2.844,0,0,1,.5.056,1.051,1.051,0,0,1,.186.048,2.184,2.184,0,0,1,.446.2,3.791,3.791,0,0,1,.309.238l.067.071a3.106,3.106,0,0,1,.234.3l.045.086a2.228,2.228,0,0,1,.145.368,2.878,2.878,0,0,1,.06.406.9.9,0,0,1-.1.465,1.113,1.113,0,0,1-.644.644.9.9,0,0,1-.465.1,1.239,1.239,0,0,1-.859-.357l-.19-.246a1.2,1.2,0,0,1-.164-.61l0-.03.045.324a.749.749,0,0,0-.037-.13l.123.29a.626.626,0,0,0-.074-.127l.19.246a.5.5,0,0,0-.108-.108c.082.063.164.123.246.186a.8.8,0,0,0-.175-.1c.1.037.193.078.29.119a1.051,1.051,0,0,0-.242-.063l.324.045a.932.932,0,0,0-.249,0l.32-.045a1.117,1.117,0,0,0-.212.056l.29-.123a.855.855,0,0,0-.16.093l.246-.19a.88.88,0,0,0-.1.1l.19-.246a.626.626,0,0,0-.074.127l.123-.286a.5.5,0,0,0-.041.145l.045-.32a.524.524,0,0,0,0,.153l-.045-.32a.6.6,0,0,0,.045.16l-.123-.29a.836.836,0,0,0,.1.175l-.19-.246a.778.778,0,0,0,.156.156l-.246-.19a1.365,1.365,0,0,0,.223.134l-.29-.123a.99.99,0,0,0,.249.067c-.108-.015-.216-.03-.324-.041a.727.727,0,0,0,.2,0l-.32.045a.671.671,0,0,0,.164-.045l-.29.123a.615.615,0,0,0,.134-.082l-.246.19a.658.658,0,0,0,.112-.115l-.19.246a.756.756,0,0,0,.078-.13l-.123.29a.844.844,0,0,0,.052-.19l-.045.324a.838.838,0,0,0,0-.216l.045.32a1.01,1.01,0,0,0-.071-.257l.123.29a1.049,1.049,0,0,0-.138-.234l.19.246a.974.974,0,0,0-.164-.164l.246.19a.819.819,0,0,0-.175-.1l.29.123a.591.591,0,0,0-.164-.045l.324.041a1.01,1.01,0,0,0-.212,0l.324-.045a.837.837,0,0,0-.13.033c.1-.041.193-.078.29-.119a.626.626,0,0,0-.127.074l.246-.19a.6.6,0,0,0-.119.119l.19-.246a.9.9,0,0,0-.1.164l.123-.29a.98.98,0,0,0-.056.2l.045-.324a.81.81,0,0,0,0,.19l-.045-.324a1.022,1.022,0,0,0,.041.153c-.037-.1-.078-.193-.119-.29a.691.691,0,0,0,.093.16l-.19-.246a.884.884,0,0,0,.134.13l-.246-.19a.966.966,0,0,0,.216.127l-.29-.123a1.032,1.032,0,0,0,.26.067l-.324-.041a1.294,1.294,0,0,0,.294,0c-.108.015-.216.026-.324.041a.877.877,0,0,0,.171-.037l-.893,1.172-.007-.086.045.32a1.108,1.108,0,0,0-.078-.268l.123.29a1.21,1.21,0,0,0-.141-.242l.19.246a1.145,1.145,0,0,0-.212-.212l.246.19a1.491,1.491,0,0,0-.182-.112.893.893,0,0,1-.342-.313.919.919,0,0,1-.216-.413,1.344,1.344,0,0,1,.123-.934,1.225,1.225,0,0,1,.726-.558l.32-.045a1.266,1.266,0,0,1,.614.167" transform="translate(39.869 51.195)" fill="#1a1311"/>
              <path id="패스_2969" data-name="패스 2969" d="M16.343,20.106a2.364,2.364,0,0,1,.056.428,2.017,2.017,0,0,1-.048.432,1.717,1.717,0,0,1-.186.5l-.06.089a3.15,3.15,0,0,1-.257.331.853.853,0,0,1-.086.078,3.546,3.546,0,0,1-.331.253,2.624,2.624,0,0,1-.5.231,2.526,2.526,0,0,1-.547.1,1.91,1.91,0,0,1-1.042-.223,1.528,1.528,0,0,1-.424-.313l-.037-.045c-.041-.045-.078-.1-.112-.141a.729.729,0,0,1-.164-.279l-.063-.145a.929.929,0,0,1-.019-.484c.007-.063.015-.13.026-.193l.019-.1a2.839,2.839,0,0,1,.227-.6,2.4,2.4,0,0,1,.279-.417,2.014,2.014,0,0,1,.339-.372,2.355,2.355,0,0,1,.789-.48,1.39,1.39,0,0,1,.677,0l.06.015L15,18.8a3.28,3.28,0,0,1,.331.141,1.433,1.433,0,0,1,.424.339,2.065,2.065,0,0,1,.26.353,2.574,2.574,0,0,1,.175.4,1.7,1.7,0,0,1,.086.58,2.483,2.483,0,0,1-.052.443.53.53,0,0,1-.041.13,1.649,1.649,0,0,1-.469.737.872.872,0,0,1-.391.249.9.9,0,0,1-.465.108.926.926,0,0,1-.469-.108.914.914,0,0,1-.391-.249,1.22,1.22,0,0,1-.353-.859c.015-.1.026-.212.041-.32a1.26,1.26,0,0,1,.313-.536.652.652,0,0,0,.089-.086l-.19.246a.716.716,0,0,0,.067-.115l-.123.29a.6.6,0,0,0,.045-.16c-.015.108-.03.216-.041.324a.727.727,0,0,0,0-.2l.045.324a.885.885,0,0,0-.056-.193l.123.29a.621.621,0,0,0-.093-.16l.19.246a.583.583,0,0,0-.115-.119l.246.19a.716.716,0,0,0-.115-.067l.29.123a.417.417,0,0,0-.134-.033l.324.041h-.015l.61-.167a1.7,1.7,0,0,0-.22.141l.246-.19a1.5,1.5,0,0,0-.279.275l.19-.246a1.766,1.766,0,0,0-.208.353c.041-.093.082-.19.123-.287a1.606,1.606,0,0,0-.1.376c-.041-.313-.082-.625-.123-.934l.011.011-.19-.246a.565.565,0,0,0,.115.115l-.246-.19a.486.486,0,0,0,.134.078c-.1-.041-.193-.082-.29-.119a.7.7,0,0,0,.179.045c-.108-.011-.216-.026-.324-.041a.987.987,0,0,0,.234,0c-.108.011-.216.026-.324.041a1.038,1.038,0,0,0,.26-.071l-.29.123a1.049,1.049,0,0,0,.234-.138l-.246.19a1,1,0,0,0,.167-.164l-.19.246a.993.993,0,0,0,.093-.16l-.123.29a.656.656,0,0,0,.045-.167l-.045.324a.576.576,0,0,0,0-.16c.015.108.026.216.041.324L14,20.75a.969.969,0,0,1-.022-.484.907.907,0,0,1,.145-.45,1.385,1.385,0,0,1,.726-.558,1.223,1.223,0,0,1,.934.123,1.2,1.2,0,0,1,.558.726" transform="translate(24.473 50.926)" fill="#1a1311"/>
              <path id="패스_2970" data-name="패스 2970" d="M17.572,22.051A4.326,4.326,0,0,1,13.9,24.618a3.467,3.467,0,0,1-3.475-2.657,1.313,1.313,0,0,1,.123-.934,1.214,1.214,0,0,1,.726-.558,1.228,1.228,0,0,1,1.492.848,2.342,2.342,0,0,0,.089.353c.045.138-.13-.257-.026-.078a1.583,1.583,0,0,0,.1.171c.1.175-.149-.167-.052-.06.037.041.071.086.112.123s.1.093.145.138c.153.141-.182-.119-.06-.045s.212.13.32.19c.186.1-.208-.074-.071-.026.056.015.108.037.164.052a1.7,1.7,0,0,0,.2.052c.048.011.253.056.041.011s-.015-.007.041-.007a1.811,1.811,0,0,0,.2,0c.212,0-.227.048-.074.015.056-.011.115-.022.175-.037a2.119,2.119,0,0,0,.2-.06c.045-.015.246-.093.056-.015s.007-.007.048-.026c.063-.033.127-.071.186-.108s.1-.063.153-.1c.156-.108.015-.033-.045.037.082-.1.2-.175.29-.268q.067-.067.123-.134c.026-.026.048-.056.071-.082q.089-.106-.078.1c.019-.089.156-.223.2-.3a4.248,4.248,0,0,0,.2-.387,1.215,1.215,0,0,1,1.659-.435,1.25,1.25,0,0,1,.435,1.659" transform="translate(31.006 55.035)" fill="#1a1311"/>
              <path id="패스_2971" data-name="패스 2971" d="M38,25.063q-15.208.246-30.413-.327c-1.555-.06-1.563-2.485,0-2.426q15.2.569,30.413.327a1.214,1.214,0,0,1,0,2.426" transform="translate(24.36 60.696)" fill="#1a1311"/>
              <path id="패스_2972" data-name="패스 2972" d="M17.256,28.209a24.28,24.28,0,0,1-6.165-.286,1.221,1.221,0,0,1-.845-1.5,1.245,1.245,0,0,1,1.492-.845c.238.041.48.078.722.112.089.011.074.011-.041,0,.074.007.149.019.223.026.112.011.223.026.335.037q.7.073,1.406.1a23.125,23.125,0,0,0,2.872-.071A1.216,1.216,0,0,1,18.469,27a1.243,1.243,0,0,1-1.213,1.213" transform="translate(30.968 69.535)" fill="#1a1311"/>
              <path id="패스_2973" data-name="패스 2973" d="M11.5,31.185a33.977,33.977,0,0,1,2.493,3.337q.586.9,1.105,1.838a8.039,8.039,0,0,1,.919,1.927c.368,1.585-1.206,2.657-2.206,3.613q-1.658,1.585-3.378,3.1a1.239,1.239,0,0,1-1.715,0,1.222,1.222,0,0,1,0-1.715c.938-.83,1.868-1.674,2.779-2.534.458-.428.912-.863,1.362-1.3a7.456,7.456,0,0,1,.67-.659,2.121,2.121,0,0,0,.16-.156c-.138.138.048.26-.13-.011-.313-.473-.536-1.019-.819-1.507s-.584-.982-.9-1.462A28.486,28.486,0,0,0,9.78,32.9a1.243,1.243,0,0,1,0-1.715,1.225,1.225,0,0,1,1.715,0" transform="translate(40.215 83.893)" fill="#1a1311"/>
              <path id="패스_2974" data-name="패스 2974" d="M11.415,32.231a18.051,18.051,0,0,0,5,3.892l-1.47.19,5.849-5.1a1.239,1.239,0,0,1,1.715,0,1.225,1.225,0,0,1,0,1.715l-5.849,5.1a1.262,1.262,0,0,1-1.47.19,20,20,0,0,1-5.5-4.271c-1.046-1.157.666-2.876,1.715-1.715" transform="translate(29.646 83.979)" fill="#1a1311"/>
              <path id="패스_2975" data-name="패스 2975" d="M19.936,40.538a35.178,35.178,0,0,0-4.762-5.663h1.712a66.428,66.428,0,0,1-5.056,4.919,1.238,1.238,0,0,1-1.712,0,1.222,1.222,0,0,1,0-1.715,69.3,69.3,0,0,0,5.056-4.919,1.224,1.224,0,0,1,1.712,0,37.67,37.67,0,0,1,5.142,6.154,1.212,1.212,0,1,1-2.091,1.224" transform="translate(28.857 89.27)" fill="#1a1311"/>
              <path id="패스_2976" data-name="패스 2976" d="M20.287,43.348a71.749,71.749,0,0,0-9.838-.2,1.225,1.225,0,0,1-1.213-1.213,1.238,1.238,0,0,1,1.213-1.213,71.748,71.748,0,0,1,9.838.2A1.246,1.246,0,0,1,21.5,42.135a1.223,1.223,0,0,1-1.213,1.213" transform="translate(31.519 110.559)" fill="#1a1311"/>
              <path id="패스_2977" data-name="패스 2977" d="M21.473,44.281A104.609,104.609,0,0,0,10.4,44.14c-1.559.06-1.555-2.366,0-2.43a104.61,104.61,0,0,1,11.069.145,1.238,1.238,0,0,1,1.213,1.213,1.223,1.223,0,0,1-1.213,1.213" transform="translate(30.338 113.258)" fill="#1a1311"/>
              <path id="패스_2978" data-name="패스 2978" d="M19.8,49.1h-8.6a1.213,1.213,0,0,1,0-2.426h8.6a1.213,1.213,0,0,1,0,2.426" transform="translate(29.238 127)" fill="#1a1311"/>
              <path id="패스_2979" data-name="패스 2979" d="M21.85,50.66a54.275,54.275,0,0,1-11.069-.48,1.218,1.218,0,0,1-.845-1.492,1.246,1.246,0,0,1,1.492-.848,51.372,51.372,0,0,0,10.422.394,1.223,1.223,0,0,1,1.213,1.213A1.238,1.238,0,0,1,21.85,50.66" transform="translate(27.498 130.107)" fill="#1a1311"/>
              <path id="패스_2980" data-name="패스 2980" d="M18.958,48.394q1.563,2.757,2.932,5.618a1.242,1.242,0,0,1-.19,1.47q-3.946,3.377-7.9,6.746a1.232,1.232,0,0,1-1.715,0,14.49,14.49,0,0,1-2.485-3.5c-.7-1.4-1.191-2.906.041-4.182a7.671,7.671,0,0,1,1.682-1.176c.688-.413,1.38-.83,2.072-1.243q2.126-1.272,4.253-2.541a1.214,1.214,0,0,1,1.224,2.095c-2.307,1.377-4.629,2.731-6.92,4.137-.182.112-.625.327-.681.558-.086.357.365,1.016.521,1.317a12.236,12.236,0,0,0,2.009,2.82H12.082q3.957-3.365,7.9-6.746c-.063.491-.126.982-.19,1.47q-1.367-2.858-2.932-5.618a1.214,1.214,0,0,1,2.095-1.224" transform="translate(32.295 130.056)" fill="#1a1311"/>
              <path id="패스_2981" data-name="패스 2981" d="M14.384,48.7a27.28,27.28,0,0,1,4.4,6.225,1.23,1.23,0,0,1-.435,1.659Q15.8,57.836,13.25,59.1a1.246,1.246,0,0,1-1.663-.435A1.227,1.227,0,0,1,12.022,57q2.551-1.256,5.1-2.515c-.145.551-.29,1.105-.435,1.659a24.726,24.726,0,0,0-4.018-5.734A1.213,1.213,0,0,1,14.384,48.7" transform="translate(25.929 131.535)" fill="#1a1311"/>
              <path id="패스_2982" data-name="패스 2982" d="M19.665,33.682a36.15,36.15,0,0,0-5.4,4.353V36.32q2.232,2.266,4.469,4.528c1.1,1.112-.618,2.828-1.715,1.715q-2.232-2.266-4.469-4.528a1.229,1.229,0,0,1,0-1.715,39.171,39.171,0,0,1,5.89-4.733,1.213,1.213,0,1,1,1.224,2.095" transform="translate(21.724 85.482)" fill="#1a1311"/>
              <path id="패스_2983" data-name="패스 2983" d="M19.338,33.1a45.662,45.662,0,0,1-8.3.733,1.213,1.213,0,0,1,0-2.426,42.3,42.3,0,0,0,7.657-.647,1.241,1.241,0,0,1,1.492.848,1.228,1.228,0,0,1-.848,1.492" transform="translate(30.624 83.615)" fill="#1a1311"/>
              <path id="패스_2984" data-name="패스 2984" d="M19.485,37.052a49.383,49.383,0,0,1-8.29-.339A1.251,1.251,0,0,1,9.982,35.5a1.22,1.22,0,0,1,1.213-1.213,49.383,49.383,0,0,0,8.29.339,1.213,1.213,0,0,1,0,2.426" transform="translate(29.55 93.27)" fill="#1a1311"/>
              <path id="패스_2985" data-name="패스 2985" d="M23.04,63.389l-3.226-.234a20.7,20.7,0,0,1-2.921-.275,3.429,3.429,0,0,1-2.147-1.641c-.6-.915-1.142-1.868-1.715-2.8-.558-.912-1.124-1.823-1.678-2.738a2.285,2.285,0,0,1,.071-2.876c.673-.8,1.5-1.5,2.24-2.236Q14.83,49.431,16,48.275a1.214,1.214,0,0,1,1.715,1.715q-1.892,1.864-3.78,3.736c-.052.048-.729.7-.718.718-.007-.294.03-.353.1-.175l.19.313.335.547q.709,1.155,1.41,2.3.675,1.1,1.343,2.191c.342.558.513.874,1.187.956,1.734.212,3.509.257,5.25.383a1.243,1.243,0,0,1,1.213,1.213,1.223,1.223,0,0,1-1.213,1.213" transform="translate(22.658 130.379)" fill="#1a1311"/>
              <path id="패스_2986" data-name="패스 2986" d="M11.023,34.9a50.9,50.9,0,0,1,2.463,12.427c.275,3.881.48,8.353-1.239,11.947-.673,1.41-2.764.179-2.095-1.224a13.6,13.6,0,0,0,.993-5.421,48.463,48.463,0,0,0-.119-5.741A48.253,48.253,0,0,0,8.683,35.541c-.491-1.485,1.849-2.121,2.34-.644" transform="translate(41.662 92.664)" fill="#1a1311"/>
              <path id="패스_2987" data-name="패스 2987" d="M14.491,43.188a29.452,29.452,0,0,1-3.2,16.862c-.722,1.388-2.817.16-2.095-1.224a27.228,27.228,0,0,0,2.869-15.638,1.22,1.22,0,0,1,1.213-1.213,1.24,1.24,0,0,1,1.213,1.213" transform="translate(39.057 114.202)" fill="#1a1311"/>
              <path id="패스_2988" data-name="패스 2988" d="M17.366,52.321l-.033,8.133a2.581,2.581,0,0,0,.186,1.466,7.023,7.023,0,0,0,1.042.979,3.058,3.058,0,0,1,1.034,3.241,1.226,1.226,0,0,1-2.34,0,4.471,4.471,0,0,0-5.689-2.56,1.252,1.252,0,0,1-1.659-.435,1.221,1.221,0,0,1,.435-1.659,6.92,6.92,0,0,1,9.253,4.007h-2.34c.272-.673-1.142-1.477-1.522-1.938a4.8,4.8,0,0,1-.822-3.367l.03-7.866a1.214,1.214,0,0,1,2.426,0" transform="translate(31.357 139.162)" fill="#1a1311"/>
              <path id="패스_2989" data-name="패스 2989" d="M34.929,52.887c5.5.357,11.724,1.823,16.215,5.2,1.607,1.209,3.144,3.215,2.21,5.3-.949,2.121-3.524,2.273-5.529,2.523A118.676,118.676,0,0,1,6.406,63.666c-1.522-.35-.878-2.69.644-2.34a116.943,116.943,0,0,0,31.232,2.951q3.695-.151,7.382-.539c1.079-.115,3.055,0,4.022-.532.469-.03.74-.331.822-.908.636-.435.714-.848.234-1.232a4.016,4.016,0,0,0-1.611-1.425,30.516,30.516,0,0,0-14.2-4.327c-1.552-.1-1.563-2.526,0-2.426" transform="translate(13.15 143.883)" fill="#1a1311"/>
              <path id="패스_2990" data-name="패스 2990" d="M43.1,59.976Q25.891,60.5,8.685,59.7c-1.555-.071-1.563-2.5,0-2.426q17.2.8,34.413.279c1.563-.048,1.559,2.378,0,2.426" transform="translate(15.158 155.814)" fill="#1a1311"/>
              <path id="패스_2991" data-name="패스 2991" d="M38.77,43.448c-3.538.8-6.913-.041-10.161-1.488-1.477-.662-2.895-1.444-4.312-2.225a30.387,30.387,0,0,1-4.279-2.452,3.427,3.427,0,0,1-.934-4.416c.223-.391,1.775-1.819,1.671-2.091s-.536-.391-.755-.458c-.342-.112-.986.067-1.172-.022.1.052-.086-.5.052-.294a4.579,4.579,0,0,0,1.22,1.306q-1.172,2-2.348,4.015c-.521-.376-.971-.822-1.47-1.213l1.023.6-.041-.007H18.5c.912-.275.231-.071-.019.045a12.1,12.1,0,0,1-1.258.5c-.9.316-.078.171-.272.1-.495-.391-.618-.714-.365-.967.071.086.179.1.324.037.234.015.469.022.7.022.342-.019.316-.007-.074.033-.1.041-.58.253-.223.082a6.075,6.075,0,0,1,2.519-.506c2.485-.1,2.913,3.088,1.172,4.331a5.2,5.2,0,0,0-1.485,1.406c.015-.026-.06.19-.03.19a3.116,3.116,0,0,1-.569-.268c-.149.019-.167.007-.06-.03a.75.75,0,0,0,.357-.29,3.832,3.832,0,0,0,.636-.882,5.182,5.182,0,0,0,.673-2.292c.175-2.973,4.826-3,4.651,0-.212,3.594-3.27,9.89-7.9,7.758a4.453,4.453,0,0,1-2.366-4.811c.331-2.191,2.039-3.583,3.739-4.8q.586,2.165,1.176,4.335c-.234,0-.469.015-.7.037a.763.763,0,0,0,.528-.167c-.03,0-1.176.476-.785.353a5.921,5.921,0,0,1-2.273.119c-2.385-.212-4.469-1.637-4.227-4.283.22-2.385,2.3-3.423,3.963-4.119a2.974,2.974,0,0,1,2.206-.413c.7.2,1.016.692,1.555,1.083a2.393,2.393,0,0,1,.833,3.181,2.343,2.343,0,0,1-3.181.833,7.42,7.42,0,0,1-3.419-4.446,4.358,4.358,0,0,1,2.43-4.733c3.449-1.667,8.39.432,8.658,4.5a4.449,4.449,0,0,1-.688,2.7,6.119,6.119,0,0,1-1.589,1.793q-.184.167-.045.078c-.636-1.429-.629-1.905.033-1.432a6.225,6.225,0,0,1,1.295.714l2.586,1.429c3.133,1.726,6.809,3.873,10.522,3.04,2.913-.659,4.16,3.825,1.235,4.483" transform="translate(0.979 69.565)" fill="#fabd1f"/>
              <path id="패스_2992" data-name="패스 2992" d="M21.71,25.645c2.43-.811,4.584,1.537,4.163,3.892-.454,2.549-3.044,3.728-5.41,3.613.108-.793.216-1.589.324-2.381a3.969,3.969,0,0,1,2.936,5.053c-.841,2.5-3.337,2.951-5.67,2.831.108-.8.216-1.589.324-2.385,2.4.42,5.008,1.2,5.953,3.71.807,2.147-.778,5.034-3.293,4.7a1.259,1.259,0,0,1-1.213-1.213c0-.592.566-1.3,1.213-1.213,1.317.171,1.246-1.366.625-2.1-.934-1.112-2.586-1.313-3.929-1.548s-1.038-2.452.32-2.381c1.072.052,2.7.238,3.271-.923a1.537,1.537,0,0,0-1.183-2.2,1.22,1.22,0,0,1,.324-2.385c1.072.052,2.385-.138,2.9-1.232.35-.744-.033-1.831-1.008-1.507-1.485.495-2.121-1.849-.644-2.34" transform="translate(-1.287 69.327)" fill="#1a1311"/>
              <path id="패스_2993" data-name="패스 2993" d="M39.033,13.149C35.87,7.2,28.663,1.183,21.906,5.886,14.42,11.1,22.952,20.523,25.039,26.432a19.71,19.71,0,0,1,1.072,9.652c-.606,3.858-2.511,7.453-2.869,11.356a9.179,9.179,0,0,0,5.938,9.618c3.892,1.47,8.178.127,11.229-2.482,1.179-1.012,2.906.7,1.715,1.715-4.751,4.059-11.672,5.295-16.888,1.3-6.362-4.878-4.219-11.984-2.318-18.529a19.072,19.072,0,0,0-.7-13.208c-1.529-3.732-4.078-7.017-5.25-10.9C15.187,9.034,18.506,3.572,24.489,2.151,31.777.42,37.931,5.912,41.128,11.925c.733,1.377-1.362,2.6-2.095,1.224" transform="translate(-16.493 4.972)" fill="#1a1311"/>
              <path id="패스_2994" data-name="패스 2994" d="M20.442,18.209a246.372,246.372,0,0,1,1.124,29.5,1.214,1.214,0,0,1-2.426,0,247.935,247.935,0,0,0-1.124-29.5c-.153-1.552,2.273-1.544,2.426,0" transform="translate(-1.243 46.383)" fill="#1a1311"/>
              <path id="패스_2995" data-name="패스 2995" d="M19.761,31.542q.96,8.751,1.916,17.5a1.22,1.22,0,0,1-1.213,1.213,1.238,1.238,0,0,1-1.213-1.213q-.96-8.751-1.916-17.5a1.223,1.223,0,0,1,1.213-1.213,1.24,1.24,0,0,1,1.213,1.213" transform="translate(1.228 82.517)" fill="#1a1311"/>
              <path id="패스_2996" data-name="패스 2996" d="M27.637,36.6q.608.8,1.157,1.641a6.789,6.789,0,0,1,.938,1.712c.4,1.373-.651,2.381-1.626,3.163a12.427,12.427,0,0,1-6.489,2.66,6.024,6.024,0,0,1-3.535-.391c-1.083-.64-1.488-1.991-1.89-3.1-.8-2.21-.9-5,1.2-6.534a5.683,5.683,0,0,1,4-.647,31.724,31.724,0,0,1,4.722.819,1.225,1.225,0,0,1,.536,2.028,18.375,18.375,0,0,1-2.575,2.136,3.556,3.556,0,0,1-1.671.785,1.955,1.955,0,0,1-1.619-.711c-.409-.446-.781-.934-1.168-1.4a7.682,7.682,0,0,1-1.153-1.5,1.34,1.34,0,0,1,2.351-1.284,1.184,1.184,0,0,1,0,1.228l-.037.06c-.83,1.317-2.932.1-2.095-1.228l.037-.06v1.228l-.052-.067c.242.186.484.368.726.554l-.089-.033c.313-.041.621-.078.934-.119l-.078.037c.186-.238.372-.48.558-.722-.011.041-.019.086-.026.126v-.644c-.078-.208.067.019.123.078.1.112.2.238.3.357.223.268.443.536.666.8.2.238.4.476.6.711.033.045.223.212.231.264.123.112.06.1-.19-.033-.3-.037-.327-.1-.074-.2a12.45,12.45,0,0,1,1.239-.867,16.845,16.845,0,0,0,1.354-1.22c.179.677.357,1.351.536,2.028a28.718,28.718,0,0,0-3.07-.614,10.909,10.909,0,0,0-2.865-.186c-1.5.193-1.641,1.89-1.351,3.077a9.8,9.8,0,0,0,.93,2.5c.32.558,1.291.383,1.842.357A9.769,9.769,0,0,0,25.642,41.9a8.5,8.5,0,0,0,1.034-.748c.19-.16.376-.331.551-.506s.134-.223.167-.06a2.505,2.505,0,0,0-.339-.566c-.138-.223-.275-.443-.42-.659-.346-.528-.711-1.042-1.094-1.548a1.219,1.219,0,0,1,.435-1.659,1.242,1.242,0,0,1,1.659.435" transform="translate(-0.71 95.293)" fill="#1a1311"/>
              <path id="패스_2997" data-name="패스 2997" d="M18.77,36.36a12.123,12.123,0,0,1,1.589,1.3,11.575,11.575,0,0,1,1.321,1.57,1.212,1.212,0,0,1-.435,1.659,1.223,1.223,0,0,1-.934.123l-.29-.123a1.22,1.22,0,0,1-.435-.435c-.074-.1-.149-.2-.227-.305l.19.246a10.206,10.206,0,0,0-1.8-1.8l.246.19c-.145-.112-.294-.223-.446-.327a1.281,1.281,0,0,1-.558-.726,1.215,1.215,0,0,1,.848-1.492,1.2,1.2,0,0,1,.934.123" transform="translate(2.494 98.483)" fill="#1a1311"/>
              <path id="패스_2998" data-name="패스 2998" d="M22.779,38.6a16.021,16.021,0,0,0-1.924,1.265l.246-.19a15.582,15.582,0,0,0-1.421,1.243A1.213,1.213,0,1,1,17.965,39.2a16.837,16.837,0,0,1,3.59-2.7A1.213,1.213,0,0,1,22.779,38.6" transform="translate(-1.527 98.899)" fill="#1a1311"/>
              <path id="패스_2999" data-name="패스 2999" d="M20.1,1.241q.2,5.068.406,10.135a1.213,1.213,0,1,1-2.426,0q-.2-5.068-.406-10.135a1.213,1.213,0,1,1,2.426,0" transform="translate(1.108 0.077)" fill="#1a1311"/>
              <path id="패스_3000" data-name="패스 3000" d="M25.9,7.631a8.364,8.364,0,0,1,6.4,10.016,1.223,1.223,0,0,1-2.34,0,2.816,2.816,0,0,0-2.471-2.188,2.787,2.787,0,0,0-2.724,1.853c-.424,1.235-2.433,1.112-2.385-.324.037-1.217-.275-3.088-1.648-3.494-1.611-.469-3.084,1.544-3.922,2.616a1.218,1.218,0,0,1-2.028-.536A9.247,9.247,0,0,1,20.6,5.447a1.222,1.222,0,0,1,1.492.848,1.238,1.238,0,0,1-.845,1.492,6.764,6.764,0,0,0-4.13,7.144L15.085,14.4c1.5-1.92,3.8-4.108,6.467-3.181,2.344.819,3.326,3.471,3.248,5.775l-2.381-.324A5.111,5.111,0,0,1,32.293,17h-2.34a5.927,5.927,0,0,0-4.7-7.028,1.22,1.22,0,0,1-.848-1.492A1.24,1.24,0,0,1,25.9,7.631" transform="translate(0.356 14.661)" fill="#1a1311"/>
              <path id="패스_3001" data-name="패스 3001" d="M27.113,19.434c2.378-.566,2.244-3.654,2.11-5.533l2.072.859c-1.38,1.328-3.1,2.835-5.161,2.634-1.8-.175-3.557-1.537-3.46-3.479.8.108,1.589.216,2.385.32a4.739,4.739,0,0,1-3.974,3.52,6.643,6.643,0,0,1-5.522-2.11l2.028-.532A6.029,6.029,0,0,0,19.046,20c1.038,1.161-.673,2.884-1.715,1.715a8.652,8.652,0,0,1-2.08-7.252,1.222,1.222,0,0,1,2.028-.536,4.293,4.293,0,0,0,3.356,1.451,2.352,2.352,0,0,0,2.084-1.79,1.218,1.218,0,0,1,2.381.324c-.037.77.9,1.161,1.578,1.064a5.91,5.91,0,0,0,2.9-1.935,1.225,1.225,0,0,1,2.069.856,10.174,10.174,0,0,1-.621,5.079,4.982,4.982,0,0,1-3.27,2.794c-1.518.361-2.165-1.979-.644-2.34" transform="translate(-0.618 34.543)" fill="#1a1311"/>
              <path id="패스_3002" data-name="패스 3002" d="M28.194,55.4A133.189,133.189,0,0,0,16.842,42.11c-3.617-3.639-7.728-6.876-12.781-8.174-2.9-.744-1.671-5.231,1.235-4.483,5.674,1.459,10.437,5,14.537,9.071A138.256,138.256,0,0,1,32.209,53.049a2.338,2.338,0,0,1-.833,3.181,2.384,2.384,0,0,1-3.181-.833" transform="translate(45.877 79.904)" fill="#fabd1f"/>
              <path id="패스_3003" data-name="패스 3003" d="M9.637,35.738a39.1,39.1,0,0,1,5.987,2.329c2.08,1.046,3.7,3.524,2.433,5.819-1.146,2.091-3.713,2.236-5.722,1.432a7.985,7.985,0,0,1-4.29-3.866q2.165-.592,4.335-1.176c-.026.778-.056,1.555-.082,2.329a7.565,7.565,0,0,1-.365,2.694,3.54,3.54,0,0,1-4.294,2.091,4.356,4.356,0,0,1-3.025-3.07c-.439-1.905.406-3.7,1.44-5.246l3.181,3.181c-.35.208.033-.078-.145.082-.134.123-.264.253-.387.387-.223.246-.424.51-.629.77a8.27,8.27,0,0,1-1.667,1.656,4.2,4.2,0,0,1-5.064-.026,3.557,3.557,0,0,1-.264-5.343,10.046,10.046,0,0,1,2-1.459q1.105-.7,2.206-1.406a2.348,2.348,0,0,1,3.185.833,2.377,2.377,0,0,1-.837,3.181c-.956.61-1.92,1.209-2.872,1.831-.112.071-.22.145-.327.22.2-.16.2-.156,0,.019-.045.045-.089.093-.134.141a.929.929,0,0,0,.309-.8,1.219,1.219,0,0,0-.331-.8q-.4-.279-.078-.078c-.279-.1-.331-.13-.167-.082s.108.033-.2-.026c-.353.074-.383.074-.093.007l-.186.089a2.489,2.489,0,0,0,.346-.2c-.38.223.067-.082.149-.164.167-.171.324-.353.473-.539a9.132,9.132,0,0,1,2.37-2.307c1.931-1.153,4.5,1.209,3.185,3.181-.268.4-.521.8-.752,1.224s.056-.149-.127.313c-.019.074-.037.149-.06.223.015-.2.019-.223.007-.052q.011.251-.045-.045c.056.19.048.193-.026.007s-.082-.186.011-.007c-.06-.078-.123-.153-.182-.227-.045.067.651.48-.011.033.38.257-.45-.082-.015.011s-.536-.019-.063-.019a1.309,1.309,0,0,0-.8.249,1.887,1.887,0,0,0-.391.454c-.026.279-.03.279-.007,0l.007-.208c.045-1.034.071-2.072.108-3.107A2.324,2.324,0,0,1,12.059,39.1c.115.238.246.461.38.685.115.193.123.171-.015.007.082.1.167.2.257.294a5.62,5.62,0,0,0,.577.536c-.171-.138-.182-.13,0-.019.115.067.223.138.339.2s.234.119.35.179c-.186-.1-.238-.082-.011-.011.253.074.5.134.759.2-.182-.045-.342-.026-.06-.026.309,0,.082-.041-.067.026a1.141,1.141,0,0,0-.711.807c-.015.074.03.528-.019.309-.056-.246.115.186.119.216.06.246-.156-.175-.011-.03s-.145-.1-.2-.13a12.355,12.355,0,0,0-1.689-.811c-.387-.164.238.1-.153-.063-.16-.063-.32-.13-.48-.19-.316-.126-.636-.249-.96-.365q-1.027-.374-2.069-.7a2.325,2.325,0,1,1,1.235-4.483" transform="translate(68.885 96.977)" fill="#fabd1f"/>
            </g>
          </g>
        </g>
      </g>
    </g>
  </g>
</svg>
