<svg id="그룹_1481" data-name="그룹 1481" xmlns="http://www.w3.org/2000/svg" xmlns:xlink="http://www.w3.org/1999/xlink" width="95.952" height="115.08" viewBox="0 0 95.952 115.08">
  <defs>
    <clipPath id="clip-path">
      <rect id="사각형_2001" data-name="사각형 2001" width="95.952" height="115.08" fill="none"/>
    </clipPath>
  </defs>
  <g id="그룹_1480" data-name="그룹 1480" transform="translate(0 0)" clip-path="url(#clip-path)">
    <path id="패스_4537" data-name="패스 4537" d="M66.506,29.344c-.663-.381-1.6-.356-2.36-.737-.7-.344-1.222-1.136-1.989-1.476-.718-.319-1.532-.5-2.3-.807-.734-.3-1.642-.187-2.419-.476-.746-.276-1.415-.8-2.195-1.065-.758-.258-1.553-.433-2.336-.675-.764-.239-1.489-.641-2.271-.862s-1.535-.525-2.323-.73-1.645-.092-2.437-.276-1.568-.417-2.363-.58-1.633-.1-2.428-.249-1.556-.562-2.351-.678c-.813-.12-1.59-.482-2.388-.574-.82-.092-1.636-.212-2.434-.273-.823-.064-1.664.427-2.462.4-.832-.028-1.636-.249-2.428-.23-.835.018-1.624.246-2.406.319-.835.077-1.682-.181-2.446-.04a23.09,23.09,0,0,0-2.274,1.071c-.623.328-1.243.933-2.053,1.39-.666.378-1.393.773-2.145,1.228-.675.411-1.4.813-2.121,1.28-.675.436-1.314.97-2,1.455-.669.467-1.418.85-2.084,1.357S10.337,29.328,9.7,29.859s-1.246,1.083-1.851,1.648-1.44.918-2,1.519c-.571.62-.945,1.393-1.443,2.038a20.437,20.437,0,0,0-1.329,2.081c-.433.734-1.2,1.292-1.492,2.047a10.513,10.513,0,0,0-.221,2.422,16.229,16.229,0,0,0,1.98,1.329c.7.273,1.685-.025,2.52.255.734.249,1.443.709,2.268.961.752.23,1.6.261,2.416.491.767.215,1.535.51,2.348.724.777.2,1.5.691,2.311.89.783.2,1.6.322,2.406.513.786.187,1.529.608,2.33.789s1.664.04,2.471.212,1.565.522,2.373.684,1.614.313,2.422.47,1.67.046,2.474.19,1.608.387,2.412.525c.82.138,1.571.648,2.373.777.826.132,1.71-.2,2.511-.083.832.123,1.6.577,2.4.681.838.11,1.676.083,2.471.172.847.1,1.694-.1,2.483-.031.856.077,1.66.273,2.437.316.872.049,1.854.4,2.609.408a11.685,11.685,0,0,1,.58-2.431c.236-.645.249-1.486.592-2.247.3-.669.617-1.39.982-2.1.344-.672,1.169-1.108,1.556-1.783s.258-1.67.675-2.308c.436-.666,1.133-1.145,1.584-1.731a15.315,15.315,0,0,1,1.737-1.541c.632-.617,1.044-1.329,1.633-1.6a9.71,9.71,0,0,0,2.142-1.375c.6-.5.985-1.418,1.66-1.989s1.271-1.234,1.857-1.746c1.093-.955,2-1.449,1.918-1.495.018-.123.206-.2.206-.2" transform="translate(2.833 41.134)" fill="#bad42e" fill-rule="evenodd"/>
    <path id="패스_4538" data-name="패스 4538" d="M66.506,29.344c-.663-.381-1.6-.356-2.36-.737-.7-.344-1.222-1.136-1.989-1.476-.718-.319-1.532-.5-2.3-.807-.734-.3-1.642-.187-2.419-.476-.746-.276-1.415-.8-2.195-1.065-.758-.258-1.553-.433-2.336-.675-.764-.239-1.489-.641-2.271-.862s-1.535-.525-2.323-.73-1.645-.092-2.437-.276-1.568-.417-2.363-.58-1.633-.1-2.428-.249-1.556-.562-2.351-.678c-.813-.12-1.59-.482-2.388-.574-.82-.092-1.636-.212-2.434-.273-.823-.064-1.664.427-2.462.4-.832-.028-1.636-.249-2.428-.23-.835.018-1.624.246-2.406.319-.835.077-1.682-.181-2.446-.04a23.09,23.09,0,0,0-2.274,1.071c-.623.328-1.243.933-2.053,1.39-.666.378-1.393.773-2.145,1.228-.675.411-1.4.813-2.121,1.28-.675.436-1.314.97-2,1.455-.669.467-1.418.85-2.084,1.357S10.337,29.328,9.7,29.859s-1.246,1.083-1.851,1.648-1.44.918-2,1.519c-.571.62-.945,1.393-1.443,2.038a20.437,20.437,0,0,0-1.329,2.081c-.433.734-1.2,1.292-1.492,2.047a10.513,10.513,0,0,0-.221,2.422,16.229,16.229,0,0,0,1.98,1.329c.7.273,1.685-.025,2.52.255.734.249,1.443.709,2.268.961.752.23,1.6.261,2.416.491.767.215,1.535.51,2.348.724.777.2,1.5.691,2.311.89.783.2,1.6.322,2.406.513.786.187,1.529.608,2.33.789s1.664.04,2.471.212,1.565.522,2.373.684,1.614.313,2.422.47,1.67.046,2.474.19,1.608.387,2.412.525c.82.138,1.571.648,2.373.777.826.132,1.71-.2,2.511-.083.832.123,1.6.577,2.4.681.838.11,1.676.083,2.471.172.847.1,1.694-.1,2.483-.031.856.077,1.66.273,2.437.316.872.049,1.854.4,2.609.408a11.685,11.685,0,0,1,.58-2.431c.236-.645.249-1.486.592-2.247.3-.669.617-1.39.982-2.1.344-.672,1.169-1.108,1.556-1.783s.258-1.67.675-2.308c.436-.666,1.133-1.145,1.584-1.731a15.315,15.315,0,0,1,1.737-1.541c.632-.617,1.044-1.329,1.633-1.6a9.71,9.71,0,0,0,2.142-1.375c.6-.5.985-1.418,1.66-1.989s1.271-1.234,1.857-1.746c1.093-.955,2-1.449,1.918-1.495C66.318,29.42,66.506,29.344,66.506,29.344Z" transform="translate(2.833 41.134)" fill="none" stroke="#84c02d" stroke-miterlimit="10" stroke-width="1"/>
    <path id="패스_4539" data-name="패스 4539" d="M16.752,10.608c-.242.5-.23,1.393-.549,2.388-.215.678-.5,1.436-.743,2.3-.2.724-.8,1.409-1.016,2.244-.2.749.144,1.67-.058,2.489-.187.764-.724,1.47-.915,2.28-.181.773-.175,1.608-.356,2.412-.175.777-.424,1.55-.6,2.345s-.15,1.621-.319,2.419-.856,1.486-1.016,2.28.236,1.716.083,2.508c-.157.81-.672,1.544-.82,2.336-.15.813-.083,1.654-.218,2.437-.144.826-.663,1.568-.789,2.345-.138.841.261,1.731.147,2.5-.123.856-.2,1.66-.285,2.406-.1.9-.328,1.688-.374,2.388a12.093,12.093,0,0,0-.092,2.449c.795.068,1.627.025,2.428.077s1.587.166,2.391.209,1.605-.221,2.412-.178c.789.046,1.575.276,2.385.331.786.055,1.571.252,2.382.325.789.071,1.608-.031,2.425.064.786.092,1.571.313,2.382.436.783.117,1.562.325,2.369.476.777.144,1.636,0,2.437.181.767.175,1.495.614,2.29.826.761.2,1.516.488,2.305.73.755.23,1.443.709,2.222.979.746.261,1.553.378,2.323.678.737.282,1.529.473,2.287.795.727.31,1.418.734,2.167,1.08.715.335,1.433.7,2.17,1.068.706.353,1.412.737,2.139,1.123.7.374,1.6.427,2.317.835.688.39,1.185,1.145,1.894,1.568.681.408,1.314.918,2.017,1.36.672.427,1.568.534,2.259.988a2.2,2.2,0,0,0,2.3.246,6.573,6.573,0,0,0,1.986-1.492,17.44,17.44,0,0,0,1.553-1.949c.445-.635.743-1.43,1.194-2.191.4-.684.939-1.335,1.344-2.106.371-.712.773-1.446,1.142-2.219.35-.734.473-1.593.816-2.37.331-.749,1.1-1.329,1.421-2.109.316-.758.473-1.6.777-2.373s.684-1.522.976-2.305.335-1.66.614-2.443.9-1.47,1.163-2.256c.273-.8-.021-1.78.233-2.563.261-.81.955-1.464,1.194-2.244.252-.823.516-1.621.74-2.394.242-.838.552-1.63.761-2.4.23-.856.282-1.71.463-2.455.218-.905.252-1.756.39-2.462a12.822,12.822,0,0,0,.313-2.446,7.819,7.819,0,0,0-.5-2.348,10,10,0,0,0-1.209-2.06c-.43-.648-.513-1.627-1.1-2.241A19.742,19.742,0,0,0,71.564,16.3c-.6-.491-1.384-.813-2.075-1.28-.651-.439-1.231-1.056-1.949-1.47-.684-.393-1.541-.519-2.28-.89-.709-.353-1.427-.724-2.179-1.056-.73-.319-1.486-.6-2.25-.905-.743-.289-1.584-.325-2.354-.592-.755-.264-1.473-.648-2.25-.89S54.8,8.33,54.02,8.115s-1.581-.381-2.369-.574-1.59-.344-2.382-.513-1.6-.292-2.4-.442-1.682.215-2.48.089-1.575-.433-2.373-.534-1.63-.037-2.431-.114c-.816-.08-1.614-.138-2.416-.19-.823-.055-1.608-.571-2.409-.6-.829-.021-1.648.362-2.446.371-.832.009-1.667-.488-2.455-.442-.832.049-1.605.58-2.382.669-.838.1-1.642.172-2.409.322A23.485,23.485,0,0,0,22.7,6.67,14.172,14.172,0,0,0,20.57,7.805a8.986,8.986,0,0,0-1.986,1.228,5.469,5.469,0,0,0-1.479,1.8c-.049.068-.353-.23-.353-.23" transform="translate(18.195 10.697)" fill="#bad42e" fill-rule="evenodd"/>
    <path id="패스_4540" data-name="패스 4540" d="M16.752,10.608c-.242.5-.23,1.393-.549,2.388-.215.678-.5,1.436-.743,2.3-.2.724-.8,1.409-1.016,2.244-.2.749.144,1.67-.058,2.489-.187.764-.724,1.47-.915,2.28-.181.773-.175,1.608-.356,2.412-.175.777-.424,1.55-.6,2.345s-.15,1.621-.319,2.419-.856,1.486-1.016,2.28.236,1.716.083,2.508c-.157.81-.672,1.544-.82,2.336-.15.813-.083,1.654-.218,2.437-.144.826-.663,1.568-.789,2.345-.138.841.261,1.731.147,2.5-.123.856-.2,1.66-.285,2.406-.1.9-.328,1.688-.374,2.388a12.093,12.093,0,0,0-.092,2.449c.795.068,1.627.025,2.428.077s1.587.166,2.391.209,1.605-.221,2.412-.178c.789.046,1.575.276,2.385.331.786.055,1.571.252,2.382.325.789.071,1.608-.031,2.425.064.786.092,1.571.313,2.382.436.783.117,1.562.325,2.369.476.777.144,1.636,0,2.437.181.767.175,1.495.614,2.29.826.761.2,1.516.488,2.305.73.755.23,1.443.709,2.222.979.746.261,1.553.378,2.323.678.737.282,1.529.473,2.287.795.727.31,1.418.734,2.167,1.08.715.335,1.433.7,2.17,1.068.706.353,1.412.737,2.139,1.123.7.374,1.6.427,2.317.835.688.39,1.185,1.145,1.894,1.568.681.408,1.314.918,2.017,1.36.672.427,1.568.534,2.259.988a2.2,2.2,0,0,0,2.3.246,6.573,6.573,0,0,0,1.986-1.492,17.44,17.44,0,0,0,1.553-1.949c.445-.635.743-1.43,1.194-2.191.4-.684.939-1.335,1.344-2.106.371-.712.773-1.446,1.142-2.219.35-.734.473-1.593.816-2.37.331-.749,1.1-1.329,1.421-2.109.316-.758.473-1.6.777-2.373s.684-1.522.976-2.305.335-1.66.614-2.443.9-1.47,1.163-2.256c.273-.8-.021-1.78.233-2.563.261-.81.955-1.464,1.194-2.244.252-.823.516-1.621.74-2.394.242-.838.552-1.63.761-2.4.23-.856.282-1.71.463-2.455.218-.905.252-1.756.39-2.462a12.822,12.822,0,0,0,.313-2.446,7.819,7.819,0,0,0-.5-2.348,10,10,0,0,0-1.209-2.06c-.43-.648-.513-1.627-1.1-2.241A19.742,19.742,0,0,0,71.564,16.3c-.6-.491-1.384-.813-2.075-1.28-.651-.439-1.231-1.056-1.949-1.47-.684-.393-1.541-.519-2.28-.89-.709-.353-1.427-.724-2.179-1.056-.73-.319-1.486-.6-2.25-.905-.743-.289-1.584-.325-2.354-.592-.755-.264-1.473-.648-2.25-.89S54.8,8.33,54.02,8.115s-1.581-.381-2.369-.574-1.59-.344-2.382-.513-1.6-.292-2.4-.442-1.682.215-2.48.089-1.575-.433-2.373-.534-1.63-.037-2.431-.114c-.816-.08-1.614-.138-2.416-.19-.823-.055-1.608-.571-2.409-.6-.829-.021-1.648.362-2.446.371-.832.009-1.667-.488-2.455-.442-.832.049-1.605.58-2.382.669-.838.1-1.642.172-2.409.322A23.485,23.485,0,0,0,22.7,6.67,14.172,14.172,0,0,0,20.57,7.805a8.986,8.986,0,0,0-1.986,1.228,5.469,5.469,0,0,0-1.479,1.8C17.056,10.905,16.752,10.608,16.752,10.608Z" transform="translate(18.195 10.697)" fill="none" stroke="#84c02d" stroke-miterlimit="10" stroke-width="1"/>
    <path id="패스_4541" data-name="패스 4541" d="M94.687,11.223A15,15,0,0,1,95,13.756c.144.709.786,1.455.884,2.36.083.752-.018,1.6.031,2.474.046.773-.282,1.608-.264,2.468.015.789-.064,1.605-.071,2.455,0,.795.129,1.614.1,2.459-.025.8-.322,1.608-.365,2.446-.037.8.064,1.63.009,2.465-.055.8-.35,1.6-.421,2.425-.068.807-.129,1.618-.209,2.443-.08.81-.2,1.618-.289,2.44s.356,1.691.252,2.514-.055,1.651-.172,2.471-.114,1.651-.246,2.468-.316,1.624-.46,2.434-.516,1.587-.672,2.394-.924,1.5-1.1,2.308.448,1.8.261,2.6-.8,1.519-1,2.314c-.206.81-.3,1.642-.519,2.434S89.942,61.615,89.7,62.4c-.246.8-.519,1.571-.78,2.342-.27.792.04,1.777-.246,2.538-.295.783-.657,1.532-.97,2.274-.328.777,1.562,1.257,1.215,1.981-.365.764,1.037,1.7.651,2.4-.408.743-2.548,4.879-2.98,5.545-.467.715-3.6.317-4.091.934-.534.666-1.12-1.324-1.688-.781a14.238,14.238,0,0,1-1.691,1.777c-1.157.506-1.062.767-2.244,1.212s-1.344.009-2.523.454-1.12.6-2.3,1.05-1.077.73-2.259,1.176-1.436-.224-2.618.224-1.074.721-2.256,1.166-1.286.16-2.465.6-.893,1.215-2.078,1.664-1.455-.261-2.64.187-.958,1.065-2.149,1.513-1.314.126-2.5.574a10.966,10.966,0,0,1-2.179.411,11.724,11.724,0,0,1-2.21.559c-.74-.031-1.418-.663-2.142-.844-1.163-.224-.859-.206-2.336-.439-.66-.1-1.559.473-2.443.328-.715-.12-1.366-1.025-2.2-1.169-.737-.126-1.6.233-2.412.089-.749-.132-1.467-.592-2.268-.737-.758-.138-1.51-.408-2.3-.559-.764-.144-1.67.365-2.455.212-.764-.15-1.406-.97-2.182-1.13s-1.691.387-2.468.221-1.556-.319-2.33-.491-1.507-.552-2.274-.73-1.562-.335-2.32-.525c-.78-.2-1.384-1.022-2.13-1.225-.789-.212-1.71.138-2.449-.08-.792-.233-1.618-.282-2.339-.522-.795-.261-1.581-.47-2.274-.737-.807-.31-1.194-1.412-1.839-1.725a11.051,11.051,0,0,1-2-1.059A7.089,7.089,0,0,1,3.7,79.479a18.066,18.066,0,0,1-.927-2.3c-.319-.712-1.053-1.326-1.323-2.152-.246-.755-.1-1.66-.3-2.492C.96,71.753.92,70.927.782,70.09c-.135-.8-.049-1.63-.132-2.468C.567,66.808.227,66.013.2,65.179s-.221-1.654-.2-2.486.267-1.642.35-2.468-.147-2.044,0-2.861a24.981,24.981,0,0,0,2.5,1.271c.678.335,1.28.967,2.093,1.3.718.295,1.43.743,2.241,1.031.743.264,1.562.408,2.373.666.755.246,1.519.559,2.327.795.767.227,1.71-.086,2.514.135.78.212,1.5.684,2.3.893.786.2,1.522.626,2.33.823.786.19,1.55.513,2.351.7s1.648.114,2.452.289,1.679-.028,2.483.138,1.541.678,2.345.838,1.648.15,2.449.3c.816.153,1.648.15,2.449.292.82.147,1.5.994,2.3,1.126.826.138,1.7-.123,2.5,0,.832.132,1.67.1,2.462.215.838.12,1.6.632,2.382.737.85.114,1.737-.359,2.517-.27.862.1,1.63.611,2.391.681.89.08,1.851.35,2.578.39.236-.783.645-1.627.927-2.376s.344-1.6.675-2.33.3-1.673.675-2.379.866-1.4,1.286-2.081,1.08-1.246,1.544-1.9.875-1.381,1.375-2.007.909-1.372,1.439-1.97,1.037-1.277,1.6-1.848,1.694-.583,2.28-1.123c.6-.556,1.093-1.2,1.7-1.716.626-.528.945-1.421,1.575-1.909.651-.5,1.565-.632,2.213-1.093.672-.479,1.381-.866,2.041-1.3.691-.457,1.489-.688,2.158-1.093.715-.436,1.136-1.311,1.814-1.691.74-.414,1.685-.362,2.366-.718.761-.4,1.366-.97,2.035-1.292.81-.39,1.559-.688,2.2-.973A18.792,18.792,0,0,0,82.5,38.663c.169-.795.918-1.381,1.126-2.2.2-.789-.126-1.731.111-2.541.23-.783.921-1.433,1.188-2.238.258-.773.614-1.519.905-2.314.282-.764.445-1.581.761-2.363.307-.758.111-1.743.451-2.517.325-.746,1.412-1.163,1.771-1.928.347-.737.381-1.636.758-2.391.365-.734.942-1.366,1.338-2.115.384-.721.282-1.722.7-2.459.4-.718.85-1.424,1.277-2.158.414-.709.675-1.618,1.117-2.342.123-.144.684.126.684.126" transform="translate(0.001 22.877)" fill="#84c02d" fill-rule="evenodd"/>
    <path id="패스_4542" data-name="패스 4542" d="M30.669,16.831c-.1.884.018,1.746-.052,2.554-.08.875-.381,1.691-.442,2.5-.068.869.092,1.722.012,2.535-.08.85-.282,1.664-.411,2.486s-.166,1.667-.378,2.5c-.123.473-.826,1.04-1.891,1.584-.617.316-1.381.641-2.238,1.01-.684.3-1.455.577-2.262.921-.706.3-1.541.433-2.323.783-.715.319-1.458.663-2.219,1.028-.715.341-1.449.718-2.191,1.1-.706.368-1.347.9-2.069,1.317-.694.4-1.486.669-2.185,1.111-.681.433-1.268,1.025-1.94,1.5s-1.36.893-2,1.409S6.858,42.25,6.247,42.8s-1.154,1.142-1.725,1.734-1.2,1.111-1.728,1.743-.951,1.24-1.43,1.915a11.464,11.464,0,0,1,0-2.317,14.542,14.542,0,0,1,.592-2.305,18.144,18.144,0,0,1,.635-2.3c.307-.718.694-1.418,1.087-2.13.381-.684.691-1.433,1.142-2.109.436-.651.887-1.32,1.381-1.961.485-.623,1.007-1.234,1.535-1.842s1.12-1.139,1.676-1.719,1.04-1.219,1.618-1.774,1.335-.912,1.931-1.443,1.077-1.2,1.688-1.71,1.212-1.065,1.832-1.553c.638-.5,1.415-.807,2.047-1.274.657-.488,1.179-1.136,1.817-1.581.678-.473,1.378-.872,2.023-1.292.7-.46,1.436-.81,2.084-1.2.74-.451,1.36-.991,2-1.347a23.116,23.116,0,0,1,2.253-.847c1.372-.638,2.075-1,2.038-.672-.028.052-.071.009-.071.009" transform="translate(2.697 34.556)" fill="#84c02d" fill-rule="evenodd"/>
    <path id="패스_4543" data-name="패스 4543" d="M33.47,17.348a20.9,20.9,0,0,0-2.161-.522,15.681,15.681,0,0,0-2.182-.381,7.943,7.943,0,0,0-2.4.467,13.307,13.307,0,0,0-2.317.783,21.839,21.839,0,0,0-2.234,1.065c-.675.411-1.317.939-2.013,1.436-.651.467-1.3.979-1.958,1.51-.629.506-1.206,1.1-1.835,1.651-.611.54-1.277,1.031-1.881,1.605s-1.157,1.169-1.737,1.762-1.283,1.059-1.845,1.664-.982,1.344-1.519,1.964S8.244,31.562,7.728,32.2C7.2,32.848,6.69,33.505,6.2,34.15c-.513.672-1.126,1.252-1.59,1.909-.494.7-.81,1.486-1.24,2.152-.473.737-.869,1.47-1.252,2.152-.442.783-.958,1.455-1.261,2.139a11.23,11.23,0,0,0-.764,2.351c-.215,1.1.009,1.906.648,2.238a12.132,12.132,0,0,1,1.587,1.016A2.718,2.718,0,0,0,4,48.772a9.724,9.724,0,0,1,.488-2.265A15.313,15.313,0,0,1,5.012,44.2c.282-.691.743-1.35,1.126-2.084.35-.669.8-1.311,1.228-2.007.4-.654.672-1.412,1.13-2.081.436-.635,1.037-1.176,1.519-1.82.467-.623.826-1.344,1.332-1.97.488-.6,1.1-1.123,1.624-1.725S14,31.317,14.542,30.734s1.025-1.2,1.584-1.771c.528-.534,1.172-.976,1.771-1.5.571-.5,1.136-1.037,1.75-1.525s1.268-.89,1.9-1.347,1.12-1.117,1.759-1.55c.654-.445,1.467-.629,2.112-1.037.675-.43,1.261-.964,1.906-1.347.7-.417,1.335-.881,1.974-1.237.743-.414,1.544-.577,2.17-.9.826-.427,1.5-.813,2.044-1.05.012,0-.037-.117-.037-.117" transform="translate(0.019 34.023)" fill="#84c02d" fill-rule="evenodd"/>
    <path id="패스_4544" data-name="패스 4544" d="M49.157,21.187a15.473,15.473,0,0,1-1.9-.761,5.109,5.109,0,0,0-1.863-.614,7.167,7.167,0,0,0-2.336.252,13.419,13.419,0,0,0-2.185.921,20.787,20.787,0,0,0-2.145,1.025c-.651.4-1.32.832-1.989,1.317-.623.451-1.2,1.01-1.832,1.525q-.9.741-1.808,1.55c-.583.522-1.169,1.056-1.749,1.618-.568.546-1.1,1.139-1.66,1.713s-1.231,1.025-1.768,1.614-.985,1.258-1.5,1.86-1.148,1.126-1.648,1.74-1.013,1.246-1.492,1.872c-.494.641-.973,1.286-1.43,1.921-.479.663-.967,1.3-1.4,1.946-.46.688-.663,1.5-1.062,2.155-.439.724-.816,1.427-1.169,2.093-.405.764-.942,1.4-1.215,2.063a11.193,11.193,0,0,0-.74,2.277c-.178,1.062.074,1.924.684,2.241a6.981,6.981,0,0,0,2.354.328c.826.074,1.608.147,2.293.147a8.723,8.723,0,0,1,.282-2.48,17.929,17.929,0,0,1,1.1-2.293c.335-.718.74-1.449,1.188-2.21.411-.694.681-1.525,1.179-2.247.463-.669,1.074-1.277,1.605-1.967.5-.654.93-1.4,1.486-2.066.528-.632,1.277-1.1,1.851-1.75.556-.62,1.019-1.344,1.608-1.974.574-.608,1.077-1.3,1.682-1.912.562-.571,1.32-.97,1.921-1.538s1.154-1.16,1.768-1.7,1.2-1.123,1.826-1.645c.635-.537,1.3-1.031,1.924-1.532.66-.525,1.406-.9,2.041-1.378.688-.516,1.3-1.068,1.934-1.507.73-.506,1.326-1.111,1.961-1.5a14.477,14.477,0,0,1,2.256-.939c.018-.009-.049-.166-.049-.166" transform="translate(33.539 40.973)" fill="#84c02d" fill-rule="evenodd"/>
    <path id="패스_4545" data-name="패스 4545" d="M32.332,1c6.43,2.462,14.11,3.646,20.933,5.73,7.17,2.2,6.01,1.522,7.17,2.2,1.433.841,2.83,5.046,2.474,6.6a7.048,7.048,0,0,1,.807,3.091,1.878,1.878,0,0,0-1.191,1.289c9.061,9.46,3.508,24.567-1.188,34.932-4.119,8.919-10.795,15.884-17.348,22.9-3.766,6.123-13.609,1.166-20.779-.058C8.17,73.212,10.07,74.568,7.166,60.048,3.64,46.662,4.146,31.534,9.6,18.5a27.349,27.349,0,0,1,6.335-7.348c1.332-1.074,4.6-1.618,5.509-2.937-.5-.43-1.04-.681-.912-1.532A9.61,9.61,0,0,0,23.424,3.8C25.671,1.636,25.8-.832,32.332,1" transform="translate(10.19 0.744)" fill="#261614" fill-rule="evenodd"/>
    <path id="패스_4546" data-name="패스 4546" d="M10.693,4.336q21.1,5.493,42.08,11.387a1.219,1.219,0,0,0,.648-2.348Q32.432,7.482,11.341,1.991a1.217,1.217,0,0,0-.648,2.345" transform="translate(20.34 4.028)" fill="#5b4541"/>
    <path id="패스_4547" data-name="패스 4547" d="M13.572,2.41a295.728,295.728,0,0,0,29.235,7.756c1.529.322,2.179-2.023.648-2.345A296.353,296.353,0,0,1,14.22.065c-1.495-.482-2.136,1.869-.648,2.345" transform="translate(26.335 0)" fill="#5b4541"/>
    <path id="패스_4548" data-name="패스 4548" d="M17.941,3.4C8.285,8.621,6.029,20.033,5.04,30.057,3.782,42.819,6.5,55.158,9.5,67.49c.371,1.519,2.716.875,2.345-.648C9.181,55.892,6.566,44.817,7.2,33.464,7.769,23.434,9.377,10.794,19.168,5.5c1.378-.743.153-2.845-1.228-2.1" transform="translate(9.778 6.704)" fill="#5b4541"/>
    <path id="패스_4549" data-name="패스 4549" d="M20.47,23.554a41.6,41.6,0,0,0-6.019,5.384c-.951,1.056-1.829,2.173-2.683,3.309-.381.51-.752,1.031-1.1,1.562-.153.227-.3.457-.448.688-.1.153-.193.307-.292.463q.668-.718.224-.347.843-.493,1.691-.985,3.895,1.708,2.56.552c-.114-.12-.227-.236-.341-.356-.181-.178-.374-.347-.571-.509a10.951,10.951,0,0,0-2.179-1.489,12.05,12.05,0,0,0-5.024-1.261,3.832,3.832,0,0,0-3.505,2.357,3.768,3.768,0,0,0,.792,4.193c1.4,1.08,2.787,2.185,4.2,3.244a6.522,6.522,0,0,0,5.872,1.323,3.838,3.838,0,1,0-2.041-7.4c-.335.1-.331.107.009.034a1.438,1.438,0,0,1,.773-.009c.417.107.516.261.052-.018a2.172,2.172,0,0,1-.577-.39c.359.279.424.328.193.153-.123-.1-.242-.19-.365-.282L9,31.687q-1.354,3.273-2.713,6.55c.129,0,.258.006.384.015.3.025.172,0-.384-.064,0,.009.589.12.626.129.209.052.408.123.614.178.795.224-.688-.4.028.012.184.107.374.2.556.316.074.043.144.089.215.138.236.16.147.086-.261-.224.279.037.715.678.915.866,1.519,1.436,3.889,2.28,5.819,1.037a9.681,9.681,0,0,0,2.572-3.072q.382-.566.783-1.12a6.482,6.482,0,0,1,.408-.546c-.672.715-.046.068.077-.083q.9-1.119,1.891-2.158t2.056-2q.511-.456,1.034-.893c.212-.175.424-.344.635-.516.611-.494-.589.442.092-.068a4.207,4.207,0,0,0,1.762-2.293,3.921,3.921,0,0,0-.387-2.959c-1.019-1.581-3.533-2.664-5.248-1.375" transform="translate(5.128 47.559)" fill="#261614"/>
    <path id="패스_4550" data-name="패스 4550" d="M14.945,31.3q.493.359-.206-.172c.123.1.242.2.359.31.175.16.347.325.51.5.049.052.393.537.47.534q-.525-.7-.166-.212c.092.129.184.261.27.393a11.9,11.9,0,0,1,.706,1.246c.071.144.138.289.206.436-.212-.516-.264-.635-.16-.365s.2.522.282.789a15.407,15.407,0,0,1,.439,1.743c.028.141.052.279.074.42.068.43.061.371-.015-.178a3.823,3.823,0,0,0,.08.847c.1,1.283.006,2.548.009,3.83a4.937,4.937,0,0,0,1.344,3.5,6.7,6.7,0,0,0,2.692,1.489,8.214,8.214,0,0,0,4.754.374,4.23,4.23,0,0,0,1.943-7.01,7.526,7.526,0,0,0-5.3-1.857,3.837,3.837,0,0,0-2.713,6.55,4.5,4.5,0,0,0,2.713,1.123c-1.108-.138.181.037.4.077.282.052.562.107.841.172s.559.129.835.2c.184.049.368.1.552.153.488.15.368.1-.35-.147l-1.378-1.378.064.138q-.193-1.482-.387-2.959a3.082,3.082,0,0,1,2.658-2.259q-.276.009-.552,0c-.12,0-1.225-.123-.589-.025s-.46-.107-.574-.135a10.649,10.649,0,0,1-1.053-.319,3.862,3.862,0,0,0-4.721,2.679,3.931,3.931,0,0,0,2.68,4.721c3.026,1.047,7.817,1.568,9.337-2.029a4.064,4.064,0,0,0-.838-4.463,5.961,5.961,0,0,0-2.532-1.3,30.406,30.406,0,0,0-4.389-.8v7.673a1.891,1.891,0,0,0,.509,0c-.218.117-.853-.181-.144.021.107.031.684.206.135.031-.51-.16.021.058.15.153-.457-.46-.918-.918-1.375-1.378l.1.157c-.175-.645-.347-1.289-.522-1.937l0,.15q.262-.967.525-1.937,1.3-.778,2.6-1.553c-.132,0-.267-.009-.4-.018-.5.015.7.16.221.037-.39-.1-.777-.187-1.163-.307-.331-.129-.335-.126-.006.006a1.337,1.337,0,0,1,.924,1.317c.859,1.55.66,1.532.7.672.018-.427.034-.853.04-1.283a24.763,24.763,0,0,0-.629-5.954,15.407,15.407,0,0,0-6.086-9.094A3.855,3.855,0,0,0,13.57,26.05,3.937,3.937,0,0,0,14.945,31.3" transform="translate(27.052 49.931)" fill="#261614"/>
    <path id="패스_4551" data-name="패스 4551" d="M16.314,27.233a15.71,15.71,0,0,1,1.4,8.269q.612-.608,1.219-1.215a3.706,3.706,0,0,0-2.79.988c-.994.869.1,2.238,1.185,2.035a8.427,8.427,0,0,1,4.954.506c1.261.586,1.108,2.06.939,3.235a1.259,1.259,0,0,0,.85,1.5,1.229,1.229,0,0,0,1.5-.85c.3-2.124.335-4.509-1.71-5.792a10.422,10.422,0,0,0-7.179-.945L17.864,37a1.3,1.3,0,0,1,1.068-.279A1.239,1.239,0,0,0,20.148,35.5a18.113,18.113,0,0,0-1.734-9.5c-.669-1.415-2.769-.181-2.1,1.228" transform="translate(32.595 52.517)" fill="#5b4541"/>
    <path id="패스_4552" data-name="패스 4552" d="M17.852,24.1a24.729,24.729,0,0,0-2.661,2.5q-.594.649-1.139,1.344c-.178.221-.35.448-.522.675-.107.144-.215.289-.319.436-.04.071-.058.058-.052-.028h.648c-1.283-.2-2.508-.905-3.769-1.225A8.888,8.888,0,0,0,6.2,27.622a4.86,4.86,0,0,0-4.11,4.856c.11,1.553,2.544,1.565,2.434,0a2.532,2.532,0,0,1,2.446-2.532,10.409,10.409,0,0,1,4.865,1.019,3.092,3.092,0,0,0,2.511.255,5.385,5.385,0,0,0,1.507-1.657,24.072,24.072,0,0,1,3.717-3.741,1.228,1.228,0,0,0,0-1.722,1.246,1.246,0,0,0-1.722,0" transform="translate(4.311 49.151)" fill="#5b4541"/>
    <path id="패스_4553" data-name="패스 4553" d="M59.251,17.643c-2.836,1.519-5.608-.887-7.916-2.284a10.29,10.29,0,0,0-5.89-1.74c-2.8.12-5.442,1.215-8.256.42-2.5-.706-4.113-2.566-6.209-3.938-3.972-2.6-7.483-.261-11.691-.138-4.368.126-5.988-5.1-10.159-5.767C7.6,3.951,6.937,6.3,8.481,6.541c4.079.651,5.592,5.614,10.092,5.853,2.238.117,4.352-.743,6.528-1.09,3.339-.537,5.11,1.412,7.6,3.21a11.915,11.915,0,0,0,6.148,2.25c2.925.209,5.918-1.3,8.8-.491,4.481,1.268,7.765,6.178,12.83,3.468,1.381-.737.153-2.839-1.228-2.1" transform="translate(15.729 8.646)" fill="#7c4521"/>
    <path id="패스_4554" data-name="패스 4554" d="M62.12,20.046c-1.946,1.013-5.058-.132-6.878-1.047-2.195-1.1-4.018-2.815-6.452-3.416s-4.757.175-7.17.42c-3.735.381-6.1-1.372-8.922-3.511a8.533,8.533,0,0,0-5.783-2.013c-2.382.117-4.638,1.219-7.023,1.228-4.681.018-7.016-5.875-11.593-6.63-1.532-.255-2.188,2.09-.645,2.345,4.552.752,6.667,6.277,11.479,6.691,2.673.23,5.15-1.071,7.781-1.2,3.419-.172,5.27,2.753,8.017,4.229A11.913,11.913,0,0,0,42.108,18.4a26.527,26.527,0,0,1,5.049-.62A9.876,9.876,0,0,1,51.7,19.687c3.183,2.02,7.9,4.408,11.645,2.459,1.39-.721.16-2.821-1.228-2.1" transform="translate(14.017 10.467)" fill="#7c4521"/>
    <path id="패스_4555" data-name="패스 4555" d="M13.449,14.774A26.1,26.1,0,0,1,21.113,11.7c2.035-.433,5.031-.23,5.473,2.317a11.886,11.886,0,0,1-1.525,7.023,8.635,8.635,0,0,1-2.112,2.867,1.608,1.608,0,0,1-1.034.411c-.187-.018-.706-.233-.654-.491.292-1.449-1.928-2.066-2.219-.614a2.721,2.721,0,0,0,1.341,2.953A3.369,3.369,0,0,0,23.8,26.1a8.224,8.224,0,0,0,2.6-2.793,16.311,16.311,0,0,0,1.716-3.6c.786-2.323,1.44-5.592.1-7.83C26.837,9.565,24,8.963,21.506,9.31a26.011,26.011,0,0,0-9.22,3.474,1.153,1.153,0,0,0,1.163,1.989" transform="translate(24.276 19.078)" fill="#7c4521"/>
    <path id="패스_4556" data-name="패스 4556" d="M14.035,15.293a25.212,25.212,0,0,1,4.945-2.188,11.2,11.2,0,0,1,2.5-.463,8.774,8.774,0,0,1,1.172.031c.071.006.175.086.071,0,.1.08.1.169.132.338-.012-.061.015.252.012.325,0,.1-.012.307-.018.35a7.561,7.561,0,0,1-.249,1.031,8.441,8.441,0,0,1-.8,1.839,9.445,9.445,0,0,1-2.769,3.02,9.268,9.268,0,0,1-2.05,1.09,9.991,9.991,0,0,1-1.191.35c-.178.04-.359.074-.54.1l-.184.015.285.433a1.227,1.227,0,0,0-1.219-1.219,1.246,1.246,0,0,0-1.215,1.219,1.83,1.83,0,0,0,.881,1.682,2.763,2.763,0,0,0,1.949.239,10.9,10.9,0,0,0,2.891-.9,11.892,11.892,0,0,0,4.527-3.711A10.044,10.044,0,0,0,25.3,13.409,3.086,3.086,0,0,0,24,10.628c-1.053-.666-2.538-.457-3.7-.292a22.619,22.619,0,0,0-7.492,2.858c-1.375.746-.15,2.848,1.228,2.1" transform="translate(25.255 21.045)" fill="#7c4521"/>
    <path id="패스_4557" data-name="패스 4557" d="M12.262,16.23a4.015,4.015,0,0,0-.347,1.292,3.872,3.872,0,0,0,1.068,2.94,3.333,3.333,0,0,0,1.839.991,4.06,4.06,0,0,0,2.348-.322,3.525,3.525,0,0,0,1.676-1.6,1.216,1.216,0,1,0-2.1-1.228,1.93,1.93,0,0,1-.114.206l-.064.1c-.071.1-.043.064.086-.107-.1.1-.187.2-.285.295-.147.141.267-.184.012-.009-.049.031-.1.064-.15.092-.068.04-.138.074-.209.11-.181.1.316-.114.018-.009a3.461,3.461,0,0,1-.4.1c-.206.046.35-.028.031-.006a1.665,1.665,0,0,1-.175.006c-.08,0-.157-.006-.233-.009-.212-.012.344.068.034,0-.058-.012-.114-.028-.172-.046-.037-.009-.074-.025-.11-.037-.117-.046-.074-.028.126.055a3.675,3.675,0,0,0-.353-.209c.166.135.2.163.107.083a1.064,1.064,0,0,1-.089-.077,2.111,2.111,0,0,1-.163-.169c-.074-.08-.126-.233.043.064-.04-.068-.092-.129-.132-.2s-.08-.135-.114-.206c-.049-.1-.052-.258.028.074-.037-.153-.1-.3-.129-.454-.025-.114.009-.273.006.092,0-.08-.012-.157-.012-.236s0-.135.006-.2c.006-.276-.061.276-.012.061.018-.077.034-.153.055-.23.028-.092.144-.362-.021.015a1.325,1.325,0,0,0,.123-.936,1.216,1.216,0,0,0-1.495-.85,1.174,1.174,0,0,0-.727.559" transform="translate(24.631 32.333)" fill="#fff"/>
    <path id="패스_4558" data-name="패스 4558" d="M14.171,16.754A1.858,1.858,0,1,1,12.827,14.5a1.858,1.858,0,0,1,1.344,2.259" transform="translate(21.749 29.878)" fill="#fff"/>
    <path id="패스_4559" data-name="패스 4559" d="M18.76,17.915a1.858,1.858,0,1,1-1.344-2.259,1.858,1.858,0,0,1,1.344,2.259" transform="translate(31.245 32.28)" fill="#fff"/>
  </g>
</svg>
