<svg id="그룹_1483" data-name="그룹 1483" xmlns="http://www.w3.org/2000/svg" xmlns:xlink="http://www.w3.org/1999/xlink" width="118.541" height="142.172" viewBox="0 0 118.541 142.172">
  <defs>
    <clipPath id="clip-path">
      <rect id="사각형_2003" data-name="사각형 2003" width="118.541" height="142.172" fill="none"/>
    </clipPath>
  </defs>
  <g id="그룹_1482" data-name="그룹 1482" transform="translate(0 0)" clip-path="url(#clip-path)">
    <path id="패스_4560" data-name="패스 4560" d="M81.84,31.572c-.819-.47-1.976-.44-2.916-.91-.861-.425-1.509-1.4-2.457-1.824-.887-.394-1.892-.614-2.844-1-.906-.368-2.029-.231-2.988-.588-.921-.341-1.748-.99-2.711-1.316-.937-.319-1.919-.535-2.886-.834-.944-.3-1.839-.792-2.806-1.066s-1.9-.648-2.87-.9-2.032-.114-3.011-.341-1.938-.516-2.92-.717-2.017-.129-3-.307-1.922-.694-2.9-.838c-1-.148-1.964-.6-2.95-.709-1.012-.114-2.021-.262-3.007-.337-1.016-.08-2.055.527-3.041.5-1.028-.034-2.021-.307-3-.284-1.031.023-2.006.3-2.973.394-1.031.095-2.078-.224-3.022-.049a28.526,28.526,0,0,0-2.81,1.323c-.77.406-1.536,1.153-2.537,1.718-.823.466-1.722.956-2.651,1.517-.834.508-1.729,1-2.62,1.581-.834.538-1.623,1.2-2.476,1.8-.827.576-1.752,1.05-2.575,1.676s-1.418,1.5-2.2,2.154-1.539,1.339-2.286,2.036S7.6,35.379,6.909,36.122c-.705.766-1.168,1.722-1.782,2.518a25.248,25.248,0,0,0-1.642,2.571c-.535.906-1.486,1.6-1.843,2.529a12.988,12.988,0,0,0-.273,2.992,20.049,20.049,0,0,0,2.446,1.642c.868.337,2.082-.03,3.113.315.906.307,1.782.876,2.8,1.187.929.284,1.972.322,2.984.607.948.265,1.9.629,2.9.895.959.25,1.85.853,2.855,1.1.967.243,1.972.4,2.973.633.971.231,1.888.751,2.878.974s2.055.049,3.052.262,1.934.645,2.931.846,1.995.387,2.992.58,2.063.057,3.056.235c1.009.186,1.987.478,2.98.648,1.012.171,1.941.8,2.931.959,1.02.163,2.112-.246,3.1-.1,1.028.152,1.976.713,2.965.842,1.035.137,2.07.1,3.052.212,1.047.118,2.093-.125,3.068-.038,1.058.095,2.051.337,3.011.391,1.077.061,2.29.5,3.223.5a14.436,14.436,0,0,1,.717-3c.292-.8.307-1.835.732-2.776.372-.827.762-1.718,1.213-2.6.425-.83,1.445-1.369,1.922-2.2s.319-2.063.834-2.851c.538-.823,1.4-1.414,1.957-2.139a18.92,18.92,0,0,1,2.146-1.9c.781-.762,1.289-1.642,2.017-1.972a12,12,0,0,0,2.647-1.7c.739-.614,1.217-1.752,2.051-2.457s1.57-1.524,2.294-2.158c1.35-1.179,2.472-1.79,2.37-1.847.023-.152.254-.246.254-.246" transform="translate(3.822 55.498)" fill="#bad42e" fill-rule="evenodd"/>
    <path id="패스_4561" data-name="패스 4561" d="M81.84,31.572c-.819-.47-1.976-.44-2.916-.91-.861-.425-1.509-1.4-2.457-1.824-.887-.394-1.892-.614-2.844-1-.906-.368-2.029-.231-2.988-.588-.921-.341-1.748-.99-2.711-1.316-.937-.319-1.919-.535-2.886-.834-.944-.3-1.839-.792-2.806-1.066s-1.9-.648-2.87-.9-2.032-.114-3.011-.341-1.938-.516-2.92-.717-2.017-.129-3-.307-1.922-.694-2.9-.838c-1-.148-1.964-.6-2.95-.709-1.012-.114-2.021-.262-3.007-.337-1.016-.08-2.055.527-3.041.5-1.028-.034-2.021-.307-3-.284-1.031.023-2.006.3-2.973.394-1.031.095-2.078-.224-3.022-.049a28.526,28.526,0,0,0-2.81,1.323c-.77.406-1.536,1.153-2.537,1.718-.823.466-1.722.956-2.651,1.517-.834.508-1.729,1-2.62,1.581-.834.538-1.623,1.2-2.476,1.8-.827.576-1.752,1.05-2.575,1.676s-1.418,1.5-2.2,2.154-1.539,1.339-2.286,2.036S7.6,35.379,6.909,36.122c-.705.766-1.168,1.722-1.782,2.518a25.248,25.248,0,0,0-1.642,2.571c-.535.906-1.486,1.6-1.843,2.529a12.988,12.988,0,0,0-.273,2.992,20.049,20.049,0,0,0,2.446,1.642c.868.337,2.082-.03,3.113.315.906.307,1.782.876,2.8,1.187.929.284,1.972.322,2.984.607.948.265,1.9.629,2.9.895.959.25,1.85.853,2.855,1.1.967.243,1.972.4,2.973.633.971.231,1.888.751,2.878.974s2.055.049,3.052.262,1.934.645,2.931.846,1.995.387,2.992.58,2.063.057,3.056.235c1.009.186,1.987.478,2.98.648,1.012.171,1.941.8,2.931.959,1.02.163,2.112-.246,3.1-.1,1.028.152,1.976.713,2.965.842,1.035.137,2.07.1,3.052.212,1.047.118,2.093-.125,3.068-.038,1.058.095,2.051.337,3.011.391,1.077.061,2.29.5,3.223.5a14.436,14.436,0,0,1,.717-3c.292-.8.307-1.835.732-2.776.372-.827.762-1.718,1.213-2.6.425-.83,1.445-1.369,1.922-2.2s.319-2.063.834-2.851c.538-.823,1.4-1.414,1.957-2.139a18.92,18.92,0,0,1,2.146-1.9c.781-.762,1.289-1.642,2.017-1.972a12,12,0,0,0,2.647-1.7c.739-.614,1.217-1.752,2.051-2.457s1.57-1.524,2.294-2.158c1.35-1.179,2.472-1.79,2.37-1.847C81.609,31.667,81.84,31.572,81.84,31.572Z" transform="translate(3.822 55.498)" fill="none" stroke="#84c02d" stroke-miterlimit="10" stroke-width="1"/>
    <path id="패스_4562" data-name="패스 4562" d="M18.626,11.888c-.3.618-.284,1.722-.679,2.95-.265.838-.618,1.775-.918,2.844-.25.895-.99,1.74-1.255,2.772-.243.925.178,2.063-.072,3.075-.231.944-.895,1.816-1.13,2.817-.224.956-.216,1.987-.44,2.98-.216.959-.523,1.915-.736,2.9s-.186,2-.394,2.988-1.058,1.835-1.255,2.817.292,2.12.1,3.1c-.193,1-.83,1.907-1.012,2.886-.186,1-.1,2.044-.269,3.011-.178,1.02-.819,1.938-.975,2.9-.171,1.039.322,2.139.182,3.087-.152,1.058-.243,2.051-.353,2.973-.129,1.115-.406,2.086-.463,2.95a14.94,14.94,0,0,0-.114,3.026c.982.083,2.01.03,3,.095s1.96.2,2.954.258c.978.053,1.983-.273,2.98-.22.975.057,1.945.341,2.946.41.971.068,1.941.311,2.942.4.975.087,1.987-.038,3,.08.971.114,1.941.387,2.942.538.967.144,1.93.4,2.927.588.959.178,2.021,0,3.011.224.948.216,1.847.758,2.829,1.02.94.25,1.873.6,2.848.9.933.284,1.782.876,2.745,1.21.921.322,1.919.466,2.87.838.91.349,1.888.584,2.825.982.9.383,1.752.906,2.677,1.335.884.413,1.771.865,2.681,1.32.872.436,1.744.91,2.643,1.388.865.463,1.972.527,2.863,1.031.849.482,1.464,1.414,2.34,1.938.842.5,1.623,1.134,2.491,1.68.83.527,1.938.66,2.791,1.221a2.722,2.722,0,0,0,2.844.3,8.12,8.12,0,0,0,2.453-1.843,21.546,21.546,0,0,0,1.919-2.408c.55-.785.918-1.767,1.475-2.707.5-.846,1.16-1.649,1.661-2.6.459-.88.956-1.786,1.411-2.742.432-.906.584-1.968,1.009-2.927.41-.925,1.357-1.642,1.756-2.6.391-.937.584-1.972.959-2.931s.846-1.881,1.206-2.848.413-2.051.758-3.018c.349-.982,1.107-1.816,1.437-2.787.337-.99-.027-2.2.288-3.166.322-1,1.179-1.809,1.475-2.772.311-1.016.637-2,.914-2.958.3-1.035.683-2.013.94-2.961.284-1.058.349-2.112.573-3.033.269-1.119.311-2.169.482-3.041a15.841,15.841,0,0,0,.387-3.022,9.659,9.659,0,0,0-.618-2.9,12.355,12.355,0,0,0-1.494-2.544c-.531-.8-.633-2.01-1.354-2.768a24.39,24.39,0,0,0-2.287-1.991c-.743-.607-1.71-1-2.563-1.581-.8-.542-1.521-1.3-2.408-1.816-.846-.485-1.9-.641-2.817-1.1-.876-.436-1.763-.895-2.692-1.3-.9-.394-1.835-.747-2.779-1.119-.918-.356-1.957-.4-2.908-.732-.933-.326-1.82-.8-2.779-1.1s-1.759-1.1-2.726-1.361-1.953-.47-2.927-.709-1.964-.425-2.942-.633-1.979-.36-2.961-.546-2.078.265-3.064.11-1.945-.535-2.931-.66c-1-.129-2.013-.046-3-.14-1.009-.1-1.995-.171-2.984-.235-1.016-.068-1.987-.705-2.977-.736-1.024-.027-2.036.447-3.022.459-1.028.011-2.059-.6-3.033-.546-1.028.061-1.983.717-2.942.827-1.035.121-2.029.212-2.977.4a29.014,29.014,0,0,0-2.931.626,17.508,17.508,0,0,0-2.628,1.4A11.1,11.1,0,0,0,20.89,9.943a6.757,6.757,0,0,0-1.828,2.23c-.061.083-.436-.284-.436-.284" transform="translate(24.548 14.432)" fill="#bad42e" fill-rule="evenodd"/>
    <path id="패스_4563" data-name="패스 4563" d="M18.626,11.888c-.3.618-.284,1.722-.679,2.95-.265.838-.618,1.775-.918,2.844-.25.895-.99,1.74-1.255,2.772-.243.925.178,2.063-.072,3.075-.231.944-.895,1.816-1.13,2.817-.224.956-.216,1.987-.44,2.98-.216.959-.523,1.915-.736,2.9s-.186,2-.394,2.988-1.058,1.835-1.255,2.817.292,2.12.1,3.1c-.193,1-.83,1.907-1.012,2.886-.186,1-.1,2.044-.269,3.011-.178,1.02-.819,1.938-.975,2.9-.171,1.039.322,2.139.182,3.087-.152,1.058-.243,2.051-.353,2.973-.129,1.115-.406,2.086-.463,2.95a14.94,14.94,0,0,0-.114,3.026c.982.083,2.01.03,3,.095s1.96.2,2.954.258c.978.053,1.983-.273,2.98-.22.975.057,1.945.341,2.946.41.971.068,1.941.311,2.942.4.975.087,1.987-.038,3,.08.971.114,1.941.387,2.942.538.967.144,1.93.4,2.927.588.959.178,2.021,0,3.011.224.948.216,1.847.758,2.829,1.02.94.25,1.873.6,2.848.9.933.284,1.782.876,2.745,1.21.921.322,1.919.466,2.87.838.91.349,1.888.584,2.825.982.9.383,1.752.906,2.677,1.335.884.413,1.771.865,2.681,1.32.872.436,1.744.91,2.643,1.388.865.463,1.972.527,2.863,1.031.849.482,1.464,1.414,2.34,1.938.842.5,1.623,1.134,2.491,1.68.83.527,1.938.66,2.791,1.221a2.722,2.722,0,0,0,2.844.3,8.12,8.12,0,0,0,2.453-1.843,21.546,21.546,0,0,0,1.919-2.408c.55-.785.918-1.767,1.475-2.707.5-.846,1.16-1.649,1.661-2.6.459-.88.956-1.786,1.411-2.742.432-.906.584-1.968,1.009-2.927.41-.925,1.357-1.642,1.756-2.6.391-.937.584-1.972.959-2.931s.846-1.881,1.206-2.848.413-2.051.758-3.018c.349-.982,1.107-1.816,1.437-2.787.337-.99-.027-2.2.288-3.166.322-1,1.179-1.809,1.475-2.772.311-1.016.637-2,.914-2.958.3-1.035.683-2.013.94-2.961.284-1.058.349-2.112.573-3.033.269-1.119.311-2.169.482-3.041a15.841,15.841,0,0,0,.387-3.022,9.659,9.659,0,0,0-.618-2.9,12.355,12.355,0,0,0-1.494-2.544c-.531-.8-.633-2.01-1.354-2.768a24.39,24.39,0,0,0-2.287-1.991c-.743-.607-1.71-1-2.563-1.581-.8-.542-1.521-1.3-2.408-1.816-.846-.485-1.9-.641-2.817-1.1-.876-.436-1.763-.895-2.692-1.3-.9-.394-1.835-.747-2.779-1.119-.918-.356-1.957-.4-2.908-.732-.933-.326-1.82-.8-2.779-1.1s-1.759-1.1-2.726-1.361-1.953-.47-2.927-.709-1.964-.425-2.942-.633-1.979-.36-2.961-.546-2.078.265-3.064.11-1.945-.535-2.931-.66c-1-.129-2.013-.046-3-.14-1.009-.1-1.995-.171-2.984-.235-1.016-.068-1.987-.705-2.977-.736-1.024-.027-2.036.447-3.022.459-1.028.011-2.059-.6-3.033-.546-1.028.061-1.983.717-2.942.827-1.035.121-2.029.212-2.977.4a29.014,29.014,0,0,0-2.931.626,17.508,17.508,0,0,0-2.628,1.4A11.1,11.1,0,0,0,20.89,9.943a6.757,6.757,0,0,0-1.828,2.23C19,12.256,18.626,11.888,18.626,11.888Z" transform="translate(24.548 14.432)" fill="none" stroke="#84c02d" stroke-miterlimit="10" stroke-width="1"/>
    <path id="패스_4564" data-name="패스 4564" d="M116.978,11.263c.364.683.136,1.9.391,3.128.178.876.971,1.8,1.092,2.916.1.929-.023,1.976.038,3.056.057.956-.349,1.987-.326,3.049.019.975-.08,1.983-.087,3.033,0,.982.159,1.995.129,3.037-.03.99-.4,1.987-.451,3.022-.045.993.08,2.013.011,3.045-.068.993-.432,1.976-.519,3-.083,1-.159,2-.258,3.018-.1,1-.243,2-.356,3.015-.114,1,.44,2.089.311,3.106-.129,1-.068,2.04-.212,3.052s-.14,2.04-.3,3.049-.391,2.006-.569,3.007-.637,1.96-.83,2.958S113.9,61.6,113.683,62.6s.554,2.222.322,3.212-.99,1.877-1.24,2.859c-.254,1-.368,2.029-.641,3.007-.277.993-1.009,1.839-1.3,2.806-.3.99-.641,1.941-.963,2.893-.334.978.049,2.2-.3,3.136-.364.967-.811,1.892-1.2,2.81-.406.959,1.93,1.553,1.5,2.448-.451.944,1.282,2.1.8,2.964-.5.918-3.147,6.028-3.682,6.851-.576.884-4.444.392-5.055,1.154-.66.823-1.384-1.636-2.086-.965a17.59,17.59,0,0,1-2.089,2.2c-1.43.626-1.312.948-2.772,1.5s-1.661.011-3.117.561-1.384.747-2.84,1.3-1.331.9-2.791,1.452-1.775-.277-3.234.277-1.327.891-2.787,1.441-1.589.2-3.045.747-1.1,1.5-2.567,2.055-1.8-.322-3.261.231-1.183,1.316-2.654,1.869-1.623.155-3.09.709a13.547,13.547,0,0,1-2.692.508c-.906.148-1.813.728-2.73.69s-1.752-.819-2.647-1.043c-1.437-.277-1.062-.254-2.886-.542-.815-.129-1.926.584-3.018.406-.883-.148-1.687-1.266-2.719-1.445-.91-.155-1.976.288-2.98.11-.925-.163-1.813-.732-2.8-.91-.937-.171-1.866-.5-2.844-.69-.944-.178-2.063.451-3.033.262-.944-.186-1.737-1.2-2.7-1.4s-2.089.478-3.049.273-1.922-.394-2.878-.607-1.862-.683-2.81-.9c-.963-.228-1.93-.413-2.867-.648-.963-.243-1.71-1.263-2.632-1.513-.975-.262-2.112.171-3.026-.1-.978-.288-2-.349-2.889-.645-.982-.322-1.953-.58-2.81-.91-1-.383-1.475-1.744-2.271-2.131A13.653,13.653,0,0,1,6.84,97.57a8.758,8.758,0,0,1-2.271-1.983,22.319,22.319,0,0,1-1.145-2.84c-.394-.88-1.3-1.638-1.634-2.658-.3-.933-.129-2.051-.375-3.079-.228-.967-.277-1.987-.447-3.022C.8,83,.905,81.974.8,80.939c-.1-1-.523-1.987-.557-3.018S-.027,75.876,0,74.849.333,72.82.435,71.8s-.182-2.525,0-3.534a30.862,30.862,0,0,0,3.083,1.57c.838.413,1.581,1.194,2.586,1.6.887.364,1.767.918,2.768,1.274.918.326,1.93.5,2.931.823.933.3,1.877.69,2.874.982.948.281,2.112-.106,3.106.167.963.262,1.85.846,2.844,1.1.971.25,1.881.774,2.878,1.016.971.235,1.915.633,2.9.861s2.036.14,3.03.356,2.074-.034,3.068.171,1.9.838,2.9,1.035,2.036.186,3.026.372c1.009.19,2.036.186,3.026.36,1.012.182,1.858,1.229,2.844,1.392,1.02.171,2.1-.152,3.083,0,1.028.163,2.063.121,3.041.265,1.035.148,1.972.781,2.942.91,1.05.14,2.146-.444,3.109-.334,1.066.125,2.013.755,2.954.842,1.1.1,2.286.432,3.185.482.292-.967.8-2.01,1.145-2.935.356-.94.425-1.979.834-2.878.417-.914.368-2.067.834-2.939.474-.887,1.069-1.729,1.589-2.571.531-.857,1.335-1.539,1.907-2.347s1.081-1.706,1.7-2.48,1.122-1.695,1.778-2.434,1.282-1.577,1.976-2.283,2.093-.72,2.817-1.388c.739-.686,1.35-1.483,2.1-2.12.774-.652,1.168-1.756,1.945-2.359.8-.622,1.934-.781,2.734-1.35.83-.592,1.706-1.069,2.522-1.6.853-.565,1.839-.849,2.666-1.35.883-.538,1.4-1.619,2.241-2.089.914-.512,2.082-.447,2.924-.887.94-.489,1.687-1.2,2.514-1.6,1-.482,1.926-.849,2.719-1.2a23.215,23.215,0,0,0,2.366-1.543c.209-.982,1.134-1.706,1.392-2.719.246-.975-.155-2.139.137-3.14.284-.967,1.138-1.771,1.467-2.764.318-.956.758-1.877,1.119-2.859.349-.944.55-1.953.94-2.92.379-.937.137-2.154.557-3.109.4-.921,1.744-1.437,2.188-2.381.428-.91.47-2.021.937-2.954.451-.906,1.164-1.687,1.653-2.613.474-.891.349-2.127.861-3.037.493-.887,1.05-1.759,1.577-2.666.512-.876.834-2,1.38-2.893.152-.178.846.155.846.155" transform="translate(0.001 30.865)" fill="#84c02d" fill-rule="evenodd"/>
    <path id="패스_4565" data-name="패스 4565" d="M37.583,16.861c-.129,1.092.023,2.158-.064,3.155-.1,1.081-.47,2.089-.546,3.087-.083,1.073.114,2.127.015,3.132-.1,1.05-.349,2.055-.508,3.071s-.2,2.059-.466,3.083c-.152.584-1.02,1.285-2.336,1.957-.762.391-1.706.792-2.764,1.248-.846.368-1.8.713-2.795,1.138-.872.375-1.9.535-2.87.967-.884.394-1.8.819-2.742,1.27-.884.421-1.79.887-2.707,1.365-.872.455-1.665,1.115-2.556,1.627-.857.489-1.835.827-2.7,1.373-.842.535-1.566,1.266-2.4,1.858-.815.576-1.68,1.1-2.476,1.74-.781.622-1.505,1.335-2.26,2.017-.739.671-1.426,1.411-2.131,2.142S3.8,52.463,3.145,53.244c-.637.77-1.175,1.532-1.767,2.366a14.163,14.163,0,0,1,0-2.863A17.965,17.965,0,0,1,2.106,49.9a22.416,22.416,0,0,1,.785-2.836c.379-.887.857-1.752,1.342-2.632.47-.846.853-1.771,1.411-2.6.538-.8,1.1-1.631,1.706-2.423.6-.77,1.244-1.524,1.9-2.275s1.384-1.407,2.07-2.123,1.285-1.505,2-2.192,1.649-1.126,2.385-1.782,1.331-1.486,2.086-2.112c.766-.641,1.5-1.316,2.264-1.919.789-.618,1.748-1,2.529-1.574.811-.6,1.456-1.4,2.245-1.953.838-.584,1.7-1.077,2.5-1.6.868-.569,1.775-1,2.575-1.486.914-.557,1.68-1.225,2.472-1.665a28.558,28.558,0,0,1,2.783-1.047c1.695-.789,2.563-1.232,2.518-.83-.034.064-.087.011-.087.011" transform="translate(3.639 46.623)" fill="#84c02d" fill-rule="evenodd"/>
    <path id="패스_4566" data-name="패스 4566" d="M41.347,17.562a25.825,25.825,0,0,0-2.669-.645,19.372,19.372,0,0,0-2.7-.47,9.812,9.812,0,0,0-2.961.576,16.439,16.439,0,0,0-2.863.967,26.981,26.981,0,0,0-2.76,1.316c-.834.508-1.627,1.16-2.487,1.775-.8.576-1.6,1.21-2.419,1.866-.777.626-1.49,1.354-2.268,2.04-.755.667-1.577,1.274-2.324,1.983-.732.7-1.43,1.445-2.146,2.177s-1.585,1.308-2.279,2.055S12.26,32.862,11.6,33.628c-.675.781-1.414,1.494-2.051,2.279-.656.8-1.282,1.615-1.892,2.412-.633.83-1.392,1.547-1.964,2.359-.61.861-1,1.835-1.532,2.658-.584.91-1.073,1.816-1.547,2.658-.546.967-1.183,1.8-1.558,2.643a13.874,13.874,0,0,0-.944,2.9c-.265,1.361.011,2.355.8,2.764a14.988,14.988,0,0,1,1.96,1.255,3.358,3.358,0,0,0,2.07.823,12.013,12.013,0,0,1,.6-2.8,18.918,18.918,0,0,1,.648-2.851c.349-.853.918-1.668,1.392-2.575.432-.827.993-1.619,1.517-2.48.489-.808.83-1.744,1.4-2.571.538-.785,1.282-1.452,1.877-2.249.576-.77,1.02-1.661,1.646-2.434.6-.747,1.357-1.388,2.006-2.131s1.27-1.475,1.941-2.2,1.266-1.486,1.957-2.188c.652-.66,1.448-1.206,2.188-1.858.705-.622,1.4-1.282,2.161-1.885s1.566-1.1,2.343-1.665,1.384-1.38,2.173-1.915c.808-.55,1.813-.777,2.609-1.282.834-.531,1.558-1.191,2.355-1.665.865-.516,1.649-1.088,2.438-1.528C37.1,19.6,38.094,19.4,38.868,19c1.02-.527,1.858-1,2.525-1.3.015,0-.045-.144-.045-.144" transform="translate(0.026 45.903)" fill="#84c02d" fill-rule="evenodd"/>
    <path id="패스_4567" data-name="패스 4567" d="M56.914,21.514a19.116,19.116,0,0,1-2.347-.94,6.311,6.311,0,0,0-2.3-.758,8.854,8.854,0,0,0-2.886.311,16.577,16.577,0,0,0-2.7,1.138A25.68,25.68,0,0,0,44.03,22.53c-.8.493-1.631,1.028-2.457,1.627-.77.557-1.479,1.248-2.264,1.885q-1.115.916-2.233,1.915c-.72.645-1.445,1.3-2.161,2-.7.675-1.361,1.407-2.051,2.116s-1.521,1.266-2.184,1.995-1.217,1.555-1.858,2.3-1.418,1.392-2.036,2.15-1.251,1.539-1.843,2.313c-.61.793-1.2,1.589-1.767,2.374-.592.819-1.194,1.608-1.725,2.4-.569.849-.819,1.858-1.312,2.662-.542.895-1.009,1.763-1.445,2.586-.5.944-1.164,1.725-1.5,2.548a13.828,13.828,0,0,0-.914,2.814c-.22,1.312.091,2.378.846,2.768a8.624,8.624,0,0,0,2.908.406c1.02.091,1.987.182,2.833.182a10.777,10.777,0,0,1,.349-3.064,22.149,22.149,0,0,1,1.357-2.833c.413-.887.914-1.79,1.467-2.73.508-.857.842-1.885,1.456-2.776.573-.827,1.327-1.577,1.983-2.431.622-.808,1.149-1.729,1.835-2.552.652-.781,1.577-1.365,2.286-2.161.686-.766,1.259-1.661,1.987-2.438.709-.751,1.331-1.608,2.078-2.362.694-.705,1.631-1.2,2.374-1.9s1.426-1.433,2.184-2.1,1.486-1.388,2.256-2.032c.785-.664,1.6-1.274,2.378-1.892.815-.648,1.737-1.115,2.522-1.7.849-.637,1.6-1.32,2.389-1.862.9-.626,1.638-1.373,2.423-1.85a17.885,17.885,0,0,1,2.787-1.16c.023-.011-.061-.2-.061-.2" transform="translate(45.25 55.28)" fill="#84c02d" fill-rule="evenodd"/>
    <path id="패스_4568" data-name="패스 4568" d="M38.784,1.148c7.944,3.041,17.431,4.5,25.861,7.079C73.5,10.95,72.069,10.108,73.5,10.95c1.771,1.039,3.5,6.234,3.056,8.149a8.707,8.707,0,0,1,1,3.818,2.32,2.32,0,0,0-1.471,1.593c11.194,11.687,4.334,30.35-1.467,43.155C69.528,78.684,61.281,87.287,53.185,95.956c-4.653,7.565-16.813,1.441-25.671-.072C8.934,90.363,11.281,92.039,7.694,74.1c-4.357-16.536-3.731-35.226,3-51.334a33.788,33.788,0,0,1,7.826-9.078c1.646-1.327,5.688-2,6.806-3.629-.622-.531-1.285-.842-1.126-1.892.846-.474,3.181-2.51,3.576-3.553,2.776-2.677,2.939-5.726,11-3.466" transform="translate(13.749 1.003)" fill="#261614" fill-rule="evenodd"/>
    <path id="패스_4569" data-name="패스 4569" d="M10.9,4.9q26.061,6.786,51.986,14.068a1.505,1.505,0,0,0,.8-2.9Q37.753,8.785,11.7,2a1.5,1.5,0,0,0-.8,2.9" transform="translate(27.443 5.435)" fill="#5b4541"/>
    <path id="패스_4570" data-name="패스 4570" d="M13.771,2.977a365.347,365.347,0,0,0,36.118,9.582c1.888.4,2.692-2.5.8-2.9A366.119,366.119,0,0,1,14.571.08c-1.847-.6-2.639,2.309-.8,2.9" transform="translate(35.531 0)" fill="#5b4541"/>
    <path id="패스_4571" data-name="패스 4571" d="M21.052,3.434C9.123,9.888,6.336,23.986,5.115,36.371,3.56,52.137,6.92,67.38,10.62,82.616c.459,1.877,3.356,1.081,2.9-.8C10.23,68.287,7,54.606,7.788,40.579c.7-12.392,2.685-28.007,14.781-34.551,1.7-.918.19-3.515-1.517-2.594" transform="translate(13.192 9.045)" fill="#5b4541"/>
    <path id="패스_4572" data-name="패스 4572" d="M24.706,23.688a51.387,51.387,0,0,0-7.436,6.651c-1.175,1.3-2.26,2.685-3.314,4.088-.47.629-.929,1.274-1.365,1.93-.19.281-.372.565-.554.849-.121.19-.239.379-.36.573q.825-.887.277-.428,1.041-.609,2.089-1.217,4.812,2.11,3.162.683c-.14-.148-.281-.292-.421-.44-.224-.22-.463-.428-.705-.629a13.528,13.528,0,0,0-2.692-1.839A14.887,14.887,0,0,0,7.18,32.349a4.734,4.734,0,0,0-4.33,2.912c-.664,1.57-.5,4.038.978,5.18,1.729,1.335,3.443,2.7,5.191,4.008a8.057,8.057,0,0,0,7.254,1.634c2.355-.766,4.126-3.318,3.31-5.832a4.813,4.813,0,0,0-5.832-3.31c-.413.121-.41.133.011.042a1.777,1.777,0,0,1,.956-.011c.516.133.637.322.064-.023a2.683,2.683,0,0,1-.713-.482c.444.345.523.406.239.19-.152-.118-.3-.235-.451-.349l-3.325-2.571Q8.86,37.781,7.18,41.828c.159,0,.319.008.474.019.372.03.212,0-.474-.08,0,.011.728.148.774.159.258.064.5.152.758.22.982.277-.849-.5.034.015.228.133.463.25.686.391.091.053.178.11.265.171.292.2.182.106-.322-.277.345.045.884.838,1.13,1.069,1.877,1.775,4.8,2.817,7.189,1.282,1.464-.944,2.233-2.4,3.178-3.8q.472-.7.967-1.384a8.009,8.009,0,0,1,.5-.675c-.83.884-.057.083.095-.1q1.115-1.382,2.336-2.666T27.315,33.7q.631-.563,1.278-1.1c.262-.216.523-.425.785-.637.755-.61-.728.546.114-.083a5.2,5.2,0,0,0,2.177-2.833,4.844,4.844,0,0,0-.478-3.655c-1.259-1.953-4.364-3.291-6.484-1.7" transform="translate(6.918 64.166)" fill="#261614"/>
    <path id="패스_4573" data-name="패스 4573" d="M15.386,32.987q.609.444-.254-.212c.152.125.3.25.444.383.216.2.428.4.629.614.061.064.485.664.58.66q-.648-.87-.2-.262c.114.159.228.322.334.485a14.7,14.7,0,0,1,.872,1.539c.087.178.171.356.254.538-.262-.637-.326-.785-.2-.451.114.326.243.645.349.975a19.034,19.034,0,0,1,.542,2.154c.034.174.064.345.091.519.083.531.076.459-.019-.22a4.723,4.723,0,0,0,.1,1.047c.125,1.585.008,3.147.011,4.732a6.1,6.1,0,0,0,1.661,4.323A8.28,8.28,0,0,0,23.9,51.65a10.148,10.148,0,0,0,5.874.463,5.226,5.226,0,0,0,2.4-8.661,9.3,9.3,0,0,0-6.549-2.294,4.74,4.74,0,0,0-3.352,8.092,5.563,5.563,0,0,0,3.352,1.388c-1.369-.171.224.046.489.095.349.064.694.133,1.039.212s.69.159,1.031.25c.228.061.455.121.683.19.6.186.455.125-.432-.182l-1.7-1.7.08.171q-.239-1.831-.478-3.655a3.808,3.808,0,0,1,3.284-2.791q-.341.011-.683,0c-.148,0-1.513-.152-.728-.03s-.569-.133-.709-.167a13.158,13.158,0,0,1-1.3-.394,4.772,4.772,0,0,0-5.832,3.31,4.857,4.857,0,0,0,3.31,5.832c3.739,1.293,9.658,1.938,11.535-2.506a5.021,5.021,0,0,0-1.035-5.513,7.365,7.365,0,0,0-3.128-1.608,37.564,37.564,0,0,0-5.422-.99v9.48a2.336,2.336,0,0,0,.629,0c-.269.144-1.054-.224-.178.027.133.038.846.254.167.038-.629-.2.027.072.186.19-.565-.569-1.134-1.134-1.7-1.7l.125.193c-.216-.8-.428-1.593-.645-2.393l0,.186q.324-1.194.648-2.393,1.6-.961,3.212-1.919c-.163,0-.33-.011-.493-.023-.614.019.868.2.273.045-.482-.125-.959-.231-1.437-.379-.41-.159-.413-.155-.008.008a1.652,1.652,0,0,1,1.141,1.627c1.062,1.915.815,1.892.865.83.023-.527.042-1.054.049-1.585a30.592,30.592,0,0,0-.777-7.356A19.034,19.034,0,0,0,20.171,24.8c-2.029-1.437-5.362-.425-6.484,1.7a4.864,4.864,0,0,0,1.7,6.484" transform="translate(36.498 67.366)" fill="#261614"/>
    <path id="패스_4574" data-name="패스 4574" d="M16.447,27.669a19.408,19.408,0,0,1,1.729,10.215q.756-.751,1.505-1.5A4.579,4.579,0,0,0,16.235,37.6c-1.229,1.073.118,2.764,1.464,2.514a10.411,10.411,0,0,1,6.12.626c1.558.724,1.369,2.544,1.16,4a1.556,1.556,0,0,0,1.05,1.85,1.518,1.518,0,0,0,1.85-1.05c.372-2.624.413-5.57-2.112-7.155S19.746,36.69,16.9,37.217l1.464,2.514a1.6,1.6,0,0,1,1.32-.345,1.53,1.53,0,0,0,1.5-1.5,22.377,22.377,0,0,0-2.142-11.732c-.827-1.748-3.42-.224-2.594,1.517" transform="translate(43.976 70.856)" fill="#5b4541"/>
    <path id="패스_4575" data-name="패스 4575" d="M21.564,24.18a30.551,30.551,0,0,0-3.288,3.094q-.734.8-1.407,1.661c-.22.273-.432.554-.645.834-.133.178-.265.356-.394.538-.049.087-.072.072-.064-.034h.8c-1.585-.246-3.1-1.119-4.656-1.513a10.981,10.981,0,0,0-4.736-.228c-2.817.531-5.293,3.007-5.077,6,.137,1.919,3.143,1.934,3.007,0-.129-1.771,1.388-2.908,3.022-3.128,2.063-.281,4.114.561,6.01,1.259.986.36,2.078.842,3.1.315A6.653,6.653,0,0,0,19.1,30.929a29.739,29.739,0,0,1,4.592-4.622,1.517,1.517,0,0,0,0-2.127,1.539,1.539,0,0,0-2.127,0" transform="translate(5.817 66.314)" fill="#5b4541"/>
    <path id="패스_4576" data-name="패스 4576" d="M71.41,20.813c-3.5,1.877-6.928-1.1-9.779-2.821a12.713,12.713,0,0,0-7.277-2.15c-3.462.148-6.723,1.5-10.2.519-3.09-.872-5.081-3.17-7.671-4.865-4.907-3.216-9.245-.322-14.443-.171-5.4.155-7.4-6.3-12.551-7.125-1.892-.3-2.707,2.594-.8,2.9,5.039.8,6.909,6.935,12.468,7.231,2.764.144,5.377-.918,8.065-1.346,4.126-.664,6.313,1.744,9.392,3.966a14.72,14.72,0,0,0,7.6,2.779c3.614.258,7.311-1.612,10.867-.607,5.536,1.566,9.593,7.633,15.85,4.285,1.706-.91.19-3.507-1.517-2.594" transform="translate(21.222 11.666)" fill="#7c4521"/>
    <path id="패스_4577" data-name="패스 4577" d="M75.149,23.574c-2.4,1.251-6.249-.163-8.5-1.293-2.711-1.357-4.964-3.477-7.97-4.22s-5.877.216-8.858.519c-4.615.47-7.542-1.695-11.023-4.338a10.542,10.542,0,0,0-7.144-2.487c-2.942.144-5.73,1.505-8.676,1.517-5.783.023-8.668-7.258-14.322-8.19-1.892-.315-2.7,2.582-.8,2.9,5.623.929,8.236,7.754,14.182,8.266,3.3.284,6.363-1.323,9.612-1.483,4.224-.212,6.511,3.4,9.9,5.225a14.717,14.717,0,0,0,8.865,1.551c2.059-.258,4.148-.91,6.238-.766a12.2,12.2,0,0,1,5.616,2.359c3.932,2.5,9.764,5.445,14.386,3.037,1.718-.891.2-3.485-1.517-2.594" transform="translate(18.912 14.121)" fill="#7c4521"/>
    <path id="패스_4578" data-name="패스 4578" d="M13.854,16.081a32.243,32.243,0,0,1,9.468-3.792c2.514-.535,6.215-.284,6.761,2.863.489,2.833-.576,6.2-1.885,8.676a10.667,10.667,0,0,1-2.609,3.542,1.986,1.986,0,0,1-1.278.508c-.231-.023-.872-.288-.808-.607.36-1.79-2.381-2.552-2.742-.758a3.362,3.362,0,0,0,1.657,3.648,4.162,4.162,0,0,0,4.224-.083,10.16,10.16,0,0,0,3.215-3.451,20.15,20.15,0,0,0,2.12-4.452c.971-2.87,1.778-6.909.125-9.673-1.71-2.855-5.221-3.6-8.3-3.17a32.134,32.134,0,0,0-11.391,4.292,1.424,1.424,0,0,0,1.437,2.457" transform="translate(32.752 25.74)" fill="#7c4521"/>
    <path id="패스_4579" data-name="패스 4579" d="M14.465,16.5a31.147,31.147,0,0,1,6.109-2.7,13.836,13.836,0,0,1,3.09-.573,10.839,10.839,0,0,1,1.448.038c.087.008.216.106.087,0,.118.1.121.209.163.417-.015-.076.019.311.015.4,0,.125-.015.379-.023.432a9.34,9.34,0,0,1-.307,1.274,10.428,10.428,0,0,1-.993,2.271,11.668,11.668,0,0,1-3.42,3.731A11.45,11.45,0,0,1,18.1,23.135a12.342,12.342,0,0,1-1.471.432c-.22.049-.444.091-.667.129l-.228.019.353.535a1.516,1.516,0,0,0-1.505-1.505,1.539,1.539,0,0,0-1.5,1.505,2.26,2.26,0,0,0,1.088,2.078,3.414,3.414,0,0,0,2.408.3,13.464,13.464,0,0,0,3.572-1.107,14.692,14.692,0,0,0,5.593-4.584,12.409,12.409,0,0,0,2.643-6.761,3.812,3.812,0,0,0-1.6-3.435c-1.3-.823-3.136-.565-4.577-.36a27.944,27.944,0,0,0-9.256,3.53c-1.7.921-.186,3.519,1.517,2.594" transform="translate(34.074 28.393)" fill="#7c4521"/>
    <path id="패스_4580" data-name="패스 4580" d="M12.346,16.373a4.96,4.96,0,0,0-.428,1.6,4.783,4.783,0,0,0,1.32,3.633,4.118,4.118,0,0,0,2.271,1.225,5.016,5.016,0,0,0,2.9-.4,4.354,4.354,0,0,0,2.07-1.972,1.5,1.5,0,1,0-2.594-1.517,2.384,2.384,0,0,1-.14.254l-.08.121c-.087.121-.053.08.106-.133-.121.118-.231.25-.353.364-.182.174.33-.228.015-.011-.061.038-.121.08-.186.114-.083.049-.171.091-.258.137-.224.118.391-.14.023-.011a4.276,4.276,0,0,1-.493.129c-.254.057.432-.034.038-.008a2.057,2.057,0,0,1-.216.008c-.1,0-.193-.008-.288-.011-.262-.015.425.083.042,0-.072-.015-.14-.034-.212-.057-.046-.011-.091-.03-.137-.046-.144-.057-.091-.034.155.068a4.54,4.54,0,0,0-.436-.258c.2.167.25.2.133.1a1.315,1.315,0,0,1-.11-.095,2.608,2.608,0,0,1-.2-.209c-.091-.1-.155-.288.053.08-.049-.083-.114-.159-.163-.243s-.1-.167-.14-.254c-.061-.129-.064-.319.034.091-.046-.19-.121-.368-.159-.561-.03-.14.011-.337.008.114,0-.1-.015-.193-.015-.292,0-.083,0-.167.008-.25.008-.341-.076.341-.015.076.023-.095.042-.19.068-.284.034-.114.178-.447-.027.019a1.637,1.637,0,0,0,.152-1.157,1.5,1.5,0,0,0-1.847-1.05,1.45,1.45,0,0,0-.9.69" transform="translate(33.232 43.623)" fill="#fff"/>
    <path id="패스_4581" data-name="패스 4581" d="M15.033,17.3a2.3,2.3,0,1,1-1.661-2.791A2.3,2.3,0,0,1,15.033,17.3" transform="translate(29.343 40.311)" fill="#fff"/>
    <path id="패스_4582" data-name="패스 4582" d="M19.622,18.461a2.3,2.3,0,1,1-1.661-2.791,2.3,2.3,0,0,1,1.661,2.791" transform="translate(42.155 43.552)" fill="#fff"/>
  </g>
</svg>
