<svg xmlns="http://www.w3.org/2000/svg" xmlns:xlink="http://www.w3.org/1999/xlink" width="92.753" height="145.963" viewBox="0 0 92.753 145.963">
  <defs>
    <clipPath id="clip-path">
      <rect id="사각형_2015" data-name="사각형 2015" width="92.753" height="145.963" fill="none"/>
    </clipPath>
  </defs>
  <g id="그룹_1495" data-name="그룹 1495" transform="translate(90 4)">
    <g id="그룹_1494" data-name="그룹 1494" transform="translate(-90 -4)" clip-path="url(#clip-path)">
      <path id="패스_4738" data-name="패스 4738" d="M8.815,7.654a81.421,81.421,0,0,1,5.2,32.822c-.088,1.861,2.806,1.857,2.893,0A83.641,83.641,0,0,0,11.6,6.884c-.649-1.722-3.448-.974-2.787.77" transform="translate(23.081 15.649)" fill="#34ac37"/>
      <path id="패스_4739" data-name="패스 4739" d="M13.917,3.884A160.992,160.992,0,0,1,11.042,35.2c-.35,1.817,2.437,2.6,2.791.77A165.491,165.491,0,0,0,16.81,3.884a1.448,1.448,0,0,0-2.893,0" transform="translate(29.165 6.587)" fill="#34ac37"/>
      <path id="패스_4740" data-name="패스 4740" d="M24.669,5.239A84.786,84.786,0,0,1,12.286,39.528c-.992,1.58,1.507,3.032,2.5,1.459A88.1,88.1,0,0,0,27.562,5.239c.237-1.843-2.66-1.824-2.893,0" transform="translate(31.934 10.234)" fill="#34ac37"/>
      <path id="패스_4741" data-name="패스 4741" d="M28.425,8.707Q20.894,21.262,13.367,33.816a1.446,1.446,0,0,0,2.5,1.459Q23.394,22.721,30.92,10.166a1.446,1.446,0,0,0-2.5-1.459" transform="translate(34.833 21.233)" fill="#34ac37"/>
      <path id="패스_4742" data-name="패스 4742" d="M17.117,9.785a2.742,2.742,0,0,1-.489-1.974,3.2,3.2,0,0,1,.241-.9,2.487,2.487,0,0,1,.285-.485.244.244,0,0,1,.128-.15c.19-.175.175-.182-.04-.015h-.766c-.416-.084-.171-.288-.146.018a1.46,1.46,0,0,1,.069.175,1.782,1.782,0,0,1,.091.821A1.948,1.948,0,0,1,15.872,8.5c.679.682,1.365,1.365,2.047,2.047a4.4,4.4,0,0,1,1.8-1.262,4.25,4.25,0,0,1,.843-.146c-.018,0,.146.018.131.044s-.139-.252-.106-.237c.223.088-.638.682-.85.748-.916.281-1.879.321-2.78.682a1.472,1.472,0,0,0-.638,2.419,3.7,3.7,0,0,1,1.146,1.959.809.809,0,0,1-.2.66.79.79,0,0,1-.212.026c-1.609-.27-1.146-2.682-.923-3.849a1.464,1.464,0,0,0-.836-1.708,1.434,1.434,0,0,0-1.806.591A2.832,2.832,0,0,1,9.8,11.846c-.095-.044-.431-.248-.379-.212-.095-.073-.19-.241-.292-.281-.2-.08.051-.117-.058,0A.3.3,0,0,1,9,11.638c-.12.215-.124.263-.022.142-.073,0,.409-.215.234-.135a4.124,4.124,0,0,1,.646-.179,4.963,4.963,0,0,1,3.5.562,1.446,1.446,0,0,0,1.459-2.5,7.669,7.669,0,0,1-1.467-1.211,6.358,6.358,0,0,1-.624-.773,5.864,5.864,0,0,0-.383-.631c-.018-.091-.029-.113-.033-.058-.018.23-.212.35-.569.358-.879.511-.62.142-.387.522.153.263.361.5.514.763a6.452,6.452,0,0,1,.726,1.956c.39,1.817,3.178,1.047,2.784-.77a8.961,8.961,0,0,0-1.718-3.663c-.912-1.171-2.8-1.992-3.842-.463C9,6.749,9.608,8.143,10.363,9.194a10.665,10.665,0,0,0,3,2.835l1.459-2.5a7.915,7.915,0,0,0-6.381-.671,3.116,3.116,0,0,0-2.171,2.014,2.881,2.881,0,0,0,1.113,2.8c2.572,2.2,7.177,1.456,8.6-1.748-.879-.372-1.762-.741-2.642-1.113-.328,1.74-.613,3.616.226,5.261a4.169,4.169,0,0,0,3.612,2.251,3.3,3.3,0,0,0,3.141-3.083c.2-1.777-.843-3.24-1.956-4.5q-.317,1.209-.642,2.419c1.394-.562,2.977-.449,4.221-1.383A3.325,3.325,0,0,0,23.3,8.063,3.154,3.154,0,0,0,19.6,6.326,6.8,6.8,0,0,0,15.872,8.5a1.448,1.448,0,0,0,2.047,2.047,4.875,4.875,0,0,0,1.386-4.313C19.054,4.681,17.671,2.648,15.88,3.7a5.175,5.175,0,0,0-2.127,3.922,5.769,5.769,0,0,0,1.317,4.21,1.46,1.46,0,0,0,2.047,0,1.485,1.485,0,0,0,0-2.047" transform="translate(16.424 9.031)" fill="#fff"/>
      <path id="패스_4743" data-name="패스 4743" d="M20.837,6.376A2.76,2.76,0,0,1,20.348,4.4a3.331,3.331,0,0,1,.241-.9,2.5,2.5,0,0,1,.288-.485A.228.228,0,0,1,21,2.862c.19-.175.179-.182-.036-.015H20.2c-.42-.084-.175-.288-.15.018a1.46,1.46,0,0,1,.069.175,1.782,1.782,0,0,1,.091.821A1.943,1.943,0,0,1,19.6,5.088q1.018,1.023,2.043,2.047a4.426,4.426,0,0,1,1.8-1.262,4.3,4.3,0,0,1,.843-.146c-.018,0,.146.018.131.044s-.139-.252-.106-.237c.223.088-.638.682-.846.748-.919.281-1.883.321-2.78.682a1.47,1.47,0,0,0-.638,2.419,3.691,3.691,0,0,1,1.142,1.959.8.8,0,0,1-.2.66.79.79,0,0,1-.212.026c-1.609-.27-1.142-2.682-.919-3.849a1.462,1.462,0,0,0-.839-1.708,1.435,1.435,0,0,0-1.806.591,2.832,2.832,0,0,1-3.681,1.375c-.095-.044-.427-.248-.376-.212-.1-.073-.193-.241-.3-.281-.2-.08.051-.117-.058,0a.3.3,0,0,1-.073.288c-.12.215-.124.263-.022.142-.073,0,.409-.215.234-.135a4.124,4.124,0,0,1,.646-.179,4.963,4.963,0,0,1,3.5.562,1.446,1.446,0,0,0,1.459-2.5,7.647,7.647,0,0,1-1.463-1.211,6.057,6.057,0,0,1-.628-.773,5.862,5.862,0,0,0-.383-.631c-.018-.091-.029-.113-.033-.058-.018.23-.212.35-.569.358-.876.511-.617.142-.387.522.153.263.361.5.514.763a6.452,6.452,0,0,1,.726,1.956c.39,1.817,3.178,1.047,2.787-.77a9.015,9.015,0,0,0-1.722-3.663c-.916-1.171-2.795-1.992-3.842-.463-.817,1.189-.208,2.583.544,3.634a10.714,10.714,0,0,0,3,2.835l1.459-2.5a7.915,7.915,0,0,0-6.381-.671A3.123,3.123,0,0,0,9.986,7.467a2.876,2.876,0,0,0,1.116,2.8c2.572,2.2,7.177,1.456,8.6-1.748-.883-.372-1.762-.741-2.642-1.113-.332,1.74-.617,3.616.226,5.261A4.159,4.159,0,0,0,20.9,14.921a3.3,3.3,0,0,0,3.145-3.083c.2-1.777-.843-3.24-1.959-4.5q-.317,1.209-.638,2.419c1.39-.562,2.974-.449,4.214-1.383a3.328,3.328,0,0,0,1.361-3.718,3.159,3.159,0,0,0-3.7-1.737A6.791,6.791,0,0,0,19.6,5.088a1.447,1.447,0,0,0,2.043,2.047,4.865,4.865,0,0,0,1.386-4.313C22.774,1.272,21.395-.761,19.6.29a5.175,5.175,0,0,0-2.127,3.922,5.769,5.769,0,0,0,1.317,4.21,1.46,1.46,0,0,0,2.047,0,1.481,1.481,0,0,0,0-2.047" transform="translate(26.277 0.002)" fill="#fff"/>
      <path id="패스_4744" data-name="패스 4744" d="M24.992,7.965A2.76,2.76,0,0,1,24.5,5.991a3.331,3.331,0,0,1,.241-.9,2.5,2.5,0,0,1,.288-.485.228.228,0,0,1,.124-.15c.19-.175.179-.182-.036-.015h-.766c-.42-.084-.175-.288-.15.018a1.46,1.46,0,0,1,.069.175,1.782,1.782,0,0,1,.091.821,1.943,1.943,0,0,1-.613,1.226Q24.769,7.7,25.794,8.724a4.426,4.426,0,0,1,1.8-1.262,4.3,4.3,0,0,1,.843-.146c-.018,0,.146.018.131.044s-.139-.252-.106-.237c.223.088-.638.682-.846.748-.919.281-1.883.321-2.78.682a1.47,1.47,0,0,0-.638,2.419,3.691,3.691,0,0,1,1.142,1.959.8.8,0,0,1-.2.66.79.79,0,0,1-.212.026c-1.609-.27-1.142-2.682-.919-3.849a1.462,1.462,0,0,0-.839-1.708,1.429,1.429,0,0,0-1.8.591,2.837,2.837,0,0,1-3.685,1.375c-.095-.044-.427-.248-.376-.212-.1-.073-.193-.241-.3-.281-.2-.08.051-.117-.058,0a.3.3,0,0,1-.073.288c-.12.215-.124.263-.022.142-.073,0,.409-.215.234-.135a4.124,4.124,0,0,1,.646-.179,4.963,4.963,0,0,1,3.5.562,1.446,1.446,0,0,0,1.459-2.5A7.646,7.646,0,0,1,21.23,6.5a6.057,6.057,0,0,1-.628-.773,5.862,5.862,0,0,0-.383-.631c-.018-.091-.029-.113-.033-.058-.018.23-.212.35-.569.358-.876.511-.617.142-.387.522.153.263.361.5.514.763a6.452,6.452,0,0,1,.726,1.956c.39,1.817,3.178,1.047,2.787-.77A9.015,9.015,0,0,0,21.536,4.2c-.912-1.171-2.795-1.992-3.842-.463-.817,1.189-.208,2.583.544,3.634a10.714,10.714,0,0,0,3,2.835c.485-.832.974-1.664,1.459-2.5a7.915,7.915,0,0,0-6.381-.671,3.123,3.123,0,0,0-2.171,2.014,2.876,2.876,0,0,0,1.116,2.8c2.572,2.2,7.177,1.456,8.6-1.748C22.978,9.738,22.1,9.37,21.219,9c-.332,1.74-.617,3.616.226,5.261a4.159,4.159,0,0,0,3.608,2.251A3.3,3.3,0,0,0,28.2,13.427c.2-1.777-.843-3.24-1.959-4.5L25.6,11.343c1.39-.562,2.974-.449,4.218-1.383a3.332,3.332,0,0,0,1.357-3.718,3.159,3.159,0,0,0-3.7-1.737,6.791,6.791,0,0,0-3.729,2.171,1.447,1.447,0,0,0,2.043,2.047,4.865,4.865,0,0,0,1.386-4.313C26.929,2.861,25.55.828,23.755,1.879A5.175,5.175,0,0,0,21.628,5.8a5.769,5.769,0,0,0,1.317,4.21,1.46,1.46,0,0,0,2.047,0,1.481,1.481,0,0,0,0-2.047" transform="translate(37.281 4.21)" fill="#fff"/>
      <path id="패스_4745" data-name="패스 4745" d="M26.672,11.408a2.755,2.755,0,0,1-.489-1.974,3.33,3.33,0,0,1,.241-.9,2.685,2.685,0,0,1,.285-.485.244.244,0,0,1,.128-.15c.19-.175.179-.182-.036-.015h-.766c-.42-.084-.175-.288-.15.018a1.46,1.46,0,0,1,.069.175,1.782,1.782,0,0,1,.091.821,1.943,1.943,0,0,1-.613,1.226q1.018,1.023,2.043,2.047a4.426,4.426,0,0,1,1.8-1.262,4.584,4.584,0,0,1,.843-.146c-.018.007.146.018.131.044s-.139-.252-.106-.237c.223.088-.638.682-.846.748-.919.281-1.883.321-2.78.682a1.471,1.471,0,0,0-.638,2.419,3.691,3.691,0,0,1,1.142,1.959.8.8,0,0,1-.2.66.79.79,0,0,1-.212.026c-1.609-.27-1.142-2.682-.919-3.849a1.462,1.462,0,0,0-.839-1.708,1.435,1.435,0,0,0-1.806.591,2.832,2.832,0,0,1-3.681,1.375c-.095-.044-.427-.244-.379-.212-.095-.073-.19-.237-.292-.281-.2-.08.051-.117-.058,0a.3.3,0,0,1-.073.288c-.12.215-.124.266-.022.142-.073,0,.409-.215.234-.135a4.564,4.564,0,0,1,.646-.179,4.965,4.965,0,0,1,3.5.566,1.448,1.448,0,0,0,1.459-2.5A7.646,7.646,0,0,1,22.91,9.945a5.814,5.814,0,0,1-.628-.773A6.7,6.7,0,0,0,21.9,8.54c-.018-.091-.029-.113-.033-.055-.018.23-.212.347-.569.354-.876.511-.617.142-.387.522.153.266.361.5.514.763a6.452,6.452,0,0,1,.726,1.956c.39,1.817,3.178,1.047,2.787-.77A8.978,8.978,0,0,0,23.216,7.65c-.916-1.175-2.795-2-3.842-.467-.817,1.189-.208,2.583.544,3.634a10.727,10.727,0,0,0,3,2.839c.485-.836.974-1.667,1.459-2.5a7.9,7.9,0,0,0-6.381-.668,3.111,3.111,0,0,0-2.171,2.01,2.873,2.873,0,0,0,1.116,2.8c2.572,2.2,7.177,1.456,8.6-1.748-.883-.372-1.762-.741-2.642-1.113-.332,1.74-.617,3.616.226,5.261a4.159,4.159,0,0,0,3.608,2.251,3.3,3.3,0,0,0,3.145-3.083c.2-1.777-.843-3.24-1.959-4.5-.212.806-.423,1.616-.638,2.419,1.39-.562,2.974-.449,4.214-1.383a3.328,3.328,0,0,0,1.361-3.718,3.163,3.163,0,0,0-3.7-1.737,6.813,6.813,0,0,0-3.729,2.171,1.447,1.447,0,0,0,2.043,2.047,4.865,4.865,0,0,0,1.386-4.313c-.252-1.547-1.631-3.583-3.426-2.532a5.182,5.182,0,0,0-2.127,3.926,5.765,5.765,0,0,0,1.317,4.207,1.46,1.46,0,0,0,2.047,0,1.481,1.481,0,0,0,0-2.047" transform="translate(41.731 13.329)" fill="#fff"/>
      <path id="패스_4746" data-name="패스 4746" d="M37.632,10.986c5.535.252,31.012-.131,30.75,3.287-.135,2.528-4.495,7.954-1.087,9.483,29.787,11.42-.587,54.79-6.542,83.9-.157.766-1.558.733-1.587,1.47-1.675,7.552-26.185,7.257-36.865,1.489a1.747,1.747,0,0,1-.843-1.332c-.642-4.725-3.233-8.691-8.986-23.051C9.254,78.111-1.137,51.744,2.632,39.018c2.021-6.823,4.561-11.621,11.533-14.5,1.379-.635,3.269-.726,4.338-1.875.759-.872.368-2-.088-2.89a27.2,27.2,0,0,1-1.686-6.841c-.029-.781.737-.989,1.368-1.193,5.243-1.806,13.784.668,19.377-.722Z" transform="translate(4.819 29.097)" fill="#e2e1e1" fill-rule="evenodd"/>
      <path id="패스_4747" data-name="패스 4747" d="M7.13,39.808c1.981,3.225,5.465,4.681,9.008,5.553A46.55,46.55,0,0,0,27.5,46.692c6.808-.051,14.357-1.594,19.22-6.721,1.281-1.35-.763-3.4-2.047-2.047-4.2,4.437-10.723,5.746-16.6,5.867a43.163,43.163,0,0,1-9.8-.916c-3.174-.668-6.823-1.58-8.636-4.528-.971-1.583-3.473-.131-2.5,1.459" transform="translate(18.293 99.27)" fill="#231815"/>
      <path id="패스_4748" data-name="패스 4748" d="M14.673,16.5a41.526,41.526,0,0,0-6.691.544A11.582,11.582,0,0,0,2,19.9,6.536,6.536,0,0,0,.991,28.05a11.791,11.791,0,0,0,6.13,4.429,32.692,32.692,0,0,0,6.013,1.4,4.97,4.97,0,0,0,3.517-.46,4.564,4.564,0,0,0,1.635-6.243A4.447,4.447,0,0,0,15.56,25.08,30.412,30.412,0,0,1,9.073,23.5l1.087.46A8.928,8.928,0,0,1,8.3,22.917c.306.237.617.474.923.715a5.374,5.374,0,0,1-.923-.9c.237.31.478.617.715.923a3.283,3.283,0,0,1-.383-.642c.153.361.306.726.46,1.087a2.359,2.359,0,0,1-.146-.551c.051.4.106.81.161,1.215a2.264,2.264,0,0,1,.007-.445c-.055.4-.106.806-.161,1.211A2.03,2.03,0,0,1,9.08,25.1c-.153.365-.306.726-.46,1.091a2.755,2.755,0,0,1,.3-.485l-.715.923a3.728,3.728,0,0,1,.544-.529c-.31.237-.617.474-.923.715a6.444,6.444,0,0,1,1.4-.792l-1.091.46a12.543,12.543,0,0,1,3.006-.763l-1.215.164a41.323,41.323,0,0,1,4.75-.266A4.756,4.756,0,0,0,17.9,24.281,4.561,4.561,0,0,0,14.673,16.5" transform="translate(0.001 43.687)" fill="#e2e1e1"/>
      <path id="패스_4749" data-name="패스 4749" d="M25.021,26.289c.956.088,1.908.182,2.86.31l-1.215-.164a16.962,16.962,0,0,1,4.243,1.047c-.365-.153-.73-.306-1.091-.46a7.654,7.654,0,0,1,1.635.938l-.923-.711a4.395,4.395,0,0,1,.668.66c-.237-.306-.478-.613-.715-.923a2.829,2.829,0,0,1,.3.518c-.153-.365-.306-.726-.46-1.091a2.093,2.093,0,0,1,.124.441l-.164-1.215a2.019,2.019,0,0,1,0,.445c.055-.4.109-.806.164-1.211a2.375,2.375,0,0,1-.157.544l.46-1.091a3.3,3.3,0,0,1-.314.522c.237-.31.474-.617.711-.923a4.825,4.825,0,0,1-.781.763c.306-.237.613-.478.923-.715a7.837,7.837,0,0,1-1.51.861l1.087-.46a17.565,17.565,0,0,1-4.429,1.065c.4-.051.81-.106,1.215-.161-.981.128-1.967.219-2.952.31a4.9,4.9,0,0,0-3.225,1.335,4.635,4.635,0,0,0-1.335,3.225,4.586,4.586,0,0,0,1.335,3.225,4.446,4.446,0,0,0,3.225,1.335c4.313-.394,9.256-.741,12.547-3.944a6.627,6.627,0,0,0,1.244-8.18,10.787,10.787,0,0,0-6.137-4.258,35.1,35.1,0,0,0-7.341-1.16A4.581,4.581,0,0,0,21.8,18.5a4.563,4.563,0,0,0,0,6.451,5.147,5.147,0,0,0,3.225,1.335" transform="translate(53.35 45.441)" fill="#e2e1e1"/>
      <path id="패스_4750" data-name="패스 4750" d="M8.925,18.2a256.163,256.163,0,0,0,43.1,1.328c2.919-.157,2.937-4.718,0-4.561a256.162,256.162,0,0,1-43.1-1.328c-2.912-.336-2.886,4.229,0,4.561" transform="translate(17.88 36.073)" fill="#b9cbde"/>
      <path id="패스_4751" data-name="패스 4751" d="M13.951,15.16q-4.5,4.433-9,8.866a2.281,2.281,0,1,0,3.225,3.225l9-8.866a2.281,2.281,0,0,0-3.225-3.225" transform="translate(11.362 38.43)" fill="#b9cbde"/>
      <path id="패스_4752" data-name="패스 4752" d="M13.324,15.4A40.126,40.126,0,0,0,7.7,24.265a2.487,2.487,0,0,0-.23,1.755,2.329,2.329,0,0,0,1.051,1.365,2.3,2.3,0,0,0,3.116-.817,38.3,38.3,0,0,1,2.317-4.316c.42-.682.868-1.35,1.339-2,.117-.164.234-.325.358-.489.058-.08.117-.161.179-.241.04-.055.255-.332.051-.069s.011-.015.051-.066c.062-.08.12-.157.19-.237q.208-.263.427-.525a2.477,2.477,0,0,0,.668-1.613,2.342,2.342,0,0,0-.668-1.613,2.308,2.308,0,0,0-3.225,0" transform="translate(19.59 39.03)" fill="#b9cbde"/>
      <path id="패스_4753" data-name="패스 4753" d="M4.428,21.348a244.372,244.372,0,0,0,36.784,4.805c10.752.566,22.471,1.324,32.216-4.054,2.572-1.419.274-5.36-2.3-3.94-9.275,5.119-21.023,3.959-31.217,3.36A236.741,236.741,0,0,1,5.639,16.951c-2.864-.595-4.086,3.8-1.211,4.4" transform="translate(7.382 44.749)" fill="#b9cbde"/>
      <path id="패스_4754" data-name="패스 4754" d="M12.391,16.175a36.241,36.241,0,0,0-2.05,9.063,2.294,2.294,0,0,0,.668,1.613,2.319,2.319,0,0,0,1.613.668,2.345,2.345,0,0,0,2.28-2.28c.022-.212.044-.42.069-.631.018-.157.022-.653,0-.022a9.218,9.218,0,0,1,.168-1.095c.117-.675.255-1.35.412-2.018a34.011,34.011,0,0,1,1.24-4.086A2.291,2.291,0,0,0,15.2,14.581a2.345,2.345,0,0,0-2.806,1.594" transform="translate(27.371 38.44)" fill="#b9cbde"/>
      <path id="패스_4755" data-name="패스 4755" d="M12.114,17.608q1.127,5,2.258,10A2.3,2.3,0,0,0,17.178,29.2a2.332,2.332,0,0,0,1.594-2.806q-1.133-5-2.262-10a2.3,2.3,0,0,0-2.8-1.594,2.332,2.332,0,0,0-1.594,2.806" transform="translate(31.913 38.966)" fill="#b9cbde"/>
      <path id="패스_4756" data-name="패스 4756" d="M13.631,17.813a96.337,96.337,0,0,0,5.188,10.7,2.3,2.3,0,0,0,3.119.817,2.324,2.324,0,0,0,.817-3.119q-1.368-2.413-2.594-4.911-.591-1.2-1.146-2.426c-.182-.409-.365-.817-.544-1.226-.1-.237-.208-.467-.3-.7.2.507-.106-.252-.142-.339a2.506,2.506,0,0,0-1.047-1.365,2.34,2.34,0,0,0-1.755-.23,2.3,2.3,0,0,0-1.594,2.806" transform="translate(35.77 39.531)" fill="#b9cbde"/>
      <path id="패스_4757" data-name="패스 4757" d="M15.612,18.416a71.931,71.931,0,0,0,4.955,8.22,2.445,2.445,0,0,0,1.365,1.047,2.282,2.282,0,0,0,2.576-3.349,71.437,71.437,0,0,1-4.958-8.22A2.3,2.3,0,0,0,16.43,15.3a2.334,2.334,0,0,0-.817,3.119" transform="translate(40.586 39.694)" fill="#b9cbde"/>
      <path id="패스_4758" data-name="패스 4758" d="M17.677,18.938q3.99,4.367,8.33,8.4c.981.912,2.937.93,3.583-.463l.431-.934a2.466,2.466,0,0,0,.23-1.755A2.338,2.338,0,0,0,29.2,22.824a2.309,2.309,0,0,0-3.119.821c-.146.31-.288.62-.434.93l3.583-.46q-4.334-4.028-8.33-8.4a2.3,2.3,0,0,0-3.225,0,2.329,2.329,0,0,0,0,3.225" transform="translate(45.1 39.865)" fill="#b9cbde"/>
      <path id="패스_4759" data-name="패스 4759" d="M19.546,18.481a69.353,69.353,0,0,1,7.509,7.811,2.3,2.3,0,0,0,1.613.668,2.28,2.28,0,0,0,2.28-2.28,2.6,2.6,0,0,0-.668-1.613,69.35,69.35,0,0,0-7.509-7.811,2.281,2.281,0,1,0-3.225,3.225" transform="translate(50.028 38.677)" fill="#b9cbde"/>
      <path id="패스_4760" data-name="패스 4760" d="M17.986,14.23C12.637,16.218,7.3,18.294,2.9,22.041a2.288,2.288,0,0,0,0,3.225,2.335,2.335,0,0,0,3.222,0c.244-.208.493-.416.744-.613-.208.164.423-.314.5-.365.518-.372,1.054-.726,1.6-1.058A35.951,35.951,0,0,1,12.345,21.4c1.273-.606,2.021-.916,3.233-1.4s2.412-.927,3.616-1.379a2.28,2.28,0,1,0-1.208-4.4" transform="translate(5.927 37.39)" fill="#b9cbde"/>
      <path id="패스_4761" data-name="패스 4761" d="M2.029,20.563C5.474,25.456,12.5,26.43,18,27.459a145.876,145.876,0,0,0,22.789,2.116c13.66.379,28.247.715,40.316-6.666,2.5-1.532.212-5.476-2.3-3.94-10.581,6.472-23.223,6.356-35.223,6.111a179.666,179.666,0,0,1-18.794-1.149,87.616,87.616,0,0,1-10.322-1.894c-2.809-.7-6.717-1.251-8.5-3.776-1.675-2.382-5.633-.106-3.937,2.3" transform="translate(4.279 45.694)" fill="#b9cbde"/>
      <path id="패스_4762" data-name="패스 4762" d="M27.05,30.762a6.816,6.816,0,0,1,2.59-3.612h-2.3c.062.033.124.066.186.095l-.817-.817q-.033-1.4-.164-.657c-.047.208-.1.42-.146.628-.1.416-.2.836-.3,1.251q-.29,1.253-.587,2.51c-.42,1.8,1.616,3.754,3.349,2.572a27.1,27.1,0,0,1,3.152-1.864c.431-.215.868-.42,1.313-.606a4.229,4.229,0,0,0,.9-.336c.423-.336-.168.927-.8-.558-.106-.383-.208-.766-.31-1.149.336-.573.336-.66,0-.27-.146.088-.285.179-.423.274-.431.27-.872.522-1.328.748a11.889,11.889,0,0,1-2.678.908,19.278,19.278,0,0,1-5.849.08c-3.805-.325-9.114-.686-11.515,3a2.3,2.3,0,0,0,1.97,3.433q3.711.066,7.425-.026c2.93-.073,2.944-4.608,0-4.561a34.5,34.5,0,0,0-8.84,1.292,2.3,2.3,0,0,0,0,4.4c1.142.288,2.284.58,3.426.868a13.366,13.366,0,0,0,3.2.646c2.485-.011,3.784-2.674,5.09-4.415a2.292,2.292,0,0,0-.817-3.119,2.334,2.334,0,0,0-3.119.817l-1.328,1.766-.328.438c-.208.234-.015.23.58-.015-.011.029-.923-.226-.992-.244l-4.495-1.138v4.4a29.523,29.523,0,0,1,7.629-1.127V31.8q-3.711.093-7.425.026l1.967,3.43c.529-.81,2.558-.908,3.411-.941a37.193,37.193,0,0,1,4.55.237,19.5,19.5,0,0,0,9.756-1.328,10.162,10.162,0,0,0,3.809-2.55,3.216,3.216,0,0,0-.763-5.006c-1.6-.839-3.317-.066-4.823.58a27.337,27.337,0,0,0-4.63,2.547q1.675,1.286,3.349,2.576c.339-1.463.715-2.919,1.025-4.389.3-1.427.161-3.032-1.3-3.769a2.3,2.3,0,0,0-2.3,0,11.856,11.856,0,0,0-4.685,6.337c-.872,2.809,3.532,4.01,4.4,1.211" transform="translate(27.131 60.656)" fill="#b9cbde"/>
      <path id="패스_4763" data-name="패스 4763" d="M16.235,26.468c-.39.277-.781.551-1.168.828a2.279,2.279,0,0,0-.817.817,1.7,1.7,0,0,0-.274.85,1.712,1.712,0,0,0,.044.908,2.265,2.265,0,0,0,.584,1.007l.055.051c.08.069.182.146.252.2s.164.131.252.193l.058.033a5.492,5.492,0,0,0,.606.259,2.244,2.244,0,0,0,.427.066,1.79,1.79,0,0,0,.445.044,4.134,4.134,0,0,0,.73-.1,3.878,3.878,0,0,0,.671-.277.848.848,0,0,0,.113-.069,3.352,3.352,0,0,0,.562-.452,3.068,3.068,0,0,0,.42-.569,5.225,5.225,0,0,0,.252-.591l.007-.04a1.513,1.513,0,0,0,.044-.314.794.794,0,0,0,.04-.317,5.976,5.976,0,0,0-.088-.668l-.018-.058a5.9,5.9,0,0,0-.248-.587.3.3,0,0,0-.044-.073,2.98,2.98,0,0,0-1-.981,4.2,4.2,0,0,0-.657-.285.69.69,0,0,0-.131-.036,3.039,3.039,0,0,0-1.492.011,2.69,2.69,0,0,0-.675.288l-.029.022c-.153.113-.332.248-.478.372a.333.333,0,0,0-.062.062,1.716,1.716,0,0,0-.471.733,2.061,2.061,0,0,0,0,1.759,1.716,1.716,0,0,0,.471.733c.153.117.306.237.463.358a2.263,2.263,0,0,0,1.149.31c.2-.029.4-.055.606-.08a2.307,2.307,0,0,0,1.007-.587.4.4,0,0,1,.08-.077c-.157.117-.31.237-.463.354a.492.492,0,0,1,.106-.058l-.547.23a.649.649,0,0,1,.139-.037c-.2.026-.4.055-.606.08a.891.891,0,0,1,.171,0c-.2-.029-.4-.055-.606-.08a.717.717,0,0,1,.179.047l-.544-.23a1,1,0,0,1,.15.088c-.153-.117-.306-.237-.46-.358a.9.9,0,0,1,.1.1c-.12-.153-.237-.306-.358-.46a.4.4,0,0,1,.066.113c-.077-.182-.153-.365-.23-.544a.428.428,0,0,1,.033.117c-.026-.2-.055-.4-.08-.606l0,.036c.026-.2.051-.4.08-.606l-.026.084c.077-.182.153-.361.23-.544a.638.638,0,0,1-.066.106l.358-.46a.581.581,0,0,1-.106.106c.153-.12.306-.237.46-.358a.7.7,0,0,1-.142.084l.547-.23a.709.709,0,0,1-.186.051c.2-.026.4-.051.606-.08a.976.976,0,0,1-.179,0c.2.026.4.051.606.08a.591.591,0,0,1-.157-.044l.544.23a.446.446,0,0,1-.106-.062c.153.12.306.237.46.358a.655.655,0,0,1-.073-.069l-.46,3.579,1.168-.828a1.706,1.706,0,0,0,.638-.587,2.035,2.035,0,0,0,.449-1.682,1.66,1.66,0,0,0-.27-.85c-.117-.153-.237-.306-.358-.46a2.28,2.28,0,0,0-1-.587c-.2-.026-.4-.055-.609-.08a2.237,2.237,0,0,0-1.149.31" transform="translate(36.909 69.28)" fill="#b9cbde"/>
      <path id="패스_4764" data-name="패스 4764" d="M47.375,29.987c5.59.4,5.575,7.348,2.609,10.588-3.674,4.013-9.833,4.01-14.736,2.787a26.4,26.4,0,0,1-7.355-3.083A46.622,46.622,0,0,0,21.7,36.642a12.976,12.976,0,0,0-6.98-.733c-1.89.255-5.389,1.226-6.819-.66-1.748-2.31-5.71-.04-3.937,2.3a8.461,8.461,0,0,0,7.472,3.324c1.751-.062,3.462-.558,5.214-.609a9.718,9.718,0,0,1,5.56,1.773c6.181,3.769,12.394,7.082,19.921,6.549,6.283-.441,12.646-3.951,14.255-10.457a10.212,10.212,0,0,0-9.012-12.7c-2.93-.208-2.915,4.353,0,4.561" transform="translate(9.319 67.323)" fill="#b9cbde"/>
      <path id="패스_4765" data-name="패스 4765" d="M3.6,28.91a80.5,80.5,0,0,0,10.187,8.917A2.287,2.287,0,0,0,16.9,37.01a2.345,2.345,0,0,0-.817-3.119c-.215-.161-.431-.317-.642-.478-.117-.091-.234-.179-.354-.27-.2-.153-.106-.073.04.033-.431-.31-.839-.66-1.251-1q-1.248-1.007-2.445-2.065Q9.038,28,6.823,25.685a2.3,2.3,0,0,0-3.225,0,2.326,2.326,0,0,0,0,3.225" transform="translate(7.807 66.284)" fill="#b9cbde"/>
      <path id="패스_4766" data-name="패스 4766" d="M6.623,29.106q6.66,5.626,13.718,10.759a2.29,2.29,0,0,0,3.119-.821,2.343,2.343,0,0,0-.817-3.119c-4.451-3.24-8.534-6.443-12.8-10.044a2.281,2.281,0,0,0-3.225,3.225" transform="translate(15.797 66.824)" fill="#b9cbde"/>
      <path id="패스_4767" data-name="패스 4767" d="M12.194,32.086a73.434,73.434,0,0,0,9.176,5.433,2.282,2.282,0,0,0,2.3-3.94A73.147,73.147,0,0,1,14.5,28.149a2.29,2.29,0,0,0-3.119.817,2.338,2.338,0,0,0,.817,3.119" transform="translate(29.351 73.703)" fill="#b9cbde"/>
      <path id="패스_4768" data-name="패스 4768" d="M7.551,33.862A34.763,34.763,0,0,0,22.47,40.717a2.282,2.282,0,0,0,1.211-4.4,32.639,32.639,0,0,1-3.681-.9q-.9-.285-1.791-.617c-.3-.113-.591-.226-.883-.35.3.128-.361-.157-.434-.19a32.461,32.461,0,0,1-3.258-1.7q-.81-.487-1.6-1.022c-.259-.175-.518-.358-.773-.544-.069-.051-.715-.533-.485-.358a2.344,2.344,0,0,0-3.225,0,2.3,2.3,0,0,0,0,3.225" transform="translate(18.244 79.429)" fill="#b9cbde"/>
      <path id="패스_4769" data-name="패스 4769" d="M8.88,36.967a20.907,20.907,0,0,0,15.057,3.546,2.286,2.286,0,0,0,1.594-2.806,2.356,2.356,0,0,0-2.806-1.594c.471-.062-.4.033-.485.04-.292.022-.584.036-.876.047-.511.015-1.025.007-1.536-.022-.292-.015-.584-.04-.876-.069-.142-.015-.288-.029-.434-.051.244.033.23.029-.047-.011-.54-.1-1.076-.2-1.609-.339s-1.058-.292-1.576-.474c-.277-.1-.551-.2-.821-.31.39.157-.285-.131-.361-.168a18.688,18.688,0,0,1-2.922-1.726,2.287,2.287,0,0,0-3.119.817,2.342,2.342,0,0,0,.817,3.119" transform="translate(20.571 86.619)" fill="#b9cbde"/>
      <path id="패스_4770" data-name="패스 4770" d="M14.481,33.88q-.367,2.113-.73,4.229a1.763,1.763,0,0,0-.04.912,1.73,1.73,0,0,0,.27.846,2.324,2.324,0,0,0,1.365,1.047,2.286,2.286,0,0,0,1.755-.23,2.23,2.23,0,0,0,1.051-1.361q.361-2.118.726-4.232a1.75,1.75,0,0,0,.044-.908,1.686,1.686,0,0,0-.274-.846,2.276,2.276,0,0,0-3.119-.821,2.232,2.232,0,0,0-1.047,1.365" transform="translate(36.204 85.317)" fill="#b9cbde"/>
      <path id="패스_4771" data-name="패스 4771" d="M16.33,34.168a7.75,7.75,0,0,1-.058,1.164c.029-.2.055-.4.08-.606a7.431,7.431,0,0,1-.522,1.912c.077-.182.153-.365.23-.544a7.5,7.5,0,0,1-.434.854,2.367,2.367,0,0,0-.23,1.759A2.282,2.282,0,0,0,18.2,40.3a2.4,2.4,0,0,0,1.365-1.047,9.628,9.628,0,0,0,1.324-5.082,2.375,2.375,0,0,0-.668-1.613,2.28,2.28,0,0,0-3.893,1.613" transform="translate(40.573 84.452)" fill="#b9cbde"/>
      <path id="패스_4772" data-name="패스 4772" d="M17.508,32.375c-.113.566-.226,1.127-.339,1.693a1.75,1.75,0,0,0-.044.908,1.73,1.73,0,0,0,.27.846,1.786,1.786,0,0,0,.591.642,1.683,1.683,0,0,0,.773.4c.2.029.4.055.606.084a2.3,2.3,0,0,0,1.153-.314c.153-.117.306-.237.46-.354a2.307,2.307,0,0,0,.587-1.007c.113-.566.226-1.127.339-1.693a1.749,1.749,0,0,0,.04-.908,1.682,1.682,0,0,0-.27-.846,1.717,1.717,0,0,0-.587-.642,1.737,1.737,0,0,0-.777-.409c-.2-.026-.4-.051-.6-.08a2.323,2.323,0,0,0-1.153.31c-.153.12-.31.241-.463.358a2.3,2.3,0,0,0-.584,1.007" transform="translate(45.25 81.31)" fill="#b9cbde"/>
      <path id="패스_4773" data-name="패스 4773" d="M10.631,38.091A36.906,36.906,0,0,0,13.448,46.1a2.3,2.3,0,0,0,3.123.817,2.34,2.34,0,0,0,.817-3.119c-.263-.54-.511-1.091-.744-1.645l.23.547a34.686,34.686,0,0,1-1.846-5.819,2.3,2.3,0,0,0-2.8-1.594,2.334,2.334,0,0,0-1.594,2.806" transform="translate(27.988 93.216)" fill="#b9cbde"/>
      <path id="패스_4774" data-name="패스 4774" d="M8.013,38.071a30.189,30.189,0,0,0,3.638,7.775,2.28,2.28,0,0,0,3.937-2.3A28.434,28.434,0,0,1,13.15,38.99l.23.544c-.368-.876-.69-1.77-.971-2.674a2.28,2.28,0,1,0-4.4,1.211" transform="translate(20.978 93.148)" fill="#b9cbde"/>
      <path id="패스_4775" data-name="패스 4775" d="M20.5,34.3a19.516,19.516,0,0,0-4.422,9.45,2.438,2.438,0,0,0,.23,1.759,2.287,2.287,0,0,0,1.357,1.047,2.314,2.314,0,0,0,2.809-1.591,16.557,16.557,0,0,1,.5-2.222c.1-.365.226-.726.354-1.08.066-.179.139-.354.2-.533.1-.226.073-.175-.066.153.04-.088.077-.175.117-.263a17.906,17.906,0,0,1,1.076-2c.2-.321.416-.638.635-.945.058-.077.113-.153.175-.23.142-.193.113-.153-.1.124.117-.051.277-.343.365-.441a2.455,2.455,0,0,0,.664-1.613A2.279,2.279,0,0,0,20.5,34.3" transform="translate(42.414 89.095)" fill="#b9cbde"/>
      <path id="패스_4776" data-name="패스 4776" d="M11.71,24.454a4.257,4.257,0,0,0,.664,3.171A4.075,4.075,0,0,0,18.1,28.8a4.259,4.259,0,0,0,1.839-2.587,1.446,1.446,0,0,0-2.787-.77,1.814,1.814,0,0,1-.062.252l-.033.106c-.055.139-.033.091.062-.142-.08.12-.139.263-.215.383-.146.23.215-.241.047-.055-.058.062-.117.128-.179.19s-.128.117-.19.175c-.186.168.288-.193.058-.047-.124.08-.255.15-.383.223-.234.128.354-.128.04-.018-.084.029-.164.055-.248.077s-.146.022-.215.047c.321-.113.266-.029.088-.018-.069,0-.142,0-.215,0s-.39-.04-.1,0,0-.007-.066-.026a.708.708,0,0,1-.248-.08c.069.029.139.058.208.091l-.135-.066c-.066-.036-.131-.073-.2-.113s-.12-.091-.179-.128c.35.2.139.106.033.007a2.2,2.2,0,0,1-.182-.186c-.084-.095-.164-.292.036.055-.077-.131-.164-.248-.234-.383l-.066-.139c.084.223.109.277.073.175-.026-.084-.058-.168-.084-.252s-.029-.146-.051-.219c-.062-.266.018.365.015.088,0-.073-.007-.15-.007-.223,0-.12.058-.482-.018.011a1.6,1.6,0,0,0-.146-1.116,1.492,1.492,0,0,0-.861-.664,1.466,1.466,0,0,0-1.78,1.011" transform="translate(30.85 61.997)" fill="#231815"/>
      <path id="패스_4777" data-name="패스 4777" d="M11.148,24.546a2.3,2.3,0,0,1,.011-.449c-.018.128-.033.255-.051.383a2.684,2.684,0,0,1,.15-.558l-.146.347a2.752,2.752,0,0,1,.325-.558L11.21,24a2.694,2.694,0,0,1,.452-.46c-.1.077-.2.15-.292.226a2.619,2.619,0,0,1,.551-.328c-.117.047-.23.095-.347.146a2.287,2.287,0,0,1,.555-.157c-.128.018-.255.036-.383.051a2.206,2.206,0,0,1,.514,0c-.128-.018-.255-.033-.383-.051a2.467,2.467,0,0,1,.558.146c-.117-.047-.23-.1-.347-.146a2.577,2.577,0,0,1,.558.321c-.1-.077-.2-.15-.3-.226a2.839,2.839,0,0,1,.46.452c-.073-.095-.15-.193-.223-.292a2.645,2.645,0,0,1,.328.555c-.047-.117-.1-.23-.146-.347a2.414,2.414,0,0,1,.168.617c-.015-.128-.033-.255-.051-.383a2.274,2.274,0,0,1,.011.387,1.455,1.455,0,0,0,1.445,1.445,1.478,1.478,0,0,0,1.448-1.445,3.884,3.884,0,0,0-2.415-3.652,3.647,3.647,0,0,0-4.214,1.1,3.8,3.8,0,0,0-.908,2.587,1.562,1.562,0,0,0,.423,1.022,1.447,1.447,0,0,0,2.47-1.022" transform="translate(21.845 54.525)" fill="#231815"/>
      <path id="패스_4778" data-name="패스 4778" d="M17.722,25.141a3.054,3.054,0,0,1,.219-.383c.146-.234-.234.259-.047.058.051-.055.1-.109.15-.161s.109-.1.164-.15c.186-.171-.285.186-.062.044.12-.069.23-.146.354-.208.277-.139-.219.077-.077.026.069-.026.135-.051.2-.073.135-.04.274-.051.4-.095-.387.124-.241.029-.095.022.077-.007.15-.007.223-.007s.142.015.219.015c-.416-.011-.226-.033-.091,0,.073.015.142.036.219.058l.073.026c.142.051.1.033-.135-.062.113.08.252.131.372.2.259.171-.157-.139-.047-.044.047.044.1.084.142.128a1.742,1.742,0,0,1,.164.164l.1.113-.135-.171a1.624,1.624,0,0,1,.252.39c.051.1.117.328-.015-.069.026.073.055.146.077.219s.04.146.062.219c.029.142-.015.321,0-.08-.011.15.015.3.011.46a1.45,1.45,0,0,0,1.445,1.445,1.477,1.477,0,0,0,1.445-1.445,4.268,4.268,0,0,0-8.085-2.1,1.538,1.538,0,0,0-.146,1.113,1.449,1.449,0,0,0,.664.865,1.464,1.464,0,0,0,1.977-.518" transform="translate(39.811 56.506)" fill="#231815"/>
      <path id="패스_4779" data-name="패스 4779" d="M7.525,14.9c4.024-1.171,8.165-1.091,12.317-1.036q5.889.082,11.774.354,12,.564,23.942,1.926c1.846.212,1.832-2.682,0-2.89q-12.407-1.407-24.883-1.97c-7.749-.343-16.375-1.368-23.92.828a1.447,1.447,0,0,0,.77,2.787" transform="translate(15.198 28.456)" fill="#231815"/>
      <path id="패스_4780" data-name="패스 4780" d="M2.148,17.93a5.386,5.386,0,0,0-.642,4.995,5.536,5.536,0,0,0,3.74,3.349,1.445,1.445,0,1,0,.766-2.787c-.146-.036-.288-.084-.434-.135-.186-.062.047,0,.095.044a1.525,1.525,0,0,0-.2-.1,3.4,3.4,0,0,1-.35-.208c-.022-.015-.263-.2-.073-.047s-.029-.026-.066-.058q-.153-.137-.3-.285c-.051-.055-.1-.113-.15-.171-.171-.19.128.19.033.04-.073-.113-.15-.226-.219-.343-.036-.066-.073-.135-.106-.2-.062-.135-.022-.223.018.055a3.379,3.379,0,0,0-.131-.412c-.018-.08-.036-.161-.051-.241-.047-.193.011.022.007.095.011-.153-.029-.328-.029-.485,0-.066,0-.131.007-.2,0-.029.044-.339,0-.1s.007-.047.018-.1c.015-.08.036-.157.055-.237.029-.113.146-.306.135-.42.011.106-.12.259-.011.033.036-.073.073-.146.113-.215a4.361,4.361,0,0,1,.266-.409,1.449,1.449,0,0,0-.518-1.978,1.486,1.486,0,0,0-1.977.518" transform="translate(3.073 45.62)" fill="#231815"/>
      <path id="패스_4781" data-name="패스 4781" d="M15.893,12.626q.263,2.523.522,5.042a5.317,5.317,0,0,1,.026,2.211,3.431,3.431,0,0,1-1.591,1.558,77.338,77.338,0,0,0-7.516,5.155C3.123,30.146.3,35.791,2.66,41.183c.744,1.7,3.236.23,2.5-1.459C2.692,34.1,8.38,29.077,12.514,26.366c2.032-1.335,5.061-2.572,6.334-4.75a6.677,6.677,0,0,0,.434-4.2q-.252-2.4-.5-4.791c-.19-1.832-3.087-1.853-2.893,0" transform="translate(4.772 29.781)" fill="#231815"/>
      <path id="패스_4782" data-name="패스 4782" d="M1.4,21.992c.106,10.851,3.747,20.88,7.618,30.877,3.827,9.884,6.958,20.023,11.839,29.469.854,1.653,3.349.193,2.5-1.459C18.589,71.656,15.543,61.75,11.807,52.1,8.034,42.354,4.4,32.58,4.294,21.992a1.448,1.448,0,0,0-2.893,0" transform="translate(3.711 54.547)" fill="#231815"/>
    </g>
  </g>
</svg>
