<svg id="그룹_1256" data-name="그룹 1256" xmlns="http://www.w3.org/2000/svg" xmlns:xlink="http://www.w3.org/1999/xlink" width="114.958" height="137.036" viewBox="0 0 114.958 137.036">
  <defs>
    <clipPath id="clip-path">
      <rect id="사각형_1988" data-name="사각형 1988" width="114.958" height="137.036" fill="none"/>
    </clipPath>
  </defs>
  <g id="그룹_1255" data-name="그룹 1255" transform="translate(0 0)">
    <g id="그룹_1254" data-name="그룹 1254" transform="translate(0 0)">
      <g id="그룹_1253" data-name="그룹 1253" transform="translate(0 0)">
        <g id="그룹_1252" data-name="그룹 1252" transform="translate(0 0)">
          <g id="그룹_1251" data-name="그룹 1251" clip-path="url(#clip-path)">
            <path id="패스_4219" data-name="패스 4219" d="M75.384,34.169c-.722-.414-1.464-.9-2.3-1.314-.755-.374-1.648-.545-2.483-.916-.782-.348-1.561-.759-2.4-1.1-.8-.324-1.531-.879-2.377-1.19-.812-.3-1.691-.475-2.54-.762-.822-.281-1.6-.755-2.453-1.019-.832-.261-1.778-.177-2.631-.421s-1.735-.311-2.59-.535-1.658-.632-2.52-.832-1.731-.348-2.6-.525-1.768-.154-2.637-.308-1.7-.515-2.574-.645c-.886-.13-1.708-.7-2.577-.8-.892-.1-1.792-.13-2.661-.2-.9-.07-1.795-.137-2.661-.164-.906-.03-1.8.428-2.661.448-.909.023-1.788-.053-2.641.023-.909.087-1.852-.187-2.684-.033a21.51,21.51,0,0,1-2.387,1.461c-.679.358-1.561.648-2.443,1.146-.722.408-1.531.832-2.35,1.327-.735.445-1.434,1.046-2.216,1.558-.735.475-1.237,1.34-1.992,1.865-.729.511-1.828.541-2.554,1.093s-1.243,1.344-1.935,1.925-1.21,1.36-1.865,1.975-1.538,1.033-2.143,1.688c-.622.672-1.34,1.277-1.878,1.979a22.008,22.008,0,0,0-1.123,2.51,16.131,16.131,0,0,0-1.217,2.377,12.171,12.171,0,0,0-.839,2.534,24.953,24.953,0,0,0,2.4,1.143c.762.3,1.561.739,2.473,1.043.8.271,1.7.394,2.6.668.822.251,1.634.668,2.527.919.836.234,1.8.1,2.687.331.846.224,1.6.889,2.483,1.11.852.214,1.735.381,2.617.588.856.2,1.738.344,2.61.541s1.778.191,2.657.378,1.758.3,2.637.481,1.772.277,2.651.445,1.721.552,2.6.709,1.738.515,2.614.665,1.808.11,2.681.247c.9.144,1.788.264,2.664.391.9.13,1.808.144,2.677.257.913.12,1.775.488,2.644.585.919.1,1.852-.184,2.714-.107.929.084,1.825.017,2.671.064.949.057,1.932.535,2.754.541a11.678,11.678,0,0,1,.608-2.564c.257-.705.414-1.561.789-2.393.328-.725.548-1.571.946-2.346.378-.735,1.35-1.17,1.775-1.905s.722-1.528,1.177-2.219c.478-.729.869-1.477,1.36-2.116a17.683,17.683,0,0,1,1.755-1.8,7.045,7.045,0,0,1,1.929-1.474c.033-.017.906-.859,2.106-1.862.655-.541,1.337-1.233,2.072-1.855s1.521-1.2,2.156-1.751A11.7,11.7,0,0,0,75.4,34.246c-.027,0-.02-.077-.02-.077" transform="translate(10.438 54.928)" fill="#f4da82" fill-rule="evenodd"/>
            <path id="패스_4220" data-name="패스 4220" d="M20.812,14.705c-.264.545-.411,1.437-.755,2.52-.237.739-.391,1.608-.655,2.547-.224.792-1.023,1.494-1.26,2.4-.211.812-.117,1.751-.334,2.644-.2.832-.719,1.618-.926,2.5-.2.842.12,1.825-.08,2.7-.191.846-.558,1.665-.749,2.53s-.595,1.675-.779,2.544.174,1.845,0,2.711-1.023,1.611-1.193,2.477c-.17.882-.331,1.762-.488,2.621-.164.889.177,1.852.027,2.7-.157.9-.622,1.721-.759,2.57-.147.916-.4,1.782-.521,2.617-.134.933-.311,1.812-.4,2.621-.117.983.191,1.909.14,2.667a7.776,7.776,0,0,0,.1,2.39c.866.074,1.591.585,2.467.642s1.725.214,2.6.264c.859.047,1.751-.358,2.631-.311.859.05,1.738-.047,2.617.013.856.06,1.695.528,2.574.6.862.077,1.7.384,2.59.491.856.1,1.728.12,2.61.254.852.127,1.812-.284,2.691-.12.846.157,1.655.6,2.53.8.836.187,1.678.428,2.544.658.832.221,1.675.458,2.534.719.822.254,1.725.341,2.574.635.812.281,1.655.565,2.493.889.8.311,1.484.959,2.313,1.31.789.338,1.738.371,2.554.749.779.361,1.514.872,2.316,1.274.772.384,1.344,1.183,2.136,1.6.762.408,1.631.645,2.413,1.09.749.425,1.424,1.006,2.193,1.471.745.445,1.608.719,2.37,1.2.735.465,1.421,1.023,2.173,1.521a2.779,2.779,0,0,0,2.724.057,7.728,7.728,0,0,0,2.042-1.778,17.226,17.226,0,0,0,1.8-2.019c.488-.692.8-1.568,1.29-2.4.441-.745,1.2-1.367,1.634-2.2.408-.779.645-1.681,1.046-2.524.381-.8.8-1.6,1.177-2.45.361-.819.588-1.708.939-2.557.344-.826.528-1.725.862-2.57s.939-1.578,1.257-2.43.411-1.792.715-2.644.565-1.738.856-2.594c.294-.872.966-1.611,1.243-2.463.284-.882.578-1.745.839-2.594.274-.9.662-1.735.906-2.58.264-.913-.14-1.975.087-2.811.251-.933.648-1.765.846-2.577.237-.986.458-1.862.608-2.631a24.245,24.245,0,0,0,.6-2.657,8.848,8.848,0,0,0-.541-2.617,11.091,11.091,0,0,0-1.28-2.326,14.951,14.951,0,0,0-1.638-2.082,21.11,21.11,0,0,0-1.9-1.835c-.658-.538-1.267-1.227-2.019-1.735-.705-.478-1.715-.531-2.5-.983-.745-.428-1.507-.849-2.313-1.25-.772-.384-1.528-.836-2.346-1.2-.792-.348-1.6-.7-2.43-1.023-.809-.318-1.671-.5-2.51-.8-.822-.284-1.558-.866-2.407-1.13-.832-.261-1.758-.247-2.61-.481s-1.671-.565-2.53-.775-1.725-.358-2.587-.541-1.731-.341-2.6-.5-1.691-.615-2.56-.752-1.808.137-2.677.027-1.748-.284-2.621-.368c-.889-.087-1.751-.368-2.624-.424-.892-.057-1.778-.167-2.647-.194-.906-.027-1.8.037-2.671.047-.9.013-1.792.087-2.651.14-.906.05-1.765.341-2.61.438-.913.107-1.8.12-2.634.281a24.379,24.379,0,0,0-2.524.775,18.064,18.064,0,0,0-2.517.755,11.082,11.082,0,0,0-2.336,1.263,6.064,6.064,0,0,0-1.237,2.3l-.257-.117" transform="translate(27.894 20.652)" fill="#e9d07a" fill-rule="evenodd"/>
            <path id="패스_4221" data-name="패스 4221" d="M105.706,15.06c.321.6,1.193,1.237,1.414,2.32a25.524,25.524,0,0,1,.592,2.644c.09.822-.8,1.788-.742,2.741.047.842.14,1.718.16,2.651.02.859.391,1.741.384,2.667-.007.866-.465,1.748-.491,2.664-.027.872.779,1.8.735,2.711-.043.876-.491,1.751-.552,2.661-.057.876.445,1.808.368,2.711-.07.879-.525,1.738-.612,2.637-.087.882-.612,1.725-.715,2.621s-.187,1.768-.3,2.664.027,1.8-.1,2.7-.612,1.715-.755,2.6-.324,1.755-.481,2.641.307,1.882.137,2.761-.608,1.718-.8,2.6-.344,1.775-.545,2.651-.214,1.812-.435,2.681-.662,1.7-.9,2.56c-.244.879-.14,1.852-.4,2.7-.267.872-1.357,1.464-1.641,2.306-.291.862-.184,1.845-.495,2.674-.321.852-.334,1.815-.675,2.627-.354.842-1.136,1.477-1.514,2.27-.394.829-.879,1.578-1.3,2.343-.445.809-.879,1.571-1.35,2.3-.508.775-.685,1.751-1.223,2.423a19.671,19.671,0,0,1-1.912,1.9c-.672.645-1.6.715-2.32,1.183-1.26.551-.959,1.284-2.246,1.768s-1.494-.067-2.778.418-1.029,1.163-2.313,1.648-1.36.3-2.647.785-1.23.635-2.517,1.123-1.514-.12-2.8.368-1.357.291-2.641.775-1.24.618-2.53,1.1-1.17.812-2.463,1.3-1.471.023-2.768.511-1.11.976-2.407,1.467a12.451,12.451,0,0,1-2.427.247,11.671,11.671,0,0,1-2.366.11c-.8-.033-1.668.381-2.457.187-1.263-.247-.939-.067-2.55-.324-.719-.114-1.591-.15-2.554-.308-.779-.13-1.531-.866-2.44-1.019-.8-.14-1.761.361-2.647.2-.816-.144-1.628-.5-2.5-.655-.826-.154-1.581-.806-2.443-.969-.829-.157-1.818.4-2.674.234-.832-.164-1.484-1.273-2.333-1.447s-1.675-.368-2.517-.548-1.751-.067-2.59-.254-1.782.007-2.614-.191c-.849-.2-1.745-.194-2.57-.4-.852-.214-1.471-1.257-2.286-1.477-.856-.231-1.738-.274-2.544-.511-.859-.254-1.9.157-2.687-.1-.862-.287-1.541-1-2.293-1.29-.879-.338-1.828-.381-2.527-.722a10.165,10.165,0,0,1-2.056-1.614A8.6,8.6,0,0,1,7.1,89.16a21.148,21.148,0,0,1-.916-2.584c-.348-.779-.424-1.691-.719-2.594-.267-.822-1.327-1.464-1.544-2.37-.2-.852-.294-1.788-.445-2.7-.144-.876-.214-1.8-.3-2.714-.09-.889-.033-1.818-.064-2.731s-.043-1.818-.017-2.724.033-1.828.124-2.727.328-2.1.488-2.982A21.407,21.407,0,0,0,6.14,66.8c.739.364,1.711.378,2.594.739.785.318,1.39,1.253,2.273,1.571.806.287,1.782.221,2.661.5.826.267,1.541,1,2.42,1.257.836.247,1.9-.2,2.774.04.849.234,1.728.384,2.607.612.856.217,1.772.211,2.647.424.856.207,1.5,1.347,2.373,1.548s1.845-.09,2.721.1,1.655.806,2.53.989,1.835-.023,2.711.15,1.711.622,2.587.785,1.885-.321,2.758-.164c.889.157,1.761.351,2.631.5.9.15,1.778.291,2.644.428.906.14,1.788.264,2.654.391.912.13,1.768.458,2.624.572.926.12,1.795.414,2.641.511.943.107,1.8.491,2.634.565.969.09,1.718-.4,2.51-.361.257-.849.231-1.641.538-2.457.314-.832.892-1.571,1.253-2.363.368-.809.555-1.725.966-2.494s1.213-1.357,1.675-2.1,1.056-1.424,1.558-2.136,1.193-1.3,1.738-1.985.7-1.721,1.28-2.373,1.618-.906,2.226-1.524,1.25-1.23,1.889-1.818c.655-.6,1.056-1.474,1.718-2.032.682-.575,1.668-.745,2.353-1.277.709-.545,1.26-1.267,1.962-1.768.732-.518,1.167-1.454,1.889-1.925.752-.495,1.594-.829,2.326-1.273.779-.471,1.524-.959,2.263-1.374.806-.451,1.671-.722,2.413-1.11.829-.431,1.758-.531,2.487-.882.882-.428,1.494-1.2,2.189-1.507,1.066-.478,1.919-.648,2.423-.876.18-.866.314-1.738.538-2.631.217-.859.916-1.6,1.173-2.483.251-.849.043-1.858.334-2.734.281-.842.692-1.661,1.009-2.524.308-.832.5-1.735.842-2.587.334-.822.762-1.628,1.133-2.47.358-.812,1-1.514,1.39-2.346.378-.8.4-1.8.812-2.617.4-.8,1.387-1.307,1.818-2.119.418-.789.535-1.748.983-2.554.435-.779,1.126-1.427,1.591-2.223.451-.772.17-1.842.652-2.627.047-.174.15.291.15.291" transform="translate(7.2 34.506)" fill="#e6bf61" fill-rule="evenodd"/>
            <path id="패스_4222" data-name="패스 4222" d="M36.681,20.469c-.114.963-.4,1.858-.481,2.734-.084.956-.144,1.868-.211,2.748-.074.946.1,1.875.017,2.764-.087.923-.267,1.818-.408,2.714s-.481,1.748-.712,2.647c-.13.518-.7,1.167-1.862,1.761-.672.344-1.474.765-2.407,1.17-.745.321-1.685.388-2.56.765-.772.328-1.571.725-2.423,1.1-.779.348-1.5.892-2.333,1.29-.782.371-1.561.792-2.37,1.213-.772.4-1.541.836-2.326,1.287-.759.431-1.621.719-2.38,1.2-.742.471-1.394,1.09-2.126,1.611s-1.427,1.036-2.129,1.6-1.5.963-2.169,1.568c-.652.588-1.14,1.364-1.761,2.009s-1.334,1.183-1.909,1.872S5.065,53.977,4.54,54.709a13.7,13.7,0,0,1-.1-2.644,15.922,15.922,0,0,1,.5-2.57,19.674,19.674,0,0,1,1-2.413,24.358,24.358,0,0,1,1.277-2.26c.411-.745.632-1.628,1.123-2.36.475-.712,1.177-1.277,1.715-1.975.525-.679.872-1.517,1.447-2.179s1.357-1.11,1.959-1.741,1.043-1.411,1.671-2.016,1.4-1.056,2.042-1.631,1.347-1.106,2.012-1.661,1.23-1.26,1.905-1.792c.7-.545,1.35-1.13,2.039-1.638.715-.531,1.571-.836,2.266-1.32.739-.515,1.464-.989,2.166-1.451.765-.5,1.471-1.016,2.176-1.447.806-.491,1.441-1.15,2.139-1.538.872-.481,1.778-.648,2.437-.956,1.494-.7,2.33-1.009,2.286-.658.007.04.084.01.084.01" transform="translate(10.327 47.584)" fill="#e6bf61" fill-rule="evenodd"/>
            <path id="패스_4223" data-name="패스 4223" d="M39.613,21.026a20.664,20.664,0,0,0-2.37-.5,19.164,19.164,0,0,0-2.366-.465,8.77,8.77,0,0,0-2.614.495,15.022,15.022,0,0,0-2.517.879,25.582,25.582,0,0,0-2.33,1.324c-.735.448-1.574.806-2.33,1.347-.712.508-1.407,1.076-2.126,1.655-.685.555-1.414,1.086-2.1,1.691-.665.588-1.217,1.317-1.872,1.945s-1.464,1.07-2.1,1.715-1.14,1.4-1.748,2.059-1.2,1.347-1.785,2.022-1.25,1.314-1.812,2.006c-.578.709-1.06,1.477-1.6,2.179-.558.735-1.163,1.407-1.671,2.122-.538.759-.939,1.574-1.407,2.3-.515.8-1.1,1.507-1.521,2.249-.478.852-.849,1.681-1.18,2.427a12.967,12.967,0,0,0-.953,2.517c-.234,1.2-.013,2.2.679,2.557a13.462,13.462,0,0,1,1.765,1.029,3.247,3.247,0,0,0,1.919.755,10.27,10.27,0,0,1,.144-2.614,20.112,20.112,0,0,1,.963-2.4c.311-.749.632-1.554,1.05-2.353.381-.729.765-1.5,1.227-2.263.435-.709.993-1.377,1.487-2.106.475-.692.856-1.484,1.384-2.186.5-.675,1.173-1.253,1.725-1.932.531-.662,1.177-1.24,1.748-1.9s.979-1.427,1.568-2.066,1.3-1.133,1.909-1.751c.575-.582,1.243-1.1,1.892-1.668.625-.548,1.22-1.15,1.892-1.681.655-.521,1.23-1.17,1.915-1.668s1.487-.839,2.183-1.31c.712-.481,1.451-.9,2.153-1.347.735-.468,1.411-.983,2.116-1.4.762-.455,1.474-.913,2.173-1.3.806-.451,1.594-.785,2.276-1.136.9-.465,1.675-.819,2.263-1.076.02-.01-.033-.137-.033-.137" transform="translate(7.332 46.971)" fill="#f7e29b" fill-rule="evenodd"/>
            <path id="패스_4224" data-name="패스 4224" d="M55.2,25.021a15.031,15.031,0,0,1-2.036-.892,6.322,6.322,0,0,0-2.062-.769,8.575,8.575,0,0,0-2.54.525,14.369,14.369,0,0,0-2.427.876,22.837,22.837,0,0,0-2.316,1.17c-.709.435-1.32,1.07-2.046,1.6-.679.495-1.414.953-2.1,1.517-.655.535-1.334,1.073-1.992,1.661-.635.568-1.183,1.247-1.815,1.855s-1.364,1.076-1.972,1.7-1.167,1.277-1.751,1.919-1.073,1.367-1.638,2.022-1.233,1.237-1.775,1.905-.976,1.454-1.5,2.136c-.538.7-1.177,1.307-1.675,2-.518.722-.976,1.464-1.444,2.163-.5.749-1.009,1.454-1.441,2.163-.478.789-.956,1.528-1.34,2.253-.441.832-.906,1.588-1.207,2.313a11.638,11.638,0,0,0-.715,2.507c-.194,1.157.094,1.985.759,2.33a7.049,7.049,0,0,0,2.49.665c.9.08,1.929.1,2.674.1a10.335,10.335,0,0,1,.351-2.784,17.062,17.062,0,0,1,.9-2.594c.364-.785.9-1.538,1.387-2.363.448-.755.949-1.521,1.491-2.306.5-.729,1.063-1.457,1.641-2.209.545-.709.929-1.584,1.534-2.31.578-.689,1.177-1.394,1.8-2.1.6-.675,1.257-1.337,1.9-2.019.625-.662,1.253-1.344,1.912-2.009.612-.622,1.253-1.25,1.909-1.868s1.437-1.066,2.106-1.661,1.287-1.247,1.962-1.818c.7-.582,1.424-1.106,2.109-1.655.719-.572,1.354-1.22,2.046-1.735.745-.562,1.487-1.07,2.183-1.548.8-.552,1.665-.866,2.356-1.29.892-.545,1.538-1.223,2.183-1.5.037-.02.1.053.1.053" transform="translate(45.332 54.71)" fill="#f7e29b" fill-rule="evenodd"/>
            <path id="패스_4225" data-name="패스 4225" d="M44.62,3.589a10.408,10.408,0,0,1,2.49.876,16.93,16.93,0,0,0,2.617,1.227c.852.274,1.751.668,2.691.979.923.308,1.838.558,2.687.923.973.414,2.049.461,2.707.976a3.111,3.111,0,0,1,1.461,2.654c-.6.388-1.795,1.6-1.678,2.129.846.3,1.661.5,2.42.846.819.368,1.273,1.354,1.992,1.768A21.779,21.779,0,0,1,64.2,17.26c.715.531,1.782.615,2.373,1.2.632.622.679,1.715,1.177,2.393a16.3,16.3,0,0,1,1.621,2,16.262,16.262,0,0,1,1.106,2.343,18.094,18.094,0,0,1,.251,2.58c.137.839.782,1.645.812,2.517.03.846-.6,1.7-.668,2.57-.057.846-.15,1.678-.291,2.544-.134.832.174,1.768-.027,2.621-.194.822-.595,1.614-.849,2.45-.244.809-.187,1.748-.481,2.567-.287.8-1.2,1.374-1.531,2.176s-.11,1.825-.471,2.614-.685,1.591-1.07,2.366-1.267,1.287-1.678,2.052-.318,1.8-.749,2.557c-.475.742-1.23,1.314-1.708,2.052s-1.036,1.424-1.511,2.166-.809,1.571-1.28,2.313-.809,1.571-1.273,2.316-.782,1.581-1.243,2.33-1.594,1.09-2.046,1.845-.331,1.848-.772,2.607-1.227,1.324-1.658,2.092-1.153,1.374-1.571,2.149-.562,1.695-.963,2.477-.358,1.785-.739,2.574-1.023,1.457-1.384,2.256-.622,1.641-.963,2.453-1,1.487-1.32,2.31-.037,1.852-.328,2.681-.541,1.655-.8,2.493-.963,1.538-1.193,2.39-.3,1.731-.495,2.587-1.009,1.588-1.177,2.453.177,1.825.047,2.7c-.578.445-1.521.358-2.507.625-.762.2-1.491.976-2.437,1.083-.816.09-1.715-.348-2.634-.328-.839.017-1.7.08-2.6.04-.852-.04-1.7-.191-2.59-.281-.862-.087-1.788.267-2.661.13s-1.738-.284-2.6-.461-1.772-.211-2.614-.431c-.862-.227-1.638-.742-2.457-1.016-.852-.281-1.828-.237-2.617-.568A24.431,24.431,0,0,1,13.4,99.365a16.947,16.947,0,0,1-2.169-1.5A12.4,12.4,0,0,1,9,96.31c-.568-.725-.157-1.882-.358-2.7a4.257,4.257,0,0,1-.03-2.336c.361-.822-.194-1.952.094-2.781s1.367-1.437,1.591-2.286-.334-1.892-.17-2.758.842-1.655.949-2.53.488-1.748.541-2.634-.545-1.795-.538-2.681-.234-1.748-.267-2.637.521-1.792.455-2.677-.435-1.735-.528-2.617-.414-1.725-.528-2.6.2-1.8.07-2.684-.351-1.731-.488-2.607-.495-1.711-.632-2.584.408-1.858.271-2.731-.658-1.688-.789-2.567-.705-1.688-.822-2.567.2-1.812.1-2.691-.618-1.721-.7-2.6.705-1.825.655-2.707-.525-1.741-.538-2.627,0-1.768.023-2.651c.013-.9.458-1.765.481-2.627.027-.9-.849-1.812-.806-2.671.047-.9.13-1.778.2-2.634.07-.9.488-1.741.588-2.59.1-.9.174-1.778.314-2.617.154-.892.515-1.715.719-2.54a25.679,25.679,0,0,1,1.006-2.423,19.608,19.608,0,0,1,1.093-2.326,15.2,15.2,0,0,1,1.177-2.276,12.243,12.243,0,0,1,1.788-1.815A11.965,11.965,0,0,1,15.8,9.753a13.977,13.977,0,0,1,2.236-1.487c.785-.271,1.812.184,2.714.017A21.39,21.39,0,0,1,23.275,7.6c.832-.053,1.721-.5,2.644-.478.839.02,1.758.839,2.674.923.194-.3,0-.578.191-1.063-.414-.759-.087-2.373.124-3.453a6.46,6.46,0,0,1,2.507-.8c.792-.043,1.7.394,2.647.411.856.013,1.751.04,2.647.08s1.822-.435,2.674-.388c.956.053,1.852.117,2.644.15,1.193.05,2.1.682,2.594.6" transform="translate(16.488 6.388)" fill="#9fca9e" fill-rule="evenodd"/>
            <path id="패스_4226" data-name="패스 4226" d="M25.915,91.543c.13-.876.084-1.772.247-2.634s.2-1.768.4-2.624.752-1.634.983-2.48.455-1.7.715-2.54.732-1.608,1.019-2.437.12-1.835.438-2.654,1.26-1.387,1.6-2.2.311-1.778.672-2.58,1.187-1.38,1.571-2.173.114-1.905.515-2.687,1.177-1.37,1.594-2.146.889-1.514,1.32-2.283.558-1.7,1-2.463,1.364-1.233,1.818-1.985.872-1.521,1.33-2.273.578-1.708,1.046-2.45.735-1.614,1.207-2.356,1.013-1.441,1.487-2.183.886-1.524,1.36-2.263.923-1.487,1.4-2.229c.445-.775,1.347-1.284,1.765-2.066s.876-1.564,1.273-2.356.582-1.711.949-2.514c.374-.819.909-1.564,1.243-2.38.341-.836.468-1.748.762-2.58.3-.849.685-1.668.929-2.51.254-.869.541-1.725.729-2.584.194-.882.538-1.748.655-2.617.117-.9.03-1.825.06-2.7a22.139,22.139,0,0,0-.311-2.671,19.735,19.735,0,0,0-.17-2.681,17.839,17.839,0,0,0-.749-2.594,17.61,17.61,0,0,0-1.5-2.246,17.815,17.815,0,0,0-1.661-2.062A19.429,19.429,0,0,0,49.9,7.205a8.04,8.04,0,0,1-.247,2.644,16.757,16.757,0,0,1-.608,2.5c-.251.8.107,1.872-.244,2.711-.331.789-1.407,1.267-1.8,2.066-.388.779-.445,1.738-.879,2.5s-1.18,1.347-1.645,2.069c-.418.652-.592,1.584-1.09,2.42-.418.7-.822,1.481-1.287,2.293-.414.725-1.294,1.24-1.738,2.042-.411.739-.495,1.7-.929,2.493-.4.749-.963,1.447-1.384,2.239-.4.755-.822,1.531-1.237,2.323-.4.762-.414,1.745-.822,2.537-.4.772-1.16,1.367-1.564,2.159-.391.772-.592,1.648-.986,2.433s-.916,1.494-1.307,2.283-.622,1.651-1.009,2.44-1.23,1.36-1.611,2.153-.2,1.865-.578,2.657-.585,1.678-.959,2.47-1.016,1.481-1.384,2.273c-.374.809-.966,1.507-1.324,2.3-.371.812-.846,1.568-1.2,2.356-.364.819-.187,1.858-.531,2.651-.361.829-1.113,1.464-1.447,2.256-.354.836-.785,1.618-1.106,2.407-.344.849-.244,1.838-.545,2.627-.334.862-.809,1.618-1.086,2.393-.318.892-1,1.594-1.237,2.353-.247.806-.074,1.728-.314,2.514-.247.809-.819,1.5-1.06,2.286q-.376,1.218-.732,2.387c-.251.816.013,1.772-.224,2.547-.254.819-.806,1.524-1.043,2.29-.254.829-.358,1.665-.592,2.42-.257.836-.314,1.4-.541,2.139.879.087,1.481.341,2.32.378.892.037,1.751-.241,2.577-.261.906-.023,1.788.308,2.59.214a16.606,16.606,0,0,0,2.52-.558,6.675,6.675,0,0,0,2.3-1.063" transform="translate(31.884 16.878)" fill="#88b988"/>
            <path id="패스_4227" data-name="패스 4227" d="M11.011,13.9c-.568-1.11.117-1.023.511-2.4A11.385,11.385,0,0,1,12.5,9.23a7.659,7.659,0,0,1,1.31-2.122,6.368,6.368,0,0,1,2.112-1.434A20.932,20.932,0,0,1,18.5,5.225c.806-.154,1.671-.328,2.564-.438.856-.107,1.725-.277,2.59-.351.892-.074,1.792.13,2.617.084.956-.05,1.845-.01,2.61-.033,1.554-.05,1.394.274,2.6-.177,1.263-.468.966-.642,2.276-1.461a22.5,22.5,0,0,1,2.35-1.263A13.062,13.062,0,0,1,38.523.375,4.756,4.756,0,0,1,41.187.6,6.2,6.2,0,0,1,43.443,1.97a15.762,15.762,0,0,1,1.628,2.122,22.507,22.507,0,0,1,1.19,2.377c.735,1.34.391,1.35,1.314,2.3s1.046.334,2.44,1.08c.7.371,1.394.979,2.216,1.494.732.458,1.638.752,2.356,1.3a18.784,18.784,0,0,1,2.036,1.785,9.422,9.422,0,0,1,1.38,2.3,4.339,4.339,0,0,1,.628,2.483,26.321,26.321,0,0,1-.3,3.012c-.418,1.922.321,2.009-.973,2.731-1.16.648-.936.157-2.624-.013-.745-.077-1.611-.331-2.624-.451-.8-.094-1.651-.381-2.6-.508-.822-.11-1.718-.1-2.641-.241-.836-.124-1.7-.328-2.61-.478-.842-.137-1.765-.013-2.667-.174-.852-.154-1.738-.264-2.627-.438-.856-.167-1.7-.468-2.58-.655-.856-.18-1.738-.314-2.617-.511-.859-.2-1.745-.318-2.624-.535-.856-.207-1.721-.418-2.59-.645s-1.621-.789-2.48-1.033-1.708-.461-2.567-.722-1.655-.655-2.5-.936-1.828-.18-2.664-.481-1.634-.735-2.47-1.056S14.3,15.2,13.484,14.852s-1.665-.582-2.473-.953" transform="translate(25.285 0.644)" fill="#9fca9e" fill-rule="evenodd"/>
            <path id="패스_4228" data-name="패스 4228" d="M24.333,20.43c-.314,1.32.882.254,2.356.963.712.341,1.568.715,2.437,1.2.755.414,1.411,1.11,2.2,1.618.755.488,1.454,1.066,2.166,1.628a20.868,20.868,0,0,1,2.263,1.554A10.859,10.859,0,0,1,37.2,29.712a5.828,5.828,0,0,1,.745,2.53,4.951,4.951,0,0,1-.267,2.674,25.1,25.1,0,0,1-1.431,2.166,24.98,24.98,0,0,1-1.367,2.186,17.325,17.325,0,0,1-1.838,1.8,17.694,17.694,0,0,1-1.889,1.8c-1.337.9-1.05.889-2.316.839-1.21-.047-1.053-.318-2.35-.5a9.369,9.369,0,0,0-2.437.291c-.913.127-1.6.344-1.885,1.1a1.512,1.512,0,0,0,.451,1.972c.826.645,2.1-.324,2.2.822.137,1.521-1.39,1.227-1.678,2.6a2.4,2.4,0,0,0,1.24,2.631,1.832,1.832,0,0,0,2.557-.381A3.922,3.922,0,0,0,28.5,49.827c.277-1.07-.257,1.016-.284,2.156a4.221,4.221,0,0,0,.384,2.079,1.238,1.238,0,0,0,1.768.608A4.306,4.306,0,0,0,32.589,53.1c.872-1.25-.6-2.049.578-2.768,1.046-.635.852,1.327,2.012,1.7a2.78,2.78,0,0,0,2.34-.562,2.541,2.541,0,0,0,1.023-2.607c-.18-1.434-.859-1.307-.859-2.8,0-1.394.6-.816,1.691-2.109.521-.618,1.217-1.277,1.832-2.1.525-.705.906-1.581,1.427-2.4.495-.769,1.223-1.437,1.661-2.27a23.442,23.442,0,0,0,.839-2.691,15.986,15.986,0,0,0,.762-2.654,10.513,10.513,0,0,0,.314-2.741,7.631,7.631,0,0,0-.729-2.644A7.576,7.576,0,0,0,44,24.117c-.632-.632-1.217-1.277-1.842-1.832-.668-.595-1.434-1.029-2.089-1.541-.709-.555-1.33-1.163-2.005-1.624-.755-.518-1.581-.816-2.276-1.227-.812-.481-1.594-.839-2.3-1.193-.886-.441-1.618-.9-2.29-1.17-1.5-.6-1.3-1.568-2.346-.846-1.013.7-.672,1.026-1.447,1.982a16.621,16.621,0,0,1-1.634,1.862c-.862.869-1.153.7-1.441,1.9" transform="translate(51.515 33.795)" fill="#9fca9e" fill-rule="evenodd"/>
            <path id="패스_4229" data-name="패스 4229" d="M31.566,29.49c-.732-1.143-.856.5-2.387,1.063-.742.277-1.675.408-2.624.7-.826.254-1.678.608-2.587.822-.876.2-1.778.418-2.674.541a18.934,18.934,0,0,1-2.724-.033,11.575,11.575,0,0,1-2.721-.077,5.923,5.923,0,0,1-2.293-1.387,4.954,4.954,0,0,1-1.768-2.039c-.308-.866-.445-1.735-.642-2.517a24.54,24.54,0,0,1-.595-2.52,18.727,18.727,0,0,1-.127-2.58,13.525,13.525,0,0,1,.378-2.577c.287-1.584-.214-1.538.7-2.413.876-.839,1.053-.445,2.082-1.253a9.442,9.442,0,0,0,1.628-1.838,2.277,2.277,0,0,0,.562-2.27,1.723,1.723,0,0,0-1.9-1.076c-1.04.147-1.19,1.815-2.086,1.09-1.19-.956-.057-1.745-.846-2.908a2.356,2.356,0,0,0-2.664-1.14A2.01,2.01,0,0,0,6.708,9.311c.033,1.317-.134,3.807.946,2.808,1.136-1.05-.836-1.648-2.1-2.336a2.509,2.509,0,0,0-2.838.388,1.977,1.977,0,0,0-.846,2.55c.5,1.284,1.558.856,1.645,2.37.07,1.223-1.157-.184-2.226.394A2.626,2.626,0,0,0,.037,17.47,2.424,2.424,0,0,0,1.26,19.9c1.16.866,1.431.424,2.507,1.464,1.006.966.3.963.478,2.644.084.806.05,1.758.221,2.774.144.866.174,1.825.4,2.771.211.889.622,1.751.919,2.647a23.471,23.471,0,0,0,.886,2.664,15.863,15.863,0,0,0,1.594,2.306,10.425,10.425,0,0,0,1.889,2,7.608,7.608,0,0,0,2.316,1.474,7.605,7.605,0,0,0,2.727.348c.892-.013,1.761.084,2.594.02.892-.07,1.748-.2,2.57-.314.892-.124,1.718-.374,2.524-.538.892-.184,1.795-.124,2.574-.338.9-.247,1.7-.615,2.44-.876.936-.331,1.688-.782,2.353-1.08,1.481-.662,2.243.194,2.45-1.063.2-1.213-.378-1.24-.525-2.46a14.545,14.545,0,0,1-.247-2.46c0-1.24.3-1.354-.361-2.393" transform="translate(0 16.379)" fill="#9fca9e" fill-rule="evenodd"/>
            <path id="패스_4230" data-name="패스 4230" d="M16.588,13.73a2.148,2.148,0,1,1-2.146-2.146,2.144,2.144,0,0,1,2.146,2.146" transform="translate(28.796 27.135)" fill="#231815"/>
            <path id="패스_4231" data-name="패스 4231" d="M21.179,15.014a2.146,2.146,0,1,1-2.146-2.146,2.144,2.144,0,0,1,2.146,2.146" transform="translate(39.558 30.143)" fill="#231815"/>
            <path id="패스_4232" data-name="패스 4232" d="M13.367,15.135a3.973,3.973,0,0,0,6.08,4.158,4.091,4.091,0,0,0,1.765-2.46,1.326,1.326,0,0,0-2.557-.705c-.017.084-.037.164-.06.244l-.037.1c-.05.13-.033.09.053-.117a3.351,3.351,0,0,0-.214.371c-.134.207.214-.247.01-.013-.057.064-.114.124-.174.18a1.115,1.115,0,0,0-.16.144c.164-.124.207-.157.124-.1a.827.827,0,0,1-.087.064,4.417,4.417,0,0,1-.408.231c-.094.043-.043.02.15-.064l-.134.05-.207.06a1.47,1.47,0,0,0-.211.043c.234-.03.281-.037.14-.023l-.107.007c-.084,0-.167,0-.251,0-.244,0,.321.067.067.013-.137-.03-.281-.1-.414-.12q.306.135.12.05l-.1-.05c-.074-.04-.144-.08-.214-.127a.827.827,0,0,1-.087-.064c-.084-.06-.04-.027.127.1a1.639,1.639,0,0,0-.16-.144,1.8,1.8,0,0,1-.174-.184c-.2-.234.137.224.007.013-.077-.124-.15-.244-.217-.371-.12-.227.094.277.017.053-.03-.094-.06-.18-.087-.274-.017-.07-.03-.14-.043-.211-.057-.254.01.328.01.067,0-.07,0-.14,0-.214,0-.107.06-.448-.013,0a1.432,1.432,0,0,0-.134-1.023A1.356,1.356,0,0,0,15,14.209a1.342,1.342,0,0,0-1.631.926" transform="translate(31.165 33.208)" fill="#231815"/>
            <path id="패스_4233" data-name="패스 4233" d="M18.27,4.29C11.1,7.325,8.109,15.908,6.929,23.014,5.228,33.256,9.045,41.95,10.856,51.89a90.368,90.368,0,0,1,1.314,21.1A88.891,88.891,0,0,1,11,83.336c-.381,2.209-1.514,4.944-1.173,7.236.578,3.9,6.581,5.823,9.6,7.083a52.371,52.371,0,0,0,17.535,3.877c1.7.09,1.7-2.557,0-2.647a49.265,49.265,0,0,1-16.662-3.74c-3.088-1.3-7.4-2.6-7.654-6.581-.144-2.27,1.06-5.274,1.384-7.564a93.52,93.52,0,0,0-.625-29.812c-1.561-8.57-5.2-16.562-4.208-25.416.789-7.043,3.252-16.168,10.405-19.2,1.564-.662.217-2.945-1.337-2.286" transform="translate(15.232 9.772)" fill="#231815"/>
            <path id="패스_4234" data-name="패스 4234" d="M25.575,19.063c-.548-.558.033-1.317.568-1.6a3.979,3.979,0,0,1,2.57-.1,17.826,17.826,0,0,1,5.017,1.919c2.875,1.581,6.314,3.8,7.527,7.006,2.567,6.772-2.834,13.153-6.976,17.869-1.12,1.277.745,3.162,1.875,1.878,3.082-3.516,6.307-7.213,7.678-11.779,1.263-4.215.792-8.975-2.219-12.33a23.847,23.847,0,0,0-12.427-7.17c-1.985-.371-4.322-.267-5.645,1.474a3.556,3.556,0,0,0,.157,4.706c1.2,1.213,3.072-.655,1.875-1.875" transform="translate(53.247 34.16)" fill="#231815"/>
            <path id="패스_4235" data-name="패스 4235" d="M20.359,5.15a5.914,5.914,0,0,1,.371-.538c-.067.09-.137.177-.207.267a6.209,6.209,0,0,1,1.07-1.066c-.09.067-.18.137-.267.207a6.037,6.037,0,0,1,1.113-.685L20.446,2.192c-.007.06-.01.124-.02.184.017-.117.033-.234.047-.351a2.617,2.617,0,0,1-.174.638c.043-.1.087-.211.13-.318a2.7,2.7,0,0,1-.354.608c.07-.09.14-.18.207-.271a2.734,2.734,0,0,1-.468.475c.09-.07.18-.14.271-.207a2.889,2.889,0,0,1-.572.338c.1-.047.211-.09.314-.134l-.067.027c-.107.043-.211.09-.318.134a1.011,1.011,0,0,0-.371.341,1.332,1.332,0,0,0-.284.8,1.532,1.532,0,0,0,.8,1.357,1.6,1.6,0,0,0,.8.2,1.824,1.824,0,0,0,.4-.064,1.574,1.574,0,0,0,.632-.371,1.334,1.334,0,0,0,.388-.939,1.361,1.361,0,0,0-.388-.936,1.34,1.34,0,0,0-.939-.388c-.117.017-.234.033-.351.047a1.329,1.329,0,0,0-.585.341l-.02.017.267-.207-.023.013c.1-.043.211-.087.318-.134a.143.143,0,0,1-.053.017c.12-.017.237-.03.354-.047a.144.144,0,0,1-.053,0c.117.017.234.033.351.047a.4.4,0,0,1-.08-.02l.318.134L20.874,3.5c.087.07.177.137.267.207a.23.23,0,0,1-.057-.057c.067.09.137.177.207.267a.131.131,0,0,1-.027-.047c.043.107.09.211.134.318l-.007-.027c.017.117.03.234.047.351l0-.053q-.486.642-.973,1.277a3.793,3.793,0,0,0,.959-.5,4.7,4.7,0,0,0,.541-.455,5.143,5.143,0,0,0,.435-.535,3.885,3.885,0,0,0,.7-2.056A1.325,1.325,0,0,0,21.1,1.048a7.261,7.261,0,0,0-3.028,2.764,1.324,1.324,0,0,0,1.494,1.945,1.412,1.412,0,0,0,.792-.608" transform="translate(41.915 2.033)" fill="#231815"/>
            <path id="패스_4236" data-name="패스 4236" d="M22.527,4.651c-.124-.595-.274-1.193-.364-1.795.017.117.03.234.047.351a1.082,1.082,0,0,1-.007-.254c-.017.117-.033.234-.047.351a.6.6,0,0,1,.033-.134c-.043.107-.09.211-.134.318a.379.379,0,0,1,.053-.087c-.07.087-.14.177-.207.267l.047-.05c-.09.07-.181.14-.271.207a.63.63,0,0,1,.08-.047l-.318.134a.513.513,0,0,1,.117-.033c-.117.017-.234.033-.351.047a.5.5,0,0,1,.124.007l-.351-.05a.755.755,0,0,1,.124.037l-.314-.134a.863.863,0,0,1,.14.084c-.09-.07-.18-.137-.267-.207a1.281,1.281,0,0,1,.094.1c-.07-.087-.137-.177-.207-.267a1.016,1.016,0,0,1,.1.174c-.043-.107-.087-.211-.134-.318a3.521,3.521,0,0,1,.18.852c.05.314.107.628.15.943-.017-.117-.033-.234-.047-.351a1.1,1.1,0,0,1,0,.234c.017-.117.033-.234.047-.351a.591.591,0,0,1-.027.11c.043-.107.087-.211.134-.318a.273.273,0,0,1-.04.067l.207-.267-.033.037.267-.207a.293.293,0,0,1-.07.04c.107-.043.211-.087.318-.134a.326.326,0,0,1-.077.02c.117-.017.234-.03.351-.047h-.053c.117.017.234.03.351.047a.277.277,0,0,1-.07-.02c.1.047.211.09.314.134l-.04-.023c.09.067.18.137.271.207L22.634,4.3c.067.09.137.177.207.267l-.027-.04c.047.1.09.211.134.314l-.007-.023a1.374,1.374,0,0,0-.608-.792,1.324,1.324,0,0,0-1.812.475,1.38,1.38,0,0,0-.134,1.023,1.534,1.534,0,0,0,1.855,1.05,1.6,1.6,0,0,0,.739-.418,1.646,1.646,0,0,0,.448-.956,2.6,2.6,0,0,0-.037-.8c-.02-.14-.043-.284-.067-.424-.04-.274-.084-.545-.127-.819a2.569,2.569,0,0,0-.318-.936,1.931,1.931,0,0,0-1.18-.889,1.733,1.733,0,0,0-1.675.461,1.718,1.718,0,0,0-.421.772,1.889,1.889,0,0,0-.047.642c.09.722.267,1.437.414,2.149a1.337,1.337,0,0,0,.608.792,1.374,1.374,0,0,0,1.019.134,1.336,1.336,0,0,0,.792-.612,1.454,1.454,0,0,0,.134-1.019" transform="translate(45.791 3)" fill="#231815"/>
            <path id="패스_4237" data-name="패스 4237" d="M13.193,13.7c-.013-2.788,2.066-4.9,4.573-5.813,2.811-1.026,5.709-.608,8.624-.765a18.447,18.447,0,0,0,7.176-2.143c2.33-1.136,4.643-2.41,7.313-2.32,1.7.057,1.7-2.594,0-2.651-2.992-.1-5.625,1.193-8.239,2.48a21.585,21.585,0,0,1-4.088,1.665,20.975,20.975,0,0,1-5.395.331C17.5,4.461,10.512,6.948,10.542,13.7a1.326,1.326,0,0,0,2.651,0" transform="translate(24.695 0.001)" fill="#231815"/>
            <path id="패스_4238" data-name="패스 4238" d="M17.273,1.477c-1.594-.01-3.286.16-4.332,1.511a2.893,2.893,0,0,0-.023,3.643A7.036,7.036,0,0,0,16.6,8.553q3.164.968,6.384,1.735a110.882,110.882,0,0,0,25.593,2.995,1.324,1.324,0,0,0,0-2.647,107.856,107.856,0,0,1-18.41-1.564q-4.4-.772-8.727-1.9c-1.491-.388-2.978-.806-4.452-1.267a5.8,5.8,0,0,1-1.524-.558c-1.317-1,1.173-1.223,1.808-1.217a1.326,1.326,0,0,0,0-2.651" transform="translate(28.774 3.46)" fill="#231815"/>
            <path id="패스_4239" data-name="패스 4239" d="M11.021,4.451C9.31,7.549,12.5,9.294,14.982,10.13A116.046,116.046,0,0,0,27.56,13.579a122.2,122.2,0,0,0,25.493,2.727,1.324,1.324,0,0,0,0-2.647,118.762,118.762,0,0,1-20.647-1.818q-4.913-.877-9.737-2.166c-1.183-.318-10.094-2.557-9.362-3.887.826-1.494-1.461-2.831-2.286-1.337" transform="translate(24.683 8.896)" fill="#231815"/>
            <path id="패스_4240" data-name="패스 4240" d="M22.376,12.789a6.252,6.252,0,0,1,2.748-1.7,3.856,3.856,0,0,1,2.982.05c.913.6.077,1.294-.5,1.788-.923.8-2.012,1.38-3,2.086-1.845,1.317-3.774,3.286-3.643,5.742.117,2.243,1.972,4.5,4.385,4.115A2.266,2.266,0,0,0,27.1,21.583c-.792-1.521-2.627-1.464-3.83-.525a1.338,1.338,0,0,0,0,1.875,1.36,1.36,0,0,0,1.875,0c-.114.087-.2.064-.314-.03-.277-.247.184-.628.167-.645,0,0-.244.013-.281.007a.931.931,0,0,1-.4-.18,1.9,1.9,0,0,1-.7-1.6c.13-1.808,2.052-3.015,3.409-3.9,1.621-1.063,4.031-2.433,4.168-4.613.154-2.413-2.236-3.75-4.349-3.774A8.848,8.848,0,0,0,20.5,10.914c-1.183,1.227.689,3.105,1.875,1.875" transform="translate(47.138 19.192)" fill="#231815"/>
            <path id="패스_4241" data-name="패스 4241" d="M20.518,9.278c-1.384-1.711-3.175-3.449-5.562-3.215a3.858,3.858,0,0,0-2.667,1.31,4.1,4.1,0,0,0-.642,3.677c.525,2.106,2.3,4.028,2.012,6.311a2.311,2.311,0,0,1-1.477,1.959,4.669,4.669,0,0,1-1.173.234c.087.007.047-.007-.114-.04a.558.558,0,0,1,.351.7c-.06.177-.572.592-.685.191v-.705c-.007.06-.017.12-.023.184.114-.2.227-.391.341-.585l.05-.037.668-.181-.134,0,.668.18-.1-.08a1.331,1.331,0,0,0-1.812.478,1.357,1.357,0,0,0,.475,1.812,1.583,1.583,0,0,0,1.972-.184,1.779,1.779,0,0,0,.221-2.169,2.366,2.366,0,0,0-3.556-.625,2.1,2.1,0,0,0,.281,3.322,3.858,3.858,0,0,0,3.3.053,5.189,5.189,0,0,0,3.373-5.676,12.266,12.266,0,0,0-1.23-3.77c-.4-.846-1.18-2.056-.9-3.035.217-.739,1.183-.8,1.825-.588a6.5,6.5,0,0,1,2.661,2.363,1.338,1.338,0,0,0,1.875,0,1.357,1.357,0,0,0,0-1.875" transform="translate(20.237 14.153)" fill="#231815"/>
            <path id="패스_4242" data-name="패스 4242" d="M4.34,10.469c-.4-.862,1.18-1.106,1.023-.144a1.346,1.346,0,0,0,1.945,1.5c.435-.2,1.972-.976,2.353-.237.354.689-1.043,1.665-1.411,1.979a8.507,8.507,0,0,0-2.674,3.847c-1.046,3.092-.685,6.939.211,10.024A10.8,10.8,0,0,0,11.627,34.7a7.66,7.66,0,0,0,8.289-1.163c1.257-1.157-.622-3.028-1.872-1.872-2.3,2.129-6,.959-7.825-1.213-2.106-2.514-2.651-6.2-2.564-9.382a7.575,7.575,0,0,1,1.35-4.579c1.026-1.273,2.554-1.949,3.119-3.59a3.1,3.1,0,0,0-1.34-3.784c-1.581-.892-3.3-.267-4.813.418q.973.752,1.945,1.5C8.268,8.894,6.58,6.575,4.223,7.056a3.33,3.33,0,0,0-2.169,4.75c.715,1.544,3,.2,2.286-1.337" transform="translate(4.026 16.378)" fill="#231815"/>
          </g>
        </g>
      </g>
    </g>
  </g>
</svg>
