<svg id="그룹_1508" data-name="그룹 1508" xmlns="http://www.w3.org/2000/svg" xmlns:xlink="http://www.w3.org/1999/xlink" width="109.712" height="166.512" viewBox="0 0 109.712 166.512">
  <defs>
    <clipPath id="clip-path">
      <rect id="사각형_2023" data-name="사각형 2023" width="109.71" height="166.512" fill="none"/>
    </clipPath>
  </defs>
  <path id="패스_4900" data-name="패스 4900" d="M50.522,18.746l-4.538.145-4.457.882-4.406,1.082-4.563-.017L28.4,22.887l-4.35.984-4.223,1.41-4.84.055-3.272,3.545-3.626,2.5L3.639,33.16,1.88,37.489,0,41.763l2.143,4.129L4.1,49.9l3.03,3.473,4.005,2.233,3.784,2.65,4.938-.183,3.681,3.26,4.713-.068,4.15,2.28,4.717-.724,4.4,1.133,4.508.277,4.542-.656,4.491.132,4.529.848,4.444-1.3,4.589.81,4.367-1.415L77.617,63l4.333-1.363L86.2,60.128l4.12-1.773,4.252-1.4,4.678-.805,3.294-3.306,3.311-3.047,2.118-3.886,1.738-4.15-1.649-4.171-2.348-3.7-2.987-3.4-4.018-2.1-4.3-1.372-3.9-2.25-3.954-2.484-4.427-1.121-4.759.631-4.342-1.283-4.457-.665-4.41-1.47-4.585.873-4.517-1.078Z" transform="translate(0.002 59.267)" fill="#fff"/>
  <path id="패스_4901" data-name="패스 4901" d="M9.709,29.8l.477,4.453,1.308,4.406.064,4.5.6,4.453.49,4.482-.115,4.521.5,4.474,0,4.5.392,4.491.669,4.474.158,4.529.243,4.811,4.282-.328,3.954-.251,3.963-.077,3.707.077.115-4.086L31.755,75l.618-4.3-.618-4.41,1.393-4.218L32.9,57.68l1.172-4.252.085-4.359L33.941,44.7l1.2-4.257-.179-4.389.251-4.367.516-4.142-4.095-.891-4.3-.524-4.414.656-4.265-1.317-4.414.392-4.3-.528Z" transform="translate(31.661 82.618)" fill="#fff"/>
  <g id="그룹_1507" data-name="그룹 1507" transform="translate(0 0)">
    <g id="그룹_1506" data-name="그룹 1506" clip-path="url(#clip-path)">
      <path id="패스_4902" data-name="패스 4902" d="M.871,29.381c14.2,13.869,38.139,16.635,57.015,15.6,9.966-.545,20.819-1.73,30.236-5.177,7.154-2.62,15.416-6.647,19.8-13.128,1.219-1.8-1.7-3.494-2.919-1.7C100.521,31.6,90.3,35.964,82.839,37.881A128.925,128.925,0,0,1,56.05,41.691c-17.423.695-39.69-1.9-52.789-14.7-1.559-1.517-3.95.869-2.39,2.39" transform="translate(1.187 78.958)" fill="#a4a4a5"/>
      <path id="패스_4903" data-name="패스 4903" d="M.871,27.844c14.2,13.869,38.139,16.635,57.015,15.6,9.966-.545,20.819-1.73,30.236-5.177,7.154-2.62,15.416-6.647,19.8-13.128,1.219-1.8-1.7-3.494-2.919-1.7-4.482,6.626-14.7,10.989-22.165,12.906A128.925,128.925,0,0,1,56.05,40.154c-17.423.695-39.69-1.9-52.789-14.7-1.559-1.517-3.95.869-2.39,2.39" transform="translate(1.187 73.946)" fill="#a4a4a5"/>
      <path id="패스_4904" data-name="패스 4904" d="M74.58,49.876c.848-8.326-8.769-12.054-15.271-14.291-2.211-3.929-5.151-7.78-9.787-9.591C36.547,21.477,41.2,28.785,38.558,11.7c-.021-3.562-2.569-3.4-3.328-6.068a3.508,3.508,0,0,1-1.176-.392c-2.872.136-1.947,3.072-3.916,4.5-.827,4.7-1.692,9.008-2.348,13.9C8.314,24.375,3.4,44.056,5.864,59.472,6.235,65.3,4.756,75.267,9,79.438,21.276,90.973,66.578,90.5,62.053,66.519c5.1-5.424,14.479-7.082,12.527-16.643m-7.048,4.308c-1.18,1.76-3.081,3.886-5.48,4.112-.017-4.785-.409-8.569-.392-13.115,2.859.234,7.235,4.661,5.872,9" transform="translate(17.209 17.098)" fill="#e3e7e1"/>
      <path id="패스_4905" data-name="패스 4905" d="M30.305,51.29c5.1-5.42,14.479-7.077,12.527-16.639C43.68,26.325,34.064,22.6,27.561,20.36c-2.211-3.929-5.151-7.78-9.787-9.591-1.044-.362-1.934-.631-2.761-.856,1.291,2.326,2.625,6.119,3.059,12.233.643,8.973-.5,32.677-1.623,47.577,9.187-2.723,15.71-8.6,13.857-18.433m5.48-12.331c-1.18,1.76-3.081,3.886-5.48,4.112-.017-4.785-.409-8.569-.392-13.119,2.859.239,7.235,4.666,5.872,9.008" transform="translate(48.956 32.323)" fill="#b7c5cb"/>
      <path id="패스_4906" data-name="패스 4906" d="M11.741,8.678a6,6,0,0,0,6.051.4,1.4,1.4,0,0,0,.5-1.9,1.427,1.427,0,0,0-1.9-.5c-.064.03-.132.064-.2.089l.332-.141a4.542,4.542,0,0,1-1.176.32c.124-.017.243-.034.366-.047a5.07,5.07,0,0,1-1.219,0c.124.017.247.03.366.047a4.9,4.9,0,0,1-1.176-.315l.332.141a4.936,4.936,0,0,1-.878-.494,1.388,1.388,0,0,0-1.9.5,1.428,1.428,0,0,0,.5,1.9" transform="translate(36.075 19.867)" fill="#1a1311"/>
      <path id="패스_4907" data-name="패스 4907" d="M10.942,12.231a15.141,15.141,0,0,0,11.458.418,1.426,1.426,0,0,0,.971-1.709,1.4,1.4,0,0,0-1.709-.971,12.334,12.334,0,0,1-9.319-.136,1.433,1.433,0,0,0-1.9.5,1.4,1.4,0,0,0,.5,1.9" transform="translate(33.478 31.538)" fill="#1a1311"/>
      <path id="패스_4908" data-name="패스 4908" d="M17.8,10.1C9.576,12.969,6.376,21.351,5.733,29.408a121.369,121.369,0,0,0,0,15.4c.226,4.764-.03,10.6,1.981,15.045C11.08,67.3,21.191,69.836,28.533,70.517a64.866,64.866,0,0,0,30.44-4.811c1.632-.669.916-3.358-.741-2.676a64.052,64.052,0,0,1-25.161,4.934c-7.3-.089-18.215-1.415-22.4-8.424-2.148-3.6-1.832-8.991-2.067-13.064-.239-4.252-.349-8.522-.273-12.783.141-7.891,1.615-17.913,10.2-20.913,1.679-.588.959-3.272-.737-2.68" transform="translate(17.89 32.666)" fill="#1a1311"/>
      <path id="패스_4909" data-name="패스 4909" d="M13.812,17.027a2.25,2.25,0,1,1-2.68-1.721,2.256,2.256,0,0,1,2.68,1.721" transform="translate(30.531 49.742)" fill="#1a1311"/>
      <path id="패스_4910" data-name="패스 4910" d="M17.73,17.254a2.25,2.25,0,1,1-2.68-1.721,2.256,2.256,0,0,1,2.68,1.721" transform="translate(43.308 50.483)" fill="#1a1311"/>
      <path id="패스_4911" data-name="패스 4911" d="M13.03,18.69c.256-.132-.239.051-.055.03l.038-.013c.149-.03.111-.03-.115,0a1.185,1.185,0,0,0,.345-.009c.072,0,.5.051.243.017s.166.026.234.038a7.972,7.972,0,0,1,1.359.388c-.418-.153-.055-.021.047.03s.2.107.294.166.166.107.247.162c.222.149-.213-.179-.077-.06.051.051.111.1.162.149.081.077.153.158.226.239s.1.183-.081-.107c.026.043.06.081.085.124.055.081.1.17.149.26.085.145-.128-.366-.055-.141l.055.175c.021.077.03.158.051.234-.119-.447-.026-.183-.021-.034,0,.089,0,.183-.009.273-.009.2.017-.183.03-.187-.017,0-.03.153-.034.179-.021.089-.047.175-.077.264-.081.273.162-.328.017-.034-.043.081-.089.153-.132.23-.03.051-.124.166.026-.026.162-.209.021-.034-.021.013-.119.124-.3.187.051-.017-.072.043-.149.089-.213.132-.132.085.328-.111.175-.072-.043.009-.089.03-.132.043a1.112,1.112,0,0,0-.115.026c.332-.107.294-.03.119-.03a.812.812,0,0,0-.145,0c.251-.051.294.06.158.017-.055-.017-.115-.034-.17-.047-.17-.043.324.175.1.043A1.657,1.657,0,0,0,15.54,21c.209.064.217.179.081.06-.047-.043-.089-.085-.132-.132s-.175-.226-.038-.026-.017-.03-.043-.072-.064-.107-.094-.162-.119-.26-.021-.038,0,0-.009-.043c-.026-.081-.038-.166-.064-.251-.03-.115.03-.183.009.094.009-.085-.017-.187-.017-.273a4.193,4.193,0,0,1,.017-.464c.021-.273,0,.094-.013.094l.055-.277a6.779,6.779,0,0,1,.3-.989,1.4,1.4,0,0,0-.971-1.709,1.424,1.424,0,0,0-1.709.971,4.937,4.937,0,0,0,.222,4.6,3.506,3.506,0,0,0,2.007,1.449,2.962,2.962,0,0,0,2.2-.328,3.62,3.62,0,0,0,1.611-3.311,3.69,3.69,0,0,0-.677-1.926,4.894,4.894,0,0,0-1.623-1.432,7.24,7.24,0,0,0-2.058-.733,4.368,4.368,0,0,0-2.944.192,1.4,1.4,0,0,0-.5,1.9,1.423,1.423,0,0,0,1.9.5" transform="translate(35.677 51.974)" fill="#1a1311"/>
      <path id="패스_4912" data-name="패스 4912" d="M28.448,25.432c.222-.009.754.085-.141-.043-1.069-.158.494.124.746.187.827.209,1.64.477,2.442.758.481.17.963.341,1.432.537-.639-.268.579.281.618.3.4.2.788.447,1.18.673.865.494-.158-.3.528.4,0,0,.908.993.447.464.456.52.1,0,.341.69.111.541.141.635.1.277l.026.494c0-.009-.149,1.432-.034.8a7.858,7.858,0,0,1-.4,1.423c.132-.349-.4.771-.494.946a19.62,19.62,0,0,1-3.341,4.269Q30.9,38.645,29.833,39.6q-.53.479-1.087.933c.026-.021-1.018.8-.609.494a34.3,34.3,0,0,1-9.919,5.22,4.477,4.477,0,0,0-3.059,5.394,4.429,4.429,0,0,0,5.39,3.059A43.71,43.71,0,0,0,34.2,47.324c4.086-3.243,8.028-7.427,9.885-12.374a12.1,12.1,0,0,0-5.522-15.02A29.817,29.817,0,0,0,31.682,17.2a11.706,11.706,0,0,0-3.234-.537,4.382,4.382,0,0,0,0,8.765" transform="translate(48.922 54.342)" fill="#e3e7e1"/>
      <path id="패스_4913" data-name="패스 4913" d="M27.03,57.135C18.466,53.376,10.6,46.354,9.488,36.554a18.405,18.405,0,0,1,3.294-13.171c3.1-4.1,7.755-6.766,12.08-9.366,4.828-2.906.426-10.486-4.423-7.567-5.514,3.315-11,6.826-14.892,12.058A26.44,26.44,0,0,0,.723,36.554C1.921,49.4,11.077,59.64,22.607,64.7c2.165.95,4.7.635,6-1.572,1.087-1.858.605-5.041-1.572-6" transform="translate(1.978 18.894)" fill="#e3e7e1"/>
      <path id="패스_4914" data-name="패스 4914" d="M13.374,12.766a6.432,6.432,0,0,1,.043-1.248c-.051.388-.107.775-.158,1.163a6.651,6.651,0,0,1,.392-1.4l-.439,1.044a6.665,6.665,0,0,1,.733-1.261c-.23.3-.46.592-.686.891.132-.166.264-.32.409-.473L6.344,9.545c.03.158.055.315.077.477L6.267,8.855a9.517,9.517,0,0,1-.013,2.412c.051-.388.1-.775.158-1.163a21.88,21.88,0,0,0-.66,3.677,5.484,5.484,0,0,0,4.095,5.241,7.275,7.275,0,0,0,4.406-.447c1.359-.52,2.7-1.091,4.022-1.7a4.335,4.335,0,0,0,2.011-2.62,4.513,4.513,0,0,0-.217-2.851A4.42,4.42,0,0,0,14.9,8.863a17.351,17.351,0,0,0-8.232,4.525,4.446,4.446,0,0,0-1.283,3.1,4.226,4.226,0,0,0,1.283,3.1c2.595,2.032,5.228,4.014,7.925,5.91a4.275,4.275,0,0,0,2.211.6,4.319,4.319,0,0,0,2.655-.942A4.205,4.205,0,0,0,20.805,23.4a4.06,4.06,0,0,0,.222-2.855,7.93,7.93,0,0,0-1.845-2.961,9.888,9.888,0,0,0-2.024-1.457,22.772,22.772,0,0,1-2.876-1.5c.3.23.592.456.886.686a4.065,4.065,0,0,1-.605-.575l.686.886a3.264,3.264,0,0,1-.366-.592c.149.349.294.695.443,1.044l-.055-.132a4.793,4.793,0,0,0-2.015-2.62,4.389,4.389,0,0,0-6,1.572,4.251,4.251,0,0,0-.439,3.379,7.767,7.767,0,0,0,1.828,2.966,9.645,9.645,0,0,0,2.084,1.5,19.6,19.6,0,0,1,2.927,1.551c-.3-.226-.592-.456-.886-.682a4.067,4.067,0,0,1,.588.592c-.23-.294-.46-.588-.686-.886a3.924,3.924,0,0,1,.285.486l-.443-1.048.055.132q3.221-2.473,6.438-4.947-3.055-2.154-6.021-4.431l.886.686c-.337-.264-.677-.528-1.014-.793v6.2a14.4,14.4,0,0,1,1.155-1.01c-.294.226-.588.456-.886.686A13.746,13.746,0,0,1,15.974,17.6c-.349.149-.7.3-1.048.443a14,14,0,0,1,2.3-.724q-1.687-4.007-3.375-8.011c-.469.217-.942.426-1.419.631.349-.149.7-.294,1.048-.443a14,14,0,0,1-3.034,1.082c.388-.055.78-.107,1.167-.158a3.027,3.027,0,0,1-.52.009c.388.051.775.1,1.163.158a1.319,1.319,0,0,1-.315-.081c.345.149.695.294,1.044.443a1.087,1.087,0,0,1-.277-.166l.886.686c-.038-.038-.077-.081-.119-.119.23.294.46.592.686.886a1.076,1.076,0,0,1-.179-.311l.443,1.044c-.017-.055-.034-.115-.047-.17.051.388.1.775.158,1.163a2.409,2.409,0,0,1-.009-.554l-.153,1.163c.064-.4.192-.788.294-1.189a15.637,15.637,0,0,0,.379-2.352,13.346,13.346,0,0,0-.256-3.814,4.312,4.312,0,0,0-3.059-3.059A4.383,4.383,0,0,0,7.469,5.28,10.221,10.221,0,0,0,4.61,12.766a4.636,4.636,0,0,0,1.283,3.1,4.437,4.437,0,0,0,3.1,1.283c2.25-.1,4.534-1.93,4.38-4.38" transform="translate(14.978 13.047)" fill="#e3e7e1"/>
      <path id="패스_4915" data-name="패스 4915" d="M26.49,27.233a10.146,10.146,0,0,0-5.3-4.048c-2.561-.848-6.161-.545-7.619,2.037a4.974,4.974,0,0,0,.392,5.56,8.063,8.063,0,0,0,2.8,2.165l2.331,1.24,1.167.618c.17.089.345.179.516.273,1.031.55-.226.128-.724-.882l-.6-2.211.017.213c.055-.388.107-.775.158-1.167.332-.652.413-.831.234-.537-.072.115-.149.23-.226.341-.132.209-.273.413-.409.618-.3.452-.6.9-.895,1.359-1.193,1.794-.533,5.1,1.568,6a10.355,10.355,0,0,0,1.474.575,5.367,5.367,0,0,0,2.548,0,5.4,5.4,0,0,0,2.1-.878,8.742,8.742,0,0,0,2.241-2.322c.128-.175.256-.349.371-.533.187-.273.089-.149-.3.366q.8-.805-1.248.716H24.764c-1.551-.345-2.672-2.437-1.828-1.193.136.2.277.392.422.584a19.019,19.019,0,0,0,1.47,1.785,16.358,16.358,0,0,0,2.727,2.207,8.626,8.626,0,0,0,4.333,1.645A5.084,5.084,0,0,0,37,36.726a10.741,10.741,0,0,0-8.509-10.465,4.729,4.729,0,0,0-3.379.439,4.478,4.478,0,0,0-2.011,2.62c-.486,2.126.643,4.972,3.059,5.39a6.252,6.252,0,0,1,.835.2c.179.055.81.307.077,0-.686-.281-.192-.068-.038.013.192.107.98.669.362.183s.213.217.362.371c.034.038.247.328.285.324-.064,0-.626-.895-.294-.375.153.243.294.49.439.741.294.52-.2-.375-.179-.46a2.6,2.6,0,0,0,.166.507,6.415,6.415,0,0,1,.192.946c-.051-.392-.1-.78-.153-1.167a3.912,3.912,0,0,1,.009.835c.051-.388.1-.775.158-1.163.277-.486.558-.967.835-1.453q.965-.562,1.934-1.129l-.209.072L32.11,33c-.072,0-.149,0-.222,0,.388.051.776.1,1.163.158-.435-.119-.307-.051.388.2-.145-.064-.285-.132-.43-.209q-.32-.16-.626-.345c-.2-.124-.4-.264-.6-.388-.371-.264-.264-.179.307.256-.124-.1-.247-.2-.366-.3A12,12,0,0,1,30.7,31.366c-.107-.119-.209-.243-.311-.366.439.575.52.682.251.315-.128-.2-.26-.4-.392-.6A5.413,5.413,0,0,0,27.189,28.3a5.055,5.055,0,0,0-4.73,1.236,9.755,9.755,0,0,0-1.6,2.011c-.477.733.69-.66.043-.081.6-.418.7-.511.315-.277.7-.256.827-.341.388-.26l1.163-.153-.222-.009c.388.055.775.107,1.163.158.209.1.418.2.626.311l1.572,6a19.7,19.7,0,0,0,1.9-3.14,5.094,5.094,0,0,0-2.344-6.447c-.929-.533-1.9-1.006-2.851-1.508l-1.551-.827c-.26-.136-.511-.3-.78-.409-.06-.038-.124-.077-.183-.111a2.968,2.968,0,0,1,1.385,1.819l.153,1.167.013-.175-.6,2.211c-.69.533-1.381,1.069-2.071,1.6-.388.051-.775.107-1.163.158a5.077,5.077,0,0,1,1.321.009c-.392-.051-.78-.107-1.167-.158.307.051.588.136.886.213.43.153.29.094-.409-.187.136.068.268.141.4.217s.26.162.383.251c-.579-.464-.7-.545-.362-.251.771.865-.383-.635.047-.013a4.693,4.693,0,0,0,2.62,2.015,4.466,4.466,0,0,0,3.375-.443c1.875-1.21,2.961-3.975,1.572-6" transform="translate(42.089 74.225)" fill="#e3e7e1"/>
      <path id="패스_4916" data-name="패스 4916" d="M35.949,21.226c2.19.2,5.948.558,6.472,3.306.435,2.339-2.821,4.687-4.3,6.076a70.142,70.142,0,0,1-12.915,9.583c.635.166,1.27.332,1.9.5-1.645-2.97-6.1-4.58-9.353-4.636A4.871,4.871,0,0,0,13.106,42.9a6.4,6.4,0,0,0,1.47,2.143c.579.567,1.513.873,2.037,1.427.473.5-.047,1.278-.064,2a4.894,4.894,0,0,0,.537,2.309c1.892,3.784,6.4,3.745,9.9,2.557,1.683-.571.959-3.255-.741-2.676-2.058.7-6.4,1.483-6.894-1.743-.158-1.044.652-1.913.375-3s-1.231-1.559-2.113-2.071a3.644,3.644,0,0,1-2.139-3.034c.043-1.449,1.167-2.049,2.527-1.977,2.207.115,5.6,1.253,6.707,3.251a1.409,1.409,0,0,0,1.9.5A65.679,65.679,0,0,0,43.18,29.462c1.875-2.156,2.842-4.926,1.082-7.486-1.9-2.748-5.224-3.238-8.313-3.528-1.781-.166-1.773,2.612,0,2.778" transform="translate(41.429 60.133)" fill="#1a1311"/>
      <path id="패스_4917" data-name="패스 4917" d="M17.191,16.726a10.064,10.064,0,0,1-1.653-14.18l-2.182-.281C15.772,6.006,18,10.9,15.738,15.247l2.182-.281a9.326,9.326,0,0,1-3.251-9.894q-1.157.307-2.322.609c2.305,2.1,1.96,5.663,1.7,8.475h2.778l-.013-7.188-2.731.371a73.325,73.325,0,0,0,2.463,8.138,1.422,1.422,0,0,0,1.709.967,1.4,1.4,0,0,0,.971-1.709A73.256,73.256,0,0,1,16.761,6.6a1.394,1.394,0,0,0-2.727.366l.013,7.188c0,1.819,2.616,1.755,2.778,0,.332-3.6.383-7.8-2.514-10.439a1.406,1.406,0,0,0-2.322.614,12.026,12.026,0,0,0,3.967,12.6,1.412,1.412,0,0,0,2.182-.281c2.753-5.3.631-11.125-2.382-15.787A1.4,1.4,0,0,0,13.574.581a12.954,12.954,0,0,0-2.936,9.834,13.007,13.007,0,0,0,5.151,8.709,1.4,1.4,0,0,0,1.9-.5,1.422,1.422,0,0,0-.5-1.9" transform="translate(34.366 0.553)" fill="#ba4211"/>
      <path id="패스_4918" data-name="패스 4918" d="M14.52.4a12.32,12.32,0,0,0-4.376,11.679A12.354,12.354,0,0,0,18.159,21.3c1.687.605,2.412-2.075.737-2.68a9.553,9.553,0,0,1-6.072-7.286,9.639,9.639,0,0,1,3.66-8.978,1.4,1.4,0,0,0,0-1.964A1.419,1.419,0,0,0,14.52.4" transform="translate(32.486 0.001)" fill="#1a1311"/>
      <path id="패스_4919" data-name="패스 4919" d="M14.864,9.75c-.158-.247-.29-.511-.426-.771-.149-.285.043.141-.06-.132-.06-.158-.115-.315-.166-.477-.072-.243-.136-.486-.187-.733-.009-.06-.081-.575-.047-.256-.013-.128-.026-.251-.034-.379a7.485,7.485,0,0,1-.009-.818c0-.149.017-.294.03-.439.038-.409-.055.264.021-.132a7.431,7.431,0,0,1,.2-.861c.034-.119.072-.239.119-.358.026-.081.055-.158.089-.239-.06.141-.055.136.009-.009h-2.4c.081.158.162.324.234.494-.1-.226.064.17.064.175.115.3.217.605.307.912s.166.618.23.933q.051.236.089.473l.034.209c-.021-.149-.017-.136,0,.034a12.528,12.528,0,0,1,.068,1.917c-.013.32-.038.639-.081.959.034-.247-.021.119-.034.175-.03.179-.064.358-.107.537a1.39,1.39,0,1,0,2.68.737,13.732,13.732,0,0,0-1.087-8.961,1.4,1.4,0,0,0-2.4,0,8.89,8.89,0,0,0,.456,8.411,1.389,1.389,0,1,0,2.4-1.4" transform="translate(36.416 6.715)" fill="#f79a00"/>
      <path id="패스_4920" data-name="패스 4920" d="M24.048,4.13c-3.174-.273-5.143,2.241-6.136,4.968-.912,2.5-1.645,4.384-3.856,6.029a37.848,37.848,0,0,0-4.244,3.49A32.262,32.262,0,0,0,.549,38.451c-1.41,15.186,9.472,29.226,24.1,32.724,1.738.418,2.48-2.263.741-2.68C12.258,65.355,2.381,53.066,3.255,39.389a29.406,29.406,0,0,1,7.861-18.134c2.113-2.233,5.007-3.66,6.988-5.974,1.926-2.25,2.254-8.688,5.944-8.373,1.781.153,1.773-2.625,0-2.778" transform="translate(1.39 13.401)" fill="#1a1311"/>
      <path id="패스_4921" data-name="패스 4921" d="M11.952,9.789A5.293,5.293,0,0,0,9,12.78a3.105,3.105,0,0,0,1.329,3.494,12.519,12.519,0,0,0,4.257,1.381,27.766,27.766,0,0,0,5.032.545,25.03,25.03,0,0,0,9.344-1.581c2.216-.869,5.94-2.757,5.471-5.629-.285-1.76-2.966-1.014-2.68.737.043-.337-.017-.345-.187-.026-.158.179-.32.345-.49.507a6.728,6.728,0,0,1-1.112.848,11.8,11.8,0,0,1-2.582,1.185A23.065,23.065,0,0,1,21.044,15.4a23.926,23.926,0,0,1-6.515-.6c-.643-.153-2.335-.328-2.761-.9-.541-.729,1.112-1.461,1.585-1.713,1.581-.839.179-3.238-1.4-2.4" transform="translate(28.945 31.351)" fill="#1a1311"/>
      <path id="패스_4922" data-name="패스 4922" d="M8.823,18.106l-.447,3.451A3.068,3.068,0,0,0,8.418,23.1a1.917,1.917,0,0,0,1.014.971c1.04.49,2.122.9,3.179,1.351.494.209,1.069.4,1.5-.055a1.994,1.994,0,0,0,.358-1.329q.128-2.032.256-4.073c.047-.716-1.065-.712-1.112,0q-.115,1.866-.23,3.728a4.093,4.093,0,0,0-.06.818.205.205,0,0,1-.03.1c-.026.051,0,.03.1-.068a4.31,4.31,0,0,0-.409-.162c-.575-.243-1.15-.49-1.726-.733A13.713,13.713,0,0,1,9.76,23c-.477-.281-.358-.758-.3-1.236l.473-3.656a.559.559,0,0,0-.558-.554.567.567,0,0,0-.554.554" transform="translate(27.054 57.237)" fill="#275727"/>
      <path id="패스_4923" data-name="패스 4923" d="M8.636,19.243l3.741,1.9a.557.557,0,0,0,.558-.963q-1.866-.952-3.737-1.9a.569.569,0,0,0-.763.2.56.56,0,0,0,.2.758" transform="translate(27.275 59.398)" fill="#275727"/>
      <path id="패스_4924" data-name="패스 4924" d="M8.336,20.166C11.11,21.308,13.91,22.4,16.773,23.3c.686.217.976-.856.3-1.069-2.868-.9-5.663-2-8.441-3.14a.557.557,0,0,0-.294,1.074" transform="translate(25.845 62.164)" fill="#275727"/>
      <path id="패스_4925" data-name="패스 4925" d="M8.914,20.088V22.2a.556.556,0,1,0,1.112,0V20.088a.556.556,0,0,0-1.112,0" transform="translate(29.068 63.699)" fill="#275727"/>
      <path id="패스_4926" data-name="패스 4926" d="M8.552,21.028l2.067.464a16.82,16.82,0,0,1,1.79.426,4.19,4.19,0,0,1,.6.26,3.047,3.047,0,0,1,.324.187c.043.03-.009-.013.051.038l.06.06c-.038-.043.017.077,0,0a1.108,1.108,0,0,1,.043.17c-.009-.072,0,.047,0,.068a.978.978,0,0,1-.009.158.831.831,0,0,1-.141.349.556.556,0,0,0,.788.784,1.892,1.892,0,0,0,.422-1.713,1.864,1.864,0,0,0-1.236-1.189,10.142,10.142,0,0,0-2-.584c-.822-.183-1.64-.366-2.463-.554-.695-.153-.993.916-.294,1.074" transform="translate(26.588 65.022)" fill="#275727"/>
      <path id="패스_4927" data-name="패스 4927" d="M8.489,21.492c1.819.413,3.566,1.091,5.386,1.5.695.162.993-.912.294-1.069-1.819-.418-3.566-1.091-5.386-1.508-.695-.158-.993.916-.294,1.074" transform="translate(26.382 66.531)" fill="#275727"/>
      <path id="패스_4928" data-name="패스 4928" d="M8.649,20.554a1.427,1.427,0,0,0-.588,1.632,2.5,2.5,0,0,0,1.291,1.427,6.993,6.993,0,0,0,2.084.618c.754.17,1.5.375,2.267.494a.573.573,0,0,0,.682-.388A.558.558,0,0,0,14,23.656c-.626-.1-1.24-.256-1.858-.4-.3-.072-.6-.141-.9-.2a6.581,6.581,0,0,1-.861-.183,3.045,3.045,0,0,1-.673-.345,2.353,2.353,0,0,1-.447-.383.721.721,0,0,1-.145-.426.314.314,0,0,1,.03-.141c-.017.047.06-.064,0-.009.072-.068-.034.009.068-.055.609-.371.051-1.334-.562-.959" transform="translate(26.091 66.749)" fill="#275727"/>
      <path id="패스_4929" data-name="패스 4929" d="M10.859,19.6q2.358.908,4.713,1.819a.555.555,0,0,0,.682-.388.562.562,0,0,0-.388-.682q-2.352-.914-4.713-1.824a.559.559,0,0,0-.682.392.567.567,0,0,0,.388.682" transform="translate(34.081 60.317)" fill="#275727"/>
      <path id="패스_4930" data-name="패스 4930" d="M14.355,19.359a6.724,6.724,0,0,1-4.073,5.825.556.556,0,0,0-.2.758.567.567,0,0,0,.758.2,7.8,7.8,0,0,0,4.623-6.783c.026-.716-1.087-.716-1.112,0" transform="translate(32.652 61.378)" fill="#275727"/>
      <path id="패스_4931" data-name="패스 4931" d="M11.073,19.578a12.351,12.351,0,0,0,0,2.51,14,14,0,0,0,.562,2.352c.447,1.389,1.1,3.136,2.454,3.886.631.345,1.189-.614.562-.959a3.271,3.271,0,0,1-1.193-1.393,11.057,11.057,0,0,1-.818-2.037,12.769,12.769,0,0,1-.486-2.067,11.773,11.773,0,0,1,.034-2.292c.043-.716-1.069-.712-1.112,0" transform="translate(35.883 62.097)" fill="#275727"/>
      <path id="패스_4932" data-name="패스 4932" d="M10.693,21.147v3.285a.556.556,0,0,0,1.112,0V21.147a.556.556,0,0,0-1.112,0" transform="translate(34.869 67.152)" fill="#275727"/>
      <path id="패스_4933" data-name="패스 4933" d="M10.089,22.37c2.71.618,5.39,1.351,8.1,1.973.695.158.993-.916.294-1.074-2.71-.618-5.39-1.351-8.1-1.973-.695-.158-.993.916-.294,1.074" transform="translate(31.6 69.394)" fill="#275727"/>
      <path id="패스_4934" data-name="패스 4934" d="M15.446,19.481a16.181,16.181,0,0,1-3.507,4.755c-.524.49.264,1.274.784.788A17.058,17.058,0,0,0,16.4,20.043a.577.577,0,0,0-.2-.763.56.56,0,0,0-.758.2" transform="translate(38.37 62.641)" fill="#275727"/>
      <path id="패스_4935" data-name="패스 4935" d="M12.365,20.875q1.342,1.6,2.689,3.191a.553.553,0,0,0,.784,0,.569.569,0,0,0,0-.784q-1.342-1.6-2.689-3.191a.553.553,0,0,0-.784,0,.569.569,0,0,0,0,.784" transform="translate(39.81 64.984)" fill="#275727"/>
      <path id="패스_4936" data-name="패스 4936" d="M13.589,19.855q-.045,3.637-.094,7.273a.556.556,0,0,0,1.112,0q.045-3.637.094-7.273a.556.556,0,0,0-1.112,0" transform="translate(44.006 62.995)" fill="#275727"/>
      <path id="패스_4937" data-name="패스 4937" d="M13.149,24.556c.047-.5.1-.993.136-1.491.021-.23.03-.46.064-.69l.038-.153c-.03-.017-.089.038-.06.064a1.2,1.2,0,0,0,.26.055c.111.03.213.06.324.085.239.064.473.128.712.187.452.124.908.243,1.368.362s.9.239,1.359.362c.277.072.639.119.793.383.268.452-.03,1.2-.23,1.649a.567.567,0,0,0,.2.758.56.56,0,0,0,.763-.2,4.061,4.061,0,0,0,.452-2.054,1.822,1.822,0,0,0-1.479-1.56c-.925-.251-1.849-.486-2.77-.729-.443-.119-.886-.251-1.342-.354a1.161,1.161,0,0,0-1.223.307,2.424,2.424,0,0,0-.324,1.355l-.149,1.662a.556.556,0,0,0,.554.554.57.57,0,0,0,.554-.554" transform="translate(39.26 69.079)" fill="#275727"/>
      <path id="패스_4938" data-name="패스 4938" d="M12.461,22.919q2.806.524,5.612,1.044a.557.557,0,0,0,.294-1.074q-2.806-.518-5.612-1.044a.575.575,0,0,0-.682.392.556.556,0,0,0,.388.682" transform="translate(39.309 71.202)" fill="#275727"/>
    </g>
  </g>
</svg>
