<svg xmlns="http://www.w3.org/2000/svg" xmlns:xlink="http://www.w3.org/1999/xlink" width="133.222" height="151.09" viewBox="0 0 133.222 151.09">
  <defs>
    <clipPath id="clip-path">
      <rect id="사각형_1994" data-name="사각형 1994" width="133.222" height="151.09" fill="#fff"/>
    </clipPath>
    <clipPath id="clip-path-2">
      <rect id="사각형_1993" data-name="사각형 1993" width="101.503" height="154.056" fill="none"/>
    </clipPath>
  </defs>
  <g id="마스크_그룹_30" data-name="마스크 그룹 30" clip-path="url(#clip-path)">
    <g id="그룹_1295" data-name="그룹 1295" transform="translate(21.026 23.15)">
      <path id="패스_4319" data-name="패스 4319" d="M46.743,18.7l-4.2.134-4.124.816-4.076,1-4.222-.016-3.844,1.9-4.025.911-3.907,1.3-4.478.051-3.028,3.28-3.355,2.31-4.12,1.648L1.739,36.045,0,40l1.983,3.82,1.809,3.71,2.8,3.213L10.3,52.807l3.5,2.452,4.569-.17L21.777,58.1l4.36-.063,3.84,2.109,4.364-.67,4.068,1.049,4.171.256,4.2-.607,4.155.122,4.191.784,4.112-1.206,4.246.749,4.041-1.309,4.285.331,4.009-1.262,3.93-1.4,3.812-1.64L87.5,54.056l4.329-.745,3.047-3.059,3.063-2.819,1.959-3.6L101.5,40l-1.526-3.859-2.172-3.422-2.763-3.146-3.717-1.944-3.978-1.269-3.611-2.081-3.658-2.3-4.1-1.037-4.4.583-4.017-1.187-4.124-.615-4.08-1.36-4.242.808-4.179-1Z" transform="translate(0.001 53.474)" fill="#fff"/>
      <path id="패스_4320" data-name="패스 4320" d="M9.709,29.463l.442,4.12,1.21,4.076.059,4.163.552,4.12.453,4.147-.106,4.183.465,4.139,0,4.167.363,4.155.619,4.139.146,4.191.225,4.451,3.962-.3,3.658-.233,3.666-.071,3.43.071.106-3.781,1.151-3.911.572-3.982-.572-4.08,1.289-3.9-.229-4.06,1.084-3.934.079-4.033-.2-4.041,1.108-3.938-.166-4.06.233-4.041.477-3.832-3.788-.824-3.978-.485-4.084.607-3.946-1.218-4.084.363-3.974-.489Z" transform="translate(28.566 74.542)" fill="#fff"/>
      <g id="그룹_1294" data-name="그룹 1294" transform="translate(0 0)">
        <g id="그룹_1293" data-name="그룹 1293" clip-path="url(#clip-path-2)">
          <path id="패스_4321" data-name="패스 4321" d="M.833,28.994C13.969,41.826,36.12,44.384,53.584,43.43c9.221-.5,19.262-1.6,27.974-4.79,6.619-2.424,14.263-6.15,18.319-12.146,1.127-1.668-1.577-3.233-2.7-1.577-4.147,6.13-13.6,10.167-20.507,11.941a119.28,119.28,0,0,1-24.785,3.524c-16.12.643-36.721-1.762-48.84-13.6-1.443-1.4-3.654.8-2.212,2.212" transform="translate(1.071 71.24)" fill="#a4a4a5"/>
          <path id="패스_4322" data-name="패스 4322" d="M.833,27.457c13.135,12.832,35.286,15.39,52.75,14.436,9.221-.5,19.262-1.6,27.974-4.79,6.619-2.424,14.263-6.15,18.319-12.146,1.127-1.668-1.577-3.233-2.7-1.577-4.147,6.13-13.6,10.167-20.507,11.941a119.281,119.281,0,0,1-24.785,3.524c-16.12.643-36.721-1.762-48.84-13.6-1.443-1.4-3.654.8-2.212,2.212" transform="translate(1.071 66.718)" fill="#a4a4a5"/>
          <path id="패스_4323" data-name="패스 4323" d="M69.4,46.537c.784-7.7-8.113-11.152-14.129-13.222-2.046-3.635-4.766-7.2-9.055-8.874-12-4.179-7.7,2.582-10.143-13.222-.02-3.3-2.377-3.146-3.079-5.614A3.245,3.245,0,0,1,31.9,5.243c-2.657.126-1.8,2.842-3.623,4.163-.765,4.352-1.565,8.334-2.172,12.863C8.087,22.943,3.542,41.152,5.82,55.415c.343,5.393-1.025,14.614,2.9,18.473C20.079,84.56,61.992,84.122,57.806,61.935c4.715-5.018,13.4-6.552,11.59-15.4m-6.52,3.986c-1.092,1.628-2.85,3.6-5.07,3.8-.016-4.427-.378-7.928-.363-12.134,2.645.217,6.694,4.313,5.432,8.33" transform="translate(15.527 15.427)" fill="#e3e7e1"/>
          <path id="패스_4324" data-name="패스 4324" d="M29.161,48.195c4.715-5.014,13.4-6.548,11.59-15.394.784-7.7-8.113-11.152-14.129-13.222-2.046-3.635-4.766-7.2-9.055-8.874-.966-.335-1.79-.583-2.555-.792,1.194,2.152,2.428,5.661,2.83,11.318.6,8.3-.465,30.233-1.5,44.018,8.5-2.519,14.535-7.955,12.82-17.054m5.07-11.409c-1.092,1.628-2.85,3.6-5.07,3.8-.016-4.427-.378-7.928-.363-12.138,2.645.221,6.694,4.317,5.432,8.334" transform="translate(44.171 29.164)" fill="#b7c5cb"/>
          <path id="패스_4325" data-name="패스 4325" d="M11.69,8.484a5.553,5.553,0,0,0,5.6.375A1.292,1.292,0,0,0,17.749,7.1a1.32,1.32,0,0,0-1.758-.461c-.059.028-.122.059-.181.083l.307-.13a4.2,4.2,0,0,1-1.088.3c.114-.016.225-.032.339-.043a4.69,4.69,0,0,1-1.127,0c.114.016.229.028.339.043a4.531,4.531,0,0,1-1.088-.292l.307.13a4.567,4.567,0,0,1-.812-.457,1.284,1.284,0,0,0-1.758.461,1.322,1.322,0,0,0,.461,1.758" transform="translate(32.549 17.925)" fill="#1a1311"/>
          <path id="패스_4326" data-name="패스 4326" d="M10.892,12.039a14.008,14.008,0,0,0,10.6.386,1.32,1.32,0,0,0,.9-1.581,1.3,1.3,0,0,0-1.581-.9,11.411,11.411,0,0,1-8.622-.126,1.326,1.326,0,0,0-1.758.461,1.3,1.3,0,0,0,.461,1.758" transform="translate(30.205 28.455)" fill="#1a1311"/>
          <path id="패스_4327" data-name="패스 4327" d="M16.875,10.1C9.27,12.749,6.31,20.5,5.714,27.958a112.29,112.29,0,0,0,0,14.247c.209,4.407-.028,9.8,1.833,13.92,3.11,6.891,12.465,9.237,19.258,9.867a60.014,60.014,0,0,0,28.163-4.451c1.51-.619.848-3.106-.686-2.476A59.26,59.26,0,0,1,31.007,63.63c-6.757-.083-16.853-1.309-20.728-7.794-1.987-3.327-1.7-8.318-1.912-12.087-.221-3.934-.323-7.884-.252-11.827.13-7.3,1.494-16.573,9.442-19.348,1.553-.544.887-3.028-.682-2.48" transform="translate(16.141 29.473)" fill="#1a1311"/>
          <path id="패스_4328" data-name="패스 4328" d="M13.479,16.894A2.082,2.082,0,1,1,11,15.3a2.087,2.087,0,0,1,2.48,1.593" transform="translate(27.547 44.88)" fill="#1a1311"/>
          <path id="패스_4329" data-name="패스 4329" d="M17.4,17.121a2.082,2.082,0,1,1-2.48-1.593,2.087,2.087,0,0,1,2.48,1.593" transform="translate(39.074 45.548)" fill="#1a1311"/>
          <path id="패스_4330" data-name="패스 4330" d="M12.874,18.484c.237-.122-.221.047-.051.028l.035-.012c.138-.028.1-.028-.106,0a1.1,1.1,0,0,0,.319-.008c.067,0,.465.047.225.016s.154.024.217.035a7.376,7.376,0,0,1,1.258.359c-.386-.142-.051-.02.043.028s.181.1.272.154.154.1.229.15c.2.138-.2-.166-.071-.055.047.047.1.091.15.138.075.071.142.146.209.221s.091.17-.075-.1c.024.039.055.075.079.114.051.075.091.158.138.24.079.134-.118-.339-.051-.13l.051.162c.02.071.028.146.047.217-.11-.414-.024-.17-.02-.032,0,.083,0,.17-.008.252-.008.189.016-.17.028-.173-.016,0-.028.142-.032.166-.02.083-.043.162-.071.244-.075.252.15-.3.016-.032-.039.075-.083.142-.122.213-.028.047-.114.154.024-.024.15-.193.02-.032-.02.012-.11.114-.276.173.047-.016-.067.039-.138.083-.2.122-.122.079.3-.1.162-.067-.039.008-.083.028-.122.039a1.029,1.029,0,0,0-.106.024c.307-.1.272-.028.11-.028a.751.751,0,0,0-.134,0c.233-.047.272.055.146.016-.051-.016-.106-.032-.158-.043-.158-.039.3.162.091.039a1.533,1.533,0,0,0-.229-.138c.193.059.2.166.075.055-.043-.039-.083-.079-.122-.122s-.162-.209-.035-.024-.016-.028-.039-.067-.059-.1-.087-.15-.11-.24-.02-.035,0,0-.008-.039c-.024-.075-.035-.154-.059-.233-.028-.106.028-.17.008.087.008-.079-.016-.173-.016-.252a3.88,3.88,0,0,1,.016-.43c.02-.252,0,.087-.012.087l.051-.256a6.272,6.272,0,0,1,.28-.915,1.292,1.292,0,0,0-.9-1.581,1.317,1.317,0,0,0-1.581.9,4.568,4.568,0,0,0,.2,4.258,3.244,3.244,0,0,0,1.857,1.34,2.74,2.74,0,0,0,2.034-.3,3.349,3.349,0,0,0,1.49-3.063,3.414,3.414,0,0,0-.627-1.782,4.528,4.528,0,0,0-1.5-1.325,6.7,6.7,0,0,0-1.9-.678,4.041,4.041,0,0,0-2.724.177,1.294,1.294,0,0,0-.461,1.758,1.317,1.317,0,0,0,1.758.461" transform="translate(32.189 46.894)" fill="#1a1311"/>
          <path id="패스_4331" data-name="패스 4331" d="M27.442,24.776c.2-.008.7.079-.13-.039-.989-.146.457.114.69.173.765.193,1.518.442,2.259.7.445.158.891.315,1.325.5-.591-.248.536.26.572.28.375.189.729.414,1.092.623.8.457-.146-.28.489.371,0,0,.84.919.414.43.422.481.091,0,.315.639.1.5.13.587.091.256l.024.457c0-.008-.138,1.325-.032.737a7.271,7.271,0,0,1-.375,1.317c.122-.323-.367.714-.457.875a18.153,18.153,0,0,1-3.091,3.95q-.917.958-1.9,1.837-.491.443-1.005.863c.024-.02-.942.741-.564.457a31.738,31.738,0,0,1-9.177,4.829,4.142,4.142,0,0,0-2.83,4.991,4.1,4.1,0,0,0,4.987,2.83,40.441,40.441,0,0,0,12.635-6.82c3.781-3,7.427-6.871,9.146-11.448a11.191,11.191,0,0,0-5.109-13.9,27.586,27.586,0,0,0-6.371-2.523,10.83,10.83,0,0,0-2.992-.5,4.055,4.055,0,0,0,0,8.109" transform="translate(44.14 49.03)" fill="#e3e7e1"/>
          <path id="패스_4332" data-name="패스 4332" d="M25.054,53.294c-7.924-3.477-15.2-9.974-16.23-19.041a17.029,17.029,0,0,1,3.047-12.185c2.866-3.8,7.175-6.26,11.176-8.665,4.466-2.689.394-9.7-4.092-7C13.854,9.469,8.78,12.717,5.177,17.558a24.462,24.462,0,0,0-4.463,16.7C1.822,46.139,10.294,55.612,20.962,60.3c2,.879,4.352.587,5.547-1.455,1.005-1.719.56-4.664-1.455-5.547" transform="translate(1.785 17.047)" fill="#e3e7e1"/>
          <path id="패스_4333" data-name="패스 4333" d="M12.717,12.11a5.951,5.951,0,0,1,.039-1.155c-.047.359-.1.717-.146,1.076a6.153,6.153,0,0,1,.363-1.3l-.406.966a6.166,6.166,0,0,1,.678-1.167c-.213.276-.426.548-.635.824.122-.154.244-.3.378-.438L6.213,9.13c.028.146.051.292.071.442l-.142-1.08a8.805,8.805,0,0,1-.012,2.231c.047-.359.095-.717.146-1.076a20.243,20.243,0,0,0-.611,3.4A5.074,5.074,0,0,0,9.453,17.9a6.73,6.73,0,0,0,4.076-.414c1.258-.481,2.5-1.009,3.721-1.573a4.011,4.011,0,0,0,1.861-2.424,4.175,4.175,0,0,0-.2-2.637A4.089,4.089,0,0,0,14.125,8.5a16.053,16.053,0,0,0-7.616,4.187,4.113,4.113,0,0,0-1.187,2.866,3.91,3.91,0,0,0,1.187,2.866c2.4,1.88,4.837,3.714,7.332,5.468a3.955,3.955,0,0,0,2.046.552,4,4,0,0,0,2.456-.871,3.891,3.891,0,0,0,1.25-1.62,3.757,3.757,0,0,0,.2-2.641,7.337,7.337,0,0,0-1.707-2.74,9.148,9.148,0,0,0-1.873-1.348,21.069,21.069,0,0,1-2.661-1.392c.276.213.548.422.82.635a3.761,3.761,0,0,1-.56-.532l.635.82a3.019,3.019,0,0,1-.339-.548c.138.323.272.643.41.966l-.051-.122a4.435,4.435,0,0,0-1.865-2.424A4.061,4.061,0,0,0,7.06,14.074,3.933,3.933,0,0,0,6.654,17.2a7.186,7.186,0,0,0,1.691,2.744,8.924,8.924,0,0,0,1.928,1.384,18.135,18.135,0,0,1,2.708,1.435c-.276-.209-.548-.422-.82-.631a3.763,3.763,0,0,1,.544.548c-.213-.272-.426-.544-.635-.82a3.63,3.63,0,0,1,.264.449l-.41-.97.051.122q2.98-2.288,5.957-4.577-2.827-1.993-5.57-4.1l.82.635c-.311-.244-.627-.489-.938-.733v5.732a13.321,13.321,0,0,1,1.068-.934c-.272.209-.544.422-.82.635a12.718,12.718,0,0,1,2.629-1.537c-.323.138-.647.276-.97.41a12.955,12.955,0,0,1,2.129-.67q-1.561-3.708-3.122-7.411c-.434.2-.871.394-1.313.583.323-.138.647-.272.97-.41a12.949,12.949,0,0,1-2.807,1c.359-.051.721-.1,1.08-.146a2.8,2.8,0,0,1-.481.008c.359.047.717.095,1.076.146a1.22,1.22,0,0,1-.292-.075c.319.138.643.272.966.41a1.006,1.006,0,0,1-.256-.154l.82.635c-.035-.035-.071-.075-.11-.11.213.272.426.548.635.82a1,1,0,0,1-.166-.288l.41.966c-.016-.051-.032-.106-.043-.158.047.359.095.717.146,1.076a2.229,2.229,0,0,1-.008-.512l-.142,1.076c.059-.375.177-.729.272-1.1a14.467,14.467,0,0,0,.351-2.176,12.347,12.347,0,0,0-.237-3.528,3.99,3.99,0,0,0-2.83-2.83A4.055,4.055,0,0,0,7.254,5.184,9.456,9.456,0,0,0,4.608,12.11,4.29,4.29,0,0,0,5.8,14.976a4.105,4.105,0,0,0,2.87,1.187c2.081-.091,4.194-1.786,4.053-4.053" transform="translate(13.514 11.772)" fill="#e3e7e1"/>
          <path id="패스_4334" data-name="패스 4334" d="M25.474,26.9a9.387,9.387,0,0,0-4.9-3.745c-2.369-.784-5.7-.5-7.049,1.884a4.6,4.6,0,0,0,.363,5.145,7.46,7.46,0,0,0,2.594,2l2.156,1.147,1.08.572c.158.083.319.166.477.252.954.509-.209.118-.67-.816l-.556-2.046.016.2c.051-.359.1-.717.146-1.08.307-.6.382-.769.217-.5-.067.106-.138.213-.209.315-.122.193-.252.382-.378.572-.276.418-.552.836-.828,1.258-1.1,1.66-.493,4.719,1.451,5.547a9.58,9.58,0,0,0,1.364.532,4.966,4.966,0,0,0,2.357,0,5,5,0,0,0,1.947-.812,8.088,8.088,0,0,0,2.074-2.148c.118-.162.237-.323.343-.493.173-.252.083-.138-.28.339q.739-.745-1.155.662H23.877c-1.435-.319-2.472-2.255-1.691-1.1.126.185.256.363.39.54a17.6,17.6,0,0,0,1.36,1.652A15.134,15.134,0,0,0,26.46,38.82a7.981,7.981,0,0,0,4.009,1.522,4.7,4.7,0,0,0,4.731-4.66A9.938,9.938,0,0,0,27.327,26a4.376,4.376,0,0,0-3.126.406A4.143,4.143,0,0,0,22.34,28.83c-.449,1.967.6,4.6,2.83,4.987a5.784,5.784,0,0,1,.773.181c.166.051.749.284.071,0-.635-.26-.177-.063-.035.012.177.1.907.619.335.17s.2.2.335.343c.032.035.229.3.264.3-.059,0-.579-.828-.272-.347.142.225.272.453.406.686.272.481-.189-.347-.166-.426a2.4,2.4,0,0,0,.154.469,5.935,5.935,0,0,1,.177.875c-.047-.363-.095-.721-.142-1.08a3.619,3.619,0,0,1,.008.773c.047-.359.095-.717.146-1.076.256-.449.516-.895.773-1.344q.893-.52,1.79-1.045l-.193.067,1.08-.142c-.067,0-.138,0-.2,0,.359.047.717.095,1.076.146-.4-.11-.284-.047.359.189-.134-.059-.264-.122-.4-.193q-.3-.148-.58-.319c-.189-.114-.371-.244-.556-.359-.343-.244-.244-.166.284.237-.114-.091-.229-.185-.339-.28a11.1,11.1,0,0,1-.946-.93c-.1-.11-.193-.225-.288-.339.406.532.481.631.233.292-.118-.181-.24-.371-.363-.552a5.008,5.008,0,0,0-2.83-2.235,4.677,4.677,0,0,0-4.376,1.143,9.025,9.025,0,0,0-1.482,1.861c-.442.678.639-.611.039-.075.556-.386.65-.473.292-.256.647-.237.765-.315.359-.24l1.076-.142-.2-.008c.359.051.717.1,1.076.146.193.095.386.189.579.288l1.455,5.547A18.231,18.231,0,0,0,26.7,33.245a4.713,4.713,0,0,0-2.168-5.965c-.859-.493-1.758-.93-2.637-1.4l-1.435-.765c-.24-.126-.473-.276-.721-.378-.055-.035-.114-.071-.17-.1a2.746,2.746,0,0,1,1.281,1.683l.142,1.08L21,27.242l-.552,2.046c-.639.493-1.277.989-1.916,1.482-.359.047-.717.1-1.076.146a4.7,4.7,0,0,1,1.222.008c-.363-.047-.721-.1-1.08-.146.284.047.544.126.82.2.4.142.268.087-.378-.173.126.063.248.13.371.2s.24.15.355.233c-.536-.43-.647-.5-.335-.233.714.8-.355-.587.043-.012A4.342,4.342,0,0,0,20.9,32.855a4.132,4.132,0,0,0,3.122-.41c1.735-1.12,2.74-3.678,1.455-5.547" transform="translate(37.975 66.969)" fill="#e3e7e1"/>
          <path id="패스_4335" data-name="패스 4335" d="M34.21,21.017c2.026.189,5.5.516,5.988,3.059.4,2.164-2.61,4.336-3.978,5.622a64.9,64.9,0,0,1-11.949,8.866c.587.154,1.175.307,1.754.461-1.522-2.748-5.641-4.238-8.653-4.289a4.507,4.507,0,0,0-4.3,6.335,5.917,5.917,0,0,0,1.36,1.983c.536.524,1.4.808,1.884,1.321.438.465-.043,1.183-.059,1.853a4.528,4.528,0,0,0,.5,2.137c1.75,3.5,5.925,3.465,9.158,2.365,1.557-.528.887-3.012-.686-2.476-1.9.647-5.921,1.372-6.378-1.612-.146-.966.6-1.77.347-2.775s-1.139-1.443-1.955-1.916a3.372,3.372,0,0,1-1.979-2.807c.039-1.34,1.08-1.9,2.338-1.829,2.042.106,5.184,1.159,6.2,3.008a1.3,1.3,0,0,0,1.762.461A60.766,60.766,0,0,0,40.9,28.637c1.735-1.995,2.629-4.557,1-6.926-1.762-2.543-4.833-3-7.691-3.264-1.648-.154-1.64,2.417,0,2.57" transform="translate(37.38 54.256)" fill="#1a1311"/>
          <path id="패스_4336" data-name="패스 4336" d="M16.694,15.488a9.311,9.311,0,0,1-1.53-13.12l-2.018-.26c2.235,3.461,4.293,7.987,2.2,12.012l2.018-.26A8.628,8.628,0,0,1,14.36,4.706q-1.07.284-2.148.564c2.133,1.943,1.813,5.239,1.573,7.841h2.57l-.012-6.65L13.816,6.8a67.84,67.84,0,0,0,2.279,7.53,1.315,1.315,0,0,0,1.581.895,1.3,1.3,0,0,0,.9-1.581A67.776,67.776,0,0,1,16.3,6.121a1.29,1.29,0,0,0-2.523.339l.012,6.65a1.286,1.286,0,0,0,2.57,0c.307-3.327.355-7.218-2.326-9.658a1.3,1.3,0,0,0-2.148.568,11.127,11.127,0,0,0,3.67,11.657,1.306,1.306,0,0,0,2.018-.26c2.547-4.9.583-10.293-2.2-14.606a1.3,1.3,0,0,0-2.018-.26,11.985,11.985,0,0,0-2.716,9.1A12.034,12.034,0,0,0,15.4,17.707a1.291,1.291,0,0,0,1.758-.461,1.316,1.316,0,0,0-.461-1.758" transform="translate(31.007 0.499)" fill="#ba4211"/>
          <path id="패스_4337" data-name="패스 4337" d="M14.179.366a11.4,11.4,0,0,0-4.049,10.806,11.43,11.43,0,0,0,7.415,8.539c1.561.56,2.231-1.92.682-2.48A8.838,8.838,0,0,1,12.61,10.49,8.918,8.918,0,0,1,16,2.184,1.294,1.294,0,0,0,16,.366a1.313,1.313,0,0,0-1.817,0" transform="translate(29.311 0.001)" fill="#1a1311"/>
          <path id="패스_4338" data-name="패스 4338" d="M14.588,9.175c-.146-.229-.268-.473-.394-.714-.138-.264.039.13-.055-.122-.055-.146-.106-.292-.154-.442-.067-.225-.126-.449-.173-.678-.008-.055-.075-.532-.043-.237-.012-.118-.024-.233-.032-.351a6.925,6.925,0,0,1-.008-.757c0-.138.016-.272.028-.406.035-.378-.051.244.02-.122a6.876,6.876,0,0,1,.189-.8c.032-.11.067-.221.11-.331.024-.075.051-.146.083-.221-.055.13-.051.126.008-.008H11.946c.075.146.15.3.217.457-.091-.209.059.158.059.162.106.276.2.56.284.844s.154.572.213.863q.047.219.083.438l.032.193c-.02-.138-.016-.126,0,.032A11.591,11.591,0,0,1,12.9,8.753c-.012.3-.035.591-.075.887.032-.229-.02.11-.032.162-.028.166-.059.331-.1.5a1.286,1.286,0,1,0,2.48.682,12.7,12.7,0,0,0-1.005-8.29,1.291,1.291,0,0,0-2.219,0,8.225,8.225,0,0,0,.422,7.782,1.285,1.285,0,1,0,2.219-1.3" transform="translate(32.857 6.058)" fill="#f79a00"/>
          <path id="패스_4339" data-name="패스 4339" d="M22.281,4.128c-2.937-.252-4.758,2.074-5.677,4.6-.844,2.314-1.522,4.057-3.568,5.578A35.016,35.016,0,0,0,9.11,17.531,29.848,29.848,0,0,0,.54,35.882c-1.3,14.05,8.763,27.039,22.3,30.276,1.608.386,2.294-2.093.686-2.48C11.373,60.773,2.235,49.4,3.043,36.75a27.206,27.206,0,0,1,7.273-16.778c1.955-2.066,4.632-3.386,6.465-5.527,1.782-2.081,2.085-8.038,5.5-7.746,1.648.142,1.64-2.428,0-2.57" transform="translate(1.254 12.091)" fill="#1a1311"/>
          <path id="패스_4340" data-name="패스 4340" d="M11.722,9.776A4.9,4.9,0,0,0,8.99,12.544a2.873,2.873,0,0,0,1.23,3.233,11.582,11.582,0,0,0,3.938,1.277,25.689,25.689,0,0,0,4.656.5A23.158,23.158,0,0,0,27.459,16.1c2.05-.8,5.5-2.551,5.062-5.208-.264-1.628-2.744-.938-2.48.682.039-.311-.016-.319-.173-.024-.146.166-.3.319-.453.469a6.225,6.225,0,0,1-1.029.784A10.915,10.915,0,0,1,26,13.9a21.339,21.339,0,0,1-5.862,1.072,22.136,22.136,0,0,1-6.028-.552c-.6-.142-2.16-.3-2.555-.836-.5-.674,1.029-1.352,1.466-1.585,1.463-.777.166-3-1.3-2.219" transform="translate(26.116 28.286)" fill="#1a1311"/>
          <path id="패스_4341" data-name="패스 4341" d="M8.783,18.064l-.414,3.193a2.838,2.838,0,0,0,.039,1.431,1.773,1.773,0,0,0,.938.9c.962.453,1.963.836,2.941,1.25.457.193.989.371,1.388-.051a1.844,1.844,0,0,0,.331-1.23q.118-1.88.237-3.769c.043-.662-.986-.658-1.029,0q-.106,1.727-.213,3.449a3.787,3.787,0,0,0-.055.757.19.19,0,0,1-.028.095c-.024.047,0,.028.091-.063a3.988,3.988,0,0,0-.378-.15c-.532-.225-1.064-.453-1.6-.678a12.687,12.687,0,0,1-1.384-.607c-.442-.26-.331-.7-.276-1.143l.438-3.382a.517.517,0,0,0-.516-.512.525.525,0,0,0-.512.512" transform="translate(24.41 51.642)" fill="#275727"/>
          <path id="패스_4342" data-name="패스 4342" d="M8.616,19.166l3.461,1.762a.515.515,0,0,0,.516-.891q-1.727-.881-3.457-1.758a.526.526,0,0,0-.706.185.518.518,0,0,0,.185.7" transform="translate(24.609 53.592)" fill="#275727"/>
          <path id="패스_4343" data-name="패스 4343" d="M8.306,20.084c2.566,1.057,5.156,2.07,7.806,2.9.635.2.9-.792.276-.989-2.653-.836-5.239-1.849-7.809-2.905a.515.515,0,0,0-.272.993" transform="translate(23.319 56.088)" fill="#275727"/>
          <path id="패스_4344" data-name="패스 4344" d="M8.914,20.047V22a.514.514,0,1,0,1.029,0V20.047a.514.514,0,0,0-1.029,0" transform="translate(26.227 57.473)" fill="#275727"/>
          <path id="패스_4345" data-name="패스 4345" d="M8.522,20.947l1.912.43a15.561,15.561,0,0,1,1.656.394,3.877,3.877,0,0,1,.556.24,2.819,2.819,0,0,1,.3.173c.039.028-.008-.012.047.035l.055.055c-.035-.039.016.071,0,0a1.025,1.025,0,0,1,.039.158c-.008-.067,0,.043,0,.063a.905.905,0,0,1-.008.146.769.769,0,0,1-.13.323.515.515,0,0,0,.729.725,1.751,1.751,0,0,0,.39-1.585,1.724,1.724,0,0,0-1.143-1.1,9.383,9.383,0,0,0-1.849-.54c-.761-.17-1.518-.339-2.279-.512-.643-.142-.919.848-.272.993" transform="translate(23.989 58.666)" fill="#275727"/>
          <path id="패스_4346" data-name="패스 4346" d="M8.459,21.41c1.683.382,3.3,1.009,4.983,1.392.643.15.919-.844.272-.989-1.683-.386-3.3-1.009-4.983-1.4-.643-.146-.919.848-.272.993" transform="translate(23.804 60.028)" fill="#275727"/>
          <path id="패스_4347" data-name="패스 4347" d="M8.6,20.548a1.32,1.32,0,0,0-.544,1.51,2.313,2.313,0,0,0,1.194,1.321,6.47,6.47,0,0,0,1.928.572c.7.158,1.392.347,2.1.457a.53.53,0,0,0,.631-.359.516.516,0,0,0-.359-.631c-.579-.095-1.147-.237-1.719-.371-.276-.067-.556-.13-.836-.185a6.089,6.089,0,0,1-.8-.17,2.817,2.817,0,0,1-.623-.319,2.177,2.177,0,0,1-.414-.355.667.667,0,0,1-.134-.394.29.29,0,0,1,.028-.13c-.016.043.055-.059,0-.008.067-.063-.032.008.063-.051.564-.343.047-1.234-.52-.887" transform="translate(23.541 60.224)" fill="#275727"/>
          <path id="패스_4348" data-name="패스 4348" d="M10.829,19.515q2.182.84,4.36,1.683a.513.513,0,0,0,.631-.359.52.52,0,0,0-.359-.631q-2.176-.846-4.36-1.687a.518.518,0,0,0-.631.363.525.525,0,0,0,.359.631" transform="translate(30.749 54.421)" fill="#275727"/>
          <path id="패스_4349" data-name="패스 4349" d="M14.03,19.319a6.221,6.221,0,0,1-3.769,5.389.515.515,0,0,0-.181.7.525.525,0,0,0,.7.185,7.218,7.218,0,0,0,4.277-6.276c.024-.662-1.005-.662-1.029,0" transform="translate(29.46 55.378)" fill="#275727"/>
          <path id="패스_4350" data-name="패스 4350" d="M11.068,19.538a11.427,11.427,0,0,0,0,2.322,12.95,12.95,0,0,0,.52,2.176c.414,1.285,1.017,2.9,2.271,3.6.583.319,1.1-.568.52-.887a3.027,3.027,0,0,1-1.1-1.289,10.23,10.23,0,0,1-.757-1.884,11.813,11.813,0,0,1-.449-1.912,10.892,10.892,0,0,1,.032-2.121c.039-.662-.989-.658-1.029,0" transform="translate(32.375 56.027)" fill="#275727"/>
          <path id="패스_4351" data-name="패스 4351" d="M10.693,21.106v3.039a.514.514,0,0,0,1.029,0V21.106a.514.514,0,0,0-1.029,0" transform="translate(31.461 60.589)" fill="#275727"/>
          <path id="패스_4352" data-name="패스 4352" d="M10.059,22.288c2.507.572,4.987,1.25,7.494,1.825.643.146.919-.848.272-.993-2.507-.572-4.987-1.25-7.494-1.825-.643-.146-.919.848-.272.993" transform="translate(28.511 62.611)" fill="#275727"/>
          <path id="패스_4353" data-name="패스 4353" d="M15.171,19.46a14.971,14.971,0,0,1-3.244,4.4c-.485.453.244,1.179.725.729a15.782,15.782,0,0,0,3.406-4.608.534.534,0,0,0-.185-.706.518.518,0,0,0-.7.185" transform="translate(34.619 56.518)" fill="#275727"/>
          <path id="패스_4354" data-name="패스 4354" d="M12.353,20.8q1.242,1.478,2.488,2.953a.512.512,0,0,0,.725,0,.526.526,0,0,0,0-.725q-1.242-1.478-2.488-2.953a.512.512,0,0,0-.725,0,.526.526,0,0,0,0,.725" transform="translate(35.919 58.632)" fill="#275727"/>
          <path id="패스_4355" data-name="패스 4355" d="M13.582,19.815q-.041,3.365-.087,6.729a.515.515,0,0,0,1.029,0q.041-3.365.087-6.729a.515.515,0,0,0-1.029,0" transform="translate(39.705 56.838)" fill="#275727"/>
          <path id="패스_4356" data-name="패스 4356" d="M13.066,24.3c.043-.461.091-.919.126-1.38.02-.213.028-.426.059-.639l.035-.142c-.028-.016-.083.035-.055.059a1.106,1.106,0,0,0,.24.051c.1.028.2.055.3.079.221.059.438.118.658.173.418.114.84.225,1.265.335s.836.221,1.258.335c.256.067.591.11.733.355.248.418-.028,1.112-.213,1.526a.525.525,0,0,0,.185.7.518.518,0,0,0,.706-.185,3.757,3.757,0,0,0,.418-1.9,1.686,1.686,0,0,0-1.368-1.443c-.855-.233-1.711-.449-2.562-.674-.41-.11-.82-.233-1.242-.327a1.074,1.074,0,0,0-1.131.284,2.243,2.243,0,0,0-.3,1.254L12.041,24.3a.514.514,0,0,0,.512.512.527.527,0,0,0,.512-.512" transform="translate(35.422 62.327)" fill="#275727"/>
          <path id="패스_4357" data-name="패스 4357" d="M12.431,22.838q2.6.485,5.192.966a.515.515,0,0,0,.272-.993q-2.6-.479-5.192-.966a.532.532,0,0,0-.631.363.515.515,0,0,0,.359.631" transform="translate(35.467 64.242)" fill="#275727"/>
        </g>
      </g>
    </g>
  </g>
</svg>
