<svg xmlns="http://www.w3.org/2000/svg" width="101.117" height="60.011" viewBox="0 0 101.117 60.011">
  <g id="그룹_1806" data-name="그룹 1806" transform="translate(-254.653 -1527.912)">
    <g id="그룹_1805" data-name="그룹 1805">
      <g id="그룹_1479" data-name="그룹 1479" transform="translate(254.653 1527.912)">
        <g id="그룹_1472" data-name="그룹 1472" transform="translate(21.103 46.357)">
          <path id="패스_4533" data-name="패스 4533" d="M3.383.451C3.01,2.578,2.632,5.307.288,6.094a28.241,28.241,0,0,1-4.553.847L-9.5,7.77c-2.156.341-1.565,3.688.5,3.716q18.518.248,37.035.472A1.886,1.886,0,0,0,29.9,10.317a1.867,1.867,0,0,0-1.356-2.075c-3.044-.412-6.1-.689-9.157-1.036a9.759,9.759,0,0,0-1.684-.2q-.712-.22.1.462A4.185,4.185,0,0,1,17.677,7c-.113-.47-.2-.947-.3-1.419Q16.768,2.739,16.16-.1a1.917,1.917,0,0,0-2.779-1.131Q10.225.273,7.07,1.78,8.216,3.265,9.363,4.751a1.3,1.3,0,0,1,.706-.21Q9.341,2.813,8.612,1.083A49.255,49.255,0,0,1,3.4,3.321l1.84,3.162a3.912,3.912,0,0,1,2.183-.927L6.083,2.327A19.4,19.4,0,0,1,2.417,4.9a1.889,1.889,0,0,0-.774,2.362,1.922,1.922,0,0,0,2.232,1.1,47.718,47.718,0,0,1,8.083-.786L11,4.05A16.757,16.757,0,0,1,6.091,6.1q.5,1.824,1.006,3.649c.445-.159.884-.333,1.331-.484.224-.076.45-.151.678-.212.136-.038.275-.071.414-.1-.2.022-.2.033-.013.03A1.921,1.921,0,0,0,11.4,7.092a7.736,7.736,0,0,1,.46-2.381L8.7,5.545a11.72,11.72,0,0,1,2.01,2.124,1.911,1.911,0,0,0,3.526-.955q.118-.97.235-1.939l-3.716.5q.456,1.609.914,3.219l3.648-1.006q-.527-1.525-1.056-3.048A1.939,1.939,0,0,0,11.93,3.123a1.911,1.911,0,0,0-1.321,2.328q.527,1.523,1.057,3.047c.788,2.276,4.321,1.363,3.648-1.006L14.4,4.273a1.892,1.892,0,0,0-2.076-1.355,1.93,1.93,0,0,0-1.641,1.857q-.116.97-.235,1.939l3.526-.955a15.479,15.479,0,0,0-2.6-2.89,1.921,1.921,0,0,0-3.162.836,11.217,11.217,0,0,0-.6,3.387L9.508,5.2a9.544,9.544,0,0,0-3.417.9A1.894,1.894,0,0,0,7.1,9.747a20.137,20.137,0,0,0,5.816-2.429,1.907,1.907,0,0,0-.955-3.526,53.918,53.918,0,0,0-9.089.921Q3.6,6.44,4.326,8.17A23.714,23.714,0,0,0,8.759,5,1.911,1.911,0,0,0,7.421,1.772,8.261,8.261,0,0,0,2.564,3.809c-1.407,1.211.084,3.8,1.84,3.161a57.923,57.923,0,0,0,6.118-2.619A1.883,1.883,0,0,0,11.3,1.988,1.939,1.939,0,0,0,9.063.892,4.56,4.56,0,0,0,6.687,2.075a1.879,1.879,0,0,0-.148,2.484,1.922,1.922,0,0,0,2.441.488l6.311-3.012Q13.9,1.471,12.511.9q.663,3.107,1.327,6.212a5.041,5.041,0,0,0,1.093,2.694A4.53,4.53,0,0,0,17.8,10.8c3.221.413,6.611.668,9.739,1.09q.25-1.857.5-3.716Q9.523,7.926-8.994,7.7q.252,1.857.5,3.717l5.98-.948A17.571,17.571,0,0,0,2.612,9.208c2.949-1.445,3.9-4.769,4.42-7.751A1.947,1.947,0,0,0,5.71-.871,1.909,1.909,0,0,0,3.383.451" transform="translate(10.855 1.447)" fill="#ff7266"/>
        </g>
        <g id="그룹_1473" data-name="그룹 1473" transform="translate(0.581 0.702)">
          <path id="패스_4534" data-name="패스 4534" d="M17.578,11.7c-1.086,0-1.086-.269-2.172-.269s-1.086.092-2.172.092-1.085.3-2.171.3-1.085-.277-2.171-.277-1.086.043-2.172.043-1.086.109-2.172.109-1.086.079-2.171.079S1.29,11.755.2,11.755s-1.086-.18-2.171-.18-1.087-.007-2.173-.007-1.086-.1-2.172-.1-1.086.223-2.171.223-1.086-.222-2.171-.222-1.085.054-2.17.054-1.085.146-2.171.146-1.086.066-2.172.066-1.086-.026-2.171-.026-1.087-.064-2.173-.064-1.086-.14-2.172-.14-1.086.211-2.173.211-1.086-.031-2.172-.031-1.087-.033-2.175-.033-1.087.1-2.175.1-1.087-.371-2.175-.371-1.086.239-2.171.239-1.089-.055-2.175-.055-1.087.085-2.175.085-1.089.117-2.176.117-1.09-.113-2.179-.113-1.09-.047-2.179-.047a8.447,8.447,0,0,1-2.2-.4,8.2,8.2,0,0,1-1.977-.972A8.463,8.463,0,0,1-53.65,9.048a8.52,8.52,0,0,1-1.271-1.819,8.351,8.351,0,0,1-.923-2.015,8.52,8.52,0,0,1-.136-2.208c0-1.118-.135-1.118-.135-2.234s-.03-1.118-.03-2.236S-56-2.58-56-3.7s-.147-1.119-.147-2.236.073-1.118.073-2.235-.052-1.119-.052-2.236.151-1.118.151-2.235-.425-1.119-.425-2.238.254-1.119.254-2.238-.055-1.119-.055-2.238-.159-1.118-.159-2.235.382-1.119.382-2.238-.264-1.119-.264-2.238.091-1.119.091-2.238-.08-1.121-.08-2.243.251-1.12.251-2.242a4.173,4.173,0,0,1,.515-2.187,4.758,4.758,0,0,1,1.419-1.919,4.885,4.885,0,0,1,2.37-.55c1.081,0,1.081.18,2.162.18h2.162c1.082,0,1.082-.155,2.164-.155s1.082.218,2.163.218,1.081.13,2.162.13,1.082-.458,2.163-.458,1.082.164,2.164.164,1.081.165,2.163.165,1.081-.136,2.163-.136,1.082.1,2.164.1,1.081-.125,2.163-.125,1.081.251,2.163.251,1.082-.409,2.164-.409,1.081.189,2.163.189,1.081.2,2.162.2,1.081.031,2.16.031,1.081-.009,2.162-.009,1.082-.383,2.164-.383,1.082.269,2.163.269,1.082-.2,2.164-.2,1.081.281,2.163.281,1.082-.237,2.166-.237,1.082.233,2.164.233,1.082-.026,2.164-.026,1.083.007,2.167.007,1.082-.349,2.166-.349,1.081.241,2.163.241,1.083.007,2.166.007,1.083-.055,2.167-.055,1.083-.146,2.167-.146,1.085.077,2.171.077,1.085.077,2.17.077a4.836,4.836,0,0,1,2.372.417c.685.4.969,1.263,1.365,1.949a4.121,4.121,0,0,1,.6,2.156c0,1.106-.058,1.106-.058,2.211s.272,1.106.272,2.21-.2,1.106-.2,2.211.139,1.107.139,2.213.1,1.106.1,2.211.028,1.107.028,2.214-.11,1.106-.11,2.213.138,1.107.138,2.214-.333,1.107-.333,2.213.056,1.108.056,2.215.02,1.107.02,2.215.136,1.107.136,2.214.173,1.107.173,2.213S22.01-2.908,22.01-1.8s.045,1.108.045,2.215.031,1.108.031,2.217-.06,1.11-.06,2.219.147,1.11.147,2.221a4.442,4.442,0,0,1-.808,2.187,4.756,4.756,0,0,1-1.421,1.911,4.857,4.857,0,0,1-2.366.527" transform="translate(56.397 37.526)" fill="#ff7266"/>
        </g>
        <g id="그룹_1474" data-name="그룹 1474" transform="translate(0 0)">
          <path id="패스_4535" data-name="패스 4535" d="M17.716.09q-24.5-.089-49-.169C-35.09-.092-38.9-.056-42.713-.158c-1.9-.051-3.793-.125-5.691-.126a20.166,20.166,0,0,0-4.525.278C-55.438.581-56.6,3.075-56.78,5.44c-.127,1.641.092,3.334.114,4.979.026,2.038.014,4.077.054,6.114.068,3.553.286,7.084.222,10.64-.066,3.685-.237,7.368-.328,11.052-.047,1.924-.206,3.917-.064,5.836a5.517,5.517,0,0,0,.813,2.469,9,9,0,0,0,6.174,3.8,42.7,42.7,0,0,0,7.431.3q3.845.012,7.689-.014,8.852-.051,17.7-.189c10.728-.152,21.455-.367,32.182-.512l2.508-.03a.757.757,0,0,0,0-1.514c-9.671.1-19.342.308-29.013.456-10.909.169-21.823.35-32.734.279-2.555-.016-5.235.144-7.633-.893-1.738-.753-3.484-2.263-3.611-4.28-.119-1.881.025-3.821.071-5.7s.111-3.759.174-5.638c.114-3.379.23-6.76.156-10.142-.081-3.72-.236-7.431-.269-11.153-.016-1.738-.144-3.477-.147-5.213a6.045,6.045,0,0,1,.809-3.21,3.668,3.668,0,0,1,3.229-1.562c1.674-.114,3.355-.088,5.032-.05,3.66.081,7.314.15,10.975.163q23.675.083,47.351.163l5.61.02a.757.757,0,0,0,0-1.514" transform="translate(56.84 0.289)" fill="#231d1c"/>
        </g>
        <g id="그룹_1475" data-name="그룹 1475" transform="translate(19.708 49.416)">
          <path id="패스_4536" data-name="패스 4536" d="M3.533.129c-.211,1-.373,2.253-1.43,2.648A28.516,28.516,0,0,1-2.932,4C-5,4.371-7.169,4.586-9.189,5.144c-1.325.365-2.513,1.385-2.04,2.891.571,1.809,2.6,1.953,4.193,1.985,2.24.043,4.481.071,6.722.094q6.725.069,13.451.066c5.092.005,10.183-.007,15.275-.007a.757.757,0,0,0,0-1.514c-8.331,0-16.66.03-24.989-.028Q.248,8.61-2.928,8.569q-1.493-.02-2.987-.045a8.907,8.907,0,0,1-3.1-.241c-.386-.159-.834-.463-.777-.942.049-.4.421-.548.771-.669a17.849,17.849,0,0,1,2.659-.525c2.044-.366,4.1-.7,6.133-1.1a11.325,11.325,0,0,0,3.5-1.133c1.132-.681,1.468-2.2,1.72-3.383.2-.951-1.258-1.356-1.46-.4" transform="translate(11.335 0.415)" fill="#231d1c"/>
        </g>
      </g>
      <g id="그룹_1477" data-name="그룹 1477" transform="translate(329.801 1545.854)">
        <path id="패스_4459" data-name="패스 4459" d="M0,.248.765,1.917,1.6,3.55,2.45,5.172l.773,1.665.891,1.6.811,1.645.738,1.682.931,1.587.741,1.683.822,1.644.906,1.6,1.184.029.954-1.739.985-1.725.929-1.755,1-.264,1.546,1.142,1.54,1.153,1.585,1.09,1.573,1.114,1.565,1.124L23,18.218l.795-1.605.857-1.575.779-1.616-.29-.934-1.7-.7-1.68-.735-1.653-.805L18.4,9.577l-1.65-.817-.258-1.11,1.094-1.344,1.208-1.247,1.162-1.293L21.032,2.4l-.425-1.149-1.8-.237L16.989.894,15.172.788,13.378.467,11.566.279,9.754.112,7.929.011l-1.811-.2-1.8-.257L2.5-.628.7-.8Z" transform="translate(0 0.797)" fill="#fff"/>
      </g>
    </g>
    <g id="그룹_1478" data-name="그룹 1478" transform="translate(262.309 1544.967)">
      <g id="그룹_1351" data-name="그룹 1351" transform="translate(67.258 0)">
        <path id="패스_4460" data-name="패스 4460" d="M.129.06C-.8,1.156-.4,2.343.307,3.441,1.241,4.887,2.192,6.32,3.092,7.788A66.838,66.838,0,0,1,7.94,17.041c.425,1.023.758,2.937,2.113,3.107s2.124-1.809,2.748-2.684q.352-.494.716-.976c.125-.165.522-.9.775-.981.463-.152,1.449.919,1.773,1.205,1.031.909,1.987,1.9,3.093,2.73.925.69,2.745,1.981,3.889,1.111a5.432,5.432,0,0,0,1.184-1.943q.732-1.432,1.465-2.862c.443-.866-.862-1.633-1.306-.765-.678,1.325-1.346,2.656-2.036,3.976-.193.369-.22.379-.624.233a5.112,5.112,0,0,1-.778-.375,10.272,10.272,0,0,1-1.632-1.178c-.891-.767-1.71-1.613-2.613-2.366-.71-.592-1.671-1.525-2.68-1.305-1.027.226-1.763,1.665-2.333,2.45-.441.609-.847,1.236-1.272,1.853-.021.03-.231.384-.272.379.094.013-.092-.341-.049-.268a8.228,8.228,0,0,1-.445-1.11A61.447,61.447,0,0,0,5.977,9.69C5.154,8.243,4.288,6.823,3.4,5.418Q2.749,4.4,2.087,3.4C1.782,2.928.7,1.724,1.2,1.13,1.825.39.759-.685.129.06" transform="translate(0.414 0.192)" fill="#231d1c"/>
      </g>
      <g id="그룹_1352" data-name="그룹 1352" transform="translate(0 23.011)">
        <path id="패스_4461" data-name="패스 4461" d="M15.478,0l-50.1.227L-48.929.293a.757.757,0,0,0,0,1.512L1.165,1.578l14.313-.064a.757.757,0,0,0,0-1.514" transform="translate(49.661 0)" fill="#231d1c"/>
      </g>
    </g>
  </g>
</svg>
