<svg xmlns="http://www.w3.org/2000/svg" width="85.018" height="72.992" viewBox="0 0 85.018 72.992">
  <g id="그룹_1438" data-name="그룹 1438" transform="translate(1346.967 -2155.2)">
    <g id="그룹_1404" data-name="그룹 1404" transform="translate(-1346.743 2159.254)">
      <path id="패스_4440" data-name="패스 4440" d="M13.354,18.838l-2.506-.313-2.509.106-2.506.346-2.509-.322L.817,18.7l-2.51.128-2.509.091-2.51-.017-2.51-.209-2.51-.008-2.509-.116-2.51.26-2.512-.259-2.512.063-2.516.169-2.516.076-2.622-.444-2.319-1.266-1.729-1.956L-34.881,13l-.377-2.625.039-2.525-.121-2.527.433-2.525L-35.187.269l.065-2.524-.1-2.523L-35.356-7.3l.131-2.527.054-2.524.134-2.527.165-2.525-.229-2.528.117-2.527-.1-2.527.178-2.529-.158-2.528-.036-2.525.174-2.528-.169-2.529.085-2.529-.061-2.534.175-2.534.125-2.316,1.843-1.438,2.169-.645,2.589-.185,2.59.444,2.594-.306,2.591.106,2.594-.1,2.591.292,2.6-.081,2.593-.426,2.6.1,2.6.209h2.6l2.593-.18,2.6.253,2.6.152,2.6-.535,2.6.192,2.6.193,2.214.434,1.521,1.677.721,2.156-.291,2.589L18-40.047l-.22,2.587-.23,2.587-.037,2.589.011,2.586.445,2.583-.313,2.586.227,2.589-.325,2.586.276,2.589-.271,2.587.03,2.589L17.58-9l.406,2.589L17.705-3.82,17.7-1.23l.065,2.587.169,2.59-.09,2.591-.091,2.591.253,2.6-.5,2.6-.533,2.09-1.564,1.473Z" transform="translate(35.356 49.874)" fill="#ff7266"/>
    </g>
    <g id="그룹_1414" data-name="그룹 1414" transform="translate(-1307.992 2165.165)">
      <path id="패스_4450" data-name="패스 4450" d="M9.952,0,8.167,1.768,5.8,3.294,4.009,5.467,1.6,6.945l-2,1.936L-2.23,11.016l-2.418,1.473L-6.81,14.248l-1.726,2.243-2.035,1.9-2.52,1.36-2.065,1.871-1.777,2.2-2.3,1.619-1.9,2.013-1,2.372-.451,2.6-1.438,2.264-.231,2.677-1.52,2.242-.572,2.62,2.7-.526,2.691-.3,2.626-.683L-15.6,40.6l2.72-.492,1.732-2.281,2.484-1.317,2.073-1.8,2.162-1.7,1.82-2.094,1.949-1.943L1.66,27.465,3.767,25.7l1.841-2.064,2.137-1.725,1.918-1.985,2.32-1.518L14.1,16.648l1.925-1.984,2.084-1.8.245-2.357L16.56,8.423l-1.3-2.469L13.326,3.986l-1.4-2.419Z" transform="translate(26.347)" fill="#fff"/>
    </g>
    <g id="그룹_1437" data-name="그룹 1437" transform="translate(-1346.967 2155.2)">
      <g id="그룹_1405" data-name="그룹 1405" transform="translate(13.357 0)">
        <path id="패스_4493" data-name="패스 4493" d="M0,.226V7.218a.854.854,0,0,0,1.707,0V.226A.854.854,0,0,0,0,.226" transform="translate(0 0.599)" fill="#231d1c"/>
      </g>
      <g id="그룹_1406" data-name="그룹 1406" transform="translate(22.17 0)">
        <path id="패스_4494" data-name="패스 4494" d="M0,.226V7.218a.854.854,0,0,0,1.707,0V.226A.854.854,0,0,0,0,.226" transform="translate(0 0.599)" fill="#231d1c"/>
      </g>
      <g id="그룹_1407" data-name="그룹 1407" transform="translate(30.984 0)">
        <path id="패스_4495" data-name="패스 4495" d="M0,.226V7.218a.854.854,0,0,0,1.707,0V.226A.854.854,0,0,0,0,.226" transform="translate(0 0.599)" fill="#231d1c"/>
      </g>
      <g id="그룹_1408" data-name="그룹 1408" transform="translate(39.797 0)">
        <path id="패스_4496" data-name="패스 4496" d="M0,.226V7.218a.854.854,0,0,0,1.707,0V.226A.854.854,0,0,0,0,.226" transform="translate(0 0.599)" fill="#231d1c"/>
      </g>
      <g id="그룹_1409" data-name="그룹 1409" transform="translate(0 3.443)">
        <path id="패스_4497" data-name="패스 4497" d="M13.5.086C.681-.01-12.16-.328-24.978-.194c-2.352.025-4.87.252-6.818,1.7a9.155,9.155,0,0,0-3.21,5.868c-1.1,5.864-.687,12.089-.514,18.018.32,10.885-.083,21.768-.139,32.655-.011,2.272-.194,4.524.93,6.588a7.589,7.589,0,0,0,4.658,3.633,26.4,26.4,0,0,0,6.084.42q3.18.093,6.361.178c9.632.258,19.289.594,28.925.4a.854.854,0,0,0,0-1.707c-7.974.164-15.965-.076-23.938-.269q-6.334-.153-12.671-.344c-1.967-.059-4.041.09-5.8-.945a5.846,5.846,0,0,1-2.844-4.766c-.131-2.777.015-5.6.048-8.378.034-2.735.081-5.47.125-8.2.079-4.876.153-9.754.08-14.631-.084-5.68-.427-11.359-.149-17.038.124-2.535.18-5.328,1.221-7.693,1.069-2.432,3.254-3.473,5.8-3.7,3.121-.271,6.321-.054,9.45-.029l10.221.076L13.5,1.793a.854.854,0,0,0,0-1.707" transform="translate(35.742 0.226)" fill="#231d1c"/>
      </g>
      <g id="그룹_1410" data-name="그룹 1410" transform="translate(11.918 21.546)">
        <path id="패스_4498" data-name="패스 4498" d="M9.073,0-23.2.391a.854.854,0,0,0,0,1.707l32.269-.39A.855.855,0,0,0,9.073,0" transform="translate(24.021 0)" fill="#231d1c"/>
      </g>
      <g id="그룹_1411" data-name="그룹 1411" transform="translate(11.918 34.401)">
        <path id="패스_4499" data-name="패스 4499" d="M8.268,0-21.066.132a.855.855,0,0,0,0,1.708L8.268,1.707A.854.854,0,0,0,8.268,0" transform="translate(21.89 0)" fill="#231d1c"/>
      </g>
      <g id="그룹_1412" data-name="그룹 1412" transform="translate(11.918 50.738)">
        <path id="패스_4500" data-name="패스 4500" d="M6.5,0l-22.9.332a.854.854,0,0,0,0,1.707L6.5,1.707A.854.854,0,0,0,6.5,0" transform="translate(17.218 0)" fill="#231d1c"/>
      </g>
    </g>
    <g id="그룹_1436" data-name="그룹 1436" transform="translate(-1307.832 2165.308)">
      <g id="그룹_1415" data-name="그룹 1415" transform="translate(12.447 8.289)">
        <path id="패스_4502" data-name="패스 4502" d="M6.678.062-17.4,21.543c-.822.733.389,1.937,1.207,1.207L7.885,1.269C8.707.536,7.5-.668,6.678.062" transform="translate(17.679 0.165)" fill="#231d1c"/>
      </g>
      <g id="그룹_1416" data-name="그룹 1416" transform="translate(0 0)">
        <path id="패스_4503" data-name="패스 4503" d="M4.272,10.184a63.077,63.077,0,0,1-6.8,2.231c-1.171.3-2.352.555-3.538.784q-.936.182-1.878.344c-.364.063-1.739.464-2,.28l.393.51c-.182-.441.139-1.247.227-1.686l.492-2.47c.346-1.737.656-3.486,1.046-5.215A8.942,8.942,0,0,1-6.244,1.332,20.739,20.739,0,0,1-3.569-1.381C-1.813-2.935.071-4.333,1.837-5.875c2.382-2.078,4.7-4.228,6.993-6.4a118.835,118.835,0,0,1,10.8-9.684c.845-.625,1.711-1.219,2.6-1.773q.672-.417,1.363-.8.347-.194.7-.38c.1-.055.986-.415.546-.369,1.205-.123,1.849,1.695,2.418,2.521,1.848,2.681,3.881,5.245,5.9,7.794.683.86,1.883-.355,1.208-1.207q-1.42-1.788-2.8-3.6a43.917,43.917,0,0,1-3.61-5.053,3.708,3.708,0,0,0-2.37-2.061c-1.086-.27-1.932.366-2.857.883a43.456,43.456,0,0,0-6.867,4.883C10.433-16.522,5.559-11.291.143-6.657-2.228-4.628-4.832-2.83-6.925-.5-9.462,2.336-9.766,6.128-10.481,9.722c-.231,1.163-.471,2.326-.7,3.491a2.179,2.179,0,0,0,.2,1.949c.555.619,1.474.366,2.177.249,1.065-.176,2.13-.362,3.189-.568A61.956,61.956,0,0,0,4.725,11.83c1.017-.387.576-2.039-.453-1.646" transform="translate(11.31 26.962)" fill="#231d1c"/>
      </g>
      <g id="그룹_1417" data-name="그룹 1417" transform="translate(1.159 36.743)">
        <path id="패스_4504" data-name="패스 4504" d="M.307.559q.8.975,1.6,1.952l.6-1.458c-.2-.021-.393-.044-.59-.069-.121-.015.216.032.011,0L1.809.968,1.5.92C1.106.857.716.781.328.7a.875.875,0,0,0-.964.393A.889.889,0,0,0-.5,2.123a1.458,1.458,0,0,0,.639.394.821.821,0,0,0,.745-.153.872.872,0,0,0,.336-.67A3.823,3.823,0,0,0,1.047.436C1,.261.952.088.917-.088A1.066,1.066,0,0,0,.893-.221c.023.068.019.182.008.041a1.914,1.914,0,0,1,0-.295L-.386.263C-.3.3-.221.357-.138.4S-.287.264-.163.388c.04.04.081.076.12.116A.865.865,0,0,0,.992.638a.866.866,0,0,0,.391-.964,2.116,2.116,0,0,1-.065-.22Q1.306-.605,1.3-.663c.015.13.019.146.011.051L.228.211C.176.19.047.122.165.194c.026.015.116.083.007,0S.176.2.193.219l.069.07L.328.363C.339.379.445.512.357.4S.351.391.368.414s.05.069.076.1c.233.324.477.641.74.94A19.326,19.326,0,0,0,2.649,2.9.853.853,0,0,0,3.856,1.694,18.383,18.383,0,0,1,2.314.162C2.256.1,2.2.029,2.145-.039a1.086,1.086,0,0,0-.091-.116c.037.033.09.121.025.032-.1-.135-.2-.273-.3-.408a3.441,3.441,0,0,0-.415-.49,2.111,2.111,0,0,0-.683-.415A.857.857,0,0,0-.4-.612a2.883,2.883,0,0,0,.135.74L1.164-.7a2.416,2.416,0,0,0-.687-.508.885.885,0,0,0-.862,0,.881.881,0,0,0-.423.737A4.033,4.033,0,0,0-.627.785c.045.174.092.347.127.524.008.044.012.09.023.132C-.495,1.369-.5,1.262-.488,1.4a2.106,2.106,0,0,1,0,.295Q.05,1.283.591.87C.631.89.672.908.712.926.657.891.66.9.723.943c.114.1,0-.012-.019-.029Q.288,1.63-.126,2.342a23.334,23.334,0,0,0,2.637.419.846.846,0,0,0,.781-.525A.881.881,0,0,0,3.116,1.3L1.514-.648a.856.856,0,0,0-1.207,0,.878.878,0,0,0,0,1.207" transform="translate(0.813 1.48)" fill="#231d1c"/>
      </g>
    </g>
  </g>
</svg>
