<svg xmlns="http://www.w3.org/2000/svg" width="106.487" height="81.672" viewBox="0 0 106.487 81.672">
  <g id="그룹_1383" data-name="그룹 1383" transform="translate(1480.237 -2114.81)">
    <g id="그룹_1366" data-name="그룹 1366" transform="translate(-1480.237 2136.754)">
      <path id="패스_4422" data-name="패스 4422" d="M5.076.029C9.148.058,27.847-.933,27.748,1.585c-.028,1.859-3.078,5.966-.532,6.993,22.191,7.554,20.458,35.095.659,44.527-.526.226-1.123.581-1.124,1.123C25.732,59.823,1.9,59.935-6.106,56a1.278,1.278,0,0,1-.656-.956c-.6-3.452-10.721-3.941-15.348-14.325-2.59-5.87-3.089-13.223-.538-18.985A21.388,21.388,0,0,1-11.777,10.625c.995-.505,2.38-.625,3.133-1.5a1.854,1.854,0,0,0-.146-2.119,19.932,19.932,0,0,1-1.429-4.977c-.042-.572.515-.747.972-.915C-5.449-.356.892,1.223,4.96.045Z" transform="translate(24.327 0.139)" fill="#ff7266"/>
    </g>
    <g id="그룹_1367" data-name="그룹 1367" transform="translate(-1480.157 2137.086)">
      <path id="패스_4423" data-name="패스 4423" d="M8.961.073Q-6.761-.623-22.5-.166q-1.849.056-3.7.126c-.975.037-2.225-.121-3.062.491-1.719,1.259.126,3.139.65,4.458.819,2.062-.7,4.174-2.165,5.474-1.576,1.4-3.377,2.5-4.9,3.966A23.391,23.391,0,0,0-42.3,36.56a22.1,22.1,0,0,0,5.973,10.453,25.045,25.045,0,0,0,10.876,5.863,67.167,67.167,0,0,0,15.006,1.93,123.723,123.723,0,0,0,17.5-.519c.95-.094.96-1.593,0-1.5A124.737,124.737,0,0,1-7.523,53.4a89,89,0,0,1-13.6-1.1,29.484,29.484,0,0,1-11.514-4.225A19.976,19.976,0,0,1-40.009,38.8a21.613,21.613,0,0,1,4.084-22.022,28.484,28.484,0,0,1,4.5-3.989A11.8,11.8,0,0,0-27.6,8.8a5.405,5.405,0,0,0,.123-4.963c-.323-.608-1.632-2.034-.465-2.306A9.681,9.681,0,0,1-26.2,1.458q.925-.036,1.85-.068Q-7.7.827,8.961,1.57c.963.044.962-1.455,0-1.5" transform="translate(42.945 0.35)" fill="#231d1c"/>
    </g>
    <g id="그룹_1368" data-name="그룹 1368" transform="translate(-1463.224 2190.542)">
      <path id="패스_4424" data-name="패스 4424" d="M.021.19A8.73,8.73,0,0,0,5.369,3.613a45.839,45.839,0,0,0,7.97,1.223A60.059,60.059,0,0,0,30.672,3.7c.942-.2.543-1.644-.4-1.444A58.614,58.614,0,0,1,14.4,3.415,52.323,52.323,0,0,1,6.709,2.393C4.683,1.955,2.5,1.26,1.315-.565.791-1.372-.507-.621.021.19" transform="translate(0.103 0.911)" fill="#231d1c"/>
    </g>
    <g id="그룹_1369" data-name="그룹 1369" transform="translate(-1423.267 2114.927)">
      <path id="패스_4425" data-name="패스 4425" d="M4.16,0A7.762,7.762,0,0,1,6.242.381,10.475,10.475,0,0,0,8.648.522a10.049,10.049,0,0,1,2.423-.1,1.97,1.97,0,0,1,1.307,1.983c-.4.409-.9,1.569-.716,1.96.742.086,1.4.237,2.1.378.731.149,1.4.491,2.073.7a19.885,19.885,0,0,1,1.993.855,18.454,18.454,0,0,1,1.922.975,18.117,18.117,0,0,1,1.9,1.047,17.918,17.918,0,0,1,1.8,1.258,17.894,17.894,0,0,1,1.2,1.852c.457.564,1.176.942,1.563,1.557a19.8,19.8,0,0,1,.965,1.969c.312.649.322,1.424.569,2.112s.679,1.293.862,2,.377,1.4.5,2.121.23,1.433.294,2.164.152,1.447.162,2.178.042,1.458,0,2.189-.285,1.433-.37,2.16-.178,1.436-.306,2.155S28.77,33.5,28.6,34.208s-.512,1.368-.722,2.067c-.248.695-.641,1.338-.888,2.032s-.477,1.395-.724,2.09-.227,1.483-.47,2.178-.419,1.413-.658,2.11-.583,1.359-.813,2.057-.5,1.388-.719,2.09-.725,1.32-.938,2.025-.23,1.472-.43,2.18-.337,1.436-.523,2.148-.261,1.453-.431,2.17-.6,1.374-.755,2.095-.257,1.455-.389,2.179.021,1.5-.089,2.225-.335,1.437-.421,2.17-.077,1.469-.137,2.2-.248,1.456-.279,2.194.115,1.471.112,2.211-.2,1.472-.169,2.211.134,1.475.193,2.213a5.492,5.492,0,0,1-1.61,1.384,16.856,16.856,0,0,1-2.027.585,20.373,20.373,0,0,1-1.918.875c-.649.164-1.38.117-2.089.247-.668.123-1.367.16-2.073.248-.682.087-1.372.176-2.073.228s-1.382.338-2.079.355-1.4-.282-2.092-.3c-.707-.022-1.427.253-2.112.189-.711-.068-1.386-.355-2.055-.47-.713-.123-1.415-.21-2.061-.392a14.455,14.455,0,0,1-2.009-.642A8.285,8.285,0,0,1-6.6,78.18a4.843,4.843,0,0,1-1.244-1.653,4.338,4.338,0,0,1-.7-2.01c.132-.7.639-1.355.714-2.047s-.062-1.431-.04-2.13-.195-1.406-.224-2.107-.021-1.4-.1-2.1S-8.085,64.7-8.2,64s-.241-1.395-.4-2.084-.574-1.309-.759-1.991-.121-1.432-.331-2.107-.68-1.258-.911-1.927-.279-1.395-.525-2.056-.428-1.346-.685-2-.893-1.159-1.157-1.814-.286-1.4-.552-2.054-.67-1.249-.934-1.9-.529-1.307-.788-1.963-.577-1.291-.826-1.95-.475-1.332-.711-2-.387-1.362-.6-2.032-.178-1.419-.373-2.095-.676-1.278-.844-1.962-.334-1.374-.471-2.066c-.158-.731-.006-1.506-.117-2.22-.116-.74-.5-1.432-.566-2.151-.066-.746-.174-1.489-.185-2.211-.013-.749.088-1.5.135-2.215.048-.747.38-1.45.491-2.165.115-.738.08-1.493.261-2.194a20.064,20.064,0,0,1,.927-2.009,19.408,19.408,0,0,1,.649-2.113A17.632,17.632,0,0,1-16.3,12.855a17.475,17.475,0,0,1,1.288-1.8,17.9,17.9,0,0,1,1.6-1.522,18.457,18.457,0,0,1,1.726-1.382A20.249,20.249,0,0,1-9.715,7.141a21.508,21.508,0,0,1,1.971-.975c.666-.27,1.391-.406,2.11-.622.688-.207,1.4-.352,2.135-.509.7-.151,1.39-.438,2.137-.54a2.406,2.406,0,0,0,.185-.7,4.876,4.876,0,0,1-.581-2.606A3.926,3.926,0,0,1,.011.295,15.7,15.7,0,0,1,2.1.224,6.352,6.352,0,0,0,4.16,0" transform="translate(19.938 0)" fill="#fff"/>
    </g>
    <g id="그룹_1370" data-name="그룹 1370" transform="translate(-1405.929 2114.81)">
      <path id="패스_4426" data-name="패스 4426" d="M.3.543C-.316.347.25-.62.571-.8c.932-.531,2.29-.256,3.3-.2l8.366.505c.963.058.96-1.44,0-1.5L6.707-2.326a39.493,39.493,0,0,0-5.122-.245A3.014,3.014,0,0,0-1.324-.687,2.068,2.068,0,0,0-.1,1.987C.822,2.28,1.217.834.3.543" transform="translate(1.435 2.603)" fill="#231d1c"/>
    </g>
    <g id="그룹_1371" data-name="그룹 1371" transform="translate(-1402.69 2118.773)">
      <path id="패스_4427" data-name="패스 4427" d="M.125.259,8.774.542c.963.031.962-1.466,0-1.5L.125-1.24C-.84-1.271-.838.227.125.259" transform="translate(0.598 1.24)" fill="#231d1c"/>
    </g>
    <g id="그룹_1372" data-name="그룹 1372" transform="translate(-1424.707 2119.116)">
      <path id="패스_4428" data-name="패스 4428" d="M3.447,0A21.84,21.84,0,0,0-12.7,9.1a21.647,21.647,0,0,0-2.665,19.218c1.247,3.573,3.373,6.747,5.064,10.11A71.4,71.4,0,0,1-5.98,49.115a73.29,73.29,0,0,1,2.554,11.1q.431,2.884.616,5.8c.12,1.837-.031,3.752.22,5.572.277,2,1.877,2.618,3.6,3.155a39.252,39.252,0,0,0,6.309,1.394A40.441,40.441,0,0,0,20.3,75.79c.945-.178.545-1.621-.4-1.444a38.779,38.779,0,0,1-10.938.48A37.552,37.552,0,0,1,3.4,73.85Q2.15,73.534.92,73.136c-.821-.268-1.733-.523-1.98-1.46a10.8,10.8,0,0,1-.115-2.485q-.031-1.425-.116-2.846-.156-2.594-.5-5.171A73.948,73.948,0,0,0-3.87,50.966a74.488,74.488,0,0,0-3.5-9.8c-1.421-3.249-3.2-6.287-4.841-9.423A22.2,22.2,0,0,1-15,22.08a20.329,20.329,0,0,1,1.94-9.395A20.161,20.161,0,0,1,3.447,1.5c.956-.071.963-1.569,0-1.5" transform="translate(16.517 0.002)" fill="#231d1c"/>
    </g>
    <g id="그룹_1373" data-name="그룹 1373" transform="translate(-1461.927 2163.606)">
      <path id="패스_4429" data-name="패스 4429" d="M.8,0A.8.8,0,0,1,1.38.18a.6.6,0,0,1,.175.434.611.611,0,0,1-.161.394.765.765,0,0,1-.6.19H-1.961v1.6a5.526,5.526,0,0,1,.551-.087,4.3,4.3,0,0,1,.492-.03A5.206,5.206,0,0,1,.2,2.794a2.869,2.869,0,0,1,.934.375,1.934,1.934,0,0,1,.643.672,2,2,0,0,1,.238,1.018v.273A2.305,2.305,0,0,1,1.789,6.2a1.965,1.965,0,0,1-.619.712,2.586,2.586,0,0,1-.925.4,5.17,5.17,0,0,1-1.153.121,5.015,5.015,0,0,1-1.256-.14,3.115,3.115,0,0,1-.911-.38,1.7,1.7,0,0,1-.55-.561,1.344,1.344,0,0,1-.185-.682A.736.736,0,0,1-3.591,5.1a.872.872,0,0,1,.609-.2,1.282,1.282,0,0,1,.418.058.643.643,0,0,1,.259.156.556.556,0,0,1,.131.225.835.835,0,0,1,.04.253.5.5,0,0,0,.344.476,2.108,2.108,0,0,0,.873.156,1.439,1.439,0,0,0,.925-.253,1.016,1.016,0,0,0,.311-.836V4.917a.919.919,0,0,0-.4-.823A1.7,1.7,0,0,0-1.1,3.846c-.1,0-.195,0-.268.01a2.219,2.219,0,0,0-.228.034c-.079.016-.161.036-.249.059l-.326.082a3.576,3.576,0,0,1-.593.111,1.039,1.039,0,0,1-.37-.033l.01.008a.667.667,0,0,1-.389-.267.833.833,0,0,1-.127-.473V.614A.568.568,0,0,1-3.469.132.759.759,0,0,1-3,0Z" transform="translate(3.81 0)" fill="#2b2e34"/>
    </g>
    <g id="그룹_1374" data-name="그룹 1374" transform="translate(-1455.141 2163.606)">
      <path id="패스_4430" data-name="패스 4430" d="M.282.314C.211.367.137.417.062.465A2.351,2.351,0,0,1-.185.607a1.731,1.731,0,0,1-.257.1A.957.957,0,0,1-.726.753.711.711,0,0,1-1,.7.472.472,0,0,1-1.217.51a.588.588,0,0,1-.111-.532A.7.7,0,0,1-.993-.416L.594-1.34a.694.694,0,0,1,.253-.122,1.155,1.155,0,0,1,.312-.044.954.954,0,0,1,.574.175.626.626,0,0,1,.243.545v5.91a.644.644,0,0,1-.257.574,1,1,0,0,1-.58.175,1.13,1.13,0,0,1-.315-.044A.841.841,0,0,1,.55,5.694a.689.689,0,0,1-.195-.233.729.729,0,0,1-.073-.336Z" transform="translate(1.354 1.506)" fill="#2b2e34"/>
    </g>
    <g id="그룹_1375" data-name="그룹 1375" transform="translate(-1450.039 2163.547)">
      <path id="패스_4431" data-name="패스 4431" d="M.469.812A4.8,4.8,0,0,1-.592.7,2.416,2.416,0,0,1-1.454.334a1.8,1.8,0,0,1-.579-.666A2.227,2.227,0,0,1-2.247-1.36v-.224a2.311,2.311,0,0,1,.228-1.076,1.9,1.9,0,0,1,.632-.716,2.739,2.739,0,0,1,.945-.394A5.25,5.25,0,0,1,.713-3.891a5.178,5.178,0,0,1,1.177.127,2.77,2.77,0,0,1,.95.4,1.93,1.93,0,0,1,.632.722A2.342,2.342,0,0,1,3.7-1.555v2.8a2.312,2.312,0,0,1-.234,1.081,2,2,0,0,1-.642.73,2.809,2.809,0,0,1-.96.413A5.1,5.1,0,0,1,.673,3.6,4.448,4.448,0,0,1-.6,3.436a2.752,2.752,0,0,1-.876-.419,1.679,1.679,0,0,1-.506-.589,1.491,1.491,0,0,1-.166-.672.59.59,0,0,1,.228-.491,1,1,0,0,1,.638-.18.94.94,0,0,1,.569.16.611.611,0,0,1,.239.482.57.57,0,0,0,.326.5,1.783,1.783,0,0,0,.822.161,1.533,1.533,0,0,0,1-.292,1.043,1.043,0,0,0,.355-.856v-.8A3.143,3.143,0,0,1,.469.812m1.558-2.4a1,1,0,0,0-.341-.846,1.557,1.557,0,0,0-.973-.263,1.5,1.5,0,0,0-.95.263,1.009,1.009,0,0,0-.336.846v.1a.993.993,0,0,0,.336.852,1.638,1.638,0,0,0,.979.249,1.75,1.75,0,0,0,.5-.069,1.224,1.224,0,0,0,.409-.2A.962.962,0,0,0,1.924-1a1.1,1.1,0,0,0,.1-.492Z" transform="translate(2.247 3.891)" fill="#2b2e34"/>
    </g>
    <g id="그룹_1376" data-name="그룹 1376" transform="translate(-1443.049 2163.547)">
      <path id="패스_4432" data-name="패스 4432" d="M.525,0a4.663,4.663,0,0,1,1.09.122A2.82,2.82,0,0,1,2.5.487a1.807,1.807,0,0,1,.59.613,1.724,1.724,0,0,1,.213.876,1.528,1.528,0,0,1-.272.921,1.753,1.753,0,0,1-.653.56,2.055,2.055,0,0,1,.871.685,1.8,1.8,0,0,1,.317,1.077v.127a1.724,1.724,0,0,1-.238.9,2.131,2.131,0,0,1-.653.676,3.193,3.193,0,0,1-.969.424,4.586,4.586,0,0,1-1.177.146A4.548,4.548,0,0,1-.644,7.341a3.186,3.186,0,0,1-.968-.424,2.16,2.16,0,0,1-.658-.676,1.684,1.684,0,0,1-.244-.9V5.219A1.827,1.827,0,0,1-2.2,4.142a2.02,2.02,0,0,1,.876-.685,1.868,1.868,0,0,1-.627-.564,1.512,1.512,0,0,1-.278-.916A1.724,1.724,0,0,1-2.017,1.1,1.8,1.8,0,0,1-1.429.487,2.823,2.823,0,0,1-.551.122,4.553,4.553,0,0,1,.525,0M1.869,5.171a1.008,1.008,0,0,0-.108-.482.927.927,0,0,0-.288-.326,1.209,1.209,0,0,0-.428-.185,2.286,2.286,0,0,0-.521-.059,2.241,2.241,0,0,0-.511.059,1.27,1.27,0,0,0-.434.185.95.95,0,0,0-.3.326.968.968,0,0,0-.112.482v.058a.878.878,0,0,0,.1.418,1.015,1.015,0,0,0,.282.336,1.416,1.416,0,0,0,.429.225,1.722,1.722,0,0,0,.54.082,1.469,1.469,0,0,0,.989-.307.958.958,0,0,0,.355-.754ZM.525,1.2a1.5,1.5,0,0,0-.809.19A.663.663,0,0,0-.586,2a.715.715,0,0,0,.3.653,1.469,1.469,0,0,0,.809.195,1.539,1.539,0,0,0,.833-.195A.712.712,0,0,0,1.663,2a.661.661,0,0,0-.306-.608A1.574,1.574,0,0,0,.525,1.2" transform="translate(2.514)" fill="#2b2e34"/>
    </g>
    <g id="그룹_1377" data-name="그룹 1377" transform="translate(-1435.835 2163.548)">
      <path id="패스_4433" data-name="패스 4433" d="M.557.484A4.986,4.986,0,0,1,1.608.592a2.462,2.462,0,0,1,.871.36,1.773,1.773,0,0,1,.589.666,2.2,2.2,0,0,1,.214,1.018v.224a2.256,2.256,0,0,1-.233,1.072,2.008,2.008,0,0,1-.633.716,2.64,2.64,0,0,1-.939.4,5.25,5.25,0,0,1-1.154.122A5.178,5.178,0,0,1-.855,5.041a2.77,2.77,0,0,1-.95-.4,1.936,1.936,0,0,1-.632-.72,2.326,2.326,0,0,1-.23-1.076V.037a2.29,2.29,0,0,1,.234-1.072,2.036,2.036,0,0,1,.642-.735,2.775,2.775,0,0,1,.965-.418A5.105,5.105,0,0,1,.362-2.32a4.6,4.6,0,0,1,1.29.161,3,3,0,0,1,.91.418,1.811,1.811,0,0,1,.541.585A1.347,1.347,0,0,1,3.282-.5a.594.594,0,0,1-.238.5,1.02,1.02,0,0,1-.629.18A.937.937,0,0,1,1.846.021.618.618,0,0,1,1.6-.442a.583.583,0,0,0-.365-.515,2.023,2.023,0,0,0-.871-.166,1.512,1.512,0,0,0-1,.3A1.057,1.057,0,0,0-.992.037V.806A1.959,1.959,0,0,1-.276.547,5.392,5.392,0,0,1,.557.484M-.992,2.859a1,1,0,0,0,.341.847,1.564,1.564,0,0,0,.973.263,1.473,1.473,0,0,0,.936-.263,1.015,1.015,0,0,0,.331-.847V2.743a.937.937,0,0,0-.336-.833,1.7,1.7,0,0,0-.96-.23,1.9,1.9,0,0,0-.5.064,1.207,1.207,0,0,0-.409.195.929.929,0,0,0-.277.336,1.044,1.044,0,0,0-.1.477Z" transform="translate(2.667 2.32)" fill="#2b2e34"/>
    </g>
    <path id="패스_6517" data-name="패스 6517" d="M3.42-.37c-.89,0-1.32-.3-1.32-.65,0-.39-.16-.67-.89-.67-.58,0-.81.24-.81.71C.4-.12,1.29.87,3.42.87,5.11.87,6.51.25,6.51-1.46v-.17a1.532,1.532,0,0,0-1.1-1.55,1.664,1.664,0,0,0,.83-1.67c0-1.41-1.15-1.97-2.75-1.97C1.21-6.82.69-5.63.69-4.93c0,.52.22.74.79.74s.84-.28.84-.65c0-.33.25-.75,1.15-.75.71,0,1.08.3,1.08.93,0,.71-.47.94-1.13.94a.547.547,0,0,0-.62.58.56.56,0,0,0,.62.58c.81,0,1.36.23,1.36.93v.17C4.78-.68,4.35-.37,3.42-.37ZM10.44.87c1.68,0,2.75-.67,2.79-2.37V-4.42c0-1.73-1.09-2.4-2.79-2.4-1.72,0-2.76.64-2.76,2.37V-1.5C7.68.23,8.71.87,10.44.87ZM9.41-1.49V-4.44c0-.79.19-1.14,1.03-1.14s1.02.33,1.05,1.14v2.95c0,.75-.22,1.12-1.05,1.12S9.41-.71,9.41-1.49Zm7.46-.5a3.236,3.236,0,0,0,1.6-.38v.82c0,.77-.51,1.18-1.39,1.18-.7,0-1.15-.21-1.18-.68-.03-.44-.35-.66-.83-.66-.55,0-.89.26-.89.69,0,.93.87,1.89,2.9,1.89,1.75,0,3.11-.69,3.11-2.42V-4.42c0-1.75-1.34-2.4-3.07-2.4-1.69,0-3.04.63-3.04,2.37v.23C14.08-2.55,15.32-1.99,16.87-1.99ZM15.8-4.35v-.1c0-.8.48-1.14,1.32-1.14.86,0,1.35.34,1.35,1.14v.09c0,.77-.59,1.14-1.32,1.14C16.28-3.22,15.8-3.53,15.8-4.35ZM25.83-6.76H21.57c-.62,0-.76.31-.76.6,0,.33.19.63.76.63h3.39L22.13-.3A.762.762,0,0,0,22.45.76.843.843,0,0,0,23.58.52L26.7-5.43a1.032,1.032,0,0,0,.15-.59C26.85-6.49,26.51-6.76,25.83-6.76Zm4.42,4.77a3.236,3.236,0,0,0,1.6-.38v.82c0,.77-.51,1.18-1.39,1.18-.7,0-1.15-.21-1.18-.68-.03-.44-.35-.66-.83-.66-.55,0-.89.26-.89.69,0,.93.87,1.89,2.9,1.89,1.75,0,3.11-.69,3.11-2.42V-4.42c0-1.75-1.34-2.4-3.07-2.4-1.69,0-3.04.63-3.04,2.37v.23C27.46-2.55,28.7-1.99,30.25-1.99ZM29.18-4.35v-.1c0-.8.48-1.14,1.32-1.14.86,0,1.35.34,1.35,1.14v.09c0,.77-.59,1.14-1.32,1.14C29.66-3.22,29.18-3.53,29.18-4.35Z" transform="translate(-1415.993 2143.438)" fill="#2a2e34"/>
  </g>
</svg>
