<svg xmlns="http://www.w3.org/2000/svg" width="122.234" height="63.307" viewBox="0 0 122.234 63.307">
  <g id="그룹_1443" data-name="그룹 1443" transform="translate(0 51.333)">
    <g id="그룹_1353" data-name="그룹 1353" transform="translate(0.543 -50.622)">
      <path id="패스_4462" data-name="패스 4462" d="M10.229,11.743c-.951-.016-.948-.083-1.9-.1s-.958.311-1.909.29-.946-.234-1.9-.255-.955.1-1.905.08-.95-.02-1.9-.042-.952.035-1.9.012-.95-.037-1.9-.059-.947-.089-1.9-.11-.945-.234-1.894-.257-.957.232-1.908.211-.951-.014-1.9-.035-.946-.261-1.9-.282-.956.223-1.907.2-.952.035-1.9.012-.95-.09-1.9-.111-.946-.229-1.9-.252-.955.132-1.907.11-.946-.249-1.9-.27-.956.2-1.907.178-.951-.063-1.9-.084-.955.055-1.905.035-.952-.059-1.9-.081-.953.01-1.908-.011-.951-.144-1.9-.16a8.3,8.3,0,0,1-1.84-.16A8.151,8.151,0,0,1-38.969,9.9a8.136,8.136,0,0,1-1.529-1,8.315,8.315,0,0,1-1.395-1.2,8.344,8.344,0,0,1-.976-1.574,8.191,8.191,0,0,1-.5-1.771,8.208,8.208,0,0,1-.368-1.814c0-.967.064-.967.064-1.933s-.136-.967-.136-1.934.211-.967.211-1.934-.117-.966-.117-1.933.181-.967.181-1.934.022-.967.022-1.933-.295-.967-.295-1.934.277-.967.277-1.933-.239-.966-.239-1.93-.081-.966-.081-1.933.042-.967.042-1.934.26-.966.26-1.931-.237-.967-.237-1.935.237-.966.237-1.933.027-.967.027-1.935,0-.967,0-1.934-.139-.967-.139-1.934-.127-.968-.127-1.936.11-.967.11-1.935.085-.967.085-1.934-.117-.967-.117-1.935.094-.968.094-1.935-.19-.968-.19-1.936-.051-.971-.051-1.94.281-.969.281-1.939a4.64,4.64,0,0,1,.068-1.727,4.51,4.51,0,0,1,1.111-1.328,4.212,4.212,0,0,1,1.447-.826,4.323,4.323,0,0,1,1.608-.556c.952,0,.952.212,1.905.212s.952-.072,1.905-.072.952-.236,1.905-.236.952.218,1.905.218.952-.033,1.905-.033.953-.086,1.905-.086.953-.063,1.907-.063.952.011,1.9.011.952.143,1.905.143.951,0,1.9,0,.952.079,1.9.079.953-.176,1.905-.176.952.176,1.905.176.952-.043,1.905-.043.953-.116,1.905-.116.955-.051,1.908-.051.953.02,1.907.02.953.051,1.907.051.953.111,1.908.111.953-.166,1.908-.166.952.025,1.905.025.953.026,1.908.026S3.543-50.3,4.5-50.3,5.45-50,6.405-50s.956-.19,1.912-.19.956.044,1.912.044a4.425,4.425,0,0,1,1.686.266,4.583,4.583,0,0,1,1.492.89A4.589,4.589,0,0,1,14.3-47.5a4.42,4.42,0,0,1,.3,1.687c0,.951-.091.951-.091,1.9s-.112.951-.112,1.9.155.952.155,1.9-.08.951-.08,1.9.065.951.065,1.9-.121.952-.121,1.9.107.952.107,1.9.025.952.025,1.9-.118.952-.118,1.9.116.951.116,1.9-.058.951-.058,1.9.041.951.041,1.9-.12.951-.12,1.9.337.952.337,1.9-.2.951-.2,1.9.043.952.043,1.9.126.951.126,1.9-.3.953-.3,1.905.208.951.208,1.9-.072.952-.072,1.9.064.952.064,1.9-.2.953-.2,1.905.055.952.055,1.9.289.952.289,1.905-.067.952-.067,1.9-.142.953-.142,1.907V5.577c0,.955.122.955.122,1.909a4.338,4.338,0,0,1-.5,1.634,4.1,4.1,0,0,1-1,1.312c-.4.4-.681,1.019-1.211,1.239a4.7,4.7,0,0,1-1.733.072" transform="translate(43.854 50.343)" fill="#ff7266"/>
    </g>
    <g id="그룹_1354" data-name="그룹 1354" transform="translate(0 -51.333)">
      <path id="패스_4463" data-name="패스 4463" d="M10.519.093Q-10.372-.033-31.264-.149c-3.046-.018-6.144-.423-9.184-.163A4.057,4.057,0,0,0-43.235.719,6.216,6.216,0,0,0-44.63,3.572c-.635,2.579-.356,5.256-.324,7.881.042,3.447.011,6.894.074,10.341.111,5.969.162,11.916.043,17.886-.067,3.3-.137,6.593-.171,9.89-.03,2.635-.382,5.5.591,8.011a7.53,7.53,0,0,0,4.324,4.5c1.857.686,4.082.465,6.034.5,4.691.08,9.384.118,14.076.144,9.426.052,18.855.073,28.281-.038q1.112-.013,2.221-.032a.66.66,0,0,0,0-1.32c-8.482.146-16.968.12-25.452.092q-7.289-.024-14.577-.1-3.084-.037-6.169-.095c-2.1-.042-4.186.012-5.823-1.529a7.533,7.533,0,0,1-2.214-5.3c-.063-3.35.043-6.711.1-10.061.11-5.873.287-11.748.18-17.622-.116-6.33-.129-12.666-.287-18.995-.048-1.878.01-4.722,1.474-6.131.8-.771,2.267-.641,3.3-.649,1.514-.011,3.026.09,4.537.158,3.189.143,6.392.085,9.584.1l10.142.059,20.309.116,4.895.03a.66.66,0,0,0,0-1.32" transform="translate(45.095 0.399)" fill="#231d1c"/>
    </g>
    <g id="그룹_1355" data-name="그룹 1355" transform="translate(63.624 -50.623)">
      <path id="패스_4464" data-name="패스 4464" d="M10.229,11.778c-.951-.02-.948-.088-1.9-.112s-.959.308-1.91.282-.945-.238-1.894-.264-.955.1-1.905.073-.951-.023-1.9-.049-.951.031-1.9,0-.95-.042-1.9-.067-.948-.094-1.9-.118-.945-.239-1.894-.264-.958.228-1.909.2-.95-.017-1.9-.042-.945-.265-1.9-.291-.957.221-1.908.195-.952.031-1.9.006-.948-.095-1.9-.12-.946-.234-1.9-.26-.956.128-1.908.1-.946-.254-1.9-.28-.956.2-1.907.171-.951-.067-1.9-.092-.953.052-1.905.027-.951-.064-1.9-.089-.955.006-1.908-.02-.951-.149-1.9-.168a8.291,8.291,0,0,1-1.84-.162,8.021,8.021,0,0,1-1.707-.694,8.016,8.016,0,0,1-1.529-1,8.266,8.266,0,0,1-1.395-1.2,8.3,8.3,0,0,1-.976-1.572,8.191,8.191,0,0,1-.5-1.771,8.2,8.2,0,0,1-.368-1.815c0-.966.063-.966.063-1.933s-.134-.966-.134-1.933.211-.967.211-1.934-.117-.967-.117-1.933.183-.967.183-1.934.021-.967.021-1.934-.295-.967-.295-1.933.277-.967.277-1.933-.24-.966-.24-1.93-.081-.967-.081-1.933.043-.967.043-1.934.26-.966.26-1.931-.237-.968-.237-1.935.237-.967.237-1.933.027-.968.027-1.935,0-.967,0-1.934-.141-.967-.141-1.935-.127-.967-.127-1.935.111-.968.111-1.935.085-.967.085-1.934-.117-.967-.117-1.935.094-.968.094-1.936-.19-.968-.19-1.936-.051-.969-.051-1.939.281-.969.281-1.939a4.666,4.666,0,0,1,.067-1.727A4.568,4.568,0,0,1-42.4-49.018a4.247,4.247,0,0,1,1.448-.825A4.319,4.319,0,0,1-39.34-50.4c.953,0,.953.213,1.907.213s.952-.072,1.9-.072.953-.237,1.905-.237.953.22,1.907.22.952-.033,1.905-.033.952-.088,1.905-.088.953-.062,1.905-.062.953.011,1.905.011.952.143,1.9.143.952,0,1.9,0,.952.079,1.9.079.953-.178,1.907-.178.952.178,1.9.178.953-.043,1.907-.043.953-.116,1.905-.116.955-.052,1.908-.052.953.02,1.905.02.953.052,1.908.052.953.111,1.908.111.953-.166,1.908-.166.952.023,1.905.023.953.027,1.908.027.953-.083,1.908-.083.955.295,1.908.295.956-.19,1.912-.19.957.044,1.913.044a4.391,4.391,0,0,1,1.685.266,4.555,4.555,0,0,1,1.493.89,4.577,4.577,0,0,1,.893,1.492,4.416,4.416,0,0,1,.3,1.687c0,.953-.09.953-.09,1.908s-.113.955-.113,1.909.157.955.157,1.909-.08.955-.08,1.909.065.955.065,1.909-.122.955-.122,1.91.109.955.109,1.909.023.955.023,1.909-.118.955-.118,1.909.116.955.116,1.909-.058.955-.058,1.909.042.953.042,1.907-.121.953-.121,1.908.339.955.339,1.91-.2.953-.2,1.908.043.955.043,1.91.127.955.127,1.909-.3.956-.3,1.912.208.955.208,1.909-.072.956-.072,1.912.064.956.064,1.912-.2.956-.2,1.912.055.955.055,1.909.291.956.291,1.912-.067.956-.067,1.912-.143.957-.143,1.913,0,.958,0,1.915.123.958.123,1.915a4.347,4.347,0,0,1-.5,1.634,4.135,4.135,0,0,1-1,1.312c-.4.4-.681,1.02-1.211,1.241a4.7,4.7,0,0,1-1.733.07" transform="translate(43.854 50.495)" fill="#fff"/>
    </g>
    <g id="그룹_1356" data-name="그룹 1356" transform="translate(63.081 -51.333)">
      <path id="패스_4465" data-name="패스 4465" d="M10.519.093Q-10.372-.033-31.264-.149c-3.046-.018-6.144-.423-9.184-.163A4.052,4.052,0,0,0-43.234.719a6.206,6.206,0,0,0-1.4,2.853c-.635,2.579-.356,5.256-.324,7.881.042,3.447.011,6.894.074,10.341.111,5.969.162,11.916.043,17.886-.067,3.3-.137,6.593-.171,9.89-.028,2.635-.382,5.5.591,8.011a7.53,7.53,0,0,0,4.324,4.5c1.857.686,4.082.465,6.034.5q7.039.135,14.076.2c9.426.1,18.855.18,28.281.088q1.112-.011,2.221-.028a.66.66,0,0,0,0-1.32c-8.481.144-16.97.057-25.452-.012q-7.289-.059-14.577-.166-3.084-.046-6.169-.111c-2.1-.044-4.186.012-5.823-1.53a7.533,7.533,0,0,1-2.214-5.3c-.063-3.35.043-6.711.1-10.061.11-5.873.287-11.748.18-17.622-.116-6.33-.129-12.666-.287-18.995-.048-1.878.01-4.722,1.474-6.131.8-.771,2.267-.641,3.3-.649,1.514-.011,3.026.09,4.537.158,3.189.143,6.392.085,9.584.1l10.142.059,20.309.116,4.895.03a.66.66,0,0,0,0-1.32" transform="translate(45.095 0.399)" fill="#231d1c"/>
    </g>
    <g id="그룹_1357" data-name="그룹 1357" transform="translate(11.427 -35.093)">
      <path id="패스_4466" data-name="패스 4466" d="M3.3.019C5.719.036,16.824-.552,16.766.943c-.017,1.1-1.829,3.542-.317,4.152,13.177,4.485,12.148,20.84.392,26.441-.313.133-.667.344-.668.666-.6,3.322-14.758,3.389-19.51,1.051a.759.759,0,0,1-.39-.567c-.359-2.05-6.366-2.341-9.114-8.507a14.474,14.474,0,0,1-.319-11.273A12.707,12.707,0,0,1-6.706,6.311c.591-.3,1.413-.371,1.86-.89a1.1,1.1,0,0,0-.086-1.258,11.931,11.931,0,0,1-.848-2.955c-.025-.34.306-.444.577-.544C-2.948-.21.817.728,3.233.029Z" transform="translate(14.157 0.081)" fill="#fff"/>
    </g>
    <g id="그룹_1358" data-name="그룹 1358" transform="translate(11.903 -34.453)">
      <path id="패스_4467" data-name="패스 4467" d="M5.749.048Q-5.123-.439-16.011.016a1.134,1.134,0,0,0-.715.195c-.524.46.111,1.244.455,1.852a2.981,2.981,0,0,1-.516,3.2A14.7,14.7,0,0,1-19.4,7.482,13.778,13.778,0,0,0-24.636,17.63a12.706,12.706,0,0,0,4.722,10.326c3.161,2.474,7.327,3.208,11.327,3.531A73.02,73.02,0,0,0,4.62,31.351" transform="translate(24.645 0.204)" fill="#fff"/>
    </g>
    <g id="그룹_1359" data-name="그룹 1359" transform="translate(21.987 -2.725)">
      <path id="패스_4468" data-name="패스 4468" d="M0,0C.786,1.28,2.391,1.761,3.868,2.042A34.9,34.9,0,0,0,17.7,1.878" fill="#fff"/>
    </g>
    <g id="그룹_1360" data-name="그룹 1360" transform="translate(79.343 -41.808)">
      <path id="패스_4469" data-name="패스 4469" d="M2.543,0A4.3,4.3,0,0,1,3.7.213a10.944,10.944,0,0,0,2.01.08c.75.027,1.424.162,1.464,1.056-.222.228-.577.91-.475,1.128a13.78,13.78,0,0,1,1.9.3,11.691,11.691,0,0,1,1.819.667,10.106,10.106,0,0,1,1.629,1.03,9.534,9.534,0,0,1,1.4,1.294,9.786,9.786,0,0,1,1.164,1.5,10.915,10.915,0,0,1,.967,1.651,12.7,12.7,0,0,1,.712,1.794,15.347,15.347,0,0,1,.137,1.928,16.53,16.53,0,0,1,.307,1.908,18.671,18.671,0,0,1-.166,1.924c-.067.631-.324,1.237-.454,1.872s-.154,1.274-.339,1.893c-.22.614-.413,1.237-.631,1.85s-.425,1.231-.64,1.846-.4,1.241-.6,1.857-.384,1.243-.577,1.863-.482,1.216-.66,1.841-.342,1.257-.5,1.888-.215,1.285-.348,1.921-.342,1.259-.445,1.9-.277,1.278-.348,1.925-.112,1.3-.146,1.952.112,1.3.12,1.955.073,1.328.125,1.983A4.628,4.628,0,0,1,9.4,44.079a12.9,12.9,0,0,1-1.872.544c-.6.137-1.271.086-1.94.171-.631.08-1.268.245-1.921.271s-1.307.059-1.946.027A16.813,16.813,0,0,1-.23,44.944a9.485,9.485,0,0,1-1.838-.649A4.457,4.457,0,0,1-3.7,43.316a2.423,2.423,0,0,1-.84-1.729,15.451,15.451,0,0,0,.3-1.883,16.2,16.2,0,0,0-.044-1.9,18.719,18.719,0,0,0-.128-1.9c-.1-.625-.319-1.225-.471-1.844s-.216-1.253-.408-1.862-.432-1.191-.65-1.791-.511-1.16-.745-1.754-.334-1.233-.575-1.823-.628-1.116-.863-1.706-.364-1.223-.587-1.818-.4-1.206-.6-1.808-.4-1.206-.564-1.818-.453-1.2-.576-1.823a18.91,18.91,0,0,1-.155-1.9,18.2,18.2,0,0,1-.3-1.888,14.312,14.312,0,0,1,.213-1.9,12.578,12.578,0,0,1,.331-1.873,11.051,11.051,0,0,1,.629-1.8A10.085,10.085,0,0,1-8.7,6.888,9.746,9.746,0,0,1-7.384,5.52,10.272,10.272,0,0,1-5.956,4.251a12.364,12.364,0,0,1,1.794-.663,13.443,13.443,0,0,1,1.76-.7A15.655,15.655,0,0,1-.573,2.41a.605.605,0,0,0,.064-.261C-.764,1.861-.747,1.161-.764.671A2.606,2.606,0,0,1,.815.226,5.794,5.794,0,0,0,2.543,0" transform="translate(10.903 0)" fill="#ff7266"/>
    </g>
    <g id="그룹_1362" data-name="그룹 1362" transform="translate(91.226 -39.243)">
      <path id="패스_4471" data-name="패스 4471" d="M0,0,4.827.158" fill="#fff"/>
    </g>
  </g>
</svg>
