<svg xmlns="http://www.w3.org/2000/svg" width="59.508" height="45.627" viewBox="0 0 59.508 45.627">
  <g id="그룹_1130" data-name="그룹 1130" transform="translate(1.997 2)">
    <g id="그룹_1133" data-name="그룹 1133">
      <g id="그룹_1132" data-name="그룹 1132" transform="translate(0 0)" style="isolation: isolate">
        <g id="그룹_1131" data-name="그룹 1131" transform="translate(0 0)">
          <g id="그룹_1134" data-name="그룹 1134">
            <g id="패스_3004" data-name="패스 3004" transform="translate(0.001 0)" fill="#fac213" stroke-linecap="round" stroke-linejoin="round" fill-rule="evenodd">
              <path d="M 28.84428977966309 42.62674713134766 C 22.95804977416992 42.62679672241211 17.48736000061035 41.85742568969727 14.56710052490234 40.61886596679688 L 14.51171112060547 40.59537887573242 L 14.4595308303833 40.56540679931641 C 14.0887451171875 40.35245513916016 13.58154106140137 39.98184204101562 13.43986129760742 39.21981048583984 C 13.4249210357666 39.15960311889648 13.33518409729004 38.96126174926758 12.80431079864502 38.61843872070312 C 12.2722806930542 38.27487564086914 11.51386070251465 37.92240524291992 10.63568019866943 37.51428604125977 C 9.186410903930664 36.84074783325195 7.382760524749756 36.00251770019531 5.647140502929688 34.74814605712891 C 3.579680681228638 33.25394821166992 2.037150621414185 31.48881721496582 0.9314106702804565 29.35190773010254 C -1.473990321159363 24.65697479248047 -1.644057273864746 19.16627883911133 0.4853220283985138 15.01616382598877 C 2.304079532623291 11.33224868774414 5.653017044067383 8.376542091369629 9.917259216308594 6.69099760055542 C 10.26074886322021 6.542389392852783 10.61927604675293 6.441109657287598 10.9661808013916 6.343117237091064 C 11.39715957641602 6.221374988555908 11.84125423431396 6.095917701721191 12.0864953994751 5.914986610412598 C 12.06469917297363 5.856239318847656 12.01816368103027 5.756962299346924 11.91903018951416 5.606826782226562 L 11.89030075073242 5.563316822052002 L 11.86625099182129 5.517046928405762 C 11.34363079071045 4.511726856231689 10.70437049865723 2.715996980667114 10.5857105255127 1.645136952400208 L 10.58419036865234 1.631407022476196 L 10.58305072784424 1.617647051811218 C 10.53827095031738 1.077587008476257 10.78395080566406 0.5901970267295837 11.25711059570312 0.2804570198059082 C 11.51864051818848 0.1092370077967644 11.80219078063965 0.02022700756788254 12.03003025054932 -0.05129299312829971 L 12.0713996887207 -0.06430822610855103 C 13.46683883666992 -0.5277755856513977 15.12613964080811 -0.5903429985046387 16.56579971313477 -0.5903429985046387 C 17.1966609954834 -0.5903429985046387 17.8464412689209 -0.5761129856109619 18.47482109069824 -0.5623430013656616 C 19.09284973144531 -0.5487930178642273 19.73192024230957 -0.5347930192947388 20.34189987182617 -0.5347830057144165 C 20.34202766418457 -0.5347830057144165 20.34222602844238 -0.5347830057144165 20.34235191345215 -0.5347830057144165 C 21.38284683227539 -0.5347830057144165 22.71611404418945 -0.5693458914756775 23.80096054077148 -0.8388530015945435 L 23.85683059692383 -0.8527330160140991 L 23.91392135620117 -0.8601129651069641 L 24.00974082946777 -0.8724929690361023 L 24.07662010192871 -0.8811330199241638 L 24.14405059814453 -0.8807129859924316 C 24.19149971008301 -0.8804230093955994 24.24147033691406 -0.880282998085022 24.29386138916016 -0.880282998085022 C 24.89927101135254 -0.880282998085022 25.85398101806641 -0.8993729948997498 26.95944023132324 -0.92147296667099 C 28.7061710357666 -0.9563930034637451 30.88003158569336 -0.9998530149459839 33.07585144042969 -0.9998530149459839 C 41.44680023193359 -0.9998530149459839 42.77516937255859 -0.3449629843235016 43.36318969726562 0.2688769996166229 C 43.62586975097656 0.5430966019630432 43.76364517211914 0.8911027312278748 43.7520751953125 1.250266790390015 C 43.73710250854492 1.885255932807922 43.42181777954102 2.5761559009552 43.08814239501953 3.307317018508911 C 42.88729095458984 3.74744701385498 42.67959213256836 4.202547073364258 42.56515121459961 4.592516899108887 C 42.45338821411133 4.973330020904541 42.48165512084961 5.119319438934326 42.48962783813477 5.147771835327148 C 42.50387191772461 5.159886837005615 42.54421997070312 5.186233520507812 42.62094116210938 5.214701652526855 C 44.7927360534668 5.85382604598999 46.76872634887695 6.711806297302246 48.49436950683594 7.765027046203613 C 50.15716171264648 8.779867172241211 51.59886169433594 9.982047080993652 52.7794189453125 11.3381872177124 C 55.03324890136719 13.92718696594238 56.31640243530273 17.05611610412598 56.49016189575195 20.38671684265137 C 56.58314895629883 22.16925621032715 56.35820007324219 23.97023773193359 55.82154083251953 25.73961639404297 C 55.28353881835938 27.51343727111816 54.44297027587891 29.21906661987305 53.32318115234375 30.80912780761719 C 50.97093200683594 34.14922714233398 47.48171997070312 36.83642578125 43.23276901245117 38.58022689819336 L 43.21789169311523 38.58633804321289 L 43.20281982421875 38.59195709228516 C 43.04953765869141 38.6491813659668 42.95315933227539 38.69572067260742 42.89463424682617 38.7283935546875 C 42.54505920410156 40.155029296875 40.89982604980469 41.17020416259766 37.86941909790039 41.83009719848633 C 35.51034164428711 42.34379577636719 32.30514907836914 42.62671661376953 28.84428977966309 42.62674713134766 Z" stroke="none"/>
              <path d="M 33.07590866088867 0.000141143798828125 C 29.33048439025879 0.00014495849609375 25.59487915039062 0.1282310485839844 24.13788986206055 0.1192665100097656 L 24.04206085205078 0.1316452026367188 C 21.95623016357422 0.6498146057128906 19.14388656616211 0.4096183776855469 16.56583404541016 0.4096488952636719 C 15.01618194580078 0.4096717834472656 13.55082321166992 0.496490478515625 12.37979125976562 0.8869857788085938 C 12.00127029418945 1.006687164306641 11.54608917236328 1.130508422851562 11.57963180541992 1.535007476806641 C 11.68025207519531 2.443065643310547 12.26000213623047 4.106468200683594 12.75352096557617 5.055797576904297 C 13.05059051513672 5.505706787109375 13.30932235717773 6.08355712890625 12.8733024597168 6.554096221923828 C 12.25521087646484 7.173225402832031 11.11965179443359 7.255775451660156 10.30031967163086 7.614875793457031 C 6.165351867675781 9.245258331298828 3.055728912353516 12.06436729431152 1.378742218017578 15.46545791625977 C -0.7150993347167969 19.53933715820312 -0.307830810546875 24.74003791809082 1.819549560546875 28.89233779907227 C 5.619129180908203 36.23523712158203 13.9226188659668 36.58194732666016 14.42092895507812 39.02544784545898 C 14.47362899780273 39.32676696777344 14.62696075439453 39.50837707519531 14.95756149291992 39.69823837280273 C 21.52656555175781 42.48432922363281 41.09464263916016 42.40590667724609 41.93313980102539 38.44759750366211 C 41.93313980102539 38.06373596191406 42.42185974121094 37.81607818603516 42.85308837890625 37.65510559082031 C 59.10551071166992 30.98500823974609 60.52856063842773 11.50714683532715 42.31166076660156 6.166107177734375 C 40.22261047363281 5.439666748046875 42.72850799560547 2.533878326416016 42.75247192382812 1.221317291259766 C 42.79573059082031 0.215057373046875 37.92742538452148 0.00012969970703125 33.07590866088867 0.000141143798828125 M 33.07590103149414 -1.999862670898438 L 33.07591247558594 -1.999862670898438 C 35.72823333740234 -1.999874114990234 37.79334259033203 -1.936752319335938 39.38925170898438 -1.806922912597656 C 42.05371856689453 -1.590141296386719 43.32649230957031 -1.215034484863281 44.08531951904297 -0.422882080078125 C 44.53432464599609 0.04584121704101562 44.77028274536133 0.647918701171875 44.75176239013672 1.275718688964844 C 44.73161697387695 2.114658355712891 44.37514114379883 2.895839691162109 43.99787902832031 3.722496032714844 C 43.90547180175781 3.924991607666016 43.77093124389648 4.219802856445312 43.662109375 4.489795684814453 C 45.62146759033203 5.124259948730469 47.41907501220703 5.937198638916016 49.01533126831055 6.911445617675781 C 50.76560974121094 7.979686737060547 52.28578948974609 9.248146057128906 53.53366088867188 10.68158721923828 C 55.93561935424805 13.44074630737305 57.30327987670898 16.77870750427246 57.48879241943359 20.3346061706543 C 57.58784103393555 22.23315620422363 57.34886169433594 24.14931678771973 56.77849197387695 26.02985763549805 C 56.20949935913086 27.90584564208984 55.32204055786133 29.70755767822266 54.14076995849609 31.38490676879883 C 51.69485092163086 34.8580322265625 48.08630752563477 37.6518669128418 43.70023727416992 39.46913909912109 C 43.34169006347656 40.32415771484375 42.62425994873047 41.04635620117188 41.55976104736328 41.62164688110352 C 40.67900848388672 42.09763717651367 39.50899124145508 42.49651718139648 38.08219909667969 42.80721664428711 C 35.65528106689453 43.33569717407227 32.37453079223633 43.62674713134766 28.84430122375488 43.62674713134766 C 24.13264083862305 43.62674713134766 17.80516052246094 43.07841873168945 14.17663955688477 41.53947830200195 C 14.10287094116211 41.50818634033203 14.03104019165039 41.47248840332031 13.96154022216797 41.43258666992188 C 13.19911956787109 40.99472427368164 12.71135330200195 40.38980865478516 12.50849914550781 39.63182067871094 C 12.15165328979492 39.3215217590332 11.0410041809082 38.80537033081055 10.21424102783203 38.42113876342773 C 7.217399597167969 37.02838897705078 2.688549041748047 34.92363739013672 0.04327011108398438 29.81147766113281 C 0.04203033447265625 29.80908584594727 0.04079055786132812 29.80668640136719 0.03956985473632812 29.80428695678711 C -2.506977081298828 24.83384323120117 -2.677913665771484 18.99667167663574 -0.4076156616210938 14.56591415405273 C 1.520023345947266 10.66683769226074 5.049324035644531 7.543506622314453 9.535018920898438 5.766811370849609 C 9.934585571289062 5.595443725585938 10.33690643310547 5.481739044189453 10.69325637817383 5.381084442138672 C 10.20435333251953 4.281978607177734 9.704704284667969 2.774181365966797 9.591800689697266 1.755275726318359 C 9.589771270751953 1.736965179443359 9.587989807128906 1.7186279296875 9.586471557617188 1.700275421142578 C 9.511550903320312 0.7966880798339844 9.931320190429688 -0.04685211181640625 10.70936965942383 -0.5562019348144531 C 11.08687973022461 -0.8033332824707031 11.47420120239258 -0.9249229431152344 11.73049926757812 -1.005382537841797 L 11.76433944702148 -1.016025543212891 C 13.29301834106445 -1.521949768066406 15.04875183105469 -1.59033203125 16.56579971313477 -1.590351104736328 C 17.20761108398438 -1.590362548828125 17.86291122436523 -1.575992584228516 18.49663162231445 -1.562103271484375 C 19.10930252075195 -1.548683166503906 19.74283218383789 -1.534793853759766 20.34189224243164 -1.534793853759766 C 21.3255500793457 -1.534793853759766 22.58026123046875 -1.566001892089844 23.55987167358398 -1.809352874755859 C 23.63431167602539 -1.827854156494141 23.70975112915039 -1.842044830322266 23.78582000732422 -1.851871490478516 L 23.88164901733398 -1.864253997802734 C 23.97064208984375 -1.875743865966797 24.0603141784668 -1.881301879882812 24.15003967285156 -1.880691528320312 C 24.19559097290039 -1.880424499511719 24.24357223510742 -1.880283355712891 24.29386138916016 -1.880283355712891 C 24.88930130004883 -1.880283355712891 25.83945083618164 -1.899284362792969 26.93962097167969 -1.921272277832031 C 28.69078063964844 -1.956283569335938 30.87016105651855 -1.999851226806641 33.07590103149414 -1.999862670898438 Z" stroke="none" fill="#000"/>
            </g>
          </g>
        </g>
      </g>
    </g>
  </g>
</svg>
