<svg id="그룹_1219" data-name="그룹 1219" xmlns="http://www.w3.org/2000/svg" xmlns:xlink="http://www.w3.org/1999/xlink" width="32.051" height="20.825" viewBox="0 0 32.051 20.825">
  <defs>
    <clipPath id="clip-path">
      <rect id="사각형_1974" data-name="사각형 1974" width="32.051" height="20.825" transform="translate(0 0)" fill="#fff"/>
    </clipPath>
  </defs>
  <g id="그룹_1218" data-name="그룹 1218" clip-path="url(#clip-path)">
    <path id="패스_4140" data-name="패스 4140" d="M10.524.034c7.1,0,14.15-.242,21.13.6.461.063.492.464.24.781-.961,1.22-1.972.885-3.309,1.044-1.308.4-2.585.08-3.977.1-.339.048-.47.4-.572.672-.172.522.142,1.226.219,1.7a17.748,17.748,0,0,0,.24,2.2,69.243,69.243,0,0,1,2.129,8.611,11.249,11.249,0,0,1,.909,3.89c-.033.332-.136.321-.285.355-2.5.571-18.7,1.562-21.718-.048-.538-.285-.556-.576-.337-1.057,1.378-3.652,1.239-8.3,2.233-12.082A19.211,19.211,0,0,0,7.9,4.214a1.536,1.536,0,0,0-.217-1.069,1.815,1.815,0,0,0-1.524-.422,9.732,9.732,0,0,1-1.25.054c-1.576-.157-3.927.3-4.8-1.3-.1-.187-.2-.479.028-.593A9.747,9.747,0,0,1,3.149.568a15.919,15.919,0,0,1,3.935-.4A11.648,11.648,0,0,0,10.472.043Z" fill="#fff" fill-rule="evenodd"/>
  </g>
</svg>
