<svg xmlns="http://www.w3.org/2000/svg" xmlns:xlink="http://www.w3.org/1999/xlink" width="27.013" height="20.757" viewBox="0 0 27.013 20.757">
  <defs>
    <clipPath id="clip-path">
      <rect id="사각형_1973" data-name="사각형 1973" width="27.013" height="20.757" fill="#fff"/>
    </clipPath>
  </defs>
  <g id="그룹_1217" data-name="그룹 1217" transform="translate(0 0)">
    <g id="그룹_1216" data-name="그룹 1216" transform="translate(0 0)" clip-path="url(#clip-path)">
      <path id="패스_4139" data-name="패스 4139" d="M25.776,17.545C20.632,20.993-1.481,24.114.079,13.1c.349-2.006,1.578-2.9,3.459-3.279.243-.088.726-.127.8-.414,0-.107-.17-.217-.414-.311C2.424,8.706.861,8.405.6,6.308c-.4-1.346-.3-2.661.876-3.433C7.616-1.063,15.151-.232,21.959,1.129a9.926,9.926,0,0,1,3.775,2.1c1.206.656,1.242,2.627.978,3.876C26.349,8.469,25.1,9,23.9,9.45c-.451.193-.577.5-.073.773,2.755,1.122,4.454,4.783,2,7.269Z" transform="translate(0 0)" fill="#fff" fill-rule="evenodd"/>
    </g>
  </g>
</svg>
