<svg width="34" height="34" viewBox="0 0 34 34" fill="none" xmlns="http://www.w3.org/2000/svg">
<g id="btn/list btn-40">
<rect id="Rectangle 128" x="3" y="3" width="28" height="28" rx="10" fill="#C02727"/>
<g id="Group 177634">
<g id="Icon feather-trash-2">
<path id="&#237;&#140;&#168;&#236;&#138;&#164; 1" d="M10 12.4277H24" stroke="white" stroke-width="1.5" stroke-linecap="round" stroke-linejoin="round"/>
<path id="&#237;&#140;&#168;&#236;&#138;&#164; 2" d="M22.4446 12.4275V23.3164C22.4446 23.729 22.2807 24.1246 21.9889 24.4164C21.6972 24.7081 21.3016 24.872 20.889 24.872H13.1112C12.6987 24.872 12.303 24.7081 12.0113 24.4164C11.7196 24.1246 11.5557 23.729 11.5557 23.3164V12.4275M13.889 12.4275V10.872C13.889 10.4594 14.0529 10.0637 14.3446 9.77202C14.6363 9.48029 15.032 9.31641 15.4446 9.31641H18.5557C18.9682 9.31641 19.3639 9.48029 19.6556 9.77202C19.9473 10.0637 20.1112 10.4594 20.1112 10.872V12.4275" stroke="white" stroke-width="1.5" stroke-linecap="round" stroke-linejoin="round"/>
<path id="&#237;&#140;&#168;&#236;&#138;&#164; 3" d="M15.4434 16.3174V20.9841" stroke="white" stroke-width="1.5" stroke-linecap="round" stroke-linejoin="round"/>
<path id="&#237;&#140;&#168;&#236;&#138;&#164; 4" d="M18.5557 16.3174V20.9841" stroke="white" stroke-width="1.5" stroke-linecap="round" stroke-linejoin="round"/>
</g>
</g>
</g>
</svg>
