<svg width="28" height="28" viewBox="0 0 28 28" fill="none" xmlns="http://www.w3.org/2000/svg">
<rect width="28" height="28" rx="10" fill="#1E254B"/>
<path d="M19.8442 13.9982C19.8445 13.6342 19.955 13.2788 20.1614 12.9789C20.3677 12.6789 20.6601 12.4486 21 12.3181C20.8241 11.583 20.5325 10.8805 20.1361 10.2368C19.9053 10.3387 19.6558 10.3916 19.4035 10.3923C19.1035 10.3927 18.8082 10.3181 18.5445 10.1752C18.2807 10.0324 18.0569 9.8258 17.8935 9.57433C17.73 9.32286 17.6321 9.0345 17.6087 8.73552C17.5852 8.43654 17.637 8.13645 17.7593 7.86259C17.1165 7.46669 16.4148 7.17552 15.6805 7C15.5503 7.34008 15.3199 7.63264 15.0198 7.83903C14.7197 8.04541 14.364 8.15591 13.9997 8.15591C13.6355 8.15591 13.2798 8.04541 12.9797 7.83903C12.6796 7.63264 12.4492 7.34008 12.319 7C11.5837 7.17588 10.881 7.46739 10.2371 7.86363C10.3594 8.13749 10.4111 8.43758 10.3877 8.73655C10.3642 9.03553 10.2663 9.32389 10.1029 9.57536C9.93945 9.82683 9.71566 10.0334 9.45192 10.1763C9.18817 10.3192 8.89286 10.3938 8.59289 10.3933C8.34035 10.3945 8.09051 10.3414 7.86022 10.2378C7.46723 10.8837 7.17703 11.5867 7 12.3217C7.33988 12.452 7.63229 12.6822 7.83868 12.9819C8.04508 13.2817 8.15577 13.6369 8.15616 14.0008C8.15656 14.3647 8.04663 14.7202 7.84089 15.0204C7.63514 15.3206 7.34322 15.5514 7.00363 15.6824C7.17956 16.4175 7.47114 17.12 7.86748 17.7637C8.19959 17.6163 8.56858 17.5729 8.92583 17.6393C9.28309 17.7057 9.61185 17.8787 9.8688 18.1356C10.1257 18.3925 10.2988 18.7211 10.3652 19.0783C10.4316 19.4355 10.3882 19.8044 10.2407 20.1364C10.8849 20.532 11.5875 20.8235 12.3226 21C12.4529 20.661 12.6829 20.3694 12.9823 20.1637C13.2817 19.9581 13.6365 19.848 13.9997 19.848C14.363 19.848 14.7178 19.9581 15.0172 20.1637C15.3166 20.3694 15.5466 20.661 15.6769 21C16.4122 20.8241 17.1149 20.5326 17.7587 20.1364C17.6125 19.8044 17.57 19.4359 17.6368 19.0793C17.7036 18.7228 17.8767 18.3947 18.1333 18.1382C18.3899 17.8816 18.718 17.7086 19.0747 17.6418C19.4314 17.575 19.7999 17.6175 20.132 17.7637C20.5277 17.1197 20.8193 16.4173 20.9959 15.6824C20.6567 15.55 20.3655 15.3185 20.16 15.018C19.9546 14.7175 19.8445 14.3621 19.8442 13.9982ZM14.0327 16.9105C13.4558 16.9105 12.8919 16.7395 12.4123 16.419C11.9326 16.0986 11.5588 15.6432 11.338 15.1104C11.1173 14.5776 11.0595 13.9913 11.172 13.4257C11.2846 12.8601 11.5624 12.3405 11.9703 11.9327C12.3782 11.5249 12.8979 11.2472 13.4637 11.1347C14.0294 11.0222 14.6159 11.0799 15.1488 11.3006C15.6818 11.5213 16.1373 11.895 16.4578 12.3746C16.7783 12.8541 16.9493 13.4178 16.9493 13.9946C16.9495 14.3775 16.8741 14.7568 16.7276 15.1106C16.5811 15.4644 16.3662 15.7859 16.0954 16.0567C15.8245 16.3275 15.5029 16.5423 15.149 16.6888C14.7951 16.8353 14.4157 16.9106 14.0327 16.9105Z" stroke="white" stroke-width="1.3" stroke-linejoin="round"/>
</svg>
