<svg width="46" height="14" viewBox="0 0 46 14" fill="none" xmlns="http://www.w3.org/2000/svg">
<circle cx="23" cy="7" r="4" fill="#5B626B"/>
<path opacity="0.5" d="M23 0C26.1709 0 28.8483 2.10867 29.709 5H39.5V4.40234C39.5 3.63254 40.3333 3.15123 41 3.53613L45.5 6.13379C46.1667 6.51869 46.1667 7.48131 45.5 7.86621L41 10.4639C40.3333 10.8488 39.5 10.3675 39.5 9.59766V9H29.709C28.8483 11.8913 26.1709 14 23 14C19.8291 14 17.1517 11.8913 16.291 9H6.5V9.59766C6.5 10.3675 5.66667 10.8488 5 10.4639L0.5 7.86621C-0.166667 7.48131 -0.166667 6.51869 0.5 6.13379L5 3.53613C5.66667 3.15123 6.5 3.63254 6.5 4.40234V5H16.291C17.1517 2.10867 19.8291 6.76401e-06 23 0Z" fill="#5B626B"/>
</svg>
