<svg width="20" height="20" viewBox="0 0 20 20" fill="none" xmlns="http://www.w3.org/2000/svg">
<path d="M18.0528 0H1.94724C0.871809 0 0 0.87181 0 1.94724V18.0528C0 19.1282 0.871809 20 1.94724 20H18.0528C19.1282 20 20 19.1282 20 18.0528V1.94724C20 0.87181 19.1282 0 18.0528 0Z" fill="#1E254B"/>
<path d="M13.5703 4.90039H8.78639C8.58761 4.90027 8.39098 4.94159 8.20906 5.0217C8.02713 5.10182 7.86391 5.21898 7.72979 5.3657L5.37309 7.94783C5.13301 8.21139 4.99996 8.55508 5 8.9116V13.669C4.99992 13.8568 5.03685 14.0427 5.10867 14.2162C5.18049 14.3897 5.2858 14.5473 5.41857 14.6801C5.55135 14.8129 5.70898 14.9182 5.88248 14.99C6.05597 15.0618 6.24192 15.0988 6.42969 15.0987H13.5703C13.7581 15.0988 13.944 15.0618 14.1175 14.99C14.291 14.9182 14.4487 14.8129 14.5814 14.6801C14.7142 14.5473 14.8195 14.3897 14.8913 14.2162C14.9632 14.0427 15.0001 13.8568 15 13.669V6.33008C15.0001 6.14231 14.9632 5.95636 14.8913 5.78287C14.8195 5.60938 14.7142 5.45174 14.5814 5.31896C14.4487 5.18619 14.291 5.08088 14.1175 5.00906C13.944 4.93724 13.7581 4.90031 13.5703 4.90039ZM6.42849 9.54568C6.42865 9.36749 6.4995 9.19664 6.6255 9.07065C6.7515 8.94465 6.92235 8.87379 7.10054 8.87363H12.85C13.0284 8.87363 13.1994 8.94447 13.3255 9.07056C13.4516 9.19665 13.5224 9.36766 13.5224 9.54598C13.5224 9.7243 13.4516 9.89532 13.3255 10.0214C13.1994 10.1475 13.0284 10.2183 12.85 10.2183H7.10054C6.92224 10.2182 6.7513 10.1472 6.62529 10.0211C6.49927 9.89498 6.42849 9.72398 6.42849 9.54568ZM12.8989 13.1579H7.14936C6.97104 13.1579 6.80002 13.087 6.67393 12.961C6.54784 12.8349 6.47701 12.6638 6.47701 12.4855C6.47701 12.3072 6.54784 12.1362 6.67393 12.0101C6.80002 11.884 6.97104 11.8132 7.14936 11.8132H12.8989C13.0772 11.8132 13.2482 11.884 13.3743 12.0101C13.5004 12.1362 13.5712 12.3072 13.5712 12.4855C13.5712 12.6638 13.5004 12.8349 13.3743 12.961C13.2482 13.087 13.0772 13.1579 12.8989 13.1579Z" fill="white"/>
</svg>
