<svg width="34" height="34" viewBox="0 0 34 34" fill="none" xmlns="http://www.w3.org/2000/svg">
<rect width="34" height="34" fill="#212121"/>
<g id="menu3-camp-people" clip-path="url(#clip0_0_1)">
<rect width="1920" height="975" transform="translate(-1803 -437)" fill="#F2F4F5"/>
<g id="Rectangle 106" filter="url(#filter0_d_0_1)">
<rect x="-1533" y="-63" width="1600" height="551" rx="20" fill="white"/>
</g>
<rect id="Rectangle 1343" opacity="0.5" x="-1533" y="-14" width="1600" height="61" fill="#F2F4F5"/>
<g id="Group 177768">
<g id="btn">
<g id="btn/list btn-40">
<rect id="Rectangle 128" x="3" y="3" width="28" height="28" rx="10" fill="#1E254B"/>
<path id="Icon ionic-ios-settings" d="M22.8442 16.9982C22.8445 16.6342 22.955 16.2788 23.1614 15.9789C23.3677 15.6789 23.6601 15.4486 24 15.3181C23.8241 14.583 23.5325 13.8805 23.1361 13.2368C22.9053 13.3387 22.6558 13.3916 22.4035 13.3923C22.1035 13.3927 21.8082 13.3181 21.5445 13.1752C21.2807 13.0324 21.0569 12.8258 20.8935 12.5743C20.73 12.3229 20.6321 12.0345 20.6087 11.7355C20.5852 11.4365 20.637 11.1364 20.7593 10.8626C20.1165 10.4667 19.4148 10.1755 18.6805 10C18.5503 10.3401 18.3199 10.6326 18.0198 10.839C17.7197 11.0454 17.364 11.1559 16.9997 11.1559C16.6355 11.1559 16.2798 11.0454 15.9797 10.839C15.6796 10.6326 15.4492 10.3401 15.319 10C14.5837 10.1759 13.881 10.4674 13.2371 10.8636C13.3594 11.1375 13.4111 11.4376 13.3877 11.7366C13.3642 12.0355 13.2663 12.3239 13.1029 12.5754C12.9395 12.8268 12.7157 13.0334 12.4519 13.1763C12.1882 13.3192 11.8929 13.3938 11.5929 13.3933C11.3404 13.3945 11.0905 13.3414 10.8602 13.2378C10.4672 13.8837 10.177 14.5867 10 15.3217C10.3399 15.452 10.6323 15.6822 10.8387 15.9819C11.0451 16.2817 11.1558 16.6369 11.1562 17.0008C11.1566 17.3647 11.0466 17.7202 10.8409 18.0204C10.6351 18.3206 10.3432 18.5514 10.0036 18.6824C10.1796 19.4175 10.4711 20.12 10.8675 20.7637C11.1996 20.6163 11.5686 20.5729 11.9258 20.6393C12.2831 20.7057 12.6119 20.8787 12.8688 21.1356C13.1257 21.3925 13.2988 21.7211 13.3652 22.0783C13.4316 22.4355 13.3882 22.8044 13.2407 23.1364C13.8849 23.532 14.5875 23.8235 15.3226 24C15.4529 23.661 15.6829 23.3694 15.9823 23.1637C16.2817 22.9581 16.6365 22.848 16.9997 22.848C17.363 22.848 17.7178 22.9581 18.0172 23.1637C18.3166 23.3694 18.5466 23.661 18.6769 24C19.4122 23.8241 20.1149 23.5326 20.7587 23.1364C20.6125 22.8044 20.57 22.4359 20.6368 22.0793C20.7036 21.7228 20.8767 21.3947 21.1333 21.1382C21.3899 20.8816 21.718 20.7086 22.0747 20.6418C22.4314 20.575 22.7999 20.6175 23.132 20.7637C23.5277 20.1197 23.8193 19.4173 23.9959 18.6824C23.6567 18.55 23.3655 18.3185 23.16 18.018C22.9546 17.7175 22.8445 17.3621 22.8442 16.9982ZM17.0327 19.9105C16.4558 19.9105 15.8919 19.7395 15.4123 19.419C14.9326 19.0986 14.5588 18.6432 14.338 18.1104C14.1173 17.5776 14.0595 16.9913 14.172 16.4257C14.2846 15.8601 14.5624 15.3405 14.9703 14.9327C15.3782 14.5249 15.8979 14.2472 16.4637 14.1347C17.0294 14.0222 17.6159 14.0799 18.1488 14.3006C18.6818 14.5213 19.1373 14.895 19.4578 15.3746C19.7783 15.8541 19.9493 16.4178 19.9493 16.9946C19.9495 17.3775 19.8741 17.7568 19.7276 18.1106C19.5811 18.4644 19.3662 18.7859 19.0954 19.0567C18.8245 19.3275 18.5029 19.5423 18.149 19.6888C17.7951 19.8353 17.4157 19.9106 17.0327 19.9105Z" stroke="white" stroke-width="1.3" stroke-linejoin="round"/>
</g>
</g>
</g>
<g id="Group 177745">
<g id="Group 177744">
<g id="Group 177507">
<g id="Rectangle 25" filter="url(#filter1_d_0_1)">
<rect x="-56" y="31" width="90" height="96" rx="20" fill="white"/>
<rect x="-55.5" y="31.5" width="89" height="95" rx="19.5" stroke="#EAEDEF"/>
</g>
</g>
</g>
</g>
</g>
<defs>
<filter id="filter0_d_0_1" x="-1558" y="-88" width="1650" height="601" filterUnits="userSpaceOnUse" color-interpolation-filters="sRGB">
<feFlood flood-opacity="0" result="BackgroundImageFix"/>
<feColorMatrix in="SourceAlpha" type="matrix" values="0 0 0 0 0 0 0 0 0 0 0 0 0 0 0 0 0 0 127 0" result="hardAlpha"/>
<feOffset/>
<feGaussianBlur stdDeviation="12.5"/>
<feComposite in2="hardAlpha" operator="out"/>
<feColorMatrix type="matrix" values="0 0 0 0 0.780392 0 0 0 0 0.807843 0 0 0 0 0.835294 0 0 0 0.5 0"/>
<feBlend mode="normal" in2="BackgroundImageFix" result="effect1_dropShadow_0_1"/>
<feBlend mode="normal" in="SourceGraphic" in2="effect1_dropShadow_0_1" result="shape"/>
</filter>
<filter id="filter1_d_0_1" x="-73" y="14" width="130" height="136" filterUnits="userSpaceOnUse" color-interpolation-filters="sRGB">
<feFlood flood-opacity="0" result="BackgroundImageFix"/>
<feColorMatrix in="SourceAlpha" type="matrix" values="0 0 0 0 0 0 0 0 0 0 0 0 0 0 0 0 0 0 127 0" result="hardAlpha"/>
<feOffset dx="3" dy="3"/>
<feGaussianBlur stdDeviation="10"/>
<feComposite in2="hardAlpha" operator="out"/>
<feColorMatrix type="matrix" values="0 0 0 0 0.533333 0 0 0 0 0.533333 0 0 0 0 0.533333 0 0 0 0.05 0"/>
<feBlend mode="normal" in2="BackgroundImageFix" result="effect1_dropShadow_0_1"/>
<feBlend mode="normal" in="SourceGraphic" in2="effect1_dropShadow_0_1" result="shape"/>
</filter>
<clipPath id="clip0_0_1">
<rect width="1920" height="975" fill="white" transform="translate(-1803 -437)"/>
</clipPath>
</defs>
</svg>
