<svg width="38" height="38" viewBox="0 0 38 38" fill="none" xmlns="http://www.w3.org/2000/svg">
<mask id="mask0_635_6076" style="mask-type:alpha" maskUnits="userSpaceOnUse" x="0" y="0" width="38" height="38">
<rect width="38" height="38" fill="#D9D9D9"/>
</mask>
<g mask="url(#mask0_635_6076)">
<path d="M31.1838 18.9971C31.1841 18.4251 31.3579 17.8667 31.6821 17.3953C32.0064 16.924 32.4658 16.562 33 16.357C32.7235 15.2018 32.2653 14.0979 31.6425 13.0864C31.2798 13.2465 30.8877 13.3297 30.4912 13.3308C30.0198 13.3314 29.5557 13.2142 29.1413 12.9897C28.7268 12.7652 28.3752 12.4405 28.1183 12.0454C27.8615 11.6502 27.7076 11.1971 27.6708 10.7272C27.6339 10.2574 27.7153 9.78585 27.9074 9.3555C26.8973 8.73336 25.7947 8.27581 24.6408 8C24.4361 8.53441 24.0741 8.99415 23.6025 9.31847C23.1309 9.64279 22.572 9.81642 21.9996 9.81642C21.4272 9.81642 20.8683 9.64279 20.3967 9.31847C19.9251 8.99415 19.563 8.53441 19.3584 8C18.2029 8.27638 17.0986 8.73447 16.0869 9.35713C16.279 9.78748 16.3604 10.259 16.3235 10.7289C16.2867 11.1987 16.1328 11.6518 15.876 12.047C15.6191 12.4422 15.2675 12.7668 14.853 12.9913C14.4386 13.2158 13.9745 13.3331 13.5031 13.3324C13.1063 13.3342 12.7137 13.2508 12.3518 13.088C11.7342 14.103 11.2782 15.2077 11 16.3627C11.5341 16.5674 11.9936 16.9291 12.3179 17.4002C12.6423 17.8712 12.8162 18.4295 12.8168 19.0013C12.8174 19.5732 12.6447 20.1318 12.3214 20.6035C11.9981 21.0752 11.5394 21.4379 11.0057 21.6438C11.2822 22.799 11.7404 23.9029 12.3632 24.9144C12.8851 24.6828 13.4649 24.6146 14.0263 24.7189C14.5877 24.8232 15.1043 25.0951 15.5081 25.4988C15.9119 25.9024 16.1839 26.4189 16.2882 26.9802C16.3925 27.5414 16.3243 28.1211 16.0926 28.6429C17.1048 29.2646 18.2089 29.7226 19.3641 30C19.5688 29.4673 19.9303 29.0091 20.4008 28.6859C20.8713 28.3627 21.4287 28.1897 21.9996 28.1897C22.5705 28.1897 23.1279 28.3627 23.5984 28.6859C24.0689 29.0091 24.4304 29.4673 24.6351 30C25.7906 29.7236 26.8948 29.2655 27.9066 28.6429C27.6767 28.1212 27.6099 27.5422 27.715 26.9818C27.82 26.4215 28.0919 25.906 28.4952 25.5028C28.8984 25.0997 29.414 24.8278 29.9745 24.7228C30.535 24.6178 31.1141 24.6846 31.636 24.9144C32.2578 23.9024 32.716 22.7986 32.9935 21.6438C32.4606 21.4357 32.0029 21.0719 31.68 20.5997C31.3572 20.1276 31.1842 19.5691 31.1838 18.9971ZM22.0513 23.5736C21.1448 23.5736 20.2587 23.3049 19.505 22.8014C18.7512 22.2979 18.1638 21.5822 17.8169 20.745C17.47 19.9077 17.3792 18.9864 17.5561 18.0975C17.7329 17.2087 18.1694 16.3922 18.8104 15.7514C19.4514 15.1106 20.2681 14.6741 21.1572 14.4973C22.0462 14.3205 22.9678 14.4113 23.8053 14.7581C24.6428 15.1049 25.3586 15.6922 25.8622 16.4457C26.3659 17.1993 26.6347 18.0852 26.6347 18.9914C26.6349 19.5932 26.5165 20.1892 26.2862 20.7452C26.056 21.3012 25.7184 21.8065 25.2927 22.232C24.8671 22.6575 24.3617 22.995 23.8056 23.2252C23.2494 23.4554 22.6533 23.5738 22.0513 23.5736Z" stroke="#9DA4AD" stroke-width="2"/>
</g>
</svg>
