<svg width="537" height="513" viewBox="0 0 537 513" fill="none" xmlns="http://www.w3.org/2000/svg">
<path d="M340.094 418.64L336.994 416.97L330.214 414.37C329.984 414.28 329.784 414.16 329.594 414L325.484 410.34L325.104 410.18L322.624 411.38C322.354 411.51 322.054 411.58 321.754 411.58H312.874C312.774 411.58 312.674 411.58 312.584 411.56L308.144 410.9C307.694 410.83 307.274 410.61 306.964 410.28L303.894 406.95L302.084 406.01H297.004C295.904 406.01 295.004 405.11 295.004 404.01V399.17L293.294 396.76C293.054 396.42 292.924 396.02 292.924 395.6V390.41C292.924 390.03 293.034 389.66 293.234 389.35L295.004 386.53V377.21L290.734 373.27C290.324 372.89 290.094 372.36 290.094 371.8V369.16C290.094 368.79 290.194 368.44 290.384 368.12L292.124 365.25L292.334 364.46L291.634 363.06C291.494 362.78 291.424 362.48 291.424 362.17V358.1L289.874 356.81C289.754 356.71 289.644 356.59 289.544 356.47L284.994 350.34L283.124 348.4H282.854L281.874 350.06C281.604 350.52 281.164 350.85 280.654 350.98C280.144 351.11 279.594 351.03 279.134 350.76L277.854 350.01C277.454 349.78 277.154 349.41 276.994 348.98L275.954 346.15C275.874 345.93 275.834 345.7 275.834 345.46V334.79C275.834 334.68 275.834 334.58 275.864 334.47L276.334 331.54C276.414 331.06 276.654 330.63 277.024 330.32L279.704 328.09L280.304 326.64L279.484 324.52L278.844 323.11L274.064 321.86C273.804 321.79 273.564 321.68 273.354 321.51L260.314 311.52H257.324C256.984 311.52 256.654 311.43 256.354 311.27L253.734 309.81L245.444 315.42C245.114 315.64 244.724 315.76 244.324 315.76H238.514L237.854 316.93C237.504 317.56 236.834 317.95 236.114 317.95H232.424L228.804 323.65V326.22C228.804 326.9 228.454 327.54 227.874 327.91L224.284 330.19V338.95C224.284 339.75 223.804 340.48 223.064 340.79L220.464 341.88C220.214 341.98 219.954 342.04 219.684 342.04C219.294 342.04 218.904 341.93 218.574 341.7L207.994 334.65H205.754L204.804 335.43C204.444 335.72 203.994 335.88 203.534 335.88H201.194L201.004 337.39C200.944 337.85 200.734 338.27 200.404 338.59L197.114 341.75L196.404 346.04L195.594 351.71C195.544 352.07 195.394 352.4 195.174 352.68L193.524 354.73V357.19L195.054 360.34C195.114 360.47 195.164 360.61 195.204 360.75L195.894 363.66L197.984 367.17C198.164 367.48 198.264 367.83 198.264 368.19V372.06C198.264 373.16 197.364 374.06 196.264 374.06H181.564L178.834 376.87L177.454 378.5C177.074 378.95 176.514 379.21 175.924 379.21H174.184L173.534 381.56V388.43C173.534 389.53 172.634 390.43 171.534 390.43H168.684L161.184 399.21C160.804 399.65 160.244 399.91 159.664 399.91H156.474L155.524 402.47C155.464 402.62 155.394 402.76 155.304 402.89L149.444 411.61C149.384 411.7 149.314 411.79 149.234 411.88L145.454 415.84V418.4C145.454 418.8 145.334 419.19 145.114 419.52L144.124 420.99L143.814 424.11C143.794 424.35 143.724 424.58 143.624 424.79L141.584 428.97C141.254 429.66 140.554 430.09 139.784 430.09H133.204C132.564 430.09 131.964 429.78 131.584 429.27L129.524 426.44L125.964 426.15L121.784 428.29C121.614 428.38 121.434 428.44 121.244 428.47L118.664 428.96L114.004 431.94L114.474 433.43L113.624 436.4C113.604 436.48 113.584 436.57 113.584 436.65L113.364 445.85L110.534 446.79C110.114 446.93 109.834 447.34 109.854 447.78L110.204 455.47C110.214 455.69 110.294 455.91 110.444 456.08L112.134 458.05L111.214 460.16C111.164 460.27 111.134 460.4 111.134 460.52L111.014 463.55C111.014 463.73 111.054 463.91 111.134 464.07L112.984 467.42L115.394 472.11L117.494 477.35C117.534 477.46 117.594 477.55 117.674 477.64L120.004 480.29L120.454 490.31C120.474 490.84 120.914 491.27 121.454 491.27H125.374L128.684 495.86C128.764 495.97 128.864 496.07 128.984 496.14L134.694 499.52C134.864 499.62 135.064 499.66 135.274 499.66L145.764 498.96C145.834 498.96 145.904 498.94 145.974 498.92L148.454 498.2L152.344 499.6C152.664 499.71 153.004 499.66 153.274 499.46L157.454 496.38L159.854 496.3L160.624 498.02C160.694 498.18 160.814 498.33 160.964 498.43L164.144 500.66L164.764 503.35L165.924 507.78C165.984 508.01 166.124 508.21 166.324 508.35L172.734 512.78C172.904 512.9 173.104 512.96 173.304 512.96H176.104C176.354 512.96 176.594 512.87 176.784 512.69L181.304 508.5L184.624 507.17C184.914 507.05 185.134 506.81 185.214 506.5L186.134 503.14L189.624 501.81C189.854 501.72 190.044 501.55 190.154 501.34L191.944 497.87L195.374 494.44L199.014 492.05C199.394 491.8 199.564 491.32 199.414 490.89L198.014 486.81C197.994 486.75 197.964 486.69 197.934 486.64L196.074 483.38C195.904 483.08 195.584 482.89 195.244 482.88L192.614 482.79L189.714 476.03C189.714 476.03 189.674 475.95 189.654 475.91L185.924 469.62C185.804 469.41 185.604 469.26 185.384 469.18L180.024 467.39L179.184 461.59C179.154 461.38 179.064 461.19 178.914 461.04L172.614 454.42L175.344 450.62L182.614 443.35L191.414 439.24L198.694 435.94L201.744 435.84L203.674 437.36C203.854 437.5 204.074 437.57 204.294 437.57H208.374C208.614 437.57 208.834 437.49 209.014 437.34L211.644 435.13H215.514L216.734 437.01C216.914 437.29 217.234 437.47 217.574 437.47H221.984L228.574 443.06C228.754 443.21 228.984 443.3 229.224 443.3H243.934L245.014 444.47L247.844 452.06L248.494 454V458.5C248.494 458.72 248.564 458.94 248.704 459.12L252.684 464.21V467.08L249.924 470.05C249.754 470.24 249.654 470.48 249.654 470.73V473.88C249.654 474.18 249.794 474.47 250.024 474.66L252.684 476.81V483.32C252.684 483.63 252.824 483.92 253.064 484.11L265.994 494.25C266.174 494.39 266.384 494.46 266.614 494.46H279.434L288.334 504.83C288.524 505.05 288.804 505.18 289.094 505.18H293.194L295.144 506.62C295.314 506.75 295.524 506.82 295.734 506.82H303.584L304.134 508.09C304.294 508.45 304.654 508.69 305.054 508.69H309.484C309.994 508.69 310.424 508.3 310.474 507.79L310.944 503.25C310.984 502.86 310.794 502.49 310.464 502.29L308.624 501.18V490.97L312.704 486.79H319.154C319.704 486.79 320.154 486.34 320.154 485.79V481.31H323.954L336.024 490.22L337.674 492.64C337.864 492.91 338.174 493.08 338.504 493.08H342.234C342.624 493.08 342.974 492.86 343.134 492.51L344.994 488.55C345.054 488.42 345.094 488.27 345.094 488.12V483.11C345.094 482.9 345.034 482.7 344.904 482.53L342.764 479.53V463.65C342.764 463.37 342.644 463.1 342.434 462.91L340.314 460.99V458.75L342.554 455.88C342.694 455.7 342.774 455.47 342.764 455.24L342.644 450C342.644 449.89 342.624 449.79 342.584 449.68L341.014 445.3V441.32L342.144 440.09C342.314 439.91 342.404 439.67 342.414 439.42L342.524 428.3L343.394 426.68L340.854 420.85L340.044 418.72L340.094 418.64Z" fill="#343787"/>
<path opacity="0.6" d="M117.573 425.07L120.243 424.56L124.673 422.29C125.003 422.12 125.373 422.04 125.743 422.08L130.793 422.49C131.373 422.54 131.903 422.83 132.253 423.31L134.253 426.06H138.563L139.893 423.33L140.213 420.07C140.243 419.74 140.363 419.42 140.543 419.15L141.473 417.77V415.02C141.473 414.51 141.673 414.01 142.023 413.64L146.233 409.23L151.863 400.85L153.203 397.2C153.493 396.41 154.243 395.89 155.083 395.89H158.753L166.263 387.11C166.643 386.67 167.203 386.41 167.783 386.41H169.553V381.27C169.553 381.09 169.573 380.91 169.623 380.74L170.743 376.66C170.983 375.79 171.773 375.19 172.673 375.19H175.013L175.843 374.21C175.843 374.21 175.903 374.14 175.933 374.11L179.293 370.64C179.673 370.25 180.183 370.03 180.733 370.03H194.283V368.71L192.323 365.41C192.223 365.24 192.143 365.05 192.093 364.85L191.383 361.85L189.743 358.48C189.613 358.21 189.543 357.91 189.543 357.61V353.99C189.543 353.53 189.703 353.09 189.983 352.74L191.733 350.57L192.473 345.4L193.293 340.41C193.363 339.98 193.573 339.59 193.883 339.29L197.143 336.16L197.353 334.47L190.453 326.28C190.153 325.92 189.983 325.46 189.983 324.99V319.41C189.983 319.29 189.993 319.18 190.013 319.07L191.193 312.31C191.203 312.23 191.223 312.16 191.243 312.08L192.053 309.37L190.623 305.79C190.533 305.55 190.483 305.3 190.483 305.05V298.26L186.863 295.48C186.703 295.36 186.563 295.21 186.453 295.05L180.703 286.93C180.473 286.6 180.343 286.22 180.333 285.82L180.173 279.19L174.593 268.62C174.523 268.49 174.473 268.35 174.433 268.21L173.003 262.98L168.993 259.89H164.773L160.923 264.82C160.773 265.01 160.603 265.16 160.403 265.29L155.023 268.63L152.163 274.69C151.893 275.27 151.363 275.68 150.733 275.8L148.753 276.18L146.293 279.58L145.503 282.09C145.363 282.53 145.073 282.92 144.683 283.17L140.933 285.59L138.453 288.56C138.073 289.02 137.513 289.28 136.913 289.28H129.613C129.203 289.28 128.813 289.16 128.473 288.92L118.643 282.11L116.393 281.62H110.733C110.033 281.62 109.383 281.25 109.023 280.65L108.273 279.39H107.143L106.113 280.31C105.743 280.64 105.273 280.81 104.783 280.81H102.643C101.703 280.81 100.923 280.17 100.703 279.3H99.0334L97.4634 280.68C97.1034 281 96.6334 281.18 96.1434 281.18H90.9734L88.9834 283.37L86.9534 285.4L86.2934 289.06V291.64C86.2934 292.4 85.8634 293.09 85.1834 293.43L78.4534 296.85V303.31C78.4534 304.03 78.0734 304.69 77.4434 305.05L75.3234 306.26L72.4834 310.17V318.81C72.4834 319.55 72.0834 320.22 71.4334 320.57L69.0134 321.87V325.93C69.0134 326.38 68.8634 326.82 68.5834 327.17L66.1834 330.2L63.7834 333.54L63.9134 334.33C64.0434 335.09 63.7134 335.86 63.0834 336.3L56.7534 340.71L56.6534 340.88L52.4034 343.9C52.2234 344.03 52.0934 344.21 52.0234 344.42L50.7934 348.33L45.4234 355.3C45.3134 355.44 45.2434 355.61 45.2234 355.78L43.7534 367.09L41.0834 369.76C40.9434 369.9 40.8534 370.07 40.8134 370.26L39.9234 374.38L38.7534 376.08C38.5434 376.38 38.5234 376.76 38.6834 377.09L41.5934 383.03C41.6234 383.1 41.6734 383.17 41.7234 383.23L46.5234 389.04L47.0834 398.38C47.1034 398.78 47.3734 399.13 47.7434 399.26L53.2834 401.22L56.4734 402.77L57.4834 405.61L58.5334 408.99C58.6034 409.2 58.7334 409.39 58.9134 409.51L63.5734 412.77C63.7434 412.89 63.9434 412.95 64.1434 412.95H68.2234C68.5034 412.95 68.7734 412.83 68.9634 412.62L70.8834 410.5H74.0034L76.1534 413.46C76.2234 413.56 76.3134 413.64 76.4134 413.71L80.4934 416.39C80.6034 416.46 80.7234 416.51 80.8434 416.53L85.0934 417.38L88.8234 423.09C88.8734 423.17 88.9334 423.24 89.0034 423.3L92.6134 426.45C92.8234 426.63 93.1034 426.72 93.3834 426.69L99.7934 425.99C99.8734 425.99 99.9534 425.96 100.033 425.93L104.603 424.22L107.263 423.76L110.043 427.78C110.123 427.89 110.223 427.99 110.333 428.06L111.483 428.77L116.833 425.35C117.043 425.21 117.283 425.12 117.543 425.07H117.573Z" fill="#343787"/>
<path opacity="0.6" d="M169.404 170.47L170.454 174.51L177.204 181.26L181.204 182.8C182.114 183.15 182.634 184.1 182.444 185.05L181.174 191.56L182.274 196.24L184.804 198.35C185.074 198.57 185.274 198.86 185.394 199.19L187.104 203.8H196.094L197.714 202.3C198.084 201.96 198.564 201.77 199.074 201.77H204.314C205.184 201.77 205.964 202.34 206.224 203.17L207.024 205.7L211.684 214.86C211.834 215.16 211.914 215.5 211.904 215.84L211.454 227.43L214.984 228.37C215.374 228.47 215.724 228.69 215.984 228.99L218.554 231.97L219.724 231.91L220.694 230.29C221.114 229.59 221.904 229.22 222.714 229.34L227.004 230L241.444 230.63L250.554 222.18C251.054 221.71 251.764 221.54 252.424 221.71L256.554 222.81L259.924 221.99C260.074 221.95 260.234 221.93 260.394 221.93H262.204C262.894 221.93 263.544 222.29 263.904 222.88L271.454 235.12C271.654 235.44 271.754 235.8 271.754 236.17V240.27C271.754 240.45 271.724 240.64 271.674 240.82L271.014 243.13V247.27L277.114 254.46H277.334L278.234 252.79C278.394 252.5 278.624 252.25 278.904 252.06L280.524 251.01L279.954 247.25C279.884 246.78 279.984 246.3 280.234 245.9L284.854 238.41C284.894 238.34 284.944 238.28 284.994 238.22L290.384 231.43C290.614 231.14 290.924 230.92 291.274 230.79L294.204 229.74C294.384 229.68 294.564 229.64 294.754 229.63L296.434 229.52V223.02C296.434 222.64 296.544 222.28 296.734 221.96L306.604 206.19L306.444 205.69L304.294 205.11C303.424 204.87 302.824 204.08 302.824 203.18V195.6L300.334 196.91C299.394 197.41 298.234 197.08 297.684 196.18L292.654 187.85H289.714C288.774 187.85 287.954 187.19 287.754 186.26L286.694 181.23C286.664 181.09 286.654 180.96 286.654 180.82V177.33L285.074 176.25L281.584 175.18C281.054 175.02 280.614 174.64 280.374 174.15L278.244 169.79C278.164 169.63 278.114 169.47 278.074 169.3L276.434 161.02L272.724 156.78C272.404 156.41 272.224 155.95 272.224 155.46V151.4C272.224 150.67 272.624 149.99 273.274 149.64L274.554 148.95V148.27L273.284 147.5C272.684 147.14 272.324 146.49 272.324 145.79V136.11L270.784 135.06C270.604 134.94 270.444 134.79 270.314 134.61L266.674 129.79L261.684 126.8C261.084 126.44 260.714 125.79 260.714 125.09V121.58L259.714 117.87C259.664 117.7 259.644 117.53 259.644 117.35V109.48L259.534 109.33L258.634 109.53L254.914 112.36C254.344 112.79 253.584 112.89 252.934 112.61L248.774 110.87C248.264 110.66 247.864 110.24 247.674 109.72L246.704 107.11C246.504 106.57 246.544 105.98 246.814 105.48L250.644 98.27V95.67C250.644 95.53 250.664 95.38 250.694 95.24L251.254 92.68L250.654 90.88C250.584 90.68 250.554 90.46 250.554 90.25V86.28C250.554 85.9 250.664 85.52 250.874 85.2L255.784 77.57V73.82L248.504 67.24L243.324 64.56L238.554 65.33L233.274 66.29C232.734 66.39 232.174 66.26 231.734 65.93L225.544 61.38C224.974 60.96 224.664 60.26 224.734 59.55L225.024 56.84C225.024 56.76 225.044 56.69 225.064 56.61L225.954 52.65L222.854 47.46L219.564 43.42L214.314 43.33L212.604 39.9C212.444 39.58 212.134 39.38 211.784 39.35L207.314 39.02C206.944 38.99 206.584 39.17 206.394 39.49L204.204 42.99H198.714L193.874 40.5L187.454 36.44C187.114 36.23 186.684 36.23 186.354 36.46L178.664 41.75C178.394 41.94 178.234 42.25 178.234 42.57V47.14C178.234 47.48 178.414 47.81 178.704 47.99L182.084 50.1V68.3C182.084 68.7 182.324 69.06 182.694 69.22L187.134 71.12V73.59C187.134 73.8 187.194 74 187.324 74.17L189.274 76.89L184.144 82.79C184.044 82.91 183.964 83.05 183.934 83.2L180.204 97.86C180.184 97.95 180.174 98.05 180.174 98.15L180.414 103.92C180.414 104.15 180.514 104.38 180.674 104.55L184.994 109.33L185.214 115.41L180.834 123.07H168.434C167.884 123.07 167.434 123.52 167.434 124.07V134.38L164.314 139.72L156.804 144.88C156.534 145.07 156.374 145.38 156.374 145.7V153.15C156.374 153.28 156.394 153.41 156.444 153.53L158.884 159.52L157.184 161.99L168.564 169.29C168.984 169.56 169.294 169.98 169.424 170.47H169.404Z" fill="#343787"/>
<path opacity="0.4" d="M59.7135 333.39C59.6235 332.87 59.7535 332.33 60.0635 331.9L63.0035 327.8L65.0335 325.24V320.68C65.0335 319.94 65.4335 319.27 66.0835 318.92L68.5035 317.62V309.55C68.5035 309.14 68.6235 308.75 68.8635 308.41L69.6635 307.25L72.3635 303.56C72.5335 303.33 72.7435 303.14 72.9835 303.01L74.4735 302.16V295.66C74.4735 294.92 74.8835 294.24 75.5335 293.9L78.0235 292.56L82.3135 290.42V288.89C82.3135 288.77 82.3235 288.65 82.3435 288.54L83.1435 284.09C83.2135 283.69 83.4135 283.32 83.6935 283.03L86.0935 280.63L88.6035 277.85C88.9835 277.43 89.5235 277.19 90.0835 277.19H95.3835L96.9535 275.81C97.3135 275.49 97.7835 275.31 98.2735 275.31H102.633C103.423 275.31 104.113 275.77 104.433 276.44L105.043 275.9C105.413 275.57 105.883 275.4 106.373 275.4H109.403C110.103 275.4 110.753 275.77 111.113 276.37L111.863 277.63H116.603C116.743 277.63 116.893 277.65 117.033 277.68L119.883 278.3C120.143 278.36 120.383 278.46 120.593 278.61L130.233 285.29H135.973L138.043 282.8C138.173 282.64 138.323 282.51 138.493 282.4L141.893 280.21L142.563 278.08C142.623 277.88 142.723 277.68 142.853 277.51L145.973 273.21C146.273 272.8 146.713 272.52 147.213 272.42L148.983 272.08L151.663 266.41C151.823 266.06 152.093 265.77 152.413 265.57L157.993 262.11L162.223 256.69C162.603 256.2 163.183 255.92 163.803 255.92H169.683C170.123 255.92 170.553 256.07 170.903 256.34L175.983 260.26C176.323 260.53 176.573 260.9 176.693 261.32L178.233 266.99L183.553 277.07L188.573 278.74H194.633L198.623 276.37L198.763 271.72C198.793 270.64 199.683 269.78 200.763 269.78H214.623C215.163 269.78 215.683 270 216.063 270.39L221.413 275.9L227.513 279.02L230.663 278.66L237.943 271.98L243.043 264.1L246.933 258.18L246.783 251.36C246.773 250.9 246.923 250.44 247.213 250.08L249.113 247.68L248.703 246.27L243.133 240.54C242.943 240.35 242.793 240.12 242.703 239.86L240.743 234.65L226.733 234.03C226.663 234.03 226.593 234.02 226.513 234.01L223.443 233.54L222.613 234.92C222.273 235.49 221.663 235.85 221.003 235.89L217.793 236.06C217.183 236.1 216.583 235.84 216.173 235.37L213.363 232.12L208.883 230.93C207.983 230.69 207.363 229.85 207.403 228.92L207.893 216.25L203.393 207.4C203.343 207.3 203.303 207.2 203.263 207.09L202.853 205.8H199.863L198.243 207.3C197.873 207.64 197.393 207.83 196.883 207.83H185.723C184.883 207.83 184.143 207.31 183.843 206.53L181.833 201.11L179.203 198.91C178.873 198.63 178.633 198.25 178.533 197.83L177.183 192.08C177.123 191.8 177.113 191.52 177.163 191.24L178.193 185.95L175.363 184.86C175.103 184.76 174.863 184.61 174.663 184.41L167.223 176.97C166.973 176.72 166.793 176.4 166.703 176.06L165.713 172.25L153.733 164.56L151.843 165.73L141.353 170.98L136.163 172.4C136.053 172.43 135.953 172.48 135.853 172.54L130.763 176.08L115.633 170.26C115.303 170.13 114.933 170.19 114.653 170.41L109.843 174.17L103.013 166.9C102.833 166.71 102.583 166.6 102.323 166.59L96.3135 166.35C95.9335 166.32 95.5635 166.55 95.3835 166.89L91.6235 174.18L86.0335 179.09H81.8435C81.5535 179.09 81.2735 179.22 81.0835 179.44L78.5835 182.4L75.6635 183.75C75.5435 183.81 75.4235 183.89 75.3335 183.99L67.1635 193.12C67.0635 193.23 66.9935 193.36 66.9535 193.5L65.2835 198.98L63.1435 203.98C63.0535 204.19 63.0435 204.41 63.0935 204.63L65.0135 211.84C65.0435 211.94 65.0835 212.03 65.1335 212.11L67.2835 215.56L65.7535 220.16C65.7235 220.24 65.7135 220.33 65.7035 220.42L65.4635 224.75C65.4635 224.92 65.4835 225.08 65.5535 225.23L67.1035 228.55L65.9935 234.75L63.2335 238.66C63.1135 238.83 63.0535 239.03 63.0535 239.24V244.97H58.1235L51.4435 234.15C51.2535 233.84 50.9335 233.65 50.5535 233.68L45.7135 233.89L43.1035 227.79C43.1035 227.79 43.0735 227.72 43.0535 227.69L41.0135 224.07V219.52C41.0135 219.24 40.9035 218.98 40.6935 218.79L36.8435 215.18C36.6735 215.02 36.4435 214.92 36.2035 214.91L31.1735 214.68L18.6535 206.89C18.3035 206.67 17.8635 206.69 17.5335 206.94L10.0835 212.47C10.0335 212.51 9.98346 212.55 9.93346 212.6L5.36346 217.65C5.27346 217.75 5.20346 217.86 5.16346 217.99L3.62346 222.38L0.613456 223.65C0.143456 223.85 -0.106544 224.37 0.0434561 224.86L1.22346 228.72L0.0534561 235.68C-0.00654385 236 0.103456 236.33 0.333456 236.56L4.70346 240.88L5.12346 244.21L3.95346 249.57C3.87346 249.94 4.01346 250.33 4.30346 250.56L13.5835 257.99L14.5035 267.91C14.5535 268.42 14.9835 268.82 15.5035 268.82H19.3435L20.6035 272.77L17.0435 275.71C16.8335 275.88 16.7035 276.13 16.6835 276.4L16.2035 282.41C16.1735 282.76 16.3335 283.1 16.6135 283.3L23.5835 288.35C23.7535 288.47 23.9635 288.54 24.1735 288.54H27.1235L28.2135 291.08L27.9835 295.17C27.9835 295.33 28.0035 295.48 28.0635 295.62L30.3035 300.76L29.3535 303.1C29.2935 303.25 29.2635 303.42 29.2835 303.58L29.7535 307.89C29.7635 308 29.7935 308.11 29.8435 308.22L35.5535 320.1C35.6035 320.2 35.6635 320.29 35.7335 320.36L39.9235 324.67C40.1035 324.86 40.3535 324.96 40.6135 324.97L43.9835 325.07L51.9635 335.53C52.1135 335.73 52.3435 335.87 52.5935 335.91L55.8635 336.45L59.7635 333.73L59.7035 333.37L59.7135 333.39Z" fill="#343787"/>
<path opacity="0.2" d="M373.053 56.24C373.053 56.61 372.953 56.97 372.763 57.28L370.743 60.6C370.383 61.2 369.733 61.56 369.033 61.56H367.083L365.783 63.18C365.723 63.26 365.653 63.33 365.583 63.4L359.993 68.57V72.43L361.153 72.92C361.893 73.23 362.373 73.96 362.373 74.76V79.92C362.373 81.02 361.473 81.92 360.373 81.92H359.403V83.72C359.403 84.13 359.273 84.53 359.043 84.86L356.253 88.86V101.1L357.464 102.91C357.684 103.24 357.803 103.62 357.803 104.02V107.13L358.833 107.6C359.543 107.93 360.003 108.64 360.003 109.42V117.75C360.003 118.85 359.103 119.75 358.003 119.75H356.473L350.043 123.61L348.663 127.66L349.253 134.01C349.303 134.6 349.104 135.18 348.684 135.6L340.273 144.13L331.563 153.2V160.59L334.893 163.83H340.733C341.233 163.83 341.713 164.02 342.083 164.36L350.543 172.12H353.283C353.813 172.12 354.323 172.33 354.693 172.71L359.083 177.1C359.463 177.48 359.673 177.98 359.673 178.51V184.6L362.863 186.34H366.973L367.893 185.67C368.233 185.42 368.643 185.29 369.073 185.29H379.353C379.863 185.29 380.353 185.49 380.723 185.84L385.464 190.32C385.674 190.52 385.833 190.76 385.943 191.02L387.653 195.24C387.653 195.24 387.683 195.32 387.693 195.36L390.823 204.75L395.523 215.06C395.644 215.32 395.703 215.6 395.703 215.89V225.66L397.263 227.04C397.693 227.42 397.943 227.97 397.943 228.54V233.58L399.333 234.58L400.833 233.68C401.143 233.49 401.503 233.39 401.863 233.39H405.023C405.473 233.39 405.913 233.54 406.273 233.83L418.653 243.71C419.133 244.09 419.403 244.67 419.403 245.27V248.96C419.403 249.32 419.303 249.68 419.113 249.99L417.813 252.15V253.39L417.903 253.42L424.093 248.98V246.06C424.093 245.73 424.173 245.4 424.333 245.11L428.823 236.85L427.903 235.17C427.743 234.88 427.653 234.54 427.653 234.21V228.94C427.653 228.51 427.793 228.09 428.053 227.74L429.633 225.64V220.29L427.663 219.04C427.083 218.67 426.733 218.04 426.733 217.35V214.98C426.733 214.47 426.933 213.97 427.283 213.6L429.363 211.41V206.41C429.363 206.2 429.394 205.98 429.464 205.78L430.783 201.83C430.993 201.21 431.493 200.73 432.123 200.54L439.443 198.42L442.343 192.49C442.573 192.03 442.963 191.67 443.443 191.49L449.643 189.21V180.18L448.063 178.13L447.434 173.27C447.383 172.85 447.073 172.51 446.663 172.42L442.983 171.6V169.11L445.913 165.41C446.123 165.15 446.183 164.79 446.073 164.47L445.083 161.49C444.983 161.19 444.743 160.95 444.443 160.85L440.993 159.75L440.843 150.04C440.843 149.81 440.753 149.58 440.603 149.4L437.464 145.76C437.284 145.55 437.023 145.43 436.753 145.41L427.093 144.96L426.953 140.1C426.933 139.56 426.493 139.13 425.953 139.13H414.493L411.214 137.08L411.063 133.14C411.063 133.04 411.043 132.94 411.003 132.85L408.523 125.74C408.434 125.49 408.253 125.28 408.013 125.17L403.703 123.09L402.623 114.26V108.7C402.623 108.62 402.623 108.55 402.593 108.47L401.293 102.96V97.12C401.293 96.94 401.243 96.76 401.153 96.61L398.803 92.64L402.493 86.03C402.604 85.82 402.643 85.59 402.603 85.36L401.464 79.36L404.163 78.75C404.473 78.68 404.733 78.46 404.863 78.17L406.603 74.06L409.434 71.39C409.644 71.2 409.754 70.92 409.743 70.64C409.743 70.36 409.613 70.09 409.393 69.91L406.223 67.2L405.934 63.96C405.894 63.52 405.563 63.15 405.123 63.07L400.613 62.2L397.964 52.06C397.904 51.82 397.753 51.61 397.533 51.47L392.403 48.16C392.283 48.08 392.153 48.04 392.023 48.01L386.893 47.18C386.653 47.14 386.403 47.19 386.193 47.33L383.773 48.89L378.733 47.31L378.203 46.61L373.043 51.77V56.28L373.053 56.24Z" fill="#343787"/>
<path opacity="0.2" d="M226.223 45.28L229.803 51.28C230.063 51.72 230.153 52.24 230.033 52.74L228.993 57.37L228.833 58.82L233.403 62.18L237.873 61.37L243.333 60.49C243.753 60.42 244.183 60.49 244.563 60.69L250.563 63.79C250.713 63.87 250.863 63.97 250.983 64.08L259.113 71.43C259.533 71.81 259.773 72.35 259.773 72.91V78.14C259.773 78.52 259.663 78.9 259.453 79.22L254.543 86.85V89.91L255.213 91.92C255.323 92.26 255.343 92.63 255.273 92.98L254.643 95.87V98.75C254.643 99.08 254.563 99.4 254.413 99.69L250.773 106.54L251.123 107.5L253.413 108.46L256.563 106.06C256.793 105.88 257.063 105.76 257.343 105.7L259.953 105.12C260.733 104.95 261.543 105.25 262.013 105.9L263.273 107.64C263.523 107.98 263.653 108.39 263.653 108.81V117.06L264.653 120.77C264.703 120.94 264.723 121.11 264.723 121.29V123.93L269.073 126.54C269.293 126.67 269.483 126.84 269.643 127.05L273.313 131.92L275.463 133.38C276.013 133.75 276.343 134.37 276.343 135.03V144.65L277.613 145.42C278.213 145.78 278.573 146.43 278.573 147.13V150.13C278.573 150.86 278.173 151.54 277.523 151.89L276.243 152.58V154.7L279.813 158.78C280.043 159.04 280.203 159.36 280.273 159.71L281.963 168.26L283.593 171.6L286.543 172.51C286.733 172.57 286.913 172.65 287.083 172.77L289.793 174.61C290.343 174.98 290.673 175.6 290.673 176.27V180.61L291.363 183.85H293.803C294.503 183.85 295.153 184.22 295.513 184.82L300.153 192.49L301.963 191.53C302.313 191.35 302.703 191.27 303.093 191.31L305.033 191.5C306.053 191.6 306.833 192.46 306.833 193.49V201.64L308.553 202.11C309.203 202.29 309.723 202.78 309.933 203.43L310.353 204.75L313.673 205.47C314.593 205.67 315.253 206.48 315.253 207.42V211.08L316.193 211.6V208.58C316.193 207.48 317.093 206.58 318.193 206.58H326.323C326.873 206.58 327.393 206.8 327.773 207.2L329.113 208.61H330.783L336.463 198.82L340.503 190.84C340.813 190.23 341.403 189.82 342.083 189.75L346.023 189.34L352.993 184.38C353.293 184.17 353.643 184.04 354.013 184.01L355.673 183.89V179.3L352.453 176.08H349.763C349.263 176.08 348.783 175.89 348.413 175.55L339.953 167.79H334.083C333.563 167.79 333.063 167.59 332.693 167.22L328.173 162.83C327.783 162.45 327.563 161.94 327.563 161.4V152.36C327.563 151.84 327.763 151.35 328.123 150.97L337.413 141.31L345.183 133.42L344.643 127.57C344.613 127.29 344.643 127.01 344.743 126.74L346.503 121.59C346.653 121.14 346.963 120.76 347.363 120.52L354.893 116C355.203 115.81 355.563 115.71 355.923 115.71H356.013V110.67L354.983 110.2C354.273 109.87 353.813 109.16 353.813 108.38V104.59L352.603 102.78C352.383 102.45 352.263 102.07 352.263 101.67V88.19C352.263 87.78 352.383 87.38 352.623 87.05L355.413 83.05V79.88C355.413 78.78 356.313 77.88 357.413 77.88H358.383V76.04L357.223 75.55C356.483 75.24 356.003 74.51 356.003 73.71V67.66C356.003 67.1 356.233 66.57 356.643 66.19L362.763 60.53L364.573 58.27C364.953 57.8 365.523 57.52 366.133 57.52H367.913L369.053 55.64V50.86C369.053 50.33 369.263 49.82 369.643 49.45L375.753 43.34L375.163 42.57L371.853 37.77C371.753 37.62 371.613 37.51 371.453 37.43L369.193 36.36L369.053 32.5C369.043 32.15 368.853 31.84 368.553 31.67L366.753 30.64L366.903 25.28C366.903 24.95 366.753 24.63 366.483 24.44L362.013 21.25L359.303 16.79C359.143 16.53 358.863 16.35 358.563 16.31L348.343 15.16L340.643 14.01L335.253 12.38C335.043 12.32 334.813 12.32 334.613 12.4L330.353 14.02L328.313 12.39C328.133 12.25 327.913 12.17 327.693 12.17H324.053C323.753 12.17 323.473 12.3 323.283 12.54L322.483 13.52L318.133 9.31C317.973 9.15 317.753 9.05 317.523 9.03L311.903 8.53C311.653 8.51 311.393 8.58 311.193 8.74L308.763 10.68L306.423 12.09L303.513 13.47L296.563 13L290.763 11.75L288.263 9.56L280.323 3.44C280.153 3.31 279.933 3.23 279.713 3.23H271.793L269.773 0.42C269.583 0.16 269.283 0 268.963 0H265.653C265.193 0 264.793 0.31 264.683 0.76L263.603 5.15L259.293 8.54L253.003 12.35L245.793 17.43L241.853 19.25L234.383 17.98C234.213 17.95 234.043 17.97 233.873 18.02L225.103 21.16C224.703 21.3 224.443 21.68 224.443 22.1V31.31L223.783 36.79L223.623 40.9L223.303 41.62L226.063 45C226.123 45.08 226.183 45.16 226.233 45.24L226.223 45.28Z" fill="#343787"/>
<path opacity="0.4" d="M504.503 378.77L501.323 373.52C501.323 373.52 501.273 373.43 501.243 373.38C500.923 372.74 500.383 371.63 500.173 370.93C499.913 370.4 498.683 368.32 497.783 366.79C495.523 362.96 495.173 362.33 495.043 361.88C494.933 361.66 494.603 361.12 494.223 360.56L490.523 359.64C489.833 359.47 489.283 358.93 489.083 358.25L485.913 347.07L480.663 345.2C480.193 345.03 479.803 344.7 479.573 344.26L478.463 342.19C478.403 342.08 478.353 341.96 478.323 341.85L477.043 337.76L474.783 334.78L470.273 331.22H460.183C459.453 331.22 458.783 330.82 458.433 330.18L456.783 327.17L453.703 327.75L452.263 329.19L450.103 331.75C449.903 331.99 449.643 332.18 449.363 332.3L447.423 333.13C447.153 333.25 446.873 333.31 446.573 333.29L442.163 333.16L440.913 333.49L439.433 338.62C439.403 338.72 439.363 338.82 439.323 338.91L436.553 344.86C436.503 344.97 436.443 345.07 436.383 345.16L434.443 347.93C434.223 348.25 433.913 348.5 433.543 348.64L431.463 349.47L428.233 350.95C427.863 351.12 427.463 351.17 427.063 351.1L419.193 349.74L413.273 349.63L412.733 353.55L414.023 356.49C414.223 356.94 414.243 357.46 414.093 357.93L413.263 360.42C413.163 360.71 413.003 360.98 412.783 361.2L410.843 363.14C410.583 363.4 410.243 363.59 409.883 363.67L405.733 364.64L402.203 365.59C401.883 365.68 401.543 365.68 401.223 365.6L393.293 363.72H389.383C389.063 363.72 388.743 363.64 388.453 363.49L385.553 361.97C385.163 361.77 384.853 361.45 384.673 361.05L382.703 356.88C380.403 356.23 378.133 355.73 377.433 355.77C377.413 355.77 377.393 355.78 377.373 355.79L373.643 356.62C372.713 356.83 371.753 356.34 371.373 355.46L369.573 351.31C369.503 351.15 369.453 350.99 369.433 350.81L368.053 341.68L367.083 334.89C367.003 334.3 367.183 333.7 367.583 333.26L370.893 329.62L370.813 329.41L368.173 328.09C367.953 327.98 367.763 327.83 367.593 327.66L364.413 324.2C364.073 323.83 363.883 323.35 363.883 322.85V318.29L363.333 317L359.903 312.94C359.593 312.58 359.433 312.12 359.433 311.65V308.03L358.763 308.12L357.193 310.53C356.823 311.1 356.193 311.44 355.523 311.44H346.533L340.283 314.18C340.033 314.29 339.753 314.35 339.483 314.35H332.933L330.063 315.91C329.893 316 329.713 316.07 329.533 316.11L320.543 318.05C320.083 318.15 319.593 318.08 319.173 317.86L315.773 316.03L309.203 314.23H303.583L302.403 315.25L301.343 317.61C301.123 318.1 300.713 318.48 300.203 318.67L297.163 319.78C296.943 319.86 296.713 319.9 296.483 319.9H294.733L288.093 323.23C287.813 323.37 287.513 323.44 287.203 323.44H283.423L284.403 325.97C284.593 326.45 284.583 326.98 284.383 327.46L283.283 330.11C283.163 330.41 282.963 330.67 282.713 330.88L280.233 332.95L279.903 334.98V345.14L280.023 345.47L280.053 345.42C280.413 344.81 281.073 344.44 281.773 344.44H284.043C284.583 344.44 285.103 344.66 285.483 345.05L288.033 347.69C288.093 347.75 288.153 347.82 288.203 347.89L292.693 353.93L294.773 355.67C295.233 356.05 295.493 356.61 295.493 357.21V361.74L296.323 363.4C296.543 363.83 296.593 364.33 296.473 364.8L296.003 366.59C295.953 366.78 295.883 366.95 295.783 367.12L294.183 369.76V370.97L298.453 374.91C298.863 375.29 299.093 375.82 299.093 376.38V387.15C299.093 387.53 298.983 387.9 298.783 388.21L297.013 391.03V395.01L298.723 397.42C298.963 397.76 299.093 398.16 299.093 398.58V402.06H302.663C302.983 402.06 303.303 402.14 303.583 402.28L306.133 403.6C306.343 403.71 306.523 403.85 306.683 404.02L309.513 407.09L313.103 407.63H321.373L324.263 406.23C324.793 405.98 325.403 405.96 325.943 406.2L327.453 406.86C327.643 406.94 327.823 407.06 327.983 407.2L332.053 410.83L338.603 413.34C338.683 413.37 338.763 413.41 338.833 413.44L342.703 415.52C343.133 415.75 343.453 416.12 343.623 416.57L344.663 419.31L347.103 424.9L348.893 424.39H354.113L357.493 425.03C357.493 425.03 357.573 425.04 357.613 425.05L362.413 425.38C362.483 425.38 362.553 425.38 362.623 425.38L364.293 425.14L367.583 430.38C367.643 430.47 367.703 430.55 367.783 430.61L372.733 434.77L375.693 441.31V444.73C375.693 445 375.803 445.26 375.993 445.44C376.183 445.63 376.453 445.72 376.713 445.73L385.123 445.57L386.283 447.2V449.86C386.283 450.41 386.723 450.85 387.263 450.86L398.013 451.03H398.033C398.423 451.03 398.773 450.8 398.943 450.45L400.473 447.14L402.663 448.41C402.813 448.5 402.993 448.54 403.163 448.54H406.693L408.153 454.08C408.233 454.36 408.423 454.6 408.693 454.73L412.413 456.5L417.793 459.76L423.023 464.51L424.753 468.61C424.853 468.85 425.043 469.03 425.273 469.14L431.783 472L434.113 475.63V478.48C434.113 478.99 434.503 479.42 435.013 479.48L439.813 479.98C439.813 479.98 439.893 479.98 439.943 479.98L446.063 479.81C446.253 479.81 446.433 479.75 446.593 479.64L453.573 474.94L456.633 477.58C456.683 477.62 456.743 477.66 456.803 477.7L464.203 481.81L474.783 488.42C475.053 488.59 475.373 488.62 475.673 488.51L481.793 486.19C482.133 486.06 482.373 485.76 482.433 485.4L483.763 476.23L484.403 467.56L486.573 464.3C486.683 464.14 486.743 463.94 486.743 463.75V459.12C486.743 458.93 486.693 458.74 486.583 458.58L484.063 454.64L483.783 451.95L485.863 445.87C485.913 445.74 485.923 445.6 485.913 445.45L485.683 442.9H491.533C491.823 442.9 492.093 442.78 492.283 442.56L496.083 438.26C496.173 438.16 496.243 438.03 496.283 437.9L497.353 434.55L501.253 431.43C501.493 431.24 501.633 430.95 501.633 430.65V425.69C501.633 425.42 501.523 425.17 501.343 424.98L498.763 422.4L497.603 420.65L496.323 414.71C496.293 414.58 496.243 414.45 496.163 414.34L492.583 409.33L499.923 403.57L505.943 404.5C506.003 404.51 506.073 404.52 506.143 404.51L509.783 404.34C509.863 404.34 509.933 404.32 510.013 404.3L514.643 402.98C514.893 402.91 515.103 402.74 515.233 402.52L517.053 399.38C517.153 399.21 517.203 399 517.183 398.8L516.683 392.18C516.673 392.03 516.623 391.89 516.553 391.76L513.973 387.24L512.353 380.91L505.913 379.72C505.353 379.62 504.863 379.28 504.563 378.79L504.503 378.77Z" fill="#343787"/>
<path opacity="0.4" d="M536.264 253.64L531.324 237.02L527.354 217.33C527.264 216.87 526.864 216.54 526.394 216.53L513.224 216.21L511.024 214.01C510.834 213.82 510.584 213.72 510.314 213.72H501.384C501.154 213.72 500.934 213.8 500.754 213.94L498.784 215.54L493.464 210.52C493.284 210.35 493.054 210.26 492.814 210.25L488.304 210.09L477.614 202.91L479.824 196.86C479.904 196.65 479.904 196.43 479.844 196.22L478.024 190.43C477.994 190.32 477.934 190.22 477.864 190.12L474.724 185.98C474.644 185.88 474.554 185.8 474.444 185.73L469.814 182.92C469.624 182.8 469.394 182.75 469.164 182.78L461.534 183.78L457.234 184.44C457.144 184.45 457.054 184.48 456.974 184.52L454.054 185.85L453.664 185.34V190.56C453.664 191.4 453.144 192.15 452.354 192.44L445.594 194.93L442.654 200.93C442.404 201.43 441.954 201.81 441.414 201.97L434.254 204.05L433.374 206.7V212.17C433.374 212.68 433.174 213.18 432.824 213.55L430.744 215.74V216.21L432.714 217.46C433.294 217.83 433.644 218.46 433.644 219.15V226.26C433.644 226.69 433.504 227.11 433.244 227.46L431.664 229.56V233.65L432.864 235.83C433.194 236.43 433.194 237.15 432.864 237.75L428.104 246.53V249.97C428.104 250.61 427.794 251.22 427.274 251.6L419.374 257.27C419.034 257.52 418.624 257.64 418.204 257.64C417.954 257.64 417.714 257.6 417.474 257.5L415.104 256.58C414.334 256.28 413.834 255.54 413.834 254.72V251.56C413.834 251.2 413.934 250.84 414.124 250.53L415.424 248.37V246.2L404.344 237.36H402.434L401.704 237.8L402.994 241.23C403.184 241.74 403.164 242.31 402.924 242.81L401.044 246.68C400.914 246.95 400.724 247.18 400.494 247.37L397.224 249.97L396.294 252.01L397.014 256.13C397.054 256.38 397.054 256.63 397.014 256.87L396.224 260.79V262.55L397.324 265.23C397.364 265.33 397.394 265.43 397.424 265.53L398.344 269.48L400.474 274.14C400.504 274.21 400.534 274.29 400.554 274.36L401.804 278.23C401.984 278.8 401.904 279.42 401.584 279.92L399.154 283.78L399.584 285.25L400.934 288.77C401.014 288.98 401.064 289.21 401.064 289.44L401.204 294.83C401.224 295.47 400.924 296.08 400.414 296.47L397.514 298.68C397.364 298.8 397.194 298.89 397.014 298.96L389.534 301.82L384.814 304.38L381.494 306.07C381.434 306.1 381.374 306.13 381.314 306.15L378.084 307.4C377.854 307.49 377.614 307.53 377.364 307.53H374.044C373.264 307.53 372.554 307.07 372.224 306.36L371.314 304.37L369.764 304.56L367.424 305.67L363.484 307.36C363.484 307.36 363.444 307.37 363.414 307.38V310.88L366.564 314.61C366.694 314.76 366.794 314.93 366.874 315.12L367.704 317.06C367.814 317.31 367.864 317.58 367.864 317.85V322.04L370.264 324.65L373.254 326.15C373.694 326.37 374.034 326.74 374.214 327.2L375.044 329.27C375.334 329.98 375.184 330.79 374.664 331.36L371.154 335.23L371.984 341.07L373.324 349.92L374.364 352.32L376.394 351.87C376.964 351.7 378.584 351.43 384.684 353.27C385.224 353.43 385.674 353.82 385.914 354.33L387.974 358.7L389.844 359.68H393.504C393.664 359.68 393.814 359.7 393.964 359.73L401.624 361.55L404.734 360.71L408.394 359.86L409.594 358.66L410.034 357.35L408.824 354.6C408.674 354.26 408.624 353.89 408.674 353.52L409.364 348.54C409.404 348.24 409.514 347.96 409.684 347.71L410.514 346.47C410.894 345.9 411.524 345.59 412.214 345.58L419.404 345.72C419.504 345.72 419.604 345.73 419.704 345.75L427.114 347.03L429.874 345.77L431.484 345.12L432.974 342.99L435.604 337.34L437.354 331.26C437.554 330.58 438.084 330.06 438.764 329.88L441.394 329.19C441.574 329.14 441.764 329.12 441.964 329.13L446.224 329.26L447.314 328.79L449.224 326.53C449.224 326.53 449.294 326.44 449.334 326.4L451.274 324.46C451.564 324.18 451.924 323.98 452.314 323.91L457.434 322.94C458.284 322.78 459.144 323.18 459.564 323.94L461.344 327.19H470.944C471.394 327.19 471.834 327.34 472.184 327.62L477.434 331.77C477.564 331.87 477.684 331.99 477.784 332.13L480.414 335.59C480.554 335.77 480.664 335.98 480.734 336.2L482.064 340.45L482.714 341.67L488.204 343.62C488.814 343.84 489.284 344.34 489.454 344.96L492.594 356.02L495.894 356.85C496.354 356.97 496.764 357.24 497.034 357.63C498.364 359.49 498.704 360.27 498.824 360.62C499.084 361.16 500.314 363.22 501.214 364.75C503.654 368.89 503.874 369.31 503.994 369.78C504.054 369.99 504.414 370.79 504.774 371.51L507.444 375.93L511.734 376.72L511.144 369.16C511.144 369.09 511.124 369.02 511.104 368.95L509.484 363.62L508.994 345.8L517.654 328.32C517.654 328.32 517.684 328.26 517.694 328.23L525.664 306.96L530.474 288.88L532.114 281.17L536.224 269.99C536.264 269.88 536.284 269.76 536.284 269.65V253.93C536.284 253.83 536.274 253.74 536.244 253.64H536.264Z" fill="#343787"/>
<path opacity="0.8" d="M291.503 304.55V302.03C291.503 301.61 291.633 301.2 291.883 300.86L297.763 292.71V288.31C297.763 287.9 297.883 287.5 298.123 287.17L301.903 281.73V274.79C301.903 274.16 302.203 273.56 302.713 273.18L308.963 268.54C309.133 268.41 309.333 268.31 309.543 268.24L315.443 266.33L315.993 265.52L315.973 265.49H313.183C312.803 265.49 312.433 265.38 312.123 265.18L308.593 262.96C308.013 262.59 307.653 261.95 307.653 261.27V257.05C307.653 256.82 307.693 256.59 307.773 256.37L309.383 251.91C309.453 251.7 309.563 251.51 309.703 251.34L321.933 236.03H306.523C306.313 236.03 306.103 236 305.903 235.93L298.193 233.43L295.303 233.62L293.173 234.38L288.213 240.63L284.033 247.4L284.683 251.71C284.803 252.48 284.453 253.26 283.793 253.68L281.523 255.16L280.303 257.43C279.953 258.08 279.273 258.48 278.543 258.48H276.203C275.613 258.48 275.053 258.22 274.683 257.77L267.513 249.32C267.203 248.96 267.033 248.5 267.033 248.03V242.88C267.033 242.7 267.063 242.51 267.113 242.33L267.773 240.02V236.77L261.103 225.97H260.643L257.013 226.85C256.693 226.93 256.353 226.93 256.033 226.84L252.473 225.89L244.503 233.28L244.773 234.09L246.283 238.02L251.913 243.81C252.143 244.04 252.303 244.33 252.393 244.64L253.243 247.51C253.423 248.13 253.293 248.8 252.893 249.31L250.803 251.96L250.953 258.68C250.953 259.09 250.843 259.48 250.623 259.82L246.393 266.24L241.163 274.32C241.073 274.46 240.963 274.59 240.833 274.71L232.883 282C232.573 282.29 232.183 282.46 231.763 282.51L227.363 283.02C226.973 283.07 226.573 282.99 226.223 282.81L219.293 279.26C219.103 279.16 218.923 279.03 218.773 278.87L213.783 273.73H202.703L202.593 277.54C202.573 278.22 202.203 278.85 201.613 279.2L196.203 282.41C195.893 282.59 195.543 282.69 195.183 282.69H188.253C188.043 282.69 187.823 282.66 187.623 282.59L184.233 281.46L184.323 285.11L189.543 292.48L193.703 295.68C194.193 296.06 194.483 296.64 194.483 297.26V304.65L196.033 308.52C196.203 308.94 196.223 309.4 196.093 309.84L195.113 313.11L193.983 319.59V324.27L200.373 331.86H202.833L203.783 331.08C204.143 330.79 204.593 330.63 205.053 330.63H208.613C209.013 330.63 209.393 330.75 209.723 330.97L219.913 337.76L220.303 337.6V329.07C220.303 328.39 220.653 327.75 221.233 327.38L224.823 325.1V323.05C224.823 322.67 224.933 322.3 225.133 321.98L229.653 314.86C230.023 314.28 230.653 313.93 231.343 313.93H234.963L235.623 312.76C235.973 312.13 236.643 311.74 237.363 311.74H243.733L252.533 305.79C253.163 305.37 253.963 305.33 254.623 305.7L257.863 307.5H261.043C261.493 307.5 261.933 307.65 262.293 307.94L263.663 309.03L275.493 318.06L280.563 319.38H286.693L293.013 316.22L295.553 313.53V308.4L292.373 306.17C291.843 305.8 291.523 305.18 291.523 304.53L291.503 304.55Z" fill="#343787"/>
<path opacity="0.8" d="M368.313 300.83C368.503 300.74 368.713 300.68 368.923 300.65L372.243 300.23C373.103 300.12 373.943 300.59 374.313 301.38L375.303 303.53H376.963L379.743 302.46L382.923 300.85L387.713 298.25C387.793 298.21 387.873 298.17 387.953 298.14L395.293 295.34L397.153 293.92L397.053 289.89L395.793 286.62C395.773 286.57 395.753 286.52 395.743 286.47L395.053 284.12C394.903 283.61 394.963 283.05 395.223 282.58L395.913 281.33C395.913 281.33 395.953 281.26 395.973 281.22L397.683 278.56L396.763 275.7L394.603 270.97C394.553 270.85 394.503 270.72 394.473 270.59L393.543 266.6L392.363 263.71C392.263 263.47 392.213 263.21 392.213 262.95V260.6C392.213 260.47 392.223 260.34 392.253 260.21L393.003 256.46L392.243 252.1C392.173 251.7 392.223 251.29 392.393 250.93L393.773 247.89C393.903 247.6 394.103 247.35 394.353 247.15L397.643 244.53L398.953 241.84L397.583 238.22L394.783 236.2C394.263 235.82 393.953 235.22 393.953 234.58V229.42L392.393 228.04C391.963 227.66 391.713 227.11 391.713 226.54V216.3L387.153 206.29C387.123 206.23 387.103 206.16 387.073 206.09L383.933 196.67L382.403 192.92L378.553 189.29H369.723L368.803 189.96C368.463 190.21 368.053 190.34 367.623 190.34H362.353C362.023 190.34 361.693 190.26 361.393 190.1L357.223 187.83L354.853 188L347.903 192.95C347.623 193.15 347.293 193.28 346.953 193.31L343.583 193.66L340.013 200.72C340.013 200.72 339.973 200.79 339.963 200.82L333.673 211.66C333.313 212.28 332.653 212.66 331.943 212.66H328.263C327.713 212.66 327.193 212.44 326.813 212.04L325.473 210.63H320.203V213.76C320.203 214.86 319.303 215.76 318.203 215.76H315.883C315.543 215.76 315.213 215.67 314.913 215.51L312.303 214.06C311.673 213.71 311.273 213.04 311.273 212.31V209.08L309.773 208.75L300.463 223.63V229.98L306.853 232.06H324.093C325.193 232.06 326.093 232.96 326.093 234.06V236.58C326.093 237.03 325.943 237.47 325.653 237.83L313.043 253.61L311.663 257.43V260.19L313.773 261.52H317.033C317.683 261.52 318.293 261.84 318.673 262.37L320.083 264.39C320.563 265.07 320.563 265.97 320.103 266.66L318.383 269.18C318.133 269.55 317.763 269.82 317.343 269.96L311.103 271.98L305.923 275.83V282.39C305.923 282.8 305.803 283.2 305.563 283.53L301.783 288.97V293.39C301.783 293.81 301.653 294.22 301.403 294.56L295.523 302.71V303.55L298.703 305.78C299.233 306.15 299.553 306.77 299.553 307.42V312.41L301.503 310.72C301.863 310.41 302.333 310.23 302.813 310.23H309.453C309.633 310.23 309.813 310.25 309.983 310.3L317.033 312.24C317.183 312.28 317.323 312.34 317.453 312.41L320.403 314L328.393 312.28L331.463 310.62C331.753 310.46 332.083 310.38 332.413 310.38H339.043L345.293 307.64C345.543 307.53 345.823 307.47 346.093 307.47H354.413L355.893 305.2C356.213 304.71 356.723 304.39 357.303 304.31L362.153 303.66L365.773 302.11L368.333 300.9L368.313 300.83Z" fill="#343787"/>
<path d="M221.077 394.814C219.593 394.814 218.137 393.792 218.137 391.776C218.137 389.872 219.621 388.332 221.749 388.332C223.919 388.332 225.263 389.774 225.263 391.832C225.263 393.134 224.465 394.45 223.793 395.486L221.483 399H219.243L222.267 394.842C222.533 394.562 222.701 394.394 222.743 394.352L222.449 394.52C222.043 394.758 221.581 394.814 221.077 394.814ZM223.457 391.65C223.457 390.53 222.743 389.9 221.721 389.9C220.657 389.9 220.027 390.614 220.027 391.636C220.027 392.77 220.629 393.316 221.707 393.316C222.841 393.316 223.457 392.658 223.457 391.65ZM229.22 390.25L228.87 392.294C229.304 392.224 229.696 392.196 230.074 392.196C232.314 392.196 233.518 393.624 233.518 395.472C233.518 397.726 231.81 399.252 229.556 399.252C228.268 399.252 227.12 398.664 226.406 397.992L227.386 396.564C228.044 397.11 228.772 397.586 229.668 397.586C230.956 397.586 231.642 396.788 231.642 395.556C231.642 394.436 230.984 393.75 229.696 393.792C229.178 393.834 228.674 393.932 228.17 394.114L226.994 393.764C227.428 391.076 227.708 389.424 227.862 388.528H233.154V390.25H229.22ZM239.156 387.03L235.684 400.848H234.312L237.784 387.03H239.156ZM245.256 397.446H247.062V399H241.294V397.446H243.338V391.748L243.394 390.838L241.686 392.392L240.58 391.132L243.604 388.528H245.256V397.446ZM255.934 393.806C255.934 397.502 254.268 399.196 252.028 399.196C249.844 399.196 248.164 397.502 248.164 393.806C248.164 390.082 249.844 388.402 252.028 388.402C254.268 388.402 255.934 390.082 255.934 393.806ZM253.974 393.806C253.974 390.824 253.05 390.012 252.028 390.012C251.062 390.012 250.124 390.824 250.124 393.806C250.124 396.774 251.062 397.572 252.028 397.572C253.05 397.572 253.974 396.774 253.974 393.806ZM264.274 393.806C264.274 397.502 262.608 399.196 260.368 399.196C258.184 399.196 256.504 397.502 256.504 393.806C256.504 390.082 258.184 388.402 260.368 388.402C262.608 388.402 264.274 390.082 264.274 393.806ZM262.314 393.806C262.314 390.824 261.39 390.012 260.368 390.012C259.402 390.012 258.464 390.824 258.464 393.806C258.464 396.774 259.402 397.572 260.368 397.572C261.39 397.572 262.314 396.774 262.314 393.806Z" fill="white"/>
<path d="M232.706 411.508C232.958 411.172 233.102 410.944 233.186 410.836C232.718 411.208 232.154 411.4 231.494 411.4C230.114 411.4 228.962 410.488 228.962 408.82C228.962 407.248 230.198 405.988 231.95 405.988C233.678 405.988 234.818 407.188 234.818 408.904C234.818 409.948 234.434 410.752 233.762 411.676L231.35 415H229.97L232.706 411.508ZM230.078 408.736C230.078 409.9 230.75 410.536 231.854 410.536C233.054 410.536 233.75 409.696 233.75 408.772C233.75 407.62 232.97 406.936 231.938 406.936C230.822 406.936 230.078 407.668 230.078 408.736ZM242.015 415H236.111V414.232L239.147 411.316C240.071 410.332 240.743 409.576 240.743 408.544C240.707 407.488 240.035 406.996 239.123 406.996C238.115 406.996 237.371 407.716 237.371 408.724L236.291 408.544C236.519 406.924 237.683 406.048 239.183 406.048C240.683 406.048 241.847 406.96 241.847 408.52C241.847 409.828 241.007 410.74 240.011 411.736L237.551 414.172C237.887 414.076 238.247 414.028 238.547 414.028H242.015V415ZM245.083 411.364C243.871 411.364 243.079 410.464 243.079 408.676C243.079 406.888 243.871 406.024 245.083 406.024C246.331 406.024 247.111 406.888 247.111 408.676C247.111 410.464 246.331 411.364 245.083 411.364ZM251.047 406.024L246.199 415.144H245.239L250.099 406.024H251.047ZM245.083 410.62C245.755 410.62 246.211 410.068 246.211 408.676C246.211 407.296 245.755 406.768 245.083 406.768C244.411 406.768 243.967 407.32 243.967 408.676C243.967 410.056 244.423 410.62 245.083 410.62ZM251.179 415.12C249.967 415.12 249.151 414.232 249.151 412.444C249.151 410.656 249.967 409.792 251.179 409.792C252.391 409.792 253.195 410.656 253.195 412.444C253.195 414.232 252.391 415.12 251.179 415.12ZM251.179 414.376C251.851 414.376 252.295 413.836 252.295 412.444C252.295 411.064 251.851 410.524 251.179 410.524C250.507 410.524 250.051 411.064 250.051 412.444C250.051 413.824 250.507 414.376 251.179 414.376Z" fill="white"/>
<path d="M233.945 379.08C232.109 378.792 230.681 377.88 229.961 376.632C229.241 377.892 227.801 378.792 225.965 379.08L225.485 378.084C227.693 377.76 229.301 376.44 229.301 375.012V374.436H230.609V375.012C230.609 376.428 232.241 377.76 234.425 378.084L233.945 379.08ZM234.845 381.108H230.537V384.936H229.301V381.108H225.053V380.1H234.845V381.108ZM243.448 375.336H237.316V374.388H244.672V377.196H238.552V378.192H244.888V379.152H237.34V376.308H243.448V375.336ZM245.908 379.98V380.964H243.46V382.632H242.224V380.964H240.688V382.632H239.452V380.964H236.104V379.98H245.908ZM238.528 383.724H244.96V384.72H237.292V381.84H238.528V383.724ZM252.616 380.172H247.6V374.988H252.616V375.9H254.872V374.088H256.108V381.996H254.872V379.224H252.616V380.172ZM251.416 375.972H248.812V379.188H251.416V375.972ZM252.616 376.908V378.228H254.872V376.908H252.616ZM256.36 383.712V384.72H249.052V381.276H250.3V383.712H256.36Z" fill="white"/>
<path d="M335.225 254.49C336.849 254.49 338.375 255.54 338.375 257.682C338.375 259.656 336.863 261.266 334.609 261.266C332.341 261.266 330.927 259.754 330.927 257.5C330.927 256.548 331.375 255.47 332.173 254.35L335.015 250.514H337.367C336.303 251.816 335.309 253.09 334.287 254.392L333.937 254.728L334.091 254.658C334.413 254.546 334.791 254.49 335.225 254.49ZM332.775 257.78C332.775 258.97 333.503 259.684 334.581 259.684C335.645 259.684 336.499 258.928 336.499 257.794C336.499 256.562 335.729 255.946 334.595 255.946C333.475 255.946 332.775 256.66 332.775 257.78ZM346.574 251.97L342.332 261H340.19C341.38 258.424 342.682 256.03 343.872 253.468C343.928 253.37 344.054 253.118 344.138 252.978V252.964C344.152 252.95 344.152 252.95 344.152 252.95L344.208 252.838C344.208 252.838 344.208 252.824 344.222 252.824V252.81C344.32 252.614 344.418 252.446 344.516 252.32H339.518V250.598H346.574V251.97ZM352.156 249.03L348.684 262.848H347.312L350.784 249.03H352.156ZM358.256 259.446H360.062V261H354.294V259.446H356.338V253.748L356.394 252.838L354.686 254.392L353.58 253.132L356.604 250.528H358.256V259.446ZM368.934 255.806C368.934 259.502 367.268 261.196 365.028 261.196C362.844 261.196 361.164 259.502 361.164 255.806C361.164 252.082 362.844 250.402 365.028 250.402C367.268 250.402 368.934 252.082 368.934 255.806ZM366.974 255.806C366.974 252.824 366.05 252.012 365.028 252.012C364.062 252.012 363.124 252.824 363.124 255.806C363.124 258.774 364.062 259.572 365.028 259.572C366.05 259.572 366.974 258.774 366.974 255.806ZM377.274 255.806C377.274 259.502 375.608 261.196 373.368 261.196C371.184 261.196 369.504 259.502 369.504 255.806C369.504 252.082 371.184 250.402 373.368 250.402C375.608 250.402 377.274 252.082 377.274 255.806ZM375.314 255.806C375.314 252.824 374.39 252.012 373.368 252.012C372.402 252.012 371.464 252.824 371.464 255.806C371.464 258.774 372.402 259.572 373.368 259.572C374.39 259.572 375.314 258.774 375.314 255.806Z" fill="white"/>
<path d="M344.218 271.48C344.014 271.768 343.882 271.96 343.798 272.056C344.23 271.768 344.722 271.6 345.31 271.6C346.75 271.6 347.95 272.56 347.95 274.252C347.95 275.884 346.702 277.156 344.902 277.156C343.114 277.156 341.95 275.956 341.95 274.132C341.95 273.352 342.274 272.464 343.042 271.456L345.49 268.156H346.87L344.218 271.48ZM344.878 276.232C346.042 276.232 346.846 275.428 346.846 274.336C346.846 273.172 346.042 272.452 344.95 272.452C343.774 272.452 343.018 273.316 343.018 274.312C343.018 275.464 343.678 276.232 344.878 276.232ZM355.435 274.66H354.103V277H353.131V274.66H348.739V273.844L353.071 268.108H354.103V273.796H355.435V274.66ZM353.131 270.124C353.131 269.92 353.143 269.632 353.179 269.38L349.939 273.796H353.131V270.124ZM358.083 273.364C356.871 273.364 356.079 272.464 356.079 270.676C356.079 268.888 356.871 268.024 358.083 268.024C359.331 268.024 360.111 268.888 360.111 270.676C360.111 272.464 359.331 273.364 358.083 273.364ZM364.047 268.024L359.199 277.144H358.239L363.099 268.024H364.047ZM358.083 272.62C358.755 272.62 359.211 272.068 359.211 270.676C359.211 269.296 358.755 268.768 358.083 268.768C357.411 268.768 356.967 269.32 356.967 270.676C356.967 272.056 357.423 272.62 358.083 272.62ZM364.179 277.12C362.967 277.12 362.151 276.232 362.151 274.444C362.151 272.656 362.967 271.792 364.179 271.792C365.391 271.792 366.195 272.656 366.195 274.444C366.195 276.232 365.391 277.12 364.179 277.12ZM364.179 276.376C364.851 276.376 365.295 275.836 365.295 274.444C365.295 273.064 364.851 272.524 364.179 272.524C363.507 272.524 363.051 273.064 363.051 274.444C363.051 275.824 363.507 276.376 364.179 276.376Z" fill="white"/>
<path d="M345.793 239.256H343.597V238.248H345.793V236.076H347.029V242.472H345.793V239.256ZM343.825 242.04C342.661 241.62 341.821 240.804 341.353 239.748C340.873 240.948 339.961 241.896 338.653 242.364L338.005 241.368C339.745 240.792 340.693 239.316 340.693 237.732V236.664H341.941V237.672C341.941 239.172 342.853 240.528 344.485 241.068L343.825 242.04ZM343.417 242.772C345.685 242.772 347.077 243.54 347.077 244.848C347.077 246.156 345.685 246.924 343.417 246.924C341.161 246.924 339.769 246.156 339.769 244.848C339.769 243.54 341.161 242.772 343.417 242.772ZM343.417 245.952C344.965 245.952 345.841 245.568 345.841 244.848C345.841 244.128 344.965 243.744 343.417 243.744C341.869 243.744 341.005 244.128 341.005 244.848C341.005 245.568 341.869 245.952 343.417 245.952ZM349.632 240.42C351.684 240.132 353.232 238.98 353.292 237.696H349.992V236.7H357.972V237.696H354.696C354.756 238.98 356.304 240.132 358.356 240.42L357.912 241.392C356.124 241.104 354.672 240.252 353.988 239.04C353.316 240.24 351.864 241.116 350.076 241.392L349.632 240.42ZM358.884 243.18H354.576V246.936H353.34V243.18H349.092V242.184H358.896L358.884 243.18ZM365.028 236.268C367.392 236.268 368.892 237.036 368.892 238.296C368.892 239.568 367.392 240.324 365.028 240.324C362.664 240.324 361.164 239.568 361.164 238.296C361.164 237.036 362.664 236.268 365.028 236.268ZM365.028 237.216C363.384 237.216 362.436 237.612 362.436 238.296C362.436 238.98 363.384 239.376 365.028 239.376C366.672 239.376 367.608 238.98 367.608 238.296C367.608 237.612 366.672 237.216 365.028 237.216ZM369.936 241.056V242.052H360.12V241.056H369.936ZM362.556 242.688V243.708H367.488V242.688H368.712V246.792H361.332V242.688H362.556ZM362.556 245.808H367.488V244.656H362.556V245.808Z" fill="white"/>
<path d="M247.225 280.49C248.849 280.49 250.375 281.54 250.375 283.682C250.375 285.656 248.863 287.266 246.609 287.266C244.341 287.266 242.927 285.754 242.927 283.5C242.927 282.548 243.375 281.47 244.173 280.35L247.015 276.514H249.367C248.303 277.816 247.309 279.09 246.287 280.392L245.937 280.728L246.091 280.658C246.413 280.546 246.791 280.49 247.225 280.49ZM244.775 283.78C244.775 284.97 245.503 285.684 246.581 285.684C247.645 285.684 248.499 284.928 248.499 283.794C248.499 282.562 247.729 281.946 246.595 281.946C245.475 281.946 244.775 282.66 244.775 283.78ZM258.574 277.97L254.332 287H252.19C253.38 284.424 254.682 282.03 255.872 279.468C255.928 279.37 256.054 279.118 256.138 278.978V278.964C256.152 278.95 256.152 278.95 256.152 278.95L256.208 278.838C256.208 278.838 256.208 278.824 256.222 278.824V278.81C256.32 278.614 256.418 278.446 256.516 278.32H251.518V276.598H258.574V277.97ZM264.156 275.03L260.684 288.848H259.312L262.784 275.03H264.156ZM270.256 285.446H272.062V287H266.294V285.446H268.338V279.748L268.394 278.838L266.686 280.392L265.58 279.132L268.604 276.528H270.256V285.446ZM280.934 281.806C280.934 285.502 279.268 287.196 277.028 287.196C274.844 287.196 273.164 285.502 273.164 281.806C273.164 278.082 274.844 276.402 277.028 276.402C279.268 276.402 280.934 278.082 280.934 281.806ZM278.974 281.806C278.974 278.824 278.05 278.012 277.028 278.012C276.062 278.012 275.124 278.824 275.124 281.806C275.124 284.774 276.062 285.572 277.028 285.572C278.05 285.572 278.974 284.774 278.974 281.806ZM289.274 281.806C289.274 285.502 287.608 287.196 285.368 287.196C283.184 287.196 281.504 285.502 281.504 281.806C281.504 278.082 283.184 276.402 285.368 276.402C287.608 276.402 289.274 278.082 289.274 281.806ZM287.314 281.806C287.314 278.824 286.39 278.012 285.368 278.012C284.402 278.012 283.464 278.824 283.464 281.806C283.464 284.774 284.402 285.572 285.368 285.572C286.39 285.572 287.314 284.774 287.314 281.806Z" fill="white"/>
<path d="M256.218 297.48C256.014 297.768 255.882 297.96 255.798 298.056C256.23 297.768 256.722 297.6 257.31 297.6C258.75 297.6 259.95 298.56 259.95 300.252C259.95 301.884 258.702 303.156 256.902 303.156C255.114 303.156 253.95 301.956 253.95 300.132C253.95 299.352 254.274 298.464 255.042 297.456L257.49 294.156H258.87L256.218 297.48ZM256.878 302.232C258.042 302.232 258.846 301.428 258.846 300.336C258.846 299.172 258.042 298.452 256.95 298.452C255.774 298.452 255.018 299.316 255.018 300.312C255.018 301.464 255.678 302.232 256.878 302.232ZM263.367 297.48C263.163 297.768 263.031 297.96 262.947 298.056C263.379 297.768 263.871 297.6 264.459 297.6C265.899 297.6 267.099 298.56 267.099 300.252C267.099 301.884 265.851 303.156 264.051 303.156C262.263 303.156 261.099 301.956 261.099 300.132C261.099 299.352 261.423 298.464 262.191 297.456L264.639 294.156H266.019L263.367 297.48ZM264.027 302.232C265.191 302.232 265.995 301.428 265.995 300.336C265.995 299.172 265.191 298.452 264.099 298.452C262.923 298.452 262.167 299.316 262.167 300.312C262.167 301.464 262.827 302.232 264.027 302.232ZM270.083 299.364C268.871 299.364 268.079 298.464 268.079 296.676C268.079 294.888 268.871 294.024 270.083 294.024C271.331 294.024 272.111 294.888 272.111 296.676C272.111 298.464 271.331 299.364 270.083 299.364ZM276.047 294.024L271.199 303.144H270.239L275.099 294.024H276.047ZM270.083 298.62C270.755 298.62 271.211 298.068 271.211 296.676C271.211 295.296 270.755 294.768 270.083 294.768C269.411 294.768 268.967 295.32 268.967 296.676C268.967 298.056 269.423 298.62 270.083 298.62ZM276.179 303.12C274.967 303.12 274.151 302.232 274.151 300.444C274.151 298.656 274.967 297.792 276.179 297.792C277.391 297.792 278.195 298.656 278.195 300.444C278.195 302.232 277.391 303.12 276.179 303.12ZM276.179 302.376C276.851 302.376 277.295 301.836 277.295 300.444C277.295 299.064 276.851 298.524 276.179 298.524C275.507 298.524 275.051 299.064 275.051 300.444C275.051 301.824 275.507 302.376 276.179 302.376Z" fill="white"/>
<path d="M259.293 262.076V272.912H258.117V267.368H256.833V272.384H255.669V262.304H256.833V266.36H258.117V262.076H259.293ZM251.625 269.324C252.873 269.312 253.857 269.252 254.973 269.024L255.081 270.044C253.773 270.296 252.669 270.344 251.133 270.344H250.413V263.372H254.421V264.38H251.625V269.324ZM271.124 267.392H269.48V272.912H268.244V262.076H269.48V266.36H271.124V267.392ZM266.648 263.228C266.648 266.372 265.304 269.156 261.764 270.944L261.08 269.996C263.708 268.64 265.16 266.72 265.412 264.236H261.62V263.228H266.648ZM277.616 268.172H272.6V262.988H277.616V263.9H279.872V262.088H281.108V269.996H279.872V267.224H277.616V268.172ZM276.416 263.972H273.812V267.188H276.416V263.972ZM277.616 264.908V266.228H279.872V264.908H277.616ZM281.36 271.712V272.72H274.052V269.276H275.3V271.712H281.36Z" fill="white"/>
<path d="M105.149 351.446H106.955V353H101.187V351.446H103.231V345.748L103.287 344.838L101.579 346.392L100.473 345.132L103.497 342.528H105.149V351.446ZM112.242 342.36C114.202 342.402 115.504 343.62 115.462 345.174C115.462 346.364 114.776 347.064 113.894 347.498C115.126 347.96 115.644 348.758 115.644 349.99C115.602 352.132 113.894 353.266 111.934 353.266C109.806 353.266 108.756 352.202 108.196 350.368L109.904 349.696C110.128 350.592 110.912 351.586 111.906 351.586C113.138 351.586 113.74 350.816 113.74 350.032C113.74 349.052 113.474 348.38 111.29 348.38V346.98C113.138 346.938 113.572 346.35 113.572 345.454C113.586 344.488 113.04 344.012 112.13 344.012C110.94 344.012 110.534 344.796 110.352 345.804C109.75 345.706 109.148 345.58 108.532 345.482C108.938 343.34 110.268 342.36 112.242 342.36ZM121.156 341.03L117.684 354.848H116.312L119.784 341.03H121.156ZM127.256 351.446H129.062V353H123.294V351.446H125.338V345.748L125.394 344.838L123.686 346.392L122.58 345.132L125.604 342.528H127.256V351.446ZM137.934 347.806C137.934 351.502 136.268 353.196 134.028 353.196C131.844 353.196 130.164 351.502 130.164 347.806C130.164 344.082 131.844 342.402 134.028 342.402C136.268 342.402 137.934 344.082 137.934 347.806ZM135.974 347.806C135.974 344.824 135.05 344.012 134.028 344.012C133.062 344.012 132.124 344.824 132.124 347.806C132.124 350.774 133.062 351.572 134.028 351.572C135.05 351.572 135.974 350.774 135.974 347.806ZM146.274 347.806C146.274 351.502 144.608 353.196 142.368 353.196C140.184 353.196 138.504 351.502 138.504 347.806C138.504 344.082 140.184 342.402 142.368 342.402C144.608 342.402 146.274 344.082 146.274 347.806ZM144.314 347.806C144.314 344.824 143.39 344.012 142.368 344.012C141.402 344.012 140.464 344.824 140.464 347.806C140.464 350.774 141.402 351.572 142.368 351.572C143.39 351.572 144.314 350.774 144.314 347.806Z" fill="#1B1F27"/>
<path d="M116.638 369H111.886V368.112H113.842V361.776C113.842 361.668 113.842 361.56 113.854 361.476L112.258 362.904L111.67 362.196L114.034 360.156H114.91V368.112H116.638V369ZM123.787 369H119.035V368.112H120.991V361.776C120.991 361.668 120.991 361.56 121.003 361.476L119.407 362.904L118.819 362.196L121.183 360.156H122.059V368.112H123.787V369ZM127.083 365.364C125.871 365.364 125.079 364.464 125.079 362.676C125.079 360.888 125.871 360.024 127.083 360.024C128.331 360.024 129.111 360.888 129.111 362.676C129.111 364.464 128.331 365.364 127.083 365.364ZM133.047 360.024L128.199 369.144H127.239L132.099 360.024H133.047ZM127.083 364.62C127.755 364.62 128.211 364.068 128.211 362.676C128.211 361.296 127.755 360.768 127.083 360.768C126.411 360.768 125.967 361.32 125.967 362.676C125.967 364.056 126.423 364.62 127.083 364.62ZM133.179 369.12C131.967 369.12 131.151 368.232 131.151 366.444C131.151 364.656 131.967 363.792 133.179 363.792C134.391 363.792 135.195 364.656 135.195 366.444C135.195 368.232 134.391 369.12 133.179 369.12ZM133.179 368.376C133.851 368.376 134.295 367.836 134.295 366.444C134.295 365.064 133.851 364.524 133.179 364.524C132.507 364.524 132.051 365.064 132.051 366.444C132.051 367.824 132.507 368.376 133.179 368.376Z" fill="#1B1F27"/>
<path d="M117.085 333.392H115.441V338.912H114.205V328.076H115.441V332.36H117.085V333.392ZM112.609 329.228C112.609 332.372 111.265 335.156 107.725 336.944L107.041 335.996C109.669 334.64 111.121 332.72 111.373 330.236H107.581V329.228H112.609ZM125.832 331.34V328.1H127.068V336.152H125.832V332.36H123.84V331.34H125.832ZM123.936 334.736C122.688 334.352 121.8 333.56 121.32 332.54C120.84 333.644 119.94 334.508 118.68 334.928L118.068 333.968C119.736 333.392 120.672 332.096 120.672 330.656V330.452H118.392V329.456H120.672V328.148H121.92V329.456H124.188V330.452H121.908V330.656C121.908 331.988 122.856 333.248 124.536 333.764L123.936 334.736ZM127.344 337.712V338.72H120.048V335.456H121.284V337.712H127.344ZM134.616 334.172H129.6V328.988H134.616V329.9H136.872V328.088H138.108V335.996H136.872V333.224H134.616V334.172ZM133.416 329.972H130.812V333.188H133.416V329.972ZM134.616 330.908V332.228H136.872V330.908H134.616ZM138.36 337.712V338.72H131.052V335.276H132.3V337.712H138.36Z" fill="#1B1F27"/>
<path d="M105.149 228.446H106.955V230H101.187V228.446H103.231V222.748L103.287 221.838L101.579 223.392L100.473 222.132L103.497 219.528H105.149V228.446ZM112.242 219.36C114.202 219.402 115.504 220.62 115.462 222.174C115.462 223.364 114.776 224.064 113.894 224.498C115.126 224.96 115.644 225.758 115.644 226.99C115.602 229.132 113.894 230.266 111.934 230.266C109.806 230.266 108.756 229.202 108.196 227.368L109.904 226.696C110.128 227.592 110.912 228.586 111.906 228.586C113.138 228.586 113.74 227.816 113.74 227.032C113.74 226.052 113.474 225.38 111.29 225.38V223.98C113.138 223.938 113.572 223.35 113.572 222.454C113.586 221.488 113.04 221.012 112.13 221.012C110.94 221.012 110.534 221.796 110.352 222.804C109.75 222.706 109.148 222.58 108.532 222.482C108.938 220.34 110.268 219.36 112.242 219.36ZM121.156 218.03L117.684 231.848H116.312L119.784 218.03H121.156ZM127.256 228.446H129.062V230H123.294V228.446H125.338V222.748L125.394 221.838L123.686 223.392L122.58 222.132L125.604 219.528H127.256V228.446ZM137.934 224.806C137.934 228.502 136.268 230.196 134.028 230.196C131.844 230.196 130.164 228.502 130.164 224.806C130.164 221.082 131.844 219.402 134.028 219.402C136.268 219.402 137.934 221.082 137.934 224.806ZM135.974 224.806C135.974 221.824 135.05 221.012 134.028 221.012C133.062 221.012 132.124 221.824 132.124 224.806C132.124 227.774 133.062 228.572 134.028 228.572C135.05 228.572 135.974 227.774 135.974 224.806ZM146.274 224.806C146.274 228.502 144.608 230.196 142.368 230.196C140.184 230.196 138.504 228.502 138.504 224.806C138.504 221.082 140.184 219.402 142.368 219.402C144.608 219.402 146.274 221.082 146.274 224.806ZM144.314 224.806C144.314 221.824 143.39 221.012 142.368 221.012C141.402 221.012 140.464 221.824 140.464 224.806C140.464 227.774 141.402 228.572 142.368 228.572C143.39 228.572 144.314 227.774 144.314 224.806Z" fill="#1B1F27"/>
<path d="M116.638 246H111.886V245.112H113.842V238.776C113.842 238.668 113.842 238.56 113.854 238.476L112.258 239.904L111.67 239.196L114.034 237.156H114.91V245.112H116.638V246ZM124.015 246H118.111V245.232L121.147 242.316C122.071 241.332 122.743 240.576 122.743 239.544C122.707 238.488 122.035 237.996 121.123 237.996C120.115 237.996 119.371 238.716 119.371 239.724L118.291 239.544C118.519 237.924 119.683 237.048 121.183 237.048C122.683 237.048 123.847 237.96 123.847 239.52C123.847 240.828 123.007 241.74 122.011 242.736L119.551 245.172C119.887 245.076 120.247 245.028 120.547 245.028H124.015V246ZM127.083 242.364C125.871 242.364 125.079 241.464 125.079 239.676C125.079 237.888 125.871 237.024 127.083 237.024C128.331 237.024 129.111 237.888 129.111 239.676C129.111 241.464 128.331 242.364 127.083 242.364ZM133.047 237.024L128.199 246.144H127.239L132.099 237.024H133.047ZM127.083 241.62C127.755 241.62 128.211 241.068 128.211 239.676C128.211 238.296 127.755 237.768 127.083 237.768C126.411 237.768 125.967 238.32 125.967 239.676C125.967 241.056 126.423 241.62 127.083 241.62ZM133.179 246.12C131.967 246.12 131.151 245.232 131.151 243.444C131.151 241.656 131.967 240.792 133.179 240.792C134.391 240.792 135.195 241.656 135.195 243.444C135.195 245.232 134.391 246.12 133.179 246.12ZM133.179 245.376C133.851 245.376 134.295 244.836 134.295 243.444C134.295 242.064 133.851 241.524 133.179 241.524C132.507 241.524 132.051 242.064 132.051 243.444C132.051 244.824 132.507 245.376 133.179 245.376Z" fill="#1B1F27"/>
<path d="M116.869 209.564V210.572H107.053V209.564H114.133C114.409 208.352 114.433 207.44 114.433 206.624H108.289V205.616H115.645V206.456C115.645 207.32 115.645 208.268 115.369 209.564H116.869ZM108.241 211.88H115.645V215.792H108.241V211.88ZM109.453 214.808H114.433V212.864H109.453V214.808ZM126.984 210.08C125.148 209.792 123.72 208.88 123 207.632C122.28 208.892 120.84 209.792 119.004 210.08L118.524 209.084C120.732 208.76 122.34 207.44 122.34 206.012V205.436H123.648V206.012C123.648 207.428 125.28 208.76 127.464 209.084L126.984 210.08ZM127.884 212.108H123.576V215.936H122.34V212.108H118.092V211.1H127.884V212.108ZM134.616 211.172H129.6V205.988H134.616V206.9H136.872V205.088H138.108V212.996H136.872V210.224H134.616V211.172ZM133.416 206.972H130.812V210.188H133.416V206.972ZM134.616 207.908V209.228H136.872V207.908H134.616ZM138.36 214.712V215.72H131.052V212.276H132.3V214.712H138.36Z" fill="#1B1F27"/>
<path d="M285.149 97.446H286.955V99H281.187V97.446H283.231V91.748L283.287 90.838L281.579 92.392L280.473 91.132L283.497 88.528H285.149V97.446ZM292.242 88.36C294.202 88.402 295.504 89.62 295.462 91.174C295.462 92.364 294.776 93.064 293.894 93.498C295.126 93.96 295.644 94.758 295.644 95.99C295.602 98.132 293.894 99.266 291.934 99.266C289.806 99.266 288.756 98.202 288.196 96.368L289.904 95.696C290.128 96.592 290.912 97.586 291.906 97.586C293.138 97.586 293.74 96.816 293.74 96.032C293.74 95.052 293.474 94.38 291.29 94.38V92.98C293.138 92.938 293.572 92.35 293.572 91.454C293.586 90.488 293.04 90.012 292.13 90.012C290.94 90.012 290.534 90.796 290.352 91.804C289.75 91.706 289.148 91.58 288.532 91.482C288.938 89.34 290.268 88.36 292.242 88.36ZM301.156 87.03L297.684 100.848H296.312L299.784 87.03H301.156ZM307.256 97.446H309.062V99H303.294V97.446H305.338V91.748L305.394 90.838L303.686 92.392L302.58 91.132L305.604 88.528H307.256V97.446ZM317.934 93.806C317.934 97.502 316.268 99.196 314.028 99.196C311.844 99.196 310.164 97.502 310.164 93.806C310.164 90.082 311.844 88.402 314.028 88.402C316.268 88.402 317.934 90.082 317.934 93.806ZM315.974 93.806C315.974 90.824 315.05 90.012 314.028 90.012C313.062 90.012 312.124 90.824 312.124 93.806C312.124 96.774 313.062 97.572 314.028 97.572C315.05 97.572 315.974 96.774 315.974 93.806ZM326.274 93.806C326.274 97.502 324.608 99.196 322.368 99.196C320.184 99.196 318.504 97.502 318.504 93.806C318.504 90.082 320.184 88.402 322.368 88.402C324.608 88.402 326.274 90.082 326.274 93.806ZM324.314 93.806C324.314 90.824 323.39 90.012 322.368 90.012C321.402 90.012 320.464 90.824 320.464 93.806C320.464 96.774 321.402 97.572 322.368 97.572C323.39 97.572 324.314 96.774 324.314 93.806Z" fill="#1B1F27"/>
<path d="M296.638 115H291.886V114.112H293.842V107.776C293.842 107.668 293.842 107.56 293.854 107.476L292.258 108.904L291.67 108.196L294.034 106.156H294.91V114.112H296.638V115ZM304.015 115H298.111V114.232L301.147 111.316C302.071 110.332 302.743 109.576 302.743 108.544C302.707 107.488 302.035 106.996 301.123 106.996C300.115 106.996 299.371 107.716 299.371 108.724L298.291 108.544C298.519 106.924 299.683 106.048 301.183 106.048C302.683 106.048 303.847 106.96 303.847 108.52C303.847 109.828 303.007 110.74 302.011 111.736L299.551 114.172C299.887 114.076 300.247 114.028 300.547 114.028H304.015V115ZM307.083 111.364C305.871 111.364 305.079 110.464 305.079 108.676C305.079 106.888 305.871 106.024 307.083 106.024C308.331 106.024 309.111 106.888 309.111 108.676C309.111 110.464 308.331 111.364 307.083 111.364ZM313.047 106.024L308.199 115.144H307.239L312.099 106.024H313.047ZM307.083 110.62C307.755 110.62 308.211 110.068 308.211 108.676C308.211 107.296 307.755 106.768 307.083 106.768C306.411 106.768 305.967 107.32 305.967 108.676C305.967 110.056 306.423 110.62 307.083 110.62ZM313.179 115.12C311.967 115.12 311.151 114.232 311.151 112.444C311.151 110.656 311.967 109.792 313.179 109.792C314.391 109.792 315.195 110.656 315.195 112.444C315.195 114.232 314.391 115.12 313.179 115.12ZM313.179 114.376C313.851 114.376 314.295 113.836 314.295 112.444C314.295 111.064 313.851 110.524 313.179 110.524C312.507 110.524 312.051 111.064 312.051 112.444C312.051 113.824 312.507 114.376 313.179 114.376Z" fill="#1B1F27"/>
<path d="M287.485 79.692C289.753 79.368 291.265 78.168 291.325 76.692H287.929V75.684H291.337V74.28H292.573V75.684H295.969V76.692H292.585C292.645 78.168 294.157 79.368 296.425 79.692L295.957 80.688C294.121 80.4 292.681 79.584 291.961 78.336C291.241 79.584 289.789 80.4 287.953 80.688L287.485 79.692ZM296.869 82.608V83.616H287.053V82.608H291.337V80.304H292.573V82.608H296.869ZM305.832 76.992V74.1H307.068V82.02H305.832V78.012H303.864V76.992H305.832ZM303.924 80.484C302.724 80.064 301.86 79.224 301.392 78.156C300.912 79.356 300.012 80.28 298.716 80.724L298.08 79.752C299.76 79.176 300.744 77.724 300.744 76.272V75.9H298.452V74.904H304.248V75.9H301.992V76.272C301.992 77.604 302.904 78.948 304.536 79.524L303.924 80.484ZM307.344 83.712V84.72H300.048V81.336H301.284V83.712H307.344ZM314.616 80.172H309.6V74.988H314.616V75.9H316.872V74.088H318.108V81.996H316.872V79.224H314.616V80.172ZM313.416 75.972H310.812V79.188H313.416V75.972ZM314.616 76.908V78.228H316.872V76.908H314.616ZM318.36 83.712V84.72H311.052V81.276H312.3V83.712H318.36Z" fill="#1B1F27"/>
<path d="M371.149 159.446H372.955V161H367.187V159.446H369.231V153.748L369.287 152.838L367.579 154.392L366.473 153.132L369.497 150.528H371.149V159.446ZM378.242 150.36C380.202 150.402 381.504 151.62 381.462 153.174C381.462 154.364 380.776 155.064 379.894 155.498C381.126 155.96 381.644 156.758 381.644 157.99C381.602 160.132 379.894 161.266 377.934 161.266C375.806 161.266 374.756 160.202 374.196 158.368L375.904 157.696C376.128 158.592 376.912 159.586 377.906 159.586C379.138 159.586 379.74 158.816 379.74 158.032C379.74 157.052 379.474 156.38 377.29 156.38V154.98C379.138 154.938 379.572 154.35 379.572 153.454C379.586 152.488 379.04 152.012 378.13 152.012C376.94 152.012 376.534 152.796 376.352 153.804C375.75 153.706 375.148 153.58 374.532 153.482C374.938 151.34 376.268 150.36 378.242 150.36ZM387.156 149.03L383.684 162.848H382.312L385.784 149.03H387.156ZM393.256 159.446H395.062V161H389.294V159.446H391.338V153.748L391.394 152.838L389.686 154.392L388.58 153.132L391.604 150.528H393.256V159.446ZM403.934 155.806C403.934 159.502 402.268 161.196 400.028 161.196C397.844 161.196 396.164 159.502 396.164 155.806C396.164 152.082 397.844 150.402 400.028 150.402C402.268 150.402 403.934 152.082 403.934 155.806ZM401.974 155.806C401.974 152.824 401.05 152.012 400.028 152.012C399.062 152.012 398.124 152.824 398.124 155.806C398.124 158.774 399.062 159.572 400.028 159.572C401.05 159.572 401.974 158.774 401.974 155.806ZM412.274 155.806C412.274 159.502 410.608 161.196 408.368 161.196C406.184 161.196 404.504 159.502 404.504 155.806C404.504 152.082 406.184 150.402 408.368 150.402C410.608 150.402 412.274 152.082 412.274 155.806ZM410.314 155.806C410.314 152.824 409.39 152.012 408.368 152.012C407.402 152.012 406.464 152.824 406.464 155.806C406.464 158.774 407.402 159.572 408.368 159.572C409.39 159.572 410.314 158.774 410.314 155.806Z" fill="#1B1F27"/>
<path d="M382.638 177H377.886V176.112H379.842V169.776C379.842 169.668 379.842 169.56 379.854 169.476L378.258 170.904L377.67 170.196L380.034 168.156H380.91V176.112H382.638V177ZM390.015 177H384.111V176.232L387.147 173.316C388.071 172.332 388.743 171.576 388.743 170.544C388.707 169.488 388.035 168.996 387.123 168.996C386.115 168.996 385.371 169.716 385.371 170.724L384.291 170.544C384.519 168.924 385.683 168.048 387.183 168.048C388.683 168.048 389.847 168.96 389.847 170.52C389.847 171.828 389.007 172.74 388.011 173.736L385.551 176.172C385.887 176.076 386.247 176.028 386.547 176.028H390.015V177ZM393.083 173.364C391.871 173.364 391.079 172.464 391.079 170.676C391.079 168.888 391.871 168.024 393.083 168.024C394.331 168.024 395.111 168.888 395.111 170.676C395.111 172.464 394.331 173.364 393.083 173.364ZM399.047 168.024L394.199 177.144H393.239L398.099 168.024H399.047ZM393.083 172.62C393.755 172.62 394.211 172.068 394.211 170.676C394.211 169.296 393.755 168.768 393.083 168.768C392.411 168.768 391.967 169.32 391.967 170.676C391.967 172.056 392.423 172.62 393.083 172.62ZM399.179 177.12C397.967 177.12 397.151 176.232 397.151 174.444C397.151 172.656 397.967 171.792 399.179 171.792C400.391 171.792 401.195 172.656 401.195 174.444C401.195 176.232 400.391 177.12 399.179 177.12ZM399.179 176.376C399.851 176.376 400.295 175.836 400.295 174.444C400.295 173.064 399.851 172.524 399.179 172.524C398.507 172.524 398.051 173.064 398.051 174.444C398.051 175.824 398.507 176.376 399.179 176.376Z" fill="#1B1F27"/>
<path d="M380.793 141.176V136.088H382.029V142.412H380.793V141.944H378.753V141.176H380.793ZM376.509 139.52C374.877 139.52 373.809 138.896 373.809 137.9C373.809 136.904 374.877 136.28 376.509 136.28C378.117 136.28 379.197 136.904 379.197 137.9C379.197 138.896 378.117 139.52 376.509 139.52ZM376.509 137.108C375.549 137.108 374.973 137.384 374.973 137.9C374.973 138.416 375.549 138.692 376.509 138.692C377.433 138.692 378.033 138.416 378.033 137.9C378.033 137.384 377.433 137.108 376.509 137.108ZM375.825 140.9C374.865 140.936 373.989 140.936 373.173 140.936L373.029 140.048C375.117 140.048 377.721 140.024 380.025 139.796L380.109 140.576C379.101 140.72 378.081 140.804 377.073 140.852V142.448H375.825V140.9ZM382.341 145.952V146.828H374.649V144.368H380.805V143.648H374.625V142.796H382.029V145.16H375.873V145.952H382.341ZM390.5 138.212H384.104V137.228H386.684V136.004H387.92V137.228H390.5V138.212ZM394.088 138.992V140.012H392.552V143.012H391.316V136.088H392.552V138.992H394.088ZM389.924 140.6C389.924 141.752 388.868 142.52 387.296 142.52C385.736 142.52 384.668 141.752 384.668 140.6C384.668 139.424 385.736 138.668 387.296 138.668C388.868 138.668 389.924 139.424 389.924 140.6ZM385.856 140.6C385.856 141.212 386.432 141.608 387.296 141.608C388.16 141.608 388.748 141.212 388.748 140.6C388.748 139.964 388.16 139.58 387.296 139.58C386.432 139.58 385.856 139.964 385.856 140.6ZM389.096 143.12C391.304 143.12 392.672 143.828 392.672 145.016C392.672 146.216 391.304 146.924 389.096 146.924C386.888 146.924 385.52 146.216 385.52 145.016C385.52 143.828 386.888 143.12 389.096 143.12ZM389.096 145.976C390.596 145.976 391.448 145.652 391.448 145.016C391.448 144.392 390.596 144.068 389.096 144.068C387.596 144.068 386.744 144.392 386.744 145.016C386.744 145.652 387.596 145.976 389.096 145.976ZM400.616 142.172H395.6V136.988H400.616V137.9H402.872V136.088H404.108V143.996H402.872V141.224H400.616V142.172ZM399.416 137.972H396.812V141.188H399.416V137.972ZM400.616 138.908V140.228H402.872V138.908H400.616ZM404.36 145.712V146.72H397.052V143.276H398.3V145.712H404.36Z" fill="#1B1F27"/>
<path d="M203.903 150.36C205.863 150.402 207.165 151.62 207.123 153.174C207.123 154.364 206.437 155.064 205.555 155.498C206.787 155.96 207.305 156.758 207.305 157.99C207.263 160.132 205.555 161.266 203.595 161.266C201.467 161.266 200.417 160.202 199.857 158.368L201.565 157.696C201.789 158.592 202.573 159.586 203.567 159.586C204.799 159.586 205.401 158.816 205.401 158.032C205.401 157.052 205.135 156.38 202.951 156.38V154.98C204.799 154.938 205.233 154.35 205.233 153.454C205.247 152.488 204.701 152.012 203.791 152.012C202.601 152.012 202.195 152.796 202.013 153.804C201.411 153.706 200.809 153.58 200.193 153.482C200.599 151.34 201.929 150.36 203.903 150.36ZM212.172 150.36C214.118 150.36 215.476 151.606 215.476 153.398C215.434 154.868 214.398 156.086 213.362 157.164L211.192 159.348C211.57 159.25 211.906 159.236 212.228 159.236H215.588V161H208.294V159.88L211.808 156.422C212.872 155.358 213.53 154.518 213.53 153.44C213.53 152.474 212.956 151.97 212.046 151.97C211.262 151.97 210.702 152.502 210.478 153.118C210.408 153.328 210.38 153.538 210.366 153.818L208.532 153.51C208.868 151.368 210.254 150.36 212.172 150.36ZM221.156 149.03L217.684 162.848H216.312L219.784 149.03H221.156ZM227.256 159.446H229.062V161H223.294V159.446H225.338V153.748L225.394 152.838L223.686 154.392L222.58 153.132L225.604 150.528H227.256V159.446ZM237.934 155.806C237.934 159.502 236.268 161.196 234.028 161.196C231.844 161.196 230.164 159.502 230.164 155.806C230.164 152.082 231.844 150.402 234.028 150.402C236.268 150.402 237.934 152.082 237.934 155.806ZM235.974 155.806C235.974 152.824 235.05 152.012 234.028 152.012C233.062 152.012 232.124 152.824 232.124 155.806C232.124 158.774 233.062 159.572 234.028 159.572C235.05 159.572 235.974 158.774 235.974 155.806ZM246.274 155.806C246.274 159.502 244.608 161.196 242.368 161.196C240.184 161.196 238.504 159.502 238.504 155.806C238.504 152.082 240.184 150.402 242.368 150.402C244.608 150.402 246.274 152.082 246.274 155.806ZM244.314 155.806C244.314 152.824 243.39 152.012 242.368 152.012C241.402 152.012 240.464 152.824 240.464 155.806C240.464 158.774 241.402 159.572 242.368 159.572C243.39 159.572 244.314 158.774 244.314 155.806Z" fill="#1B1F27"/>
<path d="M216.866 177H210.962V176.232L213.998 173.316C214.922 172.332 215.594 171.576 215.594 170.544C215.558 169.488 214.886 168.996 213.974 168.996C212.966 168.996 212.222 169.716 212.222 170.724L211.142 170.544C211.37 168.924 212.534 168.048 214.034 168.048C215.534 168.048 216.698 168.96 216.698 170.52C216.698 171.828 215.858 172.74 214.862 173.736L212.402 176.172C212.738 176.076 213.098 176.028 213.398 176.028H216.866V177ZM224.435 174.66H223.103V177H222.131V174.66H217.739V173.844L222.071 168.108H223.103V173.796H224.435V174.66ZM222.131 170.124C222.131 169.92 222.143 169.632 222.179 169.38L218.939 173.796H222.131V170.124ZM227.083 173.364C225.871 173.364 225.079 172.464 225.079 170.676C225.079 168.888 225.871 168.024 227.083 168.024C228.331 168.024 229.111 168.888 229.111 170.676C229.111 172.464 228.331 173.364 227.083 173.364ZM233.047 168.024L228.199 177.144H227.239L232.099 168.024H233.047ZM227.083 172.62C227.755 172.62 228.211 172.068 228.211 170.676C228.211 169.296 227.755 168.768 227.083 168.768C226.411 168.768 225.967 169.32 225.967 170.676C225.967 172.056 226.423 172.62 227.083 172.62ZM233.179 177.12C231.967 177.12 231.151 176.232 231.151 174.444C231.151 172.656 231.967 171.792 233.179 171.792C234.391 171.792 235.195 172.656 235.195 174.444C235.195 176.232 234.391 177.12 233.179 177.12ZM233.179 176.376C233.851 176.376 234.295 175.836 234.295 174.444C234.295 173.064 233.851 172.524 233.179 172.524C232.507 172.524 232.051 173.064 232.051 174.444C232.051 175.824 232.507 176.376 233.179 176.376Z" fill="#1B1F27"/>
<path d="M216.029 136.088V142.544H214.793V140.972H212.537V141.992H207.545V136.724H208.769V138.392H211.325V136.724H212.537V137.756H214.793V136.088H216.029ZM214.793 139.976V138.764H212.537V139.976H214.793ZM211.325 139.352H208.769V140.996H211.325V139.352ZM208.721 143.084H216.029V146.936H214.793V144.08H208.721V143.084ZM227.02 143.984H225.784V136.1H227.02V143.984ZM224.152 142.532C222.904 142.112 221.992 141.284 221.512 140.216C221.032 141.368 220.12 142.292 218.824 142.724L218.176 141.764C219.892 141.188 220.864 139.772 220.864 138.32V137.924H218.512V136.928H224.44V137.924H222.124V138.32C222.124 139.712 223.108 141.02 224.776 141.56L224.152 142.532ZM227.332 145.712V146.72H219.94V143.264H221.188V145.712H227.332ZM234.616 142.172H229.6V136.988H234.616V137.9H236.872V136.088H238.108V143.996H236.872V141.224H234.616V142.172ZM233.416 137.972H230.812V141.188H233.416V137.972ZM234.616 138.908V140.228H236.872V138.908H234.616ZM238.36 145.712V146.72H231.052V143.276H232.3V145.712H238.36Z" fill="#1B1F27"/>
<path d="M380.833 392.36C382.779 392.36 384.137 393.606 384.137 395.398C384.095 396.868 383.059 398.086 382.023 399.164L379.853 401.348C380.231 401.25 380.567 401.236 380.889 401.236H384.249V403H376.955V401.88L380.469 398.422C381.533 397.358 382.191 396.518 382.191 395.44C382.191 394.474 381.617 393.97 380.707 393.97C379.923 393.97 379.363 394.502 379.139 395.118C379.069 395.328 379.041 395.538 379.027 395.818L377.193 395.51C377.529 393.368 378.915 392.36 380.833 392.36ZM390.488 401.446H392.294V403H386.526V401.446H388.57V395.748L388.626 394.838L386.918 396.392L385.812 395.132L388.836 392.528H390.488V401.446ZM398.156 391.03L394.684 404.848H393.312L396.784 391.03H398.156ZM404.256 401.446H406.062V403H400.294V401.446H402.338V395.748L402.394 394.838L400.686 396.392L399.58 395.132L402.604 392.528H404.256V401.446ZM414.934 397.806C414.934 401.502 413.268 403.196 411.028 403.196C408.844 403.196 407.164 401.502 407.164 397.806C407.164 394.082 408.844 392.402 411.028 392.402C413.268 392.402 414.934 394.082 414.934 397.806ZM412.974 397.806C412.974 394.824 412.05 394.012 411.028 394.012C410.062 394.012 409.124 394.824 409.124 397.806C409.124 400.774 410.062 401.572 411.028 401.572C412.05 401.572 412.974 400.774 412.974 397.806ZM423.274 397.806C423.274 401.502 421.608 403.196 419.368 403.196C417.184 403.196 415.504 401.502 415.504 397.806C415.504 394.082 417.184 392.402 419.368 392.402C421.608 392.402 423.274 394.082 423.274 397.806ZM421.314 397.806C421.314 394.824 420.39 394.012 419.368 394.012C418.402 394.012 417.464 394.824 417.464 397.806C417.464 400.774 418.402 401.572 419.368 401.572C420.39 401.572 421.314 400.774 421.314 397.806Z" fill="#1B1F27"/>
<path d="M393.866 419H387.962V418.232L390.998 415.316C391.922 414.332 392.594 413.576 392.594 412.544C392.558 411.488 391.886 410.996 390.974 410.996C389.966 410.996 389.222 411.716 389.222 412.724L388.142 412.544C388.37 410.924 389.534 410.048 391.034 410.048C392.534 410.048 393.698 410.96 393.698 412.52C393.698 413.828 392.858 414.74 391.862 415.736L389.402 418.172C389.738 418.076 390.098 418.028 390.398 418.028H393.866V419ZM396.767 413.48C397.175 413.372 397.595 413.324 398.027 413.324C399.887 413.324 400.883 414.476 400.883 416.012C400.883 417.884 399.479 419.108 397.691 419.108C396.635 419.108 395.747 418.676 395.207 418.16L395.795 417.356C396.323 417.8 397.019 418.124 397.739 418.124C398.951 418.124 399.827 417.368 399.827 416.072C399.827 414.92 399.083 414.248 397.823 414.248C397.355 414.248 396.899 414.356 396.383 414.536L395.675 414.332L396.395 410.168H400.607V411.176H397.163L396.767 413.48ZM404.083 415.364C402.871 415.364 402.079 414.464 402.079 412.676C402.079 410.888 402.871 410.024 404.083 410.024C405.331 410.024 406.111 410.888 406.111 412.676C406.111 414.464 405.331 415.364 404.083 415.364ZM410.047 410.024L405.199 419.144H404.239L409.099 410.024H410.047ZM404.083 414.62C404.755 414.62 405.211 414.068 405.211 412.676C405.211 411.296 404.755 410.768 404.083 410.768C403.411 410.768 402.967 411.32 402.967 412.676C402.967 414.056 403.423 414.62 404.083 414.62ZM410.179 419.12C408.967 419.12 408.151 418.232 408.151 416.444C408.151 414.656 408.967 413.792 410.179 413.792C411.391 413.792 412.195 414.656 412.195 416.444C412.195 418.232 411.391 419.12 410.179 419.12ZM410.179 418.376C410.851 418.376 411.295 417.836 411.295 416.444C411.295 415.064 410.851 414.524 410.179 414.524C409.507 414.524 409.051 415.064 409.051 416.444C409.051 417.824 409.507 418.376 410.179 418.376Z" fill="#1B1F27"/>
<path d="M393.845 383.356V384.34H384.041V383.356H386.369V381.916C385.553 381.568 385.085 381.028 385.085 380.308C385.085 379.024 386.585 378.268 388.949 378.268C391.313 378.268 392.813 379.024 392.813 380.308C392.813 381.028 392.333 381.556 391.505 381.928V383.356H393.845ZM388.949 379.228C387.305 379.228 386.357 379.588 386.357 380.308C386.357 381.028 387.305 381.4 388.949 381.4C390.593 381.4 391.529 381.028 391.529 380.308C391.529 379.588 390.593 379.228 388.949 379.228ZM387.605 383.356H390.269V382.252C389.873 382.312 389.429 382.348 388.949 382.348C388.469 382.348 388.001 382.312 387.605 382.252V383.356ZM388.925 385.036C391.325 385.036 392.657 385.732 392.657 386.98C392.657 388.228 391.325 388.924 388.925 388.924C386.597 388.924 385.193 388.228 385.193 386.98C385.193 385.732 386.537 385.036 388.925 385.036ZM388.925 387.976C390.521 387.976 391.409 387.652 391.409 386.98C391.409 386.308 390.521 385.984 388.925 385.984C387.329 385.984 386.453 386.308 386.453 386.98C386.453 387.652 387.329 387.976 388.925 387.976ZM405.088 381.64H403.552V384.304H402.316V378.088H403.552V380.62H405.088V381.64ZM400.996 381.28C400.996 382.816 399.772 383.884 398.104 383.884C396.46 383.884 395.224 382.816 395.224 381.28C395.224 379.768 396.46 378.712 398.104 378.712C399.772 378.712 400.996 379.768 400.996 381.28ZM396.436 381.28C396.436 382.24 397.132 382.84 398.104 382.84C399.076 382.84 399.784 382.24 399.784 381.28C399.784 380.356 399.076 379.744 398.104 379.744C397.132 379.744 396.436 380.356 396.436 381.28ZM396.628 384.808H403.552V388.792H396.628V384.808ZM397.852 387.808H402.34V385.792H397.852V387.808ZM411.616 384.172H406.6V378.988H411.616V379.9H413.872V378.088H415.108V385.996H413.872V383.224H411.616V384.172ZM410.416 379.972H407.812V383.188H410.416V379.972ZM411.616 380.908V382.228H413.872V380.908H411.616ZM415.36 387.712V388.72H408.052V385.276H409.3V387.712H415.36Z" fill="#1B1F27"/>
<path d="M444.833 267.36C446.779 267.36 448.137 268.606 448.137 270.398C448.095 271.868 447.059 273.086 446.023 274.164L443.853 276.348C444.231 276.25 444.567 276.236 444.889 276.236H448.249V278H440.955V276.88L444.469 273.422C445.533 272.358 446.191 271.518 446.191 270.44C446.191 269.474 445.617 268.97 444.707 268.97C443.923 268.97 443.363 269.502 443.139 270.118C443.069 270.328 443.041 270.538 443.027 270.818L441.193 270.51C441.529 268.368 442.915 267.36 444.833 267.36ZM453.242 267.36C455.202 267.402 456.504 268.62 456.462 270.174C456.462 271.364 455.776 272.064 454.894 272.498C456.126 272.96 456.644 273.758 456.644 274.99C456.602 277.132 454.894 278.266 452.934 278.266C450.806 278.266 449.756 277.202 449.196 275.368L450.904 274.696C451.128 275.592 451.912 276.586 452.906 276.586C454.138 276.586 454.74 275.816 454.74 275.032C454.74 274.052 454.474 273.38 452.29 273.38V271.98C454.138 271.938 454.572 271.35 454.572 270.454C454.586 269.488 454.04 269.012 453.13 269.012C451.94 269.012 451.534 269.796 451.352 270.804C450.75 270.706 450.148 270.58 449.532 270.482C449.938 268.34 451.268 267.36 453.242 267.36ZM462.156 266.03L458.684 279.848H457.312L460.784 266.03H462.156ZM468.256 276.446H470.062V278H464.294V276.446H466.338V270.748L466.394 269.838L464.686 271.392L463.58 270.132L466.604 267.528H468.256V276.446ZM478.934 272.806C478.934 276.502 477.268 278.196 475.028 278.196C472.844 278.196 471.164 276.502 471.164 272.806C471.164 269.082 472.844 267.402 475.028 267.402C477.268 267.402 478.934 269.082 478.934 272.806ZM476.974 272.806C476.974 269.824 476.05 269.012 475.028 269.012C474.062 269.012 473.124 269.824 473.124 272.806C473.124 275.774 474.062 276.572 475.028 276.572C476.05 276.572 476.974 275.774 476.974 272.806ZM487.274 272.806C487.274 276.502 485.608 278.196 483.368 278.196C481.184 278.196 479.504 276.502 479.504 272.806C479.504 269.082 481.184 267.402 483.368 267.402C485.608 267.402 487.274 269.082 487.274 272.806ZM485.314 272.806C485.314 269.824 484.39 269.012 483.368 269.012C482.402 269.012 481.464 269.824 481.464 272.806C481.464 275.774 482.402 276.572 483.368 276.572C484.39 276.572 485.314 275.774 485.314 272.806Z" fill="#1B1F27"/>
<path d="M457.866 294H451.962V293.232L454.998 290.316C455.922 289.332 456.594 288.576 456.594 287.544C456.558 286.488 455.886 285.996 454.974 285.996C453.966 285.996 453.222 286.716 453.222 287.724L452.142 287.544C452.37 285.924 453.534 285.048 455.034 285.048C456.534 285.048 457.698 285.96 457.698 287.52C457.698 288.828 456.858 289.74 455.862 290.736L453.402 293.172C453.738 293.076 454.098 293.028 454.398 293.028H457.866V294ZM465.015 294H459.111V293.232L462.147 290.316C463.071 289.332 463.743 288.576 463.743 287.544C463.707 286.488 463.035 285.996 462.123 285.996C461.115 285.996 460.371 286.716 460.371 287.724L459.291 287.544C459.519 285.924 460.683 285.048 462.183 285.048C463.683 285.048 464.847 285.96 464.847 287.52C464.847 288.828 464.007 289.74 463.011 290.736L460.551 293.172C460.887 293.076 461.247 293.028 461.547 293.028H465.015V294ZM468.083 290.364C466.871 290.364 466.079 289.464 466.079 287.676C466.079 285.888 466.871 285.024 468.083 285.024C469.331 285.024 470.111 285.888 470.111 287.676C470.111 289.464 469.331 290.364 468.083 290.364ZM474.047 285.024L469.199 294.144H468.239L473.099 285.024H474.047ZM468.083 289.62C468.755 289.62 469.211 289.068 469.211 287.676C469.211 286.296 468.755 285.768 468.083 285.768C467.411 285.768 466.967 286.32 466.967 287.676C466.967 289.056 467.423 289.62 468.083 289.62ZM474.179 294.12C472.967 294.12 472.151 293.232 472.151 291.444C472.151 289.656 472.967 288.792 474.179 288.792C475.391 288.792 476.195 289.656 476.195 291.444C476.195 293.232 475.391 294.12 474.179 294.12ZM474.179 293.376C474.851 293.376 475.295 292.836 475.295 291.444C475.295 290.064 474.851 289.524 474.179 289.524C473.507 289.524 473.051 290.064 473.051 291.444C473.051 292.824 473.507 293.376 474.179 293.376Z" fill="#1B1F27"/>
<path d="M455.793 256.544H453.597V255.524H455.793V253.088H457.029V261.152H455.793V256.544ZM453.789 259.448C452.625 259.016 451.785 258.152 451.317 257.048C450.837 258.26 449.937 259.22 448.689 259.7L448.029 258.74C449.721 258.128 450.657 256.616 450.657 255.008V253.748H451.917V255.032C451.917 256.472 452.829 257.912 454.449 258.488L453.789 259.448ZM457.281 262.712V263.72H449.973V260.3H451.221V262.712H457.281ZM469.088 256.508H467.552V259.208H466.316V253.088H467.552V255.488H469.088V256.508ZM465.476 258.032C463.64 258.404 462.044 258.5 460.448 258.5H459.572V253.616H460.808V257.48C462.26 257.444 463.724 257.348 465.32 257.024L465.476 258.032ZM460.628 259.76H467.552V263.792H460.628V259.76ZM461.84 262.796H466.34V260.744H461.84V262.796ZM475.616 259.172H470.6V253.988H475.616V254.9H477.872V253.088H479.108V260.996H477.872V258.224H475.616V259.172ZM474.416 254.972H471.812V258.188H474.416V254.972ZM475.616 255.908V257.228H477.872V255.908H475.616ZM479.36 262.712V263.72H472.052V260.276H473.3V262.712H479.36Z" fill="#1B1F27"/>
</svg>
