<svg width="27" height="28" viewBox="0 0 27 28" fill="none" xmlns="http://www.w3.org/2000/svg">
<mask id="mask0_113_1514" style="mask-type:alpha" maskUnits="userSpaceOnUse" x="0" y="0" width="27" height="28">
<rect width="27" height="28" fill="#D9D9D9"/>
</mask>
<g mask="url(#mask0_113_1514)">
<path d="M7.4188 22.3879C8.33604 23.0552 8.84378 24.5988 9.94777 24.9567C11.0109 25.302 12.324 24.3624 13.5029 24.3624C14.6818 24.3624 15.994 25.302 17.0571 24.9567C18.1591 24.5988 18.6669 23.0552 19.5861 22.3879C20.5052 21.7206 22.1345 21.707 22.8086 20.7771C23.4826 19.8473 22.9895 18.3172 23.3464 17.2152C23.6917 16.152 25 15.1949 25 14.017C25 12.8391 23.6879 11.8771 23.3464 10.8188C22.9885 9.71679 23.4758 8.17412 22.8086 7.25688C22.1413 6.33964 20.5121 6.32019 19.5861 5.64612C18.6601 4.97206 18.1572 3.43425 17.0551 3.0763C15.992 2.731 14.6789 3.66964 13.501 3.66964C12.3231 3.66964 11.009 2.731 9.94583 3.0763C8.84378 3.43425 8.33604 4.97789 7.41686 5.64515C6.49767 6.31241 4.86843 6.32603 4.19339 7.25591C3.51835 8.18579 4.01539 9.71193 3.65356 10.8188C3.31215 11.882 2 12.8381 2 14.017C2 15.1959 3.31215 16.152 3.65356 17.2152C4.0115 18.3172 3.52419 19.8599 4.19145 20.7771C4.85871 21.6944 6.48795 21.7138 7.41394 22.3879" fill="url(#paint0_linear_113_1514)"/>
<path d="M13.8026 9C15.6447 9.03851 16.8684 10.1553 16.8289 11.5802C16.8289 12.6714 16.1842 13.3132 15.3553 13.7112C16.5132 14.1348 17 14.8665 17 15.9961C16.9605 17.9602 15.3553 19 13.5132 19C11.5132 19 10.5263 18.0244 10 16.3427L11.6053 15.7266C11.8158 16.5481 12.5526 17.4596 13.4868 17.4596C14.6447 17.4596 15.2105 16.7535 15.2105 16.0347C15.2105 15.1361 14.9605 14.5199 12.9079 14.5199V13.2362C14.6447 13.1977 15.0526 12.6585 15.0526 11.837C15.0658 10.9512 14.5526 10.5148 13.6974 10.5148C12.5789 10.5148 12.1974 11.2336 12.0263 12.1579C11.4605 12.068 10.8947 11.9525 10.3158 11.8626C10.6974 9.89859 11.9474 9 13.8026 9Z" fill="white"/>
</g>
<defs>
<linearGradient id="paint0_linear_113_1514" x1="8.095" y1="5.18127" x2="22.4727" y2="20.649" gradientUnits="userSpaceOnUse">
<stop stop-color="#586275"/>
<stop offset="0.488" stop-color="#1B1F27"/>
<stop offset="1" stop-color="#586275"/>
</linearGradient>
</defs>
</svg>
