<svg width="27" height="28" viewBox="0 0 27 28" fill="none" xmlns="http://www.w3.org/2000/svg">
<mask id="mask0_113_1576" style="mask-type:alpha" maskUnits="userSpaceOnUse" x="0" y="0" width="27" height="28">
<rect width="27" height="28" fill="#D9D9D9"/>
</mask>
<g mask="url(#mask0_113_1576)">
<path d="M7.4188 22.3879C8.33604 23.0552 8.84378 24.5988 9.94777 24.9567C11.0109 25.302 12.324 24.3624 13.5029 24.3624C14.6818 24.3624 15.994 25.302 17.0571 24.9567C18.1591 24.5988 18.6669 23.0552 19.5861 22.3879C20.5052 21.7206 22.1345 21.707 22.8086 20.7771C23.4826 19.8473 22.9895 18.3172 23.3464 17.2152C23.6917 16.152 25 15.1949 25 14.017C25 12.8391 23.6879 11.8771 23.3464 10.8188C22.9885 9.71679 23.4758 8.17412 22.8086 7.25688C22.1413 6.33964 20.5121 6.32019 19.5861 5.64612C18.6601 4.97206 18.1572 3.43425 17.0551 3.0763C15.992 2.731 14.6789 3.66964 13.501 3.66964C12.3231 3.66964 11.009 2.731 9.94583 3.0763C8.84378 3.43425 8.33604 4.97789 7.41686 5.64515C6.49767 6.31241 4.86843 6.32603 4.19339 7.25591C3.51835 8.18579 4.01539 9.71193 3.65356 10.8188C3.31215 11.882 2 12.8381 2 14.017C2 15.1959 3.31215 16.152 3.65356 17.2152C4.0115 18.3172 3.52419 19.8599 4.19145 20.7771C4.85871 21.6944 6.48795 21.7138 7.41394 22.3879" fill="url(#paint0_linear_113_1576)"/>
<path d="M12.7697 11.6057L12.4252 13.5117C12.8524 13.4465 13.2382 13.4204 13.6102 13.4204C15.815 13.4204 17 14.752 17 16.4752C17 18.577 15.3189 20 13.1004 20C11.8327 20 10.7028 19.4517 10 18.8251L10.9646 17.4935C11.6122 18.0026 12.3287 18.4465 13.2106 18.4465C14.4783 18.4465 15.1535 17.7024 15.1535 16.5535C15.1535 15.5091 14.5059 14.8695 13.2382 14.9086C12.7283 14.9478 12.2323 15.0392 11.7362 15.2089L10.5787 14.8825C11.0059 12.376 11.2815 10.8355 11.4331 10H16.6417V11.6057H12.7697Z" fill="#FEFFFF"/>
</g>
<defs>
<linearGradient id="paint0_linear_113_1576" x1="8.095" y1="5.18127" x2="22.4727" y2="20.649" gradientUnits="userSpaceOnUse">
<stop stop-color="#A5B2CD"/>
<stop offset="0.488" stop-color="#747578"/>
<stop offset="1" stop-color="#A5B2CD"/>
</linearGradient>
</defs>
</svg>
