<?xml version="1.0" encoding="UTF-8"?>
<svg id="_레이어_2" data-name="레이어 2" xmlns="http://www.w3.org/2000/svg" viewBox="0 0 1257.11 51.35">
  <defs>
    <style>
      .cls-1 {
        fill: none;
      }

      .cls-2 {
        fill: #252829;
      }
    </style>
  </defs>
  <g id="_레이어_1-2" data-name="레이어 1">
    <g>
      <rect class="cls-1" y="0" width="1257.11" height="51.35"/>
      <g>
        <path class="cls-2" d="M16.49,14.93c0,7.81,3.53,15.22,8.78,20,.4.4.4.8.06,1.14l-3.48,3.36c-.34.34-.8.4-1.2,0-3.19-3.19-5.93-7.24-7.69-11.46-1.54,4.33-4.45,8.78-8.04,12.54-.4.46-.85.34-1.2,0l-3.48-3.36c-.34-.29-.34-.74.06-1.14,5.81-5.64,9.06-13.28,9.06-21.09v-2.91H2.24c-.51,0-.74-.29-.74-.74v-5.02c0-.46.23-.68.74-.68h20.75c.57,0,.8.23.8.68v5.02c0,.46-.23.74-.8.74h-6.5v2.91ZM34.22,1.77c.51,0,.68.29.68.74v46.05c0,.46-.17.74-.68.74h-5.64c-.51,0-.68-.29-.68-.74v-25.42h-5.87c-.57,0-.8-.29-.8-.8v-4.9c0-.51.23-.8.8-.8h5.87V2.51c0-.46.17-.74.68-.74h5.64ZM45.16.68c.51,0,.68.29.68.74v48.67c0,.46-.17.68-.68.68h-5.76c-.46,0-.68-.23-.68-.68V1.42c0-.46.23-.74.68-.74h5.76Z"/>
        <path class="cls-2" d="M97.98,23.71c.51,0,.74.34.74.8v4.56c0,.46-.23.74-.74.74h-19.72v3.7h12.99c.51,0,.74.29.74.74v16.13c0,.4-.23.68-.74.68h-33.28c-.46,0-.68-.29-.68-.68v-16.13c0-.46.23-.74.68-.74h12.99v-3.7h-19.72c-.46,0-.68-.29-.68-.74v-4.56c0-.46.23-.8.68-.8h46.73ZM57.35,20.12c-.57,0-.8-.29-.8-.74v-4.5c0-.46.23-.74.8-.74h5.7v-6.21h-5.42c-.57,0-.8-.29-.8-.74V2.62c0-.46.23-.74.8-.74h34.02c.51,0,.74.28.74.74v4.56c0,.46-.23.74-.74.74h-5.47v6.21h5.76c.51,0,.74.29.74.74v4.5c0,.46-.23.74-.74.74h-34.59ZM84.76,45.08v-5.58h-20.23v5.58h20.23ZM70.17,7.92v6.21h8.83v-6.21h-8.83Z"/>
        <path class="cls-2" d="M145.33,34.31l-3.42,3.99c-.34.29-.74.29-1.2,0-4.79-3.82-8.61-8.21-10.54-12.08-2.11,4.16-6.04,8.89-11.06,12.88-.46.34-.91.34-1.2,0l-3.48-3.99c-.34-.34-.34-.85.06-1.14,6.84-5.47,11.85-12.31,11.85-21.83v-6.21c0-.4.23-.68.74-.68h5.81c.46,0,.68.29.68.68v6.21c0,9.23,5.64,16.19,11.68,20.97.46.34.4.85.06,1.2ZM156.39.68c.57,0,.8.29.8.74v48.67c0,.46-.23.68-.8.68h-5.76c-.51,0-.74-.23-.74-.68V1.42c0-.46.23-.74.74-.74h5.76Z"/>
        <path class="cls-2" d="M195.31,9.92c0,.46-.23.74-.74.74h-29.24c-.51,0-.74-.29-.74-.74v-4.62c0-.46.23-.74.74-.74h11.11V.68c0-.46.23-.68.74-.68h5.93c.46,0,.68.23.68.68v3.88h10.77c.51,0,.74.29.74.74v4.62ZM179.86,30.32c-7.98,0-12.94-3.31-12.94-9.06s4.96-9.06,12.94-9.06,12.99,3.3,12.99,9.06-4.96,9.06-12.99,9.06ZM206.76,32.43c.51,0,.74.29.74.68v16.93c0,.46-.23.74-.74.74h-32.2c-.57,0-.8-.29-.8-.74v-16.93c0-.4.23-.68.8-.68h32.2ZM179.92,24.73c4.05,0,5.93-1.37,5.93-3.48s-1.88-3.42-5.93-3.42-5.93,1.37-5.93,3.42,1.88,3.48,5.93,3.48ZM200.21,45.02v-6.95h-19.21v6.95h19.21ZM206.71.68c.57,0,.8.29.8.74v27.75c0,.46-.23.74-.8.74h-5.76c-.51,0-.74-.28-.74-.74v-6.61h-5.41c-.57,0-.74-.29-.74-.74v-4.84c0-.46.17-.74.74-.74h5.41V1.42c0-.46.23-.74.74-.74h5.76Z"/>
        <path class="cls-2" d="M219.35,28.89c-.46.17-.91.29-1.2-.06l-3.02-4.33c-.29-.4-.4-.97.06-1.14,6.78-3.65,11.57-9.46,11.57-14.65v-4.67c0-.46.17-.74.68-.74h5.81c.46,0,.68.28.68.74v4.67c0,5.07,3.65,9.92,10.71,13.62.46.23.34.68.06,1.08l-2.79,4.45c-.23.4-.74.34-1.2.11-4.27-2.34-8.09-5.64-10.37-9-2.34,3.65-6.44,7.47-11,9.92ZM258.34,40.81c0,6.1-5.47,10.54-17.44,10.54s-17.44-4.45-17.44-10.54,5.47-10.54,17.44-10.54,17.44,4.39,17.44,10.54ZM251.15,40.81c0-2.56-3.13-4.39-10.26-4.39s-10.2,1.82-10.2,4.39,3.08,4.45,10.2,4.45,10.26-1.88,10.26-4.45ZM241.81,15.33c-.51,0-.74-.23-.74-.74v-4.73c0-.46.23-.74.74-.74h8.72V1.42c0-.46.23-.74.74-.74h5.76c.57,0,.8.29.8.74v26.79c0,.46-.23.68-.8.68h-5.76c-.51,0-.74-.23-.74-.68v-12.88h-8.72Z"/>
        <path class="cls-2" d="M269.16,29.24c-.4.23-.97.11-1.2-.23l-2.51-4.27c-.29-.46-.29-.97.17-1.2,6.67-3.19,11.4-6.38,11.4-11.17v-2.34h-9.35c-.51,0-.74-.29-.74-.68v-4.79c0-.4.23-.68.74-.68h25.65c.51,0,.74.29.74.68v4.79c0,.4-.23.68-.74.68h-9.06v2.34c0,4.5,3.82,7.29,10.6,10.26.46.17.46.68.23,1.08l-2.28,4.39c-.23.4-.74.34-1.2.17-4.1-1.6-8.15-4.16-10.94-7.18-2.74,3.25-6.73,5.98-11.51,8.15ZM307.4,31.63c.51,0,.74.23.74.68v18.29c0,.4-.23.68-.74.68h-5.76c-.57,0-.8-.29-.8-.68v-12.65h-26.79c-.51,0-.74-.29-.74-.74v-4.9c0-.46.23-.68.74-.68h33.34ZM307.34.68c.57,0,.8.29.8.74v26.96c0,.46-.23.68-.8.68h-5.76c-.51,0-.74-.23-.74-.68v-9.92h-8.43c-.51,0-.74-.29-.74-.74v-4.62c0-.51.23-.74.74-.74h8.43V1.42c0-.46.23-.74.74-.74h5.76Z"/>
        <path class="cls-2" d="M346.37,34.82l-3.48,3.99c-.34.34-.74.34-1.2,0-4.79-3.82-8.55-8.15-10.54-12.02-2.05,4.22-6.1,9-11.06,12.88-.46.29-.91.29-1.2,0l-3.48-3.99c-.34-.34-.34-.91.06-1.2,6.84-5.47,11.91-12.31,11.91-21.83v-6.84c0-.4.17-.68.68-.68h5.81c.46,0,.68.29.68.68v6.84c0,9.29,5.53,16.36,11.74,21.03.4.34.34.8.06,1.14ZM357.66.68c.57,0,.8.29.8.74v48.67c0,.46-.23.68-.8.68h-5.76c-.51,0-.74-.23-.74-.68v-27.81h-8.95c-.57,0-.8-.23-.8-.74v-4.96c0-.46.23-.74.8-.74h8.95V1.42c0-.46.23-.74.74-.74h5.76Z"/>
      </g>
    </g>
  </g>
</svg>