<?xml version="1.0" encoding="UTF-8"?>
<svg id="_레이어_2" data-name="레이어 2" xmlns="http://www.w3.org/2000/svg" viewBox="0 0 1257.11 51.35">
  <defs>
    <style>
      .cls-1 {
        fill: none;
      }

      .cls-2 {
        fill: #252829;
      }
    </style>
  </defs>
  <g id="_레이어_1-2" data-name="레이어 1">
    <g>
      <rect class="cls-1" y="0" width="1257.11" height="51.35"/>
      <g>
        <path class="cls-2" d="M47.42,26.44c.51,0,.74.29.74.68v4.5c0,.46-.23.68-.74.68H.68c-.46,0-.68-.23-.68-.68v-4.5c0-.4.23-.68.68-.68h46.73ZM40.58,35.33c.51,0,.74.29.74.74v13.91c0,.4-.23.68-.74.68h-5.76c-.51,0-.74-.29-.74-.68v-8.72H7.07c-.51,0-.74-.29-.74-.74v-4.45c0-.46.23-.74.74-.74h33.51ZM7.81,23.65c-.51,0-.68-.29-.68-.74V2.28c0-.4.17-.74.68-.74h32.26c.51,0,.74.29.74.68v4.27c0,.51-.23.8-.74.8H14.25v2.45h25.53c.46,0,.74.28.74.74v4.1c0,.46-.28.74-.74.74H14.25v2.68h26.73c.46,0,.74.28.74.74v4.16c0,.46-.29.74-.74.74H7.81Z"/>
        <path class="cls-2" d="M80.58,13.68c0,.46-.23.74-.74.74h-28.67c-.46,0-.68-.28-.68-.74v-4.84c0-.46.23-.74.68-.74h10.49V2.22c0-.4.23-.68.8-.68h5.81c.46,0,.68.29.68.68v5.87h10.89c.51,0,.74.28.74.74v4.84ZM78.64,29.58c0,7.52-5.13,12.14-13.05,12.14s-12.99-4.62-12.99-12.14,5.07-12.25,12.99-12.25,13.05,4.67,13.05,12.25ZM71.52,29.58c0-3.82-2.22-6.27-5.87-6.27s-5.93,2.45-5.93,6.27,2.22,6.15,5.93,6.15,5.87-2.45,5.87-6.15ZM93.29,0c.57,0,.8.28.8.74v48.67c0,.46-.23.68-.8.68h-5.76c-.51,0-.74-.23-.74-.68v-20.23h-6.21c-.57,0-.8-.29-.8-.8v-4.9c0-.51.23-.74.8-.74h6.21V.74c0-.46.23-.74.74-.74h5.76Z"/>
        <path class="cls-2" d="M141.84,22.74c0,.4-.23.68-.74.68h-24.16c-.57,0-.74-.29-.74-.68V3.42c0-.51.17-.8.74-.8h24.16c.51,0,.74.28.74.8v19.32ZM159.62,45.54l-1.42,4.5c-.11.4-.51.63-.91.51-8.55-1.71-14.65-4.22-17.44-7.41-2.79,3.19-8.95,5.7-17.38,7.41-.46.11-.8-.11-.91-.51l-1.42-4.5c-.17-.51,0-.85.4-.91,7.81-1.54,13.96-3.48,15.45-6.95h-13.28c-.51,0-.74-.29-.74-.74v-4.62c0-.46.23-.74.74-.74h13.62v-4.16c0-.46.23-.68.68-.68h5.87c.51,0,.74.23.74.68v4.16h13.45c.46,0,.68.28.68.74v4.62c0,.46-.23.74-.68.74h-13.11c1.42,3.48,7.41,5.36,15.22,6.95.46.06.63.4.46.91ZM134.66,17.5v-8.89h-11.28v8.89h11.28ZM150.38,27.53c-.51,0-.74-.29-.74-.68V.74c0-.46.23-.74.74-.74h5.76c.57,0,.8.28.8.74v26.1c0,.4-.23.68-.8.68h-5.76Z"/>
        <path class="cls-2" d="M178.02,14.87c0-7.47,5.76-12.77,13.91-12.77s13.91,5.3,13.91,12.77-5.76,12.82-13.91,12.82-13.91-5.3-13.91-12.82ZM198.71,14.87c0-3.99-2.79-6.67-6.78-6.67s-6.78,2.68-6.78,6.67,2.79,6.67,6.78,6.67,6.78-2.68,6.78-6.67ZM187.36,49.58c-.51,0-.74-.29-.74-.74v-16.24c0-.4.23-.68.74-.68h5.81c.51,0,.74.29.74.68v10.54h26.22c.51,0,.74.23.74.74v4.96c0,.46-.23.74-.74.74h-32.77ZM213.24,36.53c-.51,0-.74-.23-.74-.68V.74c0-.46.23-.74.74-.74h5.76c.57,0,.8.28.8.74v35.11c0,.46-.23.68-.8.68h-5.76Z"/>
        <path class="cls-2" d="M273.76,22.57c.51,0,.74.29.74.74v4.62c0,.4-.23.68-.74.68h-46.73c-.46,0-.68-.28-.68-.68v-4.62c0-.46.23-.74.68-.74h46.73ZM230.84,15.79c-.11-.51,0-.91.4-.97,9.18-1.65,14.76-4.5,15.44-7.52h-13.17c-.51,0-.74-.29-.74-.74V1.99c0-.46.23-.8.74-.8h33.74c.51,0,.68.34.68.8v4.56c0,.46-.17.74-.68.74h-13.11c.68,3.02,6.16,5.87,15.33,7.52.46.06.51.46.4.97l-1.14,4.45c-.11.46-.51.57-.97.51-7.24-1.14-13.45-3.53-17.38-6.9-3.93,3.36-10.09,5.7-17.33,6.9-.46.06-.8,0-.91-.51l-1.31-4.45ZM267.37,41.38c0,5.98-5.13,9.97-17.04,9.97s-16.98-3.99-16.98-9.97,5.13-9.86,16.98-9.86,17.04,3.82,17.04,9.86ZM260.13,41.38c0-2.34-2.45-3.93-9.8-3.93s-9.8,1.6-9.8,3.93,2.51,3.99,9.8,3.99,9.8-1.6,9.8-3.99Z"/>
      </g>
    </g>
  </g>
</svg>