<svg xmlns="http://www.w3.org/2000/svg" width="274.496" height="51.349" viewBox="0 0 274.496 51.349">
  <g id="그룹_81" data-name="그룹 81" transform="translate(-10511.977 -473.34)">
    <g id="그룹_80" data-name="그룹 80">
      <g id="그룹_79" data-name="그룹 79">
        <path id="패스_82" data-name="패스 82" d="M10559.394,499.784a.647.647,0,0,1,.741.684v4.5c0,.456-.228.684-.741.684h-46.732a.6.6,0,0,1-.685-.684v-4.5a.629.629,0,0,1,.685-.684Zm-6.839,8.89a.662.662,0,0,1,.74.742v13.9a.646.646,0,0,1-.74.684h-5.757a.647.647,0,0,1-.74-.684V514.6h-27.015a.663.663,0,0,1-.74-.741v-4.445a.663.663,0,0,1,.74-.742Zm-32.77-11.683c-.513,0-.685-.285-.685-.741V475.619c0-.4.172-.741.685-.741h32.256a.648.648,0,0,1,.742.685v4.274c0,.513-.229.8-.742.8h-25.816v2.45h25.532a.689.689,0,0,1,.741.741v4.1a.688.688,0,0,1-.741.74h-25.532v2.679h26.729a.689.689,0,0,1,.741.741v4.16a.689.689,0,0,1-.741.741Z" fill="#252829"/>
        <path id="패스_83" data-name="패스 83" d="M10592.557,487.018a.661.661,0,0,1-.74.74h-28.667a.646.646,0,0,1-.685-.74v-4.845a.646.646,0,0,1,.685-.74h10.485v-5.87c0-.4.229-.685.8-.685h5.814a.629.629,0,0,1,.683.685v5.87h10.887a.661.661,0,0,1,.74.74Zm-1.937,15.9c0,7.523-5.129,12.14-13.051,12.14s-12.994-4.617-12.994-12.14c0-7.58,5.072-12.253,12.994-12.253S10590.619,495.338,10590.619,502.918Zm-7.123,0c0-3.818-2.224-6.269-5.871-6.269-3.705,0-5.927,2.451-5.927,6.269,0,3.7,2.222,6.155,5.927,6.155C10581.272,509.073,10583.5,506.623,10583.5,502.918Zm21.77-29.578c.569,0,.8.285.8.741v48.67c0,.457-.229.684-.8.684h-5.756c-.513,0-.741-.227-.741-.684V502.52h-6.212a.7.7,0,0,1-.8-.8v-4.9c0-.513.229-.741.8-.741h6.212v-22a.663.663,0,0,1,.741-.741Z" fill="#252829"/>
        <path id="패스_84" data-name="패스 84" d="M10653.814,496.079a.648.648,0,0,1-.741.684h-24.164c-.571,0-.742-.285-.742-.684v-19.32c0-.513.171-.8.742-.8h24.164c.512,0,.741.285.741.8Zm17.78,22.8-1.425,4.5a.732.732,0,0,1-.912.513c-8.549-1.709-14.646-4.217-17.438-7.409-2.793,3.192-8.947,5.7-17.384,7.409a.707.707,0,0,1-.91-.513l-1.426-4.5c-.171-.513,0-.855.4-.912,7.807-1.539,13.962-3.476,15.445-6.953h-13.279a.663.663,0,0,1-.742-.741v-4.616a.663.663,0,0,1,.742-.741h13.621v-4.161a.6.6,0,0,1,.683-.683h5.87c.513,0,.742.228.742.683v4.161h13.45c.455,0,.683.285.683.741v4.616c0,.456-.228.741-.683.741h-13.109c1.425,3.477,7.41,5.357,15.217,6.953C10671.595,518.021,10671.766,518.363,10671.595,518.876Zm-24.963-28.04v-8.891h-11.284v8.891Zm15.73,10.031a.646.646,0,0,1-.74-.684v-26.1a.662.662,0,0,1,.74-.741h5.757c.569,0,.8.285.8.741v26.1c0,.4-.228.684-.8.684Z" fill="#252829"/>
        <path id="패스_85" data-name="패스 85" d="M10689.994,488.214c0-7.465,5.756-12.766,13.906-12.766s13.905,5.3,13.905,12.766c0,7.523-5.757,12.824-13.905,12.824S10689.994,495.737,10689.994,488.214Zm20.688,0a6.783,6.783,0,1,0-6.781,6.668A6.4,6.4,0,0,0,10710.682,488.214Zm-11.342,34.708a.662.662,0,0,1-.74-.74V505.939a.647.647,0,0,1,.74-.684h5.814a.647.647,0,0,1,.74.684v10.543h26.217c.513,0,.74.228.74.741v4.959a.662.662,0,0,1-.74.74Zm25.875-13.051c-.513,0-.741-.228-.741-.683V474.081a.663.663,0,0,1,.741-.741h5.756c.57,0,.8.285.8.741v35.107c0,.455-.228.683-.8.683Z" fill="#252829"/>
        <path id="패스_86" data-name="패스 86" d="M10785.733,495.908a.661.661,0,0,1,.739.741v4.617a.645.645,0,0,1-.739.683H10739a.627.627,0,0,1-.683-.683v-4.617c0-.456.227-.741.683-.741Zm-42.915-6.782c-.114-.513,0-.912.4-.969,9.176-1.652,14.761-4.5,15.445-7.522H10745.5a.663.663,0,0,1-.742-.741v-4.56a.7.7,0,0,1,.742-.8h33.739c.513,0,.683.341.683.8v4.56c0,.456-.17.741-.683.741h-13.109c.685,3.02,6.156,5.87,15.331,7.522.457.057.513.456.4.969l-1.141,4.446c-.114.456-.512.57-.968.512-7.239-1.139-13.451-3.533-17.383-6.9-3.933,3.363-10.087,5.7-17.325,6.9-.457.058-.8,0-.913-.512Zm36.531,25.589c0,5.985-5.13,9.974-17.041,9.974-11.854,0-16.982-3.989-16.982-9.974,0-6.041,5.129-9.859,16.982-9.859C10774.22,504.856,10779.35,508.674,10779.35,514.715Zm-7.237,0c0-2.336-2.451-3.932-9.8-3.932-7.295,0-9.8,1.6-9.8,3.932,0,2.394,2.508,3.99,9.8,3.99C10769.661,518.705,10772.112,517.109,10772.112,514.715Z" fill="#252829"/>
      </g>
    </g>
  </g>
</svg>
