<svg xmlns="http://www.w3.org/2000/svg" width="440.356" height="120.714" viewBox="0 0 440.356 120.714">
  <g id="그룹_458" data-name="그룹 458" transform="translate(-4010.331 -115.005)">
    <g id="그룹_455" data-name="그룹 455" opacity="0.7">
      <path id="패스_1856" data-name="패스 1856" d="M4264.333,144.314l3.438-17.307h2.394l6,13.71,2.728-13.71h2.1l-3.433,17.307h-2.41l-6-13.726-2.717,13.726Z" fill="#fff"/>
      <path id="패스_1857" data-name="패스 1857" d="M4285.725,144.606a3.89,3.89,0,0,1-3.153-1.229,4.571,4.571,0,0,1-1.032-3.052,10.078,10.078,0,0,1,1.08-4.471,8.714,8.714,0,0,1,2.713-3.375,6.442,6.442,0,0,1,3.819-1.16,3.912,3.912,0,0,1,3.21,1.24,4.631,4.631,0,0,1,1.013,3.035,10.043,10.043,0,0,1-1.071,4.445,8.976,8.976,0,0,1-2.685,3.38A6.367,6.367,0,0,1,4285.725,144.606Zm.513-1.728a3.935,3.935,0,0,0,3.311-2.119,8.43,8.43,0,0,0,1.372-4.672,3.711,3.711,0,0,0-.582-2.278,2.041,2.041,0,0,0-1.738-.757,3.884,3.884,0,0,0-3.231,2.1,8.34,8.34,0,0,0-1.378,4.684,3.749,3.749,0,0,0,.583,2.272A1.952,1.952,0,0,0,4286.238,142.878Z" fill="#fff"/>
      <path id="패스_1858" data-name="패스 1858" d="M4294.921,144.314l2.522-12.7h2.315l-1.028,5.192a17.381,17.381,0,0,1,3.041-3.916,4.982,4.982,0,0,1,3.385-1.573,2.076,2.076,0,0,1,1.51.572,2.505,2.505,0,0,1,.583,1.844,8.259,8.259,0,0,1-.127,1.494l-1.807,9.085H4303l1.822-9.17a3.466,3.466,0,0,0,.054-.625.93.93,0,0,0-.207-.646.659.659,0,0,0-.525-.244,3.755,3.755,0,0,0-2.331,1.473,46.324,46.324,0,0,0-3.687,4.746l-.89,4.466Z" fill="#fff"/>
      <path id="패스_1859" data-name="패스 1859" d="M4309.516,137.962l.339-1.727h5.192l-.339,1.727Z" fill="#fff"/>
      <path id="패스_1860" data-name="패스 1860" d="M4325.208,143.451a11.865,11.865,0,0,1-4.683,1.155,3.951,3.951,0,0,1-3.073-1.166,4.69,4.69,0,0,1-1.07-3.306,8.752,8.752,0,0,1,1.113-4.291,9.255,9.255,0,0,1,2.966-3.274,6.742,6.742,0,0,1,3.814-1.25,12,12,0,0,1,2.967.424l-.371,1.844a7.351,7.351,0,0,0-2.644-.535,4.475,4.475,0,0,0-2.622.852,6.216,6.216,0,0,0-1.992,2.564,8.462,8.462,0,0,0-.773,3.529,2.673,2.673,0,0,0,.678,2.055,2.381,2.381,0,0,0,1.669.625,5.416,5.416,0,0,0,1.2-.164q.7-.167,1.526-.445a9.955,9.955,0,0,0,1.748-.821Z" fill="#fff"/>
      <path id="패스_1861" data-name="패스 1861" d="M4332.185,144.606a3.887,3.887,0,0,1-3.153-1.229,4.572,4.572,0,0,1-1.032-3.052,10.078,10.078,0,0,1,1.08-4.471,8.714,8.714,0,0,1,2.713-3.375,6.445,6.445,0,0,1,3.819-1.16,3.916,3.916,0,0,1,3.211,1.24,4.638,4.638,0,0,1,1.011,3.035,10.029,10.029,0,0,1-1.07,4.445,8.968,8.968,0,0,1-2.686,3.38A6.362,6.362,0,0,1,4332.185,144.606Zm.513-1.728a3.937,3.937,0,0,0,3.312-2.119,8.43,8.43,0,0,0,1.372-4.672,3.7,3.7,0,0,0-.583-2.278,2.041,2.041,0,0,0-1.738-.757,3.885,3.885,0,0,0-3.231,2.1,8.34,8.34,0,0,0-1.378,4.684,3.749,3.749,0,0,0,.583,2.272A1.952,1.952,0,0,0,4332.7,142.878Z" fill="#fff"/>
      <path id="패스_1862" data-name="패스 1862" d="M4341.376,144.314l2.522-12.7h2.315l-1.028,5.192a17.394,17.394,0,0,1,3.046-3.916,4.97,4.97,0,0,1,3.38-1.573,2.069,2.069,0,0,1,1.51.572,2.508,2.508,0,0,1,.588,1.844,8.151,8.151,0,0,1-.133,1.494l-1.806,9.085h-2.31l1.817-9.17a3.466,3.466,0,0,0,.059-.625.927.927,0,0,0-.213-.646.649.649,0,0,0-.524-.244,3.745,3.745,0,0,0-2.326,1.473,45.467,45.467,0,0,0-3.692,4.746l-.89,4.466Z" fill="#fff"/>
      <path id="패스_1863" data-name="패스 1863" d="M4363.493,144.314l1.034-5.186a15.838,15.838,0,0,1-3.232,3.978,5.244,5.244,0,0,1-3.295,1.5,2.06,2.06,0,0,1-1.764-.943,3.64,3.64,0,0,1-.662-2.119,10.687,10.687,0,0,1,1.3-4.874,11,11,0,0,1,3.194-3.952,6.681,6.681,0,0,1,4.042-1.4,7.464,7.464,0,0,1,1.9.3l1.15-5.764h2.3l-3.655,18.462Zm1.574-7.941.588-2.945a3.727,3.727,0,0,0-1.785-.445,4.286,4.286,0,0,0-2.681,1.1,8.009,8.009,0,0,0-2.256,3.2,9.743,9.743,0,0,0-.9,3.814,1.6,1.6,0,0,0,.238.9.793.793,0,0,0,.715.36Q4360.718,142.359,4365.067,136.373Z" fill="#fff"/>
      <path id="패스_1864" data-name="패스 1864" d="M4382.083,131.616l-2.522,12.7h-2.31l1.028-5.191a17.466,17.466,0,0,1-2.786,3.914,4.374,4.374,0,0,1-3.089,1.569,1.848,1.848,0,0,1-1.382-.567,2.611,2.611,0,0,1-.552-1.876,7.07,7.07,0,0,1,.138-1.451l1.812-9.1h2.32l-1.832,9.165a3.189,3.189,0,0,0-.054.625,1.073,1.073,0,0,0,.181.657.59.59,0,0,0,.476.243c.572,0,1.288-.53,2.151-1.573a47.13,47.13,0,0,0,3.221-4.641l.89-4.476Z" fill="#fff"/>
      <path id="패스_1865" data-name="패스 1865" d="M4393.213,143.451a11.882,11.882,0,0,1-4.688,1.155,3.958,3.958,0,0,1-3.073-1.166,4.715,4.715,0,0,1-1.07-3.306,8.705,8.705,0,0,1,1.118-4.291,9.219,9.219,0,0,1,2.966-3.274,6.74,6.74,0,0,1,3.81-1.25,12.033,12.033,0,0,1,2.971.424l-.376,1.844a7.321,7.321,0,0,0-2.638-.535,4.49,4.49,0,0,0-2.628.852,6.193,6.193,0,0,0-1.986,2.564,8.463,8.463,0,0,0-.779,3.529,2.677,2.677,0,0,0,.678,2.055,2.4,2.4,0,0,0,1.674.625,5.35,5.35,0,0,0,1.2-.164q.706-.167,1.525-.445a9.835,9.835,0,0,0,1.754-.821Z" fill="#fff"/>
      <path id="패스_1866" data-name="패스 1866" d="M4402.246,144.372a5.483,5.483,0,0,1-1.526.234,3.694,3.694,0,0,1-2.506-.763,2.452,2.452,0,0,1-.874-1.929,10.135,10.135,0,0,1,.212-1.833l1.34-6.738h-1.9l.339-1.727h1.908l.455-2.3,2.363-.28-.509,2.585h3.232l-.371,1.727H4401.2l-1.383,6.987a7.575,7.575,0,0,0-.2,1.277,1.285,1.285,0,0,0,.345.879,1.609,1.609,0,0,0,1.244.392,4.824,4.824,0,0,0,1.378-.233Z" fill="#fff"/>
      <path id="패스_1867" data-name="패스 1867" d="M4404.985,144.314l2.521-12.7h2.326l-2.532,12.7Zm2.982-15,.466-2.3h2.315l-.455,2.3Z" fill="#fff"/>
      <path id="패스_1868" data-name="패스 1868" d="M4414.07,144.314l-1.621-12.7h2.172l1.261,10.139,6.214-10.139h2.2l-7.9,12.7Z" fill="#fff"/>
      <path id="패스_1869" data-name="패스 1869" d="M4433.841,143.037a12.363,12.363,0,0,1-5.69,1.569,4.033,4.033,0,0,1-3.088-1.166,4.48,4.48,0,0,1-1.1-3.189,9.568,9.568,0,0,1,1.006-4.238,9.337,9.337,0,0,1,2.734-3.37,6.037,6.037,0,0,1,3.745-1.324,3.142,3.142,0,0,1,2.156.668,2.381,2.381,0,0,1,.742,1.875,4.31,4.31,0,0,1-.911,2.654,7.121,7.121,0,0,1-2.739,2.056,12.973,12.973,0,0,1-4.413,1.054,3.416,3.416,0,0,0,.705,2.384,2.4,2.4,0,0,0,1.838.763,8.522,8.522,0,0,0,2.416-.477,12.118,12.118,0,0,0,3.041-1.478Zm-7.348-5.143a11.051,11.051,0,0,0,3.21-.679,4.525,4.525,0,0,0,1.764-1.276,2.5,2.5,0,0,0,.652-1.542,1.281,1.281,0,0,0-.376-.874,1.307,1.307,0,0,0-.98-.4,2.994,2.994,0,0,0-1.616.52,4.942,4.942,0,0,0-1.2,1.07,7.326,7.326,0,0,0-.784,1.154A8.588,8.588,0,0,0,4426.493,137.894Z" fill="#fff"/>
      <path id="패스_1870" data-name="패스 1870" d="M4437.528,144.314h-1.081l.577-2.887h2.888l-.525,2.665a6.626,6.626,0,0,1-1.192,2.813,3.263,3.263,0,0,1-2.516,1.165l.185-.869a1.1,1.1,0,0,0,.927-.519,5.227,5.227,0,0,0,.641-1.886Z" fill="#fff"/>
      <path id="패스_1871" data-name="패스 1871" d="M4262.494,170.988l9.96-17.308h2.458l3.348,17.308h-2.479l-.895-4.456h-7.444l-2.532,4.456Zm6-6.294h6.061l-1.6-7.809Z" fill="#fff"/>
      <path id="패스_1872" data-name="패스 1872" d="M4280.438,170.988l3.666-18.468h2.325l-3.677,18.468Z" fill="#fff"/>
      <path id="패스_1873" data-name="패스 1873" d="M4293.025,171.046a5.643,5.643,0,0,1-1.521.233,3.708,3.708,0,0,1-2.511-.757,2.469,2.469,0,0,1-.869-1.929,10.322,10.322,0,0,1,.212-1.838l1.335-6.733h-1.9l.339-1.738h1.907l.455-2.3,2.364-.281-.515,2.58h3.237l-.371,1.738h-3.21L4290.6,167a8.092,8.092,0,0,0-.2,1.277,1.293,1.293,0,0,0,.339.884,1.648,1.648,0,0,0,1.251.382,4.649,4.649,0,0,0,1.372-.233Z" fill="#fff"/>
      <path id="패스_1874" data-name="패스 1874" d="M4305.49,169.716a12.434,12.434,0,0,1-5.679,1.563,4.016,4.016,0,0,1-3.094-1.171,4.463,4.463,0,0,1-1.091-3.178,9.788,9.788,0,0,1,3.729-7.613,6.032,6.032,0,0,1,3.751-1.319,3.122,3.122,0,0,1,2.151.667,2.386,2.386,0,0,1,.752,1.87,4.288,4.288,0,0,1-.922,2.655,7.089,7.089,0,0,1-2.733,2.055,13.07,13.07,0,0,1-4.419,1.054,3.4,3.4,0,0,0,.71,2.384,2.393,2.393,0,0,0,1.844.758,8.54,8.54,0,0,0,2.416-.472,11.982,11.982,0,0,0,3.03-1.478Zm-7.343-5.149a11.144,11.144,0,0,0,3.211-.678,4.522,4.522,0,0,0,1.769-1.282,2.488,2.488,0,0,0,.646-1.536,1.237,1.237,0,0,0-.381-.869,1.273,1.273,0,0,0-.975-.4,2.981,2.981,0,0,0-1.61.509,4.98,4.98,0,0,0-1.208,1.081,6.42,6.42,0,0,0-.784,1.149A9.27,9.27,0,0,0,4298.147,164.567Z" fill="#fff"/>
      <path id="패스_1875" data-name="패스 1875" d="M4308.054,170.988l2.522-12.7h2.315l-1.028,5.2a16.792,16.792,0,0,1,2.124-2.919,11.4,11.4,0,0,1,2.2-1.96,3.977,3.977,0,0,1,2.151-.6c.169,0,.365.011.582.032l-.5,2.527a2.73,2.73,0,0,0-.89-.175,3.546,3.546,0,0,0-2.384,1.239,43.6,43.6,0,0,0-3.878,4.9l-.9,4.472Z" fill="#fff"/>
      <path id="패스_1876" data-name="패스 1876" d="M4319.116,170.988l2.521-12.7h2.31l-1.028,5.2a17.8,17.8,0,0,1,3.041-3.915,4.958,4.958,0,0,1,3.39-1.568,2.081,2.081,0,0,1,1.5.567,2.471,2.471,0,0,1,.583,1.849,8.1,8.1,0,0,1-.127,1.488l-1.8,9.086h-2.315l1.817-9.165a3.049,3.049,0,0,0,.058-.636.957.957,0,0,0-.206-.641.675.675,0,0,0-.53-.249c-.625,0-1.4.493-2.325,1.478a47.281,47.281,0,0,0-3.693,4.741l-.89,4.472Z" fill="#fff"/>
      <path id="패스_1877" data-name="패스 1877" d="M4341.228,170.988l1.027-5.192a15.737,15.737,0,0,1-3.231,3.984,5.265,5.265,0,0,1-3.285,1.5,2.034,2.034,0,0,1-1.769-.948,3.6,3.6,0,0,1-.657-2.114,10.783,10.783,0,0,1,1.3-4.879,11.019,11.019,0,0,1,3.2-3.947,6.668,6.668,0,0,1,4.036-1.393,6.807,6.807,0,0,1,.88.063q.484.079,1.017.223h2.31l-2.512,12.7Zm1.578-7.941.583-2.946a3.906,3.906,0,0,0-.863-.334,3.727,3.727,0,0,0-.917-.111,4.293,4.293,0,0,0-2.68,1.1,8.127,8.127,0,0,0-2.268,3.21,9.894,9.894,0,0,0-.9,3.809,1.611,1.611,0,0,0,.238.9.819.819,0,0,0,.721.365Q4338.448,169.038,4342.806,163.047Z" fill="#fff"/>
      <path id="패스_1878" data-name="패스 1878" d="M4353.825,171.046a5.7,5.7,0,0,1-1.525.233,3.694,3.694,0,0,1-2.506-.757,2.473,2.473,0,0,1-.874-1.929,10.232,10.232,0,0,1,.212-1.838l1.34-6.733h-1.9l.339-1.738h1.907l.456-2.3,2.363-.281-.509,2.58h3.232l-.371,1.738h-3.2L4351.4,167a7.759,7.759,0,0,0-.2,1.277,1.3,1.3,0,0,0,.344.884,1.633,1.633,0,0,0,1.245.382,4.66,4.66,0,0,0,1.378-.233Z" fill="#fff"/>
      <path id="패스_1879" data-name="패스 1879" d="M4356.564,170.988l2.522-12.7h2.325l-2.532,12.7Zm2.983-15,.466-2.305h2.315l-.456,2.305Z" fill="#fff"/>
      <path id="패스_1880" data-name="패스 1880" d="M4365.65,170.988l-1.622-12.7h2.173l1.26,10.14,6.214-10.14h2.2l-7.9,12.7Z" fill="#fff"/>
      <path id="패스_1881" data-name="패스 1881" d="M4385.42,169.716a12.467,12.467,0,0,1-5.689,1.563,4,4,0,0,1-3.089-1.171,4.466,4.466,0,0,1-1.1-3.178,9.519,9.519,0,0,1,1.006-4.238,9.4,9.4,0,0,1,2.734-3.375,5.994,5.994,0,0,1,3.745-1.319,3.149,3.149,0,0,1,2.157.667,2.383,2.383,0,0,1,.741,1.87,4.315,4.315,0,0,1-.911,2.655,7.122,7.122,0,0,1-2.739,2.055,13.063,13.063,0,0,1-4.413,1.054,3.4,3.4,0,0,0,.7,2.384,2.389,2.389,0,0,0,1.838.758,8.471,8.471,0,0,0,2.415-.472,12.034,12.034,0,0,0,3.041-1.478Zm-7.347-5.149a11.229,11.229,0,0,0,3.21-.678,4.432,4.432,0,0,0,1.764-1.282,2.477,2.477,0,0,0,.652-1.536,1.258,1.258,0,0,0-.376-.869,1.286,1.286,0,0,0-.98-.4,3.025,3.025,0,0,0-1.616.509,5.062,5.062,0,0,0-1.2,1.081,6.684,6.684,0,0,0-.784,1.149A8.659,8.659,0,0,0,4378.073,164.567Z" fill="#fff"/>
      <path id="패스_1882" data-name="패스 1882" d="M4389.108,170.988h-1.081l.577-2.893h2.887l-.524,2.67a6.614,6.614,0,0,1-1.192,2.813,3.231,3.231,0,0,1-2.516,1.16l.185-.858a1.117,1.117,0,0,0,.927-.524,5.231,5.231,0,0,0,.641-1.891Z" fill="#fff"/>
      <path id="패스_1883" data-name="패스 1883" d="M4267.527,180.354h2.586l-2.268,11.379a8.86,8.86,0,0,0-.159,1.611,2.6,2.6,0,0,0,.964,2.2,3.9,3.9,0,0,0,2.416.731,3.764,3.764,0,0,0,2.755-1.08,7.383,7.383,0,0,0,1.621-3.814l2.188-11.03h2.146l-2.1,10.627a13.3,13.3,0,0,1-1.33,4.042,5.858,5.858,0,0,1-2.32,2.236,7.126,7.126,0,0,1-3.507.831,6.167,6.167,0,0,1-3.835-1.165,4.112,4.112,0,0,1-1.547-3.5,12.145,12.145,0,0,1,.233-2.225Z" fill="#fff"/>
      <path id="패스_1884" data-name="패스 1884" d="M4280.591,197.661l2.522-12.7h2.31l-1.028,5.191a17.692,17.692,0,0,1,3.046-3.914,4.978,4.978,0,0,1,3.385-1.574,2.057,2.057,0,0,1,1.5.572,2.485,2.485,0,0,1,.588,1.844,8.151,8.151,0,0,1-.133,1.494l-1.8,9.085h-2.31l1.812-9.17a3.007,3.007,0,0,0,.063-.625.958.958,0,0,0-.211-.646.661.661,0,0,0-.53-.244,3.721,3.721,0,0,0-2.32,1.473,45.279,45.279,0,0,0-3.7,4.746l-.89,4.466Z" fill="#fff"/>
      <path id="패스_1885" data-name="패스 1885" d="M4295.075,197.661l2.521-12.7h2.321l-2.532,12.7Zm2.977-15,.466-2.3h2.321l-.456,2.3Z" fill="#fff"/>
      <path id="패스_1886" data-name="패스 1886" d="M4308.33,202.281l1.949-9.811a15.508,15.508,0,0,1-3.232,3.978,5.214,5.214,0,0,1-3.289,1.5,2.05,2.05,0,0,1-1.764-.942,3.6,3.6,0,0,1-.663-2.119,10.757,10.757,0,0,1,1.3-4.874,11.006,11.006,0,0,1,3.2-3.952,6.666,6.666,0,0,1,4.037-1.4,6.135,6.135,0,0,1,.89.074,6.89,6.89,0,0,1,1.017.223h2.31l-3.444,17.318Zm2.489-12.561.594-2.945a3.927,3.927,0,0,0-.869-.334,3.728,3.728,0,0,0-.917-.111,4.276,4.276,0,0,0-2.68,1.1,8.085,8.085,0,0,0-2.262,3.2,9.851,9.851,0,0,0-.9,3.814,1.61,1.61,0,0,0,.244.9.791.791,0,0,0,.715.36Q4306.468,195.706,4310.819,189.72Z" fill="#fff"/>
      <path id="패스_1887" data-name="패스 1887" d="M4327.835,184.963l-2.522,12.7H4323l1.028-5.191a17.5,17.5,0,0,1-2.787,3.915,4.375,4.375,0,0,1-3.088,1.567,1.849,1.849,0,0,1-1.383-.566,2.61,2.61,0,0,1-.551-1.876,7,7,0,0,1,.138-1.451l1.811-9.1h2.321l-1.833,9.165a3.194,3.194,0,0,0-.053.625,1.073,1.073,0,0,0,.18.657.591.591,0,0,0,.477.243c.572,0,1.287-.529,2.151-1.573a47.153,47.153,0,0,0,3.22-4.641l.891-4.476Z" fill="#fff"/>
      <path id="패스_1888" data-name="패스 1888" d="M4340.009,196.385a12.361,12.361,0,0,1-5.684,1.567,4.037,4.037,0,0,1-3.089-1.165,4.485,4.485,0,0,1-1.1-3.189,9.561,9.561,0,0,1,1-4.238,9.432,9.432,0,0,1,2.734-3.369,6.056,6.056,0,0,1,3.75-1.325,3.13,3.13,0,0,1,2.151.668,2.384,2.384,0,0,1,.747,1.875,4.282,4.282,0,0,1-.916,2.654,7.139,7.139,0,0,1-2.734,2.056,13.037,13.037,0,0,1-4.418,1.054,3.394,3.394,0,0,0,.71,2.384,2.379,2.379,0,0,0,1.838.763,8.581,8.581,0,0,0,2.416-.477,12.077,12.077,0,0,0,3.035-1.478Zm-7.342-5.145a11.056,11.056,0,0,0,3.21-.678,4.567,4.567,0,0,0,1.764-1.276,2.527,2.527,0,0,0,.652-1.542,1.267,1.267,0,0,0-.382-.874,1.3,1.3,0,0,0-.974-.4,2.973,2.973,0,0,0-1.616.519,4.767,4.767,0,0,0-1.2,1.071,6.981,6.981,0,0,0-.784,1.154A8.639,8.639,0,0,0,4332.667,191.24Z" fill="#fff"/>
      <path id="패스_1889" data-name="패스 1889" d="M4273.069,223.466a11.9,11.9,0,0,1-4.689,1.16,3.955,3.955,0,0,1-3.067-1.16,4.688,4.688,0,0,1-1.07-3.311,8.812,8.812,0,0,1,1.112-4.3,9.339,9.339,0,0,1,2.967-3.268,6.715,6.715,0,0,1,3.814-1.245,12,12,0,0,1,2.967.419l-.371,1.848a7.259,7.259,0,0,0-2.649-.54,4.446,4.446,0,0,0-2.622.858,6.1,6.1,0,0,0-1.987,2.564,8.381,8.381,0,0,0-.778,3.523,2.679,2.679,0,0,0,.678,2.05,2.344,2.344,0,0,0,1.668.631,5.707,5.707,0,0,0,1.2-.165,13.813,13.813,0,0,0,1.526-.444,10.046,10.046,0,0,0,1.753-.816Z" fill="#fff"/>
      <path id="패스_1890" data-name="패스 1890" d="M4276.057,224.335l3.665-18.468h2.321l-3.677,18.468Z" fill="#fff"/>
      <path id="패스_1891" data-name="패스 1891" d="M4292.325,223.063a12.433,12.433,0,0,1-5.684,1.563,4.015,4.015,0,0,1-3.094-1.171,4.463,4.463,0,0,1-1.091-3.178,9.81,9.81,0,0,1,3.735-7.613,6.006,6.006,0,0,1,3.745-1.319,3.135,3.135,0,0,1,2.156.667,2.382,2.382,0,0,1,.748,1.871,4.317,4.317,0,0,1-.917,2.654,7.085,7.085,0,0,1-2.739,2.055,13.005,13.005,0,0,1-4.413,1.054,3.422,3.422,0,0,0,.705,2.384,2.406,2.406,0,0,0,1.843.758,8.48,8.48,0,0,0,2.416-.472,12.009,12.009,0,0,0,3.035-1.478Zm-7.347-5.149a11.147,11.147,0,0,0,3.21-.678,4.5,4.5,0,0,0,1.77-1.282,2.466,2.466,0,0,0,.646-1.536,1.255,1.255,0,0,0-.376-.869,1.282,1.282,0,0,0-.981-.4,3.006,3.006,0,0,0-1.61.509,5.185,5.185,0,0,0-1.208,1.08,6.791,6.791,0,0,0-.784,1.15A9.208,9.208,0,0,0,4284.978,217.914Z" fill="#fff"/>
      <path id="패스_1892" data-name="패스 1892" d="M4302.523,224.335l1.028-5.192a15.746,15.746,0,0,1-3.226,3.984,5.278,5.278,0,0,1-3.29,1.5,2.042,2.042,0,0,1-1.769-.948,3.642,3.642,0,0,1-.657-2.114,10.726,10.726,0,0,1,1.3-4.879,11,11,0,0,1,3.189-3.947,6.7,6.7,0,0,1,4.037-1.393,6.78,6.78,0,0,1,.884.063q.486.081,1.018.223h2.31l-2.511,12.7Zm1.579-7.942.583-2.945a3.721,3.721,0,0,0-.858-.334,3.8,3.8,0,0,0-.922-.111,4.3,4.3,0,0,0-2.681,1.1,8.08,8.08,0,0,0-2.262,3.21,9.784,9.784,0,0,0-.9,3.809,1.609,1.609,0,0,0,.233.9.818.818,0,0,0,.72.365Q4299.752,222.385,4304.1,216.393Z" fill="#fff"/>
      <path id="패스_1893" data-name="패스 1893" d="M4309.077,224.335l2.521-12.7h2.315l-1.028,5.2a17.516,17.516,0,0,1,3.041-3.915,4.95,4.95,0,0,1,3.385-1.568,2.092,2.092,0,0,1,1.51.567,2.491,2.491,0,0,1,.583,1.848,8.1,8.1,0,0,1-.127,1.489l-1.807,9.086h-2.315l1.823-9.165a3.5,3.5,0,0,0,.053-.636.935.935,0,0,0-.207-.641.665.665,0,0,0-.525-.249c-.625,0-1.4.493-2.33,1.478a47.19,47.19,0,0,0-3.688,4.741l-.889,4.472Z" fill="#fff"/>
      <path id="패스_1894" data-name="패스 1894" d="M4323.555,224.335l2.521-12.7h2.331l-2.537,12.7Zm2.988-15,.466-2.305h2.31l-.456,2.305Z" fill="#fff"/>
      <path id="패스_1895" data-name="패스 1895" d="M4330.1,224.335l2.522-12.7h2.315l-1.028,5.2a17.53,17.53,0,0,1,3.041-3.915,4.95,4.95,0,0,1,3.385-1.568,2.092,2.092,0,0,1,1.51.567,2.491,2.491,0,0,1,.583,1.848,8.1,8.1,0,0,1-.127,1.489l-1.806,9.086h-2.316L4340,215.17a3.5,3.5,0,0,0,.053-.636.935.935,0,0,0-.207-.641.665.665,0,0,0-.524-.249c-.626,0-1.4.493-2.331,1.478a47.006,47.006,0,0,0-3.687,4.741l-.89,4.472Z" fill="#fff"/>
      <path id="패스_1896" data-name="패스 1896" d="M4343.485,228.218l.4-2.024a10.484,10.484,0,0,0,4.471,1.171,3.666,3.666,0,0,0,2.8-.954,4.874,4.874,0,0,0,1.187-2.437l1.123-5.647a15.425,15.425,0,0,1-2.188,3.263,10.375,10.375,0,0,1-2.113,1.759,4.013,4.013,0,0,1-2.045.647,2.375,2.375,0,0,1-1.8-.853,3.6,3.6,0,0,1-.773-2.506,9.146,9.146,0,0,1,1.2-4.4,10.469,10.469,0,0,1,3.067-3.55,6.666,6.666,0,0,1,4-1.345,7.045,7.045,0,0,1,.906.063q.485.081,1.033.223h2.358l-2.432,12.259a7.089,7.089,0,0,1-1.234,3.03,5.822,5.822,0,0,1-2.321,1.69,8.207,8.207,0,0,1-3.247.625A10.169,10.169,0,0,1,4343.485,228.218Zm10.945-14.77a3.17,3.17,0,0,0-.848-.334,4.14,4.14,0,0,0-.986-.111,4.33,4.33,0,0,0-2.543.98,7.068,7.068,0,0,0-2.171,2.85,8.311,8.311,0,0,0-.837,3.4,1.808,1.808,0,0,0,.291,1.166.9.9,0,0,0,.694.344c.731,0,1.759-.758,3.072-2.268a27.464,27.464,0,0,0,2.9-3.861Z" fill="#fff"/>
      <path id="패스_1897" data-name="패스 1897" d="M4363.849,223.657l.386-1.939a9.567,9.567,0,0,0,4,1.176,2.294,2.294,0,0,0,1.52-.456,1.464,1.464,0,0,0,.551-1.181,1.59,1.59,0,0,0-.222-.827,6.46,6.46,0,0,0-.853-1.022l-1.065-1.091a9.91,9.91,0,0,1-1.695-2.1,3.159,3.159,0,0,1-.355-1.41,3.359,3.359,0,0,1,1.081-2.341,4.347,4.347,0,0,1,3.3-1.123,10.48,10.48,0,0,1,1.377.1,12.42,12.42,0,0,1,2.183.636l-.392,1.944a10.829,10.829,0,0,0-2.066-.81,5.482,5.482,0,0,0-1.219-.138,2.121,2.121,0,0,0-1.478.44,1.384,1.384,0,0,0-.471,1.049,1.594,1.594,0,0,0,.206.773,7.476,7.476,0,0,0,1.055,1.229l1.154,1.171a8.028,8.028,0,0,1,1.367,1.716,3.46,3.46,0,0,1,.4,1.632,3.145,3.145,0,0,1-1.229,2.564,5.17,5.17,0,0,1-3.333.98,8.06,8.06,0,0,1-1.265-.1,10.046,10.046,0,0,1-1.272-.264C4365.11,224.144,4364.553,223.943,4363.849,223.657Z" fill="#fff"/>
      <path id="패스_1898" data-name="패스 1898" d="M4379.635,224.626a3.872,3.872,0,0,1-3.146-1.229,4.593,4.593,0,0,1-1.039-3.057,10.107,10.107,0,0,1,1.081-4.471,8.778,8.778,0,0,1,2.712-3.369,6.43,6.43,0,0,1,3.825-1.155,3.928,3.928,0,0,1,3.211,1.229,4.686,4.686,0,0,1,1.006,3.041,10.015,10.015,0,0,1-1.07,4.439,8.93,8.93,0,0,1-2.681,3.385A6.411,6.411,0,0,1,4379.635,224.626Zm.52-1.732a3.918,3.918,0,0,0,3.305-2.109,8.44,8.44,0,0,0,1.372-4.683,3.769,3.769,0,0,0-.577-2.278,2.071,2.071,0,0,0-1.738-.752,3.883,3.883,0,0,0-3.231,2.1,8.307,8.307,0,0,0-1.378,4.683,3.725,3.725,0,0,0,.578,2.267A1.953,1.953,0,0,0,4380.155,222.894Z" fill="#fff"/>
      <path id="패스_1899" data-name="패스 1899" d="M4388.832,224.335l3.666-18.468h2.331l-3.682,18.468Z" fill="#fff"/>
      <path id="패스_1900" data-name="패스 1900" d="M4407.416,211.631l-2.527,12.7h-2.315l1.033-5.192a17.741,17.741,0,0,1-2.781,3.91,4.372,4.372,0,0,1-3.094,1.573,1.847,1.847,0,0,1-1.388-.567,2.668,2.668,0,0,1-.551-1.875,7.436,7.436,0,0,1,.143-1.452l1.807-9.1h2.325l-1.827,9.165a2.865,2.865,0,0,0-.064.625,1.022,1.022,0,0,0,.191.657.55.55,0,0,0,.476.243c.567,0,1.283-.519,2.146-1.568a46.7,46.7,0,0,0,3.216-4.64l.9-4.482Z" fill="#fff"/>
      <path id="패스_1901" data-name="패스 1901" d="M4415.9,224.393a5.646,5.646,0,0,1-1.521.233,3.7,3.7,0,0,1-2.511-.758,2.465,2.465,0,0,1-.869-1.928,10.187,10.187,0,0,1,.212-1.838l1.335-6.734h-1.9l.339-1.737h1.907l.455-2.3,2.363-.281-.514,2.58h3.237l-.371,1.737h-3.21l-1.383,6.983a8.092,8.092,0,0,0-.2,1.277,1.3,1.3,0,0,0,.339.884,1.647,1.647,0,0,0,1.25.382,4.639,4.639,0,0,0,1.372-.233Z" fill="#fff"/>
      <path id="패스_1902" data-name="패스 1902" d="M4418.636,224.335l2.522-12.7h2.331l-2.537,12.7Zm2.988-15,.466-2.305h2.31l-.455,2.305Z" fill="#fff"/>
      <path id="패스_1903" data-name="패스 1903" d="M4429.168,224.626a3.9,3.9,0,0,1-3.157-1.229,4.584,4.584,0,0,1-1.028-3.057,10.1,10.1,0,0,1,1.081-4.471,8.681,8.681,0,0,1,2.712-3.369,6.4,6.4,0,0,1,3.814-1.155,3.913,3.913,0,0,1,3.211,1.229,4.632,4.632,0,0,1,1.017,3.041,10.087,10.087,0,0,1-1.07,4.439,9.007,9.007,0,0,1-2.692,3.385A6.38,6.38,0,0,1,4429.168,224.626Zm.514-1.732a3.926,3.926,0,0,0,3.311-2.109,8.439,8.439,0,0,0,1.367-4.683,3.694,3.694,0,0,0-.583-2.278,2.058,2.058,0,0,0-1.738-.752,3.89,3.89,0,0,0-3.231,2.1,8.382,8.382,0,0,0-1.372,4.683,3.756,3.756,0,0,0,.577,2.267A1.951,1.951,0,0,0,4429.682,222.894Z" fill="#fff"/>
      <path id="패스_1904" data-name="패스 1904" d="M4438.359,224.335l2.522-12.7h2.315l-1.028,5.2a17.516,17.516,0,0,1,3.041-3.915,4.948,4.948,0,0,1,3.386-1.568,2.092,2.092,0,0,1,1.509.567,2.491,2.491,0,0,1,.583,1.848,8.1,8.1,0,0,1-.127,1.489l-1.807,9.086h-2.315l1.823-9.165a3.549,3.549,0,0,0,.053-.636.933.933,0,0,0-.207-.641.665.665,0,0,0-.525-.249c-.625,0-1.4.493-2.33,1.478a47.15,47.15,0,0,0-3.687,4.741l-.89,4.472Z" fill="#fff"/>
    </g>
    <g id="그룹_457" data-name="그룹 457">
      <g id="그룹_456" data-name="그룹 456">
        <path id="패스_1905" data-name="패스 1905" d="M4080.593,179.829c-.122,3.031-.3,6.14-.514,9.345s-.466,6.4-.752,9.594a25.862,25.862,0,0,0-.435,4.789,23.4,23.4,0,0,0-.1,2.406,22.26,22.26,0,0,1-.112,2.41,19.015,19.015,0,0,0,1.017,3.438,15.718,15.718,0,0,1,.864,2.633c.111.365-.133,1.054-.737,2.082s-1.086,1.87-1.446,2.548l-.725.736q-2.742,1.105-5.468,1.929t-6.759-3.295q-2.352-3.163-6.077-8.334t-5.843-8.576c.143.01.021-.265-.36-.837a2.719,2.719,0,0,1-.366-.837,14.034,14.034,0,0,1-1.118-2.246,2.685,2.685,0,0,1-.132-1.092,8.346,8.346,0,0,0-.35-.969,8.745,8.745,0,0,1-.355-.97l-.339-1.1q-1.923-3.131-4.519-7.385t-4.725-7.406a11.287,11.287,0,0,1-1.113-2.383,7.473,7.473,0,0,0-1.133-2.114c-1.038-1.521-1.923-2.76-2.638-3.725a15.75,15.75,0,0,0-2.1-2.341c-.264-.381-.609-.948-1.054-1.706s-1.123-1.886-2.013-3.4a7.625,7.625,0,0,1-.064,3.216,20.8,20.8,0,0,0-.391,4.259l-.117,1.33c0,1.61-.037,3.178-.09,4.693s-.085,2.988-.069,4.419q.1,3.767-.053,7.914t-.344,8.688c.01,1.436-.037,2.861-.164,4.281a32.742,32.742,0,0,0-.144,4.01c.016,1.436.011,2.686-.005,3.756-.032,1.07-.037,2.326-.01,3.751a21.908,21.908,0,0,0-.848,4.492,15.765,15.765,0,0,0-.456,2.638q-2.05,3.044-2.161,3.163c-.09.079-.286.292-.609.615a12.465,12.465,0,0,1-7.237,2.029,13.633,13.633,0,0,1-7.295-2.268,7.125,7.125,0,0,1-.556-2.331c-.021-.625-.074-1.3-.154-2.024-.021-1.435,0-2.86.059-4.29s.074-2.851.058-4.292a20.824,20.824,0,0,1-.117-2.421c.006-.895-.021-1.785-.084-2.7l.238-2.66a11.816,11.816,0,0,1,.254-1.589,9.946,9.946,0,0,0,.234-1.313,20.979,20.979,0,0,0,.084-2.146c-.016-.71-.047-1.52-.116-2.421s-.085-1.891-.064-2.961,0-2.051-.064-2.956c.08-.885.128-1.823.143-2.8s.064-1.918.149-2.808c.084-2.675.18-5.308.27-7.893s.122-5.488.122-8.709c.063-2.321.085-4.238.08-5.764s-.027-3-.038-4.429c-.069-.9-.085-1.886-.063-2.956s.01-2.236-.016-3.5c.095-1.059.143-2.087.164-3.072s.069-2,.164-3.067l.509-5.59q.556-1.287,1.245-2.839a19.447,19.447,0,0,1,1.954-3.311c.324-.328.493-.535.493-.625a3.194,3.194,0,0,1,.286-.646,7.992,7.992,0,0,1,5.378-2.2,41.325,41.325,0,0,1,6.5.053l2.919,4.286q1.749,2.574,3.492,5.281c1.165,1.807,2.431,3.931,3.835,6.379q2.019,4.482,4.1,8.291c1.382,2.537,2.966,5.414,4.735,8.608.244.562.461,1.028.647,1.4s.583,1.219,1.2,2.527q1.461,3.354,3.491,7.692a77.868,77.868,0,0,0,4.736,8.614,26.644,26.644,0,0,0,3.433,5.944l.741-8.254q1.74-14.334,1.1-21.9c-.058-1.076-.058-2.241-.021-3.491s.106-2.31.18-3.2a19.846,19.846,0,0,1,.074-3.216c.111-1.24.154-2.58.138-4.01a31.213,31.213,0,0,1-.027-3.359c.043-1.335.106-2.363.17-3.073a18.586,18.586,0,0,1,.058-3.083,18.98,18.98,0,0,0,.053-3.077,10.069,10.069,0,0,1,2.448-2.6q1.9-1.573,4.275-3.507l1.457-1.478c2.108-2.13,4.248-2.66,6.431-1.569a11.349,11.349,0,0,1,4.974,4.747,11.063,11.063,0,0,1-.121,2.538,12.984,12.984,0,0,0-.143,2.8q-.175,1.867-.212,3.6c-.037,1.165-.027,2.283.021,3.358a30.9,30.9,0,0,1-.106,3.613,25.626,25.626,0,0,0-.08,3.348c-.111,1.24-.185,2.4-.206,3.47s-.011,2.146.042,3.227a6.982,6.982,0,0,0-.386,1.843q-.1,1.065-.191,2.13l-.36,3.994a3.4,3.4,0,0,0,.026.943,3.809,3.809,0,0,1,.021.938,28.6,28.6,0,0,0,.074,4.031c-.032,1.971-.106,4.016-.222,6.156S4080.773,177.874,4080.593,179.829Z" fill="#fff"/>
        <path id="패스_1906" data-name="패스 1906" d="M4147.685,165.044c.137.36.137.487,0,.4s-.075.043.222.4a3.645,3.645,0,0,1,.88-.408,4.035,4.035,0,0,0,.879-.4,6.292,6.292,0,0,1,1.2-.541,2.417,2.417,0,0,0,1-.54q4.593-2.94,9.642-5.9a12.321,12.321,0,0,1,6.262-.01c1.674.53,2.447.975,2.309,1.33l-1.1,1.34q-.429.54-1.207,1.335a7.64,7.64,0,0,0-1.2,1.61l-1.536,1.876q-1.748,1.875-3.507,3.613a55.921,55.921,0,0,1-5.255,4.423,15.164,15.164,0,0,1-3.613,2.146,2.689,2.689,0,0,0-1.431.805c.3.89.668,1.87,1.1,2.935s.816,2.05,1.1,2.94q2.432,7.207,5.753,14.685a14.855,14.855,0,0,0,2.416,5.07q.891,2.947,1.335,4.28c.286.89.509,1.6.657,2.13s.254.985.339,1.34.18.89.328,1.605c0,.175.032.175.117,0,.064-.18.106-.18.106,0a22.343,22.343,0,0,0,.668,5.881,3.47,3.47,0,0,0,.116.932,5.248,5.248,0,0,1-.116,1.738,11.83,11.83,0,0,0-.647,2.14,3.529,3.529,0,0,1-.657,1.6,11.544,11.544,0,0,1-5.806,2.283,12.316,12.316,0,0,1-6.484-.921c-.742-.89-1.431-1.823-2.1-2.8a14.687,14.687,0,0,1-1.208-2.008q-1.113-4.268-2.318-8.28-1.223-4-2.548-7.216a57.287,57.287,0,0,0-2.209-6.94c-1.187-3.2-2.2-6.05-3.1-8.545-.736-1.6-1.393-3.067-1.981-4.4s-1.176-2.808-1.764-4.408a.846.846,0,0,0-.44.133c-.148.09-.514.312-1.1.673s-1.5.847-2.744,1.472-3.035,1.574-5.372,2.819q-6.357,3.227-11.84,6.442c-.291.895-.508,1.6-.651,2.14a7.919,7.919,0,0,1-.663,1.6q-1.74,4.824-3.162,10.028a92.1,92.1,0,0,0-2.278,11.369l.662-.005a19.719,19.719,0,0,1,3.295,1.33c1.028.529,1.616.974,1.754,1.334A20.21,20.21,0,0,1,4109.5,225q-2.082,3.742-3.825,6.686a7.581,7.581,0,0,1-1.1.535,8.794,8.794,0,0,0-1.1.535c-1.033.54-2.087,1.033-3.184,1.478a39.048,39.048,0,0,1-4.72,1.483,34.582,34.582,0,0,1-5.489-1.727q-2.2-.921-2.2-1.732l.651-5.61q.422-3.744.641-6.681a91.344,91.344,0,0,1,1.515-9.631q1.313-4.545,2.612-8.958t2.4-8.958q2.829-10.164,5.441-20.057t5.451-18.457q1.749-4.545,3.931-9.09t4.153-9.1l1.314-3.21a23.137,23.137,0,0,0-.779-2.67c-.514-1.6-.853-2.58-1-2.935-.445-2.14-.773-3.7-1-4.673s-.408-1.737-.556-2.272a13.582,13.582,0,0,1,1.314-1.881,12.7,12.7,0,0,1,1.531-1.6c2.633-1.245,4.5-1.7,5.6-1.351s2.093.715,2.973,1.07a1.088,1.088,0,0,0,.874.26c.439,0,.731-.006.879-.006q3.512,2.409,4.4,4.27c.435.9.917,1.78,1.431,2.67a15.114,15.114,0,0,1,1.218,2.67q1.318,2.94,3.306,7.745t3.093,7.746a14.782,14.782,0,0,0,.663,1.864,4.893,4.893,0,0,1,.556,1.6,2.529,2.529,0,0,0,.546,1.335c.439,1.251.958,2.633,1.547,4.138s1.027,2.808,1.324,3.878a19.115,19.115,0,0,0,.779,3.867,21.669,21.669,0,0,0,1.213,3.073c.148.36.259.535.334.535s.18.18.328.535Zm-20.177,9.4c.726-.53,1.452-1.07,2.194-1.611.725-.529,1.012-.975.869-1.335q-.882-2.4-1.659-4.81t-1.435-4.8a25.535,25.535,0,0,1-.774-2.945,26.128,26.128,0,0,0-.779-2.935,11.7,11.7,0,0,1-.884-2.4,6.268,6.268,0,0,0-.879-2.14.846.846,0,0,0-.223-.53q-.437,1.343-.763,2.273c-.217.63-.471,1.472-.763,2.537q-2.4,6.962-4.031,12.439T4115,180.089l1.1-.005,6.139-2.421Z" fill="#fff"/>
        <path id="패스_1907" data-name="패스 1907" d="M4234.407,158.7c-.287,1.966-.657,4.011-1.092,6.151s-.794,4.2-1.08,6.151l-1.738,10.16a11.351,11.351,0,0,0-.434,2.135c-.138,1.07-.361,2.236-.647,3.476a14.956,14.956,0,0,1-.551,2.013c-.212.625-.392,1.2-.54,1.737a30.387,30.387,0,0,1-4.916,10.034A76.523,76.523,0,0,1,4214.1,211.4a9.431,9.431,0,0,1-2.405,2.008c-1.027.63-2.564,1.653-4.609,3.083-.434.721-1.833,1.166-4.163,1.346s-4.98.281-7.915.286a17.714,17.714,0,0,1-7.576-3.189,46.628,46.628,0,0,1-7.374-6.4,12.581,12.581,0,0,1-2.32-4.672q-.763-2.8-1.876-5.743a6.672,6.672,0,0,1-.328-1.07,7.367,7.367,0,0,0-.329-1.07c-.3-1.6-.636-3.068-1-4.4-.382-1.341-.7-2.713-1-4.143q-1.557-6.143-2.67-12.826a126.622,126.622,0,0,1-1.356-17.365,14.783,14.783,0,0,1,.106-1.738,17.161,17.161,0,0,0,.106-2c.149-1.611.254-3.211.318-4.811s.106-3.3.106-5.086c-.01-1.954-.095-3.909-.233-5.874-.159-1.961-.381-3.831-.678-5.611a7.031,7.031,0,0,1,1.642-3.877,39.17,39.17,0,0,1,4.047-4.689c2.045-2.145,4.1-2.951,6.145-2.421a12.975,12.975,0,0,1,6.157,4.265c-.424,5.345-.636,9.986-.626,13.895q.017,8.026.689,14.7a127.771,127.771,0,0,0,1.907,19.638,94.913,94.913,0,0,0,4.768,17.228q1.764,2.941,3.518,5.478a14.8,14.8,0,0,0,2.86,3.327,8.289,8.289,0,0,0,3.741.265q4.386-.008,6.463-5.626t3.814-12.036a66.957,66.957,0,0,0,2.395-12.566q.635-6.684,1.059-13.907c0-2.495-.011-4.8-.011-6.945s.053-4.28.2-6.415c0-1.6.031-3.65.1-6.151s.169-4.714.318-6.68c.138-.355.286-.758.434-1.2s.286-.937.446-1.472a18.114,18.114,0,0,1,1.514-4.546,16.26,16.26,0,0,0,1.1-2.945,12.693,12.693,0,0,1,2.628-2.411,5.3,5.3,0,0,1,3.072-1.075,5.9,5.9,0,0,1,4.281-.011q1.86.8,3.4,1.33a38.543,38.543,0,0,1,.456,6.278c.01,2.4-.075,4.683-.2,6.818,0,.9-.032,2.008-.106,3.343s-.107,2.447-.107,3.337q-.205,3.21-.317,5.753c-.064,1.7-.1,3.428-.1,5.213-.148,1.6-.212,3.295-.212,5.075S4234.4,156.748,4234.407,158.7Z" fill="#fff"/>
      </g>
    </g>
  </g>
</svg>
