<svg xmlns="http://www.w3.org/2000/svg" xmlns:xlink="http://www.w3.org/1999/xlink" width="954.55" height="100" viewBox="0 0 954.55 100">
  <defs>
    <clipPath id="clip-path">
      <rect id="사각형_171" data-name="사각형 171" width="954.55" height="100" transform="translate(4698 -2726)" fill="#fff" stroke="#707070" stroke-width="1"/>
    </clipPath>
    <linearGradient id="linear-gradient" x1="1.195" y1="1.177" x2="0.018" y2="0.031" gradientUnits="objectBoundingBox">
      <stop offset="0" stop-color="#b0844f"/>
      <stop offset="0.467" stop-color="#f6d88e"/>
      <stop offset="0.832" stop-color="#8f6a40"/>
      <stop offset="1" stop-color="#be934e"/>
    </linearGradient>
    <filter id="사각형_90" x="752.791" y="-29" width="200.07" height="130.417" filterUnits="userSpaceOnUse">
      <feOffset dx="3.321" dy="3.321" input="SourceAlpha"/>
      <feGaussianBlur stdDeviation="0.996" result="blur"/>
      <feFlood flood-color="#231815" flood-opacity="0.302"/>
      <feComposite operator="in" in2="blur"/>
      <feComposite in="SourceGraphic"/>
    </filter>
    <linearGradient id="linear-gradient-2" x1="0.175" y1="0.362" x2="0.61" y2="0.546" gradientUnits="objectBoundingBox">
      <stop offset="0" stop-color="#b08d55"/>
      <stop offset="0.467" stop-color="#f6d88e"/>
      <stop offset="1" stop-color="#8f6a40"/>
    </linearGradient>
    <linearGradient id="linear-gradient-3" x1="-0.058" y1="0.348" x2="1.133" y2="0.673" xlink:href="#linear-gradient-2"/>
    <linearGradient id="linear-gradient-4" x1="0.181" y1="0.24" x2="0.778" y2="0.727" xlink:href="#linear-gradient-2"/>
    <linearGradient id="linear-gradient-5" x1="-0.976" y1="0.098" x2="0.216" y2="0.423" xlink:href="#linear-gradient-2"/>
    <linearGradient id="linear-gradient-6" x1="-9.099" y1="-4.242" x2="-6.2" y2="-2.804" xlink:href="#linear-gradient-2"/>
    <linearGradient id="linear-gradient-7" x1="-9.919" y1="-4.184" x2="-7.088" y2="-2.904" xlink:href="#linear-gradient-2"/>
    <linearGradient id="linear-gradient-8" x1="-11.566" y1="-4.419" x2="-8.549" y2="-3.215" xlink:href="#linear-gradient-2"/>
    <linearGradient id="linear-gradient-9" x1="-3.624" y1="-1.217" x2="-2.062" y2="-0.578" xlink:href="#linear-gradient-2"/>
    <linearGradient id="linear-gradient-10" x1="-4.185" y1="-1.424" x2="-2.5" y2="-0.743" xlink:href="#linear-gradient-2"/>
    <linearGradient id="linear-gradient-11" x1="-1.733" y1="-0.527" x2="-0.783" y2="-0.132" xlink:href="#linear-gradient-2"/>
    <linearGradient id="linear-gradient-12" x1="-2.604" y1="-0.917" x2="-1.696" y2="-0.507" xlink:href="#linear-gradient-2"/>
    <linearGradient id="linear-gradient-13" x1="-3.527" y1="-1.342" x2="-2.628" y2="-0.932" xlink:href="#linear-gradient-2"/>
    <linearGradient id="linear-gradient-14" x1="-4.243" y1="-1.83" x2="-3.387" y2="-1.41" xlink:href="#linear-gradient-2"/>
  </defs>
  <g id="마스크_그룹_1" data-name="마스크 그룹 1" transform="translate(-4698 2726)" clip-path="url(#clip-path)">
    <g id="그룹_689" data-name="그룹 689" transform="translate(-0.171 13.636)">
      <g id="그룹_454" data-name="그룹 454" transform="translate(-123 -2735)">
        <g id="그룹_688" data-name="그룹 688">
          <g id="그룹_452" data-name="그룹 452">
            <g transform="matrix(1, 0, 0, 1, 4821.17, -4.64)" filter="url(#사각형_90)">
              <rect id="사각형_90-2" data-name="사각형 90" width="193.76" height="124.106" rx="8.504" transform="translate(752.79 -29)" fill="url(#linear-gradient)"/>
            </g>
            <rect id="사각형_91" data-name="사각형 91" width="176.383" height="115.336" rx="8.504" transform="translate(5582.65 -33.636)" fill="none" stroke="#be934e" stroke-miterlimit="10" stroke-width="2.343"/>
            <g id="그룹_451" data-name="그룹 451">
              <g id="그룹_436" data-name="그룹 436">
                <g id="그룹_435" data-name="그룹 435">
                  <g id="그룹_434" data-name="그룹 434">
                    <g id="그룹_426" data-name="그룹 426">
                      <g id="그룹_424" data-name="그룹 424">
                        <path id="패스_1830" data-name="패스 1830" d="M5613.207,27.731a2.459,2.459,0,0,1,1.234.331l18.069,10.432a2.468,2.468,0,0,1,1.234,2.138V61.495a2.468,2.468,0,0,1-1.234,2.139l-18.069,10.432a2.474,2.474,0,0,1-2.469,0L5593.9,63.634a2.47,2.47,0,0,1-1.235-2.139V40.632a2.47,2.47,0,0,1,1.235-2.138l18.068-10.432a2.464,2.464,0,0,1,1.235-.331m0-3.562a6.043,6.043,0,0,0-3.015.808l-18.069,10.432a6.048,6.048,0,0,0-3.015,5.223V61.495a6.048,6.048,0,0,0,3.015,5.223l18.069,10.432a6.03,6.03,0,0,0,6.03,0l18.069-10.432a6.048,6.048,0,0,0,3.015-5.223V40.632a6.048,6.048,0,0,0-3.015-5.223l-18.069-10.432a6.043,6.043,0,0,0-3.015-.808Z" fill="url(#linear-gradient-2)"/>
                      </g>
                      <g id="그룹_425" data-name="그룹 425">
                        <path id="패스_1831" data-name="패스 1831" d="M5594.527,47.92l5.733,3.337h0l.494.287v7.63l-6.227-3.6v6.307l17.615,10.179V65.766l-6.025-3.487V59.344h0V54.666l.705.41,5.32,3.1V51.735l-17.615-10.2Z" fill="url(#linear-gradient-3)"/>
                        <path id="패스_1832" data-name="패스 1832" d="M5630.853,39.347l-5.979-3.437-13.473.178,2.827-1.608h0l.695-.4h0l3.455-1.966-5.087-2.938-17.595,10.171,5.061,2.872,4.227-2.394h.027l5.715-.129.292,0-3.746,6.339,5.956,3.455,4.494-9.982Z" fill="url(#linear-gradient-4)"/>
                        <path id="패스_1833" data-name="패스 1833" d="M5631.887,41.54l-17.6,10.2V72.078l5.1-2.962V64.141l.007,0h0l3.7-2.177h0l8.792-5.167Zm-3.645,11.5-8.879,5.132h0v-2.6l8.881-5.02Z" fill="url(#linear-gradient-5)"/>
                      </g>
                    </g>
                    <g id="그룹_433" data-name="그룹 433">
                      <g id="그룹_430" data-name="그룹 430">
                        <g id="그룹_429" data-name="그룹 429">
                          <g id="그룹_428" data-name="그룹 428">
                            <g id="그룹_427" data-name="그룹 427">
                              <path id="패스_1834" data-name="패스 1834" d="M5676.363,66.679v.864h-7.235v-.864h3.132V64.605h.971v2.074Zm-6.723-5.188v-.838h6.2v.838h-2.727L5676,64.747l-.679.555-2.576-2.938-2.585,2.938-.68-.555,2.886-3.256Z" fill="url(#linear-gradient-6)"/>
                              <path id="패스_1835" data-name="패스 1835" d="M5682.776,63.644h-4.3v-3.23h4.2v.821h-3.229v1.606h3.326Zm-4.085.732h6.07v2.153h-5.09v.661h5.188v.8h-6.168V65.8h5.1v-.652h-5.1Zm6.07-2.806h1.13v.953h-1.13v1.306h-.97V60.255h.97Z" fill="url(#linear-gradient-7)"/>
                              <path id="패스_1836" data-name="패스 1836" d="M5687.3,61.729v-.821h1.843v-.749h1.042v.749h1.755v.821h-1.914l1.985,2.012-.635.6-1.712-1.782-1.694,1.923-.653-.609,1.994-2.144Zm6.281,4.72a1.738,1.738,0,0,1-.163.746,2.029,2.029,0,0,1-1.085,1.033,2.135,2.135,0,0,1-1.592,0,2.006,2.006,0,0,1-.653-.42,2.033,2.033,0,0,1-.437-.613,1.776,1.776,0,0,1,0-1.491,2.021,2.021,0,0,1,.437-.613,1.987,1.987,0,0,1,.653-.419,2.122,2.122,0,0,1,1.592,0,2.023,2.023,0,0,1,1.085,1.032A1.734,1.734,0,0,1,5693.579,66.449Zm-.961-.008a1.031,1.031,0,0,0-.322-.759,1.059,1.059,0,0,0-.772-.318,1.076,1.076,0,0,0-.759,1.84,1.046,1.046,0,0,0,.759.313,1.071,1.071,0,0,0,.772-.313A1.029,1.029,0,0,0,5692.618,66.441Zm.653-1.994v-1.5h-1.377v-.837h1.377V60.255h.979v4.192Z" fill="url(#linear-gradient-8)"/>
                            </g>
                          </g>
                        </g>
                        <path id="패스_1837" data-name="패스 1837" d="M5653.786,58.753a7.28,7.28,0,0,1,8.74-.58,8.1,8.1,0,0,0-12.614,9.545,6.894,6.894,0,0,0,6.264,4.013,6.623,6.623,0,0,0,6.145-4.151,3.918,3.918,0,0,0,.277-1.453,2.874,2.874,0,0,0-5.3-1.539,2.875,2.875,0,0,1-5.289-1.267,4.987,4.987,0,0,1-.034-.565,5.214,5.214,0,0,1,1.812-4" fill="url(#linear-gradient-9)"/>
                        <path id="패스_1838" data-name="패스 1838" d="M5658.563,57.4a6.781,6.781,0,0,1,6.791,6.907A8.109,8.109,0,0,1,5660,71.941a7.361,7.361,0,0,0,4.094-6.6,6.674,6.674,0,0,0-6.674-6.674,6.245,6.245,0,0,0-4.158,1.576,3.862,3.862,0,0,0-.357.362,4.9,4.9,0,0,1,1.241-1.592,6.825,6.825,0,0,1,4.416-1.611" fill="url(#linear-gradient-10)"/>
                      </g>
                      <g id="그룹_432" data-name="그룹 432">
                        <g id="그룹_431" data-name="그룹 431">
                          <path id="패스_1839" data-name="패스 1839" d="M5648.848,30.973h4.91V29.161h4.289v1.812h4.88v3.471h-14.079Zm10.352,4.5a3.14,3.14,0,0,1,1.538.362,4.341,4.341,0,0,1,1.1,1,5.544,5.544,0,0,1,.621,1.418,7.968,7.968,0,0,1,.177,1.66,7.287,7.287,0,0,1-.177,1.631,4.569,4.569,0,0,1-.621,1.388,3.44,3.44,0,0,1-1.1,1,3.13,3.13,0,0,1-1.538.363h-6.625a3.054,3.054,0,0,1-1.538-.363,2.827,2.827,0,0,1-1.065-1,3.474,3.474,0,0,1-.621-1.388,5.865,5.865,0,0,1-.207-1.631,6.386,6.386,0,0,1,.207-1.66,4.036,4.036,0,0,1,.621-1.418,3.408,3.408,0,0,1,1.065-1,3.064,3.064,0,0,1,1.538-.362Zm-9.169,10.294h20.882v4.377a10.881,10.881,0,0,1-.237,2.294,8.152,8.152,0,0,1-.71,1.811h-4.436a8.544,8.544,0,0,0,.8-1.57,6.2,6.2,0,0,0,.3-1.66V49.235h-16.594Zm4.644-7.185a1.362,1.362,0,0,0-1.065.333,1.653,1.653,0,0,0-.266,1,1.391,1.391,0,0,0,.266.966,1.369,1.369,0,0,0,1.065.3h2.425a1.367,1.367,0,0,0,1.065-.3,1.386,1.386,0,0,0,.266-.966,1.646,1.646,0,0,0-.266-1,1.361,1.361,0,0,0-1.065-.333Zm11.95,4.166h-2.869V39.274h2.869V36.708h-2.869V33.237h2.869V29.765h4.288V44.586h-4.288Z" fill="url(#linear-gradient-11)"/>
                          <path id="패스_1840" data-name="패스 1840" d="M5682.507,38.791l-3.165,5.494H5674.7l4.348-7.668.532-.9c.148-.272.3-.543.443-.846a5.382,5.382,0,0,0,.3-.845,5.22,5.22,0,0,0,.089-1.026V30.067h4.23v2.928a3.65,3.65,0,0,0,.118,1.026,2.586,2.586,0,0,0,.3.845,4.57,4.57,0,0,0,.443.846c.149.3.326.6.5.9l4.348,7.668H5685.7Zm15.292,14.7c-1.124.091-2.307.181-3.55.242-1.241.03-2.484.06-3.726.12l-3.757.091h-10.115v-8.18h4.289v4.709h2.366c1.124,0,2.307,0,3.608-.031q1.865,0,3.816-.09c1.272-.03,2.514-.091,3.756-.151,1.183-.03,2.307-.091,3.313-.151Zm-4.555-23.726h4.288V48.209h-4.288Z" fill="url(#linear-gradient-12)"/>
                          <path id="패스_1841" data-name="패스 1841" d="M5707.619,44.948l-2.041,8.694H5701.7l3.017-11.591.355-1.3.3-1.419c.089-.513.177-1.087.236-1.751q.089-.9.089-2.173V33.538h-3.726V30.067h11.3v3.471h-3.727V35.41q0,1.268.089,2.173a13.182,13.182,0,0,0,.236,1.751,12.615,12.615,0,0,0,.326,1.419c.089.452.207.875.326,1.3l3.016,11.591h-3.875Zm7.808-3.109h-3.342V38.368h3.342v-8.6h3.845V53.944h-3.845Zm5.768-12.074h3.845V53.944h-3.845Z" fill="url(#linear-gradient-13)"/>
                          <path id="패스_1842" data-name="패스 1842" d="M5752.576,44.1h-10.115v1.661h8.341v8.18H5729.92v-8.18h8.252V44.1h-10.086V40.632h24.49Zm-23.011-13.734H5751.1v3.2h-3.018v2.295h3.018v3.2h-21.533v-3.2h2.987V33.568h-2.987Zm4.644,20.707h12.3V48.631h-12.3Zm2.632-15.213h6.951V33.568h-6.951Z" fill="url(#linear-gradient-14)"/>
                        </g>
                      </g>
                    </g>
                  </g>
                </g>
              </g>
              <g id="그룹_450" data-name="그룹 450">
                <g id="그룹_449" data-name="그룹 449" opacity="0.5" style="mix-blend-mode: multiply;isolation: isolate">
                  <g id="그룹_448" data-name="그룹 448">
                    <g id="그룹_447" data-name="그룹 447">
                      <g id="그룹_439" data-name="그룹 439">
                        <g id="그룹_437" data-name="그룹 437">
                          <path id="패스_1843" data-name="패스 1843" d="M5613.207,27.731a2.459,2.459,0,0,1,1.234.331l18.069,10.432a2.468,2.468,0,0,1,1.234,2.138V61.495a2.468,2.468,0,0,1-1.234,2.139l-18.069,10.432a2.474,2.474,0,0,1-2.469,0L5593.9,63.634a2.47,2.47,0,0,1-1.235-2.139V40.632a2.47,2.47,0,0,1,1.235-2.138l18.068-10.432a2.464,2.464,0,0,1,1.235-.331m0-3.562a6.043,6.043,0,0,0-3.015.808l-18.069,10.432a6.048,6.048,0,0,0-3.015,5.223V61.495a6.048,6.048,0,0,0,3.015,5.223l18.069,10.432a6.03,6.03,0,0,0,6.03,0l18.069-10.432a6.048,6.048,0,0,0,3.015-5.223V40.632a6.048,6.048,0,0,0-3.015-5.223l-18.069-10.432a6.043,6.043,0,0,0-3.015-.808Z" fill="#483a2e"/>
                        </g>
                        <g id="그룹_438" data-name="그룹 438">
                          <path id="패스_1844" data-name="패스 1844" d="M5594.527,47.92l5.733,3.337h0l.494.287v7.63l-6.227-3.6v6.307l17.615,10.179V65.766l-6.025-3.487V59.344h0V54.666l.705.41,5.32,3.1V51.735l-17.615-10.2Z" fill="#483a2e"/>
                          <path id="패스_1845" data-name="패스 1845" d="M5630.853,39.347l-5.979-3.437-13.473.178,2.827-1.608h0l.695-.4h0l3.455-1.966-5.087-2.938-17.595,10.171,5.061,2.872,4.227-2.394h.027l5.715-.129.292,0-3.746,6.339,5.956,3.455,4.494-9.982Z" fill="#483a2e"/>
                          <path id="패스_1846" data-name="패스 1846" d="M5631.887,41.54l-17.6,10.2V72.078l5.1-2.962V64.141l.007,0h0l3.7-2.177h0l8.792-5.167Zm-3.645,11.5-8.879,5.132h0v-2.6l8.881-5.02Z" fill="#483a2e"/>
                        </g>
                      </g>
                      <g id="그룹_446" data-name="그룹 446">
                        <g id="그룹_443" data-name="그룹 443">
                          <g id="그룹_442" data-name="그룹 442">
                            <g id="그룹_441" data-name="그룹 441">
                              <g id="그룹_440" data-name="그룹 440">
                                <path id="패스_1847" data-name="패스 1847" d="M5676.363,66.679v.864h-7.235v-.864h3.132V64.605h.971v2.074Zm-6.723-5.188v-.838h6.2v.838h-2.727L5676,64.747l-.679.555-2.576-2.938-2.585,2.938-.68-.555,2.886-3.256Z" fill="#483a2e"/>
                                <path id="패스_1848" data-name="패스 1848" d="M5682.776,63.644h-4.3v-3.23h4.2v.821h-3.229v1.606h3.326Zm-4.085.732h6.07v2.153h-5.09v.661h5.188v.8h-6.168V65.8h5.1v-.652h-5.1Zm6.07-2.806h1.13v.953h-1.13v1.306h-.97V60.255h.97Z" fill="#483a2e"/>
                                <path id="패스_1849" data-name="패스 1849" d="M5687.3,61.729v-.821h1.843v-.749h1.042v.749h1.755v.821h-1.914l1.985,2.012-.635.6-1.712-1.782-1.694,1.923-.653-.609,1.994-2.144Zm6.281,4.72a1.738,1.738,0,0,1-.163.746,2.029,2.029,0,0,1-1.085,1.033,2.135,2.135,0,0,1-1.592,0,2.006,2.006,0,0,1-.653-.42,2.033,2.033,0,0,1-.437-.613,1.776,1.776,0,0,1,0-1.491,2.021,2.021,0,0,1,.437-.613,1.987,1.987,0,0,1,.653-.419,2.122,2.122,0,0,1,1.592,0,2.023,2.023,0,0,1,1.085,1.032A1.734,1.734,0,0,1,5693.579,66.449Zm-.961-.008a1.031,1.031,0,0,0-.322-.759,1.059,1.059,0,0,0-.772-.318,1.076,1.076,0,0,0-.759,1.84,1.046,1.046,0,0,0,.759.313,1.071,1.071,0,0,0,.772-.313A1.029,1.029,0,0,0,5692.618,66.441Zm.653-1.994v-1.5h-1.377v-.837h1.377V60.255h.979v4.192Z" fill="#483a2e"/>
                              </g>
                            </g>
                          </g>
                          <path id="패스_1850" data-name="패스 1850" d="M5653.786,58.753a7.28,7.28,0,0,1,8.74-.58,8.1,8.1,0,0,0-12.614,9.545,6.894,6.894,0,0,0,6.264,4.013,6.623,6.623,0,0,0,6.145-4.151,3.918,3.918,0,0,0,.277-1.453,2.874,2.874,0,0,0-5.3-1.539,2.875,2.875,0,0,1-5.289-1.267,4.987,4.987,0,0,1-.034-.565,5.214,5.214,0,0,1,1.812-4" fill="#483a2e"/>
                          <path id="패스_1851" data-name="패스 1851" d="M5658.563,57.4a6.781,6.781,0,0,1,6.791,6.907A8.109,8.109,0,0,1,5660,71.941a7.361,7.361,0,0,0,4.094-6.6,6.674,6.674,0,0,0-6.674-6.674,6.245,6.245,0,0,0-4.158,1.576,3.862,3.862,0,0,0-.357.362,4.9,4.9,0,0,1,1.241-1.592,6.825,6.825,0,0,1,4.416-1.611" fill="#483a2e"/>
                        </g>
                        <g id="그룹_445" data-name="그룹 445">
                          <g id="그룹_444" data-name="그룹 444">
                            <path id="패스_1852" data-name="패스 1852" d="M5648.848,30.973h4.91V29.161h4.289v1.812h4.88v3.471h-14.079Zm10.352,4.5a3.14,3.14,0,0,1,1.538.362,4.341,4.341,0,0,1,1.1,1,5.544,5.544,0,0,1,.621,1.418,7.968,7.968,0,0,1,.177,1.66,7.287,7.287,0,0,1-.177,1.631,4.569,4.569,0,0,1-.621,1.388,3.44,3.44,0,0,1-1.1,1,3.13,3.13,0,0,1-1.538.363h-6.625a3.054,3.054,0,0,1-1.538-.363,2.827,2.827,0,0,1-1.065-1,3.474,3.474,0,0,1-.621-1.388,5.865,5.865,0,0,1-.207-1.631,6.386,6.386,0,0,1,.207-1.66,4.036,4.036,0,0,1,.621-1.418,3.408,3.408,0,0,1,1.065-1,3.064,3.064,0,0,1,1.538-.362Zm-9.169,10.294h20.882v4.377a10.881,10.881,0,0,1-.237,2.294,8.152,8.152,0,0,1-.71,1.811h-4.436a8.544,8.544,0,0,0,.8-1.57,6.2,6.2,0,0,0,.3-1.66V49.235h-16.594Zm4.644-7.185a1.362,1.362,0,0,0-1.065.333,1.653,1.653,0,0,0-.266,1,1.391,1.391,0,0,0,.266.966,1.369,1.369,0,0,0,1.065.3h2.425a1.367,1.367,0,0,0,1.065-.3,1.386,1.386,0,0,0,.266-.966,1.646,1.646,0,0,0-.266-1,1.361,1.361,0,0,0-1.065-.333Zm11.95,4.166h-2.869V39.274h2.869V36.708h-2.869V33.237h2.869V29.765h4.288V44.586h-4.288Z" fill="#483a2e"/>
                            <path id="패스_1853" data-name="패스 1853" d="M5682.507,38.791l-3.165,5.494H5674.7l4.348-7.668.532-.9c.148-.272.3-.543.443-.846a5.382,5.382,0,0,0,.3-.845,5.22,5.22,0,0,0,.089-1.026V30.067h4.23v2.928a3.65,3.65,0,0,0,.118,1.026,2.586,2.586,0,0,0,.3.845,4.57,4.57,0,0,0,.443.846c.149.3.326.6.5.9l4.348,7.668H5685.7Zm15.292,14.7c-1.124.091-2.307.181-3.55.242-1.241.03-2.484.06-3.726.12l-3.757.091h-10.115v-8.18h4.289v4.709h2.366c1.124,0,2.307,0,3.608-.031q1.865,0,3.816-.09c1.272-.03,2.514-.091,3.756-.151,1.183-.03,2.307-.091,3.313-.151Zm-4.555-23.726h4.288V48.209h-4.288Z" fill="#483a2e"/>
                            <path id="패스_1854" data-name="패스 1854" d="M5707.619,44.948l-2.041,8.694H5701.7l3.017-11.591.355-1.3.3-1.419c.089-.513.177-1.087.236-1.751q.089-.9.089-2.173V33.538h-3.726V30.067h11.3v3.471h-3.727V35.41q0,1.268.089,2.173a13.182,13.182,0,0,0,.236,1.751,12.615,12.615,0,0,0,.326,1.419c.089.452.207.875.326,1.3l3.016,11.591h-3.875Zm7.808-3.109h-3.342V38.368h3.342v-8.6h3.845V53.944h-3.845Zm5.768-12.074h3.845V53.944h-3.845Z" fill="#483a2e"/>
                            <path id="패스_1855" data-name="패스 1855" d="M5752.576,44.1h-10.115v1.661h8.341v8.18H5729.92v-8.18h8.252V44.1h-10.086V40.632h24.49Zm-23.011-13.734H5751.1v3.2h-3.018v2.295h3.018v3.2h-21.533v-3.2h2.987V33.568h-2.987Zm4.644,20.707h12.3V48.631h-12.3Zm2.632-15.213h6.951V33.568h-6.951Z" fill="#483a2e"/>
                          </g>
                        </g>
                      </g>
                    </g>
                  </g>
                </g>
              </g>
            </g>
          </g>
        </g>
      </g>
      <g id="그룹_460" data-name="그룹 460" transform="translate(-123 -2735)">
        <g id="그룹_459" data-name="그룹 459">
          <path id="패스_1908" data-name="패스 1908" d="M4833.183,55.68c.025.125-.05.2-.2.25a40.094,40.094,0,0,1-7.907.776h-3.554c-.25,0-.351-.125-.351-.325V42.743a.245.245,0,0,1,.276-.251h1.451a.225.225,0,0,1,.251.251V54.9h2.277a38.085,38.085,0,0,0,7.232-.7.243.243,0,0,1,.325.225Zm7.657-7.132a.244.244,0,0,1,.251.275V50.1a.224.224,0,0,1-.251.25h-3.528V61.911c0,.175-.05.276-.25.276h-1.451a.244.244,0,0,1-.25-.276v-21.2a.236.236,0,0,1,.25-.25h1.451c.2,0,.25.1.25.25v7.833Z" fill="#007f80"/>
          <path id="패스_1909" data-name="패스 1909" d="M4862.416,53.428c.15,0,.225.1.225.275v1.276c0,.15-.075.25-.225.25h-9.159v6.682a.251.251,0,0,1-.275.276h-1.427a.251.251,0,0,1-.275-.276V55.229h-9.134a.236.236,0,0,1-.25-.25V53.7a.244.244,0,0,1,.25-.275Zm-17.767-7.157c0-3.4,3.4-5.1,7.607-5.1s7.608,1.7,7.608,5.1c0,3.428-3.4,5.13-7.608,5.13S4844.649,49.7,4844.649,46.271Zm1.976,0c0,2.2,2.478,3.353,5.631,3.353,3.178,0,5.63-1.151,5.63-3.353s-2.452-3.354-5.63-3.354C4849.1,42.917,4846.625,44.069,4846.625,46.271Z" fill="#007f80"/>
          <path id="패스_1910" data-name="패스 1910" d="M4884.516,49.5a.211.211,0,0,1,.226.225V50.9c0,.176-.076.276-.226.276h-20.269a.244.244,0,0,1-.25-.276V49.724a.23.23,0,0,1,.25-.225h14.589a18.155,18.155,0,0,0,.651-3.053,63.015,63.015,0,0,1-7.433.375h-5.205c-.175,0-.25-.1-.25-.225V45.42c0-.175.075-.275.25-.275h4.88a73.225,73.225,0,0,0,7.958-.351c.05-.7.1-1.376.125-2.026h-12.487c-.175,0-.25-.1-.25-.276V41.316c0-.125.075-.225.25-.225h14.214a.218.218,0,0,1,.25.225,33.433,33.433,0,0,1-.951,8.183Zm-2.427,11.236a.244.244,0,0,1,.25.275v1.1a.225.225,0,0,1-.25.251h-14.665c-.175,0-.274-.075-.274-.251v-4.9a.25.25,0,0,1,.274-.276h12.213v-2.1h-12.263a.251.251,0,0,1-.275-.275V53.478c0-.15.1-.226.275-.226h13.964c.175,0,.226.076.226.226v4.779c0,.176-.075.276-.251.276h-12.187v2.2Z" fill="#007f80"/>
          <path id="패스_1911" data-name="패스 1911" d="M4887.949,53.3c-.25,0-.351-.125-.351-.325V46.947c0-.176.1-.251.276-.251h8.483v-3.2h-8.533a.251.251,0,0,1-.276-.275v-1.1c0-.175.1-.25.276-.25h10.235a.225.225,0,0,1,.25.25V48a.258.258,0,0,1-.25.275h-8.483v3.378h3.128a36.9,36.9,0,0,0,6.981-.626.255.255,0,0,1,.325.225l.151,1.027a.237.237,0,0,1-.2.3,38.405,38.405,0,0,1-7.631.726Zm3.278,8.633c-.2,0-.25-.1-.25-.25V55.58c0-.175.05-.275.25-.275h1.451a.243.243,0,0,1,.25.275v4.58h12.113a.239.239,0,0,1,.275.275v1.251c0,.15-.075.25-.275.25Zm11.786-5.38a.243.243,0,0,1-.274-.25V40.715a.243.243,0,0,1,.274-.25h1.427c.2,0,.275.1.275.25V56.306c0,.15-.075.25-.275.25Z" fill="#007f80"/>
          <path id="패스_1912" data-name="패스 1912" d="M4914.63,55.129a4.454,4.454,0,0,1,3.479-4.629,4.191,4.191,0,0,1-2.928-4.179c0-2.778,2.5-4.83,5.856-4.83a5.772,5.772,0,0,1,5.88,4.229.236.236,0,0,1-.174.325l-1.528.351a.25.25,0,0,1-.325-.2,3.877,3.877,0,0,0-3.853-2.828c-2.127,0-3.679,1.351-3.679,3.2a2.967,2.967,0,0,0,3.153,3.1h1a.236.236,0,0,1,.25.25v1.3a.243.243,0,0,1-.25.275h-.9c-2.453,0-3.8,1.376-3.8,3.428,0,2.1,1.527,3.754,4.555,3.754,3.4,0,4.905-1.627,4.905-3.979,0-1.577-.851-3.228-2-3.228h-.2c-.125,0-.176-.1-.176-.25v-1.3a.237.237,0,0,1,.251-.25h5.3a.236.236,0,0,1,.25.25v1.3a.244.244,0,0,1-.25.275h-2.5a4.45,4.45,0,0,1,1.376,3.428c0,3.178-2.353,5.631-6.957,5.631C4917.033,60.56,4914.63,58.132,4914.63,55.129Z" fill="#007f80"/>
          <path id="패스_1913" data-name="패스 1913" d="M4950.218,55.68c.026.125-.05.2-.2.25a40.088,40.088,0,0,1-7.907.776h-3.554c-.25,0-.35-.125-.35-.325V42.743a.244.244,0,0,1,.275-.251h1.451a.225.225,0,0,1,.251.251V54.9h2.277a38.069,38.069,0,0,0,7.232-.7.243.243,0,0,1,.325.225Zm7.657-7.132a.244.244,0,0,1,.251.275V50.1a.225.225,0,0,1-.251.25h-3.528V61.911c0,.175-.05.276-.25.276h-1.451a.245.245,0,0,1-.25-.276v-21.2a.236.236,0,0,1,.25-.25h1.451c.2,0,.25.1.25.25v7.833Z" fill="#007f80"/>
          <path id="패스_1914" data-name="패스 1914" d="M4979.452,53.428c.15,0,.225.1.225.275v1.276c0,.15-.075.25-.225.25h-9.159v6.682a.251.251,0,0,1-.275.276h-1.427a.251.251,0,0,1-.275-.276V55.229h-9.134a.236.236,0,0,1-.25-.25V53.7a.244.244,0,0,1,.25-.275Zm-17.767-7.157c0-3.4,3.4-5.1,7.607-5.1s7.608,1.7,7.608,5.1c0,3.428-3.4,5.13-7.608,5.13S4961.685,49.7,4961.685,46.271Zm1.977,0c0,2.2,2.477,3.353,5.63,3.353,3.178,0,5.63-1.151,5.63-3.353s-2.452-3.354-5.63-3.354C4966.139,42.917,4963.662,44.069,4963.662,46.271Z" fill="#007f80"/>
          <path id="패스_1915" data-name="패스 1915" d="M4991.618,55.4c.125.15.125.3,0,.4l-.9.851a.271.271,0,0,1-.426,0,16.908,16.908,0,0,1-3.9-6.356,14.049,14.049,0,0,1-4.055,6.831.26.26,0,0,1-.4,0l-.9-.85a.248.248,0,0,1,.024-.4,13.311,13.311,0,0,0,4.3-10.109V42.692c0-.175.1-.25.275-.25h1.426a.225.225,0,0,1,.251.25v3.079A13.464,13.464,0,0,0,4991.618,55.4Zm3.779-14.464c.149,0,.225.1.225.275V61.235c0,.176-.076.276-.225.276h-1.427c-.175,0-.25-.1-.25-.276V49.274h-3.454a.237.237,0,0,1-.25-.251V47.748a.245.245,0,0,1,.25-.276h3.454V41.216c0-.175.075-.275.25-.275Zm4.954-.476c.15,0,.226.1.226.25v21.2c0,.175-.076.276-.226.276H4998.9a.252.252,0,0,1-.276-.276v-21.2a.245.245,0,0,1,.276-.25Z" fill="#007f80"/>
          <path id="패스_1916" data-name="패스 1916" d="M5003.859,49.774c0-4.829,2.527-7.382,6.181-7.382,3.628,0,6.181,2.553,6.181,7.382s-2.553,7.408-6.181,7.408C5006.386,57.182,5003.859,54.6,5003.859,49.774Zm10.385,0c0-3.678-1.677-5.6-4.2-5.6-2.552,0-4.229,1.927-4.229,5.6,0,3.7,1.677,5.606,4.229,5.606C5012.567,55.38,5014.244,53.478,5014.244,49.774Zm5.8,12.413c-.175,0-.25-.1-.25-.276v-21.2a.224.224,0,0,1,.25-.25h1.452a.244.244,0,0,1,.275.25v21.2a.251.251,0,0,1-.275.276Z" fill="#007f80"/>
          <path id="패스_1917" data-name="패스 1917" d="M5045.753,58.107c.151,0,.226.1.226.276v1.276c0,.175-.075.25-.226.25h-20.269a.224.224,0,0,1-.25-.25V58.383a.244.244,0,0,1,.25-.276Zm-17.667-4.779c-.2,0-.275-.076-.275-.225V51.826a.24.24,0,0,1,.275-.275h2.853V44.119h-2.728a.24.24,0,0,1-.275-.276V42.567c0-.125.075-.225.275-.225H5043c.2,0,.275.1.275.225v1.276c0,.176-.074.276-.275.276h-2.752v7.432h2.877c.2,0,.25.1.25.275V53.1c0,.149-.049.225-.25.225Zm4.805-9.209v7.432h5.4V44.119Z" fill="#007f80"/>
          <path id="패스_1918" data-name="패스 1918" d="M5061.448,56.03c.025.151-.05.225-.2.276a40.274,40.274,0,0,1-7.908.75h-4.229a.244.244,0,0,1-.276-.25V42.743a.245.245,0,0,1,.276-.251H5059.6a.224.224,0,0,1,.25.251v1.2a.224.224,0,0,1-.25.25h-8.783v4.68h8.308a.225.225,0,0,1,.251.25v1.151c0,.15-.076.225-.251.225h-8.308v4.855h2.878a38.267,38.267,0,0,0,7.231-.7.234.234,0,0,1,.326.225Zm4.255-15.565a.243.243,0,0,1,.274.25v21.2a.251.251,0,0,1-.274.276h-1.453c-.174,0-.25-.1-.25-.276v-21.2a.225.225,0,0,1,.25-.25Z" fill="#007f80"/>
          <path id="패스_1919" data-name="패스 1919" d="M5069.685,53.428a.231.231,0,0,1-.25-.225V52.026a.244.244,0,0,1,.25-.275h20.27c.15,0,.225.1.225.275V53.2a.21.21,0,0,1-.225.225Zm3.229-4.229a.244.244,0,0,1-.276-.25V41.616a.244.244,0,0,1,.276-.25h1.425a.244.244,0,0,1,.276.25V47.5h12.212c.175,0,.25.1.25.275v1.177a.224.224,0,0,1-.25.25Zm.174,12.862a.251.251,0,0,1-.275-.275v-5.83c0-.176.1-.251.275-.251h1.427c.175,0,.276.075.276.251v4.4h12.561c.2,0,.251.1.251.25v1.176c0,.175-.051.275-.251.275Z" fill="#007f80"/>
          <path id="패스_1920" data-name="패스 1920" d="M5098.793,53.252c-.175.051-.35.051-.4-.074l-.65-1.1a.261.261,0,0,1,.074-.4c3.429-1.551,5.381-3.353,5.381-6.356v-1.7h-4.58c-.2,0-.25-.1-.25-.25V42.117c0-.175.049-.25.25-.25h11.01c.2,0,.251.075.251.25v1.251c0,.15-.05.25-.251.25h-4.479v1.7c0,2.9,2.077,4.4,5.23,5.805a.237.237,0,0,1,.076.376l-.576,1.151c-.05.125-.225.125-.4.05a10.81,10.81,0,0,1-5.256-4.129C5103.323,50.475,5101.646,51.952,5098.793,53.252Zm17.267,6.908a.239.239,0,0,1,.275.275v1.251c0,.15-.075.25-.275.25h-13.813c-.2,0-.25-.1-.25-.25V55.1c0-.175.049-.275.25-.275h1.4a.27.27,0,0,1,.3.275V60.16Zm-2.3-13.914V40.715a.244.244,0,0,1,.275-.25h1.426c.2,0,.276.1.276.25V56.306c0,.15-.075.25-.276.25h-1.426a.244.244,0,0,1-.275-.25V48h-4.479a.237.237,0,0,1-.251-.25V46.521a.244.244,0,0,1,.251-.275Z" fill="#007f80"/>
          <path id="패스_1921" data-name="패스 1921" d="M5121.245,57.332l-.7-1.176a.259.259,0,0,1,.125-.376c5.631-2.753,8.484-5.756,8.484-10.385v-.751h-7.858c-.175,0-.225-.1-.225-.25v-1.3a.2.2,0,0,1,.225-.225h9.584c.2,0,.276.1.276.225v2.3c0,5.255-3.253,8.884-9.534,12.037A.256.256,0,0,1,5121.245,57.332Zm14.888,4.855c-.175,0-.25-.1-.25-.276v-21.2a.224.224,0,0,1,.25-.25h1.452c.2,0,.275.1.275.25v21.2c0,.175-.074.276-.275.276Z" fill="#007f80"/>
          <path id="패스_1922" data-name="패스 1922" d="M5160.888,57.907c.026.176-.075.225-.25.251a52.6,52.6,0,0,1-9.76.7h-4.028c-.176,0-.251-.1-.251-.225V57.407c0-.176.075-.276.251-.276h3.528c.751,0,1.477,0,2.2-.025V54.929c-2.753-.3-4.355-1.877-4.355-4.029,0-2.4,2-4.1,5.356-4.1s5.33,1.7,5.33,4.1c0,2.178-1.6,3.754-4.38,4.029v2.127a42.952,42.952,0,0,0,5.906-.6c.2-.025.275.1.3.25Zm-13.863-12.562a.236.236,0,0,1-.25-.25v-1.2a.224.224,0,0,1,.25-.251h5.556V41.016c0-.176.075-.275.25-.275h1.451c.176,0,.25.1.25.275v2.627h5.456c.175,0,.224.075.224.251v1.2c0,.15-.049.25-.224.25Zm6.557,8.008c2.2,0,3.427-1.026,3.427-2.453,0-1.451-1.225-2.452-3.427-2.452s-3.429,1-3.429,2.452C5150.153,52.327,5151.379,53.353,5153.582,53.353Zm14.364-4.129a.244.244,0,0,1,.25.275v1.276a.231.231,0,0,1-.25.225h-3.53V61.911c0,.175-.049.276-.25.276h-1.451a.245.245,0,0,1-.25-.276v-21.2a.236.236,0,0,1,.25-.25h1.451c.2,0,.25.1.25.25v8.509Z" fill="#007f80"/>
          <path id="패스_1923" data-name="패스 1923" d="M5175.482,45.946a13.294,13.294,0,0,0,4.379,9.484c.1.15.125.275.025.4l-.926.876a.245.245,0,0,1-.4,0,16.657,16.657,0,0,1-4-6.306,14.434,14.434,0,0,1-4.13,6.757.245.245,0,0,1-.4,0l-.9-.851a.307.307,0,0,1,0-.4,13.328,13.328,0,0,0,4.43-9.959V44.494h-3.629a.218.218,0,0,1-.25-.225v-1.3a.225.225,0,0,1,.25-.251h9.009a.244.244,0,0,1,.275.251v1.3c0,.125-.1.225-.275.225h-3.453Zm12.837-5.481c.15,0,.225.1.225.25v21.2c0,.175-.075.276-.225.276h-1.451a.252.252,0,0,1-.276-.276V50.15h-3.1V61.235c0,.176-.075.276-.251.276h-1.426a.244.244,0,0,1-.25-.276V41.216a.244.244,0,0,1,.25-.275h1.426c.176,0,.251.1.251.275v7.157h3.1V40.715a.245.245,0,0,1,.276-.25Z" fill="#007f80"/>
          <path id="패스_1924" data-name="패스 1924" d="M5211.046,40.941c.15,0,.225.1.225.275V61.235c0,.176-.075.276-.225.276h-1.426c-.175,0-.25-.1-.25-.276V53.628h-3.629c-.751,2.227-2.227,3.4-4.229,3.4-2.929,0-4.755-2.527-4.755-7.232,0-4.654,1.826-7.232,4.755-7.232a4.211,4.211,0,0,1,4.029,2.928h3.829V41.216c0-.175.075-.275.25-.275Zm-6.707,8.858c0-3.6-.975-5.43-2.827-5.43-1.827,0-2.828,1.827-2.828,5.43s1,5.455,2.828,5.455C5203.364,55.254,5204.339,53.4,5204.339,49.8Zm5.031,2.052V47.272h-3.3a15.462,15.462,0,0,1,.2,2.527,17.448,17.448,0,0,1-.125,2.052ZM5216,40.465c.151,0,.226.1.226.25v21.2c0,.175-.075.276-.226.276h-1.451a.251.251,0,0,1-.275-.276v-21.2a.244.244,0,0,1,.275-.25Z" fill="#007f80"/>
          <path id="패스_1925" data-name="패스 1925" d="M5230.694,51.25a.224.224,0,0,1-.25.251h-10.26a.237.237,0,0,1-.25-.251V41.892a.244.244,0,0,1,.25-.276h1.451c.176,0,.25.1.25.276v3.027h6.882V41.892c0-.176.075-.276.251-.276h1.426c.176,0,.25.1.25.276Zm-8.809-1.476h6.882V46.6h-6.882Zm14.665,8.208c0,2.778-2.8,4.405-7.132,4.405s-7.157-1.6-7.157-4.405c0-2.827,2.827-4.429,7.157-4.429S5236.55,55.155,5236.55,57.982Zm-1.952,0c0-1.752-1.952-2.728-5.18-2.728-3.253,0-5.18.976-5.18,2.728s1.927,2.7,5.18,2.7C5232.646,60.685,5234.6,59.734,5234.6,57.982Zm5.231-12.262a.245.245,0,0,1,.25.276v1.276a.237.237,0,0,1-.25.25h-3.53V52.6c0,.125-.05.225-.25.225H5234.6a.231.231,0,0,1-.25-.225V40.715a.236.236,0,0,1,.25-.25h1.451c.2,0,.25.1.25.25V45.72Z" fill="#007f80"/>
          <path id="패스_1926" data-name="패스 1926" d="M5241.133,51.551a.224.224,0,0,1-.25-.25V50.175a.245.245,0,0,1,.25-.276h20.27c.15,0,.225.1.225.276V51.3c0,.175-.075.25-.225.25Zm3.178,10.811c-.175,0-.25-.075-.25-.251V57.357c0-.175.075-.275.25-.275h12.213V55.1h-12.263c-.175,0-.25-.1-.25-.275V53.778c0-.175.075-.275.25-.275H5258.2c.175,0,.251.1.251.275v4.63c0,.175-.076.275-.251.275h-12.187v2.052h12.938a.244.244,0,0,1,.25.275v1.1a.225.225,0,0,1-.25.251Zm.126-17.843c0-2.4,2.4-3.778,6.781-3.778,4.43,0,6.807,1.376,6.807,3.778,0,2.377-2.377,3.779-6.807,3.779C5246.839,48.3,5244.437,46.9,5244.437,44.519Zm11.636,0c0-1.326-1.5-2.127-4.855-2.127-3.3,0-4.83.8-4.83,2.127,0,1.3,1.527,2.152,4.83,2.152C5254.572,46.671,5256.073,45.82,5256.073,44.519Z" fill="#007f80"/>
          <path id="패스_1927" data-name="패스 1927" d="M5283.68,53.628c.026.15-.074.225-.25.275a40.718,40.718,0,0,1-6.731.676v6.732a.244.244,0,0,1-.25.275H5275c-.175,0-.25-.1-.25-.275V54.629h-6.056a.211.211,0,0,1-.226-.225V53.2c0-.176.076-.276.226-.276h4.479a57.5,57.5,0,0,0,10.06-.725c.2-.05.275.075.3.25Zm-13.588-7.657c0-2.678,2.1-4.78,5.631-4.78,3.5,0,5.606,2.1,5.606,4.78,0,2.652-2.1,4.8-5.606,4.8C5272.194,50.775,5270.092,48.623,5270.092,45.971Zm1.927,0c0,1.751,1.352,3.1,3.7,3.1,2.327,0,3.7-1.352,3.7-3.1,0-1.727-1.376-3.078-3.7-3.078C5273.371,42.893,5272.019,44.244,5272.019,45.971Zm14.89-5.506c.2,0,.275.1.275.25v21.2a.24.24,0,0,1-.275.276h-1.427a.25.25,0,0,1-.274-.276v-21.2a.243.243,0,0,1,.274-.25Z" fill="#007f80"/>
          <path id="패스_1928" data-name="패스 1928" d="M5304.179,44.669c0,.175-.075.25-.224.25h-12.838c-.175,0-.25-.075-.25-.25v-1.2c0-.175.075-.275.25-.275h5.4V40.615c0-.175.075-.275.25-.275h1.477a.25.25,0,0,1,.275.275v2.578h5.431c.149,0,.224.1.224.275Zm-6.68,9.96c-3.2,0-5.256-1.7-5.256-4.229,0-2.5,2.052-4.229,5.256-4.229s5.279,1.726,5.279,4.229C5302.778,52.927,5300.7,54.629,5297.5,54.629Zm0-1.6c2.176,0,3.352-1.176,3.352-2.627s-1.176-2.6-3.352-2.6c-2.153,0-3.33,1.152-3.33,2.6S5295.346,53.027,5297.5,53.027Zm11.385,7.258c.2,0,.276.1.276.25v1.251a.241.241,0,0,1-.276.275h-13.613a.24.24,0,0,1-.275-.275v-5.48c0-.15.075-.251.275-.251h1.451a.237.237,0,0,1,.25.251v3.979Zm2.827-13.038a.225.225,0,0,1,.251.25v1.252a.244.244,0,0,1-.251.274h-3.528v7.283c0,.175-.05.275-.25.275h-1.451a.244.244,0,0,1-.25-.275V40.715a.236.236,0,0,1,.25-.25h1.451c.2,0,.25.1.25.25v6.532Z" fill="#007f80"/>
          <path id="패스_1929" data-name="패스 1929" d="M5324.83,52.352c-3.554,0-5.881-2.152-5.881-5.48,0-3.3,2.327-5.506,5.881-5.506,3.578,0,5.9,2.2,5.9,5.506C5330.735,50.2,5328.408,52.352,5324.83,52.352Zm0-1.7a3.782,3.782,0,1,0-3.955-3.778A3.576,3.576,0,0,0,5324.83,50.65Zm11.736,9.51a.239.239,0,0,1,.275.275v1.251c0,.15-.075.25-.275.25H5323a.244.244,0,0,1-.275-.25V54.8a.244.244,0,0,1,.275-.25h1.452a.225.225,0,0,1,.251.25V60.16Zm2.827-13.439a.245.245,0,0,1,.251.276v1.276a.225.225,0,0,1-.251.25h-3.528v7.783c0,.15-.05.25-.25.25h-1.451a.236.236,0,0,1-.25-.25V40.715a.236.236,0,0,1,.25-.25h1.451c.2,0,.25.1.25.25v6.006Z" fill="#007f80"/>
          <path id="패스_1930" data-name="패스 1930" d="M5342.125,53.252c-.175.051-.35.051-.4-.074l-.65-1.1a.261.261,0,0,1,.074-.4c3.429-1.551,5.381-3.353,5.381-6.356v-1.7h-4.58c-.2,0-.25-.1-.25-.25V42.117c0-.175.049-.25.25-.25h11.01c.2,0,.251.075.251.25v1.251c0,.15-.05.25-.251.25h-4.479v1.7c0,2.9,2.077,4.4,5.23,5.805a.237.237,0,0,1,.076.376l-.576,1.151c-.05.125-.225.125-.4.05a10.81,10.81,0,0,1-5.256-4.129C5346.655,50.475,5344.978,51.952,5342.125,53.252Zm17.267,6.908a.239.239,0,0,1,.275.275v1.251c0,.15-.075.25-.275.25h-13.813c-.2,0-.25-.1-.25-.25V55.1c0-.175.049-.275.25-.275h1.4a.27.27,0,0,1,.3.275V60.16Zm-2.3-13.914V40.715a.244.244,0,0,1,.275-.25h1.426c.2,0,.276.1.276.25V56.306c0,.15-.075.25-.276.25h-1.426a.244.244,0,0,1-.275-.25V48h-4.479a.237.237,0,0,1-.251-.25V46.521a.244.244,0,0,1,.251-.275Z" fill="#007f80"/>
          <path id="패스_1931" data-name="패스 1931" d="M5376.513,53.628c.025.15-.051.225-.225.275a55.805,55.805,0,0,1-9.835.676H5362.5c-.175,0-.25-.075-.25-.25v-1.1c0-.176.075-.275.25-.275h3.478c.776,0,1.552,0,2.3-.026V50.9c-2.8-.3-4.3-1.751-4.3-3.678a3.049,3.049,0,0,1,1.5-2.5h-2.6c-.174,0-.225-.1-.225-.275v-1.2c0-.15.051-.225.225-.225h5.481v-2.5a.244.244,0,0,1,.275-.25h1.426a.225.225,0,0,1,.251.25v2.5h5.355c.175,0,.251.075.251.225v1.2c0,.175-.076.275-.251.275h-2.478a2.992,2.992,0,0,1,1.5,2.5c0,1.952-1.6,3.428-4.454,3.678v1.977a42.76,42.76,0,0,0,5.855-.6c.2-.026.276.1.3.25Zm-7.182-4.279c2.227,0,3.528-.9,3.528-2.252,0-1.326-1.4-2.278-3.528-2.278-2.177,0-3.529.952-3.529,2.278C5365.8,48.448,5367.053,49.349,5369.331,49.349Zm11.436,10.936c.2,0,.275.1.275.25v1.2a.24.24,0,0,1-.275.275h-13.914a.249.249,0,0,1-.274-.275V56.531c0-.15.1-.225.274-.225h1.452c.175,0,.25.075.25.225v3.754Zm2.827-12.488a.237.237,0,0,1,.251.25v1.277a.244.244,0,0,1-.251.275h-3.528v7.507c0,.176-.05.276-.25.276h-1.451a.243.243,0,0,1-.25-.276V40.715a.235.235,0,0,1,.25-.25h1.451c.2,0,.25.1.25.25V47.8Z" fill="#007f80"/>
          <path id="패스_1932" data-name="패스 1932" d="M5395.961,44.169c0,3.9-3.253,6.956-9.734,8.583-.2.05-.3.025-.35-.1l-.4-1.2a.25.25,0,0,1,.2-.35c5.732-1.477,8.283-3.9,8.283-6.907v-.45H5386.5c-.174,0-.275-.076-.275-.251V42.242a.251.251,0,0,1,.275-.275h9.184a.25.25,0,0,1,.275.275Zm7.534,13.763c0,2.8-2.854,4.455-7.258,4.455-4.354,0-7.257-1.652-7.257-4.455s2.9-4.454,7.257-4.454C5400.641,53.478,5403.5,55.129,5403.5,57.932Zm-1.928,0c0-1.776-2.052-2.752-5.33-2.752-3.253,0-5.28.976-5.28,2.752,0,1.8,2.027,2.753,5.28,2.753C5399.515,60.685,5401.567,59.734,5401.567,57.932Zm-5.205-7.282c-.175,0-.25-.1-.25-.275v-1.2a.225.225,0,0,1,.25-.251h4.929V46.171h-3.953c-.175,0-.275-.075-.275-.251v-1.2a.25.25,0,0,1,.275-.275h3.953V40.715a.245.245,0,0,1,.276-.25h1.427c.2,0,.275.1.275.25V52.527c0,.15-.075.225-.275.225h-1.427c-.175,0-.276-.075-.276-.225V50.65Z" fill="#007f80"/>
          <path id="패스_1933" data-name="패스 1933" d="M5432.852,50.125a.211.211,0,0,1,.226.225V51.5c0,.15-.076.25-.226.25h-20.269a.236.236,0,0,1-.25-.25V50.35a.23.23,0,0,1,.25-.225h9.133V47.8c0-.175.075-.275.251-.275h1.451a.251.251,0,0,1,.276.275v2.328Zm-18.618-3.354a.21.21,0,0,1,.15-.3c4.305-.976,7.308-2.628,7.308-4.83v-.8c0-.15.1-.225.275-.225h1.476c.176,0,.251.075.251.225v.8c0,2.177,3.178,3.929,7.257,4.805.15.025.225.15.15.275l-.4,1.2a.238.238,0,0,1-.3.2c-3.754-.776-6.632-2.3-7.683-4-1.076,1.752-3.8,3.178-7.758,4a.236.236,0,0,1-.3-.175ZM5430.4,60.785a.244.244,0,0,1,.25.275v1.051a.225.225,0,0,1-.25.251h-14.64c-.175,0-.25-.075-.25-.251V57.457c0-.175.075-.275.25-.275h12.188V55.155h-12.212c-.175,0-.25-.075-.25-.251V53.853a.224.224,0,0,1,.25-.25h13.913a.224.224,0,0,1,.251.25v4.6a.224.224,0,0,1-.251.25h-12.187v2.077Z" fill="#007f80"/>
          <path id="패스_1934" data-name="패스 1934" d="M5454.953,53.428c.15,0,.225.1.225.275v1.276c0,.15-.075.25-.225.25h-9.159v6.682a.251.251,0,0,1-.275.276h-1.427a.251.251,0,0,1-.275-.276V55.229h-9.134a.236.236,0,0,1-.25-.25V53.7a.244.244,0,0,1,.25-.275Zm-16.966-10.41c-.176,0-.251-.1-.251-.275V41.516c0-.15.075-.225.251-.225h13.588c.174,0,.25.075.25.225v5.33a.263.263,0,0,1-.276.276h-11.786v2.527h12.287c.175,0,.276.075.276.25v1.2a.245.245,0,0,1-.276.25h-14.013a.225.225,0,0,1-.25-.25V45.695a.224.224,0,0,1,.25-.25h11.811V43.018Z" fill="#007f80"/>
          <path id="패스_1935" data-name="패스 1935" d="M5458.335,53.353c-.15.075-.3.1-.4-.05l-.776-1.076a.236.236,0,0,1,.05-.376c3.3-1.927,5.38-4.354,5.38-7.632V41.792c0-.151.05-.25.226-.25h1.476c.15,0,.225.1.225.25v2.427c0,3.178,2.127,5.455,5.181,7.182.149.1.149.2.075.375l-.7,1.126c-.1.15-.25.15-.426.051a11.858,11.858,0,0,1-5.055-5.131C5462.714,50,5461.063,51.7,5458.335,53.353Zm17.142,6.807a.239.239,0,0,1,.275.275v1.251c0,.15-.075.25-.275.25h-13.813c-.2,0-.25-.1-.25-.25V54.829c0-.175.049-.275.25-.275h1.451a.244.244,0,0,1,.251.275V60.16ZM5468.72,48.8a.244.244,0,0,1-.25-.275V47.347a.236.236,0,0,1,.25-.25h4.454V44.945h-4.454c-.175,0-.25-.075-.25-.251V43.543c0-.175.075-.275.25-.275h4.454V40.715a.245.245,0,0,1,.276-.25h1.426c.2,0,.276.1.276.25V56.331c0,.15-.075.25-.276.25h-1.426a.245.245,0,0,1-.276-.25V48.8Z" fill="#007f80"/>
          <path id="패스_1936" data-name="패스 1936" d="M5485.566,51.8c-3.528,0-5.881-2.177-5.881-5.23s2.353-5.28,5.881-5.28c3.5,0,5.881,2.227,5.881,5.28S5489.069,51.8,5485.566,51.8Zm0-1.7c2.4,0,3.954-1.5,3.954-3.529,0-2.052-1.552-3.553-3.954-3.553s-3.954,1.5-3.954,3.553C5481.612,48.6,5483.164,50.1,5485.566,50.1ZM5497,53.453a.224.224,0,0,1,.25.25v8.183c0,.175-.075.276-.25.276h-13.138a.251.251,0,0,1-.275-.276V53.7a.244.244,0,0,1,.275-.25h1.452c.149,0,.225.1.225.25v2.352h9.785V53.7c0-.15.075-.25.224-.25Zm-11.461,7.057h9.785v-2.8h-9.785Zm11.436-20.045c.2,0,.275.1.275.25V52.051c0,.126-.075.226-.275.226h-1.427c-.175,0-.274-.1-.274-.226V40.715a.243.243,0,0,1,.274-.25Z" fill="#007f80"/>
          <path id="패스_1937" data-name="패스 1937" d="M5502.737,56.706a.243.243,0,0,1-.25-.275V42.743a.236.236,0,0,1,.25-.251h1.476c.175,0,.225.1.225.251V54.9h2.6a38.267,38.267,0,0,0,7.232-.7.243.243,0,0,1,.325.225l.176,1.251c.024.125-.051.2-.2.25a39.639,39.639,0,0,1-7.882.776Zm14.914,5.481c-.175,0-.25-.1-.25-.276v-21.2a.224.224,0,0,1,.25-.25h1.452a.243.243,0,0,1,.274.25v21.2a.25.25,0,0,1-.274.276Z" fill="#007f80"/>
          <path id="패스_1938" data-name="패스 1938" d="M5536.224,55.78c.025.176-.05.225-.2.275a38.29,38.29,0,0,1-7.907.776h-3.679c-.25,0-.325-.125-.325-.325V42.993a.224.224,0,0,1,.25-.25H5534.5a.224.224,0,0,1,.25.25v1.251a.225.225,0,0,1-.25.25h-8.433V55.08h2.4a38.155,38.155,0,0,0,7.232-.726.255.255,0,0,1,.325.2Zm7.657-7.232a.244.244,0,0,1,.251.275V50.1a.224.224,0,0,1-.251.25h-3.528V61.911c0,.175-.05.276-.25.276h-1.451a.244.244,0,0,1-.25-.276v-21.2a.236.236,0,0,1,.25-.25h1.451c.2,0,.25.1.25.25v7.833Z" fill="#007f80"/>
          <path id="패스_1939" data-name="패스 1939" d="M5545.712,59.159a1.452,1.452,0,1,1,1.453,1.426A1.4,1.4,0,0,1,5545.712,59.159Z" fill="#007f80"/>
        </g>
      </g>
    </g>
  </g>
</svg>
